<?xml version="1.0" encoding="utf-8"?>
<!-- Generator: Adobe Illustrator 26.2.1, SVG Export Plug-In . SVG Version: 6.00 Build 0)  -->
<svg version="1.1" id="Calque_1" xmlns="http://www.w3.org/2000/svg" xmlns:xlink="http://www.w3.org/1999/xlink" x="0px" y="0px"
	 viewBox="0 0 256 256" style="enable-background:new 0 0 256 256;" xml:space="preserve">
<style type="text/css">
	.st0{fill:#050505;}
	.st1{fill:#673398;}
	.st2{fill:#FDFDFD;}
</style>
<path class="st0" d="M29.6,240.2c0.6,0.2,1.2,0.1,1.9,0.1c8.9-0.3,17.7,0.7,26.6-0.7c1.7-0.3,3.5,0.1,5.3-0.6
	c0.8-0.3,1.5-0.9,2.5-0.9c2.6-0.2,3.7-1.4,3.7-4c0-0.7,0.1-1.4,0.1-2.2c-0.2-0.9-0.1-1.7,0.3-2.7c-1.2,0.9-1.4,2.4-2.6,3
	c0,0.7-0.1,1.3-0.1,2c0.2,0.7-0.4,1-0.8,1.4c-0.5,0.4-1.1,0.2-1.7,0.3c-1.2,0.8-2.4,1.6-3.9,1.5c-1.9,0.1-3.8-0.2-5.7,0.2
	c-0.4,0.8-1.2,0.8-1.9,0.8c-7.4,0-14.8,0-22.2,0c-0.8,0-1.5-0.1-2-0.8c-1.9,0-3.8-0.1-5.7-0.1c-0.7,0.3-1-0.3-1.3-0.7
	c-3.7,0-7.3,0-11-0.1c-0.5,0-1.1,0.1-1.6-0.1c-0.7-0.6-1.6-0.9-2.2-1.6c0-0.6-0.1-1.2-0.1-1.8c-0.4-0.3-0.9-0.6-0.7-1.3
	c0-4-0.2-7.9,0.1-11.9c0-0.4,0.3-0.8,0.6-1c0-1.6,0-3.2,0.1-4.7c0.3-0.8,0.5-1.6,0.8-2.4c0.1-0.1,0.1-0.2,0.2-0.2
	c0.7-0.9,0.9-2.1,2-2.8c0.2-0.1,0.3-0.2,0.5-0.2c0.6-0.3,0.7-0.9,1.2-1.3c0.5-0.1,1.1-0.2,1.6-0.3c0-0.3,0.2-0.4,0.4-0.3
	c0.1-0.1,0.2-0.1,0.3-0.2c0.2-0.4,0.5-0.3,0.8-0.3c4.5,0.1,9.1-0.4,13.6,0.4c0.2,0,0.4,0.1,0.5,0c1.4-0.7,1.9,0.2,2.5,1.2
	c0.5,0,1.1,0.1,1.6,0.1c0.1-0.3,0.2-0.5,0.5-0.4c2-0.7,4-0.3,6.1-0.3c0.3-0.1,0.5,0,0.5,0.3c0,0.3-0.3,0.4-0.6,0.2
	c-1.9,0.2-3.8,0.1-5.7,0.1c0,0.5-0.2,0.8-0.7,0.8c-0.2,0.3-0.2,0.6,0,0.9c0.4,0,0.5,0.2,0.5,0.5c0.3,0,0.6,0.1,0.9,0.1
	c7.8,0,15.6,0,23.4,0c0.3,0,0.5-0.1,0.8-0.1c0.4-0.9,1.5-0.8,2.1-1.4c0.1-0.3,0.1-0.6-0.1-0.9c-0.2,0-0.4-0.1-0.3-0.3
	c0-0.3,0.2-0.4,0.5-0.3c1.9-0.1,2.3,0.2,2.4,2c0,0.3,0.1,0.5,0.1,0.8c1.4,0,2.8,0,4.2,0c1.3,0,1.9,0.6,1.9,1.9c0,0.4,0,0.8,0,1.2
	c-0.6,4.4,1.1,8.7,0.8,13.2c0,0.4,0.1,0.6,0.5,0.5c0.2-0.7-0.1-1.4,0.3-2.1c1-1.2,0.3-2.7,0.7-3.9c-0.3-3-0.1-6.1-0.1-9.1
	c0-2.3-1.6-3.8-3.9-3.8c-0.4,0-0.7,0-1.1,0c-0.9,0-1.7,0-0.7-1.2c0.5-0.6,0.2-1.2-0.4-1.6c-0.5-0.3-1-0.4-1.6-0.3
	c0,0.3-0.2,0.4-0.4,0.1c0.2,0.4-0.1,0.6-0.5,0.6c-2.1,0.3-3.9,1.5-5.8,2.2c-0.5,0.2-1,0.2-1.5,0.2c-2.2,0-4.5,0-6.7,0
	c-1.7,0-3.4,0-5-0.8c-0.2-0.1-0.6-0.1-0.5-0.5c0.1-0.4,0.4-0.3,0.6-0.3c2.2,0,4.3-0.1,6.5-0.1c-0.6-0.9-1.5-0.4-2.3-0.7
	c-0.6-0.2-1.3-0.1-2-0.2c-0.5,0.2-1,0-1.6-0.1c-1.4,0.3-2.6-0.3-3.9-0.7c-1.2,0.2-2.5,0.2-3.7-0.1c-1.1,0.1-2.1,0.4-3.2,0.2
	c-2.6,0.3-5.2-0.6-7.7-0.7c-4.1-0.2-8.2-0.1-12.3-0.1c-0.5,0-0.9,0.1-1.3,0.3c-1.5,0.6-2.4,2.4-4.3,2.2c-0.3,0-0.6,0.4-0.7,0.8
	c-0.2,0.6-0.6,1.1-1,1.6c-1,1.2-1.8,2.6-2,4c-0.4,2.3-0.5,4.7-0.8,7.1c-0.4,3.8-0.2,7.7-0.1,11.6c0.1,1.6,0.6,3.3,1.1,4.9
	c0.1,0.4,0.1,0.6,0,0.8c0.9,0.8,1.7,1.6,2.5,2.4c0.3,0,0.6,0,0.9,0c2.4,0.3,4.8,0.1,7.1,0.1c3,0,6,0,9,0L29.6,240.2z"/>
<path class="st1" d="M45.2,205.1c-1.4,0.3-2.6-0.3-3.9-0.7c-0.6-0.7-1.5-1.3-1.8-2.1c-0.6-1.6-1.7-2.8-2.9-3.9
	c-2.1-2-3.1-4.9-5.5-6.7c-0.2-0.1-0.2-0.4-0.3-0.6c-0.7-1.3-2.2-2.1-2.7-3.6c-0.1-0.3-0.6-0.5-0.9-0.2c-0.3,0.2-0.1,0.6,0,0.8
	c0.4,0.6,0.5,1.3,1.3,1.6c0.3,0.1,0.6,0.5,0.6,0.8c0.2,1.7,1,3.2,1.9,4.6c1.6,2.5,2.9,5.2,4.9,7.4c0.5,0.6,1.4,0.9,1.5,1.8
	c-1.1,0.1-2.1,0.4-3.2,0.2c-0.1-0.2-0.1-0.6-0.3-0.7c-1.9-1.6-2.5-4.1-4.1-5.9c-0.7-0.8-1.1-1.9-1.6-2.9c-0.8-1.5-1.5-3-2.5-4.5
	c-0.8-1.2-1.8-2.6-2-4.2c-0.1-0.8-0.3-1.5-0.8-2.1c-0.8-1-1.1-2.3-1.5-3.5c-0.6-1.9-1-3.9-2.6-5.3c-0.2-0.2-0.3-0.4-0.3-0.7
	c-0.3-2.3-1-4.5-2.2-6.5c-0.1-0.2-0.2-0.3-0.2-0.5c0-2.8-0.7-5.4-0.9-8.2c-0.8-9.5-0.4-18.9-0.6-28.4c-1.6-4.8-0.3-9.8-0.8-14.7
	c-0.2-1.6,0.5-3,1-4.4c0.5-1.4,0.4-2.8,0.5-4.2c0.3-2.6,0.7-5.3,1-7.9c0.2-1.6,0.4-3.2,0.6-4.8c0.3-1.7,1.3-3.1,2.2-4.5
	c0.2-0.3,0.6-0.5,0.6-0.7c-0.2-2.6,2.4-4.1,2.6-6.6c0.1-1,1.4-1.6,1.7-2.7c0.5-1.5,1.6-2.8,2.4-4.2c0.1-0.2,0.3-0.4,0.2-0.6
	c-0.2-1.6,0.7-2.7,1.5-3.9c1-1.4,0.8-3.3,1.6-4.8c1.1-2.2,1-4.8,2.7-6.7c0.7-0.8,0.1-2,0.8-2.9c0.6-0.8,1.1-1.6,1.7-2.4
	c1.6-2.1,3.5-3.8,5.4-5.5c0.3-0.2,0.6-0.5,0.7-0.8c0.6-1.5,1.4-2.5,3.3-1.9c1,0.3,2.2-0.7,3-1.5c2.4-2.1,5.2-3.5,7.9-5.1
	c1.3-0.7,2.5-1.8,3.5-2.9c0.3-0.4,0.7-0.8,1.2-0.8c1.6-0.2,3-1,4.1-1.8c2.1-1.5,4.5-2.7,6.7-3.9c1.9-0.9,3.6-2.1,5.3-3.2
	c1.8-1.1,4.1-1.3,5.9-2.5c1.1-0.8,2.3-0.8,3.6-0.8c0.4,0,0.8,0,1-0.1c1.1-0.8,2.2-1.5,3.6-1.4c0-0.6-0.3-0.6-0.5-0.6
	c-1.7,0.1-3.4,0-5.1,0.5c-1.6,0.5-3.3,1.4-5.2,1c-1.1-0.2-2,0.5-2.9,0.9c-0.8,0.4-1.6,0.6-2.4,0.6c-1.1,0-1.8,1.1-3,0.8
	c-0.7-0.2-1.4-0.1-1.6-0.9c-0.2-0.8,0.5-1.2,1.1-1.5c1-0.5,2-1,3.2-0.8c1.1,0.2,2-0.7,3-0.9c2.1-0.6,4.2-0.9,6.3-1.5
	c2.4-0.6,4.9-0.3,7.3-0.9c1.8-0.4,3.6-0.3,5.4-0.5c3-0.4,6-0.5,8.9-1.4c0.3-0.1,0.7-0.1,1.1-0.1c1.9,0,3.8,0,5.7,0
	c1.1,0,2.3,0.3,3.3-0.7c0.3-0.3,1.1,0,1.7-0.1c1.8-0.2,3.7,0.6,5.3-0.7c0.2-0.2,0.6-0.1,0.9-0.1c4.5,0,9.1-0.4,13.6,0.1
	c2.6,0.3,5.3,0.1,7.7,0.8c1.7,0.5,3.6,0.1,5,0.7c1.7,0.8,3.6,0.1,5.1,1.3c0.2,0.2,0.7,0.1,1,0.2c0.7,0,1.5-0.2,1.9,0.6
	c0,0.1,0.2,0.1,0.2,0.1c1.7-0.6,3,0.9,4.6,0.8c1-0.1,2,0.7,3,1c1.3,0.4,2.6,1.2,4,1.3c0.7,0,0.9,0.6,1.5,0.8
	c2.2,0.7,4.4,1.7,6.5,2.8c1.3,0.6,2.8,1.1,4.2,1.7c1.6,0.8,3.4,1.2,4.5,2.6c0.4,0.5,1,0.5,1.5,0.7c1.8,0.8,3.2,2.2,5,3
	c1.1,0.5,2.2,1.3,3.2,2.2c1.6,1.4,3.2,2.9,5.1,3.8c0.1,0.1,0.2,0.2,0.3,0.3c2.3,2.6,5.4,4.3,7.7,6.9c1.1,1.3,3.1,1.6,4.1,3.1
	c1.6,2.2,3.6,4.1,5.3,6.2c1.7,2.1,3.2,4.5,4.7,6.8c0.9,1.4,1.7,2.8,2.9,4c0.5,0.5,0.6,1.1,0.8,1.6c0.8,1.7,2.3,3,2.8,4.9
	c0.2,0.8,1,1.5,1.5,2.2c0.7,1.1,0.6,2.3,1.3,3.4c1.1,1.7,1.8,3.7,2.8,5.5c0.5,0.9,0.6,2,1,2.9c0.9,1.8,1.7,3.7,2.1,5.6
	c0.2,1.2,0.6,2.5,1.1,3.4c0.8,1.4,0.1,3.1,1.3,4.2c0,0,0.1,0.1,0.1,0.1c-0.4,1.8,0.7,3.3,1,5c0.4,2.4,0.1,5.1,1.8,7.2
	c0.1,0.1,0.3,0.3,0.3,0.5c-0.2,2,0.8,3.8,0.8,5.8c0.1,4.3,0.5,8.6-0.1,12.8c-0.4,3-0.3,6.1-0.8,9c-0.2,1.5-0.3,3.2-0.8,4.6
	c-0.7,1.8-1.3,3.4-1.6,5.3c-0.1,0.7-0.2,1.6-0.6,2.2c-0.8,1.4-0.3,3.1-1.3,4.4c-0.4,0.5-0.1,1,0.1,1.5c0.8,2.2,0.7,4.4,0,6.7
	c-0.6,1.9-1.9,3.5-2.4,5.4c-0.2,0.7-0.1,1.4-0.1,2.1c-0.1,3.2-0.7,6.3-2.2,9.3c-1.1,2.1-2.5,3.7-4.1,5.3c-0.3,0.3-0.8,0.5-1.2,0.5
	c-1.7-0.3-2.7,0.4-3.3,1.9c-0.6,1.4-1.6,2.6-2.4,3.7c-1.3,1.7-2.4,3.7-4.3,4.9c-0.6,0.4-0.8,0.8-0.7,1.5c0.1,0.9-0.2,1.7-1.1,1.9
	c-1.7,0.5-2,2-2.7,3.2c-0.6,1.1-1.1,1.3-2,0.7c-1-0.7-1.5-0.5-1.8,0.6c-0.4,1.3-1.5,2-2.3,3c-1.3,1.6-2.1,3.6-4.1,4.5
	c-0.1,0.1-0.3,0.3-0.3,0.4c0.1,1.7-1.4,1.9-2.4,2.5c-1.4,0.8-2.8,1.7-3.1,3.6c-0.2,1.6-2.9,2.5-4.1,1.4c-1.2-1-1.8-1.1-3,0.2
	c-1.6,1.6-3.3,3-5.3,4.2c-1.9,1.2-3.8,2.4-6.2,2.9c-1,0.2-1.9,0.6-2.9,0.7c-1,0.2-1.7,1.1-2.2,2c-1.2,2.1-3.1,3.1-5.5,3.2
	c-0.5,0-0.9,0.1-1.4,0.4c-0.9,0.6-1.7,0.6-2.1-0.6c-0.2-0.6-0.5-0.6-1-0.5c-2.6,0.5-5.2,0.9-7.8,1.5c-1.5,0.4-2.7,1.4-4.2,1.8
	c-1,0.3-2.1,0.2-2.6,1.6c-0.2,0.7-2.2,0.5-2.6-0.2c-0.3-0.6-0.6-0.5-1.2-0.4c-2.2,0.5-4.4,1.3-6.6,1.9c-4.6,1.2-9.3,1.2-13.7,0.5
	c-5.9-0.9-11.8-0.1-17.7-0.6c-2.2-0.2-4.4-0.8-6.5-1.7c-2.1-1-4.2-2-6.7-2c-4.5,0-9-1.3-13.5-0.8c-0.2,0-0.6,0-0.8-0.2
	c-1.8-1.6-4.3-1.6-6.1-3.1c-0.6-0.5-1.4-0.6-2.2-0.5c-0.4,0-0.9,0-1-0.5c-0.4-1.2-1.4-1.1-2.3-1.1c-0.2-0.9-0.1-1.7,0.3-2.7
	c-1.2,0.9-1.4,2.4-2.6,3c-0.3-0.1-0.2-0.4-0.1-0.6c0.7-0.8,1.3-1.6,1.8-2.6c0.3-0.6,1-1.5,1.5,0c0.1,0.5,0.7,0.5,1.1,0.6
	c0.7,0,1.3,0.3,1.7,1c0.2,0.3,0.4,0.5,0.7,0.6c2.5,0.2,4.3,2.5,6.8,2.5c0.1,0,0.2,0,0.2,0.1c1.2,1.6,2.9,1.2,4.4,1.2
	c2.3,0.1,4.6-0.3,6.9,0.7c1,0.4,2.3,0.2,3.7-0.1c-0.9-0.7-1.7-0.2-2.1-0.7c-0.9-0.9-2.2-1-3.2-1.2c-1.8-0.4-3.3-1.4-5-2
	c-2-0.7-4.1-1.8-6.1-2.7c-3-1.3-5.6-3-8.4-4.5c1-1.2,0.3-2.7,0.7-3.9c1.5,0.7,3.3,0.6,4.8,1.4c1.9,1,4,1.7,6.3,1.6c1,0,2,0,2.5,1.1
	c0.2,0.4,0.6,0.3,1,0.4c0.6,0.1,1.2,0,1.7,0.2c2.1,0.8,4.3,1.1,6.5,1.5c2.2,0.4,4.3,1.7,6.7,1.6c0.3,0,0.5,0.4,0.8,0.5
	c1.1,0.4,2.2,1,3.5,0.8c0.5-0.1,1,0.2,1.4,0.3c1.6,0.5,3,1.3,4.7,1.2c0.3,0,0.7,0.1,1,0.2c2.8,1.5,5.9,2.1,9,2c1.2,0,2.4,0.1,3.4,1
	c0.6,0.5,1.3,0.7,2,0.6c2.1-0.2,3.9,0.6,5.8,1.3c1.6,0.6,3.5,0.6,5,0.1c1.2-0.4,2.2-0.5,3.3-0.6c0.9,0,2,0.3,2.7-0.1
	c1.5-1.1,3.1-0.5,4.7-0.7c0.4,0,0.8,0.1,1-0.2c0.6-0.7,1.4-0.7,2.1-0.6c1.6,0.2,3-1.2,4.6-0.9c0.1,0,0.1-0.1,0.2-0.1
	c1.4-0.7,2.9-0.6,4.3-1.2c0.6-0.3,1.4-0.2,2.1-0.6c0.7-0.4,1.3-1.1,2.2-1c1.2,0,2.2-0.7,3.3-1c0.7-0.2,1.6-0.1,2.2-0.6
	c2.4-1.6,5-2.7,7.7-3.6c2.9-1,5.2-3.1,7.9-4.4c2.1-0.9,3.7-2.9,6.4-2.6c0.8,0.1,1.2-0.5,0.9-1.2c-0.3-0.7,0-1.2,0.4-1.4
	c1-0.4,1.7-1.4,2.6-1.7c2.1-0.9,3.6-2.7,5.3-4.1c4.2-3.5,7.8-7.6,11.7-11.5c0.3-0.3,0.6-0.5,0.7-0.8c0.5-1.8,2-2.8,3-4.2
	c1.2-1.6,2.1-3.4,3.7-4.8c0.6-0.6,1.4-1.5,1.6-2.5c0.5-1.9,2-3.2,2.8-4.8c0.8-1.5,2.2-2.7,1.9-4.7c-0.1-0.8,0.5-1.5,1-2.2
	c0.2-0.3,0.5-0.7,0.5-1.1c0.3-1.9,1.1-3.7,1.9-5.4c0.2-0.3,0.3-0.6,0.3-1c0.2-3-0.4-6.1,0.7-9.1c0.6-1.7,0.8-3.6,1.7-5.3
	c0.3-0.6,0.5-1.3,0.8-2c0.5-1.4,0.9-2.9,2.1-3.8c0.7-0.6,0.9-1.2,0.9-2.1c0-3.6,0.2-7.2-0.1-10.8c-0.3-3,0.9-5.6,1.9-8.2
	c0.7-1.8,0.8-3.8,0.2-5.4c-0.6-1.6-0.5-3.1-0.6-4.7c-0.1-1.5,0.1-3-0.2-4.4c-0.4-2.2-1.3-4.3-1.3-6.6c0-0.2,0-0.4-0.1-0.5
	c-0.8-1.5-1.3-3-1.7-4.6c-0.5-2.1-0.8-4.4-2-6.3c-0.8-1.2-0.7-2.9-1.8-4c-0.2-0.2-0.2-0.6-0.4-0.8c-0.9-1.4-0.8-3.2-1.8-4.6
	c-2.1-3-3.4-6.5-5.6-9.5c-0.1-0.2-0.2-0.4-0.2-0.6c0-2.3-1.6-4-2.9-5.6c-1.2-1.5-2-3.5-3.7-4.6c-0.1,0-0.1-0.1-0.2-0.2
	c-0.6-1.9-2.2-3.3-3.4-4.7c-2.3-2.7-5-5.2-7.6-7.7c-1.8-1.7-3.4-4-6.3-4c-0.4,0-0.7-0.3-0.9-0.7c-0.2-0.5-0.5-0.7-1-0.9
	c-1.4-0.6-2.7-1.6-4-2.5c-0.6-0.4-0.9-1-1.7-1.2c-2.2-0.5-3.7-2.3-5.4-3.6c-1.4-1.1-3-2-4.4-3.1c-1-0.8-2.5-1.1-3.5-2.1
	c-1-1-2.2-1.8-3.4-2.4c-1.9-0.9-4.1-1.1-6-2.3c-2.3-1.5-5.1-1.9-7.7-2.2c-2.8-0.3-5.5-1.3-8.3-1c-0.6,0.1-1.1-0.1-1.7-0.4
	c-1.3-0.7-2.7-1.2-4.3-1.2c-4.2,0.2-8.3-0.2-12.4-1.3c-2.5-0.7-5.2-1.3-8-1c-2.8,0.3-5.6,0-8.4,0.1c-1.6,0.1-3.2-0.1-4.9,0.6
	c-1.8,0.7-3.9,0.3-5.9,0.8c-1.6,0.4-3.3,1.1-5,0.9c-0.1,0-0.2,0-0.2,0.1c-1.1,1.3-2.8,0.5-4.2,1.3c-0.9,0.5-2.3,0.7-3.4,1.1
	c-1.9,0.7-3.9,1.1-5.7,2c-0.5,0.2-0.8,0.8-1.4,0.8c-1.9,0.1-3.2,1.4-4.8,2.1c-1.3,0.6-2.6,1.4-3.9,1.7c-1.1,0.3-2.1,0.7-2.9,1.4
	c-1.5,1.4-3.4,2-5,3c-1.4,0.9-3.1,1.8-4.5,2.7c-2.1,1.5-4.2,3-6.2,4.6c-2,1.6-4,3.2-5.9,5c-1.2,1.1-1.4,3.3-3.6,3.6
	c-2.3,2.6-5.1,4.6-7,7.6c-1.4,2.1-3,4.1-4.5,6.1c-1.4,1.7-2.6,3.6-3.9,5.4c-0.4,0.6-0.3,1.3-0.9,1.8c-1,0.7-1.3,1.9-1.8,3
	c-0.6,1.2-1.2,2.4-1.9,3.7c-0.9,1.8-1.8,3.6-2.7,5.3c-0.5,0.9-0.6,2-1,2.9c-0.5,1.1-1.1,2.1-1.4,3.3c-0.2,0.9-0.3,2-0.9,2.7
	c-1.4,1.6-1.4,3.7-1.9,5.6c-0.4,1.5-1.4,3-1,4.7c0,0.1,0,0.2-0.1,0.3c-1.2,1.5-0.3,3.4-1.2,5c-0.6,1.2-0.3,2.8-0.7,4.3
	c-0.7,2.1-0.6,4.5-0.8,6.7c-0.5,4.9-0.1,9.9-0.1,14.9c0,0.2-0.1,0.5,0,0.7c1.3,1.7,0.5,3.6,0.7,5.4c0,0.4-0.1,0.8,0.2,1
	c0.8,0.6,0.7,1.3,0.6,2.1c-0.3,2.1,1.3,4,0.9,6.1c0,0.1,0.1,0.2,0.1,0.2c0.8,1.4,0.9,3,1.2,4.5c0.3,1.5,1,2.9,1.1,4.4
	c0.1,0.7,0.2,1.9,0.9,2.6c1.1,1.3,1.3,3.1,1.8,4.7c0.3,1,0.7,2,1.2,2.8c1,1.7,1.7,3.6,2.7,5.4c1,1.8,1.9,3.6,2.7,5.4
	c0.5,1.1,1.5,1.8,1.8,2.9c0.6,1.8,1.8,3.3,2.9,4.7c1.3,1.5,2,3.5,3.7,4.7c0.1,0.1,0.2,0.2,0.2,0.3c0.6,1.9,2.2,3,3.3,4.6
	c1.3,1.9,3.3,3.3,4.9,5c0.9,1,2.1,1.7,2.6,2.9c-0.4,0.1-0.8,0.2-1.1,0.3c-0.4,0.4-0.6,0.2-0.7-0.2c-0.6-0.9-1.5-0.4-2.3-0.7
	c-0.6-0.2-1.3-0.1-2-0.2c-0.3-0.8-1.1-1.3-1.7-1.9c-1.2-1.2-2.7-2.2-3.5-3.7c-0.9-1.7-2.2-3.1-3.3-4.6c-1.1-1.4-1.8-3.2-3.4-4.3
	c-0.1,0-0.1-0.1-0.1-0.2c-0.5-1.3-1.2-2.4-2-3.5c-0.6-0.9-1.4-1.8-1.9-2.8c-0.5-1-0.9-2.2-1.7-3c-0.2-0.2-0.6-0.3-0.6-0.7
	c-0.1-2.3-1.5-4.1-2.5-6c-1.1-2.1-1.9-4.2-2.8-6.3c-0.2-0.5-0.7-1-0.8-1.6c-0.2-1.4-0.9-2.7-1.3-4c-0.3-1.1-1.1-2.1-1-3.2
	c0.1-1.5-0.8-2.6-1-3.9c-0.3-2-1.3-3.9-1.3-6.1c0-0.6,0.4-1.6-0.4-1.6c-0.8,0-0.3,1-0.4,1.5c-0.5,2.9,1,5.7,0.7,8.6
	c-0.3,2.6,0.8,5,0.9,7.5c0,0.2,0.1,0.4,0.2,0.5c1.5,1.4,1,3.7,2,5.3c0.7,1.1,0.5,2.6,1.3,3.7c1.2,2,2.3,4,3.6,5.9
	c0.4,0.7,0.8,1.4,1.3,2c0.8,1,1.5,2,2.6,2.8c0.8,0.6,0.8,1.8,1.6,2.4c0.6,0.4,1.3,0.8,1.5,1.5c0.4,1.4,1.5,2.1,2.4,3
	c0.2,0.3,0.6,0.5,0.7,0.8c0.9,3.5,4.7,4.9,5.8,8.3c0,0,0.1,0.1,0.1,0.1C43.3,202.4,43.7,204.4,45.2,205.1z M91.4,229.2
	c0.7,0.5,1.3,1.2,2.3,1.2c2-0.1,3.3,1.9,5.4,2c0.5,0,1.1,0.3,1.7,0.4c0.4,0,1-0.2,1.2,0.3c0.5,1.1,1.3,0.7,2.1,0.7
	c0.3,0,0.6-0.3,0.9-0.1c1.7,1.1,3.7,0.9,5.5,1.3c2.1,0.4,4,0.4,5.6,2c0.6,0.7,2,0.7,2.5,0c0.6-0.8-0.5-1.2-1.1-1.6
	c-0.3-0.3-0.7-0.4-1.1-0.4c-1.1,0.1-2.1-0.1-3-0.8c-1.1-0.8-2.5-0.6-3.7-1c-1.9-0.7-3.8-1.5-5.9-1.5c-0.8,0-1.8-0.2-2.2-0.6
	c-1.1-1-2.3-0.8-3.6-0.8c-0.7,0-1.4-0.2-2-0.7C94.6,228.6,93,228.9,91.4,229.2z M51.2,46c-0.9,0.1-1.3,0.6-1.8,1
	c-1.2,0.9-2.3,2-3.6,2.4c-1.4,0.4-1.9,1.6-2.9,2.3c-1.2,0.9-1.6,2.5-2.6,3.6c-0.4,0.5-0.8,1-1.1,1.5c-0.3,0.5-0.7,1.2,0.1,1.7
	c0.8,0.4,1-0.2,1.5-0.8c1.4-2,2.9-3.9,4.6-5.5C47.5,50.4,49.7,48.7,51.2,46z M229.5,182.4c1.1-1.4,3.1-1.7,3.9-3.6
	c0.7-1.7,1.3-3.3,1.2-5.1c0-0.3,0.1-0.7-0.3-0.8c-0.5-0.1-0.4,0.4-0.5,0.6c-0.6,0.9-0.5,2-1,2.8
	C231.5,178.2,231.1,180.6,229.5,182.4z M235.9,153.8c-0.1,0-0.3,0-0.4,0c-0.6,2.5-1.2,5-1.7,7.5c-0.1,0.3,0,0.6,0,0.9
	c0,0.2,0.1,0.5,0.4,0.4c0.1,0,0.3-0.3,0.3-0.4c-0.2-1.4,1.3-2.4,0.8-3.9c-0.1-0.2,0.1-0.5,0.3-0.7
	C236.6,156.4,236.1,155.1,235.9,153.8z M21.2,92.6c-0.1,0.2-0.3,0.3-0.4,0.5c-1.2,1.4-1.7,3-1.5,4.8c0,0.4,0,0.9,0.5,0.9
	c0.5,0,0.4-0.5,0.4-0.9c0-1.6,0.7-3.1,1.4-4.5C21.8,93.1,21.6,92.8,21.2,92.6z M89,228.9c0.4-0.1,1,0.1,1-0.4c0-0.5-0.5-0.4-0.8-0.4
	c-0.4,0-0.7-0.1-0.9-0.4c-0.4-0.5-1-0.3-1.5-0.3c-0.4,0-0.5,0.5-0.2,0.5C87.4,228,88,229,89,228.9z M107.5,239.2
	c1.1,0.5,2.2,0.4,3.6,0C109.7,238.8,108.6,238.5,107.5,239.2z M122,236.5c0.2,0,0.4,0,0.6,0c0.3,0,0.8,0.1,0.8-0.4
	c0-0.4-0.5-0.3-0.8-0.3c-0.2,0-0.5,0-0.7,0c-0.5,0.1-1.3-0.3-1.3,0.4C120.7,236.8,121.6,236.4,122,236.5z M32.3,70
	c-0.1-0.3,0-0.9-0.5-0.8c-0.5,0.1-0.4,0.6-0.4,1c0,0.3,0,0.7,0.5,0.7C32.4,70.8,32.3,70.4,32.3,70z M106.4,238.4
	c-0.7-0.3-1.2-0.6-1.8-0.2c-0.1,0,0,0.3,0,0.3C105.1,238.8,105.7,238.9,106.4,238.4z M18.9,99.6c-0.2,0.7-0.6,1-0.2,1.5
	c0.1,0.1,0.3,0.2,0.5,0C19.5,100.8,19.4,100.3,18.9,99.6z"/>
<path class="st1" d="M64.3,204.5c0,0.3-0.2,0.4-0.4,0.1c-1.4,0-2.2-1.1-3.3-1.7c-1.3-0.8-2.7-1.4-3.4-2.7c-0.9-1.8-2.3-2.7-4-3.6
	c-1.8-1-3.4-2.7-4.7-4.4c-1.4-1.7-2.8-3.3-4.1-5.1c-1.1-1.6-2.3-3.1-2.1-5.2c0-0.4,0-0.9-0.3-1.3c-0.8-1.4-0.5-3.3-1.9-4.4
	c-0.1-0.1,0-0.4-0.1-0.7c0-0.5-0.2-0.9-0.5-1.2c-0.6-0.5-0.8-1.4-1.2-1.8c-1.6-1.5-2-3.2-2.3-5.3c-0.2-1.6-1.2-3-1.3-4.7
	c0-0.6-0.2-1.1-1-0.6c-0.9,0.5-1.4-0.2-1.9-0.8c-1.6-1.9-2.3-4.3-3.2-6.5c-0.2-0.5-0.7-0.9-0.6-1.5c0.5-4.9-1.2-9.7-0.8-14.6
	c0-0.2,0-0.5,0-0.7c0-1.1-0.1-2.3,1.1-3c0.2-0.1,0.4-0.4,0.4-0.7c-0.4-3.1,0.8-6.1,0.7-9.1c0-1.8,0.5-3.4,1-5c0.8-2.4,1.2-5,1.3-7.4
	c0.1-2.6,0.9-5,1-7.5c0-0.2,0.1-0.5,0.3-0.6c1.4-1.1,1.7-3,2.6-4.4c2.2-3.5,2.9-7.7,5.2-11.2c0.2-0.2,0.1-0.6,0.1-0.9
	c0.1-0.5,0-1,0.2-1.5c1.2-2.7,3-5,4.3-7.6c0.9-1.8,2.2-3.3,3.1-5.1c0.8-1.5,1.4-3.1,3.2-3.7c0.1-0.1,0.3-0.2,0.3-0.4
	c0.4-1.1,1.4-1.6,2.1-2.4c0.9-1.2,2.3-1.7,3.4-2.8c1.6-1.6,2.9-3.3,5.1-4.3c1.9-0.9,3.9-2,5.4-3.3c2.5-2.2,5.4-3.8,7.9-5.9
	c1.1-0.9,2.1-1.9,3.4-2.6c1.2-0.6,2.2-1.6,3.4-2.3c1.1-0.7,2.2-1.4,2.9-2.7c0.5-0.8,1.5-0.4,2.2-0.7c1.5-0.8,3.1-0.9,4.7-1.3
	c1.2-0.3,2.3-0.6,3.4-1c1.9-0.7,3.9-1.2,5.7-1.1c3,0.1,5.4-1.4,8.1-2.1c2.1-0.5,4.3-1,6.5-1.8c1.1-0.4,2.5-0.5,3.6-0.6
	c2.2-0.2,4.3-1.3,6.6-1c1.2,0.2,2.3,0,3.5,0c0.6,0,1.2-0.1,1.7,0.2c2,1.4,4.2,1.5,6.4,1.3c0.8,0,1.6,0.1,2,0.8
	c0.5,0.7,1.1,0.9,1.9,0.8c3.5-0.4,6.9,0.3,10.2,0.8c1.3,0.2,2.7,0.5,4,0.9c1.8,0.5,3.6,1.4,5.5,1.3c3.1-0.2,6.2,0.6,9.3-0.6
	c1.9-0.7,3.4,0.9,5.2,1.7c-0.2,0.2-0.3,0.3-0.3,0.3c-2.4-0.3-4.6,0.6-7,0.8c-0.3,0-0.7,0-0.8,0.3c-0.2,0.4,0.3,0.5,0.4,0.8
	c0.3,0.9,1.2,0.4,1.7,0.8c0.6,0.5,1.4,1.3,2.1,1.2c1.8-0.1,2.8,1.5,4.4,1.8c1.4,0.3,2.6,1.5,4,2.2c1.4,0.8,2.9,1.4,4.1,2.6
	c0.6,0.5,1.4,1,2.2,1.4c1,0.5,1.6,1.4,2.5,1.8c1.7,0.6,2.7,2.1,4.2,2.9c1.4,0.8,2.7,1.6,3.8,3c0.6,0.8,1.1,1.2,0.7,2.2
	c-0.2,0.6-0.2,1.4,0.5,1.7c1.3,0.4,2,2.1,3.6,1.8c0.2,0,0.4,0.2,0.6,0.3c1.6,1.4,3.3,2.2,5.5,2c0.6-0.1,1,0.2,1.5,0.5
	c1.4,0.9,2.2,2.5,3.5,3.6c1.2,1,1.7,2.3,1.6,3.9c-0.1,0.7-0.3,0.9-0.9,0.5c-0.4-0.2-0.7-0.9-1.2-0.3c-0.4,0.5-0.4,1.1,0.1,1.5
	c1.5,1.3,1.9,3.2,2.9,4.8c1,1.6,1.9,3.5,3.5,4.3c2.4,1.1,3.3,3.3,3.9,5.3c0.7,2.5,2.3,4.6,2.9,7.1c0.3,1.2,1.2,2.3,1.1,3.7
	c-0.1,0.9,0,1.7,0.9,2.2c0.4,0.2,0.4,0.6,0.5,1c0.6,2.7,0.5,5.5,2.2,8c1.1,1.5,2.2,3.2,2.8,5.2c0.6,1.9,0.6,3.8,0.2,5.7
	c-0.5,2.2-1.2,4.4-1.2,6.7c0,3-1.3,5.8-0.8,8.7c0,0.2-0.1,0.4-0.2,0.5c-0.9,0.9-0.7,2.2-1.3,3.3c-0.8,1.6-0.9,3.5-1.5,5.2
	c-0.8,2.6-2.1,5-3.1,7.5c-0.8,2.1-1.8,4.2-2.2,6.4c-0.4,2.2-1.9,4-1.9,6.3c0,1.9-1.7,3.3-2.5,5c-0.3,0.7-0.5,1.4-1.1,2
	c-1.3,1.3-2.1,3.1-3,4.7c-1.5,3-3.3,5.7-5.6,8.2c-0.5,0.6-1.2,1-1.7,1.7c-1,1.2-2.1,2.5-3.4,3.3c-1.3,0.8-1.8,1.9-2.3,3.1
	c-0.1,0.2-0.1,0.5-0.3,0.6c-1.9,2-3.3,4.4-5.4,6.1c-0.3,0.2-0.5,0.4-0.8,0.4c-0.8-0.1-1.3,0.5-1.8,0.9c-1.7,1.4-3.4,2.8-5.3,3.8
	c-2.4,1.2-4.7,2.4-6.5,4.3c-1.5,1.6-3.4,2.5-5.4,3.2c-0.6,0.2-1,0.9-1.7,0.7c-1.4-0.2-1.9,0.7-2.3,1.7c-0.2,0.5-0.4,1.1-0.9,1.1
	c-1.5,0.1-2.8,0.5-3.9,1.5c-0.2,0.2-0.7,0.1-1.1,0.1c-2.3,0.1-4.6,0.2-6.9,0.6c-2.8,0.5-5.7,0.8-8.6,0.9c-3.2,0.1-6.4,0.7-9.6-0.6
	c-1.5-0.6-3.2,0.5-4.8,0.6c-4.4,0.2-8.7,0.1-13.1,0.1c-0.3,0-0.8,0.1-0.9-0.1c-1.1-1.1-2.4-0.7-3.7-0.7c-1.5,0-3.1,0-4.4-0.9
	c-1.4-1-3.4-0.9-4.5-2.6c-0.3-0.5-1.1-0.3-1.7-0.3c-1.8-0.1-3.6,0.4-5.2-0.2c-2.1-0.7-4.2-1.2-6.5-1.3c-0.3,0-0.6,0.1-0.8-0.1
	c-1.5-1.4-3.6-0.5-5.4-1.3c-1.4-0.6-3.1-1-4.5-1.8c-1.3-0.6-2.8-1-3.7-2c-0.9-1-2-1.7-3.2-2.4c-1.5-0.8-2.5-2.3-4.2-2.8
	c-0.5-0.1-1.5-0.9-1.1-1.5c0.9-1.2-0.4-1.3-0.8-1.6c-0.5-0.5-1.4-0.6-1.9,0c-0.6,0.6-0.9,0.5-1.5,0c-0.9-0.8-1.9-1.5-2.8-2.2
	c-1.9-1.5-3.6-3.2-5.6-4.7c-0.6-0.4-1-1.2-1.6-1.6c-0.6-0.4-1-1.1-1.7-1.1c0.7,1.9,1.3,3.9,3.5,4.7c0.2,0.1,0.3,0.4,0.5,0.6
	c0.4,0.5,0.8,0.8,1.4,1C65.2,202.4,65.3,202.8,64.3,204.5z M180.2,208c-2.3-0.8-4.1-2-6.4-1.8c-1,0.1-2,0.2-2.9-0.2
	c-1.5-0.6-3.5-0.4-4.3-2.3c-0.3-0.6-1-0.6-1.7-0.6c-1.7-0.1-3.3,0-5-0.5c-2.2-0.6-4.6-1.3-7-0.9c-0.5,0.1-0.9-0.1-1.3-0.3
	c-1.4-0.7-3.1-1.2-4.5-1.1c-3.2,0.2-5.8-1.8-8.8-2c-0.8-0.1-1.6-0.4-2.4-0.4c-0.7,0-1.4-0.2-2-0.6c-1.4-1-2.9-1.5-4.6-1.8
	c-0.9-0.2-1.6-0.6-2.1-1.3c-0.5-0.7-1-1.4-1.9-1.8c-1.7-0.9-3.3-1.8-5-2.6c-3.6-1.7-6.2-4.5-8.5-7.7c-1.3-1.9-3.3-3.1-4.2-5.3
	c-0.2-0.4-0.7-0.7-0.7-1.1c0-2.3-1.1-4.4-0.9-6.7c0.2-2.4,0.2-4.8,0-7.2c-0.3-4,2-6.5,4.7-8.6c2-1.5,4.3-2.8,6.6-4.1
	c1-0.5,2.2-0.1,2.9-0.8c2-1.8,4.6-1.9,6.9-2.7c0.6-0.2,1.1-0.8,1.9-0.6c1.5,0.3,2.8-0.5,4.1-1.2c0.3-0.1,0.6-0.4,0.8-0.4
	c3.2,0.5,6.3-0.8,9.5-0.8c2.6,0,5.1,0,7.7,0c0.7,0,1.3-0.1,1.4-1c0-0.8-0.4-1.3-1.2-1.4c-0.8-0.1-1.5,0-2.3-0.1
	c-0.8,0-1.7,0.1-2.4-0.1c-3-0.8-6.2-1.2-9.2-1.2c-1.7,0-3.5,0.6-5.3,0.5c-1.2,0-2.1,0.3-2.9,1.1c-0.9,1-2.1,1.5-3.4,1.3
	c-3-0.5-5.5,1.2-8.3,1.7c-2.6,0.5-4.4,2.6-6.5,4.2c-1,0.8-2,1.8-3.1,2.7c-2.3,1.8-3.2,4.7-4.7,7c-1.5,2.3-2.1,5.3-1.8,8.3
	c0.1,1.3,0.2,2.7,0,4c-0.4,3,1.1,5.7,0.9,8.6c0,0.1,0,0.3,0.1,0.4c1.4,2.2,3.2,4.2,3.9,6.9c0.1,0.4,0.7,0.6,1.1,0.9
	c1.9,1.4,3.8,2.7,5.5,4.4c0.5,0.5,1,1.1,1.7,1.2c1.7,0.2,3.2,1,4.5,2.1c1.3,1.1,2.7,2,4.5,1.7c0.5-0.1,1-0.1,1.3,0.5
	c0.6,1.3,1.7,1.8,3.1,1.7c0.9-0.1,1.5,0.3,2,1.1c0.3,0.6,0.8,1.2,1.6,1.3c2.2,0.2,4.2,1.2,6,2.4c1.6,1.1,3.5,1.5,5.2,2.3
	c1.9,0.8,4.1,1,5.9,2.2c1,0.7,2,0.9,3.2,0.8c0.8,0,1.5,0.1,2.2,0.4c1.9,0.8,3.9,1.5,5.9,1.7c2.3,0.3,3.9,1.9,6.3,2.6
	c-1,0.5-1.6,0.4-2.1,0.4c-10-0.4-20,0.7-30-0.7c-4.6-0.6-9.4-0.1-14-0.1c-0.9,0-1.6-0.1-2.5-0.5c-0.8-0.4-1.7-1-2.6-0.9
	c-1.5,0.1-3-0.2-4.4-0.8c-1.8-0.9-3.7-1.8-5.5-2.8c-0.4-0.2-0.9-0.6-1-1c-0.8-2.6-2.8-4.9-2.6-7.8c0-0.3-0.1-0.6-0.2-0.9
	c-0.7-2-1.2-4-2-5.9c-0.6-1.4-0.5-2.8-0.9-4.2c-0.9-2.7-2-5.2-2-8.1c0-0.3-0.1-0.7-0.3-1c-1.5-2.5-2.4-5.2-2.1-8.2
	c0.1-0.6,0.1-1.2-0.3-1.8c-0.8-1.4-1.2-2.8-1.2-4.5c0.1-3.7,0-7.4,0-11.1c0-0.6,0.1-1.2,0.4-1.8c0.8-1.6,1.5-3.2,1.9-5
	c0.3-1.4,0.7-3.1,2.1-4.1c0.6-0.4,0.8-0.9,0.8-1.6c-0.1-1.3,0-2.4,1.2-3.2c0.2-0.1,0.3-0.5,0.3-0.7c-0.1-1.2,0.2-2.2,0.8-3.2
	c1-1.6,1.1-3.6,2.2-5.1c0.9-1.2,2-2.3,1.7-4.1c0-0.1,0.2-0.4,0.3-0.4c1.1-0.1,1.3-1,1.6-1.8c0.3-1.1,0.9-1.8,2-2.1
	c0.5-0.2,0.7-0.6,0.6-1.1c-0.1-0.8,0.4-1.4,0.9-1.9c0.7-0.6,1.3-1.2,1.7-2c0.3-0.5,0.7-1,1.4-1.3c0.6-0.3,1.4-0.6,2-1.1
	c1.9-1.7,3.4-3.8,5.9-4.6c0.9-0.3,1-1.5,1.9-1.6c1.6-0.2,3.1-1,4.8-0.8c1.1,0.2,2.2-0.1,3.4,0c1.1,0,1.6-0.4,1.5-1.5
	c0-1.1-0.5-1.6-1.7-1.6c-2.1,0-4.2,0-6.3,0c-1.4,0-2.9-0.3-3.9,1.2c-0.1,0.2-0.5,0.2-0.7,0.3c-1.1,0.7-2.7,0.4-3.6,1.1
	c-1.7,1.3-3.7,2.4-5.1,4.1c-0.2,0.2-0.3,0.5-0.5,0.6c-1.8,0.7-3,2.2-4.4,3.5c-0.5,0.4-0.9,0.7-1.6,0.7c-0.9-0.1-1.5,0.3-2.1,0.8
	c-0.8,0.6-1.2,1.5-1.7,2.4c-0.8,1.6-2.1,2.8-3.2,4.2c-1.8,2.4-2.6,5.4-3.4,8.3c-0.3,1.2-1.1,2.2-0.9,3.6c0,0.2-0.2,0.3-0.4,0.4
	c-0.9,0.4-1.1,1.1-1.1,2c0.1,1.3-0.8,2.1-1.2,3.2c-0.2-1.1-0.2-2.1-0.2-3.1c0-1.1-0.3-2.4,0.2-3.2c0.7-1.2,0.6-2.3,0.6-3.5
	c0-1.1,0-2.2,0-3.2c0-0.4,0-0.8,0.2-1c1.7-1.5,2-4.2,4.2-5.2c0.4-0.2,0.6-0.7,0.9-1.1c0.9-1.4,1.8-2.8,3.2-3.7
	c1.8-1.1,3.4-2.6,5.4-3.4c0.5-0.2,1-0.7,1.1-1.3c0.1-0.6,0.1-1.2-0.5-1.7c-0.7-0.5-1.1,0.1-1.5,0.4c-0.2,0.1-0.4,0.4-0.6,0.5
	c-2.9,2-6.2,3.4-8.2,6.5c-1.3,2-3.4,3.2-4.5,5.3c-0.4,0.7-0.8,1.4-1.5,1.8c-0.5,0.3-0.5,0.9-0.6,1.4c-0.2,2.6,0.2,5.2-0.6,7.8
	c-0.7,2.6-0.5,5.5-0.8,8.2c-0.7,5.3,0.4,10.8-0.8,16.2c-0.5,2.4-0.3,5-0.6,7.4c-0.7,6,0,12.1,0.7,18.1c0,0.2,0.1,0.5,0.2,0.6
	c1.4,2.5,1.4,5.3,1.9,8c0.5,2.4,0.8,4.6,2.2,6.6c0.4,0.6,1,1.4,0.9,2.2c-0.3,2.4,0.6,4.3,2,6.2c0.6,0.9,1.2,2,0,3.1
	c-0.7,0.7,0,1.2,0.7,1.4c0.4,0.2,1-0.1,1.3,0.5c-0.1,0.1-0.2,0.2-0.3,0.2c-2.3,0.1-4.7,0.4-6.7-1.1c-0.6-0.5-1.5-0.7-2.2-1.1
	c-1.8-1-4-1.1-5.4-2.9c-0.4-0.5-0.7-0.1-0.7,0.4c0,0.8,0,1.5-0.2,2.3c-0.1,0.4,0,0.8,0.4,0.9c1.9,0.5,2.9,2.4,4.7,2.9
	c0.5,0.2,1.1,0.3,1.4,0.7c1.7,1.9,4.3,1.8,6.5,2.5c1.3,0.4,2.8,0.5,4.1,0.7c3.3,0.6,6.5,1.9,9.9,1.6c3.4-0.4,6.5,1.2,9.9,0.9
	c1.3-0.1,2.9-0.3,4,0.2c1.8,0.8,3.9,0.4,5.7,1.4c0.6,0.4,1.3,0.8,2,0.7c3.5-0.3,6.8,1,10.3,0.7c1.4-0.1,2.8,0.1,4.1-0.3
	c-0.4-0.2-0.8-0.3-1.1-0.4c-3.8-0.5-7.7-1-11.5-1.4c-3.3-0.4-6.6-1-9.8-1.9c-3-0.9-6.1-1.6-9.1-2.1c-1.5-0.3-3-0.6-4.5-1
	c-0.4-0.1-0.8-0.3-0.8-0.8c0-0.4,0.4-0.4,0.8-0.4c2.9-0.1,5.7,0.1,8.5,1c3.1,1,6.3,1.5,9.5,2c1.3,0.2,2.7,0,3.7,1.1
	c0.4,0.4,0.9,0.3,1.4,0.3c1.8,0,3.7-0.4,5.5,0.2c0.9,0.2,1.7,0.5,2.6,0.6c5.6,0.7,11.2,1.2,16.8,1.6c0.4,0,1,0,1.2,0.5
	c0.4,1.8,1.8,1.2,2.7,0.8c1-0.4,1.9-0.4,2.9-0.5c2.3-0.2,4.5-0.9,6.2-2.7c-0.6-0.4-1.2-0.4-1.6-0.1c-0.7,0.5-1.3,0.2-2,0.2
	c-1.6,0-1.3-1.4-1.3-2.2c0-0.9,0.9-0.5,1.5-0.6c0.6-0.1,1.2,0,1.8,0c2.8,0.2,5.5-0.2,7.7-2.2c0.7-0.7,2.2-1,1.4-2.6
	c-0.2-0.3,0.3-0.4,0.5-0.4C177.7,210.5,178.6,208.8,180.2,208z M94.1,100.9c0.9-0.9,1.8-1.8,2.7-2.7c0.9-1,2-0.7,3.1-0.8
	c0.6,0,0.9-0.3,1.2-0.8c0.2-0.5-0.1-0.8-0.4-1c-0.7-0.6-4-0.5-4.6,0.1c-0.7,0.6-1.3,1.4-2,2c-1.4,1.1-2,2.9-3.6,3.9
	c-1.4,0.9-3.6,0.9-4,3.1c0,0-0.1,0.1-0.1,0.1c-1.6,0.9-3.1,2.1-4.9,2.6c-0.6,0.2-0.9,0.7-1.2,1.2c-0.5,1-1.2,1.8-2,2.5
	c-0.5,0.5-0.9,0.9-1.2,1.5c-1,1.6-1.5,3.5-2.9,4.9c-0.9,0.8-1.6,1.6-1.4,3c0.1,0.6-0.2,1.1-0.5,1.6c-0.6,1.4-1.7,2.6-1.8,4.1
	c-0.1,1.8-0.6,3.6-1.1,5.1c-0.9,2.8-1.7,5.7-3.2,8.3c-0.1,0.2-0.3,0.5-0.3,0.7c-0.2,2-1.5,3.7-1.8,5.8c-0.4,2.3-1.1,4.6-1.2,6.9
	c-0.1,7.2-0.5,14.3,0.5,21.5c0.3,1.9,0.1,3.9,0,5.8c-0.2,2.6,0.3,5.1,1.5,7.5c0.3,0.6,0.8,1.2,0.8,1.8c-0.1,2,1.4,3.4,1.9,5.2
	c0.5,1.5,1.7,2.6,2.1,4.2c0.2,0.9,0.6,1.9,1.8,2.5c2.2,1,4.6,1.1,6.8,2.2c0.8,0.4,1.1-0.1,1-0.9c-0.1-0.7-0.5-1.1-1.1-1.3
	c-0.7-0.2-1-0.6-1.3-1.2c-0.7-1.3-1.4-2.7-2.1-4c-0.5-0.9-1-1.8-0.9-2.9c0.2-1.4-0.2-2.7-1.1-3.8c-0.2-0.2-0.3-0.5-0.3-0.7
	c-0.1-2.2-0.7-4.3-1.7-6.2c-0.9-1.8-0.3-3.8-1.4-5.5c-0.2-0.3-0.2-1.2,0.5-1.2c1.8,0.2,1.8-1,1.8-2.2c0-7.9,0-15.8,0-23.6
	c0-0.7,0-1.4,0.3-2.1c0.8-2,1.4-4.1,1.2-6.4c-0.1-0.8,0.2-1.5,0.5-2.3c0.4-1,1-2,1-3.1c0.1-1.4,0.8-2.6,1.2-3.9
	c0.5-1.5,1.5-2.8,1.8-4.3c0.3-1.7,1.2-2.7,2.3-3.8c0.4-0.4,0.9-0.8,1.4-0.6c1.2,0.5,1.9-0.3,2.3-1.1c0.5-1,1.2-1.8,1.9-2.5
	c1.7-1.8,3.5-3.4,5.2-5.3c0.9-1,1.7-2,2.8-2.8c1-0.7,2.6-1,3-2.1c0.8-2,2.8-2.3,4.2-3c1.5-0.8,2.9-2,4.9-2.1
	c1.8-0.1,3.6-1.4,5.6-1.3c0.5,0,1.1-0.2,1-0.8c0-0.6-0.7-0.5-1.1-0.5c-1.6,0-3.2,0-4.7,0c-0.3,0-0.7,0-0.8-0.3
	c-0.1-0.4,0.3-0.4,0.6-0.6c1-0.6,2.2-1,3.1-1.9c0.6-0.6,1.4-0.9,2.2-1.2c1.5-0.5,3.1-0.7,3.9-2.3c0.1-0.3,0.6-0.4,0.9-0.6
	c1.7-1.1,3.8-1.5,5.7-2.3c0.5-0.2,1.1-0.4,1.1-1c-0.1-0.7-0.7-1.1-1.3-1.1c-2.5,0.2-5.2-0.9-7.3,1.3c-0.1,0.1-0.3,0.2-0.5,0.2
	c-1.7,0.5-3,1.5-4.2,2.7c-0.6,0.6-1.3,1.3-2.2,0.7c-1.3-0.8-1.9,0.1-2.3,0.9c-0.5,1-1.3,1.6-2.1,2.2c-1.9,1.3-3.8,2.7-5.5,4.2
	c-0.6,0.5-1.2,0.7-2,0.6c-0.4-0.1-0.7-0.4-0.2-0.7c0.8-0.5,1.4-1.4,2.4-1.7c0.6-0.2,1.2-0.6,0.9-1.2c-0.3-0.7-1-1.1-1.9-0.6
	C96.1,99.9,95.2,100.5,94.1,100.9z M231.5,122.1c0-0.5-0.1-1.1-0.4-1.7c-0.7-1.7-2.3-3-2.7-4.8c0-0.2-0.1-0.3-0.4-0.3
	c-0.2,0-0.3,0.2-0.3,0.4c-0.1,1.1-0.4,2.2,0.3,3.1c0.9,1.3,2.3,2.3,2,4.3c-0.1,0.5,0.6,1.1,1.2,1.1c0.5,0,0.3-0.7,0.4-1.2
	C231.6,122.7,231.5,122.5,231.5,122.1z M53.5,191c0.3,0.7,0.7,1.1,0.7,1.6c0,0.5-0.1,1.3,0.6,1.2c0.6-0.1,0.4-1,0.4-1.5
	C55.1,191.5,54.5,191.2,53.5,191z M228.8,137.1c-0.6,1.2-0.4,2.2-0.3,3.2c0,0.1,0.2,0.4,0.3,0.4c0.2,0,0.4-0.2,0.5-0.4
	C229.3,139.3,229.5,138.3,228.8,137.1z M31,138.8c-0.1,0.8-0.7,1.4-0.1,2.1c0.1,0.2,0.4,0.1,0.5,0C31.9,140.2,31.7,139.5,31,138.8z
	 M148,221.5c-1.2-0.1-2.5-0.3-3.7-0.4c-0.2,0-0.4,0.2-0.4,0.4c0,0.3,0.2,0.4,0.4,0.4C145.5,222,146.8,222.2,148,221.5z M38.7,167.6
	c-0.4,0.1-0.3,0.5-0.3,0.8c0,0.3,0.2,0.6,0.5,0.5c0.3-0.1,0.2-0.4,0.2-0.7C39.1,167.9,39.1,167.6,38.7,167.6z"/>
<path class="st2" d="M64.3,204.5c1-1.8,0.9-2.2-0.9-2.9c-0.6-0.2-1-0.6-1.4-1c-0.2-0.2-0.3-0.5-0.5-0.6c-2.2-0.8-2.8-2.8-3.5-4.7
	c0.8,0,1.2,0.7,1.7,1.1c0.6,0.5,1,1.2,1.6,1.6c1.9,1.5,3.7,3.1,5.6,4.7c0.9,0.7,1.9,1.4,2.8,2.2c0.5,0.5,0.9,0.6,1.5,0
	c0.6-0.6,1.4-0.5,1.9,0c0.4,0.4,1.7,0.4,0.8,1.6c-0.4,0.6,0.6,1.4,1.1,1.5c1.8,0.4,2.7,2,4.2,2.8c1.2,0.6,2.2,1.3,3.2,2.4
	c0.9,1,2.4,1.4,3.7,2c1.5,0.7,3.1,1.2,4.5,1.8c1.8,0.8,3.8-0.1,5.4,1.3c0.2,0.1,0.5,0.1,0.8,0.1c2.2,0,4.4,0.6,6.5,1.3
	c1.7,0.5,3.5,0.1,5.2,0.2c0.6,0,1.4-0.2,1.7,0.3c1.1,1.7,3,1.6,4.5,2.6c1.3,0.9,2.8,0.9,4.4,0.9c1.2,0,2.6-0.4,3.7,0.7
	c0.2,0.2,0.6,0.1,0.9,0.1c4.4,0,8.7,0.2,13.1-0.1c1.6-0.1,3.3-1.2,4.8-0.6c3.2,1.3,6.4,0.7,9.6,0.6c2.9-0.1,5.8-0.4,8.6-0.9
	c2.3-0.4,4.6-0.5,6.9-0.6c0.4,0,0.8,0.1,1.1-0.1c1.1-1,2.4-1.5,3.9-1.5c0.5,0,0.7-0.7,0.9-1.1c0.4-1,0.9-2,2.3-1.7
	c0.7,0.1,1.1-0.5,1.7-0.7c2-0.7,3.8-1.5,5.4-3.2c1.8-1.9,4.1-3.2,6.5-4.3c2-1,3.6-2.4,5.3-3.8c0.6-0.5,1-1,1.8-0.9
	c0.3,0,0.6-0.2,0.8-0.4c2.2-1.7,3.6-4.1,5.4-6.1c0.1-0.1,0.2-0.4,0.3-0.6c0.5-1.2,1-2.3,2.3-3.1c1.3-0.8,2.4-2.1,3.4-3.3
	c0.5-0.6,1.2-1.1,1.7-1.7c2.2-2.5,4.1-5.2,5.6-8.2c0.8-1.6,1.6-3.4,3-4.7c0.6-0.6,0.8-1.3,1.1-2c0.7-1.7,2.4-3.1,2.5-5
	c0-2.3,1.6-4.1,1.9-6.3c0.3-2.1,1.3-4.3,2.2-6.4c1-2.5,2.3-4.9,3.1-7.5c0.6-1.7,0.6-3.6,1.5-5.2c0.6-1.1,0.4-2.4,1.3-3.3
	c0.1-0.1,0.2-0.3,0.2-0.5c-0.5-3,0.9-5.8,0.8-8.7c0-2.3,0.7-4.5,1.2-6.7c0.4-1.8,0.4-3.7-0.2-5.7c-0.6-2-1.7-3.7-2.8-5.2
	c-1.7-2.5-1.6-5.3-2.2-8c-0.1-0.4-0.1-0.9-0.5-1c-1-0.5-1-1.3-0.9-2.2c0.1-1.3-0.7-2.4-1.1-3.7c-0.6-2.5-2.2-4.6-2.9-7.1
	c-0.6-2-1.5-4.2-3.9-5.3c-1.6-0.8-2.5-2.7-3.5-4.3c-1-1.6-1.4-3.5-2.9-4.8c-0.5-0.4-0.4-1-0.1-1.5c0.5-0.6,0.9,0,1.2,0.3
	c0.7,0.4,0.9,0.2,0.9-0.5c0.1-1.6-0.4-2.9-1.6-3.9c-1.3-1.1-2-2.6-3.5-3.6c-0.5-0.3-0.9-0.5-1.5-0.5c-2.1,0.2-3.9-0.5-5.5-2
	c-0.2-0.1-0.4-0.4-0.6-0.3c-1.6,0.3-2.3-1.4-3.6-1.8c-0.7-0.2-0.7-1.1-0.5-1.7c0.3-1-0.1-1.4-0.7-2.2c-1.1-1.3-2.5-2.2-3.8-3
	c-1.5-0.8-2.5-2.3-4.2-2.9c-0.9-0.3-1.6-1.3-2.5-1.8c-0.7-0.4-1.6-0.8-2.2-1.4c-1.2-1.2-2.7-1.8-4.1-2.6c-1.3-0.8-2.5-2-4-2.2
	c-1.6-0.3-2.6-1.9-4.4-1.8c-0.7,0-1.5-0.7-2.1-1.2c-0.5-0.4-1.4,0.1-1.7-0.8c-0.1-0.3-0.6-0.4-0.4-0.8c0.1-0.3,0.5-0.3,0.8-0.3
	c2.3-0.2,4.6-1.2,7-0.8c0.1,0,0.1-0.1,0.3-0.3c-1.7-0.8-3.3-2.5-5.2-1.7c-3.1,1.2-6.2,0.5-9.3,0.6c-1.9,0.1-3.7-0.8-5.5-1.3
	c-1.3-0.4-2.7-0.7-4-0.9c-3.4-0.5-6.8-1.2-10.2-0.8c-0.8,0.1-1.4-0.1-1.9-0.8c-0.5-0.7-1.2-0.8-2-0.8c-2.3,0.1-4.5,0.1-6.4-1.3
	c-0.5-0.3-1.1-0.2-1.7-0.2c-1.2,0-2.4,0.1-3.5,0c-2.3-0.3-4.4,0.8-6.6,1c-1.1,0.1-2.5,0.2-3.6,0.6c-2.1,0.8-4.3,1.3-6.5,1.8
	c-2.7,0.6-5.1,2.2-8.1,2.1c-1.8-0.1-3.9,0.5-5.7,1.1c-1.1,0.4-2.2,0.7-3.4,1c-1.6,0.4-3.2,0.5-4.7,1.3c-0.7,0.4-1.8-0.1-2.2,0.7
	c-0.7,1.2-1.8,2-2.9,2.7c-1.2,0.7-2.2,1.6-3.4,2.3C78,49,76.9,50,75.9,50.9c-2.5,2.1-5.5,3.6-7.9,5.9c-1.5,1.4-3.5,2.5-5.4,3.3
	c-2.1,1-3.5,2.7-5.1,4.3c-1,1.1-2.5,1.6-3.4,2.8c-0.6,0.8-1.6,1.4-2.1,2.4c-0.1,0.2-0.2,0.3-0.3,0.4c-1.8,0.6-2.4,2.3-3.2,3.7
	c-1,1.7-2.2,3.3-3.1,5.1c-1.4,2.6-3.2,4.9-4.3,7.6c-0.2,0.4-0.2,1-0.2,1.5c0,0.3,0,0.7-0.1,0.9c-2.3,3.5-3,7.7-5.2,11.2
	c-0.9,1.4-1.2,3.3-2.6,4.4c-0.2,0.1-0.3,0.4-0.3,0.6c0,2.5-0.9,5-1,7.5c-0.1,2.5-0.5,5-1.3,7.4c-0.5,1.6-1,3.2-1,5
	c0.1,3.1-1.1,6-0.7,9.1c0,0.3-0.1,0.5-0.4,0.7c-1.2,0.7-1.1,1.8-1.1,3c0,0.2,0,0.5,0,0.7c-0.4,4.9,1.3,9.7,0.8,14.6
	c-0.1,0.6,0.4,1,0.6,1.5c0.9,2.3,1.7,4.6,3.2,6.5c0.5,0.6,1,1.2,1.9,0.8c0.8-0.4,1,0.1,1,0.6c0,1.7,1.1,3.1,1.3,4.7
	c0.3,2,0.8,3.8,2.3,5.3c0.5,0.4,0.7,1.3,1.2,1.8c0.3,0.3,0.5,0.7,0.5,1.2c0,0.2-0.1,0.6,0.1,0.7c1.4,1.1,1.2,3,1.9,4.4
	c0.2,0.4,0.3,0.9,0.3,1.3c-0.2,2.1,1,3.6,2.1,5.2c1.3,1.8,2.7,3.4,4.1,5.1c1.3,1.7,2.9,3.4,4.7,4.4c1.7,0.9,3.1,1.9,4,3.6
	c0.7,1.3,2.2,2,3.4,2.7c1.1,0.6,1.9,1.7,3.3,1.7c0.2,0.4-0.1,0.6-0.5,0.6c-2.1,0.3-3.9,1.5-5.8,2.2c-0.5,0.2-1,0.2-1.5,0.2
	c-2.2,0-4.5,0-6.7,0c-1.7,0-3.4,0-5-0.8c-0.2-0.1-0.6-0.1-0.5-0.5c0.1-0.4,0.4-0.3,0.6-0.3c2.2,0,4.3-0.1,6.5-0.1
	c0.1,0.5,0.3,0.6,0.7,0.2c0.9,0.9,1.9,0.7,3,0.3c0.1,0.2,0.2,0.3,0.4,0.1c0,0,0.1-0.2,0.1-0.2c-0.1-0.2-0.2-0.2-0.4-0.1
	c-0.6-0.1-1.3-0.3-1.9-0.4c-0.6-1.2-1.8-2-2.6-2.9c-1.6-1.7-3.6-3.1-4.9-5c-1.1-1.5-2.7-2.7-3.3-4.6c0-0.1-0.1-0.3-0.2-0.3
	c-1.7-1.2-2.4-3.1-3.7-4.7c-1.1-1.4-2.3-2.9-2.9-4.7c-0.4-1-1.3-1.8-1.8-2.9c-0.8-1.8-1.7-3.7-2.7-5.4c-1-1.7-1.7-3.6-2.7-5.4
	c-0.5-0.9-0.9-1.8-1.2-2.8c-0.5-1.6-0.7-3.3-1.8-4.7c-0.6-0.8-0.8-1.9-0.9-2.6c-0.1-1.6-0.8-3-1.1-4.4c-0.3-1.5-0.4-3.1-1.2-4.5
	c0-0.1-0.1-0.2-0.1-0.2c0.4-2.1-1.1-4-0.9-6.1c0.1-0.7,0.2-1.5-0.6-2.1c-0.3-0.2-0.1-0.7-0.2-1c-0.2-1.8,0.6-3.8-0.7-5.4
	c-0.1-0.1,0-0.4,0-0.7c0-5-0.3-9.9,0.1-14.9c0.2-2.2,0.1-4.6,0.8-6.7c0.5-1.5,0.1-3.1,0.7-4.3c0.9-1.6,0.1-3.6,1.2-5
	c0.1-0.1,0.1-0.2,0.1-0.3c-0.4-1.7,0.6-3.2,1-4.7c0.5-1.8,0.5-4,1.9-5.6c0.6-0.7,0.6-1.8,0.9-2.7c0.3-1.2,1-2.2,1.4-3.3
	c0.4-0.9,0.5-2,1-2.9c0.9-1.7,1.8-3.5,2.7-5.3c0.6-1.2,1.3-2.4,1.9-3.7c0.5-1.1,0.8-2.3,1.8-3c0.6-0.5,0.5-1.2,0.9-1.8
	c1.3-1.8,2.5-3.6,3.9-5.4c1.6-2,3.2-4,4.5-6.1c1.9-3,4.8-5,7-7.6c2.2-0.2,2.4-2.4,3.6-3.6c1.9-1.7,3.9-3.3,5.9-5
	c2-1.6,4.1-3.2,6.2-4.6c1.4-1,3.1-1.8,4.5-2.7c1.6-1.1,3.5-1.7,5-3c0.8-0.7,1.8-1.1,2.9-1.4c1.4-0.3,2.6-1.1,3.9-1.7
	c1.6-0.7,2.9-2,4.8-2.1c0.6,0,0.9-0.6,1.4-0.8c1.8-0.9,3.8-1.3,5.7-2c1.1-0.4,2.5-0.6,3.4-1.1c1.4-0.8,3.1,0,4.2-1.3
	c0.1-0.1,0.2-0.1,0.2-0.1c1.8,0.3,3.4-0.5,5-0.9c2-0.5,4.2,0,5.9-0.8c1.7-0.7,3.3-0.5,4.9-0.6c2.8-0.1,5.6,0.2,8.4-0.1
	c2.8-0.3,5.5,0.3,8,1c4.1,1.1,8.2,1.4,12.4,1.3c1.6-0.1,3,0.5,4.3,1.2c0.5,0.3,1.1,0.5,1.7,0.4c2.8-0.4,5.5,0.7,8.3,1
	c2.6,0.2,5.4,0.6,7.7,2.2c1.9,1.3,4.1,1.5,6,2.3c1.2,0.6,2.4,1.4,3.4,2.4c1,1,2.5,1.3,3.5,2.1c1.4,1.1,3,2.1,4.4,3.1
	c1.7,1.3,3.2,3,5.4,3.6c0.8,0.2,1.1,0.8,1.7,1.2c1.3,0.9,2.5,1.9,4,2.5c0.4,0.2,0.8,0.4,1,0.9c0.1,0.4,0.5,0.7,0.9,0.7
	c3,0,4.5,2.3,6.3,4c2.6,2.5,5.3,4.9,7.6,7.7c1.2,1.5,2.8,2.8,3.4,4.7c0,0.1,0.1,0.2,0.2,0.2c1.7,1.2,2.5,3.1,3.7,4.6
	c1.3,1.6,2.9,3.2,2.9,5.6c0,0.2,0.1,0.5,0.2,0.6c2.2,3,3.5,6.5,5.6,9.5c1,1.4,0.9,3.2,1.8,4.6c0.2,0.3,0.2,0.6,0.4,0.8
	c1.2,1.1,1,2.7,1.8,4c1.3,1.9,1.5,4.2,2,6.3c0.4,1.6,0.9,3.2,1.7,4.6c0.1,0.1,0.1,0.4,0.1,0.5c0,2.3,0.9,4.4,1.3,6.6
	c0.3,1.4,0,3,0.2,4.4c0.1,1.6,0,3.1,0.6,4.7c0.6,1.6,0.5,3.6-0.2,5.4c-1,2.6-2.1,5.2-1.9,8.2c0.3,3.6,0.1,7.2,0.1,10.8
	c0,0.9-0.2,1.4-0.9,2.1c-1.1,1-1.6,2.5-2.1,3.8c-0.2,0.7-0.4,1.3-0.8,2c-0.9,1.7-1.1,3.5-1.7,5.3c-1.1,3.1-0.5,6.1-0.7,9.1
	c0,0.4-0.2,0.7-0.3,1c-0.9,1.7-1.6,3.5-1.9,5.4c-0.1,0.4-0.3,0.7-0.5,1.1c-0.4,0.7-1.1,1.3-1,2.2c0.2,2-1.1,3.2-1.9,4.7
	c-0.8,1.7-2.3,3-2.8,4.8c-0.3,0.9-1,1.9-1.6,2.5c-1.5,1.4-2.5,3.2-3.7,4.8c-1,1.4-2.6,2.4-3,4.2c-0.1,0.3-0.4,0.6-0.7,0.8
	c-3.9,3.9-7.6,8-11.7,11.5c-1.6,1.4-3.1,3.2-5.3,4.1c-0.9,0.4-1.6,1.3-2.6,1.7c-0.4,0.2-0.7,0.7-0.4,1.4c0.3,0.7-0.1,1.3-0.9,1.2
	c-2.6-0.3-4.3,1.6-6.4,2.6c-2.8,1.2-5,3.3-7.9,4.4c-2.7,1-5.3,2.1-7.7,3.6c-0.7,0.4-1.5,0.4-2.2,0.6c-1.1,0.3-2.1,1.1-3.3,1
	c-0.9,0-1.6,0.7-2.2,1c-0.7,0.4-1.5,0.3-2.1,0.6c-1.4,0.6-3,0.5-4.3,1.2c-0.1,0-0.2,0.1-0.2,0.1c-1.7-0.4-3,1-4.6,0.9
	c-0.7-0.1-1.5-0.1-2.1,0.6c-0.2,0.3-0.7,0.1-1,0.2c-1.6,0.2-3.1-0.4-4.7,0.7c-0.6,0.4-1.8,0.1-2.7,0.1c-1.1,0.1-2.2,0.1-3.3,0.6
	c-1.5,0.6-3.4,0.5-5-0.1c-1.9-0.7-3.7-1.5-5.8-1.3c-0.7,0.1-1.4-0.1-2-0.6c-1-0.8-2.2-1-3.4-1c-3.2,0.1-6.2-0.4-9-2
	c-0.3-0.2-0.7-0.3-1-0.2c-1.7,0.1-3.2-0.7-4.7-1.2c-0.5-0.2-1-0.4-1.4-0.3c-1.3,0.2-2.3-0.5-3.5-0.8c-0.3-0.1-0.5-0.5-0.8-0.5
	c-2.4,0.1-4.5-1.2-6.7-1.6c-2.2-0.4-4.4-0.7-6.5-1.5c-0.5-0.2-1.2-0.2-1.7-0.2c-0.4,0-0.8,0-1-0.4c-0.6-1.1-1.5-1.1-2.5-1.1
	c-2.2,0.1-4.3-0.5-6.3-1.6c-1.5-0.8-3.3-0.7-4.8-1.4c-0.3-3-0.1-6.1-0.1-9.1c0-2.3-1.6-3.8-3.9-3.8c-0.4,0-0.7,0-1.1,0
	c-0.9,0-1.7,0-0.7-1.2c0.5-0.6,0.2-1.2-0.4-1.6C65.4,204.6,64.8,204.5,64.3,204.5z M182.5,40.5c-0.4,0-0.8,0-0.9,0.4
	c-0.2,0.6,0.4,0.4,0.7,0.6c0.1,0.1,0.3,0.1,0.4,0.2c0.5,0.4,1,0.7,1.6,0.3c0.1,0,0.2-0.3,0.2-0.3c-0.5-0.5-0.9-1-1.6-1.1
	C182.7,40.5,182.6,40.5,182.5,40.5z M219.3,79.5c-0.2-0.3-0.5-0.8-1-0.9c-0.3,0-0.4,0.3-0.4,0.5c0,0.5,0.2,0.9,0.8,0.9
	C218.9,80,219.2,80,219.3,79.5z"/>
<path class="st2" d="M71.3,224.5c2.8,1.5,5.5,3.3,8.4,4.5c2,0.9,4.1,1.9,6.1,2.7c1.7,0.6,3.2,1.6,5,2c1,0.2,2.3,0.3,3.2,1.2
	c0.5,0.5,1.2,0,2.1,0.7c-1.4,0.3-2.7,0.5-3.7,0.1c-2.3-0.9-4.6-0.6-6.9-0.7c-1.6-0.1-3.3,0.4-4.4-1.2c0-0.1-0.2-0.1-0.2-0.1
	c-2.6,0-4.3-2.3-6.8-2.5c-0.3,0-0.5-0.3-0.7-0.6c-0.4-0.7-0.9-0.9-1.7-1c-0.5,0-1-0.1-1.1-0.6c-0.5-1.6-1.2-0.7-1.5,0
	c-0.5,1-1.1,1.8-1.8,2.6c-0.1,0.1-0.2,0.4,0.1,0.6c0,0.7-0.1,1.3-0.1,2c-0.6,0.3-1,0.6-0.8,1.4c-0.5,0.4-1.1,0.2-1.7,0.3
	c-1.4,0.2-2.8,0.6-3.9,1.5c-1.9,0.1-3.8-0.2-5.7,0.2c-0.9-0.4-1.6,0.4-2.5,0.4c-6.9-0.1-13.9,0-20.8,0c-0.6,0-1.3,0-1.8-0.4
	c-0.3-0.2-0.6-0.3-1,0c-1.9,0-3.8-0.1-5.7-0.1c-0.3-0.5-0.6-1-1.3-0.7c-3.7,0-7.3,0-11-0.1c-0.5,0-1.1,0.1-1.6-0.1
	c-0.1-1.3-1.1-1.6-2.2-1.6c0-0.6-0.1-1.2-0.1-1.8c0.5-0.8,0-1.1-0.7-1.3c0-4-0.2-7.9,0.1-11.9c0.9,0,0.9-0.4,0.6-1
	c0-1.6,0-3.2,0.1-4.7c1.3-0.5,1-1.5,0.8-2.4c0.1-0.1,0.1-0.2,0.2-0.2c1-0.4,1.5-1,2-2.8c0.2-0.1,0.3-0.2,0.5-0.2
	c1.4,0.5,1.3-0.5,1.2-1.3c0.5-0.1,1.1-0.2,1.6-0.3c0.1,0.3,0.3,0.2,0.5,0.1c0.1-0.1,0.1-0.3,0-0.4c0.1-0.1,0.2-0.1,0.3-0.2
	c3.2,0.3,6.4-0.1,9.5,0.2c2.5,0.3,5.2,0,7.5,1.3c0.1,0,0.2-0.1,0.3-0.1c0.5,0,1.1,0.1,1.6,0.1c0,0.3,0,0.5,0.1,0.8
	c-0.2,0.3-0.2,0.6,0,0.9c-0.3,0.1-0.2,0.3-0.1,0.4c0.2,0.2,0.4,0.3,0.6,0.1c0.3,0,0.6,0.1,0.9,0.1c7.8,0,15.6,0,23.4,0
	c0.3,0,0.5-0.1,0.8-0.1c0.9,0.2,1.4-0.7,2.1-0.8c0.1,0,0.3-0.3,0-0.5c0.1-0.3,0.1-0.6-0.1-0.9c0.3-0.1,0.2-0.4,0.1-0.6
	c1.9-0.1,2.3,0.2,2.4,2c0,0.3,0.1,0.5,0.1,0.8c0,0.6,0.5,0.4,0.8,0.4c1.1,0,2.2,0,3.2,0c1,0,1.7,0.5,1.6,1.4
	c-0.3,4.5,0.6,8.9,0.8,13.4c0,0.6,0,1.3,0.1,1.9c0,0.3,0.2,0.7,0.5,0.6c0.4-0.1,0.7-0.4,0.3-0.8C71.2,225.9,70.9,225.1,71.3,224.5z
	 M26.1,229.7c0.2,0,0.4,0,0.6,0c0.5,0.6,1,1.2,0.9,2.1c0,1,0.9,1.2,1.5,1c0.9-0.3,1.9-0.5,2.7-0.9c0.7-0.4,1.6-0.4,2.2-1.1
	c1-1.1,2.3-1.9,3.6-2.8c1.8-1.2,2.7-0.5,4,0.3c0.4,0.3,0.8,0.6,1.1,1c0.8,1.1,2.1,1.4,3.3,1.9c1.2,0.5,2,0,2.5-1.3
	c0.1-0.2,0.2-0.6,0.4-0.7c1.8-0.9,2.5-3,4.5-3.6c0.4-0.1,1-0.7,1-1.3c0-0.3,0.1-0.5,0.5-0.6c1.1-0.1,1.2-0.9,1.1-1.7
	c-0.1-1.1,0.5-2.4-0.9-3.1c-0.5-0.2-0.7-0.5-0.6-1c0-0.5,0-1.1,0-1.6c0-1.8-1-2.6-2.6-1.9c-1.2,0.6-2.4,0.5-3.7,0.5
	c-3.3,0-6.6-0.1-9.9,0c-3,0.1-5.4,1.3-7.3,3.6c-0.8,0.9-0.5,1.8,0.7,2.1c0.5,0.1,1.2-0.1,1.1,0.8c-0.1,0.8-0.6,1.1-1.3,1.2
	c-0.9,0-1.5,0.4-1.9,1.1c-0.1,0.2-0.3,0.3-0.5,0.4c-1.1,0-1.8,0.8-2.5,1.5c-0.9,1-2.1,1.7-3.3,2.3c-0.3,0.2-0.6,0.4-0.9,0.6
	c-0.4,0.3-0.5,0.7-0.3,1.2c0.2,0.5,0.5,0.7,1,0.8C24.4,230.7,25.4,230.6,26.1,229.7z M63,214.7c0.2,0.7,0.6,1.3,1.3,1.4
	c0.4,0.1,0.7-0.1,0.7-0.5c0-0.3-0.3-0.5-0.5-0.4C63.8,215.5,63.5,214.9,63,214.7z"/>
<path class="st2" d="M37.6,204.4c-0.1-0.9-1-1.2-1.5-1.8c-2-2.2-3.3-4.9-4.9-7.4c-0.9-1.4-1.7-2.9-1.9-4.6c-0.1-0.4-0.3-0.7-0.6-0.8
	c-0.8-0.3-0.9-1-1.3-1.6c-0.2-0.3-0.4-0.6,0-0.8c0.3-0.3,0.8-0.1,0.9,0.2c0.4,1.6,1.9,2.3,2.7,3.6c0.1,0.2,0.1,0.5,0.3,0.6
	c2.4,1.7,3.4,4.7,5.5,6.7c1.1,1.1,2.2,2.3,2.9,3.9c0.3,0.8,1.2,1.4,1.8,2.1C40.1,204.6,38.8,204.7,37.6,204.4z"/>
<path class="st1" d="M29.1,237.4c0.3-0.3,0.7-0.2,1,0c0.5,0.5,1.2,0.4,1.8,0.4c6.9,0,13.9,0,20.8,0c0.9,0,1.6-0.8,2.5-0.4
	c-0.4,0.8-1.2,0.8-1.9,0.8c-7.4,0-14.8,0-22.2,0C30.3,238.2,29.6,238,29.1,237.4z"/>
<path class="st1" d="M71,226.6c0.4,0.5,0.1,0.8-0.3,0.8c-0.4,0.1-0.5-0.3-0.5-0.6c0-0.6,0-1.3-0.1-1.9c-0.2-4.5-1.2-8.9-0.8-13.4
	c0.1-0.9-0.7-1.4-1.6-1.4c-1.1,0-2.2,0-3.2,0c-0.3,0-0.8,0.2-0.8-0.4c1.4,0,2.8,0,4.2,0c1.3,0,1.9,0.6,1.9,1.9c0,0.4,0,0.8,0,1.2
	c-0.6,4.4,1.1,8.7,0.8,13.2C70.5,226.4,70.6,226.6,71,226.6z"/>
<path class="st1" d="M31.6,207.6c-0.1,0.1-0.3,0.2-0.3,0.1c-2.4-1.3-5-1-7.5-1.3c-3.2-0.3-6.4,0.1-9.5-0.2c0.2-0.4,0.5-0.3,0.8-0.3
	c4.5,0.1,9.1-0.4,13.6,0.4c0.2,0,0.4,0.1,0.5,0C30.5,205.7,31.1,206.5,31.6,207.6z"/>
<path class="st2" d="M39.7,207.5c-1.9,0.2-3.8,0.1-5.7,0.1c0-0.2,0-0.3-0.2-0.3c2-0.7,4-0.3,6.1-0.3
	C39.7,207.2,39.6,207.3,39.7,207.5z"/>
<path class="st1" d="M60.9,237.2c1.1-0.9,2.5-1.2,3.9-1.5C63.6,236.6,62.4,237.4,60.9,237.2z"/>
<path class="st1" d="M10.2,208.6c-0.5,1.7-1,2.4-2,2.8C9,210.5,9.2,209.2,10.2,208.6z"/>
<path class="st1" d="M7.3,234.7c1.1,0,2.1,0.3,2.2,1.6C8.8,235.7,7.9,235.5,7.3,234.7z"/>
<path class="st1" d="M61.1,208.5c0.3,0.2,0.1,0.5,0,0.5c-0.8,0.1-1.2,1-2.1,0.8C59.4,208.9,60.4,209,61.1,208.5z"/>
<path class="st1" d="M8.1,211.6c0.2,0.9,0.4,1.9-0.8,2.4C7.5,213.2,7.8,212.4,8.1,211.6z"/>
<path class="st1" d="M11.9,207.1c0.1,0.9,0.2,1.8-1.2,1.3C11.3,208.1,11.5,207.5,11.9,207.1z"/>
<path class="st1" d="M6.5,231.7c0.6,0.2,1.1,0.5,0.7,1.3C6.8,232.6,6.3,232.4,6.5,231.7z"/>
<path class="st1" d="M66.4,235.5c-0.2-0.7,0.2-1.1,0.8-1.4C67.4,234.9,66.9,235.2,66.4,235.5z"/>
<path class="st1" d="M22.1,236.6c0.7-0.4,1,0.2,1.3,0.7C22.7,237.5,22.4,237,22.1,236.6z"/>
<path class="st1" d="M7.2,218.8c0.3,0.6,0.3,1.1-0.6,1C6.7,219.4,6.9,219,7.2,218.8z"/>
<path class="st1" d="M33.8,207.3c0.2,0.1,0.2,0.2,0.2,0.3c0,0.5-0.2,0.8-0.7,0.8c0-0.3,0-0.5-0.1-0.8
	C33.3,207.4,33.5,207.2,33.8,207.3z"/>
<path class="st1" d="M33.8,209.8c-0.2,0.3-0.5,0.1-0.6-0.1c-0.1-0.2-0.2-0.4,0.1-0.4C33.7,209.2,33.8,209.5,33.8,209.8z"/>
<path class="st1" d="M14,206.4c0.2,0.1,0.2,0.3,0,0.4c-0.2,0.1-0.4,0.2-0.5-0.1C13.5,206.4,13.7,206.4,14,206.4z"/>
<path class="st1" d="M61.1,207c0.1,0.2,0.2,0.4-0.1,0.6c-0.2,0-0.4-0.1-0.4-0.3C60.7,207,60.8,206.9,61.1,207z"/>
<path class="st1" d="M39.7,207.5c-0.1-0.2,0-0.4,0.1-0.5c0.3-0.1,0.5,0,0.5,0.3C40.3,207.6,40,207.7,39.7,207.5z"/>
<path class="st2" d="M91.4,229.2c1.6-0.3,3.2-0.6,4.5,0.5c0.6,0.5,1.2,0.7,2,0.7c1.2,0,2.4-0.2,3.6,0.8c0.4,0.4,1.5,0.6,2.2,0.6
	c2.1,0,4,0.8,5.9,1.5c1.2,0.4,2.6,0.1,3.7,1c0.9,0.7,1.9,0.9,3,0.8c0.4,0,0.8,0.1,1.1,0.4c0.5,0.5,1.7,0.9,1.1,1.6
	c-0.5,0.6-1.8,0.6-2.5,0c-1.6-1.6-3.5-1.7-5.6-2c-1.8-0.3-3.8-0.2-5.5-1.3c-0.3-0.2-0.6,0.1-0.9,0.1c-0.8-0.1-1.6,0.3-2.1-0.7
	c-0.2-0.5-0.8-0.2-1.2-0.3c-0.6-0.1-1.3-0.4-1.7-0.4c-2.1,0-3.3-2.1-5.4-2C92.7,230.4,92.2,229.7,91.4,229.2z"/>
<path class="st2" d="M51.2,46c-1.5,2.6-3.7,4.3-5.7,6.2c-1.7,1.6-3.3,3.5-4.6,5.5c-0.4,0.6-0.7,1.2-1.5,0.8
	c-0.8-0.4-0.3-1.1-0.1-1.7c0.3-0.6,0.7-1.1,1.1-1.5c1-1.1,1.4-2.7,2.6-3.6c1-0.7,1.5-1.9,2.9-2.3c1.3-0.4,2.5-1.5,3.6-2.4
	C49.9,46.7,50.3,46.2,51.2,46z"/>
<path class="st2" d="M229.5,182.4c1.6-1.8,2-4.2,3.3-6.2c0.5-0.8,0.4-1.9,1-2.8c0.2-0.2,0.1-0.7,0.5-0.6c0.4,0.1,0.3,0.5,0.3,0.8
	c0.2,1.8-0.4,3.4-1.2,5.1C232.6,180.7,230.6,181,229.5,182.4z"/>
<path class="st2" d="M235.9,153.8c0.2,1.3,0.7,2.6-0.2,3.8c-0.2,0.2-0.3,0.5-0.3,0.7c0.4,1.5-1,2.5-0.8,3.9c0,0.1-0.2,0.3-0.3,0.4
	c-0.3,0.1-0.4-0.2-0.4-0.4c0-0.3-0.1-0.6,0-0.9c0.6-2.5,1.1-5,1.7-7.5C235.6,153.8,235.7,153.8,235.9,153.8z"/>
<path class="st2" d="M21.2,92.6c0.4,0.2,0.6,0.5,0.4,0.9c-0.8,1.4-1.4,2.8-1.4,4.5c0,0.3,0.1,0.9-0.4,0.9c-0.6,0-0.5-0.5-0.5-0.9
	c-0.2-1.8,0.3-3.4,1.5-4.8C20.9,93,21.1,92.8,21.2,92.6z"/>
<path class="st2" d="M89,228.9c-1,0.1-1.5-1-2.5-1c-0.3,0-0.2-0.5,0.2-0.5c0.5,0,1.1-0.2,1.5,0.3c0.3,0.3,0.6,0.4,0.9,0.4
	c0.3,0,0.9-0.1,0.8,0.4C89.9,229.1,89.3,228.9,89,228.9z"/>
<path class="st0" d="M54.7,206.5c-1,0.4-2.1,0.6-3-0.3c0.4-0.1,0.8-0.2,1.1-0.3c0.6,0.1,1.3,0.3,1.9,0.4
	C54.8,206.4,54.7,206.5,54.7,206.5L54.7,206.5z"/>
<path class="st2" d="M107.5,239.2c1.1-0.6,2.2-0.3,3.6,0C109.6,239.5,108.5,239.7,107.5,239.2z"/>
<path class="st2" d="M122,236.5c-0.4-0.1-1.3,0.3-1.3-0.4c0-0.7,0.8-0.3,1.3-0.4c0.2,0,0.4,0,0.7,0c0.3,0,0.8,0,0.8,0.3
	c0,0.5-0.5,0.4-0.8,0.4C122.5,236.5,122.3,236.5,122,236.5z"/>
<path class="st2" d="M32.3,70c0,0.4,0.1,0.8-0.4,0.9c-0.4,0.1-0.5-0.3-0.5-0.7c0-0.4,0-0.9,0.4-1C32.4,69.2,32.3,69.7,32.3,70z"/>
<path class="st2" d="M106.4,238.4c-0.7,0.5-1.3,0.4-1.8,0.2c0,0-0.1-0.3,0-0.3C105.1,237.8,105.7,238,106.4,238.4z"/>
<path class="st2" d="M18.9,99.6c0.5,0.7,0.6,1.1,0.3,1.6c-0.1,0.2-0.3,0.1-0.5,0C18.3,100.7,18.7,100.3,18.9,99.6z"/>
<path class="st2" d="M180.2,208c-1.6,0.8-2.5,2.5-4.4,2.1c-0.2-0.1-0.7,0.1-0.5,0.4c0.8,1.6-0.7,2-1.4,2.6c-2.2,2-4.9,2.4-7.7,2.2
	c-0.6,0-1.2-0.1-1.8,0c-0.5,0.1-1.5-0.4-1.5,0.6c0,0.8-0.3,2.1,1.3,2.2c0.7,0,1.4,0.3,2-0.2c0.4-0.3,1-0.3,1.6,0.1
	c-1.7,1.8-3.8,2.5-6.2,2.7c-1,0.1-1.9,0.1-2.9,0.5c-0.8,0.4-2.2,1-2.7-0.8c-0.1-0.5-0.7-0.5-1.2-0.5c-5.6-0.4-11.2-0.9-16.8-1.6
	c-0.9-0.1-1.8-0.3-2.6-0.6c-1.8-0.5-3.7-0.2-5.5-0.2c-0.5,0-1.1,0.1-1.4-0.3c-1-1.1-2.4-0.9-3.7-1.1c-3.2-0.5-6.4-1-9.5-2
	c-2.8-0.9-5.6-1.2-8.5-1c-0.3,0-0.7,0-0.8,0.4c-0.1,0.5,0.4,0.7,0.8,0.8c1.5,0.4,3,0.7,4.5,1c3.1,0.5,6.1,1.3,9.1,2.1
	c3.2,0.9,6.5,1.5,9.8,1.9c3.8,0.5,7.7,0.9,11.5,1.4c0.4,0,0.8,0.2,1.1,0.4c-1.4,0.4-2.8,0.2-4.1,0.3c-3.5,0.2-6.8-1.1-10.3-0.7
	c-0.6,0.1-1.4-0.4-2-0.7c-1.7-1-3.8-0.6-5.7-1.4c-1.1-0.5-2.7-0.3-4-0.2c-3.3,0.3-6.5-1.2-9.9-0.9c-3.4,0.4-6.6-1-9.9-1.6
	c-1.4-0.3-2.9-0.3-4.1-0.7c-2.2-0.7-4.7-0.6-6.5-2.5c-0.3-0.4-0.9-0.6-1.4-0.7c-1.8-0.6-2.9-2.4-4.7-2.9c-0.4-0.1-0.6-0.5-0.4-0.9
	c0.2-0.7,0.2-1.5,0.2-2.3c0-0.5,0.3-0.9,0.7-0.4c1.4,1.8,3.6,1.9,5.4,2.9c0.7,0.4,1.5,0.6,2.2,1.1c2.1,1.5,4.4,1.3,6.7,1.1
	c0.1,0,0.2-0.1,0.3-0.2c-0.3-0.6-0.9-0.4-1.3-0.5c-0.7-0.3-1.4-0.8-0.7-1.4c1.2-1.1,0.6-2.2,0-3.1c-1.3-1.9-2.3-3.8-2-6.2
	c0.1-0.8-0.4-1.6-0.9-2.2c-1.4-2-1.8-4.3-2.2-6.6c-0.5-2.7-0.5-5.5-1.9-8c-0.1-0.2-0.2-0.4-0.2-0.6c-0.7-6-1.3-12.1-0.7-18.1
	c0.3-2.5,0.1-5,0.6-7.4c1.2-5.4,0.1-10.9,0.8-16.2c0.4-2.8,0.1-5.6,0.8-8.2c0.8-2.7,0.4-5.2,0.6-7.8c0-0.6,0-1.1,0.6-1.4
	c0.7-0.4,1.2-1.1,1.5-1.8c1.1-2.1,3.2-3.3,4.5-5.3c2-3.1,5.3-4.6,8.2-6.5c0.2-0.1,0.4-0.4,0.6-0.5c0.5-0.3,0.8-0.9,1.5-0.4
	c0.6,0.5,0.6,1.1,0.5,1.7c-0.1,0.6-0.6,1.1-1.1,1.3c-2,0.8-3.6,2.3-5.4,3.4c-1.4,0.9-2.3,2.3-3.2,3.7c-0.3,0.4-0.5,0.9-0.9,1.1
	c-2.2,1.1-2.5,3.7-4.2,5.2c-0.2,0.2-0.2,0.7-0.2,1c0,1.1,0,2.2,0,3.2c0,1.2,0.1,2.3-0.6,3.5c-0.5,0.8-0.1,2.1-0.2,3.2
	c0,1,0,2,0.2,3.1c0.4-1.1,1.3-1.9,1.2-3.2c-0.1-0.9,0.2-1.6,1.1-2c0.2-0.1,0.5-0.2,0.4-0.4c-0.2-1.3,0.6-2.4,0.9-3.6
	c0.7-2.9,1.6-5.9,3.4-8.3c1-1.4,2.4-2.7,3.2-4.2c0.5-0.9,0.9-1.7,1.7-2.4c0.6-0.5,1.2-0.9,2.1-0.8c0.6,0.1,1.1-0.2,1.6-0.7
	c1.4-1.3,2.6-2.8,4.4-3.5c0.2-0.1,0.4-0.4,0.5-0.6c1.4-1.8,3.3-2.9,5.1-4.1c1-0.7,2.5-0.4,3.6-1.1c0.2-0.1,0.6-0.1,0.7-0.3
	c1-1.4,2.5-1.2,3.9-1.2c2.1,0,4.2,0,6.3,0c1.1,0,1.6,0.5,1.7,1.6c0,1.1-0.5,1.5-1.5,1.5c-1.1,0-2.3,0.2-3.4,0
	c-1.7-0.2-3.2,0.6-4.8,0.8c-0.9,0.1-1,1.3-1.9,1.6c-2.5,0.8-4,3-5.9,4.6c-0.6,0.5-1.3,0.8-2,1.1c-0.7,0.3-1.1,0.8-1.4,1.3
	c-0.5,0.8-1,1.4-1.7,2c-0.5,0.5-1,1-0.9,1.9c0.1,0.5-0.2,0.9-0.6,1.1c-1.1,0.4-1.7,1-2,2.1c-0.2,0.7-0.4,1.7-1.6,1.8
	c-0.1,0-0.3,0.3-0.3,0.4c0.3,1.7-0.8,2.9-1.7,4.1c-1.1,1.6-1.2,3.5-2.2,5.1c-0.6,1-0.9,2-0.8,3.2c0,0.2-0.1,0.6-0.3,0.7
	c-1.2,0.8-1.3,2-1.2,3.2c0.1,0.7-0.1,1.1-0.8,1.6c-1.4,0.9-1.8,2.6-2.1,4.1c-0.4,1.8-1.1,3.4-1.9,5c-0.3,0.6-0.4,1.2-0.4,1.8
	c0,3.7,0.1,7.4,0,11.1c0,1.6,0.4,3.1,1.2,4.5c0.3,0.6,0.3,1.2,0.3,1.8c-0.3,3,0.5,5.7,2.1,8.2c0.2,0.3,0.3,0.7,0.3,1
	c0,2.9,1.2,5.4,2,8.1c0.4,1.3,0.3,2.8,0.9,4.2c0.8,1.9,1.4,4,2,5.9c0.1,0.3,0.3,0.6,0.2,0.9c-0.2,3,1.8,5.2,2.6,7.8
	c0.1,0.4,0.6,0.8,1,1c1.8,1,3.6,1.9,5.5,2.8c1.4,0.7,2.9,0.9,4.4,0.8c1-0.1,1.8,0.5,2.6,0.9c0.8,0.4,1.6,0.5,2.5,0.5
	c4.7,0,9.4-0.5,14,0.1c10,1.4,20,0.2,30,0.7c0.6,0,1.1,0.1,2.1-0.4c-2.4-0.7-4-2.4-6.3-2.6c-2-0.2-4-1-5.9-1.7
	c-0.7-0.3-1.4-0.4-2.2-0.4c-1.1,0.1-2.2-0.1-3.2-0.8c-1.7-1.2-3.9-1.4-5.9-2.2c-1.8-0.7-3.6-1.2-5.2-2.3c-1.8-1.2-3.8-2.1-6-2.4
	c-0.8-0.1-1.3-0.6-1.6-1.3c-0.4-0.8-1-1.1-2-1.1c-1.3,0.1-2.4-0.4-3.1-1.7c-0.3-0.6-0.8-0.6-1.3-0.5c-1.8,0.3-3.2-0.6-4.5-1.7
	c-1.3-1.1-2.8-1.9-4.5-2.1c-0.8-0.1-1.2-0.7-1.7-1.2c-1.7-1.7-3.7-2.9-5.5-4.4c-0.4-0.3-1-0.5-1.1-0.9c-0.7-2.6-2.4-4.7-3.9-6.9
	c-0.1-0.1-0.1-0.3-0.1-0.4c0.2-2.9-1.3-5.6-0.9-8.6c0.2-1.3,0.1-2.7,0-4c-0.3-3,0.3-6,1.8-8.3c1.5-2.3,2.4-5.2,4.7-7
	c1.1-0.9,2-1.9,3.1-2.7c2.1-1.5,3.9-3.7,6.5-4.2c2.8-0.5,5.3-2.2,8.3-1.7c1.3,0.2,2.5-0.3,3.4-1.3c0.8-0.8,1.8-1.1,2.9-1.1
	c1.8,0.1,3.6-0.5,5.3-0.5c3.1-0.1,6.2,0.3,9.2,1.2c0.8,0.2,1.6,0.1,2.4,0.1c0.8,0,1.5,0,2.3,0.1c0.8,0.1,1.2,0.6,1.2,1.4
	c0,0.8-0.7,1-1.4,1c-2.6,0-5.1,0-7.7,0c-3.2,0-6.3,1.3-9.5,0.8c-0.3,0-0.6,0.2-0.8,0.4c-1.3,0.6-2.5,1.4-4.1,1.2
	c-0.8-0.1-1.3,0.4-1.9,0.6c-2.3,0.9-4.9,0.9-6.9,2.7c-0.7,0.7-1.9,0.3-2.9,0.8c-2.3,1.3-4.5,2.6-6.6,4.1c-2.8,2.1-5,4.7-4.7,8.6
	c0.2,2.4,0.2,4.8,0,7.2c-0.2,2.4,0.9,4.4,0.9,6.7c0,0.5,0.5,0.7,0.7,1.1c0.9,2.2,2.9,3.5,4.2,5.3c2.2,3.2,4.9,6,8.5,7.7
	c1.7,0.8,3.3,1.7,5,2.6c0.9,0.5,1.4,1.1,1.9,1.8c0.5,0.8,1.2,1.2,2.1,1.3c1.6,0.3,3.2,0.8,4.6,1.8c0.6,0.4,1.3,0.6,2,0.6
	c0.8,0,1.6,0.3,2.4,0.4c3,0.3,5.6,2.2,8.8,2c1.4-0.1,3,0.4,4.5,1.1c0.4,0.2,0.8,0.4,1.3,0.3c2.4-0.4,4.7,0.3,7,0.9
	c1.7,0.5,3.3,0.4,5,0.5c0.7,0,1.4,0,1.7,0.6c0.9,1.9,2.8,1.7,4.3,2.3c0.9,0.4,2,0.3,2.9,0.2C176,205.9,177.9,207.2,180.2,208z
	 M98.2,195.3c-0.8,1.6-0.4,2.9-0.5,4.1c-0.1,1.1,0.4,1.9,1.2,2.6c0.2,0.2,0.5,0.7,0.9,0.5c0.4-0.3,0.1-0.7-0.1-1.1
	c-0.2-0.4-0.3-0.9-0.2-1.3C99.4,198.5,98.5,197.2,98.2,195.3z M97.6,129.1c0,0.3-0.2,0.7,0.2,0.9c0.3,0.2,0.5-0.1,0.6-0.3
	c0.5-1.9,1.7-3.4,2.9-4.9c0.1-0.2,0.1-0.5,0.1-0.8c0-0.9,0.1-1.7,0.8-2.3c0.4-0.4,0.5-0.9-0.1-1.2c-0.5-0.3-0.9,0.1-1.1,0.5
	c-0.2,0.3-0.3,0.7-0.3,1c0,1.1-0.5,2.1-1.2,2.8C98.3,125.9,98.5,127.7,97.6,129.1z M91.3,179.8c-0.6,1.3,0.4,7,1.5,8.7
	C93.4,187.3,92.6,182.5,91.3,179.8z M144.2,202.6c2.1,1.5,4.6,1,6.2,2.7c0.1,0.1,0.4,0,0.5-0.1c0.1-0.2-0.1-0.3-0.2-0.4
	c-0.9-0.8-1.8-1.6-3.1-2.1C146.5,202.3,145.6,202.2,144.2,202.6z M112.7,186.8c-1.3-1.1-2.3-2.4-3-3.9c-0.2-0.5-0.9-0.5-1.3-0.1
	c-0.4,0.4-0.3,0.9,0.1,1.2C110,184.9,110.8,186.5,112.7,186.8z M117.7,146.1c0.7,0.1,1.4,0.4,2-0.2c0.1-0.1,0-0.4-0.2-0.4
	C118.9,145.3,118.2,145.1,117.7,146.1z M96.9,132.9c-0.2-0.3,0.1-0.8-0.3-0.9c-0.5-0.1-0.3,0.5-0.5,0.8c-0.1,0.2-0.2,0.5-0.4,0.7
	c-0.2,0.4-0.5,0.9,0.1,1.1c0.5,0.2,0.8-0.4,0.9-0.8C96.9,133.6,96.8,133.2,96.9,132.9z"/>
<path class="st2" d="M94.1,100.9c1.1-0.4,1.9-1.1,2.9-1.6c0.9-0.5,1.6,0,1.9,0.6c0.3,0.6-0.3,1.1-0.9,1.2c-1,0.3-1.6,1.2-2.4,1.7
	c-0.5,0.3-0.3,0.6,0.2,0.7c0.7,0.1,1.4-0.1,2-0.6c1.8-1.5,3.6-2.9,5.5-4.2c0.9-0.6,1.6-1.2,2.1-2.2c0.4-0.8,1-1.7,2.3-0.9
	c0.9,0.6,1.6-0.1,2.2-0.7c1.2-1.2,2.5-2.2,4.2-2.7c0.2-0.1,0.4-0.1,0.5-0.2c2.1-2.1,4.8-1.1,7.3-1.3c0.7,0,1.3,0.4,1.3,1.1
	c0.1,0.6-0.5,0.8-1.1,1c-1.9,0.8-3.9,1.2-5.7,2.3c-0.3,0.2-0.7,0.3-0.9,0.6c-0.8,1.7-2.4,1.9-3.9,2.3c-0.8,0.3-1.7,0.6-2.2,1.2
	c-0.9,0.9-2,1.3-3.1,1.9c-0.3,0.2-0.7,0.1-0.6,0.6c0.1,0.4,0.5,0.3,0.8,0.3c1.6,0,3.2,0,4.7,0c0.4,0,1-0.2,1.1,0.5
	c0,0.6-0.5,0.8-1,0.8c-2-0.1-3.8,1.2-5.6,1.3c-2,0.1-3.5,1.3-4.9,2.1c-1.4,0.7-3.4,1-4.2,3c-0.4,1.1-2,1.4-3,2.1
	c-1.1,0.8-1.9,1.8-2.8,2.8c-1.7,1.8-3.5,3.5-5.2,5.3c-0.8,0.8-1.5,1.5-1.9,2.5c-0.3,0.8-1,1.6-2.3,1.1c-0.5-0.2-1,0.2-1.4,0.6
	c-1,1.1-2,2.1-2.3,3.8c-0.2,1.5-1.3,2.8-1.8,4.3c-0.4,1.3-1.1,2.5-1.2,3.9c-0.1,1.1-0.7,2.1-1,3.1c-0.3,0.8-0.6,1.5-0.5,2.3
	c0.2,2.3-0.4,4.3-1.2,6.4c-0.3,0.7-0.3,1.4-0.3,2.1c0,7.9,0,15.8,0,23.6c0,1.2,0,2.4-1.8,2.2c-0.6-0.1-0.7,0.8-0.5,1.2
	c1.1,1.7,0.5,3.8,1.4,5.5c1,1.9,1.6,4,1.7,6.2c0,0.2,0.2,0.5,0.3,0.7c0.9,1.1,1.3,2.4,1.1,3.8c-0.1,1.1,0.4,1.9,0.9,2.9
	c0.7,1.3,1.4,2.6,2.1,4c0.3,0.6,0.6,1,1.3,1.2c0.6,0.2,1,0.6,1.1,1.3c0.1,0.7-0.2,1.3-1,0.9c-2.2-1-4.6-1.1-6.8-2.2
	c-1.2-0.6-1.6-1.6-1.8-2.5c-0.4-1.6-1.6-2.7-2.1-4.2c-0.6-1.8-2-3.2-1.9-5.2c0-0.6-0.5-1.2-0.8-1.8c-1.2-2.3-1.7-4.8-1.5-7.5
	c0.1-1.9,0.2-3.9,0-5.8c-1-7.1-0.7-14.3-0.5-21.5c0-2.3,0.8-4.6,1.2-6.9c0.3-2.1,1.6-3.8,1.8-5.8c0-0.3,0.2-0.5,0.3-0.7
	c1.5-2.6,2.2-5.5,3.2-8.3c0.5-1.6,1-3.4,1.1-5.1c0.1-1.5,1.2-2.8,1.8-4.1c0.2-0.5,0.6-1.1,0.5-1.6c-0.3-1.4,0.5-2.1,1.4-3
	c1.4-1.4,2-3.3,2.9-4.9c0.3-0.6,0.7-1.1,1.2-1.5c0.8-0.7,1.5-1.5,2-2.5c0.3-0.5,0.6-1,1.2-1.2c1.8-0.6,3.3-1.7,4.9-2.6
	c0,0,0.1-0.1,0.1-0.1c0.4-2.3,2.6-2.2,4-3.1c1.6-1,2.2-2.8,3.6-3.9c0.7-0.6,1.3-1.3,2-2c0.7-0.6,4-0.7,4.6-0.1
	c0.3,0.3,0.7,0.5,0.4,1c-0.2,0.5-0.6,0.7-1.2,0.8c-1.1,0-2.3-0.2-3.1,0.8C96,99.2,95,100,94.1,100.9z M85.9,110.6
	c1.7-0.8,3.3-1.7,5-2.9c-1.2-0.5-2.3-0.8-3,0C87.2,108.5,86.1,109.3,85.9,110.6L85.9,110.6L85.9,110.6z M69.2,173.8
	c0.4-0.3,0.4-0.6,0.4-0.9c0-2.3,0-4.6,0-6.9c0-0.3,0-0.9-0.4-0.9c-0.6,0-0.5,0.6-0.5,0.9c0,2.2,0,4.4,0,6.6
	C68.8,173.1,68.8,173.5,69.2,173.8z M69.7,147.6c-0.4-0.5,0.4-1.6-0.6-1.6c-0.7,0-0.4,1.1-0.4,1.6c0,0.6-0.3,1.7,0.4,1.7
	C69.9,149.4,69.5,148.3,69.7,147.6z M74.3,123.2c0.4-0.2,0.7-0.4,1-0.5c0.5-0.3,0.4-0.7,0.3-1.2c0-0.2-0.2-0.4-0.4-0.3
	c-0.4,0.1-0.6,0.4-0.6,0.8C74.7,122.3,74.2,122.5,74.3,123.2z"/>
<path class="st2" d="M231.5,122.1c0,0.4,0,0.6,0,0.7c-0.1,0.4,0.1,1.1-0.4,1.2c-0.6,0.1-1.3-0.6-1.2-1.1c0.4-1.9-1.1-3-2-4.3
	c-0.7-1-0.4-2.1-0.3-3.1c0-0.2,0.1-0.4,0.3-0.4c0.2,0,0.3,0.2,0.4,0.3c0.4,1.9,2,3.1,2.7,4.8C231.4,121,231.5,121.6,231.5,122.1z"/>
<path class="st2" d="M53.5,191c1,0.3,1.6,0.6,1.7,1.3c0.1,0.5,0.3,1.4-0.4,1.5c-0.7,0.1-0.6-0.7-0.6-1.2
	C54.2,192,53.8,191.7,53.5,191z"/>
<path class="st2" d="M228.8,137.1c0.7,1.2,0.4,2.2,0.4,3.2c0,0.2-0.2,0.4-0.5,0.4c-0.1,0-0.3-0.2-0.3-0.4
	C228.5,139.3,228.2,138.3,228.8,137.1z"/>
<path class="st2" d="M31,138.8c0.6,0.7,0.8,1.4,0.4,2.1c-0.1,0.2-0.3,0.2-0.5,0C30.4,140.2,30.9,139.6,31,138.8z"/>
<path class="st2" d="M148,221.5c-1.2,0.7-2.5,0.5-3.7,0.5c-0.2,0-0.4-0.1-0.4-0.4c0-0.2,0.2-0.4,0.4-0.4
	C145.5,221.2,146.8,221.4,148,221.5z"/>
<path class="st2" d="M38.7,167.6c0.4,0,0.4,0.3,0.4,0.6c0,0.3,0.1,0.6-0.2,0.7c-0.3,0.1-0.5-0.2-0.5-0.5
	C38.4,168.1,38.3,167.7,38.7,167.6z"/>
<path class="st1" d="M182.5,40.5c0.1,0,0.2,0,0.3,0c0.7,0.1,1.1,0.7,1.6,1.1c0,0-0.1,0.3-0.2,0.3c-0.6,0.3-1.1,0-1.6-0.3
	c-0.1-0.1-0.3-0.1-0.4-0.2c-0.3-0.2-0.9,0-0.7-0.6C181.7,40.4,182.1,40.5,182.5,40.5z"/>
<path class="st1" d="M219.3,79.5c-0.1,0.5-0.4,0.5-0.7,0.5c-0.6,0-0.8-0.3-0.8-0.9c0-0.3,0.1-0.6,0.4-0.5
	C218.8,78.7,219,79.1,219.3,79.5z"/>
<path class="st1" d="M54.7,206.5L54.7,206.5c0-0.1,0.1-0.1,0.1-0.1c0.2-0.1,0.3-0.1,0.4,0.1c0,0,0,0.2-0.1,0.2
	C55,206.8,54.8,206.7,54.7,206.5z"/>
<path class="st0" d="M26.7,229.7c-0.2,0-0.4,0-0.6,0c-0.6-0.5-1,0-1.4,0.2c-0.6,0.4-1.2,0.5-1.6-0.1c-0.6-0.8,0.3-1.1,0.8-1.4
	c1.3-0.7,2.5-1.6,3.7-2.6c1.5-1.2,3-2.6,5-2.9c0.6-0.1,1-0.7,0.9-1.2c-0.1-0.5-0.2-1.3-1-1.3c-0.6,0-1-0.2-1.1-0.8
	c-0.2-0.6,0.3-0.8,0.6-1.1c2.1-2.2,4.7-3.1,7.6-3.2c3.5,0,7,0,10.5,0c0.8,0,1.5,0,2.2-0.4c0.9-0.5,1.5,0.1,1.8,0.9
	c0.2,0.7,0.3,1.6-0.1,2.2c-0.4,0.7-0.1,0.9,0.4,1.2c1,0.4,1.3,1.1,1.3,2.2c0.1,1.3-0.9,1.6-1.5,2.3c-1.5,1.8-3.6,3-5.2,4.7
	c-0.4,0.4-0.9,0.7-1,1.4c-0.1,0.8-0.9,1.4-1.6,1c-1.1-0.5-2.3-0.8-3.1-1.8c-0.9-1-2-1.7-3.1-2.4c-0.3-0.2-0.7-0.5-1.1-0.3
	c-1.2,0.8-2.7,1.1-3.7,2c-1.8,1.5-3.3,3.1-5.8,3.5c-1.3,0.2-1.5,0.3-1.7-1C27.9,230.2,27.8,229.5,26.7,229.7z M43.4,225.9
	c-0.5-1-0.5-1-1.5-0.4c0.4,0.3,0.7,0.6,1.3,0.6c0.3,0.6,1,0.9,1.3,1.4c0.4,0.5,0.9,0.8,1.5,0.7c0.3,0,0.7,0,0.7-0.4
	c0.1-0.4-0.2-0.6-0.6-0.6c-0.8,0-1.3-0.4-1.7-1C44.1,226,43.8,225.8,43.4,225.9z M50.6,221.8c0-0.4-0.1-0.5-0.4-0.6
	c-0.5,0-0.9,0-1.1,0.5c-0.4,0.8-0.7,1.7-1.1,2.5c-0.1,0.3-0.4,0.5,0.1,0.8c0.4,0.2,0.7,0.3,1.1,0C50,224.1,49.8,222.7,50.6,221.8z
	 M50.9,217.3c-0.4,0.2-1.2-0.1-1.1,0.5c0,0.5,0.7,1.1,1.3,1.1c0.5,0,1-0.6,1-1.1C52,217.2,51.4,217.4,50.9,217.3z M36.9,219.6
	c-0.1-1-0.5-1.3-1-1.3c-0.5,0-0.5,0.3-0.5,0.7c0,0.6,0.3,0.8,0.9,0.8C36.6,219.8,36.9,219.7,36.9,219.6z M43.1,218.3
	c0.3,0,0.8,0.1,0.8-0.5c0-0.4-0.4-0.5-0.7-0.4c-0.3,0-0.8,0-0.8,0.5C42.3,218.4,42.8,218.3,43.1,218.3z M45.7,222.7
	c0.3-0.3,0.8-0.4,0.9-0.9c0.1-0.3-0.2-0.4-0.4-0.4c-0.5,0-0.8,0.3-0.9,0.8C45.4,222.4,45.4,222.6,45.7,222.7z"/>
<path class="st1" d="M26.7,229.7c1.1-0.2,1.2,0.5,1.3,1.2c0.2,1.4,0.4,1.2,1.7,1c2.5-0.4,4-2,5.8-3.5c1-0.9,2.5-1.2,3.7-2
	c0.4-0.2,0.8,0.1,1.1,0.3c1.1,0.7,2.2,1.3,3.1,2.4c0.8,0.9,2,1.2,3.1,1.8c0.7,0.4,1.5-0.2,1.6-1c0.1-0.7,0.6-0.9,1-1.4
	c1.6-1.7,3.7-2.9,5.2-4.7c0.6-0.7,1.5-1.1,1.5-2.3c0-1.1-0.3-1.8-1.3-2.2c-0.6-0.2-0.9-0.4-0.4-1.2c0.4-0.6,0.3-1.5,0.1-2.2
	c-0.2-0.7-0.9-1.4-1.8-0.9c-0.7,0.4-1.5,0.4-2.2,0.4c-3.5,0-7,0-10.5,0c-2.9,0-5.6,1-7.6,3.2c-0.3,0.3-0.8,0.5-0.6,1.1
	c0.2,0.5,0.6,0.8,1.1,0.8c0.9,0,1,0.8,1,1.3c0,0.5-0.3,1.1-0.9,1.2c-2.1,0.3-3.5,1.8-5,2.9c-1.2,0.9-2.3,1.9-3.7,2.6
	c-0.5,0.2-1.3,0.5-0.8,1.4c0.4,0.7,1,0.5,1.6,0.1c0.4-0.2,0.8-0.8,1.4-0.2c-0.7,0.9-1.7,1-2.8,0.9c-0.5-0.1-0.8-0.3-1-0.8
	c-0.1-0.5-0.1-0.9,0.3-1.2c0.3-0.2,0.5-0.4,0.9-0.6c1.2-0.6,2.3-1.3,3.3-2.3c0.7-0.7,1.4-1.5,2.5-1.5c0.2,0,0.4-0.1,0.5-0.4
	c0.4-0.7,1-1.1,1.9-1.1c0.7,0,1.2-0.4,1.3-1.2c0.1-0.9-0.7-0.6-1.1-0.8c-1.2-0.3-1.5-1.2-0.7-2.1c1.9-2.3,4.4-3.5,7.3-3.6
	c3.3-0.1,6.6,0,9.9,0c1.2,0,2.4,0.1,3.7-0.5c1.6-0.7,2.6,0.1,2.6,1.9c0,0.5,0,1.1,0,1.6c0,0.5,0.1,0.8,0.6,1c1.5,0.6,0.8,2,0.9,3.1
	c0.1,0.8,0,1.6-1.1,1.7c-0.3,0-0.4,0.3-0.5,0.6c-0.1,0.7-0.6,1.2-1,1.3c-2,0.7-2.8,2.8-4.5,3.6c-0.2,0.1-0.3,0.4-0.4,0.7
	c-0.5,1.3-1.3,1.8-2.5,1.3c-1.1-0.5-2.5-0.8-3.3-1.9c-0.3-0.4-0.7-0.7-1.1-1c-1.2-0.8-2.2-1.5-4-0.3c-1.3,0.8-2.6,1.6-3.6,2.8
	c-0.6,0.7-1.5,0.7-2.2,1.1c-0.8,0.4-1.8,0.6-2.7,0.9c-0.7,0.2-1.6,0-1.5-1C27.7,230.9,27.2,230.3,26.7,229.7z"/>
<path class="st1" d="M63,214.7c0.5,0.2,0.8,0.8,1.4,0.5c0.3-0.1,0.6,0.1,0.5,0.4c0,0.4-0.3,0.5-0.7,0.5
	C63.6,215.9,63.2,215.4,63,214.7z"/>
<path class="st1" d="M98.2,195.3c0.4,1.9,1.3,3.2,1.2,4.8c0,0.4,0,0.9,0.2,1.3c0.2,0.3,0.5,0.8,0.1,1.1c-0.3,0.2-0.6-0.3-0.9-0.5
	c-0.7-0.7-1.3-1.4-1.2-2.6C97.8,198.2,97.4,196.9,98.2,195.3z"/>
<path class="st1" d="M97.6,129.1c0.9-1.4,0.6-3.1,1.9-4.4c0.7-0.7,1.2-1.6,1.2-2.8c0-0.3,0.1-0.7,0.3-1c0.2-0.4,0.6-0.8,1.1-0.5
	c0.6,0.3,0.5,0.9,0.1,1.2c-0.7,0.7-0.8,1.4-0.8,2.3c0,0.3,0,0.6-0.1,0.8c-1.2,1.5-2.4,3-2.9,4.9c-0.1,0.2-0.3,0.5-0.6,0.3
	C97.4,129.7,97.7,129.4,97.6,129.1z"/>
<path class="st1" d="M91.3,179.8c1.3,2.7,2.1,7.5,1.5,8.7C91.7,186.8,90.6,181.1,91.3,179.8z"/>
<path class="st1" d="M144.2,202.6c1.3-0.3,2.3-0.3,3.4,0.1c1.3,0.4,2.2,1.2,3.1,2.1c0.1,0.1,0.3,0.2,0.2,0.4
	c-0.1,0.2-0.3,0.3-0.5,0.1C148.8,203.6,146.3,204,144.2,202.6z"/>
<path class="st1" d="M112.7,186.8c-1.9-0.3-2.8-1.9-4.2-2.8c-0.4-0.3-0.5-0.8-0.1-1.2c0.4-0.4,1.1-0.4,1.3,0.1
	C110.5,184.4,111.5,185.7,112.7,186.8z"/>
<path class="st1" d="M117.7,146.1c0.5-1,1.2-0.8,1.8-0.6c0.2,0,0.3,0.3,0.2,0.4C119.1,146.4,118.5,146.1,117.7,146.1z"/>
<path class="st1" d="M96.9,132.9c0,0.4,0,0.7-0.1,1c-0.2,0.4-0.5,1-0.9,0.8c-0.5-0.2-0.2-0.7-0.1-1.1c0.1-0.2,0.2-0.5,0.4-0.7
	c0.1-0.3-0.1-0.9,0.5-0.8C97,132.1,96.7,132.6,96.9,132.9z"/>
<path class="st1" d="M69.2,173.8c-0.4-0.3-0.5-0.7-0.5-1.1c0-2.2,0-4.4,0-6.6c0-0.4-0.1-0.9,0.5-0.9c0.4,0,0.4,0.5,0.4,0.9
	c0,2.3,0,4.6,0,6.9C69.6,173.2,69.6,173.6,69.2,173.8z"/>
<path class="st1" d="M85.9,110.6c0.2-1.3,1.2-2.1,2-2.9c0.7-0.8,1.8-0.5,3,0C89.2,108.9,87.6,109.8,85.9,110.6L85.9,110.6z"/>
<path class="st1" d="M69.7,147.6c-0.2,0.7,0.3,1.8-0.5,1.8c-0.7,0-0.4-1.1-0.4-1.7c0-0.6-0.3-1.6,0.4-1.6
	C70.1,146.1,69.3,147.2,69.7,147.6z"/>
<path class="st1" d="M74.3,123.2c-0.2-0.6,0.3-0.9,0.4-1.3c0.1-0.4,0.2-0.7,0.6-0.8c0.2,0,0.3,0.1,0.4,0.3c0.1,0.4,0.2,0.9-0.3,1.2
	C75.1,122.8,74.7,123,74.3,123.2z"/>
<polygon class="st1" points="85.9,110.6 85.9,110.6 85.9,110.6 "/>
<path class="st1" d="M50.6,221.8c-0.8,0.9-0.6,2.3-1.5,3.2c-0.4,0.4-0.7,0.2-1.1,0c-0.4-0.2-0.2-0.5-0.1-0.8
	c0.4-0.8,0.7-1.7,1.1-2.5c0.2-0.5,0.7-0.5,1.1-0.5C50.5,221.3,50.6,221.4,50.6,221.8z"/>
<path class="st1" d="M50.9,217.3c0.5,0.1,1.1-0.1,1.1,0.5c0,0.5-0.5,1.1-1,1.1c-0.6,0-1.2-0.6-1.3-1.1
	C49.7,217.3,50.5,217.5,50.9,217.3z"/>
<path class="st2" d="M36.9,219.6c0,0.1-0.3,0.2-0.7,0.2c-0.5,0-0.8-0.2-0.9-0.8c0-0.4,0-0.8,0.5-0.7
	C36.4,218.3,36.8,218.6,36.9,219.6z"/>
<path class="st1" d="M43.4,225.9c0.4-0.1,0.8,0.1,1.1,0.4c0.4,0.5,0.9,1,1.7,1c0.3,0,0.6,0.1,0.6,0.6c-0.1,0.4-0.4,0.4-0.7,0.4
	c-0.6,0-1.1-0.2-1.5-0.7c-0.4-0.5-1.1-0.8-1.3-1.4C43.2,226,43.3,226,43.4,225.9z"/>
<path class="st1" d="M43.1,218.3c-0.3-0.1-0.7,0-0.7-0.4c0-0.5,0.4-0.5,0.8-0.5c0.3,0,0.7,0,0.7,0.4
	C43.9,218.4,43.4,218.3,43.1,218.3z"/>
<path class="st1" d="M45.7,222.7c-0.3,0-0.4-0.2-0.3-0.5c0.1-0.5,0.4-0.8,0.9-0.8c0.2,0,0.4,0.2,0.4,0.4
	C46.5,222.3,46,222.4,45.7,222.7z"/>
<path class="st1" d="M43.1,226.1c-0.5,0-0.9-0.3-1.3-0.6c1-0.6,1-0.6,1.5,0.4C43.3,226,43.2,226,43.1,226.1z"/>
</svg>
