<?xml version="1.0" encoding="utf-8"?>
<!-- Generator: Adobe Illustrator 26.2.1, SVG Export Plug-In . SVG Version: 6.00 Build 0)  -->
<svg version="1.1" id="Calque_1" xmlns="http://www.w3.org/2000/svg" xmlns:xlink="http://www.w3.org/1999/xlink" x="0px" y="0px"
	 viewBox="0 0 256 256" style="enable-background:new 0 0 256 256;" xml:space="preserve">
<style type="text/css">
	.st0{fill:#792AE2;}
	.st1{fill:#F7FBFC;}
	.st2{fill:#367FD0;}
	.st3{fill:#03BAC8;}
</style>
<path class="st0" d="M219.7,176.3c1.3,14.4,3.3,28.8-1.5,43c-1.7,5.1-5.3,6.8-10.6,6.7c-11.6,0-23.2-2-34.6-1.2
	c-12.9,0.9-25.8,0.6-38.7,1.1c-8.4,0.3-16.7,0.1-24.7-2.7c-5.7-2-11.1,1.1-16.7,1.1c-16.9,0-33.9,0.1-50.8,0
	c-11.5-0.1-14.7-9.7-7.5-21.9c6.2-0.2,12.3-1.1,18.5,0.9c2.1,0.7,5.2,0.6,7.1-0.4c11-5.6,23.8-7.2,33.6-15.6
	c6-5.2,13.4-6.5,21.1-6.5c10,0,20.4,1.6,29.9-0.6c15.6-3.5,30.7-7.9,47.1-4.5c6.4,1.3,13.5-0.4,19.8,2.7
	C215.1,180.2,217.2,177.6,219.7,176.3z"/>
<path class="st1" d="M212.9,129c-7.4-1.3-8,2.8-7.8,8.8c0.4,10.2-3.1,13.3-11.9,12.5c-5.2-0.4-7.6-3.4-8.6-8
	c-0.6-2.9-0.5-5.9-0.7-8.9c-2.1-0.1-2.4,1.9-2.9,3.1c-3.1,8.3-8.4,12.5-17.6,10.2c-1.7-0.4-3,0.3-4.4,1.4c-4,3.3-8.7,2.8-12.9,1.1
	c-3.8-1.6-6.3-2.8-10.6,0.2c-5.2,3.7-9.6,0.4-9.8-6.1c-0.1-3.8-0.2-7.5-0.3-11.3c0-0.1-0.4-0.2-1.1-0.5c-2.9,1.4-1.5,7.3-6.1,7
	c-2.4-0.2-2.2-2.7-2.6-4.5c-0.6-4.3,2.5-11.9-2-12.1c-4.1-0.1-4.4,7.9-4.2,12.9c0,0.3,0,0.5,0,0.8c-3.2,6.9-8.3,9.7-15.8,7.5
	c-1.8-3.6-3.1-5.4-8.5-3.6c-7.1,2.5-15.2,3.3-23,2.5c-5.5-0.6-16.8-10.5-17.5-16.2c-1.9-14.3,1-27.3,11.1-38.2
	c4.2-4.5,17.4-2.6,22.9,3.2c3.1,3.3,2.1,12-2.2,16.2c-5.2,5-11.6,6.4-18.7,5.7c-1.5-0.2-2.9-0.7-2.9-2.2c0-1.4,1.3-2.5,2.8-2.5
	c3.8,0.1,7.5-0.6,11-2.1c4-1.8,6.7-5.2,6.3-9.5c-0.4-4.2-5.1-3.9-8.1-5.4c-3.9-1.9-6.6-0.8-9,2.6c-5.4,7.9-9.3,16.2-8.5,26.2
	c0.7,8.8,9.9,17.4,18.8,17.2c3.4-0.1,5-0.7,5.7-4.7c1.8-10.7,11.3-16.4,21.6-13.4c5,1.4,5,5.1,3.3,9c-0.6,1.3-2.5,2-2.3,4
	c0.3,2.2-1.2,5.4,1.9,6.3c3,0.9,4.1-2,5-4.2c1.9-5,0.8-10.8,4.4-15.3c1.7-2.2,1.9-6.1,5.8-5.8c4.2,0.3,6.1,3.7,6.8,7.1
	c0.7,3.4,0.2,5,4.8,3.2c3.5-1.4,5.1,2.8,5.6,6.3c0,5.1,0,10.2,0,16.5c7.5-4.9,10.6-10.5,9.2-18.2c7.6-9.9,16.6-10.4,23.6-1.3
	c-1.1,4-0.8,7.8,0.7,11.8c0.9,2.3,1.6,3.8,4.2,3.8c2,0,3.5-0.4,4.4-2.6c2.1-5.1,6.3-9.4,6.4-15.3c2.1-4.9,5.7-5,9.8-2.9
	c-0.1,5.1-0.2,10.1-0.3,15.2c-0.1,4.1,1.1,7.5,5.4,8.6c5.3,1.4,4.9-4.7,5.2-6c0.9-3.5,3.2-9.5-1.4-11.1c-4.2-1.5-4-4.3-5.2-6.9
	c2.6-2,5.4-2.4,8.3-0.6c4.8,3.1,9.4,4.7,13.9-0.5c0.9-1,2.3-1.6,3.6-0.6c1.5,1.3,1.3,3.1,0.1,4.3C217.1,125.7,214.9,127.3,212.9,129
	z M158,134.8c2.3-6.6-2.5-7.9-6.4-7.9c-10.3,0-3.1,9-5.8,13.3c-2,3.2,3.2,5.1,6.2,5C159.3,145,157.1,138.6,158,134.8z M90.9,124.8
	c-6.7-1.6-9,2.8-11.2,7.2c-0.9,1.7,0.5,2.8,1.7,2.8c5.4,0.3,7.1-3.8,8.8-7.8C90.4,126.6,90.5,126,90.9,124.8z"/>
<g>
	<g>
		<path class="st2" d="M219.7,176.3c-2.5,1.3-4.6,3.9-8.1,2.2c-6.3-3.1-13.4-1.4-19.8-2.7c-16.3-3.4-31.4,1-47.1,4.5
			c-9.5,2.2-19.9,0.6-29.9,0.6c-7.8,0-15.1,1.3-21.1,6.5c-9.8,8.4-22.6,9.9-33.6,15.6c-2,1-5,1.1-7.1,0.4c-6.1-2-12.3-1.1-18.5-0.9
			c-3.7-6.4-2.4-13-0.8-19.6c14.2-3.7,23.6-13.7,33.1-24.1c7.1-7.9,17.7-10.7,27-15.4c7.5,2.2,12.6-0.6,15.8-7.5
			c2-0.5,4.1-1.1,6.1-1.6c0.4,1.8,0.1,4.3,2.6,4.5c4.5,0.3,3.2-5.6,6.1-7c0.7,0.3,1.1,0.4,1.1,0.5c0.1,3.8,0.2,7.5,0.3,11.3
			c0.2,6.4,4.6,9.7,9.8,6.1c4.3-3,6.8-1.8,10.6-0.2c4.2,1.7,8.9,2.2,12.9-1.1c1.4-1.1,2.6-1.8,4.4-1.4c9.2,2.3,14.5-2,17.6-10.2
			c0.5-1.2,0.8-3.2,2.9-3.1c0.2,3,0.1,6,0.7,8.9c0.9,4.5,3.4,7.5,8.6,8c8.9,0.8,12.3-2.3,11.9-12.5c-0.2-6,0.4-10.1,7.8-8.8
			c2,4.2,5.8,3.7,9.4,3.6C221.5,147.2,220.6,161.7,219.7,176.3z"/>
		<path class="st2" d="M179.5,124.2c-0.2,5.9-4.3,10.2-6.4,15.3c-0.9,2.2-2.3,2.6-4.4,2.6c-2.7,0-3.3-1.5-4.2-3.8
			c-1.5-4-1.8-7.8-0.7-11.8C169,125.8,174.1,123.9,179.5,124.2z"/>
		<path class="st2" d="M193,121.2c1.2,2.6,1,5.4,5.2,6.9c4.6,1.6,2.3,7.6,1.4,11.1c-0.3,1.3,0,7.5-5.2,6c-4.3-1.2-5.5-4.5-5.4-8.6
			c0.1-5.1,0.2-10.1,0.3-15.2C190.6,121.3,191.8,121.2,193,121.2z"/>
		<path class="st2" d="M140.2,127.9c1.4,7.7-1.7,13.2-9.2,18.2c0-6.2,0-11.4,0-16.5C134,129,137.1,128.5,140.2,127.9z"/>
		<path class="st2" d="M158,134.8c-0.9,3.8,1.3,10.2-6,10.5c-3,0.1-8.2-1.8-6.2-5c2.7-4.4-4.5-13.3,5.8-13.3
			C155.4,126.8,160.2,128.2,158,134.8z"/>
	</g>
</g>
<g>
	<g>
		<path class="st3" d="M33.8,182.7c-3.8-12.6-0.7-25.1,0.8-37.6c1.4-11.2,2.3-22.7,4.8-33.3c3.9-16.8-1.2-34.6,6.7-50.7
			c1.8-3.8-1.1-7.8-1-11.9c0.2-9.3,3.2-12.2,12.3-13.7c26-4.2,51.9-1.6,77.8,0.1c5.6,0.3,11.3,0,17-0.1c16.4-0.3,32.6,2.7,49,2.1
			c7.3-0.3,14.8,2.2,22.2,3.8c4.3,1,7.6,4.3,7,8.7c-1.1,8.4,1.6,16.4,1.8,24.6c0.4,13.8-5.1,26.8-5.9,40.5c-0.3,5.8,2,12.7-4,17.4
			c-3.7,0.2-7.4,0.6-9.4-3.6c2-1.8,4.2-3.4,6-5.3c1.1-1.2,1.4-3-0.1-4.3c-1.2-1-2.7-0.5-3.6,0.6c-4.5,5.3-9.1,3.6-13.9,0.5
			c-2.8-1.8-5.6-1.3-8.3,0.6c-1.2,0.1-2.4,0.1-3.7,0.2c-4.2-2.1-7.7-2.1-9.8,2.9c-5.4-0.3-10.5,1.6-15.8,2.4
			c-6.9-9.1-15.9-8.6-23.6,1.3c-3.1,0.6-6.1,1.1-9.2,1.7c-0.5-3.4-2.1-7.6-5.6-6.3c-4.6,1.8-4.1,0.2-4.8-3.2
			c-0.7-3.4-2.6-6.8-6.8-7.1c-4-0.3-4.1,3.6-5.8,5.8c-3.6,4.5-2.5,10.3-4.4,15.3c-0.8,2.2-2,5.1-5,4.2c-3.1-0.9-1.6-4.1-1.9-6.3
			c-0.3-1.9,1.7-2.6,2.3-4c1.7-3.9,1.7-7.5-3.3-9c-10.3-3-19.8,2.7-21.6,13.4c-0.7,4.1-2.3,4.6-5.7,4.7c-8.9,0.2-18.1-8.4-18.8-17.2
			c-0.8-10,3.1-18.3,8.5-26.2c2.3-3.4,5-4.5,9-2.6c3,1.5,7.7,1.1,8.1,5.4c0.4,4.3-2.3,7.7-6.3,9.5c-3.4,1.5-7.2,2.2-11,2.1
			c-1.4,0-2.7,1.1-2.8,2.5c0,1.5,1.4,2.1,2.9,2.2c7,0.7,13.5-0.7,18.7-5.7c4.3-4.2,5.3-12.9,2.2-16.2c-5.5-5.8-18.7-7.8-22.9-3.2
			C45.9,98.7,43,111.7,44.9,126c0.8,5.7,12,15.6,17.5,16.2c7.9,0.8,15.9,0,23-2.5c5.4-1.9,6.7,0,8.5,3.6c-9.3,4.7-19.9,7.5-27,15.4
			C57.5,169.1,48,179,33.8,182.7z"/>
		<path class="st3" d="M109.7,135.8c0-0.3,0-0.5,0-0.8c-0.2-5.1,0-13,4.2-12.9c4.5,0.1,1.4,7.8,2,12.1
			C113.8,134.7,111.7,135.2,109.7,135.8z"/>
		<path class="st3" d="M90.9,124.8c-0.4,1.2-0.5,1.7-0.7,2.2c-1.7,4-3.5,8.1-8.8,7.8c-1.2-0.1-2.6-1.1-1.7-2.8
			C81.9,127.7,84.2,123.3,90.9,124.8z"/>
	</g>
</g>
</svg>
