<?xml version="1.0" encoding="utf-8"?>
<!-- Generator: Adobe Illustrator 26.2.1, SVG Export Plug-In . SVG Version: 6.00 Build 0)  -->
<svg version="1.1" id="Calque_1" xmlns="http://www.w3.org/2000/svg" xmlns:xlink="http://www.w3.org/1999/xlink" x="0px" y="0px"
	 viewBox="0 0 256 256" style="enable-background:new 0 0 256 256;" xml:space="preserve">
<style type="text/css">
	.st0{fill:#00A1E7;}
	.st1{fill:#40B9ED;}
</style>
<path class="st0" d="M51.4,116.9c0,0,0-0.1,0-0.1c0.3,0,0.5-0.3,0.7-0.5c1.1-1,2.1-2.1,3.6-2.5c0.8-0.2,1.5-0.9,2.4-1
	c0.1,0,0.1-0.1,0.2-0.2c0.2-0.6,0.7-0.5,1-0.3c0.4,0.3,0.7,0.1,1-0.2c0.7-0.9,1.7-1.5,2.5-2.2c0.6-0.5,1.4-1.1,2.3-1.4
	c0.3-0.1,0.4-0.2,0.6-0.5c0.4-0.8,1-1.5,1.9-1.7c1.1-0.2,1.9-1,2.8-1.5c0.7-0.4,1.2-0.8,1.6-1.5c0.1-0.2,0.3-0.3,0.5-0.5
	c1-1.1,2.5-1.8,3-3.3c0-0.1,0.2-0.1,0.2-0.2c0.7-0.6,1.2-1.3,1.8-2c0.4-0.4,0.4-1.2,1.2-1.3c1-0.1,2,0.1,3-0.3
	c0.9-0.4,1.9,0,2.8-0.5c0.3-0.1,0.7-0.1,1,0.2c0.2,0.2,0.2,0.5,0.5,0.4c0.4-0.1,0.2-0.4,0.2-0.7c0-0.1,0.1-0.2,0.1-0.3
	c0.7-0.5,1.1-1.3,1.9-1.9c0.9-0.7,1.6-1.5,2.5-2.1c1.3-0.9,2.9-1.5,4-2.8c0.1-0.1,0.2-0.1,0.3-0.2c0.7-0.4,1.6-0.4,2-0.9
	c0.8-1,1.8-1,2.9-1.1c0.3,0,0.7-0.2,1-0.1c0.9,0.2,1.8,0.1,2.7,0.1c0.6,0,0.9-0.2,0.9-0.8c0-0.2,0-0.4,0.3-0.5c0.2,0,0.5,0,0.6,0.2
	c0.2,0.7,0.7,0.6,1.2,0.6c0.5,0,1,0,1.5,0c1.9,0,1.7,0.3,1.7-1.7c0-0.3-0.4-0.8,0.2-1c0.5-0.1,0.4,0.6,0.7,0.8c0,0,0.1,0.1,0.1,0.1
	c0,0.6,0.6,0.7,0.8,1c0.4,0.8,0.7,0.1,1.1,0c0.1,0,0.2,0,0.2,0c2.3-0.1,4.7-0.4,7-0.3c3.7,0.1,7.4-0.1,11.1,0.2
	c0.5,0,0.9,0.1,1.4,0.2c0.3,0.1,0.5,0.2,0.5,0.6c0,0.4-0.3,0.4-0.6,0.4c-0.2,0-0.4,0-0.6,0c-6.2,0-12.4,0-18.5,0
	c-0.7,0-1.2,0.1-1.1,0.9c0,0.1,0,0.3-0.2,0.3c-0.2,0.1-0.3,0-0.3-0.2c-0.5-1.3-1.5-1.1-2.5-0.8c-1,0.2-1.9,0.6-2.9,0.7
	c-1.4,0.1-2.8,0.5-4.1,0.9c-0.4,0.1-0.7,0.3-1.1,0.3c-1.8,0.1-3.2,0.9-4.4,2.2c-0.8,0.8-1.6,1.7-2.5,2.3c-0.8,0.6-1.3,1.1-1.7,1.9
	c-0.2,0.4-0.7,0.6-0.8,1.1c-0.2,0.7-0.6,1.3-1,2c-0.3,0.5-1,1.1-0.6,1.8c0.5,1,1.2,1.9,2,2.7c0.4,0.4,0.2,0.6,0,1
	c-0.3,0.6-0.9,1.1-1.2,1.7c-0.5,1.1-0.6,2.4-1.4,3.3c-0.1,0.1-0.1,0.3-0.1,0.4c0,0.5-0.3,0.9-0.7,1.1c-1,0.5-1.7,1.4-2.7,2
	c-0.2,0.1-0.3,0.3-0.5,0.2c-0.2-0.1-0.1-0.3-0.1-0.5c0-0.9,0-1.8,0-2.8c0-0.2,0.1-0.4-0.2-0.5c-0.3-0.1-0.4,0.1-0.5,0.2
	c-0.4,0.5-0.7,0.9-1.1,1.4c-0.9,1.1-2,1.9-3.1,2.8c-0.9,0.7-2.1,1-2.8,2c-0.1,0.2-0.4,0.3-0.6,0.4c-0.5,0.3-1.1,0.2-1.5,0.7
	c-1,1.1-2.3,1.8-3.5,2.7c-0.5,0.4-0.9,0.7-1,1.4c0,0.2,0,0.4-0.2,0.5c-0.6,0.3-0.5,0.9-0.6,1.4c-0.1,0.5,0.6,0.9,0.9,0.5
	c0.5-0.7,1.1-0.5,1.7-0.7c0.5-0.1,0.8-0.2,1.2-0.5c0.7-0.5,1.5-0.8,2.4-1c1-0.2,2.1-0.5,2.7-1.5c0.1-0.2,0.3-0.4,0.5-0.5
	c0.9-0.6,1.8-1.3,2.5-2.1c0.1-0.2,0.3-0.3,0.5-0.2c0.2,0.1,0.2,0.3,0.2,0.5c0,0.8,0,1.5,0,2.3l0,0c-0.7-0.1-0.9,0.2-0.8,0.9
	c0,0.9,0,1.8,0,2.7c0,0.3,0,0.6-0.3,0.6c-0.6,0.1-1,0.5-1.5,0.7c-1.2,0.5-2.5,0.9-3.7,1.4c-0.3,0.1-0.9,0.3-0.5,0.6
	c0.6,0.6,1.5,0.9,2.1,1.5c0,0,0.1,0,0.1,0c0.7,0,1.3,0.3,1.8,0.8c0.5,0.5,1.1,0.7,1.7,0.3c0.4-0.3,0.5-0.1,0.5,0.3
	c0,0.4,0.1,0.7,0.4,0.8c1.6,0.5,3.2,0.9,4.8,1c5.8,0.3,11.7-0.3,17.5,0.4c0.7,0.1,1.6-0.1,2.2,0.4c0.5,0.4,0.9,0.4,1.5,0.4
	c10.8,0,21.5,0,32.3,0c0.7,0,1.5,0.3,2-0.6c0.1-0.1,0.4-0.1,0.5-0.1c0.9-0.2,1.9-0.1,2.8-0.5c1.6-0.7,3.3-1.4,5-2
	c0.8-0.3,1.2-1,1.9-1.1c1.4-0.3,1.9-1.5,2.6-2.5c0.1-0.2,0.2-0.5,0-0.7c-0.9-0.7-1.6-1.5-2.6-2.1c-0.3-0.1-0.6-0.2-0.5-0.6
	c0.1-0.4,0.5-0.3,0.7-0.3c1.4,0,2.7,0,4.1,0c0.4,0,0.7-0.1,1-0.4c0.7-0.7,0.9-1.5,0.9-2.4c-0.1-3.5,0-7,0-10.6
	c0-2.1,0.2-4.3-0.6-6.3c-0.3-0.7-0.5-1.5-0.8-2.2c-0.5-1.2-0.8-2.4-1.6-3.4c-0.3-0.4-0.5-0.5-0.9-0.3c-0.8,0.4-1.6,0.8-2.4,1.3
	c-0.5,0.3-1.2,0-1.5,0.4c-0.5,0.6-1.3,0.8-2,1c-1.5,0.4-1.9,1.7-2.5,2.8c-0.3,0.5-0.4,0.8-1.1,0.6c-0.5-0.1-0.9-0.7-1.5-0.5
	c-0.1,0-0.1,0-0.2-0.1c0-0.4,0.1-0.7,0.6-0.7c0.2,0,0.4-0.1,0.6-0.2c1.4-0.6,1.5-1.3,0.4-2.2c-0.3-0.3-0.4-0.6-0.5-1
	c-0.1-0.5,0.1-1.1-0.4-1.5c-0.5-0.4-0.7-0.9-0.9-1.4c-0.2-0.6-0.6-1.2-1.2-1.7c-0.5-0.4-1.2-0.8-1.4-1.5c-0.1-0.5-0.2-0.9-0.8-0.8
	c-0.2,0-0.3-0.2-0.4-0.4c-0.4-0.4-0.7-0.8-1.1-1.2c-0.2-0.2-0.6-0.2-0.4-0.6c0.1-0.2,0.4-0.1,0.7-0.1c1.2,0.2,2.3,1,3.5,1
	c0.5,0,0.9,0.2,1.2,0.7c0.1,0.2,0.4,0.3,0.7,0.3c0.7,0,1.4,0.3,2.2,0.2c0.2,0,0.5,0,0.6,0.2c0.2,0.4,0.6,0.5,0.9,0.6
	c1,0.3,2,0.8,3,0.9c0.4,0.1,0.8,0.3,1.1,0.6c1,0.8,2.1,1.6,3.1,2.4c0.1,0.1,0.3,0.2,0.4,0.1c0.2-0.1,0.1-0.2,0-0.4
	c-0.2-0.4,0-0.7,0.4-0.8c1-0.2,1-1,0.8-1.9c-0.3-1.3-1.1-2.3-1.8-3.4c-0.3-0.4-0.7-0.7-0.8-1.3c-0.1-0.4-0.5-0.5-0.8-0.3
	c-0.6,0.3-1.4,0.2-1.9,0.9c-0.1,0.2-0.4,0.2-0.7,0.2c-0.2,0-0.4,0.1-0.4-0.1c0-0.1,0.1-0.2,0.2-0.3c0.4-0.4,0.8-0.7,1.3-1
	c0.8-0.5,0.8-0.6,0.1-1.3c-0.1-0.1-0.2-0.2-0.2-0.3c-0.2-1.1-1.2-1.5-1.7-2.2c-0.2-0.2-0.6-0.4-0.8-0.2c-0.3,0.4-0.8,0.4-1.2,0.7
	c-0.4,0.3-1.1,0.6-1.4,0.2c-0.3-0.4,0.3-0.9,0.7-1.2c0.3-0.3,0.9-0.4,1-0.7c0.1-0.5-0.6-0.5-0.8-0.9c-0.6-1-1.6-1.7-2.5-2.4
	c-1-0.8-2-1.7-3-2.5c-0.1-0.1-0.2-0.3-0.4-0.2c-0.2,0.1-0.1,0.3,0,0.4c0.3,0.4,0.2,0.7-0.2,0.8c-0.6,0.2-1.2,0.4-1.8,0.5
	c-0.3,0.1-0.6-0.1-0.4-0.4c0.3-0.6,0.6-1.2,1.1-1.5c0.5-0.4,0.4-0.9,0.1-1.1c-0.7-0.5-1-1.2-1.6-1.8c-1.2-1-1.5-1.1-2.6,0
	c-0.3,0.3-0.7,0.4-1.1,0.5c0,0-0.1-0.2-0.1-0.3c0-0.5,0.1-0.9,0.5-1.2c0,0,0,0,0.1,0c0.3-0.1,0.5-0.2,0.5-0.5c0-0.4-0.3-0.5-0.6-0.6
	c-0.5-0.3-1.1-0.4-1.5-0.8c-1.1-1-2.5-1.2-3.8-1.9c-0.6-0.3-1.2-0.2-1.8-0.4c-0.1-0.1-0.3-0.3-0.4-0.1c-0.1,0.1,0,0.3,0.1,0.4
	c0.3,0.3,0.3,0.4,0,0.7c-0.4,0.3-0.7,0.8-0.9,1.3c-0.1,0.2-0.1,0.6-0.5,0.5c-0.3-0.1-0.2-0.4-0.2-0.7c0-0.1,0.1-0.3,0.1-0.4
	c0.2-1.6-0.3-2.6-1.5-2.7c-2.2-0.1-4.4-0.6-6.7-0.5c-1.5,0.1-3,0-4.6,0c-0.7,0-1.5,0-2.2,0c-0.3,0-0.6,0.1-0.5,0.5
	c0.2,0.7,0.4,1.4,0.8,1.9c1,1.1,1.4,2.6,2.6,3.5c0.1,0.1,0.1,0.3,0.1,0.4c0.1,0.5,0.3,0.9,0.6,1.2c0.2,0.2,0.5,0.5,0.5,0.8
	c0.1,0.9,0.7,1.1,1.5,1.1c6.4,0,12.8,0,19.2,0c1.3,0,1.3,0,1.3,1.3c0,2.8,0,5.6,0,8.4c0,0.3-0.1,0.7,0.2,0.8c1,0.6,0.4,0.8-0.2,1
	c-0.3,0.1-0.5,0.1-0.7,0c-0.6-0.6-1.8-0.5-2.1-1.6c0-0.1-0.3-0.2-0.4-0.2c-0.3,0-0.5-0.2-0.7-0.4c-0.3-0.4-0.4-0.9-0.7-1.2
	c-0.6-0.7-1.4-1.2-2.1-1.7c-0.4-0.2-0.7-0.5-1-0.7c-0.6-0.5-0.9-1.3-1.6-1.4c-0.6-0.1-0.9-0.4-1.3-0.7c-1-1-2.2-1.5-3.5-1.6
	c-0.6-0.1-1.4,0.1-1.9-0.4c-0.3-0.3-0.6-0.4-1-0.4c-3.3,0-6.5,0-9.8,0c-0.3,0-0.6,0-0.9,0.1c-1.3,0.7-2.7,0.9-4.1,1
	c-0.4,0-0.7,0.1-0.7,0.5c0,1-0.6,0.5-0.7,0.2c-0.5-0.9-1.3-0.7-2.1-0.7c-0.7,0-1.4,0.1-2,0c-0.7-0.1-1,0.2-0.9,0.9
	c0,0.2,0,0.3,0,0.5c0,0.2,0.2,0.6-0.2,0.7c-0.4,0-0.2-0.4-0.3-0.6c0-0.1-0.1-0.2-0.1-0.2c-0.8-0.4-1-0.6,0-1.2
	c0.5-0.3,0.9-0.6,1.5-0.6c0.3,0,0.6,0,0.9-0.1c1.1-0.4,2.2-0.3,3.3-0.7c0.4-0.1,0.6-0.2,0.6-0.7c0-2.7,0-5.4,0-8
	c0-0.4-0.2-0.5-0.6-0.6c-0.7-0.2-1.4,0.1-2.2,0c-2.2-0.1-4.5-0.1-6.7-0.1c-1.8,0-3.6,0.1-5.4,0.3c-1.9,0.2-3.5,1-5.2,1.5
	c-0.2,0.1-0.5,0.3-0.4,0.5c0,0.3,0.3,0.3,0.5,0.2c1-0.2,1.2,0.3,1.1,1.1c0,0.2,0,0.4,0,0.6c0,0.4-0.1,0.4-0.5,0.4
	c-1.1-0.1-1.5-1.1-2.3-1.6c-0.6-0.4-1-0.4-1.5-0.1c-0.2,0.2-0.5,0.2-0.7,0.3c-0.6,0.3-1.4,0.2-1.7,0.8c-0.3,0.5-0.5,0.5-1,0.5
	c-1.3-0.1-2.6-0.1-3.7,0.7c-0.4,0.3-0.9,0.5-1.1,0.9c-0.3,0.4,0.4,0.5,0.4,0.8c0,0.1,0,0.3,0.1,0.4c0.1,0.2,0.1,0.4-0.1,0.5
	c-0.2,0.1-0.3,0-0.5-0.2c-0.4-0.3-0.8-0.6-1.2-0.9c-0.3-0.2-0.5-0.2-0.8,0c-0.6,0.5-1.4,0.5-2.1,0.6c-0.3,0-0.6,0-0.7,0.3
	c-0.2,0.4-0.5,0.3-0.8,0.4c-0.8,0.1-1.7-0.1-2.1,1c-0.1,0.2-0.3,0.2-0.5,0.2c-1.7,0.2-3.5,0.3-5,1.2c-0.5,0.3-1.4,0.5-1.3,1.4
	c0.1,0.7,0.3,1.4,0.9,1.8c0.4,0.3,0.3,0.8,0.5,1.3c0.1,0.3-0.2,0.4-0.4,0.3c-1.5-0.3-2.8-0.8-4.2-1.4c0.1-0.4,0.8-0.4,0.8-0.9
	c-0.3-0.1-0.6,0-0.9,0.1c-0.9,0.4-1.7,0.9-2.7,1.1c-0.4,0.1-0.8,0-1,0.4c-0.3,0.4-0.8,0.5-1.3,0.5c-0.4,0-0.8-0.1-1.2,0.1
	c-1,0.6-1.8,1.4-3,1.5c-0.1,0-0.2,0.1-0.3,0.2c-0.4,0.6-1,0.7-1.6,0.9c-0.6,0.2-1.2,0.5-1.7,0.9c-0.7,0.5-1.2,1.1-2,1.4
	c-0.1,0.1-0.2,0.2-0.3,0.3c-0.1,0.2-0.3,0.3-0.2,0.5c0.1,0.2,0.3,0.1,0.5,0c0.2,0,0.5-0.2,0.7,0.1c0.4,0.6,0.7,1.2,1.1,1.8
	c0.1,0.2,0,0.3-0.2,0.3c-0.8,0.2-2.8-0.8-2.9-1.5c-0.1-0.6-0.4-0.4-0.6-0.2c-0.4,0.3-0.3,0.8,0,1.2c0.1,0.1,0.3,0.2,0.2,0.4
	c-0.1,0.2-0.3,0.1-0.4,0.1c-1.1-0.4-2.1,0.1-3,0.7c-1.3,0.7-2.3,1.7-3.4,2.6c-1,0.8-1.8,1.7-2.4,2.9c-0.2,0.5-0.6,0.9-1.1,0.7
	c-0.5-0.1-1.2-0.3-1.1-1.1c0-0.3-0.2-0.5-0.4-0.7c-0.6-0.6-0.6-1.5-1-2.3c-0.3-0.5-0.4-1.2-0.9-1.5c-1-0.6-1.2-1.5-1.1-2.6
	c0.1-3,0.1-6,0-9c0-0.8,0.2-0.9,1-0.9c5.8,0,11.7,0,17.5,0c0.9,0,1.9-0.3,2.8-0.2c0.1,0,0.3-0.1,0.4-0.2c0.8-0.8,1.8-1.1,2.7-1.6
	c0.5-0.3,0.5-1.1,0-1.4c-1.2-0.7-2.3-1.6-3.3-2.6c-0.4-0.4-0.7-0.8-1.2-0.9c-1.2-0.3-1.3-1.2-1.4-2.2c-0.1-1.1-0.3-1.3-1.3-1.3
	c-5.8,0-11.5,0-17.3,0c-0.8,0-1.4,0.2-1.7,1c-0.1,0.2-0.2,0.3-0.4,0.3c-0.5,0.1-0.7,0.4-0.7,0.9c0,0.6,0,1.3,0.2,1.9
	c0.2,0.7,0.6,1.3,0.9,2c0.5,1.1,0.4,2.5,1.2,3.5c0.3,0.4,0.1,0.8-0.4,0.7c-0.7,0-1.5,0.1-2.2,0.2c-0.6,0-0.9,0.2-0.8,0.9
	c0,1.7,0,3.4,0,5c0,0.9,0,1.8,0.2,2.7c0.2,0.6,0.3,1.3,1.2,1.2c0.3,0,0.6,0.1,0.9,0.3c0.2,0.1,0.7,0.2,0.6,0.6
	c-0.1,0.3-0.4,0.4-0.7,0.4c-0.6,0.1-0.7,0.4-0.6,1c0.1,0.7,0.4,1.3,0.7,1.9c0.5,0.9,0.4,1.8,0.3,2.8c0,0.5,0.1,0.8,0.6,1.1
	c0.5,0.3,1,0.5,1.3,1.1c0.1,0.4,0.5,0.8,0.9,1c0.7,0.5,0.7-0.4,1.1-0.5c0.1,0,0.2-0.1,0.2-0.1c0.4,0,0.7-0.2,0.9-0.5
	c0.1-0.2,0.3-0.4,0.5-0.3c0.2,0.1,0.2,0.3,0.2,0.5c0.1,0.2,0.2,0.3,0.2,0.5c0.4,0.8,0.6,1.8,0.8,2.6c0.3,1.2,0.1,2.5,0.1,3.7
	c0,0.2-0.1,0.4-0.3,0.4c-1.4,0.1-2.7,0.6-4,0.8c-0.4,0.1-0.8,0.1-1.1,0.5c-0.3,0.4-0.7,0.2-1.1,0.2c-0.4-0.1-0.2-0.4-0.2-0.7
	c0-0.5,0-0.9,0-1.4c0-0.6-0.2-0.9-0.9-1c-0.7-0.1-1.6,0.2-2-0.7c0-0.1-0.2-0.1-0.3-0.1c-1.1-0.1-2.1-0.4-3.2-0.3
	c-0.6,0-0.8-0.2-0.8-0.8c0-0.4,0.1-0.9-0.4-1.3c-0.6-0.5-1-1.3-1.2-2.1c-0.3-1.2-0.9-2.2-1.7-3c-0.8-0.7-1.5-1.4-1.2-2.6
	c0-0.1,0-0.3,0-0.4c-0.3-1.5-0.6-3-0.6-4.5c0-1.8,0-3.7,0-5.5c0-0.6,0.1-1.3-0.5-1.8c-0.2-0.2-0.2-0.7-0.3-1.1
	c0-0.3-0.1-0.6,0.5-0.5c0.6,0.1,0.8-0.3,0.5-0.7c-0.2-0.4-0.3-0.9-0.8-1c-0.2-0.1-0.2-0.3-0.2-0.5c-0.1-0.6,0-1.2,0.6-1.5
	c-0.9,0.2-1.2-0.7-1.8-1.1c-0.3-0.2-0.5-0.9-0.1-1.1c0.4-0.2,1-0.9,1.4-0.3c0.3,0.4,0.7,0.8,1,1.2c0.3,0.6,0.6,0.4,0.9,0
	c0.5-0.7,0.7-1.6,1.5-2c0,0,0,0,0-0.1c0.2-1,1.4-1.4,1.6-2.4c0-0.2,0.3-0.1,0.4-0.2c1.5-0.5,3.1-0.9,4.7-0.8
	c0.9,0.1,1.7-0.2,2.6-0.2c0.6,0,0.8-0.5,0.4-0.9c-0.6-0.8-1.4-1.4-1.9-2.4c-0.1-0.1-0.4-0.2-0.2-0.4c0.2-0.2,0.3,0,0.5,0.1
	c0.5,0.4,1.1,0.7,1.8,0.6c0.7-0.1,1.2,0.2,1.2,1c0,0.4,0.2,0.5,0.5,0.3c0.6-0.5,1.5-0.3,1.9-1.1c0-0.1,0.2-0.2,0.3-0.2
	c1.1,0.1,2.1-0.6,3-1c1.2-0.5,2.5-1.2,3.7-1.8c0.5-0.3,1.1-0.7,1.8-0.7c1.4,0.1,2.9-0.1,4.3-0.2c0.7,0,1.5,0.1,1.9-0.3
	c0.5-0.5,1.1-0.6,1.7-0.6c0.7,0,1.3-0.3,1.9-0.6c0.2-0.1,0.5-0.3,0.8-0.3c1.3-0.1,2.6-0.6,3.9-0.8c1.4-0.2,2.6-0.7,4-0.6
	c2.2,0.2,4.4-0.1,6.5-0.3c0.6-0.1,1.3-0.2,2-0.3c0.7-0.2,1.3-0.6,2-0.7c0.8,0,1.5-0.3,2.1-0.7c0.2-0.1,0.4-0.2,0.6-0.2
	c1.4,0,2.7,0.1,4.1,0c1.2-0.1,2.4,0.1,3.5-0.6c0.4-0.3,1.1-0.6,1.8-0.6c1.1,0,2.2-0.4,3.1-0.9c1.3-0.8,2.8-0.8,4.2-1.5
	c0.7-0.3,1.3-0.9,2.1-1.1c0.3-0.1,0.4-0.8,0.8-1c0.3-0.2,0.2-0.4,0-0.6c-0.5-0.6-0.9-1.2-1.4-1.9c-0.2-0.2-0.2-0.5,0-0.7
	c0.1-0.2,0.4-0.1,0.5,0c0.3,0.8,1.1,0.6,1.7,0.9c0.5,0.2,0.6,0.1,0.7-0.4c0.1-1.8,0.1-1.8,1.7-1c0.4,0.2,0.4,0.4,0.4,0.8
	c-0.1,0.5-0.6,0.8-0.9,1.2c0.3,0.2,0.6,0.1,0.9,0.1c4.2,0,8.4,0,12.6,0c1.3,0,2.6-0.3,3.9-0.4c0.6-0.1,1.1-0.1,1.7-0.3
	c0.7-0.2,1.5-0.3,2.2-0.3c0.7,0,1.5,0,2.2,0.1c0.3,0,0.5,0,0.6-0.3c0.2-0.4,0.5-0.4,0.8-0.4c1.2,0.2,2.3-0.4,3.3-0.9
	c0.8-0.4,1.5-0.7,2.4-0.7c1,0,2.1,0.2,3.1-0.1c0.8-0.2,1.7-0.6,2.6-0.5c0.3,0,0.6,0,0.8-0.2c0.5-0.4,1.1-0.4,1.7-0.2
	c0.5,0.1,1,0.1,1.4,0.1c7,0.2,14-0.4,21,0.3c1.1,0.1,2,0.6,2.9,0.9c0.8,0.3,1.5,0.7,2.4,0.6c0.3,0,0.6-0.1,0.8,0.1
	c0.8,0.5,1.1,0.2,1.3-0.5c0-0.1,0.1-0.3,0.1-0.4c0-0.2,0.1-0.4,0.3-0.4c0.3,0,0.3,0.3,0.3,0.5c0.1,0.6,0.1,1.2-0.7,1.3
	c0.8,1.1,2.1,1.1,3.3,1.4c1,0.3,2,0.5,2.9,1.1c0.3,0.2,0.5,0.2,0.5-0.2c0-0.3,0.3-0.4,0.5-0.5c0.9-0.4,1.9-0.6,2.6-1.4
	c0.2-0.3,0.6-0.3,0.8,0c0.2,0.3,0,0.5-0.2,0.7c-0.2,0.3-0.6,0.3-0.8,0.7c-0.3,0.7-0.6,1.5-1.6,1.5c0.4,0.1,0.9,0.1,1.1,0.6
	c0.2,0.5,0.5,0.7,1,0.7c0.4,0,0.7,0.1,0.8,0.5c0.1,0.2,0.2,0.3,0.3,0.3c0.9,0.5,1.9,0.9,2.9,1.2c0.3,0.1,0.6,0.2,0.9,0.1
	c0.7-0.2,1.4-0.3,2-0.7c0.2-0.1,0.3-0.2,0.5-0.1c0.1,0,0.2,0.2,0.1,0.3c-0.6,0.3-0.6,1.1-1.1,1.5c-0.6,0.5-0.6,0.7,0,1.2
	c0.5,0.3,1.1,0.5,1.3,1.1c0.4,1,1.2,1.3,2,1.8c0.5,0.3,1.1,0.4,1.6,0.9c0.6,0.7,0.6,2,1.8,2.2c0,0,0,0.1,0,0.1
	c-0.4,0.4,0.1,0.5,0.2,0.7c0.5,0.9,1.2,1.7,1.8,2.5c0.4,0.6,0.7,1.3,1.3,1.7c0.8,0.5,1.2,1.4,1.5,2.3c0.3,1.1,0.4,2.3,1.3,3.1
	c0.1,0.1,0.1,0.2,0.1,0.3c0.5,0.8,0.6,1.7,1,2.5c0.5,1.2,1.2,1.4,2.3,1.4c0.7-0.1,1.3,0,2,0c0,0.1,0,0.2,0,0.2
	c-0.8,0.4-1.4,1-2.4,1.1c-0.3,0-0.6,0.2-0.4,0.5c0.4,0.7,0.4,1.6,1.2,2.1c0.5,0.3,1.1,0.2,1.7,0.2c0.2,0,0.4,0,0.4,0.2
	c0,0.2-0.2,0.2-0.3,0.3c-1,0.4-1.3,1.4-0.8,2.3c0.5,0.9,0.5,1.7,0,2.6c-0.3,0.6-0.2,1.3,0,1.9c0.4,1.3,0.9,2.6,1.3,3.9
	c0.1,0.4,0,0.7,0.2,1.1c0.5,1.2,0.5,2.4,0.1,3.6c-0.1,0.4-0.2,0.7-0.2,1.1c0,1.8,0,3.6,0,5.4c0,0.9,0.2,1.7,0.5,2.6
	c0.1,0.4,0,0.9,0.3,1.2c0.7,1.1,1.5,2.1,2.3,3.1c1.4,1.7,2.1,3.8,2.9,5.8c0.3,0.6,0.4,1.3,1,1.8c0.3,0.2,0.5,0.6,0.6,1.1
	c0.2,0.6,0.6,1.2,1,1.5c1,0.9,1.6,2,2.4,3.1c0.2,0.3,0,0.7,0.3,0.9c0.8,0.7,1,1.9,1.8,2.6c0.7,0.6,1.1,1.4,1.7,2.1
	c0.4,0.5,1.8,0.9,0.6,2c-0.1,0.1,0,0.2,0,0.3c0.1,0.8,0.2,1.6,0.9,2.3c0.5,0.5,0.7,1.1,0.5,1.8c0,0.1,0,0.3,0,0.4
	c0.3,1.9,0.2,3.9,1,5.7c0.5,1.1,0.5,2.4,1.1,3.5c0.4,0.8,0.5,1.9,0.6,2.9c0.1,1.2-0.5,2.3-0.4,3.5c0.1,1.2,0,1.2,1.3,1.2
	c3.7,0,7.4,0,11.1,0c0.9,0,1.1,0.1,1.1,1.1c0,2.8,0,5.5,0,8.3c0,1.1-0.1,1.2-1.2,1.2c-2.6,0-5.1,0.1-7.7-0.2c-0.4,0-0.7-0.1-0.9-0.5
	c-0.1-0.3-0.4-0.4-0.8-0.4c-0.4,0-0.9,0-1.3,0c-1.7,0-1.7,0-1.6-1.6c0-0.1,0-0.2,0-0.2c0-2.1,0-4.2,0-6.3c0-1-0.1-1.1-1.1-1.1
	c-6.3,0.1-12.5-0.1-18.8,0.1c-1.2,0.1-2.3,0.5-3.5,0.4c-0.1,0-0.2,0-0.2,0.1c-0.8,0.3-1.5,0.4-2.3,0.6c-1,0.2-1.9,0.4-2.9,0.6
	c-1.1,0.3-2.3,0.2-3.5,0.5c-1.2,0.3-2.4-0.4-3.6-0.3c-1.2,0.1-2.3,0-3.5,0c-2,0-4-0.1-6,0.4c-0.7,0.1-1.4,0.2-2,0.2
	c-1.4,0-2.6,1.3-4,0.4c0,0-0.1,0-0.1,0c-12.7,0-25.4,0-38.1,0c-0.2,0-0.5-0.1-0.7,0.1c-0.3,0.4-0.7,0.4-1.1,0.3
	c-1.5-0.2-2.9,0.5-4.4,0.4c-0.2,0-0.5,0.1-0.6,0.3c-0.3,0.3-1.8,0.5-2.1,0.2c-0.5-0.5-1.1-0.5-1.7-0.5c-2.1,0-4.1,0-6.2,0
	c-0.6,0-1.2,0-1.7,0.5c-0.1,0.1-0.2,0.1-0.4,0.1c-0.8,0-1.5,0.3-2.3,0.2c-0.3,0-0.6,0-0.8,0.3c-0.4,0.5-1.1,0.9-1.6,1.2
	c-0.6,0.3-0.9,1-1.6,1.2c-1,0.4-1.9,0.9-2.2,2.1c-0.1,0.5-0.2,1.1-0.3,1.6c-0.5,2.5-0.3,5-0.4,7.5c0,0.5,0.1,1.1,0.2,1.6
	c0.3,1.1,0.6,2.3,1.4,3.1c0.5,0.5,1.1,1,1.5,1.6c0.4,0.5,1,0.8,1.4,1.3c0.3,0.3,1,0.4,1.5,0.7c0.1,0.1,0.2,0,0.3-0.1
	c0.2-0.6,0.9-0.7,1.3-1.1c0.3-0.3,0.7-0.2,0.8,0.2c0.1,0.4-0.9,1.5-1.3,1.4c-0.2,0-0.4-0.1-0.6,0.1c-0.1,0.2,0.1,0.3,0.2,0.5
	c0.4,0.5,1.1,0.6,1.5,1.1c0.7,0.8,1.5,1.4,2.4,2c0.3,0.2,0.7,0.1,0.9,0.4c0.5,0.7,1.2,1.1,1.9,1.7c1.2,1.1,2.6,2,4.3,2.4
	c0.7,0.2,1.2,0.2,1.6-0.3c0.4-0.4,0.8-0.8,1.2-1c0.1-0.1,0.3-0.1,0.5,0c0.1,0.2,0,0.3-0.2,0.4c-0.7,0.5-0.8,1.4-1.3,2.1
	c-0.1,0.2,0,0.4,0.2,0.5c1,0.5,1.7,1.4,2.8,1.8c0.4,0.1,0.8,0,1.1,0.2c0.8,0.6,1.6,1,2.6,1.2c2.1,0.6,4.2,1.5,6.3,2.1
	c0.9,0.3,1.7,0.9,2.7,1c1.2,0.2,2.4,0.3,3.6,0.3c0.2,0,0.6,0,0.7,0.1c0.6,0.6,1.4,0.8,2.2,0.8c0.7,0,1.1,0.6,1.6,0.7
	c1.1,0.2,2.2,0.4,3.3,0.3c12.8-0.1,25.6,0.2,38.4-0.2c1.2,0,2.2-0.1,3.4-0.8c1.4-0.9,2.5-2.1,4.1-2.7c0.1,0,0.3-0.2,0.3-0.3
	c0.1-0.6,0.6-0.7,1-0.9c0.8-0.5,1-0.9,0.4-1.7c-0.2-0.3-0.6-0.7-0.4-1c0.4-0.4,0.7,0.2,1,0.4c0,0,0,0,0.1,0c0.5,0.3,1.1,0.4,1.1,1.2
	c0,0.3,0.5,0.2,0.7,0.1c1.5-0.8,2.8-1.9,4.1-2.9c0.2-0.2,0.2-0.5,0.2-0.8c0-0.7,0-1.4,0-2.1c0-0.2,0-0.4,0.2-0.5
	c0.2,0,0.4,0,0.5,0.2c0.2,0.4,0.6,0.7,1,1.1c0.2,0.2,0.3,0.4,0.1,0.6c-0.5,0.6,0,0.7,0.5,0.6c1.3,0,2.7-0.1,3.9,0.4
	c1.5,0.5,3.2,0.6,4.6,1.4c1,0.6,2.3,0.6,3.1,1.4c0.8,0.9,2,1,2.9,1.4c1.7,0.8,3.2,0.1,4.4-1.2c0.5-0.5,0.9-1.1,1.7-0.4
	c0.1,0.1,0.3,0,0.4,0c1.2,0,2.4,0,3.6,0.1c0.4,0,0.8,0.2,0.6,0.7c-0.2,0.5-0.1,1-0.1,1.5c0,0.9-0.1,1-1.1,0.9
	c-1.1-0.1-2.1-0.3-3.2-0.5c-1.2-0.2-1.4,0-1.4,1.2c0,0.5,0,1,0,1.5c0,1.6,0,3.3,0,4.9c0,0.4,0,0.8,0.5,0.7c0.4-0.1,0.8-0.4,1.1-0.7
	c0.9-0.8,1-0.8,1.5,0.3c0.1,0.1,0.2,0.2,0.2,0.3c0.2,0.7,0.9,1,1.1,1.7c0.1,0.2,0.4,0.5,0.1,0.6c-0.3,0.2-0.6,0.2-0.9-0.1
	c-0.3-0.3-0.7-0.3-1-0.3c-0.6,0-1.2,0-1.8,0c-0.6,0-0.9-0.1-0.8-0.8c0-0.2,0-0.6-0.3-0.5c-0.4,0.1-0.9,0.4-1.1,0.8
	c-0.1,0.4,0,0.8,0.4,1.1c0.3,0.2,0.3,0.4,0.4,0.7c0,0.2,0.3,0.4,0,0.6c-0.2,0.1-0.5,0-0.6-0.2c-0.4-0.4-0.9-0.7-1.3-1.2
	c-0.3-0.4-0.7-0.5-1.1-0.2c-0.2,0.1-0.3,0.3-0.5,0.3c-0.5,0.1-0.5,0.3-0.3,0.7c0.1,0.1,0.3,0.3,0,0.4c-0.2,0.1-0.3,0-0.4-0.2
	c-0.2-0.5-0.6-0.4-1-0.3c-0.4,0.2-0.8,0.3-1.1,0.5c-0.7,0.6-1.7,0.6-2,1.6c-0.1,0.2-0.4,0.2-0.6,0.2c-0.5,0.2-1,0.5-1.1,1.1
	c0,0.1,0.4,0.3,0.1,0.5c-0.2,0.1-0.4,0-0.6-0.2c-0.5-0.4-1.1-0.3-1.4,0.3c-0.3,0.6-0.6,1.2-0.9,1.8c-0.5,1-0.6,2.4-2.2,2.4
	c-0.1,0-0.1,0.1-0.2,0.1c-0.8,0.7-1,1.6-1.4,2.5c-0.2,0.4-0.2,0.8-0.8,0.6c-0.3-0.1-0.5,0.1-0.7,0.4c-0.1,0.3,0.1,0.3,0.3,0.5
	c0.5,0.5,1.1,1,1.4,1.7c0.1,0.2,0.2,0.4,0.1,0.6c-0.1,0.1-0.2,0.3-0.3,0.2c-0.7-0.6-1.6-0.4-2.4-0.6c-0.4-0.1-0.8-0.4-0.4-0.9
	c0.1-0.1,0.1-0.3,0.2-0.5c0.1-0.1,0.3-0.3,0.1-0.4c-0.1-0.1-0.3-0.1-0.5,0c-1.3,0.5-2.6,1-4.1,0.9c-0.1,0-0.3,0.1-0.4,0.1
	c-1.3,0.2-2.4,1.2-3.8,0.9c-0.4-0.1-0.5,0.3-0.5,0.6c0,0.5,0,1,0,1.5c0,0.2,0.1,0.4-0.2,0.5c-0.2,0-0.3-0.2-0.4-0.3
	c-0.2-0.3-0.1-0.8-0.4-1c-0.3-0.3-0.3-0.5,0-0.8c0.4-0.3,0.1-0.5-0.2-0.5c-1.5,0-3.1-0.2-4.5,0.7c-0.1,0.1-0.3,0.1-0.4,0.1
	c-1.7,0.2-3.4,0.4-5.2,0.4c-11.3-0.1-22.6-0.1-33.8,0c-1.2,0-2.3-0.7-3.6-0.5c0,0-0.1,0-0.1-0.1c-0.4-0.5-1-0.4-1.6-0.4
	c-0.5,0-1.1,0-1.6-0.1c-1.4-0.3-2.1,0-2.7,1.3c-0.2,0.5-0.6,1-1,0.9c-0.4-0.2-0.3-0.8-0.3-1.3c0-0.1,0-0.1,0-0.2
	c0.2-0.4,0-0.7-0.3-0.8c-0.8-0.3-1.5-0.8-2.4-0.7c-0.5,0.1-1.1,0.1-1.6,0c-1.1-0.2-2.2,0-3.3-0.6c-0.8-0.4-1.7-0.8-2.5-1
	c-2.2-0.5-4.5-0.3-6.7-0.4c-0.2,0-0.5,0.1-0.6,0c-0.6-0.7-0.9-0.2-1.1,0.3c-0.1,0.2-0.2,0.4-0.5,0.3c-0.2-0.1-0.2-0.3-0.2-0.5
	c0-0.5-0.2-0.9-0.8-0.9c-1.9,0-3.7-0.4-5.5-0.9c-1.2-0.3-2.3-0.8-3.5-0.8c-0.9,0-1.7-0.2-2.4-0.8c-0.5-0.5-1.1-0.6-1.8-0.8
	c-0.7-0.1-1.5-0.2-2-0.6c-0.5-0.5-1.1-0.6-1.8-0.6c-0.3,0-0.7,0-1-0.2c-1-0.5-2-1.1-3-1.4c-1.4-0.4-2.6-1-3.9-1.6
	c-0.5-0.2-1.2-0.2-1.5-0.5c-0.9-0.9-1.8-1.5-2.8-2.3c-0.8-0.6-1.7-1.2-2.6-1.6c-0.5-0.2-1.1-0.4-1.4-0.8c-0.7-0.8-1.5-1.6-2.4-2.2
	c-0.9-0.6-1.5-1.5-2.5-2c-1.1-0.5-2.1-1.2-3.3-1.1c-0.8,0-1.7-0.1-1.9-1.2c-0.1-0.6-0.9-0.8-1-1.3c-0.1-0.6-0.4-0.9-0.6-1.4
	c-0.2-0.4-0.5-0.8-0.6-1.3c-0.1-0.5-0.2-1.2-0.5-1.5c-0.6-0.6-0.5-1.5-1.4-1.9c-0.3-0.2-0.8-0.6-1-1.1c-0.3-0.8-1.1-1.2-1.5-1.8
	c-0.1-0.2-0.4-0.3-0.6-0.2c-0.8,0.6-1.9,0.4-2.7,1c-0.1,0.1-0.3,0.2-0.4,0c-0.2-0.2,0.1-0.3,0.2-0.5c0.1-0.1,0.3-0.2,0.4-0.3
	c0.2-0.1,0.5-0.2,0.5-0.5c-0.1-0.4-0.4-0.1-0.7-0.2c-0.3-0.1-0.8,0.2-0.8-0.3c0-0.4,0.5-0.3,0.7-0.5c0.1,0,0.2,0,0.3-0.1
	c0.5-0.3,1-0.7,1.3-1.2c0.4-0.7-0.3-1.7-1.1-1.9c-0.2-0.1-0.5,0-0.6-0.3c0-0.3,0.2-0.3,0.4-0.4c0.6-0.3,0.6-0.8,0.4-1.2
	c-0.2-0.4-0.4-0.8-0.6-1.1c-0.2-0.4-0.4-0.5-0.8-0.5c-0.8,0-1.6,0-2.4,0c-0.2,0-0.5,0.1-0.6-0.3c0-0.3,0.2-0.5,0.5-0.5
	c0.4,0,0.9,0,1.3,0c0.3,0,0.7-0.1,0.6-0.4c-0.4-0.8-0.3-1.7-0.3-2.5c0-0.3-0.5-0.5-0.5-0.9c0.1-0.8-0.5-1.2-1-1.6
	c-0.4-0.3-0.8-0.5-1.2-0.8c-0.4-0.3-0.8-0.6-0.3-1.2c0.2-0.3-0.1-0.6-0.1-0.8c-0.3-1.1-1.1-2.1-1.2-3.3c0-0.3-0.2-0.5-0.3-0.8
	c-0.4-1-1.1-1.9-1-3.1c0.1-2.1-0.3-4.1-0.7-6.1c-0.1-0.4-0.1-0.8-0.4-1c-0.4-0.3-0.4-0.7-0.4-1.1c0-2.5,0-5,0-7.5c0-2.6,0-5.2,0-7.8
	c0-0.4-0.1-0.8,0.4-1c1-0.4,1.5-1.3,2.2-2c0.3-0.3,0.3-0.8-0.1-0.8c-0.9-0.1-1.6-0.5-2.4-0.7c-0.5-0.1-0.7-0.3-0.7-0.8
	c0-0.7,0.2-1.6-0.1-2.1c-0.6-1-0.3-2-0.4-3.1c0-0.4,0.1-0.7,0.3-1c0.3-0.8,0.8-1.6,1-2.4c0.1-0.3,0.1-0.7,0.4-0.9
	c0.4-0.4-0.4-2.4-0.9-2.5c-0.2,0-0.3,0-0.5,0c-0.5,0-1.1,0-1.6,0c-0.2,0-0.5,0.1-0.6-0.2c-0.1-0.2,0.1-0.4,0.2-0.6
	c0.2-0.2,0.4-0.2,0.6,0c0.2,0.2,0.5,0.2,0.8,0.3c0.3,0.1,0.6,0.2,0.7,0c0.2-0.2,0.1-0.6,0-0.8c-0.4-0.6-0.6-1.1-0.2-1.8
	C51.5,117.2,51.4,117,51.4,116.9z M61.8,134.9c0.2,0.2,0.3,0.5,0.5,0.6c0.9,0.4,1.9,0.7,3,0.8c0.2,0,0.3-0.1,0.3-0.3
	c-0.2-1.3,0.9-2.6,0.4-4c-0.1-0.2,0.1-0.5,0.3-0.7c0.7-0.6,1-1.4,1.4-2.1c0.4-0.7,0.8-1.4,0.9-2.2c0.2-1.4,0.6-2.6,1-4
	c0.1-0.3,0.3-0.6,0.1-0.8c-0.2-0.2-0.5-0.1-0.8-0.1c-0.8,0.2-1.4,1-2.3,1c-0.1,0-0.2,0.2-0.2,0.3c0.1,0.8-0.2,1.6-0.4,2.4
	c-0.2,0.6,0.1,1.3-0.4,1.8c-0.3,0.3-0.4,0.6-0.4,1c0,0.5,0,1,0,1.5c0,0.4-0.2,0.7-0.7,0.7c-2.4,0.3-4.9,0.7-7.2,1.3
	c-0.2,0-0.4,0-0.4,0.2c-0.2,0.6-0.7,0.9-1.2,1.3c-0.2,0.1-0.3,0.4,0.1,0.4c1.1,0.1,2,0.8,3.2,0.5c0.4-0.1,0.6,0.1,0.9,0.4
	C60.4,135.7,61.3,135.6,61.8,134.9z"/>
<path class="st1" d="M83,117.9c0-0.8,0-1.5,0-2.3c0-0.2,0-0.4-0.2-0.5c-0.2-0.1-0.3,0.1-0.5,0.2c-0.8,0.8-1.6,1.5-2.5,2.1
	c-0.2,0.1-0.4,0.3-0.5,0.5c-0.6,1-1.7,1.2-2.7,1.5c-0.9,0.2-1.7,0.5-2.4,1c-0.4,0.3-0.8,0.4-1.2,0.5c-0.6,0.1-1.2,0-1.7,0.7
	c-0.3,0.4-0.9,0-0.9-0.5c0-0.5,0-1.1,0.6-1.4c0.2-0.1,0.2-0.3,0.2-0.5c0.1-0.6,0.6-1,1-1.4c1.2-0.9,2.4-1.7,3.5-2.7
	c0.4-0.4,1-0.4,1.5-0.7c0.2-0.1,0.5-0.2,0.6-0.4c0.7-1,1.9-1.3,2.8-2c1.1-0.8,2.2-1.7,3.1-2.8c0.4-0.5,0.7-0.9,1.1-1.4
	c0.1-0.2,0.3-0.4,0.5-0.2c0.2,0.1,0.2,0.3,0.2,0.5c0,0.9,0,1.8,0,2.8c0,0.2-0.1,0.4,0.1,0.5c0.2,0.1,0.3-0.1,0.5-0.2
	c1-0.5,1.7-1.5,2.7-2c0.4-0.2,0.7-0.6,0.7-1.1c0-0.1,0.1-0.3,0.1-0.4c0.9-0.9,0.9-2.2,1.4-3.3c0.3-0.7,0.9-1.1,1.2-1.7
	c0.2-0.4,0.4-0.6,0-1c-0.8-0.8-1.5-1.7-2-2.7c-0.4-0.8,0.3-1.3,0.6-1.8c0.4-0.6,0.8-1.2,1-2c0.1-0.5,0.6-0.7,0.8-1.1
	c0.4-0.8,0.9-1.4,1.7-1.9c0.9-0.6,1.7-1.5,2.5-2.3c1.2-1.3,2.6-2.2,4.4-2.2c0.4,0,0.8-0.2,1.1-0.3c1.4-0.3,2.7-0.8,4.1-0.9
	c1-0.1,1.9-0.5,2.9-0.7c1-0.2,2-0.5,2.5,0.8c0,0.1,0.2,0.2,0.3,0.2c0.2-0.1,0.2-0.2,0.2-0.3c-0.1-0.9,0.4-0.9,1.1-0.9
	c6.2,0,12.4,0,18.5,0c0.2,0,0.4,0,0.6,0c0.3,0,0.6,0,0.6-0.4c0-0.3-0.2-0.5-0.5-0.6c-0.4-0.1-0.9-0.1-1.4-0.2
	c-3.7-0.2-7.4-0.1-11.1-0.2c-2.4,0-4.7,0.2-7,0.3c-0.1,0-0.2,0-0.2,0c-0.4,0.1-0.7,0.8-1.1,0c-0.2-0.4-0.8-0.5-0.8-1
	c0,0,0-0.1-0.1-0.1c-0.3-0.2-0.1-0.9-0.7-0.8c-0.6,0.1-0.2,0.6-0.2,1c0,2.1,0.1,1.7-1.7,1.7c-0.5,0-1,0-1.5,0
	c-0.5,0-1.1,0.1-1.2-0.6c-0.1-0.2-0.3-0.2-0.6-0.2c-0.3,0-0.3,0.2-0.3,0.5c0,0.6-0.4,0.9-0.9,0.8c-0.9-0.1-1.8,0.1-2.7-0.1
	c-0.3-0.1-0.7,0.1-1,0.1c-1.1,0-2.1,0.1-2.9,1.1c-0.4,0.5-1.4,0.5-2,0.9c-0.1,0.1-0.3,0.1-0.3,0.2c-1.1,1.3-2.7,1.8-4,2.8
	c-0.9,0.6-1.6,1.4-2.5,2.1c-0.7,0.5-1.2,1.4-1.9,1.9c-0.1,0.1-0.1,0.2-0.1,0.3c0,0.3,0.2,0.5-0.2,0.7c-0.3,0.1-0.4-0.2-0.5-0.4
	c-0.3-0.3-0.7-0.3-1-0.2c-0.9,0.5-1.9,0.1-2.8,0.5c-1,0.4-2,0.2-3,0.3c-0.7,0.1-0.8,0.9-1.2,1.3c-0.6,0.6-1.2,1.4-1.8,2
	c-0.1,0.1-0.2,0.1-0.2,0.2c-0.5,1.5-2,2.2-3,3.3c-0.2,0.2-0.4,0.3-0.5,0.5c-0.4,0.7-0.9,1.1-1.6,1.5c-0.9,0.5-1.7,1.2-2.8,1.5
	c-0.8,0.2-1.5,0.9-1.9,1.7c-0.1,0.3-0.3,0.4-0.6,0.5c-0.9,0.2-1.7,0.8-2.3,1.4c-0.8,0.7-1.9,1.3-2.5,2.2c-0.2,0.3-0.5,0.5-1,0.2
	c-0.4-0.2-0.8-0.3-1,0.3c0,0.1-0.1,0.2-0.2,0.2c-0.9,0.1-1.6,0.7-2.4,1c-1.6,0.4-2.5,1.5-3.6,2.5c-0.2,0.2-0.4,0.5-0.7,0.5
	c0.3-0.9,0.9-1.6,1.7-2c0.7-0.4,1.1-1.1,1.7-1.5c0.8-0.5,1.2-1.3,1.8-1.8c0.6-0.6,1.2-0.5,1.7,0c0.5,0.4,0.8,0.2,1.3-0.1
	c1.1-0.5,1.9-1.5,3-2c0.9-0.4,1.8-1,2.7-1.4c0.2-0.1,0.2-0.2,0.3-0.4c0.3-0.5,0.6-1,1.2-1.4c1.1-0.6,1.7-1.7,2.4-2.6
	c0.7-0.9,1.3-1.9,2-2.9c0.6-0.9,1.4-1.5,2-2.4c0.3-0.5,0.7-1,0.8-1.6c0-0.3,0.1-0.4,0.4-0.6c0.4-0.3,0.7-0.6,0.8-1.2
	c0.1-0.5,0.7-0.7,1-0.9c0.5-0.4,1.1-0.8,1.6-1.2c0.5-0.4,1.1-1,1.8-1.1c0.6-0.1,0.9-0.5,0.9-1.1c0-0.9,0.4-1.6,0.8-2.2
	c0.6-1,1.2-2.3,2.5-2.7c0.3-0.1,0.6-0.3,0.6-0.7c0.1-0.6,0.7-0.7,1.1-1.1c0.4-0.5,0.9-1,1.6-1.3c0.2-0.1,0.5-0.2,0.6-0.4
	c0.6-0.5,1.1-1.1,2-1.4c0.6-0.2,1.2-0.9,1.8-1.2c0.4-0.3,0.9-0.4,1.3-0.7c1.5-1.1,3.3-1.3,5.1-1.4c0.2,0,0.3,0,0.4-0.3
	C98.3,77,98,77,97.8,77c-1.1,0-2.2-0.1-3.3,0c-1.6,0.1-3.3,0.5-4.7,1.3c-1,0.7-2.2,1.1-3.2,1.8c-1.2,0.8-2.7,1.3-4.3,1
	c-0.7-0.1-1.2,0.2-1.7,0.7c-0.5,0.5-1.2,0.8-1.9,1c-0.7,0.2-1.3,0.8-2,0.7c-0.8-0.2-1.5,0-2.1,0.4c-0.9,0.6-2.1,0.6-2.9,1.1
	c-0.9,0.5-1.8,0.4-2.6,0.9c-0.4,0.2-0.8,0.2-1.2,0.1c-0.3-0.1-0.6-0.1-0.7,0.1c-0.3,0.7-1.3,0.8-1.6,1.6C65.5,87.8,65.3,88,65,88
	c-1.1,0.2-2.1,0.8-3.2,1.2c-1.2,0.4-2.3,1.1-3.5,1.4c-0.1,0-0.2,0.2-0.3,0.2c-1.4-0.2-2.4,0.8-3.5,1.3c-0.7,0.3-1.7,0.5-2.3,1.2
	c-0.1,0.1-0.2,0.2-0.4,0.3c-1.2,0.3-2,1.3-2.9,2.1c-0.7,0.7-1.6,1.2-2.5,1.8c-0.8,0.5-1.7,0.9-2.4,1.7c-0.4,0.5-0.9,0.9-1.6,1.2
	c-0.3,0.1-0.5,0.5-0.7,0.7c-0.2,0.3-0.5,0.6-0.8,0.8c-0.3,0.1-0.5,0.3-0.5,0.6c0,0.2-0.1,0.4-0.2,0.4c-1.1,0.3-1.4,1.7-2.5,2
	c-0.2,0.1-0.2,0.3-0.2,0.5c0.1,0.9-0.4,1-1.1,1c-4.7,0-9.3,0-14,0c-1.2,0-2.3,0.1-3.4,0.8c-0.4,0.2-0.9,0.2-1.4,0.3
	c-0.6,0.1-0.8-0.4-1.1-0.7c-0.9-0.6-1.1-1.5-1.5-2.3c-0.5-0.9-0.8-1.8-1.6-2.6c-0.7-0.8-1.4-1.8-2-2.7c-0.8-1.4-1.2-2.8-1.3-4.4
	c0-0.2-0.1-0.4-0.2-0.4c-0.7-0.5-0.7-1.3-0.6-2c0-0.4-0.2-0.8-0.4-1.1c-0.9-1.4-1.3-2.9-1.2-4.5c0-0.2,0-0.4-0.1-0.5
	c-0.9-0.7-0.5-1.6-0.6-2.5c0-1.6,0-3.1,0-4.7c0-1,0.1-1.1,1.1-1.1c2,0,2,0,2-2c0-1.9,0-1.9-1.9-2.5C8,73.2,7.9,73,7.9,72.6
	c0-0.9,0.3-1.8,0.6-2.7c0.5-1.3,1-2.6,1.1-4c0.1-0.6,0.6-1.1,1-1.6c0.6-0.9,1.4-1.7,2.1-2.6c0.2-0.2,0.2-0.6,0.4-0.8
	c1-1.6,2.6-2.4,4-3.4c0.9-0.7,2-1.2,3-2c0.2-0.2,0.5-0.3,0.7-0.3c0.2,0,0.5,0,0.6-0.1c1-1.1,2.4-1.1,3.7-1.3c0.3,0,0.6-0.1,0.7-0.3
	c1.2-1.2,2.9-1.3,4.4-1.9c0.1-0.1,0.3,0,0.4-0.1c0.6-1,1.6-0.7,2.4-0.7c1.2-0.1,2.3-0.2,3.4-0.6c0.1-0.1,0.3,0,0.5,0
	c1.4-0.1,2.8-0.3,4.2-0.8c0.7-0.3,1.5-0.1,2.2-0.5c1.5-0.7,3.2-0.5,4.6-1.1c0.3-0.2,0.8-0.1,1.2-0.1c3.2-0.4,6.4-0.5,9.7-0.5
	c0.1,0,0.3,0,0.4,0c1.2-1.1,2.8-1,4.2-1.4c1.4-0.4,3-0.5,4.5-0.6c1.5-0.1,3.1,0,4.5-0.8c0.5-0.3,1.1-0.1,1.7-0.1
	c0.4,0,0.7-0.1,1-0.4c0.7-0.5,1.4-1,2.3-1.1c1.1-0.2,2.2-0.6,2.7-1.4c0.5-0.7,1-1.2,1.7-1.6c1-0.6,1.9-1.3,3.1-1.6
	c2.6-0.5,5.3-0.8,8-0.8c3.9,0,7.8,0,11.6,0c1.1,0,2-0.5,3.1-0.4c0.1,0,0.2,0,0.2-0.1c0.5-0.9,1.4-0.7,2.1-0.6c1.6,0.2,3-0.5,4.4-1
	c1.3-0.5,2.6-1,4-0.8c1.8,0.2,3.4-0.4,5.1-0.7c0.1,0,0.3-0.1,0.4-0.1c1.6,0.2,3.1-0.4,4.7-0.3c0.1,0,0.3,0,0.4,0
	c0.8-0.7,1.7-0.4,2.5-0.5c6.2,0,12.3,0,18.5,0c0.5,0,1-0.1,1.4,0.4c0.1,0.1,0.3,0.1,0.5,0.1c1.2-0.2,2.5,0.1,3.6,0.4
	c1.4,0.4,3,0.5,4.4,1.3c1,0.6,2.4,0.8,3.6,0.9c0.8,0.1,1.5,0.2,2,0.9c0.3,0.3,0.8,0.4,1.2,0.6c1.4,0.5,3,0.7,4.3,1.5
	c0.5,0.3,1.3,0.3,1.9,0.4c1.1,0.2,1.9,0.9,2.6,1.6c0.8,0.7,1.8,1,2.7,1.6c1,0.7,2.1,1.1,3.1,1.9c0.8,0.7,1.9,1.1,2.8,1.8
	c0.4,0.4,0.5,1,1.1,1.1c0.4,0.1,0.7,0.6,1.3,0.7c0.1,0,0.3,0.2,0.4,0.3c0.4,1.1,1.4,1.7,2.3,2.1c1.3,0.5,2,1.6,3,2.4
	c0.6,0.4,1.1,1.1,1.5,1.9c0.5,0.9,1.2,1.7,1.4,2.8c0.1,0.4,0.5,0.7,0.9,1c0.8,0.5,1.3,1.3,1.9,2c1,1.1,1.6,2.3,2.1,3.7
	c0.3,0.8,1,1.6,1.2,2.5c0.1,0.5,0.4,0.9,0.7,1.2c0.5,0.5,0.4,1.3,0.7,1.9c0.3,0.9,1.1,1.4,1.6,2.2c0.1,0.2,0.3,0.3,0.3,0.5
	c0,1.3,0.6,2.3,1.3,3.3c0.1,0.1,0.1,0.3,0.1,0.5c0.2,0.7,0.3,1.4,0.8,2.2c0.5,0.9,0.9,1.9,0.9,3c0,1.7,0,3.3,0,5
	c0,0.5,0.2,1,0.5,1.5c0.5,0.7,0.8,1.6,0.8,2.5c0,3.8,0,7.6,0,11.4c0,0.5-0.1,0.9,0.6,1c0.6,0.1,0.7,0.9,1,1.3c0.7,0.9,1.3,1.9,1.8,3
	c0.5,1,0.6,2.3,1.6,3c0.3,0.2,0.3,0.8,0.4,1.2c0.3,1,1,1.8,1.6,2.5c0.6,0.6,0.9,1.5,1.7,1.9c0.1,0,0.1,0.2,0.2,0.3
	c0.5,1.1,1.1,2.1,1.5,3.2c0.3,0.7,0.9,1.1,1.4,1.7c0.8,1,1.7,2,2,3.3c0.1,0.4,0.3,0.8,0.6,1c0.5,0.4,0.6,0.9,0.6,1.5
	c0,1-0.2,2,0.8,2.7c0,0,0.1,0.1,0.1,0.1c-0.2,1.1,0.5,2.1,0.5,3.2c-0.1,1,0,2.1,0.7,3c0.2,0.3,0.2,0.9,0.2,1.3
	c0.2,1.1,0.7,2.1,0.6,3.2c0,0.1,0,0.3,0.1,0.4c1.2,1.5,1,3.3,1,5.1c0,1.5,0,3,0,4.6c0,0.5,0.1,0.8,0.7,0.9c0.5,0,0.6,0.4,0.6,0.8
	c0,3,0,6.1,0,9.1c0,0.6-0.3,0.9-0.9,0.9c-0.5,0-0.7,0.2-0.8,0.7c-0.1,0.6-0.6,1.2-1.1,1.4c-0.6,0.4-1.5,0-2-0.4
	c-0.7-0.5-1.6-0.4-2.3-0.9c-0.1-0.1-0.3,0-0.4-0.1c-0.8-1-1.9-0.8-2.9-0.8c-7.2,0-14.5,0-21.7,0c-1.1,0-2.2,0-3.2,0.4
	c-1.8,0.7-3.7,0.8-5.6,1c-0.7,0.1-1.3,0.5-2.1,0.6c-0.4,0-0.9,0.2-1.3,0.2c-4.7,0-9.3,0-14,0c-0.9,0-1.8,0.2-2.5,0.7
	c-0.3,0.2-0.6,0.1-1,0.1c-14,0-27.9,0-41.9,0c-1.4,0-2.7,0.4-4,0.9c-0.6,0.2-1.2,0.4-1.9,0.4c-3,0-6,0-8.9,0c-0.4,0-0.5,0.2-0.5,0.5
	c0,1.5-0.1,2.9,1.5,3.9c0.8,0.5,1.5,1.3,2.5,1.7c0.6,0.2,1.2,0.8,1.7,1.3c1,1.1,2.5,1.6,3.3,2.9c0.1,0.1,0.3,0.1,0.4,0.2
	c0.1,0,0.3,0,0.4,0.1c1.7,1.4,4,2,5.7,3.5c0.6,0.5,1.2,1,1.8,1.5c0.1,0.1,0.1,0.1,0.3,0.1c1.5-0.1,2.9,0.3,4.2,1.1
	c0.2,0.1,0.4,0.1,0.6,0.2c0.7,0.1,1.2,0.3,1.8,0.7c0.5,0.4,1.3,0.5,1.9,0.6c1,0.1,2,0.5,3,0.4c0.7-0.1,1.2,0.6,1.9,0.6
	c0,0,0,0,0.1,0c1.6-0.1,3,1,4.6,1c10.2-0.1,20.3-0.1,30.5,0c1.3,0,2.2-0.5,3.1-1.2c0.9-0.7,1.7-1.6,2.7-2c1.3-0.6,2.6-1.3,4-1.7
	c0.8-0.2,1.6-0.4,2-1.3c0.2-0.4,0.8-0.3,1.1-0.6c0.6-0.9,1.5-1.2,2.4-1.5c0.7-0.3,1.5-0.7,2.3-0.7c0.6,0,1.2,0.1,1.6-0.5
	c0-0.1,0.2-0.1,0.4-0.1c2.7-0.3,5.3-0.1,8,0c0.1,0,0.3,0,0.3,0.1c0.3,0.7,1,0.5,1.5,0.6c1,0.1,2.1,0.3,3.1,0.5
	c1.2,0.3,2.4,0.4,3.5,1.1c0.7,0.5,1.5,0.5,2.3,0.8c1.2,0.4,2.3,1.1,3.5,1.6c0.8,0.3,1.6,0.6,2.5,0.9c1.1,0.3,2.3,0.7,3.4,1.3
	c0.5,0.3,0.7,0.6,1-0.2c0.2-0.6,0.9-0.4,1.3-0.2c0.9,0.4,1.8,0.7,2.8,0.9c0.8,0.2,1.2,1.1,1.6,1.8c0.6,1.1,1,2.4,1.9,3.3
	c0.6,0.6,0.7,1.1,0.7,1.9c0,4.4,0,8.8,0,13.3c0,0.6-0.1,1.2-0.7,1.5c-0.4,0.2-0.6,0.6-0.7,1.1c-0.1,0.5-0.7,0.8-1.1,1.1
	c-0.4,0.3-0.9,0.6-1.4,0.8c-0.9,0.4-1.3,1.3-1.9,1.9c-0.6,0.5-1.1,0.9-1.8,1.1c-0.6,0.2-1.2,0.4-1.7,0.8c-0.5,0.4-1,0.5-1.5,0.6
	c-1,0.2-1.8,0.9-2.8,0.9c-0.3,0-0.6,0.1-0.7,0.4c-0.4,0.7-1,1.1-1.7,1.5c-0.6,0.3-1.2,0.7-1.7,1.3c-0.9,1.1-1.4,2.4-2.1,3.6
	c-0.2,0.4-0.5,0.8-1,0.9c-0.1,0-0.1,0-0.1,0.1c-0.5,1.6-2.3,1.5-3.2,2.5c-1,1.2-2.5,1.5-3.8,2.2c-1,0.5-2.2,0.4-3.1,1.2
	c-0.3,0.3-1,0.2-1.4,0.2c-1.3,0-2.4,0.9-3.7,0.7c-1.1-0.1-2.3,0.1-3.2,0.5c-1.8,0.7-3.6,0.3-5.3,0.4c-0.9,0-1.8,0.2-2.6,0.5
	c-1,0.4-2.2,0.5-3.2,0.5c-13.1,0.1-26.1,0.1-39.2,0c-1.4,0-2.8-0.3-4.1-0.9c-0.3-0.1-0.6-0.2-0.9-0.2c-0.4,0-0.8,0-1.2,0
	c-1.7,0-3.4,0-5.1-0.7c-1.7-0.7-3.5-0.2-5.2-0.3c-0.7,0-1.4,0.2-2-0.5c-0.2-0.2-0.7-0.3-1.1-0.3c-1.4-0.2-2.8-0.7-4.1-1.3
	c-0.3-0.1-0.6-0.2-0.9-0.2c-1.8,0-3.5,0.1-5.3-0.1c-0.6-0.1-1.2-0.2-1.7-0.5c-0.4-0.3-0.9-0.4-1.3-0.3c-1.2,0.2-2.4,0-3.4-0.4
	c-1.8-0.6-3.8-0.5-5.5-1c-1.1-0.3-2.3-0.4-3.3-1.2c-0.6-0.5-1.4-0.7-2.2-0.9c-0.5-0.1-0.9-0.3-1.2-0.5c-1-0.7-2.2-0.5-3.3-0.7
	c-1.1-0.2-2.1-0.7-2.9-1.2c-0.7-0.5-1.4-0.6-2.1-0.9c-1.4-0.7-2.8-1.4-4.4-1.7c-0.4-0.1-0.7-0.4-1.1-0.7c-1.3-0.8-2.7-1.5-3.9-2.4
	c-1-0.8-2.1-1.5-3.1-2.2c-0.8-0.6-1.7-0.9-2.5-1.5c-0.4-0.3-0.3-0.8-0.7-0.9c-0.8-0.3-1.1-1-1.6-1.5c-0.3-0.3-0.7-0.6-1.1-0.5
	c-0.5,0.1-0.6-0.6-1.1-0.7c-1.2-0.1-2.3-0.7-3.3-1.3c-1-0.5-1.7-1.4-2.6-2.2c-0.1-0.1-0.2-0.3-0.4-0.4c-1.4-0.9-2.1-2.3-2.9-3.7
	c-0.3-0.6-0.9-1.1-1.3-1.7c-0.3-0.6-0.6-1.2-0.8-1.8c-0.2-0.8-0.6-1.4-1-2.1c-0.1-0.1-0.2-0.2-0.3-0.3c-1.4-0.2-2-1.2-2.4-2.4
	c-0.2-0.4-0.5-0.4-0.7-0.7c-0.7-1.1-1.1-2.4-1.6-3.6c-0.1-0.3-0.2-0.6-0.4-0.8c-0.3-0.2-0.4-0.6-0.4-0.9c0.1-0.9-0.5-1.6-0.4-2.5
	c0-0.2-0.2-0.4-0.3-0.5c-0.7-0.4-0.8-1.1-0.9-1.9c-0.2-1.4-0.5-2.7-1.7-3.7c-0.4-0.4-0.7-0.9-1.3-1.2c-0.3-0.2-0.6-0.6-0.6-1
	c0-0.6-0.3-1.2-0.5-1.7c-0.4-1.6-1.7-2.9-1.9-4.6c-0.1-1.2-1.1-1.9-1-3.1c0.1-1.1,0-2.2,0-3.3c0-1.1,0.1-2.2-0.7-3.3
	c-1.1-1.5-0.8-3.4-0.8-5.2c-0.1-5.3,0-10.6,0-15.9c0-1.8,0.7-3.4,1.7-4.9c0.2-0.3,0.5-0.4,0.8-0.6c0.7-0.6,1-1.6,1.6-2.3
	c0.4-0.5,0.8-1,1-1.7c0.1-0.6,1-0.7,1.5-0.9c1-0.4,1.4-1.3,2.1-2c0.1-0.1,0-0.3,0-0.4c-0.2-0.8-0.2-1.6,0.3-2.2
	c0.7-0.9,0.9-2.1,1.9-2.8c0.4-0.3,0.1-1.1,0.8-1.4c0.3-0.2,0.5-0.5,0.8-0.7c0,0.1,0.1,0.3,0,0.4c-0.4,0.7-0.2,1.2,0.2,1.8
	c0.2,0.3,0.2,0.6,0,0.8c-0.2,0.3-0.5,0.1-0.7,0c-0.3-0.1-0.5-0.1-0.8-0.3c-0.2-0.2-0.4-0.2-0.6,0c-0.1,0.2-0.3,0.4-0.2,0.6
	c0.1,0.3,0.3,0.2,0.6,0.2c0.5,0,1.1,0,1.6,0c0.2,0,0.3,0,0.5,0c0.5,0.1,1.3,2.1,0.9,2.5c-0.3,0.3-0.3,0.6-0.4,0.9
	c-0.2,0.8-0.7,1.6-1,2.4c-0.1,0.3-0.3,0.6-0.3,1c0.1,1-0.2,2,0.4,3.1c0.3,0.5,0.1,1.4,0.1,2.1c0,0.5,0.1,0.7,0.7,0.8
	c0.8,0.2,1.6,0.6,2.4,0.7c0.4,0.1,0.4,0.5,0.1,0.8c-0.7,0.7-1.2,1.6-2.2,2c-0.4,0.2-0.4,0.6-0.4,1c0,2.6,0,5.2,0,7.8
	c0,2.5,0,5,0,7.5c0,0.4,0,0.8,0.4,1.1c0.3,0.3,0.3,0.7,0.4,1c0.4,2,0.9,4,0.7,6.1c-0.1,1.1,0.6,2.1,1,3.1c0.1,0.3,0.3,0.5,0.3,0.8
	c0.1,1.2,0.9,2.2,1.2,3.3c0.1,0.3,0.3,0.6,0.1,0.8c-0.4,0.6,0,0.9,0.3,1.2c0.4,0.3,0.8,0.6,1.2,0.8c0.5,0.4,1.2,0.8,1,1.6
	c-0.1,0.4,0.4,0.6,0.5,0.9c0,0.8-0.1,1.7,0.3,2.5c0.1,0.3-0.3,0.4-0.6,0.4c-0.4,0-0.9,0-1.3,0c-0.3,0-0.5,0.1-0.5,0.5
	c0,0.4,0.3,0.3,0.6,0.3c0.8,0,1.6,0,2.4,0c0.4,0,0.7,0.1,0.8,0.5c0.2,0.4,0.4,0.8,0.6,1.1c0.3,0.4,0.3,0.9-0.4,1.2
	c-0.2,0.1-0.5,0.1-0.4,0.4c0,0.3,0.3,0.3,0.6,0.3c0.8,0.2,1.5,1.2,1.1,1.9c-0.3,0.5-0.7,0.9-1.3,1.2c-0.1,0-0.2,0-0.3,0.1
	c-0.3,0.1-0.8,0.1-0.7,0.5c0,0.5,0.5,0.2,0.8,0.3c0.2,0.1,0.6-0.2,0.7,0.2c0,0.2-0.2,0.4-0.5,0.5c-0.1,0.1-0.3,0.1-0.4,0.3
	c-0.1,0.1-0.4,0.2-0.2,0.5c0.1,0.2,0.3,0,0.4,0c0.8-0.6,1.9-0.3,2.7-1c0.2-0.1,0.5,0,0.6,0.2c0.4,0.7,1.2,1.1,1.5,1.8
	c0.2,0.5,0.7,0.9,1,1.1c0.9,0.4,0.8,1.4,1.4,1.9c0.3,0.3,0.4,1,0.5,1.5c0.1,0.5,0.3,0.9,0.6,1.3c0.3,0.4,0.6,0.8,0.6,1.4
	c0.1,0.5,0.8,0.7,1,1.3c0.2,1,1.1,1.2,1.9,1.2c1.3,0,2.3,0.6,3.3,1.1c1,0.5,1.6,1.4,2.5,2c0.9,0.6,1.7,1.3,2.4,2.2
	c0.3,0.4,0.9,0.6,1.4,0.8c0.9,0.5,1.8,1,2.6,1.6c1,0.7,1.9,1.4,2.8,2.3c0.3,0.4,1,0.3,1.5,0.5c1.3,0.6,2.5,1.2,3.9,1.6
	c1.1,0.3,2,0.9,3,1.4c0.3,0.2,0.7,0.2,1,0.2c0.7,0,1.2,0.1,1.8,0.6c0.5,0.5,1.4,0.5,2,0.6c0.7,0.1,1.3,0.3,1.8,0.8
	c0.7,0.6,1.5,0.8,2.4,0.8c1.2,0.1,2.4,0.5,3.5,0.8c1.8,0.5,3.6,1,5.5,0.9c0.6,0,0.8,0.4,0.8,0.9c0,0.2-0.1,0.4,0.2,0.5
	c0.3,0.1,0.4-0.1,0.5-0.3c0.3-0.5,0.5-1,1.1-0.3c0.1,0.1,0.4,0,0.6,0c2.2,0,4.5-0.2,6.7,0.4c0.9,0.2,1.7,0.6,2.5,1
	c1.1,0.6,2.2,0.4,3.3,0.6c0.5,0.1,1.1,0.1,1.6,0c0.9-0.1,1.6,0.4,2.4,0.7c0.3,0.1,0.5,0.4,0.3,0.8c0,0,0,0.1,0,0.2
	c0,0.5-0.1,1.2,0.3,1.3c0.4,0.2,0.8-0.4,1-0.9c0.6-1.2,1.2-1.5,2.7-1.3c0.5,0.1,1.1,0.1,1.6,0.1c0.6,0,1.2-0.1,1.6,0.4
	c0,0,0.1,0.1,0.1,0.1c1.2-0.2,2.4,0.5,3.6,0.5c11.3,0,22.6-0.1,33.8,0c1.8,0,3.5-0.2,5.2-0.4c0.1,0,0.3,0,0.4-0.1
	c1.4-0.9,3-0.6,4.5-0.7c0.4,0,0.6,0.2,0.2,0.5c-0.3,0.3-0.3,0.5,0,0.8c0.3,0.3,0.2,0.7,0.4,1c0.1,0.1,0.2,0.4,0.4,0.3
	c0.2,0,0.2-0.3,0.2-0.5c0-0.5,0-1,0-1.5c0-0.3,0.1-0.7,0.5-0.6c1.4,0.3,2.5-0.7,3.8-0.9c0.1,0,0.3-0.1,0.4-0.1
	c1.5,0.1,2.8-0.4,4.1-0.9c0.2-0.1,0.3-0.1,0.5,0c0.2,0.2,0,0.3-0.1,0.4c-0.1,0.2-0.1,0.4-0.2,0.5c-0.4,0.5-0.1,0.8,0.4,0.9
	c0.8,0.2,1.7,0,2.4,0.6c0.1,0.1,0.3,0,0.3-0.2c0.1-0.2,0-0.4-0.1-0.6c-0.4-0.7-0.9-1.2-1.4-1.7c-0.2-0.1-0.4-0.2-0.3-0.5
	c0.1-0.3,0.4-0.5,0.7-0.4c0.6,0.2,0.6-0.1,0.8-0.6c0.4-0.9,0.6-1.9,1.4-2.5c0.1-0.1,0.1-0.1,0.2-0.1c1.6,0,1.7-1.4,2.2-2.4
	c0.3-0.6,0.6-1.2,0.9-1.8c0.3-0.5,0.9-0.6,1.4-0.3c0.2,0.2,0.4,0.3,0.6,0.2c0.3-0.2-0.1-0.4-0.1-0.5c0.1-0.6,0.5-0.9,1.1-1.1
	c0.2-0.1,0.5,0,0.6-0.2c0.4-0.9,1.4-1,2-1.6c0.3-0.3,0.7-0.3,1.1-0.5c0.4-0.2,0.8-0.3,1,0.3c0.1,0.2,0.2,0.3,0.4,0.2
	c0.3-0.1,0.1-0.3,0-0.4c-0.2-0.4-0.1-0.6,0.3-0.7c0.2,0,0.3-0.2,0.5-0.3c0.4-0.3,0.8-0.2,1.1,0.2c0.3,0.5,0.9,0.8,1.3,1.2
	c0.1,0.1,0.4,0.3,0.6,0.2c0.3-0.2,0-0.4,0-0.6c0-0.3-0.1-0.5-0.4-0.7c-0.4-0.2-0.5-0.7-0.4-1.1c0.2-0.4,0.6-0.7,1.1-0.8
	c0.4-0.1,0.3,0.3,0.3,0.5c-0.1,0.6,0.3,0.8,0.8,0.8c0.6,0,1.2,0,1.8,0c0.4,0,0.7,0,1,0.3c0.2,0.3,0.6,0.3,0.9,0.1
	c0.2-0.2-0.1-0.4-0.1-0.6c-0.2-0.7-0.9-1-1.1-1.7c0-0.1-0.2-0.2-0.2-0.3c-0.5-1.1-0.6-1.1-1.5-0.3c-0.3,0.3-0.7,0.6-1.1,0.7
	c-0.5,0.1-0.5-0.3-0.5-0.7c0-1.6,0-3.3,0-4.9c0-0.5,0-1,0-1.5c0-1.2,0.2-1.4,1.4-1.2c1.1,0.2,2.1,0.3,3.2,0.5c0.9,0.1,1,0,1.1-0.9
	c0-0.5-0.1-1,0.1-1.5c0.2-0.5-0.2-0.7-0.6-0.7c-1.2,0-2.4,0-3.6-0.1c-0.1,0-0.3,0-0.4,0c-0.8-0.8-1.2-0.2-1.7,0.4
	c-1.2,1.3-2.7,2-4.4,1.2c-1-0.4-2.1-0.6-2.9-1.4c-0.8-0.8-2.1-0.8-3.1-1.4c-1.4-0.8-3.1-0.9-4.6-1.4c-1.2-0.4-2.6-0.4-3.9-0.4
	c-0.5,0-0.9,0-0.5-0.6c0.2-0.3,0.1-0.5-0.1-0.6c-0.3-0.4-0.7-0.7-1-1.1c-0.1-0.2-0.3-0.2-0.5-0.2c-0.2,0.1-0.2,0.3-0.2,0.5
	c0,0.7,0,1.4,0,2.1c0,0.3,0,0.6-0.2,0.8c-1.3,1-2.6,2.1-4.1,2.9c-0.2,0.1-0.7,0.2-0.7-0.1c0-0.8-0.7-0.9-1.1-1.2c0,0,0,0-0.1,0
	c-0.3-0.1-0.6-0.8-1-0.4c-0.2,0.2,0.2,0.7,0.4,1c0.5,0.8,0.4,1.3-0.4,1.7c-0.4,0.2-0.9,0.4-1,0.9c0,0.1-0.2,0.2-0.3,0.3
	c-1.6,0.5-2.7,1.8-4.1,2.7c-1.1,0.7-2.2,0.7-3.4,0.8c-12.8,0.4-25.6,0.1-38.4,0.2c-1.1,0-2.2-0.1-3.3-0.3c-0.6-0.1-0.9-0.7-1.6-0.7
	c-0.8,0-1.6-0.2-2.2-0.8c-0.1-0.1-0.5-0.1-0.7-0.1c-1.2,0-2.4-0.1-3.6-0.3c-1-0.2-1.8-0.7-2.7-1c-2.1-0.7-4.1-1.5-6.3-2.1
	c-1-0.3-1.8-0.6-2.6-1.2c-0.3-0.3-0.7-0.1-1.1-0.2c-1.1-0.3-1.8-1.2-2.8-1.8c-0.2-0.1-0.3-0.3-0.2-0.5c0.5-0.6,0.5-1.6,1.3-2.1
	c0.1-0.1,0.3-0.2,0.2-0.4c-0.1-0.1-0.3-0.1-0.5,0c-0.5,0.3-0.9,0.6-1.2,1c-0.5,0.5-0.9,0.5-1.6,0.3c-1.7-0.4-3.1-1.3-4.3-2.4
	c-0.6-0.6-1.4-1-1.9-1.7c-0.2-0.3-0.6-0.2-0.9-0.4c-0.8-0.6-1.6-1.2-2.4-2c-0.4-0.4-1.1-0.5-1.5-1.1c-0.1-0.2-0.3-0.3-0.2-0.5
	c0.1-0.3,0.3-0.2,0.6-0.1c0.4,0,1.4-1,1.3-1.4c-0.1-0.5-0.5-0.5-0.8-0.2c-0.4,0.5-1.1,0.5-1.3,1.1c0,0.1-0.2,0.2-0.3,0.1
	c-0.5-0.3-1.2-0.4-1.5-0.7c-0.4-0.5-1-0.7-1.4-1.3c-0.4-0.6-1-1.1-1.5-1.6c-0.9-0.8-1.2-2-1.4-3.1c-0.1-0.5-0.2-1.1-0.2-1.6
	c0-2.5-0.2-5,0.4-7.5c0.1-0.5,0.1-1,0.3-1.6c0.3-1.2,1.2-1.7,2.2-2.1c0.7-0.3,1-0.9,1.6-1.2c0.5-0.3,1.2-0.7,1.6-1.2
	c0.2-0.3,0.5-0.3,0.8-0.3c0.8,0.1,1.6-0.2,2.3-0.2c0.1,0,0.3,0,0.4-0.1c0.5-0.6,1.1-0.5,1.7-0.5c2.1,0,4.1,0,6.2,0
	c0.6,0,1.2,0,1.7,0.5c0.3,0.3,1.8,0.1,2.1-0.2c0.2-0.2,0.4-0.3,0.6-0.3c1.5,0.1,2.9-0.5,4.4-0.4c0.4,0,0.8,0.1,1.1-0.3
	c0.2-0.2,0.5-0.1,0.7-0.1c12.7,0,25.4,0,38.1,0c0,0,0.1,0,0.1,0c1.4,0.9,2.7-0.4,4-0.4c0.7,0,1.3-0.1,2-0.2c2-0.4,4-0.4,6-0.4
	c1.2,0,2.3,0,3.5,0c1.2-0.1,2.4,0.6,3.6,0.3c1.1-0.3,2.3-0.3,3.5-0.5c1-0.2,1.9-0.4,2.9-0.6c0.8-0.2,1.6-0.3,2.3-0.6
	c0.1,0,0.2-0.1,0.2-0.1c1.2,0.2,2.3-0.3,3.5-0.4c6.3-0.3,12.5-0.1,18.8-0.1c1,0,1.1,0.1,1.1,1.1c0,2.1,0,4.2,0,6.3
	c0,0.1,0,0.2,0,0.2c-0.1,1.6-0.1,1.6,1.6,1.6c0.4,0,0.9,0,1.3,0c0.4,0,0.7,0.1,0.8,0.4c0.2,0.5,0.5,0.5,0.9,0.5
	c2.6,0.3,5.1,0.2,7.7,0.2c1.1,0,1.2-0.1,1.2-1.2c0-2.8,0-5.5,0-8.3c0-0.9-0.1-1.1-1.1-1.1c-3.7,0-7.4,0-11.1,0c-1.3,0-1.2,0-1.3-1.2
	c-0.1-1.2,0.5-2.3,0.4-3.5c-0.1-1-0.2-2.2-0.6-2.9c-0.6-1.2-0.6-2.4-1.1-3.5c-0.8-1.9-0.6-3.8-1-5.7c0-0.1-0.1-0.3,0-0.4
	c0.3-0.7,0.1-1.3-0.5-1.8c-0.6-0.6-0.8-1.4-0.9-2.3c0-0.1,0-0.3,0-0.3c1.2-1.1-0.2-1.5-0.6-2c-0.6-0.7-1-1.5-1.7-2.1
	c-0.8-0.7-1-1.9-1.8-2.6c-0.3-0.2-0.1-0.6-0.3-0.9c-0.8-1.1-1.4-2.2-2.4-3.1c-0.5-0.4-0.8-1-1-1.5c-0.1-0.4-0.3-0.9-0.6-1.1
	c-0.6-0.4-0.8-1.1-1-1.8c-0.8-2-1.5-4-2.9-5.8c-0.8-1-1.6-2-2.3-3.1c-0.2-0.4-0.2-0.8-0.3-1.2c-0.3-0.8-0.4-1.7-0.5-2.6
	c-0.1-1.8,0-3.6,0-5.4c0-0.4,0.1-0.7,0.2-1.1c0.4-1.2,0.4-2.4-0.1-3.6c-0.2-0.4-0.1-0.8-0.2-1.1c-0.4-1.3-0.9-2.6-1.3-3.9
	c-0.2-0.6-0.3-1.3,0-1.9c0.5-0.9,0.5-1.7,0-2.6c-0.6-0.9-0.2-1.9,0.8-2.3c0.2-0.1,0.3-0.1,0.3-0.3c0-0.2-0.3-0.2-0.4-0.2
	c-0.6,0-1.1,0-1.7-0.2c-0.9-0.4-0.8-1.4-1.2-2.1c-0.1-0.2,0.1-0.5,0.4-0.5c1,0,1.6-0.7,2.4-1.1c0-0.1,0-0.2,0-0.2c-0.7,0-1.3,0-2,0
	c-1.1,0.1-1.8-0.2-2.3-1.4c-0.4-0.8-0.5-1.7-1-2.5c-0.1-0.1-0.1-0.2-0.1-0.3c-0.9-0.8-1-2-1.3-3.1c-0.2-0.9-0.7-1.8-1.5-2.3
	c-0.6-0.4-0.9-1.1-1.3-1.7c-0.6-0.8-1.3-1.6-1.8-2.5c-0.1-0.2-0.6-0.3-0.2-0.7c0,0,0-0.1,0-0.1c-1.2-0.2-1.2-1.5-1.8-2.2
	c-0.4-0.5-1.1-0.6-1.6-0.9c-0.8-0.5-1.7-0.7-2-1.8c-0.2-0.5-0.8-0.7-1.3-1.1c-0.6-0.5-0.6-0.7,0-1.2c0.5-0.4,0.5-1.2,1.1-1.5
	c0.1,0,0-0.2-0.1-0.3c-0.2-0.1-0.4,0-0.5,0.1c-0.6,0.4-1.4,0.5-2,0.7c-0.3,0.1-0.7,0-0.9-0.1c-1-0.4-2-0.7-2.9-1.2
	c-0.1-0.1-0.3-0.2-0.3-0.3c-0.1-0.4-0.4-0.5-0.8-0.5c-0.5,0-0.8-0.1-1-0.7c-0.1-0.5-0.6-0.5-1.1-0.6c1.1,0,1.3-0.8,1.6-1.5
	c0.2-0.3,0.5-0.4,0.8-0.7c0.2-0.2,0.4-0.4,0.2-0.7c-0.2-0.3-0.6-0.2-0.8,0c-0.7,0.8-1.7,1-2.6,1.4c-0.3,0.1-0.5,0.2-0.5,0.5
	c0,0.4-0.3,0.4-0.5,0.2c-0.9-0.6-1.9-0.8-2.9-1.1c-1.2-0.3-2.5-0.3-3.3-1.4c0.7-0.1,0.7-0.7,0.7-1.3c0-0.2,0-0.5-0.3-0.5
	c-0.2,0-0.3,0.2-0.3,0.4c0,0.1-0.1,0.3-0.1,0.4c-0.2,0.8-0.6,1-1.3,0.5c-0.2-0.1-0.5-0.1-0.8-0.1c-0.9,0.1-1.6-0.3-2.4-0.6
	c-1-0.3-1.8-0.8-2.9-0.9c-7-0.6-14-0.1-21-0.3c-0.5,0-1,0-1.4-0.1c-0.6-0.1-1.2-0.2-1.7,0.2c-0.2,0.2-0.5,0.2-0.8,0.2
	c-0.9-0.1-1.7,0.3-2.6,0.5c-1,0.3-2,0.1-3.1,0.1c-0.9,0-1.6,0.3-2.4,0.7c-1,0.6-2,1.1-3.3,0.9c-0.3,0-0.6,0-0.8,0.4
	c-0.1,0.3-0.4,0.3-0.6,0.3c-0.7,0-1.5-0.1-2.2-0.1c-0.7,0-1.5,0.1-2.2,0.3c-0.6,0.2-1.2,0.3-1.7,0.3c-1.3,0.2-2.6,0.5-3.9,0.4
	c-4.2-0.1-8.4,0-12.6,0c-0.3,0-0.6,0.1-0.9-0.1c0.3-0.4,0.7-0.7,0.9-1.2c0.1-0.4,0-0.6-0.4-0.8c-1.6-0.7-1.6-0.8-1.7,1
	c0,0.5-0.2,0.6-0.7,0.4c-0.6-0.3-1.3-0.1-1.7-0.9c-0.1-0.2-0.4-0.2-0.5,0c-0.2,0.2-0.2,0.5,0,0.7c0.5,0.6,0.9,1.3,1.4,1.9
	c0.2,0.3,0.3,0.4,0,0.6c-0.4,0.3-0.6,1-0.8,1c-0.8,0.2-1.4,0.7-2.1,1.1c-1.3,0.7-2.9,0.6-4.2,1.5c-0.9,0.6-2,0.9-3.1,0.9
	c-0.7,0-1.3,0.3-1.8,0.6c-1.1,0.7-2.3,0.5-3.5,0.6c-1.4,0.1-2.7,0-4.1,0c-0.2,0-0.4,0.1-0.6,0.2c-0.6,0.4-1.4,0.7-2.1,0.7
	c-0.7,0-1.3,0.5-2,0.7c-0.7,0.2-1.3,0.3-2,0.3c-2.2,0.2-4.3,0.6-6.5,0.3c-1.4-0.1-2.7,0.4-4,0.6c-1.3,0.1-2.6,0.7-3.9,0.8
	c-0.3,0-0.5,0.1-0.8,0.3c-0.6,0.3-1.2,0.6-1.9,0.6c-0.6,0-1.1,0.1-1.7,0.6c-0.5,0.4-1.3,0.3-1.9,0.3c-1.4,0.1-2.8,0.3-4.3,0.2
	c-0.7,0-1.2,0.4-1.8,0.7c-1.2,0.6-2.5,1.3-3.7,1.8c-0.9,0.4-1.9,1.1-3,1c-0.1,0-0.3,0.1-0.3,0.2c-0.4,0.8-1.3,0.6-1.9,1.1
	c-0.3,0.2-0.5,0.1-0.5-0.3c0-0.8-0.5-1.1-1.2-1c-0.7,0.1-1.3-0.2-1.8-0.6c-0.1-0.1-0.3-0.3-0.5-0.1c-0.2,0.2,0.1,0.3,0.2,0.4
	c0.5,0.9,1.3,1.6,1.9,2.4c0.4,0.5,0.2,0.9-0.4,0.9c-0.9,0-1.7,0.3-2.6,0.2c-1.6-0.1-3.2,0.3-4.7,0.8c-0.2,0.1-0.4,0-0.4,0.2
	c-0.2,1-1.4,1.4-1.6,2.4c0,0,0,0.1,0,0.1c-0.9,0.4-1,1.4-1.5,2c-0.3,0.4-0.6,0.6-0.9,0c-0.2-0.5-0.7-0.8-1-1.2
	c-0.4-0.6-1,0.1-1.4,0.3c-0.4,0.2-0.1,0.9,0.1,1.1c0.6,0.4,0.8,1.2,1.8,1.1c-0.7,0.4-0.7,0.9-0.6,1.5c0,0.2,0,0.4,0.2,0.5
	c0.6,0.1,0.6,0.7,0.8,1c0.3,0.5,0,0.9-0.5,0.7c-0.6-0.1-0.5,0.2-0.5,0.5c0.1,0.4,0.1,0.9,0.3,1.1c0.6,0.5,0.5,1.2,0.5,1.8
	c0,1.8,0,3.7,0,5.5c0,1.5,0.3,3,0.6,4.5c0,0.1,0.1,0.3,0,0.4c-0.3,1.2,0.5,1.9,1.2,2.6c0.9,0.8,1.5,1.8,1.7,3
	c0.2,0.8,0.6,1.6,1.2,2.1c0.4,0.4,0.4,0.8,0.4,1.3c0,0.6,0.2,0.8,0.8,0.8c1.1,0,2.1,0.2,3.2,0.3c0.1,0,0.3,0,0.3,0.1
	c0.4,0.9,1.3,0.6,2,0.7c0.7,0.1,0.9,0.4,0.9,1c0,0.5,0,0.9,0,1.4c0,0.2-0.1,0.6,0.2,0.7c0.4,0.1,0.8,0.2,1.1-0.2
	c0.3-0.4,0.6-0.4,1.1-0.5c1.3-0.2,2.6-0.7,4-0.8c0.2,0,0.3-0.2,0.3-0.4c0-1.2,0.2-2.5-0.1-3.7c-0.2-0.9-0.4-1.8-0.8-2.6
	c-0.1-0.2-0.2-0.3-0.2-0.5c-0.1-0.2,0-0.4-0.2-0.5c-0.3-0.1-0.4,0.1-0.5,0.3c-0.2,0.3-0.5,0.6-0.9,0.5c-0.1,0-0.2,0-0.2,0.1
	c-0.4,0.1-0.4,1.1-1.1,0.5c-0.4-0.3-0.7-0.6-0.9-1c-0.2-0.7-0.8-0.8-1.3-1.1c-0.4-0.3-0.6-0.6-0.6-1.1c0-0.9,0.1-1.9-0.3-2.8
	c-0.3-0.6-0.7-1.2-0.7-1.9c-0.1-0.6,0-0.9,0.6-1c0.3,0,0.6-0.1,0.7-0.4c0.1-0.4-0.3-0.5-0.6-0.6c-0.3-0.2-0.6-0.3-0.9-0.3
	c-0.9,0.1-1-0.6-1.2-1.2c-0.2-0.9-0.2-1.8-0.2-2.7c0-1.7,0-3.4,0-5c0-0.6,0.2-0.9,0.8-0.9c0.7,0,1.4-0.2,2.2-0.2
	c0.5,0,0.7-0.3,0.4-0.7c-0.8-1.1-0.7-2.4-1.2-3.5c-0.3-0.7-0.7-1.3-0.9-2c-0.2-0.6-0.2-1.3-0.2-1.9c0-0.5,0.1-0.9,0.7-0.9
	c0.2,0,0.4-0.1,0.4-0.3c0.3-0.8,0.9-1,1.7-1c5.8,0,11.5,0,17.3,0c1.1,0,1.3,0.3,1.3,1.3c0,1,0.2,1.8,1.4,2.2
	c0.5,0.1,0.8,0.6,1.2,0.9c1,1,2.1,1.9,3.3,2.6c0.5,0.3,0.5,1.1,0,1.4c-0.9,0.5-2,0.8-2.7,1.6c-0.1,0.1-0.3,0.2-0.4,0.2
	c-1-0.1-1.9,0.2-2.8,0.2c-5.8,0-11.7,0-17.5,0c-0.7,0-1,0.2-1,0.9c0,3,0.1,6,0,9c-0.1,1.2,0.1,2,1.1,2.6c0.5,0.3,0.6,1,0.9,1.5
	c0.4,0.7,0.4,1.6,1,2.3c0.2,0.2,0.4,0.4,0.4,0.7c-0.1,0.8,0.6,1,1.1,1.1c0.5,0.1,0.9-0.3,1.1-0.7c0.6-1.1,1.5-2,2.4-2.9
	c1.1-1,2.2-1.9,3.4-2.6c0.9-0.5,1.9-1.1,3-0.7c0.2,0.1,0.3,0.1,0.4-0.1c0.1-0.2-0.1-0.3-0.2-0.4c-0.3-0.4-0.3-0.8,0-1.2
	c0.2-0.2,0.5-0.4,0.6,0.2c0.1,0.7,2.2,1.7,2.9,1.5c0.2-0.1,0.3-0.1,0.2-0.3c-0.4-0.6-0.7-1.2-1.1-1.8c-0.2-0.3-0.4-0.2-0.7-0.1
	c-0.2,0-0.4,0.2-0.5,0c-0.1-0.2,0.1-0.4,0.2-0.5c0.1-0.1,0.2-0.3,0.3-0.3c0.8-0.4,1.4-0.9,2-1.4c0.5-0.3,1.1-0.6,1.7-0.9
	c0.6-0.2,1.2-0.3,1.6-0.9c0-0.1,0.2-0.2,0.3-0.2c1.2-0.1,2.1-0.9,3-1.5c0.4-0.2,0.8-0.1,1.2-0.1c0.5,0,1-0.1,1.3-0.5
	c0.3-0.4,0.7-0.3,1-0.4c1-0.2,1.8-0.6,2.7-1.1c0.3-0.1,0.5-0.2,0.9-0.1c-0.1,0.5-0.7,0.5-0.8,0.9c1.4,0.6,2.7,1.2,4.2,1.4
	c0.2,0,0.5,0,0.4-0.3c-0.1-0.4-0.1-0.9-0.5-1.3c-0.6-0.5-0.8-1.2-0.9-1.8c-0.1-0.9,0.8-1.1,1.3-1.4c1.5-0.9,3.3-1,5-1.2
	c0.2,0,0.4,0,0.5-0.2c0.4-1.1,1.3-0.9,2.1-1c0.3,0,0.6,0,0.8-0.4c0.1-0.3,0.4-0.2,0.7-0.3c0.7-0.1,1.5-0.1,2.1-0.6
	c0.3-0.2,0.5-0.2,0.8,0c0.4,0.3,0.8,0.6,1.2,0.9c0.1,0.1,0.2,0.3,0.5,0.2c0.2-0.1,0.2-0.3,0.1-0.5c0-0.1-0.1-0.3-0.1-0.4
	c0-0.3-0.7-0.4-0.4-0.8c0.3-0.4,0.7-0.6,1.1-0.9c1.2-0.7,2.5-0.7,3.7-0.7c0.4,0,0.7-0.1,1-0.5c0.3-0.6,1.1-0.5,1.7-0.8
	c0.2-0.1,0.5-0.2,0.7-0.3c0.5-0.3,0.9-0.3,1.5,0.1c0.8,0.5,1.3,1.4,2.3,1.6c0.4,0,0.5,0,0.5-0.4c0-0.2,0-0.4,0-0.6
	c0.1-0.8-0.1-1.3-1.1-1.1c-0.2,0-0.5,0.1-0.5-0.2c0-0.3,0.2-0.5,0.4-0.5c1.7-0.5,3.3-1.2,5.2-1.5c1.8-0.2,3.6-0.3,5.4-0.3
	c2.2,0,4.5,0,6.7,0.1c0.7,0,1.4-0.3,2.2,0c0.4,0.1,0.6,0.2,0.6,0.6c0,2.7,0,5.4,0,8c0,0.4-0.2,0.5-0.6,0.7c-1.1,0.4-2.2,0.3-3.3,0.7
	c-0.3,0.1-0.6,0.1-0.9,0.1c-0.6,0-1,0.3-1.5,0.6c-1.1,0.5-0.8,0.7,0,1.2c0.1,0,0.1,0.1,0.1,0.2c0.1,0.2-0.1,0.6,0.3,0.6
	c0.4,0,0.2-0.4,0.2-0.7c0-0.2,0-0.3,0-0.5c-0.1-0.7,0.2-1,0.9-0.9c0.7,0.1,1.4,0,2,0c0.8,0,1.6-0.1,2.1,0.7c0.1,0.3,0.7,0.8,0.7-0.2
	c0-0.4,0.3-0.5,0.7-0.5c1.4-0.1,2.8-0.3,4.1-1c0.3-0.2,0.6-0.1,0.9-0.1c3.3,0,6.5,0,9.8,0c0.4,0,0.7,0.1,1,0.4
	c0.5,0.5,1.3,0.3,1.9,0.4c1.4,0.2,2.6,0.7,3.5,1.6c0.4,0.4,0.7,0.6,1.3,0.7c0.7,0.1,1,0.9,1.6,1.4c0.3,0.3,0.6,0.5,1,0.7
	c0.8,0.4,1.5,1,2.1,1.7c0.3,0.3,0.4,0.8,0.7,1.2c0.2,0.2,0.4,0.4,0.7,0.4c0.1,0,0.4,0.1,0.4,0.2c0.4,1,1.5,0.9,2.1,1.6
	c0.2,0.2,0.4,0.1,0.7,0c0.6-0.3,1.3-0.4,0.2-1c-0.3-0.2-0.2-0.5-0.2-0.8c0-2.8,0-5.6,0-8.4c0-1.3,0-1.3-1.3-1.3
	c-6.4,0-12.8,0-19.2,0c-0.9,0-1.4-0.2-1.5-1.1c0-0.3-0.3-0.6-0.5-0.8c-0.3-0.3-0.5-0.7-0.6-1.2c0-0.1,0-0.3-0.1-0.4
	c-1.2-1-1.6-2.5-2.6-3.5c-0.4-0.5-0.6-1.2-0.8-1.9c-0.1-0.3,0.1-0.5,0.5-0.5c0.7,0,1.5,0,2.2,0c1.5,0,3,0,4.6,0
	c2.2-0.1,4.4,0.4,6.7,0.5c1.2,0.1,1.8,1.1,1.5,2.7c0,0.1-0.1,0.3-0.1,0.4c0,0.3-0.1,0.6,0.2,0.7c0.4,0.1,0.4-0.3,0.5-0.5
	c0.2-0.5,0.5-1,0.9-1.3c0.3-0.3,0.4-0.5,0-0.7c-0.1-0.1-0.2-0.3-0.1-0.4c0.2-0.2,0.3,0,0.4,0.1c0.6,0.2,1.2,0.1,1.8,0.4
	c1.2,0.7,2.7,0.8,3.8,1.9c0.4,0.4,1,0.5,1.5,0.8c0.3,0.1,0.6,0.2,0.6,0.6c0,0.3-0.2,0.5-0.5,0.5c0,0-0.1,0-0.1,0
	c-0.4,0.3-0.5,0.7-0.5,1.2c0,0.1,0.1,0.3,0.1,0.3c0.4-0.1,0.8-0.2,1.1-0.5c1.1-1.1,1.4-1,2.6,0c0.6,0.5,0.9,1.3,1.6,1.8
	c0.3,0.2,0.5,0.6-0.1,1.1c-0.5,0.4-0.8,1-1.1,1.5c-0.2,0.4,0.1,0.5,0.4,0.4c0.6-0.1,1.2-0.3,1.8-0.5c0.4-0.1,0.5-0.5,0.2-0.8
	c-0.1-0.1-0.2-0.3,0-0.4c0.2-0.1,0.3,0.1,0.4,0.2c1,0.8,2,1.7,3,2.5c0.9,0.7,1.9,1.4,2.5,2.4c0.2,0.4,0.9,0.4,0.8,0.9
	c-0.1,0.3-0.7,0.4-1,0.7c-0.4,0.3-1,0.8-0.7,1.2c0.3,0.4,1,0.1,1.4-0.2c0.4-0.3,0.9-0.2,1.2-0.7c0.2-0.3,0.6-0.1,0.8,0.2
	c0.6,0.8,1.6,1.2,1.7,2.2c0,0.1,0.1,0.2,0.2,0.3c0.7,0.7,0.7,0.7-0.1,1.3c-0.5,0.3-1,0.6-1.3,1c-0.1,0.1-0.2,0.2-0.2,0.3
	c0,0.2,0.3,0.1,0.4,0.1c0.3,0,0.5,0,0.7-0.2c0.5-0.7,1.3-0.5,1.9-0.9c0.3-0.2,0.7-0.1,0.8,0.3c0.1,0.6,0.5,0.9,0.8,1.3
	c0.7,1.1,1.5,2.1,1.8,3.4c0.2,0.9,0.2,1.6-0.8,1.9c-0.4,0.1-0.6,0.3-0.4,0.8c0.1,0.2,0.1,0.3,0,0.4c-0.2,0.1-0.3,0-0.4-0.1
	c-1-0.8-2.1-1.5-3.1-2.4c-0.3-0.3-0.7-0.6-1.1-0.6c-1.1-0.2-2-0.6-3-0.9c-0.3-0.1-0.8-0.1-0.9-0.6c-0.1-0.2-0.4-0.2-0.6-0.2
	c-0.7,0.1-1.4-0.2-2.2-0.2c-0.3,0-0.6-0.1-0.7-0.3c-0.3-0.5-0.7-0.7-1.2-0.7c-1.3-0.1-2.3-0.8-3.5-1c-0.2,0-0.5-0.2-0.7,0.1
	c-0.2,0.3,0.2,0.4,0.4,0.6c0.4,0.4,0.8,0.8,1.1,1.2c0.1,0.1,0.2,0.4,0.4,0.4c0.6,0,0.7,0.3,0.8,0.8c0.1,0.7,0.8,1.1,1.4,1.5
	c0.6,0.4,0.9,1,1.2,1.7c0.2,0.6,0.4,1.1,0.9,1.4c0.5,0.4,0.3,1,0.4,1.5c0.1,0.4,0.2,0.7,0.5,1c1.1,0.9,1,1.6-0.4,2.2
	c-0.2,0.1-0.4,0.2-0.6,0.2c-0.5,0-0.6,0.3-0.6,0.7c-0.3,0.1-0.6,0-0.8-0.1c-1.5-0.9-3.3-0.8-4.8-1.8c-0.4-0.3-1,0-1.4-0.4
	c-0.5-0.5-1-0.6-1.6-0.6c-0.9,0-1.8-0.2-2.5-0.6c-1.2-0.6-2.5-0.8-3.6-1.4c-0.2-0.1-0.5-0.2-0.8-0.2c-3.8,0-7.5,0-11.3,0
	c-0.3,0-0.6,0.1-0.9,0.2c-1.1,0.2-2.1,0.7-3.2,0.7c-3.2,0-6.4,0-9.7,0c-0.2,0-0.5,0-0.6,0.2c-0.4,1-1.4,1.1-2.2,1.4
	c0-0.1,0.1-0.2,0.2-0.3c0.2-0.2,0.7-0.1,0.6-0.4c-0.1-0.3-0.3-0.7-0.7-0.8c-0.2,0-0.4-0.4-0.6-0.2c-0.3,0.4,0.5,0.7,0.1,0.9
	c-0.4,0.3-0.5-0.4-0.8-0.4c-0.4,0-0.8-0.3-1.3-0.3c-0.2,0-0.5,0-0.7-0.2c-0.1-0.1-0.3-0.2-0.4-0.1c-0.1,0.2,0.1,0.3,0.1,0.4
	c0.1,0.1,0.3,0.3,0.4,0.4c0.3,0.4,0.3,0.7-0.4,0.7c-0.4,0-0.9,0-1.3,0c-0.5,0-0.6,0.4-0.3,0.6c0.6,0.4,0.9,1.1,1.3,1.6
	c0.6,0.9,1.2,0.8,1.7-0.2c0.4-0.8,0.9-1.6,2-1.7c0,0.2-0.2,0.3-0.3,0.4c-0.8,0.6-1.2,1.2-1.2,2.3c0.1,4.4,0,8.7,0,13.1
	c0,1.9,0,1.9-1.9,2c-0.5,0-0.7,0.2-0.7,0.7c0,0.7,0,1.4,0,2c0,0.4,0.2,0.7,0.7,0.7c2.6-0.3,5.1,0.2,7.7,0.1c0.2,0,0.3,0,0.5,0.1
	c1.2,0.6,2.5,0.7,3.8,0.7c9.4,0,18.8,0,28.2,0c0.8,0,1.5,0.5,2.2,0.2c1.6-0.5,3.4-0.7,4.7-2c0.1-0.1,0.2-0.2,0.4-0.2
	c0.7,0,0.8-0.5,0.8-1c0-3.2,0-6.4,0-9.7c0-0.4,0-0.7,0.2-1c0.4-0.5,0.3-1.1,0-1.6c-0.3-0.7-0.7-1.4-0.6-2.3c0-0.5,0-1.1-0.6-1.4
	c-0.2-0.1-0.3-0.4-0.3-0.6c0.6-0.1,1,0.4,1.5,0.5c0.6,0.1,0.8-0.2,1.1-0.6c0.7-1.1,1-2.4,2.5-2.8c0.7-0.2,1.4-0.4,2-1
	c0.4-0.4,1-0.1,1.5-0.4c0.8-0.5,1.6-0.8,2.4-1.3c0.4-0.2,0.6-0.1,0.9,0.3c0.8,1,1.2,2.3,1.6,3.4c0.3,0.7,0.5,1.5,0.8,2.2
	c0.9,2,0.6,4.2,0.6,6.3c0,3.5,0,7,0,10.6c0,1-0.1,1.8-0.9,2.4c-0.3,0.3-0.6,0.4-1,0.4c-1.4,0-2.7,0-4.1,0c-0.3,0-0.7-0.2-0.7,0.3
	c-0.1,0.4,0.3,0.4,0.5,0.6c1,0.5,1.7,1.4,2.6,2.1c0.2,0.2,0.2,0.5,0,0.7c-0.7,1-1.2,2.2-2.6,2.5c-0.7,0.2-1.2,0.9-1.9,1.1
	c-1.7,0.6-3.3,1.3-5,2c-0.9,0.4-1.8,0.4-2.8,0.5c-0.2,0-0.5,0-0.5,0.1c-0.5,0.9-1.3,0.6-2,0.6c-10.8,0-21.5,0-32.3,0
	c-0.5,0-1-0.1-1.5-0.4c-0.6-0.4-1.4-0.3-2.2-0.4c-5.8-0.7-11.7-0.1-17.5-0.4c-1.6-0.1-3.3-0.5-4.8-1c-0.4-0.1-0.4-0.4-0.4-0.8
	c0-0.3-0.1-0.5-0.5-0.3c-0.6,0.4-1.2,0.2-1.7-0.3c-0.5-0.5-1-0.9-1.8-0.8c0,0-0.1,0-0.1,0c-0.6-0.6-1.5-0.9-2.1-1.5
	c-0.4-0.4,0.2-0.5,0.5-0.6c1.2-0.5,2.5-0.9,3.7-1.4c0.5-0.2,0.9-0.6,1.5-0.7c0.3,0,0.3-0.4,0.3-0.6c0-0.9,0-1.8,0-2.7
	C82.1,118.2,82.3,117.9,83,117.9c0,1.1,0,2.2,0,3.2c0,0.6,0.2,0.8,0.8,0.8c3.6,0,7.2,0,10.7,0c2.5,0,2.1,0.5,2.1-2.3
	c0-0.1,0-0.3-0.1-0.4c-0.1-0.2-0.2-0.4-0.5-0.3c-2.5,0.2-4.9,0-7.4,0.1c-0.3,0-0.6,0-0.9-0.1C86.2,118.3,84.7,117.8,83,117.9z
	 M52.5,170.6c0.3,0,0.6,0,0.9-0.1c0.4-0.2,0.7-0.5,1.2-0.6c0.3,0,0.7,0,0.8-0.4c0.1-0.3,0.1-0.6-0.3-0.9c-0.3-0.2-0.7-0.5-1.1-0.3
	C53.3,168.9,52.9,169.8,52.5,170.6c-0.2,0-0.4,0.1-0.4,0.3c0,0.1,0,0.2,0.1,0.1C52.5,171,52.5,170.8,52.5,170.6z M90.9,115.6
	c1.6,0,3.2,0,4.8,0c0.5,0,1-0.1,0.9-0.6c0-0.7,0-1.3-0.1-2c0-0.5-0.3-0.8-0.7-0.8c-3.2,0-6.4,0-9.6,0c-0.5,0-0.9,0.3-0.9,0.9
	c0,0.5,0,1,0,1.5c0,0.7,0.3,1,1,1C87.9,115.6,89.4,115.6,90.9,115.6z M49.4,177.6c-0.4,0-0.8,0-1.1,0c-0.2,0-0.5,0.1-0.6-0.2
	c-0.1-0.2,0-0.5,0.2-0.6c0.8-0.5,0.9-1.5,1.6-2.1c0.1-0.1,0.2-0.3,0.1-0.5c0-0.2-0.2-0.2-0.3-0.1c-0.8,0.1-1.5,0.1-2.3,0.3
	c-0.4,0.1-0.7,0.3-0.7,0.7c0.1,0.5,0.1,1.1,0.6,1.5c0.2,0.1,0.4,0.2,0.4,0.5c-0.1,0.8,0.7,1.5,0.5,2.3c0,0.3,0.1,0.5,0.4,0.6
	c0.3,0.1,0.4-0.1,0.5-0.3c0.3-0.3,0.6-0.6,1-0.9c0.4-0.3,0.7-0.7,1.1-1C50.4,177.4,49.8,177.7,49.4,177.6z M108,166.2
	C108,166.2,108,166.2,108,166.2c0.5,0,1,0,1.5,0c1-0.1,0.6-0.9,0.6-1.4c0.1-0.5-0.2-0.7-0.7-0.7c-0.7,0-1.5,0-2.2,0
	c-0.5,0-0.9,0.1-1.1-0.6c-0.1-0.3-0.5-0.3-0.8-0.2c-0.3,0.1-0.2,0.3-0.2,0.5c-0.1,0.7,0.5,1.1,0.7,1.7c0.1,0.5,0.4,0.7,0.9,0.7
	C107.2,166.2,107.6,166.2,108,166.2z M147.8,118.4c0.4,0,0.8,0,1.2,0c0.2,0,0.4,0,0.5-0.2c0-0.2-0.1-0.3-0.3-0.4
	c-0.4-0.2-0.9-0.2-1.1-0.7c-0.3-0.5-0.7-0.6-1.1-0.8c-0.6-0.2-0.9-0.1-0.9,0.6c0,0.6-0.1,1.2-0.8,1.6c-0.2,0.1-0.2,0.2-0.2,0.4
	c0,0.4-0.1,0.7-0.4,0.9c-0.2,0.1-0.3,0.3-0.2,0.5c0.1,0.3,0.3,0.3,0.5,0.3c0.8,0,1.6,0,2.4,0c0.2,0,0.3,0,0.4-0.2
	c0-0.2-0.1-0.3-0.2-0.4c-0.2-0.2-0.5-0.3-0.7-0.5c-0.3-0.3-0.8-0.5-0.7-0.8c0.1-0.4,0.7-0.1,1-0.2
	C147.4,118.4,147.6,118.4,147.8,118.4z M214.2,215.2c-0.6,0-1.2,0-1.8,0c-0.3,0-0.5,0-0.6,0.3c-0.2,0.5,1.1,2.3,1.7,2.3
	c0.1,0,0.2,0,0.2,0c0.8-0.5,1.8-0.7,2.5-1.5c0.2-0.2,0.5-0.4,0.3-0.7c-0.1-0.3-0.4-0.4-0.7-0.4C215.3,215.2,214.7,215.2,214.2,215.2
	z M84.4,92c0.2-0.2,0.8,0,1-0.4c0.2-0.4-0.2-0.6-0.4-0.8c-0.3-0.4-0.4-0.8-0.5-1.2c-0.1-0.3-0.2-0.6-0.6-0.5c-0.4,0-0.8,0-0.9,0.5
	c-0.1,0.4-0.4,0.6-0.7,0.8c-0.4,0.3-0.8,0.2-1.1,0.4c-0.3,0.1-0.5,0.3-0.5,0.7c0,0.4,0.3,0.3,0.6,0.4C82.3,92,83.3,91.8,84.4,92z
	 M69.2,85.4c0.3,0,0.6-0.1,0.8-0.3c0.3-0.1,0.3-0.3,0.1-0.6c-0.4-0.5-0.6-1-0.9-1.5c-0.1-0.2-0.2-0.3-0.4-0.3
	c-0.3,0-0.3,0.3-0.3,0.5c0,0.6-0.3,0.6-0.8,0.5c-0.4-0.2-0.9-0.3-1.3-0.4c-0.3-0.1-0.5,0-0.4,0.4c0.2,0.6,1,0.9,1.2,1.6
	c0,0,0.3,0.1,0.4,0.1c0.5-0.4,1-0.3,1.5,0C69,85.4,69.1,85.4,69.2,85.4z M57.2,174.8C57.2,174.8,57.2,174.8,57.2,174.8
	c0.4,0,0.8,0,1.1,0c0.9,0,0.8,0,0.5-0.8c-0.2-0.4-0.5-0.7-0.8-1.1c-0.2-0.3-0.3-0.2-0.6-0.1c-0.8,0.3-1.1,1.1-1.9,1.4
	c-0.1,0.1-0.2,0.2-0.1,0.4c0.1,0.2,0.2,0.2,0.3,0.2C56.2,174.8,56.7,174.8,57.2,174.8z M205,215.3c0.4,0,0.8,0,1.1,0
	c0.3,0,0.5-0.1,0.5-0.4c0-0.2,0-0.5-0.3-0.5c-0.4-0.1-0.5-0.5-0.8-0.6c-0.3-0.2-0.8-0.8-1.2-0.3c-0.3,0.4-0.6,0.6-0.9,1
	c-0.2,0.2-0.3,0.4-0.2,0.7c0.1,0.2,0.3,0.3,0.5,0.3C204.3,215.3,204.7,215.3,205,215.3z M188.4,181.2c-0.5,0.3-0.9,0.5-1.4,0.9
	c-0.1,0.1-0.1,0.3,0.1,0.4c1,0.5,1.9,1,2.9,1.5c0.1,0.1,0.2,0.1,0.4,0c0.1-0.1,0-0.2,0-0.4c-0.3-0.8-0.8-1.4-1.3-2.1
	C188.9,181.4,188.6,181.4,188.4,181.2z M81.2,43.3c0-0.6-0.2-1.3-0.7-1.5c-0.5-0.3-1.1,0.1-1.5,0.5c-0.1,0.1-0.3,0.2-0.5,0.3
	c-0.4,0.2-0.2,0.3,0,0.4c0.5,0.4,1.1,0.6,1.7,0.9C80.8,44.4,81.2,44.1,81.2,43.3z M87.4,77.5c0,0.2,0,0.3,0,0.5
	c0,1.1,0.2,1.3,1.2,0.8c0.4-0.2,0.9-0.5,1-0.9c0-0.5-0.4-0.7-0.8-0.9c-0.4-0.3-0.7-0.9-1.2-0.7C87.1,76.5,87.5,77.1,87.4,77.5z
	 M220,213.8c-0.3-0.2-0.6-0.3-0.8-0.5c-0.7-0.4-1.5-0.7-2.2-1.1c-0.2-0.1-0.4-0.2-0.5,0c-0.2,0.2,0,0.4,0.1,0.5
	c0.3,0.5,0.5,1.2,1.1,1.6c0.3,0.2,0.5,0.3,0.8,0.2C218.9,214.2,219.5,214,220,213.8z M178.1,43c-0.2-0.3-0.6-0.5-0.9-0.7
	c-0.2-0.2-0.4-0.3-0.7-0.2c0,0-0.1,0.1-0.1,0.1c0,0.9-0.9,1.2-1.1,2c0,0.1-0.2,0.2-0.1,0.4c0.1,0.2,0.3,0.1,0.5,0.1
	c0.5-0.3,1-0.6,1.7-0.6C177.7,44,177.9,43.5,178.1,43z M50.5,91c-0.7-0.2-0.9-0.1-0.5,0.6c0.1,0.1,0,0.3,0,0.5
	c0,0.2,1.3,1.3,1.5,1.3c0.1,0,0.3-0.1,0.3-0.2c0.2-0.3,0.4-0.5,0.5-0.8c0.1-0.2,0.1-0.5-0.1-0.6C51.7,91.5,51.3,90.7,50.5,91z
	 M185.5,48.2c-0.2-0.5-0.8-0.6-1.1-0.9c-0.3-0.3-0.4-0.2-0.7,0.1c-0.4,0.6-0.9,1.3-1.4,1.8c-0.1,0.1-0.2,0.2-0.2,0.4
	c0.1,0.3,0.3,0.2,0.5,0.1c0.7-0.4,1.6-0.6,2.3-0.9C185.2,48.6,185.4,48.5,185.5,48.2z M189.3,192.1c0-0.4-0.2-0.5-0.4-0.6
	c-0.8-0.1-1.5-0.5-2.1-0.9c-0.1-0.1-0.3-0.2-0.4,0c-0.1,0.1-0.1,0.3,0,0.4c0.6,0.4,0.5,1.3,1.2,1.7c0.3,0.2,0.4,0.7,0.9,0.5
	C188.9,192.9,189.1,192.4,189.3,192.1z M69.1,203.7c-0.5,0.1-0.7,0.4-0.9,0.7c-0.3,0.3-0.4,0.7-0.9,0.8c-0.3,0.1-0.5,0.3-0.4,0.6
	c0.2,0.6,1,0.3,1.4,0.8c0.1,0.1,0.2,0,0.3-0.2c0,0,0-0.1,0-0.1c0.2-0.7,0.4-1.4,0.6-2.2C69.3,203.9,69.3,203.7,69.1,203.7z
	 M159.9,36.6C159.9,36.6,159.9,36.6,159.9,36.6c0,0.3,0,0.7,0,1c0.1,0.4,0.3,0.5,0.6,0.2c0.3-0.4,0.7-0.8,1-1.2
	c0.2-0.2,0.4-0.6,0-0.8c-0.4-0.3-0.9-0.6-1.4-0.4c-0.4,0.1-0.1,0.7-0.2,1C159.9,36.5,159.9,36.5,159.9,36.6z M93,76.9
	c0.3-0.1,0.6-0.1,1-0.2c0.4-0.1,1-0.1,1.2-0.6c0.2-0.6-0.5-0.5-0.7-0.8c-0.2-0.3-0.4-0.1-0.4,0.1c-0.4,0.8-0.4,0.8-1.1,0.2
	c-0.1-0.1-0.3-0.3-0.5-0.3c-0.2-0.1-0.4,0-0.4,0.2C91.8,76,92.5,76.9,93,76.9z M83.7,112.2c-0.4,0-0.8-0.1-0.9,0.5c0,0.5,0,1,0,1.5
	c0,0.5,0.3,0.6,0.7,0.3c0.2-0.2,0.5-0.4,0.5-0.6c0.1-0.5,0.7-0.8,0.4-1.4C84.3,112.1,84,112.3,83.7,112.2z M179.9,187.9
	c0-0.3,0-0.5,0-0.7c-0.1-0.4-0.8-0.8-1-0.6c-0.3,0.3-0.6,0.4-1,0.4c-0.3,0-0.6,0-0.7,0.3c0,0.3,0.3,0.4,0.6,0.5
	c0.4,0.1,0.9,0.1,1.3,0.4c0.2,0.1,0.4,0.5,0.7,0.3C180,188.4,179.8,188.1,179.9,187.9z M103,94.3c-0.2,0.5,0.7,0.6,0.7,1.1
	c0,0.3,0.2,0.6,0.5,0.5c0.3-0.1,0.7-0.2,0.9-0.5c0.1-0.3-0.1-0.5-0.3-0.7c-0.4-0.3-0.9-0.5-1.2-0.9c-0.1-0.1-0.2-0.2-0.4-0.1
	C102.9,93.8,103,94,103,94.3z M194.9,227.5c0,0.2,0,0.4,0,0.6c0,0.2,0,0.5,0.3,0.5c0.4,0,0.9,0.1,1.2-0.3c0.2-0.3,0-0.4-0.1-0.7
	c-0.2-0.4-0.7-0.5-0.8-0.9c0-0.2-0.1-0.4-0.4-0.4c-0.3,0.1-0.2,0.3-0.2,0.5C194.8,227.1,194.9,227.3,194.9,227.5z M219.1,185.3
	c0.8-0.1,1.2-0.8,1.8-1.2c0.2-0.2,0.4-0.5,0.2-0.8c-0.1-0.2-0.4-0.3-0.6-0.5c-0.2-0.1-0.3,0-0.4,0.2
	C219.9,183.9,219,184.3,219.1,185.3z M109.6,168.9c-0.1,0.8-0.7,1.1-1.1,1.6c-0.2,0.2-0.3,0.5,0,0.7c0.2,0.2,1.5-0.3,1.7-0.6
	C110.5,169.9,109.8,169.5,109.6,168.9z M86.7,85.9c0.2-0.1,0.6,0.1,0.5-0.3c-0.2-0.5-0.4-1-1-1.1c-0.5-0.1-0.9,0.1-1.3,0.4
	c-0.2,0.1-0.2,0.4,0.1,0.5C85.6,85.6,86.2,85.7,86.7,85.9z M184.5,185.3c0-0.2,0-0.3-0.2-0.3c-0.4-0.2-0.6-0.6-0.6-1.1
	c0-0.4-0.2-0.5-0.5-0.4c-0.4,0.1-0.8,0.2-1,0.6c0,0,0,0.2,0.1,0.2c0.6,0.3,1.1,0.9,1.7,1.3C184.4,185.8,184.4,185.5,184.5,185.3z
	 M51.3,184.9c-0.2,0-0.4,0-0.6,0c-0.3,0-0.7-0.1-0.7,0.3c0,0.3,0.2,0.8,0.7,0.8c0.5,0,0.9-0.2,1.4-0.3c0.2-0.1,0.4-0.2,0.4-0.5
	c0-0.3-0.3-0.3-0.6-0.3C51.8,184.9,51.6,184.9,51.3,184.9z M44.8,131.4c0.2,0,0.4,0,0.5-0.1c0.1-0.1,0-0.2-0.1-0.3
	c-0.6-0.2-0.7-0.8-1.2-1.1c-0.3-0.2-0.5-0.4-0.8,0c-0.2,0.3-0.4,0.8,0,1C43.8,131.1,44.4,131.2,44.8,131.4z M46.3,97.1
	c-0.7-0.3-1-1-1.8-1.2c-0.3-0.1-0.4,0-0.3,0.2c0.2,0.4,0.2,0.9,0.6,1.3C45.4,98.1,45.8,97.4,46.3,97.1z M136,186
	c0.1,0.4-0.2,0.9,0.4,1c0.4,0.1,0.9-0.9,0.9-1.6c-0.1-0.6-0.5-0.3-0.8-0.3C135.8,185.1,136.1,185.6,136,186z M121.5,178.3
	c-0.2-0.3-0.6-0.2-0.9-0.4c-0.1-0.1-0.3-0.1-0.4,0.1c-0.1,0.5-0.4,0.7-0.8,1c-0.3,0.2-0.3,0.5-0.2,0.7c0.1,0.2,0.3,0.2,0.4,0.2
	c0.6-0.4,1-1.1,1.8-1.4C121.5,178.4,121.5,178.4,121.5,178.3z M203.6,75.5c0.1,0,0.3,0,0.4,0c0.3,0,0.6-0.1,0.7-0.4
	c0.1-0.4-0.3-0.5-0.6-0.6c-0.4-0.2-0.7,0.1-1,0.1c-0.3,0-0.6,0.2-0.5,0.6c0,0.4,0.4,0.3,0.6,0.3C203.3,75.5,203.4,75.5,203.6,75.5z
	 M209.7,221.9c-0.1,0-0.5-0.2-0.4,0.3c0.2,0.6,1.4,1,1.9,0.8c0.2-0.1,0.2-0.2,0.2-0.4c0-0.2,0-0.3-0.2-0.4
	C210.7,222.1,210.3,221.7,209.7,221.9z M228.2,209.8c0-0.3-1-1.1-1.2-1.1c-0.3,0-0.5,0.2-0.3,0.4c0.3,0.4,0.4,1,1,1.2
	C227.9,210.3,228.2,210.1,228.2,209.8z M188.6,50.6c0,0-0.1,0-0.2-0.1c-0.4-0.2-0.8,0.1-1.1,0.3c-0.3,0.1-0.4,0.4-0.4,0.7
	c0,0.1,0,0.3,0.2,0.3C187.4,52,188.6,51.1,188.6,50.6z M89.9,81.2c-0.3,0-0.6,0-0.5,0.4c0,0.2,1.1,1,1.3,1c0.2,0,0.2-0.2,0.2-0.3
	C90.9,81.6,90.5,81.2,89.9,81.2z M110.6,224.2c-0.1-0.1,0.3-0.7-0.2-0.6c-0.5,0.1-1,0.6-1,1.2c0,0.5,0.5,0.3,0.8,0.3
	C110.8,225.1,110.7,224.7,110.6,224.2z M68.6,76.2c0-0.2,0-0.2,0-0.2c0-0.3,0.1-0.7-0.4-0.8c-0.3,0-0.6-0.1-0.8,0.1
	c-0.3,0.4,0.2,0.5,0.3,0.7c0.1,0.2,0.2,0.4,0.2,0.6c0,0.1,0.1,0.3,0.2,0.3c0.2,0,0.3-0.1,0.4-0.2C68.6,76.5,68.6,76.2,68.6,76.2z
	 M116.8,94.1c-0.1,0.6,0.1,0.9,0.6,0.9c0.3,0,0.7,0,0.6-0.4c-0.1-0.4-0.3-0.9-0.8-1C116.7,93.6,116.8,94,116.8,94.1z M47.7,96.1
	c0.2-0.1,0.7,0,0.5-0.3c-0.2-0.4-0.5-0.8-1-1c-0.1-0.1-0.3-0.1-0.4,0.1C46.7,95.3,47.3,96.1,47.7,96.1z M72.5,45.5
	c0-0.4,0.1-0.8-0.5-0.7c-0.3,0-0.5,0.1-0.4,0.4c0.1,0.4,0.1,1,0.7,1C72.7,46.2,72.5,45.7,72.5,45.5z M225.1,185.3
	c0,0.3,0,0.6,0.4,0.5c0.4,0,0.7-0.4,0.8-0.7c0-0.3-0.3-0.4-0.7-0.4C225.2,184.7,225.1,185,225.1,185.3z M123.1,34.8
	c0-0.4,0-0.8-0.5-0.8c-0.3,0-0.5,0.2-0.4,0.5c0,0.4,0.3,0.8,0.7,0.9C123.3,35.5,123.1,35,123.1,34.8z"/>
<path class="st1" d="M61.8,134.9c-0.5,0.7-1.4,0.8-2.1,0.1c-0.3-0.2-0.6-0.5-0.9-0.4c-1.1,0.3-2.1-0.4-3.2-0.5
	c-0.4,0-0.2-0.3-0.1-0.4c0.5-0.4,1-0.7,1.2-1.3c0-0.2,0.3-0.2,0.4-0.2c2.4-0.6,4.8-1,7.2-1.3c0.5-0.1,0.7-0.3,0.7-0.7
	c0-0.5,0-1,0-1.5c0-0.4,0.1-0.7,0.4-1c0.5-0.5,0.3-1.2,0.4-1.8c0.2-0.8,0.5-1.5,0.4-2.4c0-0.1,0.1-0.3,0.2-0.3
	c0.9-0.1,1.5-0.8,2.3-1c0.3-0.1,0.6-0.2,0.8,0.1c0.2,0.3,0,0.5-0.1,0.8c-0.3,1.3-0.8,2.6-1,4c-0.1,0.8-0.6,1.5-0.9,2.2
	c-0.4,0.7-0.7,1.6-1.4,2.1c-0.2,0.1-0.3,0.5-0.3,0.7c0.5,1.4-0.6,2.6-0.4,4c0,0.2-0.1,0.3-0.3,0.3c-1-0.1-2-0.3-3-0.8
	C62.1,135.4,62,135.1,61.8,134.9z"/>
<path class="st0" d="M83,117.9c1.7-0.1,3.3,0.3,4.8,1c0.3,0.1,0.6,0.1,0.9,0.1c2.5-0.1,4.9,0.1,7.4-0.1c0.3,0,0.4,0.1,0.5,0.3
	c0.1,0.1,0.1,0.3,0.1,0.4c0,2.8,0.4,2.3-2.1,2.3c-3.6,0-7.2,0-10.7,0c-0.7,0-0.8-0.2-0.8-0.8C83,120.1,83,119,83,117.9
	C83,117.9,83,117.9,83,117.9z"/>
<path class="st0" d="M90.9,115.6c-1.5,0-3,0-4.5,0c-0.7,0-1-0.3-1-1c0-0.5,0-1,0-1.5c0-0.6,0.3-0.9,0.9-0.9c3.2,0,6.4,0,9.6,0
	c0.5,0,0.7,0.3,0.7,0.8c0,0.7,0,1.3,0.1,2c0,0.5-0.5,0.6-0.9,0.6C94.1,115.6,92.5,115.6,90.9,115.6z"/>
<path class="st0" d="M100.8,97.7c0,0-0.1,0.1-0.1,0.1c-1,0.2-1.5,1-2,1.7c-0.5,1-1.1,1.1-1.7,0.2c-0.4-0.6-0.7-1.2-1.3-1.6
	c-0.3-0.2-0.2-0.6,0.3-0.6c0.4,0,0.9,0,1.3,0c0.6,0,0.6-0.3,0.4-0.7c-0.1-0.2-0.2-0.3-0.4-0.4c-0.1-0.1-0.3-0.2-0.1-0.4
	c0.1-0.2,0.3-0.1,0.4,0.1c0.2,0.2,0.4,0.2,0.7,0.2c0.4,0,0.8,0.3,1.3,0.3c0.4,0,0.4,0.7,0.8,0.4c0.3-0.3-0.4-0.6-0.1-0.9
	c0.3-0.1,0.4,0.2,0.6,0.2c0.4,0.1,0.6,0.5,0.7,0.8c0.1,0.4-0.4,0.3-0.6,0.4C100.9,97.5,100.8,97.6,100.8,97.7z"/>
<path class="st0" d="M49.4,177.6c0.4,0.1,1-0.2,1.5,0.2c-0.4,0.3-0.7,0.7-1.1,1c-0.4,0.3-0.7,0.6-1,0.9c-0.2,0.1-0.3,0.4-0.5,0.3
	c-0.2-0.1-0.4-0.3-0.4-0.6c0.1-0.9-0.6-1.5-0.5-2.3c0-0.2-0.3-0.3-0.4-0.5c-0.5-0.4-0.6-1-0.6-1.5c0-0.4,0.3-0.6,0.7-0.7
	c0.8-0.1,1.5-0.2,2.3-0.3c0.1,0,0.3,0,0.3,0.1c0,0.2,0,0.3-0.1,0.5c-0.7,0.6-0.8,1.6-1.6,2.1c-0.2,0.1-0.3,0.3-0.2,0.6
	c0.1,0.3,0.3,0.2,0.6,0.2C48.6,177.6,49,177.6,49.4,177.6z"/>
<path class="st0" d="M108,166.2c-0.4,0-0.8,0-1.2,0c-0.5,0-0.8-0.2-0.9-0.7c-0.2-0.6-0.8-1-0.7-1.7c0-0.2-0.1-0.4,0.2-0.5
	c0.3-0.1,0.7-0.1,0.8,0.2c0.2,0.6,0.6,0.6,1.1,0.6c0.7,0,1.5,0,2.2,0c0.5,0,0.8,0.2,0.7,0.7c-0.1,0.5,0.3,1.3-0.6,1.4
	C109,166.3,108.5,166.2,108,166.2C108,166.2,108,166.2,108,166.2z"/>
<path class="st0" d="M147.8,118.4c-0.2,0-0.4,0-0.6,0c-0.4,0.1-0.9-0.2-1,0.2c-0.1,0.3,0.4,0.6,0.7,0.8c0.2,0.2,0.5,0.3,0.7,0.5
	c0.1,0.1,0.3,0.2,0.2,0.4c0,0.2-0.2,0.2-0.4,0.2c-0.8,0-1.6,0-2.4,0c-0.2,0-0.4-0.1-0.5-0.3c-0.1-0.2,0.1-0.4,0.2-0.5
	c0.4-0.2,0.4-0.5,0.4-0.9c0-0.2,0-0.3,0.2-0.4c0.7-0.3,0.8-0.9,0.8-1.6c0-0.7,0.3-0.8,0.9-0.6c0.4,0.2,0.9,0.4,1.1,0.8
	c0.2,0.4,0.7,0.5,1.1,0.7c0.2,0.1,0.4,0.2,0.3,0.4c0,0.3-0.3,0.2-0.5,0.2C148.6,118.4,148.2,118.4,147.8,118.4z"/>
<path class="st0" d="M214.2,215.2c0.6,0,1.1,0,1.7,0c0.3,0,0.6,0.1,0.7,0.4c0.1,0.3-0.2,0.5-0.3,0.7c-0.7,0.7-1.7,1-2.5,1.5
	c-0.1,0-0.2,0-0.2,0c-0.6,0-1.8-1.7-1.7-2.3c0.1-0.3,0.3-0.3,0.6-0.3C213,215.2,213.6,215.2,214.2,215.2z"/>
<path class="st0" d="M84.4,92c-1.1-0.3-2.1-0.1-3.1-0.1c-0.3,0-0.6,0.1-0.6-0.4c0-0.4,0.2-0.6,0.5-0.7c0.4-0.1,0.8-0.1,1.1-0.4
	c0.3-0.2,0.6-0.4,0.7-0.8c0.1-0.5,0.5-0.4,0.9-0.5c0.4,0,0.5,0.2,0.6,0.5c0.1,0.4,0.2,0.8,0.5,1.2c0.2,0.2,0.6,0.5,0.4,0.8
	C85.2,92.1,84.7,91.8,84.4,92z"/>
<path class="st0" d="M69.2,85.4c-0.1,0-0.1,0-0.2,0c-0.5-0.3-1-0.5-1.5,0c-0.1,0.1-0.4,0-0.4-0.1c-0.1-0.7-0.9-1-1.2-1.6
	c-0.2-0.4,0.1-0.5,0.4-0.4c0.4,0.1,0.9,0.2,1.3,0.4c0.5,0.2,0.8,0.2,0.8-0.5c0-0.2,0-0.5,0.3-0.5c0.2,0,0.3,0.2,0.4,0.3
	c0.3,0.5,0.5,1,0.9,1.5c0.2,0.2,0.2,0.4-0.1,0.6C69.7,85.3,69.4,85.4,69.2,85.4z"/>
<path class="st0" d="M57.2,174.8c-0.5,0-1,0-1.5,0c-0.1,0-0.3,0-0.3-0.2c-0.1-0.1,0-0.3,0.1-0.4c0.7-0.4,1.1-1.1,1.9-1.4
	c0.3-0.1,0.4-0.2,0.6,0.1c0.3,0.4,0.6,0.7,0.8,1.1c0.4,0.7,0.4,0.8-0.5,0.8C57.9,174.8,57.5,174.8,57.2,174.8
	C57.2,174.8,57.2,174.8,57.2,174.8z"/>
<path class="st0" d="M205,215.3c-0.4,0-0.8,0-1.1,0c-0.2,0-0.4,0-0.5-0.3c-0.1-0.2,0-0.5,0.2-0.7c0.3-0.3,0.6-0.6,0.9-1
	c0.4-0.5,0.9,0.1,1.2,0.3c0.3,0.2,0.4,0.5,0.8,0.6c0.2,0.1,0.3,0.3,0.3,0.5c0,0.3-0.3,0.4-0.5,0.4
	C205.8,215.3,205.4,215.3,205,215.3z"/>
<path class="st0" d="M188.4,181.2c0.2,0.1,0.5,0.1,0.7,0.4c0.5,0.7,1,1.3,1.3,2.1c0,0.1,0.2,0.2,0,0.4c-0.1,0.1-0.2,0-0.4,0
	c-1-0.5-1.9-1-2.9-1.5c-0.2-0.1-0.2-0.3-0.1-0.4C187.4,181.8,187.9,181.5,188.4,181.2z"/>
<path class="st0" d="M81.2,43.3c0,0.7-0.4,1.1-1,0.7c-0.6-0.3-1.2-0.6-1.7-0.9c-0.2-0.1-0.3-0.3,0-0.4c0.2-0.1,0.3-0.2,0.5-0.3
	c0.4-0.4,1-0.8,1.5-0.5C81,42.1,81.2,42.7,81.2,43.3z"/>
<path class="st0" d="M87.4,77.5c0.1-0.4-0.3-1.1,0.2-1.3c0.4-0.2,0.8,0.4,1.2,0.7c0.4,0.2,0.8,0.5,0.8,0.9c0,0.5-0.5,0.7-1,0.9
	c-1,0.5-1.2,0.3-1.2-0.8C87.4,77.9,87.4,77.7,87.4,77.5z"/>
<path class="st0" d="M220,213.8c-0.5,0.2-1.1,0.4-1.6,0.7c-0.3,0.1-0.5,0-0.8-0.2c-0.6-0.4-0.7-1.1-1.1-1.6
	c-0.1-0.1-0.3-0.3-0.1-0.5c0.2-0.1,0.3,0,0.5,0c0.7,0.4,1.5,0.7,2.2,1.1C219.4,213.5,219.7,213.6,220,213.8z"/>
<path class="st0" d="M178.1,43c-0.2,0.5-0.4,1-0.8,1c-0.7,0-1.2,0.3-1.7,0.6c-0.2,0.1-0.4,0.2-0.5-0.1c-0.1-0.2,0.1-0.3,0.1-0.4
	c0.2-0.7,1.1-1.1,1.1-2c0,0,0.1-0.1,0.1-0.1c0.3-0.1,0.5,0.1,0.7,0.2C177.5,42.5,177.9,42.7,178.1,43z"/>
<path class="st0" d="M50.5,91c0.8-0.2,1.2,0.5,1.8,0.7c0.3,0.1,0.3,0.4,0.1,0.6c-0.1,0.3-0.3,0.5-0.5,0.8c-0.1,0.1-0.2,0.2-0.3,0.2
	c-0.2,0-1.5-1.1-1.5-1.3c0-0.2,0-0.4,0-0.5C49.6,90.9,49.8,90.7,50.5,91z"/>
<path class="st0" d="M185.5,48.2c-0.1,0.3-0.3,0.5-0.5,0.6c-0.8,0.4-1.6,0.5-2.3,0.9c-0.2,0.1-0.4,0.1-0.5-0.1
	c-0.1-0.2,0-0.3,0.2-0.4c0.6-0.5,1-1.1,1.4-1.8c0.2-0.4,0.3-0.4,0.7-0.1C184.8,47.6,185.3,47.7,185.5,48.2z"/>
<path class="st0" d="M189.3,192.1c-0.2,0.3-0.4,0.8-0.9,1.1c-0.5,0.2-0.6-0.3-0.9-0.5c-0.7-0.4-0.6-1.3-1.2-1.7
	c-0.1-0.1-0.1-0.2,0-0.4c0.1-0.1,0.3-0.1,0.4,0c0.6,0.4,1.3,0.8,2.1,0.9C189.1,191.5,189.3,191.6,189.3,192.1z"/>
<path class="st0" d="M52.6,170.6c0.3-0.8,0.7-1.7,1.5-2.2c0.4-0.3,0.8,0,1.1,0.3c0.3,0.2,0.3,0.6,0.3,0.9c-0.1,0.4-0.5,0.4-0.8,0.4
	c-0.5,0-0.8,0.4-1.2,0.6C53.1,170.7,52.8,170.6,52.6,170.6L52.6,170.6z"/>
<path class="st0" d="M69.1,203.7c0.2,0,0.2,0.2,0.2,0.4c-0.2,0.7-0.4,1.4-0.6,2.2c0,0,0,0.1,0,0.1c0,0.1-0.2,0.3-0.3,0.2
	c-0.4-0.4-1.2-0.1-1.4-0.8c-0.1-0.3,0.2-0.5,0.4-0.6c0.5-0.1,0.6-0.5,0.9-0.8C68.4,204.1,68.7,203.8,69.1,203.7z"/>
<path class="st0" d="M159.9,36.6c0-0.1,0-0.1,0-0.2c0.1-0.4-0.2-0.9,0.2-1c0.5-0.2,1,0.1,1.4,0.4c0.4,0.3,0.2,0.6,0,0.8
	c-0.3,0.4-0.6,0.8-1,1.2c-0.3,0.3-0.5,0.2-0.6-0.2C159.9,37.3,159.9,36.9,159.9,36.6C159.9,36.6,159.9,36.6,159.9,36.6z"/>
<path class="st0" d="M93,76.9c-0.4,0-1.1-0.9-1-1.4c0.1-0.2,0.3-0.3,0.4-0.2c0.2,0.1,0.3,0.2,0.5,0.3c0.7,0.6,0.7,0.6,1.1-0.2
	c0.1-0.2,0.3-0.4,0.4-0.1c0.2,0.4,0.9,0.3,0.7,0.8c-0.2,0.5-0.7,0.5-1.2,0.6C93.6,76.8,93.3,76.9,93,76.9z"/>
<path class="st0" d="M83.7,112.2c0.3,0,0.6-0.1,0.8,0.3c0.3,0.6-0.3,0.9-0.4,1.4c0,0.2-0.3,0.4-0.5,0.6c-0.4,0.3-0.7,0.2-0.7-0.3
	c0-0.5,0-1,0-1.5C82.9,112.2,83.3,112.3,83.7,112.2z"/>
<path class="st0" d="M179.9,187.9c0,0.1,0.1,0.5-0.1,0.6c-0.3,0.2-0.5-0.1-0.7-0.3c-0.4-0.3-0.9-0.3-1.3-0.4
	c-0.3-0.1-0.6-0.2-0.6-0.5c0-0.3,0.4-0.3,0.7-0.3c0.4,0,0.7,0,1-0.4c0.2-0.2,0.9,0.1,1,0.6C179.9,187.4,179.9,187.6,179.9,187.9z"/>
<path class="st0" d="M103,94.3c0-0.3,0-0.5,0.2-0.6c0.1-0.1,0.3,0,0.4,0.1c0.3,0.4,0.8,0.6,1.2,0.9c0.2,0.1,0.4,0.4,0.3,0.7
	c-0.1,0.4-0.5,0.4-0.9,0.5c-0.4,0.1-0.5-0.2-0.5-0.5C103.7,94.9,102.8,94.8,103,94.3z"/>
<path class="st0" d="M194.9,227.5c0-0.2,0-0.4,0-0.6c0-0.2-0.1-0.5,0.2-0.5c0.3-0.1,0.4,0.1,0.4,0.4c0.1,0.4,0.6,0.5,0.8,0.9
	c0.1,0.2,0.3,0.4,0.1,0.7c-0.3,0.4-0.8,0.3-1.2,0.3c-0.3,0-0.3-0.3-0.3-0.5C194.9,228,194.9,227.7,194.9,227.5z"/>
<path class="st0" d="M219.1,185.3c-0.1-1,0.8-1.4,1.1-2.3c0-0.2,0.2-0.3,0.4-0.2c0.2,0.1,0.5,0.3,0.6,0.5c0.2,0.3,0,0.6-0.2,0.8
	C220.3,184.6,219.8,185.2,219.1,185.3z"/>
<path class="st0" d="M109.6,168.9c0.2,0.6,0.8,1,0.5,1.7c-0.1,0.3-1.4,0.8-1.7,0.6c-0.3-0.2-0.1-0.5,0-0.7
	C108.9,170,109.5,169.7,109.6,168.9z"/>
<path class="st0" d="M86.7,85.9c-0.5-0.2-1.2-0.3-1.8-0.5c-0.3-0.1-0.3-0.4-0.1-0.5c0.4-0.2,0.8-0.5,1.3-0.4c0.6,0.1,0.9,0.6,1,1.1
	C87.3,86,87,85.8,86.7,85.9z"/>
<path class="st0" d="M184.5,185.3c-0.1,0.2-0.2,0.5-0.5,0.2c-0.6-0.4-1-1-1.7-1.3c-0.1,0-0.1-0.2-0.1-0.2c0.3-0.3,0.6-0.5,1-0.6
	c0.3-0.1,0.5,0.1,0.5,0.4c0,0.5,0.2,0.8,0.6,1.1C184.5,185.1,184.6,185.2,184.5,185.3z"/>
<path class="st0" d="M51.3,184.9c0.2,0,0.5,0,0.7,0c0.2,0,0.5,0,0.6,0.3c0,0.2-0.2,0.4-0.4,0.5c-0.5,0.1-0.9,0.3-1.4,0.3
	c-0.5,0-0.7-0.5-0.7-0.8c0-0.4,0.4-0.2,0.7-0.3C51,184.9,51.2,184.9,51.3,184.9z"/>
<path class="st0" d="M44.8,131.4c-0.5-0.2-1-0.3-1.5-0.6c-0.4-0.2-0.3-0.7,0-1c0.2-0.3,0.5-0.1,0.8,0c0.5,0.3,0.6,1,1.2,1.1
	c0.1,0,0.1,0.2,0.1,0.3C45.2,131.4,45,131.4,44.8,131.4z"/>
<path class="st0" d="M46.3,97.1c-0.5,0.2-0.9,0.9-1.6,0.3c-0.4-0.4-0.4-0.9-0.6-1.3c-0.1-0.2,0.1-0.2,0.3-0.2
	C45.2,96.1,45.6,96.8,46.3,97.1z"/>
<path class="st0" d="M136,186c0.1-0.3-0.2-0.9,0.4-0.8c0.3,0,0.8-0.2,0.8,0.3c0.1,0.7-0.4,1.6-0.9,1.6
	C135.7,186.9,136.1,186.3,136,186z"/>
<path class="st0" d="M121.5,178.3c0,0.1,0,0.1,0,0.1c-0.7,0.3-1.2,1-1.8,1.4c-0.1,0.1-0.3,0-0.4-0.2c-0.1-0.3-0.1-0.5,0.2-0.7
	c0.4-0.2,0.7-0.5,0.8-1c0-0.2,0.3-0.3,0.4-0.1C120.8,178.1,121.3,178,121.5,178.3z"/>
<path class="st0" d="M203.6,75.5c-0.1,0-0.3,0-0.4,0c-0.3,0-0.6,0-0.6-0.3c0-0.4,0.2-0.5,0.5-0.6c0.3,0,0.7-0.3,1-0.1
	c0.3,0.1,0.7,0.2,0.6,0.6c-0.1,0.3-0.4,0.4-0.7,0.4C203.8,75.5,203.7,75.5,203.6,75.5z"/>
<path class="st0" d="M209.7,221.9c0.6-0.2,1,0.3,1.5,0.3c0.2,0,0.2,0.2,0.2,0.4c0,0.2,0,0.3-0.2,0.4c-0.5,0.2-1.7-0.2-1.9-0.8
	C209.2,221.7,209.6,221.9,209.7,221.9z"/>
<path class="st0" d="M228.2,209.8c0,0.3-0.3,0.5-0.5,0.4c-0.6-0.1-0.7-0.7-1-1.2c-0.1-0.2,0-0.4,0.3-0.4
	C227.2,208.7,228.1,209.5,228.2,209.8z"/>
<path class="st0" d="M188.6,50.6c0.1,0.5-1.2,1.4-1.5,1.3c-0.2-0.1-0.2-0.2-0.2-0.3c0-0.3,0.1-0.6,0.4-0.7c0.3-0.2,0.7-0.5,1.1-0.3
	C188.5,50.5,188.6,50.6,188.6,50.6z"/>
<path class="st0" d="M89.9,81.2c0.6,0,1,0.5,1,1.1c0,0.2,0,0.3-0.2,0.3c-0.3,0-1.3-0.8-1.3-1C89.3,81.1,89.6,81.2,89.9,81.2z"/>
<path class="st0" d="M110.6,224.2c0.2,0.5,0.3,0.9-0.4,0.9c-0.3,0-0.8,0.2-0.8-0.3c0-0.6,0.5-1.1,1-1.2
	C110.8,223.5,110.4,224.1,110.6,224.2z"/>
<path class="st0" d="M68.6,76.2c0,0.1,0,0.3-0.1,0.5c0,0.2-0.2,0.3-0.4,0.2c-0.2,0-0.2-0.1-0.2-0.3c0-0.2-0.1-0.4-0.2-0.6
	c-0.2-0.2-0.6-0.3-0.3-0.7c0.2-0.2,0.5-0.2,0.8-0.1c0.4,0.1,0.4,0.4,0.4,0.8C68.6,76,68.6,76,68.6,76.2z"/>
<path class="st0" d="M116.8,94.1c0-0.1-0.1-0.6,0.4-0.5c0.5,0.1,0.7,0.6,0.8,1c0.1,0.3-0.3,0.3-0.6,0.4
	C116.9,95,116.8,94.7,116.8,94.1z"/>
<path class="st0" d="M47.7,96.1c-0.5,0-1-0.8-0.8-1.2c0.1-0.2,0.2-0.2,0.4-0.1c0.4,0.2,0.7,0.7,1,1C48.4,96.2,47.9,96.1,47.7,96.1z"
	/>
<path class="st0" d="M72.5,45.5c-0.1,0.2,0.2,0.7-0.3,0.6c-0.5,0-0.6-0.6-0.7-1c-0.1-0.3,0.2-0.4,0.4-0.4
	C72.6,44.7,72.6,45.1,72.5,45.5z"/>
<path class="st0" d="M225.1,185.3c0-0.4,0.1-0.6,0.5-0.6c0.3,0,0.7,0.1,0.7,0.4c-0.1,0.3-0.3,0.7-0.8,0.7
	C225.1,185.9,225.1,185.7,225.1,185.3z"/>
<path class="st0" d="M123.1,34.8c-0.1,0.2,0.1,0.7-0.3,0.6c-0.4-0.1-0.6-0.5-0.7-0.9c0-0.3,0.2-0.5,0.4-0.5
	C123.2,34,123.1,34.4,123.1,34.8z"/>
<path class="st0" d="M52.5,170.6c0,0.2-0.1,0.4-0.3,0.4c-0.1,0-0.2,0-0.1-0.1C52.2,170.7,52.4,170.6,52.5,170.6
	C52.6,170.6,52.5,170.6,52.5,170.6z"/>
</svg>
