<?xml version="1.0" encoding="utf-8"?>
<!-- Generator: Adobe Illustrator 26.2.1, SVG Export Plug-In . SVG Version: 6.00 Build 0)  -->
<svg version="1.1" id="Calque_1" xmlns="http://www.w3.org/2000/svg" xmlns:xlink="http://www.w3.org/1999/xlink" x="0px" y="0px"
	 viewBox="0 0 256 256" style="enable-background:new 0 0 256 256;" xml:space="preserve">
<style type="text/css">
	.st0{fill:#F7575D;}
	.st1{fill:#F7F7F7;}
</style>
<path class="st0" d="M220.1,149.2c1.4-3.7,1.8-7.4,0.1-11.1c-0.5-1.2-0.6-2.5-0.6-3.8c-0.1-4.3,0.6-8.7-1.3-12.8
	c-0.2-0.5-0.1-1.2-0.1-1.8c0-13,0-25.9,0-38.9c0-0.6,0.2-1.2-0.1-1.7c-1.4-2.5-1.3-5.4-2.4-7.9c-1.1-2.5-2.1-5.1-3.2-7.6
	c-0.5-1.2-1-2.6-1.9-3.4c-3.2-2.8-5.4-6.7-9.7-8.4c-2-0.8-4-1.8-6.1-1.9c-21.4-0.1-42.9,0-64.3,0c-1.8,0-3.7,0.5-5.1,1.4
	c-2.1,1.3-4.2,1.6-6.5,1.6c-4.6,0-9.2-0.2-13.8,0.1c-6.4,0.4-12.6-1.1-18.7-2.4c-2-0.4-4-0.6-6-0.6c-2.5-0.1-5.1,0.4-7.5-0.4
	c-4.1-1.5-8.4-1.3-12.6-1.2c-2.5,0.1-4.9,0.6-6.9,2.4c-1.6,1.4-2.7,3.5-4.8,4.1c-2.4,0.7-3.9,2.5-5.2,4.2c-2.7,3.4-4.5,7.4-4.2,12
	c0.2,2.2,0.1,4.5-0.8,6.6c-0.7,1.6-0.6,3.3-0.6,5c0,17.7,0,35.4,0,53.1c0,2.4-0.6,4.6-1.4,6.9c-1.1,3-2,6.1-2,9.4
	c0.2,10.7,0.1,21.4,0.1,32.2c0,3.1-0.1,6.3,1,9.3c0.7,2.1,1,4.4,2.7,6.2c2.3,2.4,4.6,4.8,6.9,7.3c2.9,3.1,6.3,5.2,10.7,5.4
	c1.3,0.1,2.5,0.1,3.8,0.6c3.6,1.4,7.2,2.6,11.2,2.2c1.6-0.2,3.2,0.2,4.5,1.1c1.1,0.7,2,0.8,3.1,0.8c11.7,0,23.5,0,35.2,0
	c11.1,0,22.1,0,33.2,0c2.2,0,4.5,0.1,6.6-1c0.9-0.4,1.9-0.5,3-0.5c6,0,12,0,18,0c0.7,0,1.3,0.1,1.9-0.3c2.1-1.3,4.2-1.2,6.3-0.1
	c0.3,0.2,0.6,0.4,0.9,0.4c6.2,0.5,12.3,0.1,17.8-3c1.4-0.8,3.2-1.3,4-2.9c1.2-2.3,2.2-4.7,3.5-7c0.7-1.2,1.1-2.6,1.8-3.7
	c1.4-2.2,3.4-4.1,4.5-6.7c0.9-2.2,2.3-4.2,2.9-6.6c0.4-1.5,0.4-3.1,0.9-4.6c0.7-2.1,1.1-4.3,1.1-6.6c-0.1-7.5,0-14.9,0-22.4
	C219.7,151.1,219.8,150.2,220.1,149.2z M65.9,96.7c0.3-0.5,0.9-0.7,1.6-0.6c0,0,0,0,0,0C66.8,96.1,66.1,96.2,65.9,96.7z"/>
<path class="st1" d="M169.4,167c-0.2-2.1-2.5-3.6-2.7-5.6c-0.2-1.3,0.6-3.1-1-3.8c-0.5-2.2-0.3-4.2-1.8-6.1c0.6-2.2-1-3.5-1.2-5.4
	c-2.4-8.7-8.3-15.6-10.5-24.5c-6.4-9.6-3-24.9-15.4-30.5c-5.2-2.5-13.7-1.5-18.5,0.5c-4.8,4.9-9.4,8.3-9.4,15
	c-1.5,0.6-2.1,2.5-2.5,3.8c-1.2-0.4-0.2,1.3-0.7,1.9c-1.2,0.1-1.6,0.9-1.6,2c-0.2,4.4-2.4,6.6-3.6,9.9c0.6,1.8-1.4,2.3-1.4,3.8
	c0.5,1.6-1.2,2.2-1.3,3.6c0.4,2.6-2.4,4.4-2.3,6.8c-0.7,6.7-1.7,13.5-2.6,20.1c-1.3,2.8-1.3,5.8-1.4,8.9c-1.5,0.8-1.2,2.2-1.1,3.5
	c0.5,1.7-1.7,2.1-1.4,3.8c-0.4,7.4,1.1,14.4,3.9,20.1c7.3,7,21.5,0.1,30.4,0.3c5.3,0,8.6-7.1,11-6.1c4.8,6.3,14.4,4.7,21.9,4.2
	C167.6,190.3,170.5,177.9,169.4,167z M133.1,172.6c0.1,1.4-1.7,2-1.2,3.6c0.8,2.1-2.4,0.3-3.2-0.6c3.8,3.1-1.8-3.9-2.6-5.6
	c4.4,7.2-2.9-8.3-4-9.8c0.9,2.1-0.1-3.2,1-3.9C137.1,141.6,132,161.2,133.1,172.6z M136.7,182.3c1.9-0.5,0.7-3.4,1.1-4.9
	c1.8-7.5,5.6-29.6-5.4-32.1c-19.7,1-17.4,21-8.4,32.2c0,3.3,6.6,5,3.7,7.9c-3.4,3.7-8.8,3.5-13.1,4.7c-5.3,0.1-9.5,2.6-15.3,1.7
	c-4.2-1.1-1.6-7.2-3.4-10c0.3-11.3,5.1-23.3,4.8-35.6c2.1-1.3,0.1-4.4,1.1-6.1c2-0.9,0-3.3,1.8-4.2c1.7-0.9-0.3-3.2,1.6-4.1
	c0.9-2.4,0.6-6,2.8-7.9c1.5-1.8,2.1-4.5,2.5-6.8c0.1-3,5-1.5,3.8-5.2c-0.7-1.8,1.5-2.4,1.2-4.2c0.1-1.2-0.5-2.6,0.9-3.4
	c0.6-3.4,4.3-6.3,7.2-7.4c12.5-4.8,16.6,4.4,16.7,14.2c3.4,2.8,2.9,8,4.9,11.2c1.8,3.3,3.2,6.7,4.2,10.2c4.9,7.9,7.7,16.4,10,24.8
	c0.7,7.2,5.1,12.7,3.9,20.9c-2.2,3.9-5,7.7-9.1,9.7C148.6,188.1,138.3,188.9,136.7,182.3z"/>
</svg>
