<?xml version="1.0" encoding="utf-8"?>
<!-- Generator: Adobe Illustrator 26.2.1, SVG Export Plug-In . SVG Version: 6.00 Build 0)  -->
<svg version="1.1" id="Calque_1" xmlns="http://www.w3.org/2000/svg" xmlns:xlink="http://www.w3.org/1999/xlink" x="0px" y="0px"
	 viewBox="0 0 256 256" style="enable-background:new 0 0 256 256;" xml:space="preserve">
<style type="text/css">
	.st0{fill:#34A853;}
	.st1{fill:#4285F4;}
	.st2{fill:#E94235;}
	.st3{fill:#FABB05;}
</style>
<g>
	<path class="st0" d="M169,126.2c-1.8-7.3,3.7-41.4-8.3-38.3c-4.7,5.4-0.5,20.1-0.6,27.7c2.5,8.2-6.8,46.7,7.6,40.1
		C170.9,147.4,168.1,135.7,169,126.2z"/>
	<path class="st1" d="M64.3,142c-0.2-6.7-3.9-14.9-9-19c-3.6-4.4-9.9,1.3-14.7-0.5c-4.6-0.9-6.4,7.2-1.9,7.6
		c4.1,0.7,9.3-0.9,12.8,0.4c3.5,5.7,8.6,15.6-0.7,18.3c-16.6-2.5-32.1-15.2-31.8-33.4c1.8-12.8,16.3-23.9,29.5-19.2
		c4.2-0.4,6.4,4.3,10.3,4.2c5.9,1.2,6.2-6.3,2.1-9.1c-0.9-1.8-3-1.3-4.8-1.3c-0.2-1.6-1.5-0.6-2.4-1.1c-1.6-0.6-3.1-1.8-4.9-1.8
		c-10.3-1.7-20.2,0.8-27.8,7.3c-0.3,3.8-4.1,4.7-6.2,7.6c-9.1,11.8-2.4,27.3,3.5,39C29.1,152.1,61.5,168.5,64.3,142z"/>
	<path class="st1" d="M244.6,126.6c4.2-4.4-2.4-9-5.1-12.1c-1.8-2-1.1-6.4-5.5-6c-6.6,0.3-14.7-3-19.1,3.6c-5.3,2.3-7,9.6-3.2,13.6
		c4.8,7.8,15.3,2.6,21.1,7c1.5,2,4.2-0.7,3.4,3.5c-3.2,36.1-30.3,14.8-31,25.3c0-0.2-0.1-0.4-0.1-0.6c-0.6,9.6,19.5,4.7,25,3.6
		c9.2-5.9,10.3-8.5,13.1-18.3c0.3-4.3,1-8.3,1.1-12.7C243.2,131.2,242.1,128.4,244.6,126.6z M224.5,123c-2.3-0.2-3.9-1.1-5.9-2.5
		c-1-1.2,3.3-3,4.4-4c1.7-1.2,3.3,1,5.3,0.4c2.6-0.9,2.6,3,1.2,4.1C227.8,122.1,226.5,124.6,224.5,123z"/>
	<path class="st2" d="M204,145.9c-45.8-32.8,3.1-0.3-7.6-33.6c-2.4-8.5-15.5-9.8-20.3-2.7c-7.1,12.9-4.9,24.3,7.5,33.2
		C188.7,145.8,208.3,163.3,204,145.9z M184.2,116.6c1.1-4.4,5.5-0.9,4.5,2.3c-0.1,2.4-4.6,1.5-6,0.9
		C183.1,118.7,184.5,118.1,184.2,116.6z"/>
	<path class="st3" d="M148.8,113.2c2.6-7.3-7.9-12.3-9-3.5c2.3,12.3-4.5,38.4-16.2,17.5c-6.7-5.6,3.9-21.6-7.6-20.7
		c-7.5,2.3-3.7,15.2-3.1,21.3c1.5,4.9,6.5,8,9.8,11.8C138.6,158.1,151.2,127.7,148.8,113.2z"/>
	<path class="st2" d="M112.6,138c0.4-6.4-5.8-10.8-6.6-16.4c-1.6-0.8-3.3-2.9-4.4-5.3c-3.2-2.2-5.4-4.8-8.2-7.4
		c-3.5-10.5-11.4-5.8-17.3,0.2c-9,6.4-4.3,20-5.6,29.6C76.6,154.9,116.6,165.2,112.6,138z M96.1,145.6c-3.2-0.7-6-2.2-9-3.3
		c-1.9-2.9-5-4.2-7.1-6.5c-0.3-5.7-2.9-22.5,6.2-19.5c2.3,1.8,3.5,4.6,6.5,5.5c1.5,0.9,1,2.1,3.2,2.9c1.7,6.1,10.4,12.3,6.7,19.1
		C100.8,146.6,99,146.9,96.1,145.6z"/>
</g>
</svg>
