<?xml version="1.0" encoding="utf-8"?>
<!-- Generator: Adobe Illustrator 26.2.1, SVG Export Plug-In . SVG Version: 6.00 Build 0)  -->
<svg version="1.1" id="Calque_1" xmlns="http://www.w3.org/2000/svg" xmlns:xlink="http://www.w3.org/1999/xlink" x="0px" y="0px"
	 viewBox="0 0 256 256" style="enable-background:new 0 0 256 256;" xml:space="preserve">
<style type="text/css">
	.st0{fill:#98D7E8;}
	.st1{fill:#FD8029;}
	.st2{fill:#0EA5E7;}
	.st3{fill:#FDF104;}
	.st4{fill:#C54F00;}
	.st5{fill:#FEFEFE;}
</style>
<path class="st0" d="M183.2,207.3c-1,0-1.4,0.6-1.4,1.6c0,0.4,0,0.8,0,1.2c0,0.7,0,1.3-0.7,1.6c-0.3,0.1-0.4,0.5-0.4,0.8
	c-0.5,0-1,0.1-1.5,0.1c-3-0.3-6.1-0.1-9.1-0.2c-0.8,0-1.5,0.2-2.1,0.7c-0.3,0.3-0.7,0.4-1.1,0.4c-1.7,0-3,1.2-4.6,1.4
	c-0.6,0.1-1.3,0.5-2.1,0.5c-1.1,0-2.2,0-3.2,0c0.4-1.5,1-3.1,2-4.2c1.6-1.7,2-3.8,2.1-5.9c0.2-2,0-4.1,0-6.1c0-2.2-0.8-3.1-3-3.3
	c-1-0.1-2.2,0.3-2.6-1.1c0-0.1-0.2-0.2-0.3-0.2c-0.5-0.2-0.8-0.6-0.7-1.2c0.1-1-0.4-1.7-1.2-2.2c-1.6-1.1-3.4-0.6-5.1-0.5
	c-1.3,0.1-2.5,1.1-3.9,0.5c-1.1-0.5-2.2-0.9-3.4-1.1c-1.4-0.3-2.4-0.9-3-2.3c-0.1-0.3-0.3-0.6-0.6-0.7c-1.2-0.8-2.1-1.9-3.2-2.8
	c-2-1.6-5.9-1.9-7.7-0.3c-1.9,1.7-4.1,3.3-5.1,5.8c-0.7,1.6-1.7,3.1-1.8,4.9c0,2,0,4.1,0,6.1c0,0.1,0.1,0.2,0.2,0.3
	c0,0.1,0,0.3,0,0.4c-0.6,0.5-1.2,0.4-1.8-0.1c-0.9-0.7-1.8-1.3-2.7-2c-1.1-0.9-2.4-1.4-3.9-1.3c-2.1,0.1-4.2-0.1-6.3,0.5
	c-2.2,0.7-3.1,2-3.1,4.3c0,0.7,0.4,1.4,0.4,2.1c0,1.1,0.5,2,1.4,2.8c0.8,0.7,1.6,1.5,2.3,2.4c0.5,0.5,0.4,1.3,0.1,1.8
	c-0.3,0.4-0.7-0.3-1-0.5c-1.6-1.1-4.4-0.8-5.6,0.6c-1.4,1.8-1.3,4-0.7,6c0.3,1.1,0.9,2.2,1.3,3.3c-0.6,0.2-1.1,0.8-1.7,1
	c-2.2,0.6-4.4,1.4-6.7,1.1c-0.7-0.1-1.4,0-2,0.5c-0.6,0.4-1.2,0.5-1.9,0.4c-0.7,0-1.4,0-2.2,0c-0.8,0-1.4,0.3-1.7,0.9
	c-0.9,1.6-2.4,2-3.9,2c-3.3,0.1-6.7,0-10,0c-0.6,0-1.1-0.1-1.5-0.6c-0.8-1.1-1.9-1.5-3.3-1.4c-1.3,0.1-2.2-1-3.3-1.4
	c-0.9-0.3-1.3-1.6-2.6-1.7c-0.3-1.3-1.5-1.6-2.4-2.3c-1.8-1.4-3-3.4-3.9-5.6c-1.7-3.9-3.9-7.6-7.2-10.5c-0.5-0.4-0.9-0.9-1.4-1.4
	c-0.2-0.2-0.5-0.4-0.5-0.7c-0.2-1.9-1.4-3.5-2.4-4.9c-1.1-1.5-1.7-2.9-1.6-4.7c0-0.3-0.1-0.6-0.2-0.9c-0.7-2.1-0.9-4.2-0.8-6.4
	c0-0.4,0-0.8,0-1.2c0.1-0.9-0.1-1.7-0.8-2.5c-0.7-0.8-0.4-2.3,0.5-2.5c2.1-0.6,4.1-1.1,6.2-1.5c2.1-0.5,4.3-0.7,6.4-1.2
	c2.4-0.6,4.9-0.7,7.3-1c1.9-0.2,3.7-0.3,5.5-1.2c0.9-0.5,1.9-1,2.9-1.1c3-0.5,5.9-1.1,8.9-1.1c8.8,0,17.6,0,26.4,0
	c1.9,0,3.7-0.4,5.6-0.8c0.6-0.1,1.2-0.1,1.6-0.4c2.4-1.7,5.6-1.7,7.9-3.7c0.1-0.1,0.3-0.1,0.5-0.1c1.3,0.2,2.5-0.5,3.7-0.8
	c0.4-0.1,0.7-0.2,1.1-0.2c10.7,0,21.5,0,32.2,0c0.3,0,0.7-0.1,0.8,0.2c0.5,0.8,1.3,1.2,1.7,2.1c0.8,2.3,1.7,4.7,1.4,7.2
	c-0.2,1.8,1.4,3.2,1.3,5c0,0.2,0.2,0.4,0.4,0.5c1.3,1.1,1.5,3.1,3.3,3.8c0.1,0,0.1,0.2,0.1,0.3c0.1,0.6,0.6,0.9,1.1,1.1
	c0.9,0.3,1.5,0.9,1.8,1.8c0.2,0.6,0.6,1,1,1.4c0.9,0.8,1.6,1.7,2.1,2.8c0.2,0.5,0.6,0.9,1,1.3c2.6,2,4,5,6.2,7.3
	c0.2,0.2,0.3,0.4,0.4,0.6c1,1.8,2.4,3.4,4.1,4.6C182.4,206,182.9,206.5,183.2,207.3z"/>
<path class="st1" d="M129.5,40.4c6,0,11.9,0,17.9,0c1.1,0,2.3,0,3.4,0.1c0.1,0.8-0.1,1.8,0.9,2.2c0.2,0.5,0.3,1.1,0.3,1.7
	c0,2.7,0,5.3,0,8c0,0.9,0.2,1.3,1.1,1.2c0.9-0.1,1.7,0,2.6,0c0.5,0,1.1,0.2,1.1,0.6c0,1.3,0.6,2.4,1.2,3.4c0.1,0.2,0,0.6,0,0.9
	c0,3.4-0.1,6.7,0,10.1c0,1.2-0.3,2-1.2,2.7c-0.8,0.5-1.2,1.6-2.3,1.6c-0.2,0-0.5,0.3-0.5,0.5c0,1-0.8,1.4-1.5,1.7
	c-0.7,0.3-1.3,0.8-1.8,1.3c-0.6,0.6-1.1,1.3-2.1,1.4c-0.2,0-0.5,0.2-0.5,0.5c-0.1,1.3-1.3,1.9-2,2.8c-0.4,0.5-1,0.7-1.7,0.7
	c-3.1,0-6.2,0-9.3,0c-0.5,0-0.9-0.1-1.3,0.4c-0.4,0.6-1,0.6-1.6,0.6c-2.4,0-4.9,0-7.3,0c-0.7,0-1.4,0-1.8,0.7
	c-1.1,0.2-2.2,0.3-3.3,0.5c-0.4,0-0.7,0.1-0.7,0.5c-0.1,0.9-0.7,1.2-1.4,1.3c-0.4,0.1-0.6,0.3-0.7,0.6c-0.5,0.3-1,0.4-1.6,0.4
	c-2.3,0.1-4.6-0.2-6.8,0.1c-0.5-0.1-0.9-0.2-1.4-0.2c-2.7,0-5.5,0-8.2,0c-0.7,0-1.4-0.1-2-0.5c-0.2-0.4-0.6-0.4-0.9-0.4
	c-0.8,0.1-1.4-0.2-2.1-0.8c-1-0.9-2.2-1.5-3.4-2.1c-2-0.9-2.5-1.4-2.5-3.6c0-0.6,0.2-1.3-0.4-1.7c-1.5-1-1.7-2.4-1.6-4.1
	c0.1-0.8,0.1-1.5,0.9-2.1c1.3-1.1,1.2-1.7-0.1-2.5c-0.4-0.2-0.8-0.2-1.3-0.2c-1.3-0.1-2.5-1.4-2.6-2.7c0-1.5,0.1-3,0-4.5
	c-0.1-1.5,0.7-2.4,1.8-3c0.9-0.5,1.3-1,1.2-2.1c-0.1-1.9,1.1-3,3-3c1,0,2,0,3,0c2.2,0,1.9,0.3,1.9-1.9c0-2,1.1-3.1,3.2-3.1
	c2.3,0,4.5,0,6.8,0c0.4,0,0.9,0.1,1-0.5c0.2-1.2,1.2-2.1,1.1-3.4c0-0.3,0.2-0.6,0.5-0.8c0.3-0.3,0.5-0.6,0.5-1
	c0.1-0.8,0.6-1.2,1.5-1.2c1,0,1.9,0,2.9,0c0.5,0,1,0,1.2-0.7c1.2-0.3,2.5-0.3,3.7-0.3c3.3,0,6.7,0,10,0l0,0c0.1,0.2,0.3,0.4,0.6,0.2
	l0,0c0,0.6,0.4,0.9,0.8,0.9c0.7,0,1.4-0.1,1.7-0.9C129.4,40.7,129.5,40.6,129.5,40.4z M113,60.1c0,1,0,2,0,3c0,1.9,0,1.9,1.7,2.6
	c0.1,0,0.1,0.1,0.2,0.1c1.4,1.1,2.8,1.1,4.2,0c0.1-0.1,0.3-0.2,0.5-0.2c0.7,0.1,1.1-0.4,1.5-0.8c0.3-0.4,0.6-0.9,1-1.1
	c1.5-0.9,2-2.1,1.8-3.8c-0.1-0.7,0.1-1.4,1.1-1.4c0.5,0,0.8-0.4,0.9-0.8c0.2-0.7,0.1-1.4,0-2.1c-0.1-0.6-0.4-1.1-1-1
	c-0.6,0.1-1,0.4-1,1.1c0,0.6-0.3,0.7-0.9,0.8c-0.9,0.1-1.2-0.2-1.2-1.1c0.1-0.9-0.1-1.7-1.3-1.8c-0.4,0-0.7-0.3-1-0.6
	c-0.7-0.6-1.9-0.6-2.6,0.2c-0.8,0.8-1.5,1.6-2.9,1.4c-0.8-0.1-1.2,0.4-1.2,1.3C113,57.3,113,58.7,113,60.1z"/>
<path class="st2" d="M116.9,86.3c0.1-0.3,0.4-0.5,0.7-0.6c0.8-0.1,1.3-0.5,1.4-1.3c0.1-0.4,0.4-0.4,0.7-0.5c1.1-0.1,2.2-0.3,3.4-0.5
	c0.2,0,0.4,0.1,0.6,0.1c3.2,0,6.3,0,9.5,0c0.6,0,1.1-0.2,1.5-0.5c0.5-0.3,1.1-0.4,1.6-0.4c5.3-0.1,10.6-0.2,15.9-0.1
	c2.1,0,4,0,5.5-1.6c0-0.1,0.1-0.1,0.2-0.1c0.6-0.4,0.8-0.1,0.8,0.5c-0.1,0.7-0.3,1.4-0.2,2.1c0.1,0.6-0.2,0.8-0.8,0.8
	c-1.1,0.1-1.7,0.7-1.8,1.8c-0.1,1.3-0.7,2.3-1.4,3.3c-0.2,0.3-0.7,0.6-0.4,1.1c0,0.5,0.1,1-0.1,1.5c-0.7,0.8-1.1,1.7-1.1,2.8
	c0,4.9,0,9.8,0,14.6c0,0.9,0,1.7-0.7,2.4c-0.3,0.3-0.3,0.8-0.3,1.3c0,11.2,0,22.3,0,33.5c0,0.5,0,1,0.4,1.3c0.7,0.4,0.6,1,0.6,1.6
	c0,0.9-0.3,2.1,0.1,2.7c1.2,1.5,1.3,3.4,2.5,5c0.7,1,0.7,2.6,1.4,3.8c0.2,0.3,0.4,0.8,0.6,1.2c0.6,1.1,2.1,1.9,1.1,3.5
	c-0.1,0.2,0,0.4,0.1,0.6c1.4,2.7,2.5,5.4,2.2,8.6c0,0.4-0.1,0.7,0.3,1c1.1,0.8,0.9,1.8,0.4,2.9c-0.4,0.9-0.1,1.5,0.8,1.7
	c0.8,0.1,1.2,0.6,1.5,1.2c0.2,0.6,0.6,1,1.1,1.2c0.5,0.2,0.8,0.5,1,1c0.1,0.4,0.4,0.6,0.7,0.8c0.9,0.4,1.4,1,1.7,1.9
	c0.2,0.6,0.7,1.1,1.2,1.5c0.9,0.7,1.5,1.6,1.9,2.6c0.3,0.6,0.6,1,1.1,1.4c2.4,2.3,4.6,4.8,5.8,7.9c0.1,0.2,0.3,0.3,0.5,0.4
	c0.1,0,0.1,0,0.1,0.1c0.6,0.3,1.1,0.7,1.8,0.7l0,0c0.1,0.5-0.1,1.1,0.5,1.4c0.1,0,0.1,0.1,0.1,0.2c0,0.3,0.1,0.5,0.4,0.5
	c0.1,0,0.1,0.1,0.1,0.1c0,0.2,0.1,0.3,0.3,0.3c0.1,0,0.1,0,0.1,0.1c0.5,1.1,0.6,2.6,2.3,2.7c0.1,0,0.2,0.1,0.2,0.2
	c0.3,0.9,1.1,1.3,1.9,1.5c0.3,0.3,0.6,0.7,0.9,1c0.4,0.3,0.4,0.7,0.3,1.1c-0.1,0.5-0.5,0.5-0.9,0.6c-1.5,0.3-2.1-0.8-2.9-1.7
	c0-0.4,0.2-0.9-0.3-1.2c-0.2-0.1-0.3-0.3-0.5-0.4c-0.3-0.8-0.8-1.3-1.5-1.8c-1.7-1.2-3.1-2.7-4.1-4.6c-0.1-0.2-0.2-0.5-0.4-0.6
	c-2.3-2.3-3.6-5.3-6.2-7.3c-0.4-0.3-0.8-0.7-1-1.3c-0.5-1.1-1.2-2-2.1-2.8c-0.4-0.4-0.8-0.8-1-1.4c-0.3-0.9-0.9-1.5-1.8-1.8
	c-0.5-0.2-1-0.5-1.1-1.1c0-0.1-0.1-0.2-0.1-0.3c-1.8-0.7-2-2.7-3.3-3.8c-0.2-0.1-0.4-0.3-0.4-0.5c0.1-1.8-1.5-3.2-1.3-5
	c0.3-2.6-0.6-4.9-1.4-7.2c-0.3-0.9-1.2-1.3-1.7-2.1c-0.2-0.3-0.5-0.2-0.8-0.2c-10.7,0-21.5,0-32.2,0c-0.4,0-0.8,0.1-1.1,0.2
	c-1.2,0.4-2.4,1-3.7,0.8c-0.2,0-0.4,0-0.5,0.1c-2.2,2.1-5.4,2.1-7.9,3.7c-0.4,0.3-1.1,0.3-1.6,0.4c-1.8,0.4-3.7,0.8-5.6,0.8
	c-8.8-0.1-17.6,0-26.4,0c-3,0-6,0.6-8.9,1.1c-1,0.2-2,0.6-2.9,1.1c-1.7,0.9-3.6,1-5.5,1.2c-2.4,0.3-4.9,0.4-7.3,1
	c-2.1,0.5-4.3,0.8-6.4,1.2c-2.1,0.4-4.2,1-6.2,1.5c-0.9,0.3-1.2,1.7-0.5,2.5c0.6,0.8,0.8,1.5,0.8,2.5c0,0.4,0,0.8,0,1.2
	c-0.1,2.2,0.1,4.3,0.8,6.4c0.1,0.3,0.2,0.6,0.2,0.9c-0.1,1.8,0.6,3.2,1.6,4.7c1,1.4,2.2,3,2.4,4.9c0,0.2,0.3,0.5,0.5,0.7
	c0.4,0.5,0.9,0.9,1.4,1.4c3.2,2.9,5.4,6.6,7.2,10.5c0.9,2.2,2.1,4.2,3.9,5.6c0.9,0.7,2.1,0.9,2.4,2.3c1.2,0.1,1.7,1.4,2.6,1.7
	c1.1,0.4,2,1.5,3.3,1.4c1.4-0.1,2.5,0.2,3.3,1.4c0.4,0.5,0.9,0.6,1.5,0.6c3.3,0,6.7,0.1,10,0c1.5-0.1,3.1-0.5,3.9-2
	c0.4-0.6,0.9-1,1.7-0.9c0.7,0,1.4,0,2.2,0c0.7,0,1.3,0,1.9-0.4c0.6-0.4,1.3-0.6,2-0.5c2.4,0.3,4.5-0.5,6.7-1.1c0.6-0.2,1-0.8,1.7-1
	c0.1,0.1,0.3,0.1,0.4,0.2l0,0c0,0.2,0.1,0.4,0.3,0.4c0.1,0.1,0.1,0.2,0.2,0.3c0.1,0.3,0.2,0.4,0.5,0.3c0.1,0.1,0.3,0.1,0.4,0
	c0.5,0.1,0.6-0.1,0.6-0.6c0.1-0.3,0.1-0.6-0.1-0.9c0.1-0.6,0.5-0.7,1-0.7c0.7,0,1.6,0.3,2.2-0.2c0.9-0.8,1.9-0.9,3-0.8l0,0
	c0.1,0.3,0.2,0.4,0.5,0.4l0,0l0.1,0c0.2,0.3,0.4,0.6,0.8,0.5c0.1,0,0.2,0,0.3,0c1.1-0.3,0.7-1.2,0.8-1.8l0,0c0.2,0,0.4,0,0.5-0.1
	c1.5,0.2,3,0.1,4.5,0.1c1.5,0,3,0.1,4.3-0.8c0.3-0.2,0.8-0.1,1.2-0.2c2.3-0.4,4.6,0.6,7,0.1c0.9-0.2,1.7-0.4,2.5-0.8
	c0.4-0.2,0.8-0.3,1.2-0.3c3.5,0,7.1,0,10.6,0c0.6,0,0.9,0.1,1.1,0.7c0.1,0.4,0.4,0.9,1,0.8c0.6-0.1,0.7-0.5,0.9-1
	c0-0.2,0.2-0.4,0.2-0.6c0.9,0,1.8,0.3,2.5-0.5c0.1,0.1,0.2,0,0.3-0.1c0.4-0.1,0.7-0.3,1.1-0.4c1.4,0.1,2.9,0.1,4.3,0
	c0.5,0,0.7,0.4,1,0.6c0.4,0.3,0.9,0.5,1.2-0.1l-0.1,0l0.1,0c0.3,0,0.4-0.3,0.6-0.5c1.1,0,2.2,0,3.2,0c0.8,0,1.5-0.4,2.1-0.5
	c1.7-0.2,3-1.4,4.6-1.4c0.4,0,0.8-0.1,1.1-0.4c0.6-0.5,1.3-0.7,2.1-0.7c3,0.1,6.1-0.2,9.1,0.2c0.5,0.1,1-0.1,1.5-0.1
	c0.4,0,0.8,0,1.2,0c0.1,0.2,0.3,0.3,0.5,0.3c0.1,0.1,0.2,0.2,0.3,0.4c-0.1,0.3-0.1,0.5,0,0.7c-0.1,0.4-0.3,0.6-0.7,0.6
	c-2.1,0-4.3-0.1-6.4-0.1c-1.8,0-3.6-0.1-5.5,0.1c-0.1,0-0.2,0-0.4,0c-0.4-0.2-0.6,0-0.7,0.3c-0.4,0.4-0.9,0.7-1.5,0.7
	c-0.4,0-0.6,0.1-0.8,0.4c-0.2,0.4-0.5,0.5-0.9,0.5c-1-0.1-2.1-0.6-2.9,0.4c-0.5,0.5-1.1,0.6-1.8,0.6c-3.6,0-7.2,0-10.8,0
	c-0.3-0.1-0.5,0-0.5,0.3c-1.2,0.7-2.5,0.7-3.8,0.7c-4.6,0-9.2,0-13.8,0c-0.4,0-0.8-0.1-0.9,0.4c-0.1,0.1-0.3,0.1-0.4,0.2
	c-0.2,0-0.4,0-0.4,0.2c-2.7,0-5.5,0-8.2,0.1c-0.4,0-0.9-0.1-1.3,0.1c-0.3-0.1-0.4,0.1-0.5,0.3c-0.1,0-0.2,0.1-0.4,0.1
	c-0.3,0-0.4,0.1-0.5,0.3c-2.1,0.3-4.3,0.1-6.4,0.1c-1,0-1.9,0-2.7,0.8c-0.5,0.5-1.4,0.2-2.1,0.2c-0.7,0-1.3,0.1-1.8,0.6
	c-0.5,0.6-1.3,0.4-1.9,0.4c-0.8,0-1.6,0.1-2.2,0.7c-0.6,0.6-1.4,0.2-2,0.4c-0.3-0.1-0.5,0-0.5,0.3c-0.6,0.6-1.3,0.7-2.1,0.7
	c-0.3-0.1-0.4,0-0.5,0.3c-0.3,0.1-0.6,0.2-0.9,0.2c-0.3-0.1-0.4,0-0.5,0.3c-1.1,0.3-2.2,0.3-3.3,0.2c-0.8,0-1.6,0-2.4,0.5
	c-1.1,0.8-2.3,0.5-3.5,0.5c-0.8,0-1.4,0.1-1.7,1c-0.3,0.7-0.8,1.2-1.6,1.1c-0.4,0-0.7,0.2-1,0.3c-0.1-0.1-0.1-0.2-0.2-0.2
	c-0.2,0-0.2,0.2-0.2,0.4c0,0,0,0,0,0c-0.4,0-0.6,0.1-0.9,0.4c-6,0-11.9,0-17.9,0c-0.6,0-1.1-0.1-1.3-0.7c-0.2-0.6,0.1-1,0.7-1.3
	c0.6-0.3,0.3-0.5,0-0.7c-0.4-0.3-0.9-0.3-1.4-0.3c-0.5,0-1,0-1.2-0.6c0-1.3-0.2-1.5-1.5-1.4c-0.7-0.4-1.2-1-1.6-1.7
	c-0.1-0.3-0.2-0.4-0.5-0.3c-0.8,0-1.4-0.2-1.5-1.2c0-0.6-0.6-0.9-1-1.3c-0.9-1-1.9-1.8-2.2-3.3c-0.3-1.5-1.3-2.8-1.9-4.2
	c0-0.2-0.1-0.4-0.3-0.5c-1.5-2.1-2.6-4.4-4.6-6.1c-0.7-0.6-1.4-1.3-2.1-2c0.1-0.6-0.6-0.8-0.7-1.4c-0.1-1.2-0.6-2.3-1.6-3.2
	c-0.2-0.2-0.4-0.5-0.4-0.8c0-0.8-0.5-1.3-1-1.6c-0.8-0.5-1.1-1.3-1.1-2.2c0-0.9,0.1-1.8-0.1-2.7c-0.8-2.7-1.1-5.5-0.9-8.3
	c0-0.3,0.1-0.7-0.1-0.8c-0.7-0.8-0.9-1.7-0.9-2.8c0-0.4-0.4-0.7-0.8-0.4c-0.6,0.5-1.4,0.3-2,0.7c-1.5,1-3.2,1.1-4.9,0.9
	c-0.5,0-1.1,0-1.2-0.8c0-0.9,0.6-0.8,1.2-0.8c0.4,0,0.7,0,1.1,0c1.8,0.2,3.2-0.9,4.7-1.4c0.3-0.1,0.7-0.4,0.3-0.8
	c-0.5-0.6-0.5-1.2-0.5-1.9c0-2.3-0.1-4.5-0.7-6.7c-0.6-2-1.4-3.9-1.4-6c0-0.3-0.1-0.6-0.3-0.9c-0.4-0.7-0.6-1.4-0.6-2.1
	c0-1.8-1.3-3.2-1.3-5c0-0.1-0.1-0.2-0.2-0.3c-0.5-0.4-0.5-0.9-0.5-1.5c0.1-0.7-0.1-1.5-0.4-2.1c-0.6-0.9-0.6-1.9-0.6-2.9
	c0-17.1,0-34.2,0-51.3c0-1.5-0.1-1.6-1.7-1.6c-1.7,0-3.4,0-5.2,0c-0.5,0-1.1,0-1.1-0.7c0-0.7,0.6-0.7,1.1-0.7c1.8,0,3.6,0,5.4,0
	c1.3,0,1.5-0.1,1.5-1.5c0-4.9,0-9.8,0-14.8c0-0.5-0.1-1.2,0.3-1.6c0.9-0.9,0.8-1.9,0.8-3c0-0.4,0-0.8,0.1-1c0.9-1.4,0.7-2.9,0.7-4.4
	c0-2.7,0.6-5.2,1.7-7.7c0.5-1,0.7-2,1.1-3c0.5-1.4,1-3,2.7-3.6c0.6-0.2,0.9-0.7,1.1-1.2c0.3-0.8,0.9-1.2,1.8-1.3
	c0.9-0.1,1.6-0.5,2.2-1.2c1.4-1.7,3.5-2.5,5.2-3.8c1.2-0.9,2.4-1.7,3.9-2.3c1.1-0.4,2.2-1,3.2-1.4c1.1-0.4,2.2-0.8,3.2-1.2
	c0.7-0.3,1.9-0.6,1-1.9c-0.2-0.3-0.1-0.7,0.3-0.8c1.3-0.2,2.7-0.5,4,0.2c0.6,0.3,1.2,0.6,1.9,0.6c4.5,0,8.9,0,13.4,0
	c15,0,29.9,0,44.9,0c1.7,0,3,1,4.4,1.8c-3.3,0-6.7,0-10,0c-1.3,0-2.5,0-3.7,0.3c-0.3-0.2-0.6-0.2-0.9-0.2c-16.2,0-32.4,0-48.6,0
	c-0.4,0-0.8,0-1,0.3c-0.5,0.7-1.2,0.6-1.8,0.6c-0.7,0-1.4-0.2-2,0.4c-0.4,0.4-1,0.5-1.4,0.7c-0.9,0.5-1.9,0.6-2.7,1.2
	c-1.4,0.9-3,1-4.4,1.7c-0.5,0.3-1.1,0.3-1.4,0.9c-0.3,0.6-0.9,0.9-1.5,1.2c-1.2,0.7-3,0.9-3.5,2.3c-0.5,1.4-1.5,1.6-2.4,2.2
	c-0.4,0.3-0.7,0.4-1.2,0.4c-0.6-0.1-1.1,0.2-1.4,0.8c-0.3,0.6-0.6,1.2-1.3,1.4c-1.2,0.4-1.7,1.5-2.1,2.6c-0.3,1-0.6,2-1.1,2.9
	c-1.5,2.8-2.1,5.8-1.9,9c0.1,1.1,0,2.1-0.7,3.1c-0.3,0.4-0.3,1-0.3,1.5c0,1.1,0.1,2.2-0.9,3.1c-0.2,0.2-0.2,0.5-0.2,0.8
	c0,5,0,9.9,0,14.9c0,0.7,0.3,1,1,1c1.3,0,2.5-0.1,3.7-0.5c1.8-0.7,3.7-0.5,5.5-0.5c2.5,0,5,0.1,7.5-0.1c2.9-0.3,5.8-0.8,8.7-0.8
	c3.4,0,6.6-0.8,9.9-1.4c3.7-0.7,7.4-1.5,11.2-1.6c0.9,0,1.8,0.1,2.7-0.1c3-0.5,6-1.2,9-1c0.4,0,0.9-0.1,1.3-0.1
	c2.1-0.2,4.2-0.8,6.3-1.3c0.6,0.4,1.3,0.5,2,0.5c2.7,0,5.5,0,8.2,0c0.5,0,0.9,0.1,1.4,0.2c-0.4,0.4-0.9,0.5-1.5,0.6
	c-1.4,0.2-2.7,0.2-4.1,0.2c-2.1,0-4.2-0.1-6.3,0.6c-1.6,0.5-3.3,0.9-5,1.1c-3.7,0.4-7.4,0.3-11.1,1.1c-3,0.6-6.2,0-9.3,0.8
	c-2.2,0.6-4.4,0.7-6.6,1.2c-3.3,0.8-6.5,1.2-9.9,1c-0.7,0-1.4,0.1-2.1,0.2c-2.6,0.3-5.1,1-7.8,0.9c-2.4-0.1-4.7,0-7.1,0
	c-0.8,0-1.6,0-2.4,0.4c-1.3,0.5-2.6,0.8-4,0.7c-1.4-0.1-1.4,0-1.4,1.5c0,17,0,34.1,0,51.1c0,0.8,0.1,1.6,0.5,2.2
	c0.4,0.6,0.5,1.3,0.5,2c0,0.3-0.1,0.7,0.2,0.9c0.7,0.6,0.7,1.3,0.7,2.2c0,0.5,0.1,0.9,0.3,1.3c1,1.9,0.7,4.1,1.8,6
	c0.1,0.2,0,0.6,0,0.9c0,0.5,0.1,1.1,0.3,1.6c1.2,3.3,2,6.6,1.7,10.2c-0.1,1.3,0.7,1.8,1.9,1.4c4-1.3,8.1-1.9,12.2-2.8
	c3.1-0.7,6.2-0.9,9.3-1.2c1-0.1,2.2-0.1,3.1-0.6c3.9-2,8.2-2.6,12.5-2.7c9.4-0.2,18.7,0,28.1-0.1c2.5,0,4.9-0.5,7.1-1.7
	c0.9-0.5,1.8-1,2.7-1.2c1.3-0.2,2.2-0.8,3.1-1.5c0.3-0.3,0.7-0.6,1.1-0.5c1.3,0.2,2.5-0.2,3.7-0.7c0.8-0.3,1.5-0.4,2.3-0.4
	c10.2,0,20.4,0,30.6,0c0.2,0,0.4,0,0.5,0c0.6,0,0.6-0.1,0.7-0.8c0.1-1.7-1.6-2.9-1.2-4.7c-1.3-1.3-1.1-3.3-2.4-4.6
	c-0.6-0.6-0.6-1.3-0.6-2c0-0.9,0.2-1.8-0.7-2.4c-0.3-0.2-0.2-0.6-0.2-0.9c0-12,0-24,0-36.1c0-0.5,0.1-0.9,0.4-1.3
	c0.4-0.4,0.5-0.9,0.5-1.5c0-4.9,0-9.8,0-14.6c0-0.5-0.1-1,0.2-1.5c1.1-1.9,0.8-4.4,2.5-6.1c0.1-0.1,0.1-0.2,0.2-0.3
	c0.8-1.7,0.5-2.2-1.4-2.2c-4.5,0-8.9,0-13.4,0c-1.5,0-3-0.2-4.4,0.7c-0.3,0.2-0.8,0.1-1.2,0.1c-2.5,0-5.1,0-7.6,0
	c-1.4,0-2.7,0-4.1,0.2C120.1,85.8,118.6,86.6,116.9,86.3z"/>
<path class="st0" d="M165.1,167.2c0.6-3.2,2.7-5.1,5.3-6.7c1.3-0.8,2.4-1.8,3.5-2.8c1-1,2.2-1.7,3.3-2.5c2.4-1.6,5-2.2,7.7-2.6
	c2.5-0.4,5.1-0.7,7.6,0.4c0.8,0.4,1.6,0.4,2.5,0.4c5.5,0,11-0.1,16.6,0c2.6,0,5.1,0.4,7.6,0.9c2.4,0.4,4.7,0.9,6.9,1.7
	c1.4,0.5,2.7,1.4,3.1,3c-0.4,0.1-0.8,0.1-1.1,0.3c-2,0.9-4.1,1.4-6.3,1.3c-0.8,0-1.4,0.1-2,0.6c-0.9,0.8-2.1,1.2-3.2,1.3
	c-1.5,0.2-2.7,0.9-3.3,2.2c-0.8,1.4-2.1,2.5-2.3,4.3c0,0.3-0.4,0.5-0.7,0.7c-0.8,0.6-1.9,1-2.2,2.1c-0.4,1.1-1.1,1.8-2,2.5
	c-1,0.8-2,1.8-2.9,2.8c-0.7,0.8-1.4,1.7-2.3,2.3c-0.2,0-0.3,0.2-0.3,0.3c0,0.1-0.1,0.1-0.1,0.1c-0.2,0-0.4,0-0.6,0.2
	c-1.8,1.5-3.6,2.9-5.7,3.9c-0.3,0.1-0.6,0.3-0.6,0.8c1.2-0.4,2.3-0.7,3.2-1.4c0.4-0.3,0.8-0.5,1.3-0.2c-0.8,1-1,2.4-1.8,3.4
	c-0.2,0.1-0.2,0.2-0.2,0.4l0,0c-0.2,0.1-0.4,0.1-0.5,0.2c-1.1,1.5-2.6,2.6-3.7,4c-0.5,0.6-0.8,1.2-0.7,2c-0.7,0.7-1.8,0.9-2.2,1.8
	c-0.4,1.2-1,2.2-1.7,3.2c-1.1,1.8-0.7,1.8-2.7,0.6c-0.1-0.1-0.3-0.2-0.4-0.4c-1.2-1.3-2.2-2.7-3.6-3.8c-1.8-1.4-3.1-3.1-4.1-5.1
	c-0.5-1.1-0.9-2.1-1.8-3c-1.6-1.6-2.6-3.5-3.3-5.6c-0.2-0.6-0.5-1.1-1-1.5c-0.8-0.6-1.7-1.2-1.9-2.2c-0.2-0.9-0.4-1.8-0.9-2.6
	c-0.3-0.5-0.6-1-0.6-1.6C167.2,170.6,166.4,168.8,165.1,167.2z"/>
<path class="st3" d="M200.9,179.3c0.9-0.6,1.6-1.5,2.3-2.3c0.9-1,1.8-1.9,2.9-2.8c0.9-0.7,1.6-1.4,2-2.5c0.4-1.1,1.4-1.4,2.2-2.1
	c0.3-0.2,0.6-0.3,0.7-0.7c0.2-1.8,1.6-2.9,2.3-4.3c0.7-1.3,1.8-2,3.3-2.2c1.2-0.2,2.3-0.5,3.2-1.3c0.6-0.5,1.2-0.7,2-0.6
	c2.2,0.1,4.3-0.4,6.3-1.3c0.4-0.2,0.7-0.2,1.1-0.3c1.1-0.1,2.2-0.4,3.3-0.6c2.5-0.5,4.9-0.2,7.4-0.3c0.7,0,1.2,0.4,1.2,1.1
	c0,0.7-0.5,1-1.1,1c-0.7,0-1.3,0-1.4,1c0,0.6-0.7,0.9-1.4,0.9c-2,0-3.9,0-5.9,0c-1.3-0.2-2.5-0.1-3.7,0.5c-1.6,0.9-3.4,1.5-4.9,2.6
	c-2,1.6-4.2,2.8-6.3,4.1c-2.4,1.5-4.3,3.2-3.9,6.3c0.1,0.7-0.2,1.3-0.4,2c0,1.2-0.7,1.9-1.6,2.7c-1.7,1.4-3.3,2.9-3.7,5.2
	c-0.1,0.3-0.3,0.7-0.4,1c-0.2,0.4-0.5,0.7-1,0.7c-0.5,0-0.9-0.3-1-0.8c-0.2-0.7-0.4-0.6-1-0.4c-1,0.5-1.2,1.4-1.4,2.3
	c-0.9,2.7-2.6,4.9-4.7,6.7c-2.7,2.3-5.4,4.5-7.5,7.3c-0.7,0.9-1.6,1.7-1.8,3c-0.1,0.9-0.8,1.5-1.5,2c-0.7,0-1.2-0.2-1.4-0.9
	c-0.1-0.4-0.3-0.6-0.8-0.7c-1.1-0.1-1.3-1-1.4-1.9c-0.1-0.5,0.1-1,0.1-1.5c0,0.6,0,1.1-0.8,1.1c0-0.1,0-0.1-0.1-0.1
	c0-0.2-0.1-0.3-0.3-0.3c0-0.1-0.1-0.1-0.1-0.1c0-0.3-0.2-0.4-0.4-0.5c0-0.1-0.1-0.1-0.1-0.2c-0.1-0.5,0.2-1.1-0.5-1.4c0,0,0,0,0,0
	c-0.6-0.6-0.4-1.2-0.1-1.9c-0.6,0.5-0.9,1.2-1.7,1.2c0-0.1,0-0.1-0.1-0.1c-0.7-1.2-0.3-2.1,0.7-2.9c0.2-0.2,0.7-0.3,0.4-0.7
	c-0.4-0.4-0.5,0.1-0.7,0.3c-1.1,1.2-1.4,1.2-2.2-0.2c-0.5-1-1-2-1.9-2.7c-2.5-1.9-3.6-4.9-5.8-6.9c-0.3-2.1-2.6-2.5-3.3-4.3
	c-0.1-0.2-0.3-0.3-0.5-0.3c-0.7-0.2-0.9-0.7-1.3-1.3c-0.3-0.5-0.1-1.5-1.3-1.4c-1.2,0.1-1.2-0.2-0.7-1.3c0.4-0.9,0.4-1.9-0.2-2.6
	c-0.5-0.5-0.7-1-0.7-1.7c0.3-2.8-0.8-5.3-1.9-7.8c-0.1-0.3-0.3-0.6-0.2-0.8c0.6-1.2-0.3-1.9-0.7-2.9c-0.4-0.9-1.1-1.6-1.4-2.6
	c-0.2-0.9-0.9-1.7-0.8-2.8c0-0.3-0.2-0.6-0.4-0.7c-0.7-0.6-0.9-1.4-1.1-2.1c-0.2-0.5-0.2-1.1-0.5-1.4c-1-0.9-0.8-2.1-0.8-3.2
	c0-0.9,0.1-1.9-0.9-2.5c-0.3-0.2-0.2-0.6-0.2-0.9c0-11.2,0-22.3,0-33.5c0-0.4,0-0.8,0.4-1.1c0.6-0.5,0.7-1.1,0.7-1.8
	c0-4.4,0-8.9,0-13.3c0-1.4-0.1-2.9,0.8-4.1c0.1-0.2,0.2-0.4,0.1-0.6c0.1-0.5,0.1-1,0.1-1.5c1.1-1.3,2.1-2.6,2.2-4.4
	c0.1-0.8,0.5-1.4,1.5-1.2c0.6,0.1,0.8-0.2,0.9-0.7c0.3-1.1,0.2-2.3,0.4-3.4c0.3-1.4,0.8-1.7,2.1-1.1c0.2,0.1,0.5,0.3,0.7,0.1
	c1-0.8,2.2-1.3,2.8-2.5l0,0c0.2,0.1,0.4,0,0.4-0.2c0.1-0.2,0-0.3-0.2-0.2l0.1-0.1c0.5,0.2,0.6-0.2,0.9-0.4c0.5-0.5,1-0.8,1.6-0.2
	c0.6,0.6,0.5,1.2,0,1.8c-0.8,1-1.8,1.7-2.9,2.4c-0.6,0.3-1,0.7-0.8,1.5c0.2,0.6-0.1,1.2-0.7,1.4c-1.8,0.5-2.2,2.1-2.4,3.6
	c-0.1,2-0.8,3.9-1.3,5.8c-0.5,1.7-0.8,3.5-1.3,5.2c-1.4,5.7-1.1,11.5-1.1,17.4c0,0.6,0.1,1.1,0.4,1.6c0.6,1.2,0.8,2.6,0.8,4
	c-0.1,1.7,0.2,3.4,0.7,5.1c0.3,1.1-0.1,2.4,0.3,3.5c1,2.8,0.7,5.7,1.4,8.5c0.3,1.2,0.1,2.5,0.5,3.7c0.2,0.5,0.2,1,0.5,1.5
	c0.5,0.7,0.5,1.6,0.6,2.4c0.5,4.2,0.3,8.5,0.5,12.7c0.1,2.2,0.3,4.5,1,6.6c0.3,0.9,0.7,1.8,1.4,2.4c1.3,1.6,2.1,3.4,2,5.5
	c0,0.6,0.3,1.1,0.6,1.6c0.5,0.8,0.7,1.7,0.9,2.6c0.3,1,1.2,1.6,1.9,2.2c0.5,0.4,0.8,0.9,1,1.5c0.6,2.1,1.6,4.1,3.3,5.6
	c0.9,0.9,1.3,1.9,1.8,3c1,2,2.3,3.7,4.1,5.1c1.3,1.1,2.4,2.5,3.6,3.8c0.1,0.1,0.2,0.3,0.4,0.4c2,1.3,1.7,1.3,2.7-0.6
	c0.6-1,1.2-2.1,1.7-3.2c0.3-1,1.5-1.2,2.2-1.8c1.5-0.4,3.2-0.5,3.3-2.6c0-0.1,0.1-0.2,0.2-0.3c0.4-1.1,1.2-2,1.4-3.2c0,0,0,0,0,0
	c0.2-0.1,0.2-0.2,0.2-0.4c0.8-1,1-2.4,1.8-3.4c1-1,1.7-2.1,2.4-3.3c0.1,0,0.1,0,0.1-0.1C200.8,179.6,200.9,179.5,200.9,179.3z
	 M201.4,184c0.5-0.4,0.8-0.9,1-1.5c0.3-0.6,0.6-1.4,1.3-1.7c1-0.4,0.9-1.3,1.2-2c0.1-0.1,0-0.4-0.1-0.5c-0.2-0.1-0.3,0.1-0.4,0.2
	c-0.6,0.7-1.3,1.3-1.9,2c-1.1,1.3-2,2.7-2.9,4.1c-0.8,0.8-2.6,4.8-2.4,5.4c0.6-0.4,0.9-0.9,1.2-1.4c0.6-1.2,1.1-2.4,2.1-3.3
	C200.9,185.1,201.5,184.7,201.4,184z"/>
<path class="st2" d="M164.6,77.2C164.6,77.2,164.6,77.2,164.6,77.2c-0.9,0.4-1.4,1.3-2.3,1.6c-0.4,0.1-2.1-0.1-2.3-0.3
	c-0.1-0.2,0-0.4,0.1-0.5c0.3-0.3,0.6-0.6,1-0.8c0.8-0.3,1.2-0.8,1.5-1.5c0.1-0.3,0.4-0.6,0.6-0.9c1.7-1.5,3.5-2.9,4.8-4.8
	c0.3-0.4,0.7-0.6,0.8-1.1c0.2-1.4,1.2-2.4,1.9-3.5c0.8-1.3,2.2-2,2.7-3.4c0.3-0.8,0.8-1.4,1.6-1.8c0.9-0.4,1.4-1,1.9-1.8
	c0.3-0.5,0.6-1,1.1-1.5c0.5-0.5,0.8-1.1,0.7-1.8c-0.1-0.7,0.1-1.5,0.8-1.6c1.1-0.2,1.2-0.9,1.1-1.8c0-0.2,0.1-0.3,0.1-0.5
	c0.4-1.2,0-1.8-1.3-1.9c-0.9,0-1.7,0-2.6,0c-0.3,0-0.7,0.1-0.9-0.3c-0.3-0.7-0.9-0.6-1.5-0.6c-0.8,0-1.6,0-2.4,0
	c-0.4,0-0.9,0-1.2-0.4c-0.3-0.5-0.7-0.7-1.3-0.7c-0.4,0-0.7-0.2-0.9-0.5c-0.3-0.2-0.5-0.5-0.9-0.6c-1.2-0.2-2.1-1.2-3.5-1
	c-0.1,0-0.2,0-0.2-0.1c-0.7-1.2-1.8-0.9-2.9-0.8c-0.7,0-1.2-0.2-1.7-0.7c-0.5-0.5-1.1-1.2-1.9-1.2c-2.1,0-4.2-0.1-6.2,0.1
	c-1-0.4-0.8-1.4-0.9-2.2c2.6,0,5.2,0,7.7-0.1c0.3,0,0.7,0,0.9,0.3c0.7,0.8,2,0.7,2.7,1.6c0.4,0.4,1.1,0.2,1.7,0.2
	c0.8,0,1.5,0.1,2.2,0.7c0.7,0.5,1.7,0.9,2.5,1.2c1.2,0.4,2.2,1.6,3.6,1.2c1.3,1.4,3,0.8,4.5,0.9c0.3,0,0.6,0,0.7,0.2
	c0.7,1,1.7,0.8,2.6,0.8c0.7,0,1.4,0.1,2,0.6c0.4,0.4,0.7,0.3,1.1-0.1c0.4-0.4,0.8-0.8,1.2-1.2c0.6-0.6,1.3-0.4,1.6,0.4
	c0.3,0.8,0.1,1.5-0.3,2.2c-0.6,1.3-1.5,2.3-2.4,3.4c-0.7,0.9-0.2,1.6,0.9,1.6c1.2,0,2.4,0,3.7,0.1c0.7,0,1.2,0.3,1.1,1.1
	c0,0.9-0.6,1-1.2,1c-0.8,0-1.6,0-2.4,0c-1,0-2-0.1-2.6,0.8c-0.1,0.1-0.3,0.2-0.5,0.2c-0.7,0-1,0.3-1.1,1c-0.1,0.7-0.6,1.2-1.4,1
	c-0.6-0.1-0.8,0.1-1.1,0.6c-0.5,0.9-1.2,1.6-2.2,1.9c-0.2,0.1-0.5,0.2-0.6,0.4c-0.8,2-2.8,3.2-3.8,5c-0.4,0.6-0.9,1.2-0.9,2
	c0,0.7-0.6,1.1-1.1,1.5c-0.7,0.6-1.3,1.3-1.6,2.1c-0.4,1.1-1.2,1.6-2.2,2c-0.7,0.3-1.1,0.7-1.3,1.5c0,0-0.1,0.1-0.1,0.1
	C164.6,76.8,164.5,77,164.6,77.2z"/>
<path class="st0" d="M212.2,177.6c0.1-0.7,0.4-1.3,0.4-2c-0.4-3.2,1.5-4.8,3.9-6.3c2.1-1.3,4.4-2.6,6.3-4.1c1.4-1.2,3.3-1.7,4.9-2.6
	c1.2-0.7,2.4-0.7,3.7-0.5c0.5,1,0.8,2.2,1.5,3.2c0.3,0.3,0.2,0.7,0.2,1c0,2.7,0,5.4,0,8.2c0,0.7-0.2,1.4-0.4,2.1
	c-0.3,0.9-1,1.1-1.7,0.5c-2.2-2.1-5-2.7-7.9-2.9c-1-0.1-2-0.3-3.1-0.1c-1.8,0.4-3.1,1.7-4.7,2.6C214.3,177,213.3,177.4,212.2,177.6z
	"/>
<path class="st0" d="M126.2,40.5c-1.4-0.8-2.7-1.8-4.4-1.8c-15,0-29.9,0-44.9,0c-4.5,0-8.9,0-13.4,0c-0.7,0-1.3-0.2-1.9-0.6
	c-1.2-0.7-2.6-0.4-4-0.2c-0.4,0.1-0.5,0.5-0.3,0.8c0.9,1.3-0.3,1.6-1,1.9c-1.1,0.4-2.1,0.9-3.2,1.2c-1.1,0.4-2.2,1-3.2,1.4
	c-1.5,0.6-2.6,1.3-3.9,2.3c-1.7,1.3-3.7,2.1-5.2,3.8c-0.6,0.7-1.3,1.1-2.2,1.2c-0.9,0.1-1.5,0.5-1.8,1.3c-0.2,0.5-0.5,1-1.1,1.2
	C34,53.9,33.6,55.5,33,57c-0.4,1-0.7,2-1.1,3c-1.1,2.4-1.7,5-1.7,7.7c0,1.5,0.2,3-0.7,4.4c-0.2,0.3-0.1,0.7-0.1,1
	c0,1.1,0.1,2.1-0.8,3c-0.4,0.4-0.3,1-0.3,1.6c0,4.9,0,9.8,0,14.8c0,1.3-0.1,1.5-1.5,1.5c-1.8,0-3.6,0-5.4,0c-0.5,0-1.1,0-1.1,0.7
	c0,0.7,0.6,0.7,1.1,0.7c1.7,0,3.4,0,5.2,0c1.5,0,1.7,0.1,1.7,1.6c0,17.1,0,34.2,0,51.3c0,1,0.1,2,0.6,2.9c0.4,0.6,0.5,1.3,0.4,2.1
	c-0.1,0.6,0,1.1,0.5,1.5c0.1,0.1,0.2,0.2,0.2,0.3c0,1.8,1.3,3.3,1.3,5c0,0.8,0.2,1.5,0.6,2.1c0.2,0.3,0.3,0.6,0.3,0.9
	c0,2.1,0.8,4,1.4,6c0.7,2.2,0.8,4.4,0.7,6.7c0,0.7,0,1.4,0.5,1.9c0.4,0.4,0,0.7-0.3,0.8c-1.6,0.6-3,1.6-4.7,1.4c-0.4,0-0.7,0-1.1,0
	c-0.6,0-1.2,0-1.2,0.8c0,0.8,0.6,0.8,1.2,0.8c1.7,0.1,3.4,0,4.9-0.9c0.6-0.4,1.4-0.3,2-0.7c0.3-0.2,0.8,0,0.8,0.4
	c0,1.1,0.2,2,0.9,2.8c0.1,0.2,0.1,0.6,0.1,0.8c-0.2,2.8,0.1,5.6,0.9,8.3c0.3,0.9,0.1,1.8,0.1,2.7c0,0.9,0.3,1.7,1.1,2.2
	c0.6,0.4,1,0.9,1,1.6c0,0.3,0.2,0.6,0.4,0.8c1,0.8,1.4,1.9,1.6,3.2c0.1,0.6,0.7,0.8,0.7,1.4c-0.7-0.2-1.1-0.7-1.1-1.4
	c0-0.3-0.1-0.7-0.3-0.9c-1.1-1.6-1.7-3.5-3.2-4.8c-0.3-0.3-0.6-0.7-0.6-1.2c0.2-2.2-0.5-4.2-0.9-6.3c-0.4-1.5-0.1-3.2-0.1-4.8
	c0-0.8,0-1.5-0.6-2.1c-0.4-0.4-0.3-0.9-0.3-1.4c0-0.8-0.3-0.9-0.9-0.6c-0.8,0.4-1.7,0.7-2.5,1c-1.5,0.7-3.1,0.3-4.7,0.3
	c-0.5,0-0.9-0.4-1-1c-0.1-0.6,0.3-1,0.8-1.3c0.7-0.4,1.5-0.3,2.3-0.3c1.3,0,2.5-0.5,3.7-1c0.5-0.2,0.8-0.5,0.3-1.1
	c-0.2-0.3-0.2-0.7-0.2-1c0-2.2,0.2-4.4-0.5-6.5c-0.4-1.4-0.8-2.7-1.3-4.1c-0.1-0.2-0.2-0.4-0.2-0.7c0.2-1.4-0.2-2.6-0.9-3.7
	c-0.1-0.2-0.1-0.6-0.1-0.8c0.1-1-0.1-1.9-0.7-2.7c-0.2-0.3-0.3-0.7-0.2-1c0.1-0.8,0-1.6-0.8-2.1c-0.4-0.3-0.3-0.7-0.3-1.1
	c0-0.8,0.1-1.7-0.5-2.4c-0.6-0.8-0.6-1.8-0.6-2.8c0-16.9,0-33.8,0-50.7c0-1.4,0-1.4-1.4-1.4c-1.5,0-2.9,0-4.4,0c-0.2,0-0.4,0-0.6,0
	c-0.8-0.2-1.5-0.6-1.5-1.4c0-0.8,0.7-1.3,1.6-1.3c1.8,0,3.5,0,5.3,0c0.8,0,1.1-0.2,1.1-1.1c0-4.9,0-9.8,0-14.8c0-0.8,0.1-1.5,0.7-2
	c0.4-0.4,0.4-0.8,0.3-1.3c-0.1-1.3,0.1-2.5,0.9-3.6c0.2-0.3,0.2-0.7,0.2-1c0-1.1-0.1-2.2,0-3.3c0.1-2.2,0.6-4.3,1.6-6.3
	c0.7-1.5,1.1-3.1,1.8-4.6c0.5-1.1,1.1-2,2.3-2.4c0.7-0.3,0.9-1,1.2-1.6c0.3-0.5,0.6-0.9,1.2-0.9c1.2,0,2.1-0.8,3-1.5
	c0.6-0.5,1.1-1.1,1.7-1.7c0.5-0.5,1-0.8,1.7-1c0.8-0.3,1.8-0.8,2.3-1.7c0.5-0.9,1.1-1.5,2.2-1.3c0.4,0.1,0.8-0.1,1.2-0.4
	c0.4-0.4,0.8-0.7,1.4-0.6c0.2,0,0.5,0,0.6-0.2c0.4-0.7,1-0.7,1.7-0.7c0.5,0,1-0.1,1.4-0.5c0.1-0.1,0.2-0.2,0.2-0.2
	c1.3-0.3,1.9-1,1.7-2.4c-0.1-0.6,0.7-1,1.3-0.9c1.4,0.1,3-0.5,4.2,0.9c0.2,0.2,0.8,0.1,1.1,0.1c19.1,0,38.1,0,57.2,0
	c1.8,0,3.5,0.3,4.9,1.3c1.1,0.8,2.5,0.6,3.7,0.8c0,0.2-0.1,0.3-0.3,0.3c-0.8,0-1.7,0-2.5,0c0,0,0,0,0,0
	C126.6,40.5,126.4,40.5,126.2,40.5L126.2,40.5z"/>
<path class="st0" d="M170.2,214.6c1.8-0.2,3.6-0.1,5.5-0.1c2.1,0,4.3,0,6.4,0.1c-0.1,0.4-0.5,0.4-0.8,0.4c-3.4,0-6.9,0-10.3,0
	C170.7,214.9,170.3,215,170.2,214.6z"/>
<path class="st0" d="M182.2,203.4c0.8,0.1,0.8-0.5,0.8-1.1c0,0.5-0.2,1-0.1,1.5c0.1,0.8,0.2,1.8,1.4,1.9c0.4,0,0.6,0.3,0.8,0.7
	c0.2,0.7,0.7,0.9,1.4,0.9c0,0.2,0,0.4,0.1,0.6c-0.8-0.3-1.6-0.6-1.9-1.5c0-0.1-0.1-0.2-0.2-0.2C182.8,206,182.8,204.5,182.2,203.4z"
	/>
<path class="st0" d="M163,217c0.8-1,1.9-0.5,2.9-0.4C165.1,217.2,164,216.7,163,217z"/>
<path class="st0" d="M58.6,224.5c1.2-0.1,1.5,0.1,1.5,1.4C59.7,225.4,59.3,224.8,58.6,224.5z"/>
<path class="st0" d="M183.7,207.8c0.5,0.3,0.3,0.7,0.3,1.2C183.3,208.7,183.6,208.2,183.7,207.8z"/>
<path class="st0" d="M81.3,229.6c0.2-0.3,0.5-0.4,0.9-0.4C82,229.6,81.8,229.9,81.3,229.6z"/>
<path class="st0" d="M131.5,219.1c0.1-0.5,0.5-0.4,0.9-0.4C132.2,219.2,131.8,219.1,131.5,219.1z"/>
<path class="st0" d="M182.8,213.9c-0.1-0.2-0.1-0.5,0-0.7C183.3,213.4,183.3,213.7,182.8,213.9z"/>
<path class="st0" d="M169.1,214.9c0.1-0.3,0.3-0.5,0.7-0.3C169.7,215,169.4,215,169.1,214.9z"/>
<path class="st0" d="M182.5,212.8c-0.2,0-0.4-0.1-0.5-0.3C182.3,212.4,182.5,212.5,182.5,212.8z"/>
<path class="st0" d="M149.9,217.9c0.1-0.3,0.3-0.4,0.5-0.3C150.4,217.9,150.2,218,149.9,217.9z"/>
<path class="st0" d="M130.6,219.5c0.1-0.2,0.2-0.3,0.4-0.2C131,219.6,130.9,219.8,130.6,219.5z"/>
<path class="st0" d="M120.6,220c0.1-0.2,0.2-0.4,0.5-0.3C121.1,220.1,120.9,220.1,120.6,220z"/>
<path class="st0" d="M119.7,220.5c0.1-0.2,0.2-0.4,0.5-0.3C120.2,220.5,120.1,220.6,119.7,220.5z"/>
<path class="st0" d="M56.4,222.6c0.3-0.1,0.5-0.1,0.5,0.3C56.7,222.9,56.5,222.9,56.4,222.6z"/>
<path class="st0" d="M100.2,223.9c0.1-0.3,0.2-0.4,0.5-0.3C100.6,223.9,100.5,224,100.2,223.9z"/>
<path class="st0" d="M49.5,212.1c0.2,0.1,0.3,0.3,0.3,0.5C49.5,212.6,49.4,212.4,49.5,212.1z"/>
<path class="st0" d="M97.5,224.9c0.1-0.2,0.3-0.3,0.5-0.3C98,225,97.9,225.1,97.5,224.9z"/>
<path class="st0" d="M96,225.4c0.1-0.3,0.3-0.4,0.5-0.3C96.5,225.4,96.3,225.6,96,225.4z"/>
<path class="st0" d="M82.1,229.2c0-0.2,0-0.4,0.2-0.4c0.1,0,0.1,0.1,0.2,0.2C82.5,229.2,82.3,229.2,82.1,229.2z"/>
<path class="st4" d="M154.3,215.4c-1.4,0.1-2.9,0.1-4.3,0c-0.6-0.4-0.9-0.1-1.1,0.4c-0.1,0.1-0.2,0.1-0.3,0.1
	c-0.8,0.2-1.8-0.2-2.5,0.5c-0.1,0.2-0.2,0.4-0.2,0.6c-0.1,0.5-0.3,0.9-0.9,1c-0.6,0.1-0.9-0.4-1-0.8c-0.1-0.7-0.5-0.7-1.1-0.7
	c-3.5,0-7.1,0-10.6,0c-0.4,0-0.8,0.1-1.2,0.3c-0.8,0.4-1.6,0.7-2.5,0.8c-2.4,0.5-4.7-0.5-7-0.1c-0.4,0.1-0.8-0.1-1.2,0.2
	c-1.3,1-2.8,0.9-4.3,0.8c-1.5,0-3,0.1-4.5-0.1c-0.3-0.3-0.4-0.1-0.5,0.1c0,0,0,0,0,0c-0.6,0.5-0.2,1.3-0.8,1.8c-0.1,0-0.2,0-0.3,0
	c-0.1-0.4-0.4-0.6-0.8-0.5l-0.1,0c0,0,0,0,0,0c0-0.4-0.2-0.5-0.5-0.4c0,0,0,0-0.1,0c-0.2-0.9-0.7-1.7-1-2.5
	c-0.7-2.3-3.3-4.2-5.5-4.2c-1,0-1.5,0.7-1.7,1.4c-0.4,2.4,0.2,4.6,1.4,6.6c0.1,0.2,0.3,0.4,0.6,0.4c0.1,0.3,0.2,0.6,0.1,0.9
	c-0.3,0.1-0.5,0.3-0.6,0.6c-0.1,0.1-0.3,0.1-0.4,0c-0.1-0.3-0.3-0.3-0.5-0.3c-0.1-0.1-0.1-0.2-0.2-0.3c0-0.2-0.1-0.3-0.3-0.4
	c0,0,0,0,0,0c0-0.4-0.1-0.7-0.2-1c-0.3-1.1-1.2-2-1.3-3.2c-0.1-1,0-2,0-3c0.1-1.6,1.4-2.9,3-2.9c1.3,0,2.6,0,3.6,1.3
	c0.2,0.3,0.7,0.5,0.9-0.1c0.5-1.5,0.3-2.5-1-3.5c-2.1-1.7-3.2-3.7-3.1-6.5c0.1-1.8,1.6-3.6,3.4-3.7c1.9-0.1,3.8-0.4,5.7-0.2
	c1,0.1,2,0.2,2.9,0.9c1.2,0.8,2.2,1.8,3.4,2.5c0.5,0.3,1,0.3,1.5,0.2c0.3-0.1,0.7-0.3,0.2-0.7c0-0.1,0-0.3,0-0.4
	c0.6-1.8,0.5-3.6,0.4-5.4c-0.1-1.4-0.1-2.6,0.7-3.8c0.2-0.3,0.3-0.8,0.5-1.2c0.4-0.8,0.5-1.7,1.2-2.3c0.9-0.9,1.8-1.8,2.7-2.7
	c0.9-1,1.8-1.7,3.2-2c1.7-0.4,3.1-0.3,4.6,0.4c0.9,0.4,1.6,1.1,2.2,1.7c1.1,1.1,2.6,1.7,3,3.4c0.1,0.4,0.4,0.5,0.8,0.6
	c1.8,0.6,3.7,1,5.5,1.8c0.5,0.2,1.2,0.2,1.7,0c1.8-1,3.7-0.8,5.6-0.7c1.2,0,2,0.9,2,2.1c0,0.8,0.2,1.6,1.1,1.8
	c0.3,0.1,0.4,0.3,0.4,0.6c0.1,0.7,0.5,1,1.2,0.9c0.5,0,1,0,1.5,0c1.9,0,2.8,0.8,2.7,2.7c-0.1,2.8,0.4,5.6-0.4,8.4
	c-0.3,1-0.4,2.1-1.2,2.8c-0.9,0.8-1.3,2-1.8,3c-0.4,0.8-1,1.7-0.9,2.7l-0.1,0c0,0,0.1,0,0.1,0c-0.5-0.1-1.1,0-1-0.8
	c0.1-0.6-0.1-1.1,0.3-1.7c0.9-1.4,1.3-3.2,2.6-4.4c0.3-0.3,0.5-0.8,0.6-1.2c0.9-2.9,0.5-6,0.6-9c0-0.6-0.5-1-1.1-1.1
	c-0.5,0-1,0-1.5,0c-0.9,0-1.2,0.4-0.9,1.2c0.2,0.6,0.4,1.2,0.3,1.9c0,0.3-0.1,0.7-0.5,0.7c-0.4,0.1-0.5-0.3-0.6-0.5
	c-0.2-0.5-0.3-0.9-0.3-1.5c0-0.4-0.1-0.7-0.6-0.7c-0.5,0-0.6,0.3-0.6,0.7c0.1,0.6-0.5,1-0.5,1.6c0,0.3-0.3,0.4-0.5,0.4
	c-0.3,0-0.3-0.3-0.3-0.5c0.1-0.9-0.2-1.9,0.3-2.8c0.5-0.8,0.1-2.6-0.5-2.9c-0.7-0.3-1.3-0.7-2.1-0.7c-1.4,0-2.7,0-4.1,0
	c-0.9,0.1-1.7-0.3-2-1c-0.7-1.5-2.1-1.7-3.3-2c-1.8-0.5-3.6-0.6-4.2-2.8c-0.1-0.2-0.3-0.5-0.5-0.5c-0.9-0.3-1.4-1.1-2-1.7
	c-0.4-0.3-0.6-0.9-1.3-0.8c0,0.6,0.4,0.9,0.7,1.3c1.2,1.3,2.9,2.2,3.4,4.2c0.1,0.3,0.4,0.4,0.7,0.5c1.4,0.1,2.7,0.8,4.1,1
	c0.6,0.1,1.2,0.4,1.4,0.9c0.8,1.6,2.1,2,3.7,2.1c1.2,0,2.4,0,3.6,0c1.3,0,1.4,0.2,1.5,1.5c0.1,1.2-0.6,2.3-0.5,3.5
	c0.1,0.6,0,1.3,0.6,1.6c0.6,0.3,1.4,0.4,2-0.3c0.2-0.3,0.5-0.2,0.7,0c0.6,0.7,1.4,0.6,2,0.2c0.7-0.3,0.9-1.6,0.4-2.4
	c-0.2-0.4-0.3-0.8-0.1-1.2c0.2-0.3,0.6-0.3,0.9-0.2c0.5,0.2,0.7,0.6,0.7,1.1c0.1,2.7,0.1,5.4-0.5,8.1c-0.1,0.4-0.3,1-0.8,1.2
	c-0.4,0.3-0.7,0.7-0.9,1.1C155.8,211.7,154.8,213.4,154.3,215.4z M116.1,202.7c-1.2-0.6-1.8-1.6-3-2
	C113.7,202.2,114.6,202.8,116.1,202.7z M121.4,201.8c0,0.6,0,1.1,0.6,1.2c0.5,0.1,0.5-0.4,0.4-0.8c0-0.5-0.1-1.1-0.7-1.2
	C121.1,201,121.4,201.6,121.4,201.8z M107,208.2c0.1,0.4,0.4,0.6,0.7,0.6c0.5,0.1,0.7-0.3,0.7-0.7c0-0.1-0.1-0.4-0.1-0.3
	C108,208.4,107.4,208,107,208.2z M151.9,192.8c-0.3,0-0.4,0.1-0.4,0.4c0,0.3,0.3,0.5,0.6,0.5c0.2,0,0.4-0.1,0.4-0.4
	C152.5,192.9,152.2,192.8,151.9,192.8z"/>
<path class="st1" d="M156.5,215.9c-0.1-1,0.5-1.9,0.9-2.7c0.6-1,0.9-2.1,1.8-3c0.8-0.7,0.9-1.7,1.2-2.8c0.7-2.8,0.2-5.6,0.4-8.4
	c0.1-1.8-0.8-2.7-2.7-2.7c-0.5,0-1,0-1.5,0c-0.7,0-1.1-0.2-1.2-0.9c0-0.3-0.1-0.5-0.4-0.6c-0.9-0.3-1.1-1-1.1-1.8
	c0-1.2-0.9-2.1-2-2.1c-1.9,0-3.8-0.2-5.6,0.7c-0.5,0.3-1.2,0.3-1.7,0c-1.8-0.8-3.7-1.2-5.5-1.8c-0.4-0.1-0.7-0.3-0.8-0.6
	c-0.4-1.7-1.9-2.4-3-3.4c-0.7-0.6-1.4-1.3-2.2-1.7c-1.5-0.7-3-0.8-4.6-0.4c-1.4,0.3-2.3,1-3.2,2c-0.9,0.9-1.8,1.8-2.7,2.7
	c-0.6,0.7-0.8,1.6-1.2,2.3c-0.2,0.4-0.3,0.8-0.5,1.2c-0.8,1.2-0.8,2.4-0.7,3.8c0.2,1.8,0.2,3.6-0.4,5.4c-0.1-0.1-0.2-0.2-0.2-0.3
	c0-2,0-4.1,0-6.1c0-1.8,1.1-3.3,1.8-4.9c1.1-2.5,3.2-4.1,5.1-5.8c1.8-1.6,5.7-1.2,7.7,0.3c1.1,0.9,2,2,3.2,2.8
	c0.3,0.2,0.5,0.5,0.6,0.7c0.5,1.4,1.6,2,3,2.3c1.2,0.2,2.3,0.6,3.4,1.1c1.4,0.6,2.6-0.5,3.9-0.5c1.7-0.1,3.5-0.6,5.1,0.5
	c0.8,0.5,1.3,1.2,1.2,2.2c-0.1,0.6,0.2,1,0.7,1.2c0.1,0.1,0.3,0.1,0.3,0.2c0.4,1.4,1.6,1.1,2.6,1.1c2.2,0.2,3,1.1,3,3.3
	c0,2,0.1,4.1,0,6.1c-0.2,2.1-0.5,4.2-2.1,5.9c-1,1.1-1.6,2.7-2,4.2C156.9,215.6,156.8,215.9,156.5,215.9z"/>
<path class="st1" d="M119.8,201.6c0.5,0.4,0.1,0.6-0.2,0.7c-0.5,0.2-1,0.1-1.5-0.2c-1.2-0.7-2.3-1.7-3.4-2.5
	c-0.9-0.6-1.9-0.8-2.9-0.9c-1.9-0.1-3.8,0.2-5.7,0.2c-1.8,0.1-3.4,1.9-3.4,3.7c-0.1,2.7,1,4.8,3.1,6.5c1.3,1,1.5,2,1,3.5
	c-0.2,0.6-0.7,0.4-0.9,0.1c-0.9-1.3-2.2-1.3-3.6-1.3c-1.6,0-3,1.3-3,2.9c0,1-0.1,2,0,3c0.1,1.2,1,2.1,1.3,3.2c0.1,0.3,0.2,0.7,0.2,1
	c-0.1-0.1-0.3-0.1-0.4-0.2c-0.4-1.1-1-2.2-1.3-3.3c-0.6-2.1-0.7-4.2,0.7-6c1.1-1.5,4-1.7,5.6-0.6c0.3,0.2,0.7,0.9,1,0.5
	c0.4-0.5,0.4-1.2-0.1-1.8c-0.7-0.8-1.5-1.6-2.3-2.4c-0.9-0.8-1.4-1.6-1.4-2.8c0-0.7-0.4-1.4-0.4-2.1c0-2.3,0.9-3.6,3.1-4.3
	c2-0.6,4.2-0.5,6.3-0.5c1.5-0.1,2.8,0.4,3.9,1.3c0.9,0.7,1.8,1.3,2.7,2C118.6,202,119.1,202.1,119.8,201.6z"/>
<path class="st0" d="M116.9,86.3c1.7,0.3,3.2-0.5,4.9-0.6c1.4-0.1,2.7-0.1,4.1-0.2c2.5,0,5.1,0,7.6,0c0.4,0,0.9,0.1,1.2-0.1
	c1.4-0.9,2.9-0.7,4.4-0.7c4.5,0,8.9,0,13.4,0c1.8,0,2.2,0.5,1.4,2.2c0,0.1-0.1,0.2-0.2,0.3c-1.7,1.7-1.4,4.1-2.5,6.1
	c-0.2,0.4-0.2,1-0.2,1.5c0,4.9,0,9.8,0,14.6c0,0.6,0,1.1-0.5,1.5c-0.4,0.3-0.4,0.8-0.4,1.3c0,12,0,24,0,36.1c0,0.3-0.1,0.7,0.2,0.9
	c0.9,0.6,0.7,1.6,0.7,2.4c0,0.7,0,1.4,0.6,2c1.3,1.3,1.1,3.3,2.4,4.6c-0.4,1.7,1.3,2.9,1.2,4.7c0,0.7-0.1,0.8-0.7,0.8
	c-0.2,0-0.4,0-0.5,0c-10.2,0-20.4,0-30.6,0c-0.8,0-1.6,0.1-2.3,0.4c-1.2,0.4-2.4,0.8-3.7,0.7c-0.5-0.1-0.8,0.2-1.1,0.5
	c-0.9,0.8-1.9,1.3-3.1,1.5c-1,0.1-1.9,0.7-2.7,1.2c-2.2,1.2-4.6,1.7-7.1,1.7c-9.4,0.1-18.7-0.1-28.1,0.1c-4.3,0.1-8.6,0.7-12.5,2.7
	c-0.9,0.5-2.1,0.5-3.1,0.6c-3.1,0.3-6.3,0.5-9.3,1.2c-4.1,0.9-8.2,1.5-12.2,2.8c-1.2,0.4-2-0.1-1.9-1.4c0.3-3.5-0.6-6.9-1.7-10.2
	c-0.2-0.5-0.3-1-0.3-1.6c0-0.3,0.1-0.6,0-0.9c-1.1-1.9-0.8-4.1-1.8-6c-0.2-0.4-0.3-0.9-0.3-1.3c0-0.8,0-1.6-0.7-2.2
	c-0.3-0.2-0.2-0.6-0.2-0.9c0-0.7-0.1-1.4-0.5-2c-0.4-0.7-0.5-1.4-0.5-2.2c0-17,0-34.1,0-51.1c0-1.5,0-1.6,1.4-1.5
	c1.4,0.1,2.7-0.2,4-0.7c0.8-0.3,1.6-0.4,2.4-0.4c2.4,0,4.7-0.1,7.1,0c2.6,0.1,5.2-0.6,7.8-0.9c0.7-0.1,1.4-0.2,2.1-0.2
	c3.3,0.1,6.6-0.3,9.9-1c2.2-0.5,4.5-0.6,6.6-1.2c3.1-0.8,6.2-0.2,9.3-0.8c3.7-0.8,7.4-0.7,11.1-1.1c1.7-0.2,3.4-0.6,5-1.1
	c2.1-0.7,4.2-0.6,6.3-0.6c1.4,0,2.7,0,4.1-0.2c0.5-0.1,1.1-0.2,1.5-0.6c2.3-0.3,4.6-0.1,6.8-0.1C115.9,86.7,116.4,86.6,116.9,86.3z
	 M86.9,99.6C86.9,99.6,86.9,99.5,86.9,99.6c-3,0-6,0-9,0c-1.7,0-2.8,1.1-2.8,2.8c0,3.5,0,7,0,10.6c0,0.5,0,1.1,0.3,1.5
	c1.7,2.3,2.7,5.2,5.1,7.1c0.2,0.2,0.4,0.3,0.5,0.5c0.2,0.3,0.3,0.5-0.1,0.6c-1.3,0.4-2.6,1.1-4,1c-0.8-0.1-1.4,0.2-1.9,0.8
	c-0.4,0.5-1,0.8-1.3,1.3c-0.5,0.8-1.5,1.1-1.6,2.2c-0.2,2.9,0.2,5.6,1.6,8.1c1.4,2.6,2.7,5.3,4,8c0.3,0.6,0.4,1-0.5,1
	c-0.9,0-1.5,0.5-2,1.2c-0.5,0.6-0.6,1.4-1.1,2c-1.9,2.3-1.6,5.1-1.6,7.8c0,0.5,0.2,0.9,0.5,1.3c1.3,1.3,2.1,2.9,3.2,4.3
	c0.8,1,1.8,1.7,2.9,1.8c1.3,0.2,2.5,0.7,3.8,0.6c0.5-0.1,1.1,0.2,1.4,0.5c1,1.2,2.3,1.2,3.7,1.1c0.8,0,1.6,0,2.4,0
	c0.7,0,1.5,0.2,2.2-0.2c0.7-0.5,0.3-1.3,0.4-1.9c0-0.3,0.1-0.6,0.5-0.6c0.4,0,0.5,0.2,0.5,0.5c0,0.5,0.2,1.1,0.7,1.1
	c1.2,0,2.2,0.3,3.1,1.1c0.1,0.1,0.3,0,0.4,0c4.8,0,9.7,0,14.5,0c0.6,0,1.1-0.3,1.2-0.8c0.1-0.8,0.6-1.3,1.1-1.8
	c1.3-1.1,2-2.6,2.8-4.1c0.4-0.8,0.1-1.7,0.2-2.5c0-0.2,0-0.6,0.3-0.6c0.4-0.1,0.6,0.2,0.6,0.5c0.1,1.3,1,1.4,2,1.4
	c3.8,0,7.6,0.1,11.4,0c2.1-0.1,4.3,0.6,6.4-0.9c0.8-0.6,1.2-0.9,1.2-1.8c0-0.6,0-1.1,0-1.7c0-0.6-0.1-1.1-0.6-1.6
	c-0.7-0.6-1.2-1.5-1.3-2.4c-0.2-1.7-1-3-2.2-4.2c-0.5-0.5-0.9-1.1-0.9-1.9c0-1.2-0.3-1.5-1.5-1.6c-0.4,0-0.9,0-1.1-0.5
	c-0.3-0.7-0.8-1.2-1.5-1.6c-0.6-0.3-1-1-0.9-1.5c0.1-0.6,0.9-0.3,1.4-0.3c2.3-0.1,4.7,0.4,6.9-0.9c0.2-0.1,0.6-0.1,0.8-0.1
	c3.5,0.1,2.8-0.4,2.9-3c0-1.3-0.4-2.7,0.8-3.7c0.1-0.1,0.1-0.5,0.1-0.7c0-3.8,0-7.5,0-11.3c0-0.5-0.1-1-0.5-1.3
	c-0.6-0.5-1.1-1.2-1.7-1.6c-0.7-0.5-0.8-1-0.8-1.7c0.2-2.7,0.2-5.4,0-8.1c0-0.4,0.1-0.8-0.2-1.1c-0.8-0.7-0.8-1.6-0.8-2.6
	c0-1.8-2-3.9-3.8-3.9c-3.6,0-7.2,0-10.9,0c-1.3,0-2.2-0.8-2.3-2.1c-0.1-1.8-1.1-2.8-2.9-2.8c-3.9,0-7.9,0.1-11.8,0
	c-2.5-0.1-4.5,0.9-6.2,2.6c-0.4,0.5-0.8,1.1-1.4,1.3c-1.4,0.4-2.3,1.2-2.6,2.6c-0.1,0.5-0.5,0.5-0.9,0.5
	C93,99.6,89.9,99.6,86.9,99.6z"/>
<path class="st0" d="M96.8,86.1c-2.1,0.4-4.2,1-6.3,1.3c-0.4,0-0.9,0.1-1.3,0.1c-3.1-0.2-6.1,0.4-9,1c-0.9,0.2-1.8,0.1-2.7,0.1
	c-3.8,0-7.5,0.9-11.2,1.6c-3.3,0.6-6.6,1.4-9.9,1.4c-2.9,0-5.8,0.5-8.7,0.8c-2.5,0.2-5,0.1-7.5,0.1c-1.9,0-3.8-0.2-5.5,0.5
	c-1.2,0.5-2.4,0.5-3.7,0.5c-0.7,0-1-0.3-1-1c0-5,0-9.9,0-14.9c0-0.3-0.1-0.6,0.2-0.8c1-0.8,0.9-2,0.9-3.1c0-0.5,0-1,0.3-1.5
	c0.6-0.9,0.7-2,0.7-3.1c-0.2-3.2,0.4-6.2,1.9-9c0.5-0.9,0.7-1.9,1.1-2.9c0.4-1.1,0.9-2.2,2.1-2.6c0.7-0.2,1-0.8,1.3-1.4
	c0.3-0.6,0.7-0.8,1.4-0.8c0.5,0.1,0.8-0.1,1.2-0.4c0.9-0.6,2-0.8,2.4-2.2c0.5-1.4,2.2-1.6,3.5-2.3c0.6-0.3,1.2-0.6,1.5-1.2
	c0.3-0.6,0.9-0.6,1.4-0.9c1.4-0.7,3.1-0.8,4.4-1.7c0.8-0.5,1.8-0.7,2.7-1.2c0.4-0.3,1-0.4,1.4-0.7c0.6-0.5,1.3-0.4,2-0.4
	c0.7,0,1.4,0.1,1.8-0.6c0.2-0.3,0.6-0.3,1-0.3c16.2,0,32.4,0,48.6,0c0.3,0,0.6,0,0.9,0.2c-0.1,0.7-0.7,0.6-1.2,0.7c-1,0-1.9,0-2.9,0
	c-0.8,0-1.4,0.4-1.5,1.2c0,0.4-0.2,0.8-0.5,1c-0.3,0.2-0.5,0.5-0.5,0.8c0.2,1.3-0.9,2.2-1.1,3.4c-0.1,0.6-0.6,0.5-1,0.5
	c-2.3,0-4.5,0-6.8,0c-2.1,0-3.2,1.1-3.2,3.1c0,2.2,0.3,1.9-1.9,1.9c-1,0-2,0-3,0c-2,0-3.1,1.1-3,3c0,1-0.3,1.6-1.2,2.1
	c-1.1,0.6-1.9,1.5-1.8,3c0.1,1.5,0,3,0,4.5c0,1.3,1.3,2.6,2.6,2.7c0.4,0,0.9-0.1,1.3,0.2c1.3,0.8,1.4,1.4,0.1,2.5
	c-0.8,0.6-0.8,1.3-0.9,2.1c-0.1,1.6,0.1,3.1,1.6,4.1c0.6,0.4,0.4,1.1,0.4,1.7c0,2.2,0.6,2.7,2.5,3.6c1.2,0.5,2.4,1.2,3.4,2.1
	c0.6,0.6,1.2,0.9,2.1,0.8C96.3,85.7,96.7,85.7,96.8,86.1z"/>
<path class="st0" d="M151.8,42.7c2.1-0.2,4.2-0.1,6.2-0.1c0.8,0,1.4,0.7,1.9,1.2c0.5,0.5,1,0.7,1.7,0.7c1,0,2.2-0.3,2.9,0.8
	c0,0.1,0.1,0.1,0.2,0.1c1.3-0.2,2.3,0.8,3.5,1c0.4,0.1,0.6,0.3,0.9,0.6c0.3,0.3,0.5,0.5,0.9,0.5c0.6-0.1,1,0.1,1.3,0.7
	c0.2,0.4,0.7,0.4,1.2,0.4c0.8,0,1.6,0,2.4,0c0.6,0,1.1-0.1,1.5,0.6c0.2,0.3,0.5,0.3,0.9,0.3c0.9,0,1.7,0,2.6,0
	c1.3,0,1.7,0.7,1.3,1.9c-0.1,0.2-0.1,0.3-0.1,0.5c0.1,0.9,0,1.6-1.1,1.8c-0.7,0.1-0.9,0.9-0.8,1.6c0.1,0.7-0.2,1.3-0.7,1.8
	c-0.4,0.4-0.7,1-1.1,1.5c-0.5,0.7-1,1.4-1.9,1.8c-0.8,0.3-1.3,0.9-1.6,1.8c-0.5,1.4-2,2.1-2.7,3.4c-0.7,1.1-1.7,2.1-1.9,3.5
	c-0.1,0.5-0.6,0.7-0.8,1.1c-1.3,1.9-3.1,3.3-4.8,4.8c-0.3,0.2-0.5,0.5-0.6,0.9c-0.3,0.7-0.8,1.2-1.5,1.5c-0.4,0.1-0.7,0.5-1,0.8
	c-0.1,0.1-0.2,0.3-0.1,0.5c0.2,0.3,1.9,0.5,2.3,0.3c0.9-0.4,1.4-1.2,2.3-1.7c-0.6,1.2-1.8,1.8-2.8,2.5c-0.2,0.1-0.5,0-0.7-0.1
	c-1.2-0.6-1.8-0.2-2.1,1.1c-0.2,1.1-0.1,2.3-0.4,3.4c-0.1,0.5-0.3,0.9-0.9,0.7c-1-0.2-1.5,0.4-1.5,1.2c-0.1,1.8-1.1,3.1-2.2,4.4
	c-0.3-0.5,0.2-0.8,0.4-1.1c0.7-1,1.3-2,1.4-3.3c0.1-1,0.7-1.7,1.8-1.8c0.6,0,0.9-0.2,0.8-0.8c-0.1-0.7,0.2-1.4,0.2-2.1
	c0.1-0.6-0.1-0.9-0.8-0.5c-0.1,0-0.1,0.1-0.2,0.1c-1.5,1.6-3.4,1.7-5.5,1.6c-5.3-0.1-10.6,0.1-15.9,0.1c-0.6,0-1.1,0.1-1.6,0.4
	c-0.4,0.3-1,0.5-1.5,0.5c-3.2,0-6.3,0-9.5,0c-0.2,0-0.4-0.1-0.6-0.1c0.4-0.7,1.1-0.7,1.8-0.7c2.4,0,4.9,0,7.3,0
	c0.6,0,1.2-0.1,1.6-0.6c0.3-0.5,0.8-0.4,1.3-0.4c3.1,0,6.2,0,9.3,0c0.7,0,1.3-0.2,1.7-0.7c0.7-0.9,1.9-1.4,2-2.8
	c0-0.3,0.3-0.5,0.5-0.5c1-0.1,1.5-0.8,2.1-1.4c0.5-0.5,1.1-1,1.8-1.3c0.8-0.3,1.5-0.7,1.5-1.7c0-0.3,0.2-0.5,0.5-0.5
	c1.2,0,1.5-1,2.3-1.6c0.9-0.6,1.3-1.5,1.2-2.7c-0.1-3.4,0-6.7,0-10.1c0-0.3,0.1-0.6,0-0.9c-0.6-1.1-1.1-2.2-1.2-3.4
	c0-0.4-0.6-0.7-1.1-0.6c-0.9,0-1.7-0.1-2.6,0c-0.9,0.1-1.2-0.3-1.1-1.2c0-2.7,0-5.3,0-8C152,43.8,152,43.2,151.8,42.7z"/>
<path class="st3" d="M113,60.1c0-1.4,0-2.9,0-4.3c0-0.8,0.5-1.4,1.2-1.3c1.4,0.2,2.1-0.6,2.9-1.4c0.7-0.7,1.8-0.8,2.6-0.2
	c0.3,0.3,0.6,0.6,1,0.6c1.2,0,1.4,0.8,1.3,1.8c-0.1,0.9,0.3,1.2,1.2,1.1c0.6,0,0.9-0.2,0.9-0.8c0-0.7,0.4-1,1-1.1
	c0.7-0.1,0.9,0.5,1,1c0.1,0.7,0.2,1.4,0,2.1c-0.1,0.4-0.5,0.8-0.9,0.8c-1,0-1.2,0.7-1.1,1.4c0.2,1.7-0.3,2.9-1.8,3.8
	c-0.4,0.2-0.6,0.8-1,1.1c-0.4,0.5-0.8,0.9-1.5,0.8c-0.2,0-0.4,0.1-0.5,0.2c-1.4,1.1-2.8,1.1-4.2,0c-0.1,0-0.1-0.1-0.2-0.1
	C113,65,113,65,113,63.1C113,62.1,113,61.1,113,60.1z"/>
<path class="st2" d="M126.7,40.7c0.8,0,1.7,0,2.5,0c-0.3,0.8-1,0.9-1.7,0.9C127.1,41.6,126.7,41.3,126.7,40.7z"/>
<path class="st2" d="M126.2,40.5c0.2,0,0.4,0,0.6,0.2C126.4,40.9,126.3,40.7,126.2,40.5z"/>
<path class="st0" d="M153.9,91.9c0.1,0.2,0.1,0.4-0.1,0.6c-0.9,1.3-0.8,2.7-0.8,4.1c0,4.4,0,8.9,0,13.3c0,0.7-0.1,1.4-0.7,1.8
	c-0.3,0.3-0.4,0.7-0.4,1.1c0,11.2,0,22.3,0,33.5c0,0.3-0.1,0.7,0.2,0.9c1,0.6,0.9,1.5,0.9,2.5c0,1.1-0.2,2.3,0.8,3.2
	c0.3,0.3,0.4,0.9,0.5,1.4c0.3,0.8,0.5,1.6,1.1,2.1c0.2,0.2,0.4,0.4,0.4,0.7c-0.1,1.1,0.6,1.9,0.8,2.8c0.3,1.1,1,1.7,1.4,2.6
	c0.4,0.9,1.3,1.7,0.7,2.9c-0.1,0.2,0.1,0.5,0.2,0.8c1.1,2.5,2.2,5,1.9,7.8c-0.1,0.7,0.2,1.2,0.7,1.7c0.7,0.7,0.6,1.7,0.2,2.6
	c-0.5,1.1-0.4,1.4,0.7,1.3c1.2-0.1,0.9,0.9,1.3,1.4c0.4,0.5,0.6,1.1,1.3,1.3c0.2,0,0.5,0.2,0.5,0.3c0.7,1.8,3,2.2,3.3,4.3
	c2.3,2,3.4,5,5.8,6.9c0.9,0.7,1.4,1.7,1.9,2.7c0.8,1.5,1.1,1.5,2.2,0.2c0.2-0.2,0.3-0.7,0.7-0.3c0.3,0.4-0.2,0.6-0.4,0.7
	c-1,0.8-1.5,1.7-0.7,2.9c-0.2,0-0.4-0.2-0.5-0.4c-1.2-3.1-3.4-5.6-5.8-7.9c-0.4-0.4-0.8-0.9-1.1-1.4c-0.4-1-1.1-1.9-1.9-2.6
	c-0.5-0.4-0.9-0.9-1.2-1.5c-0.3-0.9-0.9-1.5-1.7-1.9c-0.4-0.1-0.6-0.4-0.7-0.8c-0.2-0.5-0.5-0.8-1-1c-0.5-0.2-0.9-0.6-1.1-1.2
	c-0.2-0.7-0.6-1.1-1.5-1.2c-0.9-0.1-1.2-0.8-0.8-1.7c0.5-1.1,0.7-2-0.4-2.9c-0.3-0.3-0.3-0.6-0.3-1c0.3-3.1-0.8-5.9-2.2-8.6
	c-0.1-0.2-0.3-0.4-0.1-0.6c1.1-1.6-0.5-2.4-1.1-3.5c-0.2-0.4-0.3-0.8-0.6-1.2c-0.7-1.2-0.6-2.8-1.4-3.8c-1.2-1.5-1.3-3.5-2.5-5
	c-0.5-0.6-0.1-1.8-0.1-2.7c0-0.6,0-1.2-0.6-1.6c-0.4-0.3-0.4-0.8-0.4-1.3c0-11.2,0-22.3,0-33.5c0-0.5,0-1,0.3-1.3
	c0.7-0.7,0.7-1.5,0.7-2.4c0-4.9,0-9.8,0-14.6C152.8,93.6,153.2,92.7,153.9,91.9z"/>
<path class="st1" d="M154.3,215.4c0.5-2,1.5-3.7,2.4-5.5c0.2-0.4,0.5-0.8,0.9-1.1c0.5-0.3,0.7-0.8,0.8-1.2c0.6-2.7,0.5-5.4,0.5-8.1
	c0-0.5-0.3-0.9-0.7-1.1c-0.3-0.1-0.7-0.1-0.9,0.2c-0.2,0.4-0.1,0.8,0.1,1.2c0.4,0.9,0.2,2.1-0.4,2.4c-0.7,0.3-1.4,0.5-2-0.2
	c-0.2-0.3-0.5-0.3-0.7,0c-0.6,0.7-1.3,0.5-2,0.3c-0.6-0.2-0.6-1-0.6-1.6c-0.1-1.2,0.6-2.3,0.5-3.5c-0.1-1.3-0.2-1.4-1.5-1.5
	c-1.2,0-2.4,0-3.6,0c-1.6,0-3-0.4-3.7-2.1c-0.2-0.5-0.9-0.8-1.4-0.9c-1.4-0.2-2.7-0.9-4.1-1c-0.3,0-0.6-0.2-0.7-0.5
	c-0.5-1.9-2.2-2.8-3.4-4.2c-0.3-0.4-0.7-0.7-0.7-1.3c0.6-0.1,0.9,0.5,1.3,0.8c0.7,0.6,1.2,1.3,2,1.7c0.2,0.1,0.5,0.3,0.5,0.5
	c0.6,2.2,2.4,2.3,4.2,2.8c1.2,0.3,2.6,0.5,3.3,2c0.3,0.7,1.1,1.1,2,1c1.4-0.1,2.7,0,4.1,0c0.8,0,1.4,0.4,2.1,0.7
	c0.6,0.3,0.9,2,0.5,2.9c-0.5,0.9-0.2,1.9-0.3,2.8c0,0.2,0,0.5,0.3,0.5c0.3,0,0.5-0.1,0.5-0.4c0-0.6,0.6-1,0.5-1.6
	c-0.1-0.4,0.1-0.7,0.6-0.7c0.5,0,0.6,0.4,0.6,0.7c0,0.5,0.1,1,0.3,1.5c0.1,0.3,0.2,0.6,0.6,0.5c0.4-0.1,0.5-0.4,0.5-0.7
	c0.1-0.7-0.1-1.3-0.3-1.9c-0.3-0.8-0.1-1.3,0.9-1.2c0.5,0,1,0,1.5,0c0.7,0.1,1.1,0.5,1.1,1.1c-0.1,3,0.4,6-0.6,9
	c-0.1,0.5-0.3,0.9-0.6,1.2c-1.4,1.2-1.7,2.9-2.6,4.4c-0.3,0.5-0.2,1.1-0.3,1.7c-0.1,0.8,0.5,0.7,1,0.8c-0.3,0.7-0.8,0.4-1.2,0.1
	C155,215.8,154.7,215.4,154.3,215.4z"/>
<path class="st1" d="M102.5,221.2c-0.3,0-0.5-0.2-0.6-0.4c-1.1-2.1-1.8-4.3-1.4-6.6c0.1-0.7,0.6-1.4,1.7-1.4c2.1,0,4.7,1.9,5.5,4.2
	c0.3,0.9,0.8,1.6,1,2.5c-1.1-0.1-2.1,0-3,0.8c-0.6,0.5-1.5,0.2-2.2,0.2C102.9,220.5,102.5,220.6,102.5,221.2z M104,220.1
	c1.3,0.6,2-1,3.1-1.1c0.2,0,0.3-0.3,0.2-0.4c-0.5-0.6-0.2-1.5-0.8-2.1c-0.8-0.8-1.6-1.6-2.4-2.4c-0.7-0.7-1.5-0.5-2.2-0.3
	c-0.5,0.1-0.6,1-0.8,1.5c0,0.1,0,0.3,0,0.4c-0.3,1.2,0.6,2,0.8,3C102.1,219.9,102.7,220.4,104,220.1z"/>
<path class="st0" d="M178.8,200.2c0.8-0.1,1.1-0.8,1.7-1.2c-0.3,0.7-0.4,1.3,0.1,1.9C179.9,201,179.4,200.5,178.8,200.2z"/>
<path class="st1" d="M146.1,216.4c0.7-0.7,1.7-0.3,2.5-0.5C147.9,216.8,147,216.5,146.1,216.4z"/>
<path class="st1" d="M110.4,220.4c0.5-0.5,0.2-1.4,0.8-1.8C111.1,219.3,111.5,220.2,110.4,220.4z"/>
<path class="st0" d="M180.6,200.9c0.8,0.2,0.4,0.9,0.5,1.4C180.5,202,180.8,201.4,180.6,200.9z"/>
<path class="st1" d="M148.9,215.9c0.2-0.5,0.5-0.8,1.1-0.4C149.6,215.6,149.3,215.7,148.9,215.9z"/>
<path class="st1" d="M109.3,220c0.4-0.1,0.7,0,0.8,0.5C109.7,220.6,109.5,220.3,109.3,220z"/>
<path class="st1" d="M101.9,222.6c0.1-0.3,0.3-0.5,0.6-0.6C102.6,222.5,102.4,222.7,101.9,222.6z"/>
<path class="st0" d="M181.2,202.4c0.3,0,0.4,0.2,0.4,0.5C181.4,202.9,181.2,202.8,181.2,202.4z"/>
<path class="st1" d="M108.7,219.5c0.3,0,0.5,0.1,0.5,0.4C108.9,220,108.8,219.8,108.7,219.5z"/>
<path class="st1" d="M101,222.3c0.2,0,0.4,0,0.5,0.3C101.2,222.7,101.1,222.6,101,222.3z"/>
<path class="st1" d="M111.2,218.6c0.1-0.3,0.2-0.5,0.5-0.1C111.5,218.6,111.4,218.6,111.2,218.6z"/>
<path class="st0" d="M181.8,203c0.2,0,0.3,0.1,0.3,0.3C181.9,203.3,181.8,203.2,181.8,203z"/>
<path class="st1" d="M100.6,221.7c0.2,0,0.3,0.2,0.3,0.4C100.6,222,100.5,221.9,100.6,221.7z"/>
<path class="st5" d="M196.1,186.8c-0.2,1.2-1,2.1-1.4,3.2c0,0.1-0.2,0.2-0.2,0.3c-0.1,2.2-1.8,2.3-3.3,2.6c-0.1-0.8,0.3-1.4,0.7-2
	c1.1-1.4,2.7-2.5,3.7-4C195.7,186.8,195.9,186.8,196.1,186.8z"/>
<path class="st5" d="M200.5,179.7c-0.7,1.2-1.4,2.3-2.4,3.3c-0.5-0.3-0.9-0.1-1.3,0.2c-0.9,0.7-2.1,1-3.2,1.4
	c-0.1-0.5,0.3-0.7,0.6-0.8c2.1-1,3.9-2.4,5.7-3.9C200.1,179.7,200.3,179.7,200.5,179.7z"/>
<path class="st5" d="M196.3,186.4c0,0.2,0,0.3-0.2,0.4C196.1,186.6,196.1,186.4,196.3,186.4z"/>
<path class="st5" d="M200.9,179.3c0,0.2-0.1,0.3-0.3,0.3C200.6,179.5,200.7,179.3,200.9,179.3z"/>
<path class="st0" d="M199.5,184.8c0.9-1.4,1.8-2.9,2.9-4.1c0.6-0.7,1.3-1.4,1.9-2c0.1-0.1,0.2-0.3,0.4-0.2c0.2,0.1,0.2,0.3,0.1,0.5
	c-0.3,0.7-0.2,1.6-1.2,2c-0.7,0.2-1,1-1.3,1.7c-0.3,0.5-0.6,1.1-1,1.5C200.8,184.4,200.4,185,199.5,184.8z"/>
<path class="st5" d="M199.5,184.8c0.8,0.2,1.3-0.4,1.8-0.8c0.1,0.7-0.5,1.1-0.8,1.5c-1,0.9-1.5,2.1-2.1,3.3
	c-0.3,0.6-0.7,1.1-1.2,1.4C196.9,189.6,198.7,185.6,199.5,184.8z"/>
<path class="st5" d="M164.6,77.2c-0.1-0.2,0-0.4,0.2-0.4c0.2,0,0.3,0.1,0.2,0.2C165,77.2,164.8,77.3,164.6,77.2z"/>
<path class="st1" d="M116.1,202.7c-1.5,0.1-2.4-0.5-3-2C114.4,201.1,114.9,202.1,116.1,202.7z"/>
<path class="st1" d="M121.4,201.8c0.1-0.2-0.2-0.8,0.3-0.8c0.6,0,0.7,0.7,0.7,1.2c0,0.3,0,0.8-0.4,0.8
	C121.4,202.9,121.3,202.4,121.4,201.8z"/>
<path class="st1" d="M107,208.2c0.4-0.2,1,0.3,1.3-0.3c0-0.1,0.1,0.2,0.1,0.3c-0.1,0.4-0.3,0.8-0.7,0.7
	C107.4,208.8,107.1,208.6,107,208.2z"/>
<path class="st1" d="M151.9,192.8c0.3,0,0.5,0.1,0.6,0.5c0,0.3-0.2,0.4-0.4,0.4c-0.3,0-0.6-0.1-0.6-0.5
	C151.5,192.9,151.7,192.8,151.9,192.8z"/>
<path class="st1" d="M86.9,99.6c3.1,0,6.1,0,9.2,0c0.4,0,0.8,0,0.9-0.5c0.3-1.4,1.2-2.2,2.6-2.6c0.6-0.2,1-0.8,1.4-1.3
	c1.7-1.8,3.7-2.7,6.2-2.6c3.9,0.1,7.9,0,11.8,0c1.8,0,2.8,1,2.9,2.8c0,1.3,0.9,2.1,2.3,2.1c3.6,0,7.2,0,10.9,0
	c1.8,0,3.9,2.1,3.8,3.9c0,1,0,1.9,0.8,2.6c0.3,0.3,0.2,0.7,0.2,1.1c0.2,2.7,0.2,5.4,0,8.1c0,0.7,0.1,1.3,0.8,1.7
	c0.6,0.4,1.1,1.1,1.7,1.6c0.4,0.4,0.5,0.8,0.5,1.3c0,3.8,0,7.5,0,11.3c0,0.2,0,0.6-0.1,0.7c-1.3,1-0.8,2.4-0.8,3.7
	c-0.1,2.6,0.6,3.1-2.9,3c-0.3,0-0.6,0-0.8,0.1c-2.2,1.3-4.6,0.8-6.9,0.9c-0.5,0-1.3-0.3-1.4,0.3c-0.1,0.6,0.3,1.3,0.9,1.5
	c0.7,0.3,1.2,0.8,1.5,1.6c0.2,0.5,0.7,0.5,1.1,0.5c1.2,0.1,1.5,0.4,1.5,1.6c0,0.8,0.3,1.4,0.9,1.9c1.2,1.1,2,2.5,2.2,4.2
	c0.1,0.9,0.6,1.8,1.3,2.4c0.5,0.5,0.7,1,0.6,1.6c0,0.6,0,1.1,0,1.7c0,0.9-0.4,1.2-1.2,1.8c-2.1,1.5-4.3,0.8-6.4,0.9
	c-3.8,0.1-7.6,0-11.4,0c-1,0-1.9-0.1-2-1.4c0-0.2-0.2-0.6-0.6-0.5c-0.3,0.1-0.3,0.4-0.3,0.6c-0.1,0.9,0.2,1.8-0.2,2.5
	c-0.8,1.4-1.5,2.9-2.8,4.1c-0.5,0.5-1,1-1.1,1.8c-0.1,0.6-0.6,0.8-1.2,0.8c-4.8,0-9.7,0-14.5,0c-0.1,0-0.3,0-0.4,0
	c-0.9-0.7-1.9-1.1-3.1-1.1c-0.5,0-0.6-0.6-0.7-1.1c0-0.3-0.2-0.6-0.5-0.5c-0.3,0-0.4,0.3-0.5,0.6c-0.1,0.6,0.3,1.4-0.4,1.9
	c-0.7,0.5-1.5,0.2-2.2,0.2c-0.8,0-1.6,0-2.4,0c-1.4,0.1-2.7,0.1-3.7-1.1c-0.3-0.4-0.9-0.6-1.4-0.5c-1.3,0.2-2.5-0.4-3.8-0.6
	c-1.2-0.2-2.1-0.9-2.9-1.8c-1.1-1.4-1.9-3-3.2-4.3c-0.3-0.3-0.5-0.8-0.5-1.3c-0.1-2.7-0.4-5.5,1.6-7.8c0.5-0.6,0.6-1.3,1.1-2
	c0.5-0.7,1.1-1.1,2-1.2c0.9,0,0.8-0.4,0.5-1c-1.3-2.7-2.6-5.4-4-8c-1.4-2.6-1.8-5.3-1.6-8.1c0.1-1.1,1.1-1.4,1.6-2.2
	c0.3-0.5,0.9-0.9,1.3-1.3c0.5-0.6,1.1-0.8,1.9-0.8c1.5,0.1,2.7-0.6,4-1c0.4-0.1,0.3-0.4,0.1-0.6c-0.2-0.2-0.3-0.4-0.5-0.5
	c-2.4-1.9-3.3-4.8-5.1-7.1c-0.3-0.4-0.3-0.9-0.3-1.5c0-3.5,0-7,0-10.6c0-1.7,1.1-2.8,2.8-2.8C80.8,99.5,83.9,99.5,86.9,99.6
	C86.9,99.5,86.9,99.6,86.9,99.6z M107.7,125.6c-2.5,0-2.8,0-4.8,1.5c-1.1,0.8-2.2,1.6-3.5,2.2c-0.4,0.2-0.7,0.5-0.9,0.9
	c-0.2,0.4-0.5,0.6-0.9,0.6c-1.5,0.3-2.1,1.8-1.2,3.1c0.2,0.3,0.5,0.6,0.4,1c-0.3,1.4-0.1,2.7-0.1,4.1c0,2.6,1.1,3.7,3.7,3.7
	c1.2,0,2.4-0.2,3.5,0.4c0.7,0.4,1.4,0.5,2.2,0.5c0.6,0,1.2-0.1,1.8,0c1.6,0.4,3.2,0.1,4.6-0.7c1.3-0.7,3-1,3.5-2.9
	c0.3-1.1,1-2.1,0.9-3.3c-0.1-1.5,0.2-3,0.4-4.5c0.3-1.8-0.1-3.4-1.9-4.4c-0.6-0.3-1.3-0.4-2-0.8C111.5,126,109.7,125.6,107.7,125.6z
	"/>
<path class="st4" d="M104,220.1c-1.3,0.3-1.9-0.2-2.1-1.4c-0.2-1-1.1-1.8-0.8-3c0-0.1,0-0.3,0-0.4c0.2-0.6,0.2-1.4,0.8-1.5
	c0.7-0.2,1.6-0.4,2.2,0.3c0.8,0.8,1.6,1.6,2.4,2.4c0.6,0.6,0.4,1.5,0.8,2.1c0.1,0.1,0,0.4-0.2,0.4C106,219.1,105.3,220.7,104,220.1z
	"/>
<path class="st3" d="M107.7,125.6c2,0,3.8,0.4,5.6,1.3c0.6,0.3,1.3,0.4,2,0.8c1.8,1,2.2,2.5,1.9,4.4c-0.2,1.5-0.5,3-0.4,4.5
	c0.1,1.2-0.6,2.2-0.9,3.3c-0.5,1.9-2.1,2.2-3.5,2.9c-1.4,0.7-2.9,1.1-4.6,0.7c-0.6-0.1-1.2-0.1-1.8,0c-0.8,0-1.5-0.1-2.2-0.5
	c-1.1-0.6-2.3-0.4-3.5-0.4c-2.6,0-3.8-1.1-3.7-3.7c0-1.4-0.2-2.7,0.1-4.1c0.1-0.4-0.2-0.7-0.4-1c-0.9-1.2-0.3-2.8,1.2-3.1
	c0.4-0.1,0.7-0.3,0.9-0.6c0.2-0.4,0.5-0.7,0.9-0.9c1.3-0.5,2.4-1.3,3.5-2.2C104.9,125.6,105.2,125.6,107.7,125.6z M110.3,138.9
	c0-1-0.2-1.1-1.1-0.7c-0.6,0.2-1.2,0.4-1.9,0.4c-0.5,0-1,0-1.5,0.2c-0.7,0.3-0.7,1.1-0.7,1.6c0.1,0.5,0.7,0.3,1.1,0.3
	c1-0.2,2-0.4,3-0.6C110.1,139.9,110.4,139.5,110.3,138.9z M112.9,132.1c0.1,0.4,0,1,0.7,1.2c0.3,0.1,0.7,0.1,0.9-0.3
	c0.3-0.6-0.2-0.9-0.4-1.3c0,0,0-0.1-0.1-0.1c-0.3-0.2-0.4-0.7-0.8-0.5C112.8,131.2,113,131.6,112.9,132.1z M109.8,129.7
	c-0.6,0-1.2,0.2-1.1,0.9c0.1,0.8,0.8,0.4,1.2,0.4c0.4,0,1.1,0.1,1.1-0.5C110.9,129.8,110.4,129.6,109.8,129.7z M105.7,131.2
	c0.4-0.1,1-0.2,1-0.9c0-0.3-0.1-0.6-0.4-0.5c-0.6,0.1-0.9,0.5-1,1.1C105.2,131.1,105.4,131.2,105.7,131.2z M104.5,134.2
	c0-0.3-0.2-0.5-0.5-0.4c-0.3,0-0.6,0.2-0.6,0.5c0,0.3,0.2,0.5,0.6,0.5C104.4,134.8,104.5,134.5,104.5,134.2z"/>
<path class="st1" d="M110.3,138.9c0,0.7-0.3,1.1-1,1.2c-1,0.2-2,0.4-3,0.6c-0.4,0.1-1,0.3-1.1-0.3c-0.1-0.6-0.1-1.3,0.7-1.6
	c0.5-0.2,1-0.3,1.5-0.2c0.7,0,1.3-0.1,1.9-0.4C110.1,137.8,110.4,137.9,110.3,138.9z"/>
<path class="st1" d="M112.9,132.1c0-0.4-0.1-0.9,0.3-1c0.4-0.1,0.6,0.3,0.8,0.5c0,0,0,0.1,0.1,0.1c0.2,0.4,0.7,0.8,0.4,1.3
	c-0.2,0.4-0.6,0.4-0.9,0.3C113,133.1,113,132.5,112.9,132.1z"/>
<path class="st1" d="M109.8,129.7c0.6,0,1.2,0.1,1.2,0.8c0,0.7-0.6,0.6-1.1,0.5c-0.4,0-1.1,0.3-1.2-0.4
	C108.6,129.9,109.2,129.6,109.8,129.7z"/>
<path class="st1" d="M105.7,131.2c-0.3,0-0.5,0-0.4-0.3c0.1-0.6,0.4-1,1-1.1c0.3,0,0.4,0.3,0.4,0.5
	C106.7,130.9,106.1,131,105.7,131.2z"/>
<path class="st1" d="M104.5,134.2c0,0.3-0.2,0.6-0.5,0.6c-0.3,0-0.6-0.2-0.6-0.5c0-0.3,0.2-0.5,0.6-0.5
	C104.3,133.7,104.5,133.9,104.5,134.2z"/>
</svg>
