<?xml version="1.0" encoding="utf-8"?>
<!-- Generator: Adobe Illustrator 26.2.1, SVG Export Plug-In . SVG Version: 6.00 Build 0)  -->
<svg version="1.1" id="Calque_1" xmlns="http://www.w3.org/2000/svg" xmlns:xlink="http://www.w3.org/1999/xlink" x="0px" y="0px"
	 viewBox="0 0 256 256" style="enable-background:new 0 0 256 256;" xml:space="preserve">
<style type="text/css">
	.st0{fill:#61BA46;}
	.st1{fill:#005BAA;}
</style>
<g>
	<g>
		<path class="st0" d="M114.2,147.4c0.1-1.9,0.1-1.9-1.6-1.9c0.2-1.3-0.2-1.9-1.6-1.6c0-0.5,0-1-0.1-1.5c0.1-1.7,0.1-1.7-1.6-1.6
			c0.1-1.9,0.1-1.9-1.9-1.9c0-1.7,0-1.7-1.7-1.6c-1,0-2.1-0.1-3.1-0.1c0-1.6,0-1.6-2-1.5c-3.9,0-7.8-0.1-11.7-0.1
			c0-1.9,0-1.9-1.7-1.8c-2.7,0-5.5-0.1-8.2-0.1c0.3-1.4-0.5-1.8-1.7-1.5c-1.7,0.1-3.4-0.2-5.2,0.1c0.2,1.5,0.2,1.5-1.6,1.4
			c-1.6,0-1.8,1-1.7,2.3c0,0.5,0.1,1-0.1,1.4c0.3,1.3-0.1,1.7-1.4,1.4c-1.6,0-1.8,1-1.7,2.3c0.1,1.5,0,3,0,4.5c-0.1,2-0.1,2,1.6,1.9
			c0.5,0,1,0,1.6,0.1c0.2,0,0.3-0.1,0.5-0.1c-0.1,0-0.3,0-0.5,0.1c-0.3,1.4,0.4,1.8,1.6,1.5c0,1.7,0,1.7,1.9,1.6
			c-0.3,1.3,0.3,1.9,1.6,1.6c0,1.9,0,1.9,1.6,1.9c0,1.7,0,1.7,1.9,1.6c0.5,0,1,0,1.6,0.1c-0.3,1.4,0.4,1.8,1.6,1.5
			c-0.3,1.3,0.3,1.9,1.6,1.6c0,1.9,0,1.9,1.9,1.9c8.4,0,16.8,0,25.1,0c1.7,0,1.7,0,1.6-1.9c0,0,0,0,0,0c1.4,0.3,1.8-0.3,1.6-1.6
			c0-1.1,0.1-2.1,0.1-3.2c1.6,0,1.6,0,1.5-1.9C114.3,150.5,114.3,148.9,114.2,147.4z"/>
		<path class="st0" d="M180,140.6c0-2.8,0-5.7,0-8.5c0.1-1.7,0.1-1.7-1.9-1.6c-1.6,0.1-3.3-0.2-4.9,0.1c0.2,1.5,0.2,1.5-1.6,1.4
			c-0.4,0.2-0.9,0.1-1.3,0.1c-2.4,0-4.8,0.1-7.3,0.1c0.4,1.3-0.1,1.7-1.4,1.4c-0.9,0.3-1.8,0.1-2.8,0.1c-5.3,0.1-10.7-0.1-16,0.1
			c0.2,1.8,0.2,1.8-1.4,1.6c-0.7,0.3-1.4,0-2.1,0.2c0.4,1.3-0.2,1.7-1.4,1.4c-0.1,0-0.2,0.1-0.2,0.1c-1.7-0.5-1.4,2.3-3,1.9
			c0,0.2-0.1,0.4,0,0.7c0.1,0.8-0.3,1-1,0.9c-0.3,0-0.7,0.1-1.1,0.1c0.4,1.3-0.2,1.7-1.4,1.4c-1.6,0-1.8,1-1.7,2.3
			c0,0.3,0,0.7-0.1,1.1c-1.6,0-1.6,0-1.5,1.9c0,0.6,0.1,1.1,0.1,1.7c1.3-0.4,1.6,0.2,1.4,1.4c-0.5,0-0.9,0-1.4,0.1
			c-0.1,1.7-0.1,1.7,1.6,1.6c3.2-0.1,3.2-0.1,3.2,3.1c0,0.1,0,0.3,0,0.4c-0.1,1.7-0.1,1.7,1.9,1.6c-0.3,1.4,0.3,1.9,1.6,1.6
			c0.5,0,1,0,1.6,0.1c0,1.9,0,1.9,1.7,1.8c6.1,0,12.3,0,18.4,0c1.9,0.1,1.9,0.1,1.9-1.8c1.1,0,2.1-0.1,3.2-0.1
			c1.2,0.2,1.9-0.1,1.6-1.5c0.6,0,1.2-0.1,1.9-0.1c1.3,0.3,1.9-0.2,1.6-1.6c0,0,0,0,0,0c1.3,0.3,1.9-0.3,1.6-1.6c0,0,0,0,0,0
			c1.6,0,1.6,0,1.6-1.9c0,0,0,0,0,0c1.9,0,1.9,0,1.9-1.6c0,0,0,0,0,0c1.4,0.3,1.8-0.3,1.6-1.6c0-0.5,0.1-1.1,0.1-1.6
			c1.6,0,1.6,0,1.5-1.9c0,0,0,0,0,0c1.4,0.3,1.8-0.3,1.6-1.6c0-0.5,0.1-1.1,0.1-1.6C180,142.2,180,142.2,180,140.6z"/>
	</g>
</g>
<g>
	<g>
		<path class="st1" d="M82.4,184c-0.1,1.8,0,1.9,1.8,1.9c0,0,0,0,0,0c-0.2,1.2,0.4,1.9,1.7,1.5c0.1,1.4-0.7,3.7,1.5,3.3
			c-0.1,1.1,0.1,2.3,1.7,1.8c-0.1,1.6-0.5,3.8,1.8,3.2c0,0,0,0,0,0c0,1.1,0,2.2,1.6,1.9c-0.2,1.2,0.4,1.9,1.7,1.5
			c-0.6,3,0.6,3.6,3.5,3.2c-0.1,1.8,0,2,1.6,1.9c-0.3,1.3,0.3,1.8,1.6,1.7c-0.3,1.6,0.9,1.8,1.9,1.5c0,0-0.1,0.1-0.1,0.1
			c-2.9,2.5,28.3,2.6,25.2-0.1c1.4-0.1,3.8,0.7,3.2-1.6c1.3,0.3,1.9-0.3,1.6-1.6c1.9,0,1.9,0,1.9-1.9c1.3,0.3,1.9-0.3,1.6-1.6
			c1.3,0.3,1.9-0.3,1.6-1.6c1.3,0.3,1.9-0.3,1.6-1.6c3,0.4,3.9-0.2,3.5-3.5c1.3,0.3,1.9-0.3,1.6-1.6c1.6,0,1.6,0,1.6-1.9
			c3.8,0.3,1.1-5.8,1.9-8.3c1.3-2.4-7.9-2.5-6.7,0c-2.8-0.4-1.5,1.7-1.9,3.5c-1.3-0.2-1.8,0.3-1.6,1.6c-1.3-0.2-1.8,0.3-1.6,1.6
			c-1.6,0.3-3.9-0.7-3.5,1.6c-2,0-1.6-0.2-1.6,1.9c-1.3-0.2-1.9,0.3-1.6,1.6c-1.3-0.2-1.9,0.3-1.6,1.6c-1.9,0-1.9,0-1.9,1.9
			c-1.3-0.2-1.9,0.3-1.6,1.6c-1.3-0.2-1.8,0.3-1.6,1.6c-3.9,0-7.8,0-11.8,0c0.2-1.3-0.4-1.7-1.6-1.6c0.4-2.5-2.1-1.3-3.5-1.6
			c0.2-1.2,0-2.1-1.6-1.9c0.2-1.2-0.4-1.8-1.6-1.6c0.3-1.6-0.8-1.7-1.9-1.6c-0.2-1.4,0.8-4-1.5-3.5c0.2-1.2-0.4-1.8-1.6-1.6
			c0.3-1.6-0.8-1.7-1.9-1.6c-0.1-1.4,0.8-4.1-1.6-3.5c-0.1-1.4,0.7-3.7-1.5-3.3c0.1-1.1,0-2.2-1.6-1.9c1-2.5-7.9-2.4-6.7,0
			C80.8,176.9,83,181.9,82.4,184z M87.5,189.2c0.2-0.1,0.3-0.1,0.5-0.1C87.8,189.1,87.6,189.1,87.5,189.2z M89.1,190.8
			c-0.5,0-1,0-1.6-0.1C88,190.7,88.5,190.8,89.1,190.8z M90.9,194.2L90.9,194.2C91,194.2,90.9,194.2,90.9,194.2z M95.8,200.9
			C95.8,200.9,95.9,200.9,95.8,200.9c0.2,0,0.4-0.1,0.5-0.1C96.1,200.9,95.9,200.9,95.8,200.9z M107.6,199.3
			C107.6,199.3,107.6,199.3,107.6,199.3L107.6,199.3z M106,197.8c-0.5,0-1.1-0.1-1.6-0.1C104.9,197.7,105.5,197.7,106,197.8z
			 M104.4,195.8L104.4,195.8C104.3,195.9,104.4,195.8,104.4,195.8z"/>
		<path class="st1" d="M235.2,132c-1.3-7.5,2.6-20.2-1.5-25.2c-0.3-1.6,0.7-3.7-1.6-3.2c2.1,0.7,2.2-2.3,0-1.9
			c-0.5-1.6,1.1-5.2-1.6-4.9c-0.1-2.1,0.1-1.9-2-1.8c0,0,0.1-0.1,0.1-0.1c0.7-2.4-4.4-1.8-4.9-1.1c0.6-4.1-6.7-1.3-9.3-2.1
			c-2.1-1.9-0.2-7.2-0.8-10.2c2.4,1.6,2.4-11.5,0-9.9c-0.2-15.6,2-8.5-6.8-13.4c0.1-1.9,0-2-1.6-1.9c-0.2-1.7,0.8-3.7-1.9-3.2
			c-0.1-1.4,0.8-4.1-1.6-3.5c-0.1-1.4,0.7-3.8-1.6-3.2c1.4-5.6-4.9-2.9-8.3-3.4c-1.9-0.1-1.9-0.1-1.9,1.5c-2,0-1.6-0.2-1.6,1.9
			c-1.3-0.2-1.9,0.3-1.6,1.6c-1.3-0.2-1.9,0.3-1.6,1.6c-1.1,0-2.3,0-3.4,0c0.5-3-0.7-3.5-3.5-3.2c0.2-1.2-0.1-2.3-1.6-1.8
			c0,0,0.1-0.1,0.1-0.1c0.4-2.3-1.9-1.4-3.3-1.6c0.4-2.3-1.9-1.3-3.5-1.6c0.3-1.3-0.4-1.7-1.6-1.6c0.6-3.1-3.3-1.4-5.1-1.9
			c0.6-2.3-1.9-1.4-3.2-1.6l0-0.1c-0.6,0-1.3,0-1.9,0c0.6,0,1.3,0,1.9,0c0.4-2.3-1.9-1.3-3.5-1.6c0.3-3.1-4.8-0.9-6.7-1.6
			c0-1.8,0-1.8-1.7-1.8c-3.3,0.5-31.7-1.4-23,1.9c-3.9,0.8-12.5-2.1-14,1.5c-2.3,0.7-8.3-1.6-8.3,1.6c-2,0.7-7.1-1.5-7,1.6
			c-1.8,0.4-5.5-1.1-4.8,1.9c-2.2-0.7-5.7,1.5-1.9,1.6c-2.3,0.7-8.3-1.6-8.3,1.6c0,0,0,0,0,0c-1.4,0.2-3.7-0.7-3.2,1.6
			c-1.9,0-1.9,0-1.9,1.9c-1.3-0.2-1.9,0.3-1.6,1.6c-3.3,0.8,0.1-4.4-3.5-3.4c0,0,0.1-0.1,0.1-0.1c0.2-1.2-0.4-1.9-1.7-1.6
			c1-4.1-2.2-3.2-5.1-3.2c-2,0.5-7-1.5-6.7,1.6c-1.3-0.3-1.9,0.3-1.6,1.6c-1.3-0.3-1.9,0.3-1.6,1.6c-2.4-0.4-1.3,1.8-1.6,3.5
			c-1.2-0.1-2.2,0-1.9,1.6c-2.8-0.5-1.1,3.4-1.6,5.1c-2.8-0.4-1.1,3.5-1.6,5.1c-3.4-0.5-1.3,4.6-1.9,6.7c-2.8-0.4-1.1,3.5-1.6,5.1
			c-3.6,0.9-0.6,8.6-1.6,11.8c-0.4,3.2,4.7,1,6.7,1.6c3.4,0.1,0.9-6.6,1.6-9.1c0.8,6.7,2.5-1.7,1.9-4.3c3,0.3,1-4.8,1.6-6.7
			c2.8,0.5,1.1-3.4,1.6-5.1c2.4,0.5,1.4-2.1,1.5-3.5c2.7,0.5,1.7-1.5,1.9-3.2c1.8,0.7,1.8-1.4,1.6-1.8c2.6-1.1,0.6,2.6,3.3,1.8
			c-0.1,1.6-0.5,3.8,1.8,3.2c0,0,0,0,0,0c-0.1,1.1,0.1,2.3,1.7,1.8c0.1,1.4-0.7,3.7,1.6,3.3c0,0,0,0,0,0c-0.2,1.2,0.4,1.8,1.6,1.6
			c-0.3,1.5,0.5,2.2,1.9,1.8c0,0,0,0,0,0c-0.2,1.2,0.4,1.8,1.6,1.6c0,0,0,0,0,0c-0.2,1.2,0.4,1.8,1.6,1.6c1,3.6,8.5,0.6,11.8,1.5
			c1.4-0.2,4,0.9,3.5-1.6c0,0,0,0,0,0c1.2,0.1,1.9-0.4,1.5-1.7c1.4-0.1,3.8,0.7,3.2-1.6c1.8,0.1,2-0.1,1.9-1.9c0,0,0.1,0.1,0.1,0.1
			c1.2,0.1,1.9-0.4,1.5-1.7c1.6-0.1,4,0.7,3.5-1.6c1.4-0.1,3.8,0.7,3.2-1.6c1.8-0.1,4,0.8,3.5-1.9c1.4-0.1,3.7,0.8,3.2-1.5
			c1.6-0.6,5.6,1.2,5.1-1.6c4.1-0.1,8.1,0.1,12.2-0.1c-3.9-0.1-1.4,2.4,1.2,1.6c-0.6,2.9,3.4,1.1,5.1,1.7c-0.4,3.5,4.6,1.2,6.7,1.9
			c-0.5,2.3,1.9,1.4,3.2,1.5c-0.5,2.4,1.9,1.5,3.5,1.6c-0.6,2.3,1.8,1.5,3.2,1.6c-0.1,1.7,0.1,2,1.9,1.9c0,0,0,0,0,0
			c-0.4,2.3,1.9,1.4,3.3,1.5c-0.1,1.6,0,1.7,1.9,1.6c-0.3,1.3,0.3,1.8,1.6,1.7c0,1.1,0,2.2,1.6,1.9c-0.2,1.3,0.4,1.8,1.7,1.6
			c0,1.6,0,1.6,1.9,1.6c2.3-0.8,8.4,1.8,8.3-1.6c1.3,0.3,1.8-0.3,1.7-1.6c1.7,0.3,1.7-0.8,1.5-1.9c1.9,0,1.9,0,1.9-1.6
			c1.3,0.3,1.9-0.3,1.6-1.6c1.3,0.3,1.9-0.3,1.6-1.6c1.9,0,1.9,0,1.9-1.9c1.3,0.3,1.9-0.3,1.6-1.6c1.3,0.3,1.9-0.3,1.6-1.6
			c1.3,0.3,1.9-0.3,1.6-1.6c1.9,0,1.9,0,1.9-1.9c2.5-0.7,0.7,2.5,3.3,1.9c0.1,1.4-0.7,3.8,1.6,3.2c0.1,1.8-0.8,4,1.9,3.5
			c0.1,1.4-0.7,3.7,1.5,3.3c-0.2,1.2,0.4,1.9,1.7,1.5c0.1,1.4-0.8,4.1,1.6,3.5c-0.2,3.5-0.1,2.4,1.8,3.8c-1,19.7,2.4,42.7-1.9,60
			c-2.4-0.5-1.3,2.1-1.6,3.5c-3.2,0-0.9,6-1.6,8.3c-3-0.2-1,4.8-1.6,6.7c-3.5-0.4-1.1,4.5-1.9,6.7c-2.3-0.4-1.4,1.8-1.6,3.2
			c-3-0.2-1,4.9-1.6,7c-2.7-0.4-1.2,3.2-1.6,4.8c-2.7-0.3-1.6,1.7-1.9,3.5c-2.3-0.5-1.4,1.8-1.6,3.2c-2.3-0.3-1.3,1.9-1.6,3.5
			c-2.3-0.5-1.4,1.8-1.6,3.2c-2.7-0.3-1.6,1.7-1.9,3.5c-2.4-0.5-1.3,2.1-1.6,3.5c-2.3-0.5-1.4,1.8-1.6,3.2c-1.2-0.1-2.2,0-1.9,1.6
			c-1.6-0.4-1.8,0.7-1.6,1.9c-1.4,0.2-3.7-0.7-3.2,1.6c-1.9,0-1.9,0-1.8,1.6c-1.3-0.3-2,0.4-1.6,1.6c-1.6-0.4-1.8,0.7-1.6,1.8
			c-1.6,0.3-3.9-0.7-3.5,1.6c-1.3-0.3-1.9,0.3-1.6,1.6c-1.4,0.2-3.8-0.7-3.2,1.6c-1.7-0.2-2.1,0.2-1.9,1.9c0.7-2.6-2.2-2.4-1.6,0
			c-0.5,0-1.1,0-1.6,0.1c-1.8-0.1-1.8-0.1-1.9,1.5c0,0,0,0,0,0c-1.4,0.2-3.7-0.7-3.2,1.6c-1.8,0.5-5.7-1.2-5.1,1.9
			c-2.3-0.4-12.5,0.3-6.2,1.7c-10.9,1.2-27.1-2.7-35.6,1.5c-3.4,0-6.8,0-10.2,0c0.5-2.8-3.5-1.1-5.1-1.6c0.6-2.3-1.9-1.4-3.2-1.6
			c0.1-1.8,0-2-1.9-1.9c-1.1,0-2.1,0-3.2,0c0.3-1.3-0.3-1.8-1.6-1.7c0.3-1.6-0.8-1.6-1.9-1.6c0-1.1,0-2.2-1.6-1.9
			c0.2-1.2-0.4-1.8-1.6-1.6c0.3-1.6-0.8-1.7-1.9-1.6c0,0,0,0,0,0c0.2-1.2-0.4-1.8-1.6-1.6c0.1-1.1-0.1-2.3-1.6-1.8c0,0,0,0,0,0
			c0.2-1.2-0.4-1.8-1.6-1.6c0.4-2.4-2.1-1.3-3.5-1.6c0,0,0,0,0,0c-0.2-1.4,0.8-4-1.7-3.4c-0.1-1.4,0.7-3.7-1.5-3.2
			c-0.6-1.9,1.4-5.5-1.9-5.1c-0.7-1.9,1.5-7-1.6-6.7c-0.5-1.6,1.2-5.7-1.7-5.1c-0.1-1.4,0.8-3.7-1.5-3.3c0-1.7-0.1-3.4-0.1-5.1
			c0.1-2.3-2.8-1.3-1.9-4.5c-1.3-7.7,2.6-20.6-1.6-25.9c-0.1-1.1-0.1-2.1-0.1-3.2c0-1.9,0-1.9-1.6-1.9c-0.6-1.9,1.3-5.6-1.9-5.1
			c-0.8-2.7,1.8-9.6-1.6-10c0-3.9,0-7.8,0-11.7c1.4,0.3,1.8-0.4,1.5-1.6c0-0.6,0-1.2,0-1.9c3.2,0.6,1.4-3,2-4.8
			c2.8,0.5,1.1-3.4,1.6-5.1c3.1,0.3,0.9-4.8,1.5-6.7c1.3-2.6-9.5-2.5-8.3,0c-1.6,0.3-3.9-0.7-3.5,1.6c-1.4,0.2-3.7-0.7-3.2,1.6
			c-1.7-0.4-1.8,0.7-1.6,1.9c-1.4,0.3-4-0.8-3.5,1.6c-1.3-0.3-1.9,0.3-1.6,1.6c-1.3-0.2-1.9,0.3-1.6,1.6c-2.7-0.4-1.6,1.7-1.9,3.5
			c-1.3-0.2-1.8,0.3-1.6,1.6c-2.8-0.5-1.1,3.4-1.6,5.1c-2.8-0.4-1.1,3.5-1.6,5.1c-4.1,0.8-0.8,9.8-1.8,13.4c0.1,1.7-0.8,3.7,1.9,3.2
			c0.1,1.4-0.8,4,1.6,3.5c0,0,0,0,0,0c-0.2,1.2,0.4,1.8,1.6,1.6c-0.1,1.1,0.1,2.3,1.7,1.8c0,0-0.1,0.1-0.1,0.1
			c-0.3,1.6,0.8,1.7,1.9,1.6c-0.2,1.2,0.4,1.8,1.6,1.6c0,0,0,0,0,0c-0.2,1.2,0.4,1.8,1.6,1.6c-0.1,1.1,0.1,2.3,1.7,1.8
			c0,0-0.1,0.1-0.1,0.1c-0.4,2.4,2.1,1.3,3.5,1.5c-0.6,2.9,3.4,1.1,5.1,1.7c-0.2,1.3,0.3,1.8,1.6,1.6c1.5,8.6-2.6,22.5,1.6,28.7
			c0.5,1.7-1.1,5.6,1.6,5.1c-0.7,2.8,1.6,8,1.9,2.7c0,0.7,0,1.4,0,2.1l0.1,0c0.2,1.4-0.8,4,1.5,3.5c0.7,1.9-1.5,7,1.6,6.7
			c0.6,2.1-1.5,7.2,1.9,6.7c-0.2,1.2,0.4,1.9,1.7,1.5c0.1,1.4-0.8,4.1,1.6,3.5c0,0,0,0,0,0c-0.2,1.2,0.4,1.8,1.6,1.6
			c-0.3,1.6,0.8,1.7,1.9,1.6c0,0,0,0,0,0c-0.1,1.1,0.1,2.3,1.6,1.8c0,0,0,0,0,0c-0.2,1.2,0.4,1.8,1.6,1.6c0,0,0,0,0,0
			c-0.4,2.4,2.1,1.4,3.5,1.5c-0.1,1.8,0,2,1.6,1.9c-0.3,1.3,0.3,1.9,1.6,1.6c-0.3,1.3,0.3,1.9,1.6,1.6c-0.5,2.4,1.8,1.4,3.5,1.6
			c-0.5,2.8,1.8,1.7,3.5,1.9c-0.4,3.1,5.1,1.2,7.1,1.6c-4.2-0.2-1.9,2.4,1.2,1.6c3.6,4.2,15.4,0.3,21.7,1.6c2.9,0.5,0.9-2.1,3.5-1.6
			c13.5-0.7,30.3,1.9,40.2-3.2c2.9,0.6,8.5-1.5,2.9-1.9c0.7,0,1.5,0,2.2,0l0-0.1c0.5,0,1.1,0,1.6,0c1.1,0.2,2.4,0,1.9-1.6h0
			c0,0,0.1,0.1,0.1,0.1c1.2,0.1,1.9-0.4,1.5-1.7c1.4-0.1,3.8,0.7,3.2-1.6c1.7-0.2,4,0.9,3.5-1.9c1.4-0.1,3.7,0.7,3.3-1.5
			c1.2,0.1,2.2,0,1.8-1.7c1.6,0.1,1.7-0.1,1.6-1.9c1.3,0.3,1.9-0.2,1.7-1.6c1.6-0.2,4,0.7,3.4-1.7c1.4-0.1,3.8,0.7,3.2-1.6
			c1.9,0,1.9,0,1.9-1.9c2.3,0.6,1.5-1.8,1.6-3.2c2.4,0.6,1.5-2.1,1.6-3.5c2.3,0.6,1.5-1.8,1.6-3.2c1.2,0.2,2.2,0.1,2-1.5
			c2.4,0.4,1.3-2.2,1.5-3.5c2.4,0.6,1.5-2.1,1.6-3.5c2.3,0.6,1.5-1.8,1.6-3.2c2.8,0.5,1.7-1.8,1.9-3.5c2.2,0.6,2.2-2.3,0.1-1.5
			c2.8,0.5,1.1-3.3,1.6-5.1c3.1,0.3,0.9-4.8,1.6-6.7c2.3,0.5,1.4-1.9,1.5-3.2c1.8,0.1,2,0,1.9-1.9c-1.6-8.9,5-1.7,5.1-6.7
			c1.4-0.1,3.8,0.7,3.2-1.6c1.3,0.3,1.9-0.3,1.6-1.6c1.4-0.2,3.9,0.8,3.6-1.5c1.6,0.3,1.7-0.8,1.5-2c1.6-0.2,4,0.8,3.5-1.6
			c1.3,0.3,1.9-0.3,1.6-1.6c1.3,0.3,1.9-0.3,1.6-1.6c1.6,0,1.6,0,1.6-1.9c2.7,0.4,1.7-1.5,1.9-3.2c2.4,0.6,1.5-2.1,1.6-3.5
			c2.3,0.6,1.5-1.8,1.6-3.2C235.9,136,235.1,133.6,235.2,132z M43.8,82.7c0,0.3,0,0.5,0,0.8l0,0C43.8,83.2,43.8,82.9,43.8,82.7z
			 M77.5,219.5c0,0.5,0,1,0.1,1.6C77.6,220.5,77.5,220,77.5,219.5L77.5,219.5z M75.6,217.9c-0.5,0-1,0-1.6,0
			C74.6,217.8,75.1,217.8,75.6,217.9z M72.4,214.4c-0.6,0-1.2,0-1.8,0l0,0C71.2,214.3,71.8,214.4,72.4,214.4z M52.3,206L52.3,206
			C52.3,206,52.3,206,52.3,206z M27.1,140.6c0.2,0,0.3-0.1,0.5-0.1C27.4,140.6,27.3,140.6,27.1,140.6L27.1,140.6z M29.2,142.2
			C29.2,142.2,29.2,142.2,29.2,142.2C29.2,142.2,29.2,142.2,29.2,142.2z M35.4,106.8c0,0.5,0,1,0,1.5
			C35.4,107.9,35.4,107.3,35.4,106.8z M23.7,138.7c0.5,0,1,0,1.6,0C24.7,138.7,24.2,138.7,23.7,138.7z M27.1,142.2L27.1,142.2
			C27.2,142.2,27.1,142.2,27.1,142.2z M42.2,92.6c0-0.1,0-0.2,0-0.4C42.2,92.4,42.2,92.5,42.2,92.6z M52.3,207.7L52.3,207.7
			C52.4,207.6,52.3,207.6,52.3,207.7z M57.2,214.3c0.6,0,1.2,0,1.8,0C58.4,214.3,57.8,214.3,57.2,214.3z M87.4,232.9L87.4,232.9
			c0.2,0,0.3-0.1,0.4-0.1C87.7,232.8,87.6,232.8,87.4,232.9z M230.4,98.9c0-0.1,0-0.3,0.1-0.4C230.4,98.6,230.4,98.8,230.4,98.9z
			 M214.3,100.1c0.9,0.1,1.8,0,2.7,0.1c-0.2,1.3,0.3,1.8,1.6,1.6C220,109,209.7,104.2,214.3,100.1z M211.9,138.7c0-0.3,0-0.5,0-0.8
			C211.9,138.2,211.9,138.5,211.9,138.7C211.9,138.7,211.9,138.7,211.9,138.7z M213.5,135.5c0,0.3,0,0.5,0,0.8
			c0.3-0.9-0.5-1-1.1-0.7C212.7,135.4,213.1,135.4,213.5,135.5z M213.5,135.5c0.8,0,1.2,0,1.4-0.2
			C214.7,135.5,214.3,135.5,213.5,135.5z M217,153.4C217,153.4,217,153.4,217,153.4C217,153.4,217,153.4,217,153.4z M198.5,44.6
			C198.5,44.6,198.4,44.6,198.5,44.6L198.5,44.6C198.4,44.6,198.5,44.6,198.5,44.6z M173.3,62c0-0.2,0-0.3,0-0.5
			C173.3,61.7,173.3,61.9,173.3,62z M164.7,49.7L164.7,49.7c0.6,0,1.2,0,1.8,0C165.9,49.7,165.3,49.7,164.7,49.7z M165.9,48.1
			c0.6,0.1,0.9,0.5,0.8,1.6c0.9-0.1,1.5,0.1,1.6,0.8c-0.1-0.7-0.7-0.9-1.6-0.8C166.8,48.6,166.4,48.2,165.9,48.1z M169.3,43
			C169.4,43,169.4,43,169.3,43C169.4,43,169.4,43,169.3,43z M171,51.4c0.4,0.3,0.5,1,0.4,1.7c0.7,0,1.4,0,1.7,0.4
			c-0.3-0.4-1-0.4-1.7-0.4C171.5,52.4,171.5,51.7,171,51.4z M176.5,56c0-0.4-0.1-0.7-0.3-1C176.5,55.2,176.6,55.5,176.5,56z
			 M156.4,34.7C156.4,34.7,156.4,34.7,156.4,34.7C156.4,34.7,156.4,34.7,156.4,34.7z M152.9,34.7c0.6,0,1.3,0,1.9,0c0,0,0,0,0,0
			c0,0,0,0,0,0c-0.8,0-1.6,0-2.3,0.1C152.6,34.7,152.8,34.7,152.9,34.7z M154.3,43.1c-0.2-0.1-0.4-0.1-0.8-0.1
			C153.9,43,154.1,43,154.3,43.1z M80.7,59.9L80.7,59.9L80.7,59.9C80.7,59.9,80.7,59.9,80.7,59.9z M72.5,48.1c-0.2,0-0.4,0-0.6,0
			C72,48.1,72.2,48.1,72.5,48.1z M63.9,50.9c0-0.3,0-0.5-0.1-0.7C63.9,50.4,63.9,50.6,63.9,50.9z M60.2,41.3
			c-0.2,0.1-0.4,0.1-0.7,0.1C59.8,41.4,60,41.4,60.2,41.3z M48.8,83.4L48.8,83.4L48.8,83.4C48.8,83.5,48.8,83.4,48.8,83.4z
			 M53.9,62.7C53.9,62.7,53.9,62.7,53.9,62.7C53.9,62.7,53.9,62.7,53.9,62.7z M60.6,49.7c0.9,0.1,2.4-0.3,3,0.2
			C63.1,49.4,61.5,49.8,60.6,49.7z M65.7,54.3c0,0.2,0,0.3,0,0.5C65.7,54.6,65.7,54.4,65.7,54.3z M70.6,63.1c0.6,0,1.2,0,1.8,0
			C71.8,63.1,71.2,63.1,70.6,63.1z M75.7,68.2c0.6,0,1.2,0,1.8,0C76.9,68.2,76.3,68.2,75.7,68.2z M116.2,44.6
			c-3.2-0.9-5.4,2.3-1.2,1.8c-2.6-0.5-13.7,0.4-6.6,1.6c-0.8,0-1.6-0.1-2.5-0.1l0,0c-1.4,0.2-3.8-0.7-3.2,1.6
			c-1.4,0.2-4-0.8-3.5,1.6c-1.8,0.3-3.9-0.8-3.5,1.9c-1.3-0.3-1.9,0.3-1.6,1.6c-1.4,0.2-3.7-0.7-3.2,1.6c-1.9,0-1.9,0-1.9,1.9
			c-1.3-0.3-1.9,0.3-1.6,1.6c-1.7,0.1-3.4,0-5.1,0c0.3-1.3-0.3-1.9-1.6-1.6c0-1.2,0-2.3,0-3.5c1.3,0.3,1.9-0.3,1.6-1.6
			c1.9,0.1,1.9-0.1,1.9-1.9c2.6,0.8,5.2-1.7,1.2-1.6c2-0.4,7.4,1.5,7.1-1.5c1.7-0.5,5.7,1.2,5.1-1.7c1.7-0.2,3.6,0.8,3.2-1.8
			c1.9-0.7,7,1.5,6.7-1.6c2.8-0.9,9.8,1.8,10.2-1.6c2.5,0.1,16.6,0.2,9.6-1.7c5.2,0.1,10.4,0,15.6,0c-0.5,2.8,3.5,1.1,5.1,1.6
			c-0.5,2.3,1.9,1.4,3.2,1.5c-0.6,2.9,3.4,1.1,5.1,1.7c-0.4,2.8,1.8,1.6,3.5,1.8l0,0.1c0.7,0,1.4,0,2-0.1c-3.9-0.1-1.4,2.4,1.2,1.6
			c-0.3,1.3,0.3,1.9,1.6,1.6c-0.5,2.4,1.8,1.4,3.5,1.6c-0.2,1.2,0,2.3,1.6,1.9c-0.6,2.4,2.1,1.4,3.5,1.6c-0.3,1.3,0.3,1.8,1.5,1.7
			c0,1.1,0.1,2.3,0,3.4c-1.3-0.2-1.9,0.3-1.6,1.6c-1.2-0.1-2.2-0.1-1.9,1.6c-1.1,0-2.1,0-3.2,0c0.2-1.4-0.4-1.8-1.6-1.6
			c0,0,0-0.1,0-0.1c0-1.6,0-1.6-1.9-1.6c0.3-1.3-0.3-1.9-1.6-1.6c0.4-2.7-1.5-1.7-3.2-1.9c0.1-1.6,0-1.7-1.9-1.6
			c0.6-2.9-3.5-1.2-5.1-1.6c0.4-2.7-1.5-1.7-3.2-1.9l0,0c-0.5,0-1.1,0-1.6,0c4.7-0.8-1.5-2.1-3.5-1.6c0.5-2.8-3.5-1.1-5.1-1.5
			c0.6-2.3-1.8-1.5-3.2-1.6C135.7,42.1,120.6,45.8,116.2,44.6z M156.3,55.1c0,0.1,0,0.2,0,0.2C156.3,55.2,156.3,55.1,156.3,55.1z
			 M156.4,54.8C156.4,54.8,156.4,54.8,156.4,54.8C156.4,54.8,156.4,54.8,156.4,54.8z M163,59.9C163,59.9,163,59.9,163,59.9L163,59.9
			C163.1,59.9,163,59.9,163,59.9z M161.5,58.3C161.5,58.3,161.5,58.3,161.5,58.3L161.5,58.3L161.5,58.3z M168.2,63.1
			c-0.5,0-1.1,0-1.6,0C167.1,63.1,167.7,63.1,168.2,63.1z M134.6,46.5c0,0.2,0,0.3,0,0.4c0-0.2,0-0.4,0.1-0.5
			C134.7,46.4,134.6,46.5,134.6,46.5z M135.2,48c0.3,0.1,0.6,0.1,1.1,0c0.5,0,1.1,0,1.6,0C137.1,48,135.9,48.3,135.2,48z
			 M172.7,73.3c0.2,0,0.4,0,0.6,0C173.1,73.3,172.9,73.3,172.7,73.3z M189.4,199.3c-0.3,0-0.7,0.1-0.9,0.3
			C188.7,199.3,189.1,199.2,189.4,199.3z M169.8,219C169.8,219,169.8,219,169.8,219C169.8,219,169.8,219,169.8,219z M168.2,211.6
			c0,0.3,0,0.5-0.1,0.7C168.2,212.1,168.3,211.9,168.2,211.6z M164.7,222.9L164.7,222.9c0-0.5,0-0.8,0.1-1.1
			C164.7,222.1,164.7,222.4,164.7,222.9z M169.4,219.4c0.1,0,0.3,0,0.4,0.1C169.7,219.4,169.5,219.4,169.4,219.4z M191.8,197.7
			c0-0.6,0-1.2,0-1.8C191.8,196.5,191.8,197.1,191.8,197.7z M203.4,165.6c0-0.2,0-0.4,0-0.5C203.3,165.2,203.3,165.4,203.4,165.6z
			 M215.1,135c0.1-0.2,0.1-0.4,0.1-0.8C215.1,134.6,215.1,134.8,215.1,135z M216.4,154c0.2,0,0.4,0,0.6,0
			C216.8,154,216.6,154,216.4,154z"/>
		<path class="st1" d="M97.7,177.3c-0.3,4.8,8.6-1.5,6.7,5.1c-0.3,1.3,0.3,1.8,1.6,1.7c1.3,4.3,12.5,0.6,16.9,1.8
			c1.6,0,1.6,0,1.6-1.8c1.6-0.6,5.6,1.2,5.1-1.6c1.4-0.2,3.8,0.6,3.2-1.7c1.4-0.1,4.1,0.8,3.5-1.6c1.7-0.2,3.7,0.9,3.2-1.9
			c-0.9-2.7,1.9-9.7-1.6-9.9c0.3-2.7-1.5-1.6-3.2-1.8c-4.6,1.1-17.3-2.5-18.5,1.8c-3.7,1-12.2-2.1-13.4,1.6c-1.4,0.2-4-0.8-3.5,1.6
			C96.2,170.3,98.3,175.3,97.7,177.3z M137.9,177c0,0,0-0.1,0-0.1C137.9,177,137.9,177,137.9,177z M118.3,167.5c0.2,0,0.3,0,0.4,0
			C118.6,167.5,118.5,167.5,118.3,167.5z M106,182.4C106,182.4,106,182.4,106,182.4c0.1-0.1,0.3,0,0.5-0.1
			C106.3,182.4,106.1,182.4,106,182.4z"/>
	</g>
</g>
</svg>
