<?xml version="1.0" encoding="utf-8"?>
<!-- Generator: Adobe Illustrator 26.2.1, SVG Export Plug-In . SVG Version: 6.00 Build 0)  -->
<svg version="1.1" id="Calque_1" xmlns="http://www.w3.org/2000/svg" xmlns:xlink="http://www.w3.org/1999/xlink" x="0px" y="0px"
	 viewBox="0 0 256 256" style="enable-background:new 0 0 256 256;" xml:space="preserve">
<style type="text/css">
	.st0{fill:#FFD900;}
</style>
<path class="st0" d="M72.4,211.3c4.3-55.8-11.7-115.4-0.1-169.6c27,3.1,55.3-2.8,82.1,4.5c9.9,1.3,20.7,4.2,30-0.6
	c2.4-1.4,7.3-0.6,9,1.2c-5.5,31.4-17.1,65.8-16.5,99.9c-2,15.9,3.1,64.7-7.6,73c-27.9-1.6-56.5,2.3-84-1.2
	C78.5,220.8,72.3,219.9,72.4,211.3z M91.8,121.4c-2.3,18.7,3.1,35.1,9.5,52.2c1.6,5.6-1.7,14.1,3.8,17.6
	c36.3,13.1,36.4,13.3,37.9-25.3c-0.7-31.8,10-62.2,7.8-94.1c-2.7-8.7-16.4-4.4-21.8-11.2C87.6,47.9,91.7,93.8,91.8,121.4z"/>
</svg>
