<?xml version="1.0" encoding="utf-8"?>
<!-- Generator: Adobe Illustrator 26.2.1, SVG Export Plug-In . SVG Version: 6.00 Build 0)  -->
<svg version="1.1" id="Calque_1" xmlns="http://www.w3.org/2000/svg" xmlns:xlink="http://www.w3.org/1999/xlink" x="0px" y="0px"
	 viewBox="0 0 256 256" style="enable-background:new 0 0 256 256;" xml:space="preserve">
<style type="text/css">
	.st0{fill:#FF2116;}
	.st1{fill:#FDFDFD;}
	.st2{fill:#C9C9C9;}
</style>
<path class="st0" d="M183.1,151c0.7-30.4-17.8-17.5-17.2,4.2c-4.6,6.4-15.4-7.3-22.2-7.7c-7.3-3.7,3.8-16.7-6.1-20.7
	c-7-5.9-4.4-3.6,1.3-6.8c0.3-3-3.9-4.7-6.5-4.5c-6.2-1.3,1.3-11.7-9.7-9.2c-18.9-11.6-42.9-9.7-66.4-8.5c-7.3-2.9-24.8-2-28.7,3.8
	c-1.3,1.9-1.7,5.1,3.3,9.3c0,0,0,0-0.1,0.1c-0.7,0.6-1.6,1.4-1.6,2.7c0,0.4,0.1,0.8,0.2,1.1c-5.9,2.6-7.8,4.3-7.4,6.2
	c0.5,2.7,4.8,3,16.7,3.1c3.6,0,7.4,0.1,10.5,0.3l0.1,0l0.1,0c2.5,0,5.1-0.1,7.7-0.2c2.3-0.1,4.8-0.2,7.1-0.2l1.9,0l-0.1-0.3
	c0.3,0.1,0.7,0.2,1.1,0.2c15.3,0,30.7-0.1,46,0.4c4-0.2,1.4,3.8,3.4,5.4c2.5,1.3,1.8,4.5,3.7,6c18.5,10.7-22.3,3.2-15,34.1
	c8,9.1,2.8-11.9,7.5-15c6-1.9,2.1,12,3.1,15.8c-1,10.9-22.9,7-17.5,21.9c0.8,12.9,19.6,12.6,22.4,1.1c1.4-4-1.9-11.4,3.3-12.9
	c14.8-5.7,34.5,1.5,44.1-14.4C175.2,162.9,184,161.5,183.1,151z M49.8,104.7c0.1,0,0.1-0.1,0.2-0.1c0,0,0,0,0,0
	C49.9,104.7,49.8,104.7,49.8,104.7z M54.8,111.7c-0.5-1.2-0.5-1.9-0.3-2.1c0.4-0.3,1.4-0.1,1.8,0.4c0.1,0.1,0.5,0.5-0.2,1.5
	c-1,1.2-0.6,2.6-0.3,3.5c0,0,0,0,0,0.1c-0.1,0-0.2,0-0.2,0l-0.1,0c-0.7,0-1.1,0-1.5,0c0.3-0.6,0.7-1.4,0.9-2.4l0.1-0.5L54.8,111.7z
	 M44.6,101.1c-0.1,0-0.1,0.1-0.2,0.1c0,0-0.1,0-0.1,0C44.4,101.2,44.5,101.2,44.6,101.1C44.6,101.1,44.6,101.1,44.6,101.1z
	 M103.7,116.1c-25.2,20.5-37.2-17.9-21.6-8.3c1.7,9.2,8.7,9,9.9-0.1C96.3,106.8,105.5,109.4,103.7,116.1z M114.2,194
	c-3.2,4.2-9.9,1.5-10.7-3.5C103.2,178.9,123.5,182.7,114.2,194z M124.8,132.8c-7.4-10.1,12-6,12.1,1.5
	C137.7,145,128.3,136.7,124.8,132.8z M151.3,168.7c-4.8,1.5-27.5,6.5-28.9,0.1c1-8.5-2.1-22.7,10.9-19.5c3.3,4.2,8.7,4.7,13.7,6.9
	C152.8,160.2,165.5,166.9,151.3,168.7z M173.9,158.3c-3.9-2.6-2.1-15.3,1.7-18.4C180.2,140.9,179.2,156,173.9,158.3z"/>
<path class="st1" d="M175.1,34.8c9.2,0.7,8.2-1.2-0.4,0C174.9,34.8,175,34.8,175.1,34.8z"/>
<path class="st1" d="M160.1,36.1c-10.3,3.1-26.7-1.3-36.6,2.7c12.7-1.1,34.5,12.1,40.4-3.2C162.8,35.9,160.7,35.5,160.1,36.1z"/>
<path class="st1" d="M92.8,96.1c6.2,0.7,18.3-4,20.6,4.2c0.3,2.1,3.4-0.8,4.7,1.5c2.1,0.6,4.8,4.7,6.2,1.6c2.2-3,2,1.9,4.4,1.7
	c4.2,0.1,1.6,5.1,3.7,7.6c3.9,2,15.2,3.1,7.3,9.7c-1.3,0.6-0.7,1-0.1,1.6c11.9,12.8-7.1,19.3,16.8,27.4c8.6,7,9-1.4,9.1-8.6
	c-0.1-7.2,9.8-18.6,16.7-9.7c5.6,10.3,5.4,36.3-11,34.4c-3.3,3-6.5,8-11.5,9c-10.2,5.5-25.4,1-35.2,7.2c-4.6,6.6,1.3,5.7-2.4,12.1
	c0.5,9.8-22.3,11-23.2,2.7c-4.1-4.6-4.2-14.1,0.7-18.5c0.9-3.5,8.3-1.9,7.3-4.3c-7.3-6.2-6-19.8,0.1-26.7
	c1.6-4.7,18.6-6.9,12.3-11.7c-3.5-0.6-1.2-4.5-3.5-6c-2.9-1.1,0-5.6-3.3-5.6c-15.7,1-35.7-3.4-47.3,1.6
	c3.2,30.7-4.1,78.8,13.4,102.2c26.8,0.5,55.4,0,83.4,1.4c2.1-2.3,4.8,1,6.3-0.6c2.4-1.8,0-19.8,2.9-14c3.9,6.3,3.8-4.1,3.7-6.8
	c1.7-3.1,2.7-6.3,3.3-9.8c8-26.8,15-50.6,18.2-78.9c2.7-3.9,2.2-8.6,5-12.7c0.5-3.9,7.5-4.7,5.2-9c-3.3-0.5-6.1-0.5-7.6-4.2
	c-17.6-16.3-12.6-16.5-17.6,1.6c-5.1-3.6-13.6-6.9-14.2-13.6c-0.4-5.7-7.7-4-11.6-5.6c-5.4-8-8.6-20-16.3-27.7
	c-8.1-7.3-27-2.4-38-8.4c-8.9,1.1-34.6-12.6-37.4-6.4c-1.2,4.9-3.6,64.8-8.3,52.7C52.7,104.3,81.4,93,92.8,96.1z"/>
<path class="st2" d="M212,53.1c1.2-4.6,7.3-11.2,1-14.5c-2.9-1.9-5.6,2-8.1,0.8c-8-12.2-11-19.1-23.1-4.5
	c-27.3-4.5-13.7,12.5-33.8,7.2c-4.5-2.9-30.9-0.1-21.6-5.8c-21-0.8-43-3.1-62.3-12.7c-14.1-5-9.5,58.1-7.5,66.8
	c5.4-12.6,3.9-27.2,5.4-41c3.1-4.4-1.7-18.2,5.6-16.9c21.3,7.6,44.4,12.3,67.1,14.1c7.2,1.8,15.5,18.9,18.1,26.4
	c-0.4,8.5,13.8,2,14.3,9.9c0.2,4.2,1.2,5.6,5.2,7c19.3,19,4-7.6,14.3-6.3c7.4,4.5,11.5,14.6,19.9,15.5c2,4.5-5.6,6.1-6.1,10.7
	c-7.1,17.2-6.8,38.7-12.4,55.9c-5.8,5.4-3.4,18-7,25.9c-2.3,5.9-3.5,12.3-6.3,18c-0.6,2.8,1,7.1-1.7,8.9c-7.2-10.4-1.4,7.2-5,11.8
	c-15.3,1.8-33.3-0.2-49.6-1.2c-13.8-2.8-27.1,4.8-40.1,0.4c-18.6-23.4-8.2-76.4-14.2-104.8c-4.9,0.1-9.9,0.5-14.8,0.5
	c4.2,0.3,7.2,1.1,7.4,2.7c6.8,20.3,1,45.2,5,67.5c2.6,9.4-2.1,17.8,4.9,24.4c-0.2,6.4-0.4,12.9,4.9,17.5c29.9-1.9,59.3-0.6,89.3-0.6
	c10.5,2,19.1,1,17-11.8c1.4-5.3,2.9-10.7,3.9-16.4c9.6-30.2,18.9-60.7,23-92.5c3.5-8.2,12.3-15.9,13.5-25
	C217.8,78,212.6,65.6,212,53.1z M146.8,49.2c-2.1-1.6,0.7-1.6,1.6-1.8c13.5,0.1,13.9,11.4,14.8,22.1C159.5,79,150.7,52,146.8,49.2z
	 M193.1,35c2.2-1.4,4.1,4.4,2,5.3C192.9,41.4,189.8,35.1,193.1,35z M196.8,76.2c-0.2,7.6-9,2.8-6.7-2.8
	C191.9,67.6,197.7,71.6,196.8,76.2z M209.6,89.2c-3.9-3.1-0.9-12.7-0.3-17.3C210.2,76.2,212.8,85.8,209.6,89.2z"/>
<path class="st1" d="M64.1,97.7c16.7,2,38.2-5.5,50.6,5.6c4.4,3.2,13.1,1.7,15,5.4c-3.7,10.1,15.2,6.3,7.4,12.6
	c-11.5,0.4,10.1,7,4.6,19.6c-1.7,2.7-1.2,5.3,2,6.6c6.9,0.4,17.5,14.1,22.2,7.7c3.8-49.5,32.6-3,8.3,8.6
	c-20.6,16.1-25.5,12-50.3,16.9c-7.9,8.4,3.1,25.3-21.6,20.6c-18.8-28.8,24.8-14.5,12-46.8c-5.2,0.7-4.5,10.6-4.1,15
	c-5.7,9.7-5.8-8.1-5.1-12.1c0.8-17.4,32.5-9.7,13.7-23.5c-4.9-18.4-35.7-6.8-51.9-9.9c-2.6,0-2.8-0.5-3.1-2.9c0,2.1,1.3,5.4,1.3,8.1
	c2.6-9.3,35.2-1.7,47.2-3.6c3.2,0,0.4,4.6,3.3,5.6c0.9,0.5,1,1.1,1.1,2c-1,3.8,4.2,3.2,3.7,6.2c-2.6,5.5-10.3,3.8-13.6,9.5
	c-5.5,5.9-6.4,16.9-3.1,23.7c0.9,0.8,5,4.1,2.5,4.2c-13.4-0.1-13.4,24.2-2.6,26.2c6.6,0,17.9,2.4,18.4-7.3c3.7-6.4-2.3-5.4,2.4-12.1
	c11.1-7,29.4-0.5,39.5-9.7c10.8-11.4,15.6-2.9,17.9-11.8c6.2-8,5.2-40.3-10.7-30c-14.7,16.4,5.4,32.1-27,12.9
	c-3.1-5.9,3.1-15.3-4.2-20.5c-3-2.2,3.9-3.3,2-7c-0.8-2.9-4.5-3.7-7.2-3.4c-6-1.9-0.7-8-8.1-10.3c-1.4-3.6-2.6,1.5-4.2,1.1
	c-2.1-1.8-5.3-4.6-8-3.7c-0.8,0.4-1,0-1.1-0.8c-0.1-3.1-2.4-3.9-5-4.5C99.4,95.7,43.4,95.6,64.1,97.7z M113.7,155.9
	c0.5,3.4,0.7,6.7-0.2,10C112.2,162.6,113,159.2,113.7,155.9z"/>
<path class="st2" d="M154.8,35.3c13.6,0.7-5,3.3-8,0.8C148.8,35.1,152.7,35.3,154.8,35.3z"/>
<path class="st1" d="M148.5,47.4c14.4-2.3,18.5,26.3,11.5,23.8c-4.7-3.9-4.9-11.9-9.9-16.4C149.4,52.1,143.5,47.2,148.5,47.4z"/>
<path class="st1" d="M196.8,76.2c-0.2,7.6-9,2.8-6.7-2.8C191.9,67.6,197.7,71.6,196.8,76.2z"/>
<path class="st1" d="M51.2,116.9c4.2-1.9,0-8.9,3.3-9.6c5.5,0.6,2.5,4.7,2.9,7.9C58.9,119.1,53.1,117.4,51.2,116.9z"/>
<path class="st1" d="M207.7,84.7c0.7-3.9,0.1-9.2,1.5-12.8C212,74.6,210.9,99.3,207.7,84.7z"/>
<path class="st1" d="M196.1,39.2c-1.5,3.3-4.2-0.5-4.5-2.6C193,32.7,196.3,35.9,196.1,39.2z"/>
<path class="st1" d="M48.2,105.4c-0.7-0.1-5.8,0.8-3.4-0.9c2.5,0.4,5.2-5.4,6.5-1.4C53.1,105.7,50.3,105.4,48.2,105.4z"/>
<path class="st1" d="M113.7,155.9c0.5,3.4,0.7,6.7-0.2,10C112.2,162.6,113,159.2,113.7,155.9z"/>
<path class="st1" d="M89.8,121.3c-12.2,5.4-21.4-21.2-7.7-13.5c0.5,3.8,2.3,7.1,6.6,6.9c3.9,0.1,0.5-8.2,5.1-7.6
	C111.1,110,103.1,122.5,89.8,121.3z"/>
<path class="st1" d="M127,126.6c6,0.1,12.7,6.7,9,12.4C131.9,142.6,116,126.4,127,126.6z"/>
<path class="st1" d="M177.9,145.1c2.3,4.5-3.7,19.7-6.1,9.5C170.9,149.3,176.6,130.3,177.9,145.1z"/>
<path class="st1" d="M109.6,196c-10.3-2.1-6-13.4,3.4-13C119.4,184.3,115.9,197.1,109.6,196z M114.1,188.5c1.8-6.9-10.5-1.2-7.1,3
	c0.8,2.2,2.5,0.4,4.1,0.3C114.4,192.3,114.1,191.5,114.1,188.5z"/>
<path class="st1" d="M138.2,171.1c-7.5-0.4-18.3,4.3-15.7-7.8c1.6-4.3,0-10.2,2.9-13.8c4.6-0.5,8.8-1.6,11,2.9
	C158,159.6,169.5,169.5,138.2,171.1z"/>
<path class="st1" d="M114.1,188.5c0,3,0.3,3.7-3,3.3c-2.9,1.4-4.4,0.6-4.8-2.6C107.3,186.4,115.5,182.3,114.1,188.5z"/>
</svg>
