<?xml version="1.0" encoding="utf-8"?>
<!-- Generator: Adobe Illustrator 26.2.1, SVG Export Plug-In . SVG Version: 6.00 Build 0)  -->
<svg version="1.1" id="Calque_1" xmlns="http://www.w3.org/2000/svg" xmlns:xlink="http://www.w3.org/1999/xlink" x="0px" y="0px"
	 viewBox="0 0 256 256" style="enable-background:new 0 0 256 256;" xml:space="preserve">
<style type="text/css">
	.st0{fill:#04A2E7;}
	.st1{fill:#ED272F;}
	.st2{fill:#717676;}
	.st3{fill:#8B0E21;}
	.st4{fill:#C3C3C3;}
	.st5{fill:#FEFDFD;}
</style>
<path class="st0" d="M206.8,163.4c0.2,0.2,0.4,0.3,0.5,0.5c-0.1,0.3-0.2,0.7,0.3,0.9c0.1,0.1,0.2,0.2,0.3,0.3c0,0.2,0.1,0.3,0.3,0.3
	c0.3,0.3,0.2,0.6,0.3,0.9c0,0.2,0.3,0.2,0.4,0.3c0.1,0.3,0.2,0.7,0.4,1c0.3,0.2,0.1,0.6,0.3,0.8c0.1,0.1,0.2,0.2,0.3,0.4
	c0.3,0.5,0.1,1,0.2,1.5c0,0.3-0.2,0.7,0.3,0.8c0.1,0.1,0.2,0.2,0.3,0.3c0,0.3,0.2,0.2,0.4,0.3c0.3,0.5-0.1,1.3,0.6,1.8
	c0,0,0,0.1,0,0.1l0.1,0c0,0.3,0.1,0.7,0.1,1c0,4.3,0,8.6,0,12.9c0,0.4,0.1,0.7-0.2,1.1c-0.5,0.2-0.7,0.6-1,1
	c-0.2,0.2-0.3,0.3-0.5,0.5c-0.1,0.2-0.2,0.4-0.1,0.6c-0.1,0.1-0.2,0.2-0.3,0.3c0,0-0.1,0.1-0.1,0.1c-0.5,0.5-1,1-1.5,1.6
	c-0.2,0-0.3,0.1-0.3,0.3c-0.1,0.1-0.2,0.2-0.3,0.3c-0.2,0-0.3,0.1-0.3,0.3c-0.1,0.1-0.2,0.2-0.3,0.3c0,0-0.1,0.1-0.1,0.1
	c-0.2,0.5-0.7,0.4-1.1,0.5c-0.2,0-0.2,0.3-0.3,0.4c-0.5,0.3-1.1,0-1.6,0.4c-0.8,0.4-1.7,0-2.5,0.2c-0.1,0.1-0.3,0.2-0.4,0.4
	c-0.3,0.2-0.7,0.2-1.1,0.2c-1.8,0-3.6,0-5.4,0c-0.1,0.1-0.2,0.2-0.4,0.4c0,0-0.1,0-0.1,0.1c-0.2,0.2-0.4,0.4-0.5,0.5
	c0,0-0.1,0-0.1,0.1c-0.2,0.2-0.4,0.4-0.5,0.5c0,0-0.1,0-0.1,0.1c-2,0.3-4,0.1-6,0.1c-0.9,0-1.8,0.2-2.7-0.1
	c-0.1-0.1-0.2-0.3-0.3-0.4c-0.7-0.1-1.5,0.3-2.1-0.3c0-0.2-0.1-0.3-0.3-0.3c-0.2-0.2-0.3-0.4-0.5-0.5c0-0.1-0.1-0.1-0.1-0.1
	c-0.2-0.2-0.4-0.4-0.5-0.6c-0.1-0.3-0.2-0.6-0.3-0.8c-0.3-0.3-0.9-0.1-1.2-0.5c-0.2-0.5-0.8-0.2-1-0.5c-0.1-0.1-0.2-0.2-0.3-0.4
	c-0.1-0.1-0.2-0.2-0.3-0.2c-0.1-0.1-0.2-0.2-0.3-0.4c-0.1-0.1-0.2-0.2-0.3-0.3c-0.1-0.1-0.2-0.2-0.3-0.3c-0.1-0.1-0.2-0.2-0.2-0.3
	c-0.1-0.1-0.2-0.2-0.4-0.3c0-0.1,0-0.1-0.1-0.1c-0.2-0.2-0.4-0.4-0.5-0.5c0-0.1,0-0.1-0.1-0.1c-0.1-0.1-0.2-0.2-0.3-0.4
	c-0.1-0.1-0.2-0.2-0.3-0.2c-0.1-0.1-0.2-0.2-0.3-0.4c-0.1-0.1-0.2-0.2-0.3-0.3c-0.1-0.1-0.2-0.2-0.4-0.3c-0.1-0.3-0.2-0.6-0.3-0.8
	c-0.2-0.2-0.4-0.4-0.5-0.6c0-0.4,0.1-0.8-0.1-1.2c-0.2-0.2-0.4-0.4-0.6-0.5c-1-0.6-1-1.7-1-2.7c-0.1-0.1-0.2-0.2-0.3-0.4
	c-0.4-0.6,0-1.4-0.3-2c-0.2-0.2-0.4-0.4-0.5-0.6c-0.1-0.8,0.4-1.7-0.3-2.5c-0.2-0.2-0.3-0.4-0.5-0.5c-0.1,0-0.1,0-0.2-0.1
	c-0.4-0.5-0.1-1-0.3-1.5c-0.2-0.3-0.4-0.6-0.4-0.9c-0.1-0.1-0.2-0.3-0.3-0.4c-0.4-0.4,0-1-0.3-1.4c-0.2-0.2-0.4-0.3-0.5-0.5
	c0-0.2-0.1-0.3-0.3-0.3c-0.1-0.1-0.2-0.2-0.3-0.3c0.1-0.4,0.1-0.7-0.4-0.9c-0.2-0.3-0.2-0.6-0.2-0.9c-0.1-0.1-0.3-0.2-0.4-0.3
	c-0.1-0.3-0.2-0.7-0.4-1c-0.1-0.1-0.2-0.2-0.3-0.2c-0.1-0.1-0.2-0.2-0.3-0.3c-0.1-0.1-0.2-0.2-0.2-0.3c-0.1-0.1-0.2-0.2-0.4-0.3
	c-0.1-0.3-0.2-0.6-0.2-0.8c-0.3-0.3-0.5-0.5-0.8-0.8c-0.1-1.7-0.9-3.1-2.3-4.1c-0.2-0.2-0.2-0.4-0.3-0.6c-0.1-1.1,0-2.1-0.5-3.3
	c-0.5-1.1-0.4-2.5-0.5-3.7c-0.1-1.8-0.5-3.1-1.9-4.1c-0.3-0.2-0.5-0.5-0.8-0.8c-0.3-0.3-0.4-0.6-0.2-0.9c0.5-0.6,1-1.3,2-1.3
	c5.9,0,11.8,0,17.8,0c0.4,0,0.8,0,1.1,0.3c0.4,0,0.9,0.1,1.3,0.1c1.5,0.2,3,0.6,4.5,0.6c1.1,0,2.2,0.4,2.8,0.8
	c1.3,0.9,2.8,1.1,4.2,1.5c1.6,0.5,3.4,0.5,5,1.1c0.8,0.3,1.4,0.6,2,1.1c0.4,0.3,0.7,0.7,1.2,0.8c0.3,0,0.6,0.3,0.6,0.8
	c-0.1,1,0.2,1.4,1.2,1.4c0.6,0,0.8,0.2,0.8,0.7c0.1,0.1,0.2,0.2,0.4,0.4c0.1,0.1,0.2,0.2,0.2,0.3c0.1,0.1,0.2,0.2,0.4,0.3
	c0,0.1,0,0.1,0.1,0.1c0.2,0.2,0.4,0.4,0.5,0.5c0,0,0,0.1,0.1,0.1c0.1,0.1,0.2,0.2,0.3,0.4c0.1,0.1,0.2,0.2,0.3,0.2
	c0.1,0.1,0.2,0.2,0.3,0.4c0.1,0.1,0.2,0.2,0.3,0.3c0.1,0.1,0.2,0.2,0.3,0.3c0.1,0.1,0.2,0.2,0.2,0.3c0.1,0.1,0.2,0.2,0.4,0.3
	c0.3,0.3-0.1,0.9,0.5,1c0.4,0.3,0.3,0.8,0.5,1.2c0,0,0.1,0,0.1,0.1c0.2,0.2,0.5,0.5,0.7,0.7C206.7,163.3,206.8,163.4,206.8,163.4z
	 M188.4,181.9c2,0,4,0,6.1,0c0.5,0,0.8-0.1,1.1-0.5c1.3-1.4,2.8-2.6,3.4-4.5c0.5-1.5,0.6-2.9,0-4.3c-0.2-0.5-0.8-1-0.7-1.6
	c0.3-1.6-0.9-2.5-1.6-3.4c-1.5-1.9-3.4-3.6-5.2-5.2c-0.6-0.5-1.3-1.1-2.1-1c-0.8,0.1-1.4-0.3-1.9-0.9c-0.4-0.5-0.9-1-1.7-0.9
	c-0.1,0-0.3-0.1-0.5-0.1c-0.9-0.7-2-1.2-3.2-1c-0.4,0-0.7-0.1-1-0.3c-0.7-0.3-1.3-0.9-2.3-0.8c-1,0.1-2,0-3,0c-0.6,0-1,0.2-0.9,0.9
	c0,0.3,0.1,0.8-0.4,0.8c-1.4-0.1-3,0.7-4.1-0.8c-0.2-0.3-0.5-0.3-0.8-0.3c-1.2,0-2.4,0-3.5,0c-0.7,0-1,0.4-1.3,0.8
	c-0.2,0.4-0.1,0.9,0.1,1.4c0.6,1.3,1.7,2.4,1.5,3.9c0,0.3,0.2,0.5,0.4,0.8c0.9,0.9,1.1,2.1,1.3,3.2c0.2,0.9,0.1,1.8,0.9,2.5
	c0.4,0.3,0.6,1,0.8,1.5c0.6,1.3,1.7,2.2,2.7,2.8c1.1,0.7,2.2,1.6,3.6,2.1c0.8,0.3,1.4,1,2.1,1.4c1.1,0.6,2,1.4,2.6,2.6
	c0.3,0.6,0.7,1,1.5,0.9C184.3,181.8,186.3,181.9,188.4,181.9z M163,161.4c0-0.5-0.1-0.6-0.3-0.6c-0.2,0-0.3,0.1-0.4,0.3
	c0,0.2,0.1,0.4,0.3,0.4C162.9,161.4,163,161.3,163,161.4z"/>
<path class="st1" d="M177.9,36.7c1.3,0.3,2.7,0,4,0.1c0.5,0,1.1-0.2,1.6,0.3c0,0.4,0.4,0.4,0.7,0.4c0.8,0,1.7,0,2.5,0
	c0.2,0.2,0.3,0.3,0.5,0.5c1.4,0.3,2.7,0.1,4.1,0.1c0.3,0.3,0.6,0.6,1,0.5c1.4-0.3,2.3,0.4,3.1,1.4c0,0.2,0.1,0.4,0.3,0.4
	c0.1,0.1,0.2,0.2,0.3,0.3c0.4,0.7,1,0.3,1.5,0.3c0.2,0.2,0.3,0.4,0.5,0.5c0.2,0.2,0.6,0,0.8,0.3c0.1,0.1,0.2,0.2,0.3,0.3
	c0,0.1,0.1,0.1,0.1,0.1c0.2,0.2,0.3,0.3,0.5,0.5c0,0.1,0,0.1,0.1,0.1c0.1,0.1,0.2,0.2,0.3,0.3c0.4,0.2,0.8,0.1,1.2,0
	c0.2,0.2,0.3,0.3,0.5,0.5c0.6,0.4,1.4-0.1,2.1,0.3c0.1,0.1,0.2,0.2,0.3,0.3c0.1,0.1,0.2,0.2,0.3,0.3c0.1,0.1,0.2,0.2,0.3,0.3
	c0,0,0.1,0.1,0.1,0.1c0.2,0.4,0.7,0.3,1.1,0.5c0,0.1,0,0.1,0.1,0.1c0.7,0.5,1.5,0.7,2,1.5c0.2,0.2,0.5,0.2,0.7,0.1
	c0.9,0.6,1.8,1.1,2.9,1.2c0,0.1,0,0.1,0.1,0.1c0.2,0.2,0.3,0.3,0.5,0.5c0,0.1,0,0.1,0.1,0.1c0.2,0.2,0.3,0.3,0.5,0.5
	c0,0.1,0,0.1,0.1,0.1c0.1,0.1,0.2,0.2,0.3,0.3c0.1,0.1,0.2,0.2,0.3,0.3c0.1,0.1,0.2,0.2,0.3,0.3c0.2,0.2,0.4,0.1,0.7,0.1
	c0.2,0.2,0.3,0.4,0.5,0.5c0,0.1,0,0.1,0.1,0.1c0.3,0.6,1.1,0.2,1.3,0.9c0,0.1,0.1,0.2,0.2,0.1c0.1,0.1,0.2,0.2,0.3,0.3
	c0,0.2,0.1,0.3,0.4,0.3c0.8,0.8,1.7,1.7,2.5,2.5c0,0.2,0.1,0.4,0.3,0.4c0.1,0.1,0.2,0.2,0.3,0.3c0,0.1,0,0.2,0.1,0.2
	c0.7,0.7,1.4,1.4,2.1,2c0,0.2,0.1,0.4,0.3,0.4c0.1,0.1,0.2,0.2,0.3,0.3c0,0.2,0.1,0.4,0.4,0.3c0.8,0.6,1.3,1.5,1.8,2.4
	c0,0.1,0.1,0.2,0.2,0.2c0.3,0.2,0.5,0.4,0.7,0.7c0.1,0,0.2,0.1,0.2,0.2c0.2,0.2,0.3,0.4,0.5,0.5c0,0.1,0,0.1,0.1,0.1
	c0.2,0.3,0.1,0.8,0.5,1.1c0,0.1,0,0.1,0.1,0.1c0,1,0.4,1.7,1.2,2.3c0,0.4-0.2,0.8,0.3,0.9c0.1,0.1,0.2,0.2,0.3,0.3
	c0,0.2,0,0.4,0,0.6c0.1,0.1,0.2,0.2,0.4,0.4c0,0,0,0.1,0.1,0.1c0.4,0.5-0.1,1.3,0.5,1.7c0,0,0.1,0.1,0.1,0.1
	c0.2,0.4,0.1,0.9,0.1,1.3c0,6.4,0,12.8,0,19.2c0,1-0.2,1.7-1.1,2.2c-0.1,0-0.2,0.1-0.1,0.2c-0.2,0.2-0.3,0.3-0.5,0.5
	c-0.3,1.4-0.1,2.7-0.1,4.1c-0.2,0.2-0.4,0.3-0.5,0.5c-0.2,0.8-0.1,1.6,0,2.3c-0.8,0.6-0.2,1.5-0.6,2.3c-0.1,0-0.1,0.1-0.1,0.1
	c-0.4,0.2-0.3,0.7-0.5,1.1c-0.1,0-0.1,0-0.1,0.1c-0.1,0.1-0.2,0.2-0.4,0.3c-0.1,0.3-0.1,0.5,0,0.8c0,0.3-0.1,0.5-0.3,0.7
	c-0.5,0.1-0.3,0.6-0.4,0.9c-0.1,0.5,0.1,0.9-0.2,1.4c-0.1,0.1-0.2,0.2-0.3,0.3c-0.1,0.2-0.1,0.4,0,0.6c-0.2,0.2-0.4,0.4-0.6,0.6
	c0,0-0.1,0-0.1,0.1c-0.2,0.2-0.4,0.4-0.5,0.5c0,0-0.1,0-0.1,0.1c-0.6,0.6-1.2,1.2-1.8,1.8c-0.3,0-0.3,0.3-0.4,0.4
	c-0.2,0.2-0.4,0.4-0.6,0.5c0,0-0.1,0-0.1,0.1c-0.5,0.3-0.2,0.9-0.6,1.2c-0.2,0-0.3,0.1-0.4,0.3c-0.1,0.1-0.2,0.2-0.3,0.3
	c-0.2,0-0.3,0.1-0.3,0.4c-0.3,0.3-0.6,0.6-0.9,0.9c-0.1,0-0.1,0-0.2-0.1c0-1.1-0.2-1.3-1.2-1.1c-0.7,0.1-1,0.6-1,1.3
	c0,0.9,0.2,1.7-0.2,2.6c-1.3,1.1-2.7,2.2-4,3.3c-0.5,0.4-0.8,1.2-1.7,1.2c-0.6,0-0.9,0.2-1.3,0.6c-0.2,0.2-0.5,0.4-0.8,0.6
	c-1,0.6-2.3,0.4-3,1.5c-0.1,0.1-0.3,0.1-0.4,0.2c-1,0.8-2.3,0.6-3.4,1.1c-1.3,0.6-2.5,1.6-3.9,2c-1.7,0.5-3.2,1.6-5.2,1.5
	c-0.2,0-0.4,0-0.6,0.1c-1.2,0.7-2.5,0.9-3.8,0.9c-8.5,0.1-17,0-25.5,0c-0.4,0-0.8-0.2-1.2,0.2c-2.9,0-5.9-0.1-8.8-0.1
	c-0.1-0.1-0.1-0.1-0.2-0.2c-0.1-0.1-0.3-0.3-0.4-0.4c-0.1-0.1-0.1-0.1-0.2-0.2c-0.2-0.2-0.3-0.3-0.5-0.5c0-0.3,0-0.6,0.1-0.9
	c0.1-0.1,0.3-0.3,0.4-0.4c0.1-0.1,0.1-0.1,0.2-0.2c0.4-0.1,0.8-0.1,1.2,0c0.1,0.1,0.2,0.1,0.3,0.2c0.7,0.6,1.5,0.2,2.3,0.3
	c0.4,0.2,0.9,0.1,1.3,0.1c6.5,0,13,0,19.5,0c3.7,0,7.4,0,11.1,0c0.4,0,0.9,0.1,1.2-0.4c0,0,0.1,0,0.1-0.1c0.7-0.4,1.5,0.1,2.1-0.4
	c0.8-0.5,1.7,0,2.5-0.3c0.1-0.1,0.2-0.2,0.3-0.3c0.4-0.4,1,0,1.4-0.3c0.2-0.2,0.4-0.4,0.5-0.5c0.5,0,1.2,0.4,1.5-0.4
	c0.3-0.3,0.9-0.1,1.1-0.6c0.1,0,0.1,0,0.1-0.1c0.2-0.2,0.3-0.3,0.5-0.5c0,0,0.1,0,0.1,0l0-0.1c0.3-0.1,0.7,0,1-0.4
	c0.3-0.1,0.6-0.2,0.8-0.3c0.2-0.2,0.3-0.4,0.5-0.5c0.6,0.1,1.2,0.1,1.7,0c0.1-0.1,0.2-0.2,0.3-0.3c0.1,0,0.1-0.1,0.1-0.1
	c0.2-0.2,0.3-0.3,0.5-0.5c0.1,0,0.1,0,0.1-0.1c0.3-0.2,0.8-0.1,1.1-0.5l0.1,0l0-0.1c0.6-0.2,1.3,0.1,1.7-0.6c0.2,0.1,0.5,0,0.7-0.1
	c0.2-0.2,0.3-0.3,0.5-0.5c0.2,0,0.4-0.1,0.3-0.3c0.1-0.1,0.2-0.2,0.3-0.2c0.2,0.1,0.4,0.1,0.6,0c0.1-0.1,0.2-0.2,0.3-0.4
	c0.1,0,0.1,0,0.1-0.1c0.2-0.2,0.4-0.4,0.5-0.5c0,0,0.1,0,0.1-0.1c0.6-0.6,1.1-1.4,2.2-1.3c0.4,0,0.9-0.4,1-1c0-0.2,0.1-0.5,0.3-0.6
	c1-0.8,1.6-2.1,3-2.4c0.3-0.1,0.6-0.4,0.6-0.6c0.1-1.1,1.1-1.5,1.6-2.2c0.3-0.3,0.6-0.5,0.8-1c0.3-1,1.2-1.8,2-2.2
	c1-0.5,1.3-1.3,1.3-2c0-1.1,0.9-1.9,0.7-2.9c1.3-1.1,1.3-2.8,1.5-4.1c0.3-1.5,1-2.9,0.8-4.5c-0.1-0.5,0-1.1,0-1.6
	c0-0.4,0.1-0.7,0.4-1c0.8-0.9,1.4-1.9,1.3-3.3c-0.1-2.3,0.1-4.5,0-6.8c-0.2-4.2,0.7-8.5-0.5-12.6c-0.4-1.3-0.9-2.4-1.7-3.5
	c-0.2-0.3-0.6-0.4-0.6-0.8c0-1.4-0.9-2.4-1.8-3.4c-0.5-0.5-1-0.8-1.1-1.6c0-0.3-0.5-0.7-0.9-0.8c-1.3-0.5-2.2-1.6-2.9-2.6
	c-1-1.5-2.2-2.8-3.8-3.7c-0.8-0.4-1.6-0.8-2.2-1.6c-0.4-0.5-1-0.9-1.4-1.4c-0.2-0.2-0.4-0.4-0.7-0.3c-0.9,0.1-1.5-0.6-2.2-0.9
	c-0.9-0.3-1.4-1-2.2-1.4c-0.8-0.4-1.7-0.7-2.4-1.5c-0.8-1-2.1-1.1-3.1-1.3c-0.8-0.2-1.4-0.3-2-0.9c-0.5-0.5-0.9-1.4-1.6-1.4
	c-0.9,0-1.6-0.9-2.6-0.6c-0.1,0-0.3-0.2-0.4-0.4c-1.3-1.4-2.9-1.9-4.7-1.9c-1.2,0-2.4-0.2-3.6-0.4c-1.6-0.2-3.2-1-4.9-0.8
	c-0.9,0.2-1.9,0-2.8,0c-0.4,0-0.7-0.1-1-0.4c-0.8-0.8-1.8-1.4-3-1.3c-0.2,0-0.4,0-0.6-0.1c-1.4-0.7-2.9-0.8-4.3-1
	c-2.3-0.3-4.6-0.1-6.9-0.1c-0.3,0-0.7,0-0.8-0.1c-0.5-0.7-1.2-0.5-1.7-0.5c-2,0.3-4-0.4-6-0.6c-0.2,0-0.3-0.1-0.4-0.2
	c-0.4-1.3-1.4-1.4-2.5-1.4c-13.6,0-27.2,0-40.7,0c-3.5,0-7.1-0.1-10.6,0c-3.5,0.1-7.1-0.6-10.5,0.5c-2.1-0.4-3.4,1.2-4.9,2.1
	c-0.6,0.4-1.3,0.9-2,1.2c-0.5,0.2-0.9,0.8-1.5,0.7c-0.7-0.1-1.1,0.3-1.5,0.7c-0.8,0.8-1.5,1.5-2.3,2.3c-0.6,0.6-1,1.3-1.2,2.1
	c-0.5,1.5-1.5,2.6-2.4,3.8c-0.6,0.8-1.2,1.4-1.1,2.4c0.1,0.6-0.4,0.9-0.7,1.1c-1.3,0.8-1.6,2.3-2.1,3.5c-0.2,0.5-0.7,0.8-0.6,1.4
	c0.1,0.8-0.4,1.6-0.9,2c-2.1,1.6-1.8,4.1-2.4,6.3c-0.2,0.9-0.5,1.7-1,2.3c-0.7,0.9-1.4,1.8-1.3,3.1c0,0.3-0.1,0.6-0.3,0.8
	c-0.8,1.1-1.2,2.4-1.4,3.6c-0.2,1.3-1,2.5-0.7,3.9c0.1,0.4-0.5,0.7-0.8,1c-0.7,0.5-1.2,1.4-1.3,2.1c-0.2,1.5-0.9,2.6-2,3.5
	c-1.1,0.8-1.1,2-1.5,3c-0.5,1.4-1,2.8-2,3.9c-0.3,0.3-0.7,0.6-0.9,1c-0.5,1.1-1.6,1.9-1.2,3.3c0,0-0.1,0.1-0.1,0.2
	c-0.4,1.4-1.6,2.3-2.4,3.4c-1,1.3-1.9,2.7-3.1,3.8c-0.5,0.4-0.7,1-0.6,1.6c0,0.5,0.2,1-0.1,1.4c-1,1.5-1.8,3.2-3.3,4.4
	c-0.3,0.3-0.5,0.7-0.7,1c-0.4,0.7-0.4,1.4-0.6,2c-0.5,1.3-1.8,2.1-2.3,3.4c-0.4,1-1.1,1.8-0.9,3c0,0.3,0.1,0.6,0,0.8
	c-0.8,1.2-1.1,2.7-2.3,3.6c-0.2,0.2-0.5,0.3-0.5,0.7c0,1.2-0.1,2.3-0.5,3.5c-0.5,1.4-0.3,3.1-0.5,4.7c-0.4,3.2-0.1,6.5-0.1,9.8
	c0,0.6,1,1.8,1.6,1.9c0.8,0,1.5,0.4,2.2,0.5c1.5,0.2,2.8,0.8,4.2,1.2c0.5,0.1,0.7,0.6,1.2,0.6c1.7,0.1,3.3,0,5.1,0.4
	c2.9,0.6,5.9-0.3,8.9,0.7c0.9,0.3,1.9,0.1,2.9,0c1-0.1,1.8,0.6,2.8,0.8c1.1,0.2,2.2,1,3.4,0.9c5.2-0.2,10.5,0.4,15.7-0.5
	c0.8-0.1,1.5-0.2,2-0.9c0.9-1.2,2-1.6,3.5-1.4c0.5,0.1,1,0.1,1.6-0.2c0.9-0.5,1.9-1,2.9-0.9c1.8,0.1,3.4-1,5.3-0.6
	c0.1,0,0.3-0.1,0.3-0.2c1.3-1.9,3.5-1.5,5.3-2c1.8-0.5,3.7,0.1,5.7-0.6c1.7-0.6,3.8,0.2,5.7-0.6c0.9-0.4,1.8-0.6,2.6-1.3
	c0.8-0.6,1.6-1.1,2.6-1.1c0.3,0,0.7,0.1,0.9-0.2c0.9,0.1,1.4-0.7,2.1-1l0.1,0c0.2-0.9,0.4-1.9,1.7-1.5l0.1,0.1
	c0.7,0.9,1,1.8,0.5,2.9c-0.8,1.1-2.2,1.1-3.3,1.7c-0.4,0.2-0.8,0.7-1.4,0.6c-1.1-0.2-2.2,0.4-2.8,1.2c-1,1.4-2.6,1.2-3.9,1.6
	c-1.7,0.6-3.7,0-5.6,0.6c-2,0.6-4.2,0.1-6.3,0.5c-1.1,0.2-2.2,0.5-3,1.3c-0.5,0.4-0.9,0.6-1.5,0.6c-0.7,0-1.5-0.3-2.1,0.2
	c-0.5,0.4-0.9,0.4-1.4,0.4c-0.7,0.1-1.4-0.1-2.1,0.1c-1.1,0.4-2.2,1.1-3.4,0.9c-1.5-0.2-2.6,0.3-3.6,1.5c-0.3,0.4-0.6,0.9-1.2,0.9
	c-2.1-0.2-4.2,0.6-6.3,0.5c-3-0.2-6.1-0.1-9.1,0c-2.2,0-4.3,0-6.3-1c-0.3-0.2-0.5-0.6-1-0.6c-2.1,0.1-4.1-0.3-6.1-0.5
	c-2-0.3-4-0.1-6.1-0.1c-0.3,0-0.7,0.1-0.8-0.1c-0.6-0.8-1.5-0.5-2.3-0.5c-1.8,0.1-3.6-0.1-5.2-1c-1.2-0.7-2.7-1-4-1.1
	c-1.4-0.1-2.3-0.6-3.1-1.6c-0.4-0.4-0.8-0.9-1.2-1.2c-0.4-0.3-0.6-0.7-0.6-1.2c0-2.1,0-4.2,0-6.4c1.2-0.4,1.9-1.4,1.9-2.8
	c0-1.4-0.5-1.6-1.7-1c-0.2-0.6-0.2-1.1,0.3-1.5c0.2-0.2,0.2-0.5,0.2-0.8c0-0.8-0.2-1.7,0-2.5c0.4-1.4,0.5-2.8,0.6-4.2
	c0.1-0.6,0.8-1.3,1.3-1.9c1-1.2,1.7-2.4,1.5-4c-0.1-0.6,0.5-1,0.7-1.5c0.3-0.7,0.7-1.4,1.1-2c0.8-1.3,2.2-2.3,2.2-4.1
	c0-0.2,0-0.3,0.2-0.4c1.2-0.7,1.7-2,2.4-3.1c0.7-1,1.9-2.1,1.4-3.6c-0.1-0.2,0-0.5,0.1-0.6c0.9-0.7,1.2-1.8,2-2.6
	c1-1.1,2-2.3,2.9-3.5c0.6-0.9,1.5-1.9,1.4-3.3c-0.1-0.9,1.1-1.8,1.7-2.6c0.9-1.3,1.9-2.4,2.3-4.1c0.2-1,0.4-2.2,1.5-3
	c1.4-1.1,2.2-2.7,2.5-4.5c0.1-0.5,0.5-0.8,0.9-1c0.6-0.5,0.7-1.1,0.9-1.8c0.3-1.1,0.3-2.3,0.9-3.4c0.1-0.2,0.2-0.4,0.1-0.7
	c-0.2-1.1,0.4-1.9,0.9-2.7c0.1-0.2,0.2-0.4,0.2-0.7c-0.1-1.3,0.6-2.3,1.3-3.2c0.5-0.6,0.8-1.3,1-2.1c0.4-1.7,0.2-3.5,1.2-4.9
	c0.5-0.8,1-1.7,1.7-2.4c0.6-0.6,0.8-1.5,1.1-2.3c0.6-1.4,0.3-3.2,1.9-4.1c0.6-0.4,1.1-0.9,0.9-1.8c0-0.1,0.1-0.4,0.2-0.4
	c1.1-0.7,1.6-2,2.4-3c0.6-0.8,1-1.8,1.4-2.7c0.1-0.4,0.3-0.6,0.6-0.9c1.6-1.6,3.2-3.1,4.8-4.7c0,0,0.1,0,0.1,0l0-0.1
	c1,0.1,1.7-0.4,2.3-1.1c0.3,0.1,0.5,0.1,0.7-0.1c0.2-0.2,0.3-0.3,0.5-0.5c0.2,0.1,0.4,0.1,0.6,0c0.1-0.1,0.2-0.2,0.3-0.3
	c0.1,0,0.1,0,0.1-0.1c0.3-0.2,0.8-0.1,1.1-0.5c0,0,0.1-0.1,0.1-0.1c0.1-0.1,0.2-0.2,0.3-0.3c0.2-0.3,0.6-0.1,0.8-0.3
	c0.2-0.2,0.3-0.4,0.5-0.5c0.8,0,1.6,0.1,2.3,0c0.1-0.1,0.2-0.2,0.3-0.3c0.4-0.2,0.8-0.2,1.2-0.2c20.2,0,40.4,0,60.7,0
	c0.4,0,0.8-0.1,1.2,0.2c0.1,0.1,0.2,0.2,0.3,0.3c0.2,0.1,0.4,0.1,0.6,0c0.2,0.2,0.4,0.4,0.7,0.6c0.8,0.3,1.7-0.2,2.5,0.3
	c0.6,0.4,1.2,0.2,1.9,0.2c1.6,0.1,3.2-0.1,4.7,0.1c0,0.1,0.1,0.1,0.1,0.1c0.3,0.4,0.7,0.4,1.2,0.4c0.9,0.1,1.9-0.2,2.8,0.1
	c0,0.1,0,0.1,0.1,0.1c0.1,0.1,0.2,0.2,0.3,0.3c0.2,0.1,0.4,0.1,0.6,0c0.2,0.2,0.3,0.3,0.5,0.5c1.6,0.3,3.1,0.1,4.7,0.1
	c0.2,0.2,0.4,0.4,0.5,0.5c0.8,0.2,1.6,0.1,2.3,0c0.3,0.5,0.9,0.4,1.3,0.7c0,0,0.1,0.1,0.1,0.2c0.2,0.2,0.3,0.3,0.5,0.5
	C177.8,36.6,177.8,36.7,177.9,36.7z"/>
<path class="st2" d="M161.7,132.5c0.3-0.3,0.8-0.2,1.2-0.2c8.5,0,17,0,25.5,0c1.3,0,2.6-0.3,3.8-0.9c0.2-0.1,0.4-0.1,0.6-0.1
	c1.9,0.1,3.4-1,5.2-1.5c1.5-0.4,2.6-1.4,3.9-2c1.1-0.5,2.4-0.3,3.4-1.1c0.1-0.1,0.3-0.1,0.4-0.2c0.7-1.1,2.1-0.9,3-1.5
	c0.3-0.2,0.6-0.4,0.8-0.6c0.4-0.4,0.7-0.6,1.3-0.6c0.8,0,1.1-0.8,1.7-1.2c1.4-1.1,2.7-2.2,4-3.3c0.3,0.6,0.8,1,0.7,1.8
	c-0.2,0.9,0.1,1.7,0.9,2.2c0.4,0.3,0.3,0.7,0.3,1.1c0,2.3-0.2,4.5,0.1,6.8c0.3,2.1-0.6,3.8-1.4,5.5c-0.8,1.7-2,3.2-3.3,4.6
	c-2.7,2.8-5.5,5.5-8.2,8.2c-0.5,0.5-0.7,1.3-1.1,1.5c-1.1,0.4-1.6,1.4-2.4,2c-0.2,0.2-0.4,0.4-0.7,0.4c-1-0.2-1.3,0.6-1.6,1.2
	c-0.4,0.6-0.1,1,0.6,1.1c1.1,0.1,2.1,0.1,2.9-1c0.2-0.4,0.6-0.8,1-0.9c-0.6,1-1.3,1.8-2.4,2.2c-0.5,0.1-0.3,0.5-0.5,0.7
	c0-0.5-0.3-0.7-0.8-0.7c-1,0-1.3-0.4-1.2-1.4c0.1-0.5-0.3-0.8-0.6-0.8c-0.6-0.1-0.9-0.5-1.2-0.8c-0.6-0.5-1.2-0.9-2-1.1
	c-1.7-0.5-3.4-0.6-5-1.1c-1.4-0.4-2.9-0.6-4.2-1.5c-0.7-0.4-1.8-0.8-2.8-0.8c-1.5,0-3-0.4-4.5-0.6c0.2-1.4,0.2-2.7-1.1-3.7
	c-1-0.7-2.1-1.2-2.9-2.2c-0.1-0.1-0.2,0-0.3-0.1c-0.8-0.4-1.7-0.7-2.3-1.4c-0.2-0.2-0.3-0.4-0.6-0.4c-1,0.2-1.5-0.6-2.1-1.2
	c-0.5-0.6-1.7-0.5-1.6-1.6c0,0-0.1-0.1-0.2-0.1c-0.7,0-0.9-0.6-1.4-0.9c-0.3-0.3-0.6-0.6-1-0.8C163.8,134.8,162.5,133.9,161.7,132.5
	z"/>
<path class="st3" d="M30.6,132.7c1.3-0.6,1.7-0.3,1.7,1c0,1.4-0.7,2.4-1.9,2.8c-1.7-0.1-2,0.2-2,1.9c0,0.5,0.2,1-0.2,1.3
	c-2,1.6-3.4,4.1-5.8,5.2c-0.2,0.1-0.2,0.2-0.2,0.4c0,0.4-0.3,0.6-0.5,0.9c-0.9,1-2.1,1.8-2.7,3.2c-0.2,0.5-0.2,1-0.7,1.4
	c-0.9,0.7-1.5,1.6-1.7,2.7c-0.1,0.3-0.2,0.4-0.5,0.4c-1.3,0-1.3,0-1.3,1.3c0,2.2,0.1,4.5,0,6.7c-0.1,1.3,1,2.3,0.7,3.6
	c0,0.1,0.1,0.3,0.2,0.3c1.4,0.8,1.6,3.1,3.9,2.8c0.1,0,0.2,0.3,0.4,0.3c0.7,0.1,1.2,1,1.9,0.8c1-0.2,1.8,0.4,2.4,0.8
	c1.4,1,2.9,1.4,4.6,1.4c1,0,2,0,3,0c0.3,0,0.7-0.1,0.8,0.1c0.5,0.7,1.3,0.5,2,0.5c0.9,0,1.9,0,2.8,0c1-0.1,1.7,0.8,2.7,0.7
	c0.8,1.3,2.2,0.9,3.4,0.9c0.5,0,1.2-0.2,1.5,0.1c0.9,0.8,2,0.4,3,0.5c0.3,0,0.6-0.1,0.8,0.2c0.3,0.5,0.8,0.5,1.3,0.4
	c1.5-0.2,2.7,0.5,4,1.3c1.2,0.8,2.6,1.8,4.3,1.5c0.9-0.1,1.7,0,2.6,0c0.3,0,0.6,0,0.8,0.1c0.6,0.6,1.3,0.5,2,0.5c13,0,26,0,39,0.1
	c1.2,0,2.1-0.8,3.3-0.7c0.1,0,0.2-0.2,0.3-0.3c1.3-0.6,2.5-1.5,4.1-1.3c0.6,0.1,1.1,0,1.7,0c0.8,0.5,0.5,1.2,0.2,1.8
	c-0.2,0.3-0.5,0.4-0.7,0.6c-0.8-0.1-1.6-0.4-2.3,0.2c-1.2,0.7-2.6,1.2-3.7,2c-0.2,0.1-0.5,0.1-0.8,0.1c-13.9,0-27.8,0-41.7,0
	c-2-0.8-4.2-0.2-6.2-0.6c-1.4-0.3-3.2-0.4-4.1-2.1c-0.3-0.6-0.9-0.8-1.6-0.7c-1.8,0.4-3.4-0.9-5.2-0.6c-1.1-1-2.3-0.5-3.5-0.5
	c-1-0.1-1.9,0-2.7-0.9c-0.4-0.5-1.3-1-2.2-0.8c-2.7,0.4-5.3-0.9-8-0.6c-1.9,0.2-3.8-0.3-5.3-1.3c-1.1-0.8-2.1-1-3.3-1
	c-0.1,0-0.3-0.1-0.4-0.1c-0.7-1.2-1.9-1-3-0.9c-0.9,0-1.2-0.5-1.7-1.2c-0.5-0.8-0.8-1.9-2-2.3c-0.4-0.1-0.7-0.6-0.8-1.1
	c-0.7-3.9-0.5-7.8-0.6-11.7c0-0.7,0.2-1.3,0.7-1.7c0.6-0.5,1.1-1.1,1.6-1.6c1-1,1.6-2.3,2.4-3.4c0.9-1.3,1.8-2.6,3-3.6
	c1.7-1.6,3.8-2.8,5.3-4.7c0.4-0.5,0.7-0.9,0.6-1.6c0-0.6-0.3-1.3,0.4-1.8c0,0,0.1-0.1,0.1-0.2c-0.9-1.2,0.7-1.2,0.9-1.9
	c0.8,0,1.5,0.1,2.3-0.1c0.1-0.1,0.2-0.2,0.4-0.4c0.1-0.2,0.1-0.3,0-0.5C30.1,133,30.4,132.9,30.6,132.7z"/>
<path class="st2" d="M177.4,147.6c-0.3-0.3-0.7-0.3-1.1-0.3c-5.9,0-11.8,0-17.8,0c-1,0-1.5,0.7-2,1.3c-0.2,0.3-0.1,0.6,0.2,0.9
	c0.3,0.2,0.5,0.6,0.8,0.8c1.4,1,1.8,2.3,1.9,4.1c0.1,1.2,0,2.6,0.5,3.7c0.5,1.1,0.4,2.2,0.5,3.3c0,0.2,0.1,0.5,0.3,0.6
	c1.4,1,2.2,2.3,2.3,4.1c-0.3,0.2,0,0.8-0.5,1c0-0.4,0-0.8,0-1.2c0-0.4,0.1-0.8-0.4-0.9c-0.4-0.1-0.9-0.2-1.2,0.2
	c-0.2,0.2-0.4,0.4-0.6,0.7c-0.8,1.1-1.8,1.5-3.1,1.4c-1.2-0.1-2.4,0-3.5,0c-0.1-0.5-0.1-1,0.4-1.4c0.5-0.4,0.6-0.9,0.6-1.5
	c-0.3-4,0.2-7.9-0.5-11.9c-0.6-3.7-0.1-7.5-0.1-11.3c0-0.2,0-0.4,0.2-0.5c0.3-0.1,0.4,0,0.6,0.2c0.5,0.5,1,1,1.6,1.6
	c0.9,0.9,1.7,2.2,2.7,2.5c1.3,0.3,2,1.2,2.8,1.9c0.4,0.4,0.8,0.5,1.4,0.5c4.4,0,8.8,0,13.2,0C176.7,147.1,177.3,146.8,177.4,147.6z"
	/>
<path class="st3" d="M204,153.6c-0.5,0.1-0.8,0.5-1,0.9c-0.7,1.1-1.8,1.1-2.9,1c-0.7,0-1-0.5-0.6-1.1c0.4-0.6,0.7-1.3,1.6-1.2
	c0.3,0.1,0.5-0.2,0.7-0.4c0.8-0.6,1.3-1.6,2.4-2c0.4-0.1,0.6-1,1.1-1.5c2.7-2.7,5.5-5.4,8.2-8.2c1.3-1.4,2.5-2.9,3.3-4.6
	c0.8-1.7,1.7-3.4,1.4-5.5c-0.3-2.2-0.1-4.5-0.1-6.8c0-0.4,0.1-0.8-0.3-1.1c-0.8-0.5-1-1.3-0.9-2.2c0.2-0.8-0.4-1.2-0.7-1.8
	c0.4-0.8,0.2-1.7,0.2-2.6c0-0.7,0.4-1.1,1-1.3c1-0.2,1.2,0,1.2,1.1c-0.6,1.8,0.6,3.3,0.6,5c0,0.2,0.2,0.2,0.4,0.2c0,0,0.1,0,0.1,0.1
	c0,0.4,0.2,0.5,0.5,0.5c0,0,0.1,0,0.1,0.1c0,3.9,0,7.8,0,11.7c0,0.3,0.1,0.8-0.1,0.9c-1,0.6-1,1.7-1.3,2.6c0,0-0.1,0.1-0.1,0.1
	c-0.4,0.2-0.2,0.8-0.5,1.1c0,0.1-0.1,0.1-0.1,0.1c-0.2,0.1-0.4,0.2-0.5,0.5c0,0.1,0,0.1-0.1,0.1c-0.2,0-0.3,0.1-0.3,0.3
	c0,0-0.1,0.1-0.1,0.1c-0.5,0.2-0.1,0.8-0.5,1.1c0,0-0.1,0.1-0.1,0.1c-0.2,0.9-1.1,1.3-1.5,2.1c-0.2,0-0.4,0.1-0.7,0.1
	c-0.6,0.2-0.9,0.7-1.2,1.2c0,0-0.1,0.1-0.1,0.1c-1,0.8-1.9,1.7-2.7,2.7c0,0.1-0.1,0.1-0.1,0.1c-0.2,0.1-0.4,0.2-0.5,0.5
	c0,0.1-0.1,0.1-0.1,0.1c-0.8,0.6-1.5,1.3-2.1,2.1c0,0.1-0.1,0.1-0.1,0.1c-0.2,0.1-0.4,0.2-0.5,0.5c0,0.1-0.1,0.1-0.1,0.2
	c-0.6,1.2-1.5,2.1-2.7,2.7C204.1,153.5,204,153.6,204,153.6z"/>
<path class="st3" d="M153.5,167c1.2,0,2.4-0.1,3.5,0c1.3,0.1,2.3-0.3,3.1-1.4c0.2-0.2,0.4-0.4,0.6-0.7c0.4-0.4,0.8-0.3,1.2-0.2
	c0.5,0.1,0.4,0.6,0.4,0.9c0,0.4,0,0.8,0,1.2c-0.3,0.3-0.6,0.1-0.9,0.3c-0.3,0.2-0.6,0.4-0.7,0.7c-0.1,0.1-0.2,0.3-0.3,0.4
	c-0.1,0.1-0.1,0.1-0.2,0.2c-0.2,0.1-0.4,0.2-0.4,0.4c0,0,0,0,0,0c-0.3,0.3-0.8,0.4-1.2,0.3c-1.2,0-2.5,0-3.7,0
	c-0.3,0-0.7-0.2-0.8,0.3c-0.1,0.1-0.1,0.2-0.2,0.3c-0.3,0-0.7-0.2-0.9,0.2c0,0,0,0.1,0,0.1c-1.1,0.9-2.7,0.7-3.7,1.9
	c-0.2,0.2-0.3-0.3-0.6-0.2l0,0c-0.4-0.4-0.2-1-0.4-1.4c0.5-0.6,1-1.3,1.8-1.7c0.6-0.2,1.2-0.5,1.8-0.6
	C152.3,167.9,153.1,167.7,153.5,167z"/>
<path class="st1" d="M29.6,134.1c-0.8,0.2-1.5,0.1-2.3,0.1C28.1,133.9,28.9,134,29.6,134.1z"/>
<path class="st1" d="M30,133.3c0.1,0.2,0.1,0.3,0,0.5C29.9,133.6,29.8,133.4,30,133.3z"/>
<path class="st2" d="M111.9,176.7c-0.6,0-1.2,0.1-1.7,0c-1.6-0.2-2.8,0.7-4.1,1.3c-0.1,0.1-0.2,0.3-0.3,0.3
	c-1.2-0.1-2.1,0.7-3.3,0.7c-13-0.1-26,0-39-0.1c-0.7,0-1.4,0.2-2-0.5c-0.1-0.2-0.5-0.1-0.8-0.1c-0.9,0-1.8-0.1-2.6,0
	c-1.7,0.2-3-0.7-4.3-1.5c-1.2-0.8-2.4-1.5-4-1.3c-0.5,0.1-0.9,0.1-1.3-0.4c-0.2-0.3-0.5-0.2-0.8-0.2c-1-0.1-2,0.3-3-0.5
	c-0.3-0.3-1,0-1.5-0.1c-1.2-0.1-2.5,0.4-3.4-0.9c-1,0.1-1.7-0.8-2.7-0.7c-0.9,0.1-1.9,0-2.8,0c-0.7,0-1.4,0.2-2-0.5
	c-0.1-0.1-0.5-0.1-0.8-0.1c-1,0-2,0-3,0c-1.7,0-3.2-0.4-4.6-1.4c-0.6-0.5-1.4-1-2.4-0.8c-0.8,0.2-1.2-0.7-1.9-0.8
	c-0.1,0-0.3-0.3-0.4-0.3c-2.2,0.4-2.5-2-3.9-2.8c-0.1-0.1-0.2-0.2-0.2-0.3c0.3-1.3-0.8-2.3-0.7-3.6c0.1-2.2,0-4.4,0-6.7
	c0-1.4,0-1.4,1.3-1.3c0.3,0,0.4-0.2,0.5-0.4c0.3-1.1,0.8-2,1.7-2.7c0.5-0.4,0.5-0.9,0.7-1.4c0.6-1.4,1.8-2.1,2.7-3.2
	c0.2-0.3,0.6-0.4,0.5-0.9c0-0.2,0.1-0.3,0.2-0.4c2.4-1.2,3.8-3.6,5.8-5.2c0.4-0.3,0.2-0.9,0.2-1.3c0-1.8,0.2-2,2-1.9
	c0,2.1,0,4.2,0,6.4c0,0.5,0.1,0.9,0.6,1.2c0.4,0.3,0.8,0.8,1.2,1.2c0.8,1,1.7,1.4,3.1,1.6c1.3,0.1,2.7,0.4,4,1.1
	c1.6,0.9,3.4,1.1,5.2,1c0.8,0,1.6-0.3,2.3,0.5c0.1,0.1,0.5,0.1,0.8,0.1c2,0,4.1-0.2,6.1,0.1c2,0.3,4,0.7,6.1,0.5
	c0.5,0,0.6,0.4,1,0.6c2,1.1,4.1,1.1,6.3,1c3,0,6.1-0.1,9.1,0c2.2,0.1,4.2-0.7,6.3-0.5c0.6,0,0.9-0.5,1.2-0.9
	c0.9-1.2,2.1-1.7,3.6-1.5c1.2,0.2,2.3-0.5,3.4-0.9c0.7-0.3,1.4-0.1,2.1-0.1c0.5,0,0.9,0,1.4-0.4c0.5-0.5,1.4-0.2,2.1-0.2
	c0.6,0,1-0.1,1.5-0.6c0.8-0.8,1.8-1.1,3-1.3c2.1-0.4,4.4,0.1,6.3-0.5c1.9-0.6,3.8,0,5.6-0.6c1.3-0.4,2.8-0.2,3.9-1.6
	c0.6-0.8,1.6-1.3,2.8-1.2c0.7,0.1,1-0.4,1.4-0.6c1.1-0.6,2.5-0.6,3.3-1.7c0,1.5,0,3,0.1,4.4c0.2,2.1-0.3,4.1,0.5,6.2
	c0.4,1.2,0.3,2.7,0.8,4c-0.5,0.8-1.1,1.5-1.6,2.3c-0.8,1.5-2.2,2.6-3.2,4c-1,1.3-1.9,2.8-2.6,4.4c-0.5,1.2-1.1,2.5-2,3.5
	c-0.5,0.6-1.1,1.4-0.9,2.4c0.1,0.6-0.3,1-0.6,1.4c-0.6,1.2-2.1,1.9-1.7,3.6C112.5,176,111.9,176.3,111.9,176.7z"/>
<path class="st4" d="M125,154c-0.4-1.3-0.3-2.8-0.8-4c-0.8-2.1-0.3-4.2-0.5-6.2c-0.1-1.5-0.1-3-0.1-4.4c0.4-1.1,0.2-2-0.5-2.9
	c0.7,0.2,0.6-0.3,0.6-0.6c0-3.8,0-7.7,0-11.5c0-1.2-0.2-2.2-1.2-3c-0.3-0.3-0.5-0.6-0.7-1c-0.5-1-0.7-2.2-1.6-2.9
	c-1.4-1.3-2.2-3.2-3.8-4.3c-0.1-0.1-0.2-0.2-0.2-0.3c-0.2-1-0.8-1.9-1.2-2.7c-0.9-1.8-2.5-3.1-3.6-4.8c-0.8-1.2-2.1-2-2.8-3.4
	c-0.5-0.9-1.5-1.6-2.3-2.4c-3.2-3-6.2-6.2-9-9.5c-0.1-0.1-0.2-0.2-0.2-0.3c-0.6-1.3-1.3-2.5-3-2.5c-0.3,0-0.4-0.3-0.5-0.4
	c-1.4-0.8-1.6-2.8-3.3-3.3c-0.2-0.1-0.4-0.3-0.7-0.3c-0.5-0.1-1-0.7-0.9-0.9c0.6-1-0.4-1.3-0.8-1.7c-0.6-0.6-0.7-1.1-0.1-1.7
	c0.6-0.6,1.5-0.7,2-0.1c0.6,0.7,1.1,1.3,2.1,1.7c1,0.4,2.1,1.1,2.8,2.1c0.1,0.2,0.3,0.4,0.5,0.5c1.1,0.5,2.2,1,2.9,1.9
	c0.9,1.1,2.1,1.6,3.1,2.4c0.4,0.3,1,0.7,1.6,0.8c1.2,0.1,2.1,0.7,2.9,1.6c0.8,0.8,1.5,1.7,2.5,2.4c1.3,0.9,2.7,1.7,3.9,2.8
	c1.5,1.5,3,3,4.5,4.5c0.2,0.2,0.5,0.5,0.8,0.6c1.6,0.8,3.2,1.6,4.5,2.9c0.1,0.1,0.3,0.4,0.6,0.4c-0.1-1,0.2-2-0.5-2.9
	c-0.5-0.6-0.6-1.4-0.5-2.3c0.1-1,0-2.1,0-3.1c0-0.3,0.1-0.6-0.1-0.8c-0.6-0.4-0.5-1-0.5-1.6c0-13.7,0-27.4,0-41c0-1,0.3-1.6,1-2.2
	c1-0.8,2.7-0.4,3.3,0.7c0.6,1.1,0.9,2.4,1.8,3.4c0.7,0.8,1.5,1.9,1.5,2.9c0,1.8,0.8,3.6,0.5,5.4c-0.2,1.6,0.3,2.8,1.6,3.7
	c0.7,0.5,0.9,1.2,0.9,2.1c0,0.5,0,1.1,0.1,1.6c0.4,1.7,1,3.3,0.9,5c-0.1,1.1,0.5,1.9,1.1,2.7c0.9,1,1.5,2.1,1.4,3.5
	c0,0.6,0,1.2,0.4,1.8c0.6,0.9,0.8,1.8,0.7,2.9c-0.1,0.5,0.3,0.7,0.6,1c0.4,0.5,1.1,0.8,1.3,1.6c0.3,1.3,1.1,2.4,1,3.8
	c0,0.1,0.1,0.3,0.1,0.4c0.8,0.9,1.1,2.2,1.9,3.2c0.5,0.6,1.2,1.2,1.3,2c0.1,1.1,1,1.9,0.7,3.1c0,0.1,0,0.3,0.1,0.4
	c0.7,0.8,0.4,2.1,1.4,2.7c0.1,0.1,0.1,0.4,0.1,0.6c-0.3,1,0.3,1.8,0.8,2.3c0.9,0.9,1.3,2,1.8,3.1c0.8,1.5,0.9,3.3,1.5,4.9
	c0.4,1.2,0.5,2.4,0.5,3.7c0,0.3,0.3,0.4,0.5,0.6c1,1.1,1.9,2.2,1.8,3.8c0,0.1,0,0.3,0.1,0.4c0.6,0.5,0.5,1.3,0.5,2
	c0,1.1-0.2,2.3,1,2.9c0.2,0.1,0.2,0.3,0.2,0.6c0,0.3,0.1,0.5,0.4,0.5c0.5,0,1,0.3,1.2,0.5c0.5,0.4,1.5,0.2,1.6,1.1
	c-0.8,0-1.6,0.3-2.3-0.3c0-0.2,0-0.3-0.3-0.2c-0.4-0.1-0.8-0.1-1.2,0c-0.3-0.1-0.3,0-0.2,0.2c-0.1,0.1-0.3,0.3-0.4,0.4
	c0-0.1-0.1-0.1-0.1-0.2c0.1-1.2-0.5-1.9-1.4-2.6c-0.5-0.4-0.9-1-1.4-1.4c-0.9-0.8-1.5-1.8-2.8-2.3c-0.6-0.2-1.3-0.6-1.8-1.2
	c-1.7-1.5-3.1-3.3-5-4.7c-2.3-1.7-4-4.1-6.4-5.7c-0.6-0.4-1.1-1-1.6-1.6c-1-1.2-2.3-1.3-3.6-1.5c-0.5-0.1-1.2-0.3-1.6,0.2
	c-0.6,0.7-1.3,0.9-2.1,0.8c-0.6,0-1,0.5-1.2,1c-0.2,0.4,0.2,0.7,0.5,1c0.3,0.3,0.6,0.5,0.5,0.9c-0.1,1.1,0,2.2,1,2.9
	c0.1,0.1,0.2,0.3,0.2,0.4c-0.1,1.4,0.2,2.6,1.1,3.7c0.4,0.5,0,1.3-0.7,1.6c-0.5,0.2-0.9,0.6-0.9,1.2c-0.1,1.8,1.2,3.6,3,4.3
	c0.5,0.2,1.2,0.4,1.5,1c0.4,0.9,1,1.4,1.8,1.8c1.5,0.8,3.2,1.4,4.2,2.8c0.3,0.4,0.7,0.7,1.1,1.1c0.4,0.5,0.8,0.9,1.1,1.5
	c0.5,0.8,1.1,1.8,2.2,2c1.4,0.2,2.1,1.2,2.7,2.2c0.6,0.9,0.8,1.9,1.7,2.6c0.4,0.3,0.9,0.7,1.1,1.2c0.8,1.8,2,2.8,4,2.5
	c0.8-0.1,1.5-0.1,2.3,0c0.8,0,1.1-0.2,1.1-1c0-2.5,0-5,0-7.5c0-0.3,0-0.6-0.2-0.9c-1.3-1.6-3.1-2.7-4.2-4.6
	c-0.4-0.6-1.2-0.8-1.8-1.1c-0.6-0.4-1.3-0.6-1.9-1c-0.4-0.3-0.8-0.7-0.4-1.2c0.4-0.5,0.9-0.3,1.3,0.1c0.3,0.4,0.7,0.7,1.1,1.1
	c0.5,0.6,1.1,0.8,1.8,0.8c1.2,0,2.4-0.1,3.5,0.1c0.1,0.1,0,0.4,0.3,0.5c0.2,0.2,0.3,0.3,0.5,0.5c-0.1,0.3-0.1,0.3,0.2,0.2
	c0.1,0.1,0.3,0.3,0.4,0.4c0,0.1-0.1,0.2,0,0.2c0.1,0.1,0.2,0,0.2-0.1c2.9,0,5.9,0.1,8.8,0.1c0.8,1.4,2.1,2.4,3.6,2.9
	c0.4,0.2,0.7,0.5,1,0.8c0.4,0.3,0.7,1,1.4,0.9c0.1,0,0.2,0.1,0.2,0.1c-0.1,1.1,1.1,1,1.6,1.6c0.5,0.6,1.1,1.3,2.1,1.2
	c0.2,0,0.4,0.2,0.6,0.4c0.6,0.7,1.5,1,2.3,1.4c0.1,0,0.2,0,0.3,0.1c0.8,1,1.9,1.5,2.9,2.2c1.3,1,1.3,2.3,1.1,3.7
	c-0.4,0-0.9-0.1-1.3-0.1c-0.1-0.8-0.7-0.5-1.1-0.5c-4.4,0-8.8,0-13.2,0c-0.5,0-0.9-0.1-1.4-0.5c-0.8-0.8-1.5-1.6-2.8-1.9
	c-1-0.3-1.8-1.6-2.7-2.5c-0.5-0.5-1-1-1.6-1.6c-0.2-0.2-0.3-0.3-0.6-0.2c-0.2,0.1-0.2,0.3-0.2,0.5c0,3.8-0.5,7.6,0.1,11.3
	c0.7,4,0.1,8,0.5,11.9c0.1,0.6-0.1,1.1-0.6,1.5c-0.5,0.4-0.5,0.8-0.4,1.4c-0.3,0.7-1.1,0.9-1.7,1c-0.6,0.2-1.2,0.4-1.8,0.6
	c-0.2-0.7,0.3-1.1,0.7-1.4c0.4-0.3,0.5-0.6,0-0.9c-0.7-0.4-0.8-1.1-0.7-1.8c0-1.2-0.6-2.1-1.7-2.6c-0.4-0.2-0.5-0.4-0.5-0.7
	c-0.1-0.9-0.7-1.5-1.3-0.9c-0.9,0.7-1.4,0-2-0.2c-1.2-0.4-1.8-1.3-1.8-2.6c0-0.3-0.2-0.4-0.3-0.6c-1.4-1.8-3.5-2.7-5.1-4.3
	c-0.5-0.5-1.5-1-2.6-0.8c-0.9,0.1-1.7,0-2.6,0c-0.6,0-1.1,0-1.7,0.4c-0.6,0.4-1.4,0.1-2.2,0.2c-0.6,0-1.5-0.2-0.5,0.9
	c0.2,0.3,0.3,1-0.1,1.2c-0.6,0.3-1.3,0.3-1.9,0C125.4,154.3,125.3,154,125,154z M102.8,91c0.2,0,0.7,0,0.6-0.3
	c-0.2-0.7-1.2-0.4-1.6-1c-0.1-0.1-0.4,0.2-0.3,0.4C101.8,90.6,102.2,91,102.8,91z"/>
<g>
	<path class="st0" d="M166.3,203.5c-0.2-0.4-0.2-0.9-0.2-1.4c0-1,0-2,0-3c0-0.4,0.1-0.9-0.6-0.9c0,0-0.1-0.1-0.1-0.1
		c0.1-0.3,0.3-0.7-0.2-0.9c0,0-0.1,0-0.1-0.1c-0.2-0.3-0.1-0.7-0.7-0.6c-0.5-0.3-0.2-0.8-0.3-1.3c0.2-0.5-0.1-0.6-0.5-0.6
		c-0.3-0.8,0-1.7-0.2-2.6c-0.2-0.5-0.2-1-0.2-1.5c0-0.4,0.1-0.9-0.6-0.9c0,0-0.1-0.1-0.1-0.1c0.1-0.4-0.1-0.6-0.5-0.6
		c0,0-0.1-0.1-0.1-0.1c-0.1-0.5,0.5-1.2-0.4-1.5c-0.1-0.1-0.2-0.2-0.3-0.3c0.1-0.3,0-0.4-0.3-0.3c-0.5-0.6-0.1-1.3-0.3-1.9
		c0.1-0.3,0-0.4-0.3-0.4c-0.1-0.1-0.2-0.2-0.3-0.3c0.1-0.3-0.1-0.4-0.4-0.3c0,0-0.1,0-0.1,0c0.1-0.4-0.1-0.6-0.6-0.6
		c0,0-0.1-0.1-0.1-0.1c0.1-0.4-0.1-0.6-0.6-0.6c0,0,0-0.1,0-0.1c-0.1-0.5,0.5-1.2-0.4-1.5c-0.1-0.1-0.2-0.2-0.3-0.3
		c0.1-0.3,0-0.4-0.3-0.3c-0.1-0.1-0.2-0.2-0.2-0.3c0.1-0.5-0.3-0.5-0.6-0.7c0,0-0.1,0-0.1-0.1c-0.3-0.3,0-0.9-0.5-1.1v0
		c-0.1-0.1-0.2-0.1-0.3-0.2c0-0.2,0-0.4-0.3-0.4c-0.6-0.3-0.3-0.9-0.4-1.4c0.2-0.5-0.1-0.6-0.5-0.6c0-0.2-0.1-0.4-0.1-0.6
		c-0.3-0.9-0.6-1.7-1.2-2.4c-0.1-0.1-0.2-0.2-0.3-0.2c-0.4-0.2-0.3-0.5-0.3-0.8c0,0.3-0.1,0.6,0.3,0.8c0.3-0.8-0.4-1.7-0.1-2.5
		c-1.1,0.9-2.7,0.7-3.7,1.9c-0.2,0.2-0.3-0.3-0.6-0.2c0,1.5,0,3,1.5,3.8v0c0.4,0.2,0.3,0.5,0.3,0.8c0,0,0,0,0,0
		c-0.2,0.5,0.3,0.5,0.5,0.7c0,0.2,0.1,0.5,0.1,0.7c0,0,0,0,0,0c0.4,0.7,0.2,1.5,0.2,2.3c0,0.4,0,0.9,0.6,0.8l0.1,0.1
		c0.3,0.1,0.4,0.3,0.6,0.5l0,0.1c0.2,0.1,0.3,0.2,0.3,0.4c0.5,0.5,0.2,1.2,0.3,1.8c0.1,0.6,0,1.3,0,1.9c0,0,0,0,0,0
		c-0.2,0.5,0.3,0.5,0.6,0.6c0,1,0.1,2.1,0,3.1c-0.1,1,0.2,1.8,1,2.4c0,0,0,0,0,0c0,0.2,0,0.4,0.3,0.4c0.1,0.1,0.2,0.1,0.3,0.2
		c0,1.3,0,2.5,0,3.8c0,0.3-0.1,0.6,0.4,0.6c0.3,0.2,0.3,0.5,0.3,0.8c0,3.8,0,7.6,0,11.4c-0.7,0.1-0.8,0.6-0.6,1.2
		c0.2-0.4,0.4-0.8,0.6-1.2c0,0,0,0,0,0c-0.2,0.4-0.4,0.8-0.6,1.2l0,0.1c-0.2,0.1-0.2,0.3-0.3,0.5c0-0.2,0.1-0.4,0.3-0.5
		c-0.4-0.1-0.6,0.2-0.6,0.6c0,0.4,0,0.8,0,1.2c-0.1,0.1-0.2,0.2-0.3,0.2v0c-0.1,0-0.3,0.1-0.3,0.2c0.2,1-0.6,1.5-1.2,2.2
		c-0.3,0.3-0.6,0.5-0.7,0.9c-0.4,0.4-0.9,0.9-1.3,1.3c-0.3,0.1-0.7,0.1-0.6,0.6l0,0c-0.1,0.1-0.2,0.2-0.3,0.3c0,0,0,0,0,0
		c-0.6,0.4-1.2,0.8-1.9,1.2c0,0,0,0.1-0.1,0.1c-0.3,0.3-0.9,0-1.1,0.6c-0.1,0.1-0.1,0.2-0.2,0.3c-0.4,0-0.6,0.2-0.5,0.6
		c0.1,0,0.3-0.1,0.3-0.2c-0.1,0.1-0.2,0.2-0.3,0.2c-0.2,0-0.4,0.1-0.6,0.1c0,0,0,0,0,0c-0.3-0.1-0.4,0-0.4,0.3c0.1,0,0.2,0,0.2-0.1
		c-0.1,0-0.1,0.1-0.2,0.1c-0.6,0.6-1.4,0.2-2.1,0.3c-0.5,0.1-1-0.1-1.4,0.4c0,0,0,0,0,0c-1.7,0-3.4,0-5.1,0c-3,0-5.9,0-8.9,0.1
		l0-0.1c-0.4-0.2-0.8-0.5-1-1l-0.1,0c-0.3-0.1-0.3-0.4-0.3-0.6c0,0.2-0.1,0.5,0.3,0.6c0-0.3,0.2-0.7-0.2-0.9c0,0-0.1,0-0.1-0.1h0
		c-0.3-0.3,0-0.9-0.5-1.1c-0.1-0.1-0.2-0.2-0.3-0.2c0-1.4,0-2.9,0-4.3c0-0.4,0.1-0.9-0.6-0.9l-0.1-0.1c-0.1,0-0.1-0.1-0.2-0.1
		c0.1,0,0.1,0.1,0.2,0.1c0.1-0.3,0-0.4-0.3-0.4c0,0.1,0,0.2,0.1,0.2c-0.1-0.1-0.1-0.1-0.1-0.2c-0.4-0.2-0.3-0.6-0.3-1
		c0-1.3-0.1-2.6,0-3.9c0.2-3.1-0.4-6.1-0.7-9.2c0,0,0,0,0,0c-0.2-0.4-0.2-0.9-0.2-1.4c0-5.8,0-11.5,0-17.3c0-0.5,0-0.9,0.2-1.4
		c0.1-0.1,0.2-0.2,0.2-0.3c0,0,0,0,0,0c0.2,0,0.4-0.1,0.4-0.3c0.3-0.4,0.6-0.8,1.1-1.1c0.2,0,0.3-0.2,0.3-0.4
		c0.1-0.1,0.2-0.1,0.3-0.2v0c0.3-0.1,0.5-0.2,0.5-0.5c0.1-0.1,0.2-0.2,0.2-0.3v0c0.2,0,0.4-0.1,0.4-0.3c0.1-0.1,0.1-0.2,0.2-0.3
		c0.2,0,0.4,0,0.4-0.3c-0.1,0-0.2,0-0.3,0.1c0.1,0,0.2-0.1,0.3-0.1c0.1-0.2,0.2-0.4,0.5-0.5l0,0c0.2,0,0.3-0.2,0.3-0.4
		c0.8,0,1.2-0.6,1.7-1.1c0.3-0.5,0.9-0.2,1.3-0.3c-0.4,0.1-1-0.1-1.3,0.3c0.4,0,0.7,0,1.1,0c0.4,0,0.7-0.1,0.6-0.6l0.1-0.1
		c0.1-0.2,0.2-0.3,0.4-0.3c0.1-0.1,0.2-0.2,0.2-0.3c0,0,0,0,0,0c0.3,0.1,0.4,0,0.4-0.3c-0.1,0-0.2,0.1-0.3,0.2
		c0.1-0.1,0.1-0.2,0.3-0.2c0.6-0.6,1.5-0.1,2.2-0.4c0,0,0,0,0,0c0.2,0,0.3-0.1,0.3-0.4c3.5-0.1,6.9-0.1,10.4,0
		c0,0.2,0.1,0.4,0.3,0.4c0.6,0,1.3,0.1,1.9,0.1v0c0.2,0.4-0.3,1.2,0.7,1.2c-0.4-0.4-0.2-1-0.4-1.4c0.5-0.6,1-1.3,1.8-1.7
		c-0.2-0.7,0.3-1.1,0.7-1.4c0.4-0.3,0.5-0.6,0-0.9c-0.7-0.4-0.8-1.1-0.7-1.8c0-1.2-0.6-2.1-1.7-2.6c-0.4-0.2-0.5-0.4-0.5-0.7
		c-0.1-0.9-0.7-1.5-1.3-0.9c-0.9,0.7-1.4,0-2-0.2c-1.2-0.4-1.8-1.3-1.8-2.6c0-0.3-0.2-0.4-0.3-0.6c-1.4-1.8-3.5-2.7-5.1-4.3
		c-0.5-0.5-1.5-1-2.6-0.8c-0.9,0.1-1.7,0-2.6,0c-0.6,0-1.1,0-1.7,0.4c-0.6,0.4-1.4,0.1-2.2,0.2c-0.6,0-1.5-0.2-0.5,0.9
		c0.2,0.3,0.3,1-0.1,1.2c-0.6,0.3-1.3,0.3-1.9,0c-0.2-0.1-0.4-0.4-0.7-0.3c-0.5,0.8-1.1,1.5-1.6,2.3c-0.8,1.5-2.2,2.6-3.2,4
		c-1,1.3-1.9,2.8-2.6,4.4c-0.5,1.2-1.1,2.5-2,3.5c-0.5,0.6-1.1,1.4-0.9,2.4c0.1,0.6-0.3,1-0.6,1.4c-0.6,1.2-2.1,1.9-1.7,3.6
		c0.1,0.4-0.5,0.7-0.4,1.1c0.8,0.5,0.5,1.2,0.2,1.8c-0.2,0.3-0.5,0.4-0.7,0.6c-0.8-0.1-1.6-0.4-2.3,0.2c0.7,0,1.4,0,2.1,0.1
		c0,9.3,0,18.5,0,27.8c0,0.5-0.1,0.9,0.1,1.4c0.4,0.4-0.1,1.3,0.8,1.3c0,0,0.1,0,0.1,0c0.1,0.9-0.4,1.8,0.3,2.6
		c0.1,0.1,0.2,0.2,0.3,0.2c0,0.6,0,1.1,0,1.7c0,0.4,0.1,0.7,0.6,0.6c0.2,0.9,0,1.9,0.1,2.9c-0.1,0.3,0,0.4,0.3,0.4
		c0.5,0.4,0.2,1,0.3,1.4c-0.1,0.5,0.3,0.5,0.6,0.7c0,0,0.1,0,0.1,0.1c0.3,0.3,0,0.9,0.5,1.1c0.1,0.1,0.2,0.1,0.3,0.2
		c0,0.4,0,0.7,0,1.1c0,0.4,0.1,0.7,0.6,0.6c0,0,0,0.1,0,0.1c-0.1,1.1,1.1,2.3,2.2,2.2c0,0,0.1,0,0.1,0c-0.1,0.4,0.1,0.6,0.6,0.6
		c0,0,0.1,0.1,0.1,0.1c-0.1,0.4,0.1,0.6,0.6,0.6c0,0,0,0.1,0,0.1c-0.1,0.3,0,0.4,0.3,0.4c0.1,0.1,0.2,0.2,0.3,0.3
		c-0.1,0.3,0.1,0.4,0.4,0.3c0,0,0.1,0,0.1,0c0,0.4,0.1,0.6,0.6,0.6c0,0,0.1,0,0.1,0c-0.1,0.4,0.1,0.6,0.6,0.6c0,0,0.1,0.1,0.1,0.1
		c-0.1,0.4,0.1,0.6,0.6,0.6c0,0,0,0.1,0,0.1c0.2,0.9,1,0.6,1.5,1c0,0,0.1,0,0.1,0c0,0.4,0.1,0.6,0.6,0.6c0,0,0.1,0,0.1,0
		c0,0.9,0.7,0.6,1.1,0.6c0.1,0.1,0.1,0.2,0.2,0.3c0.2,0.5,0.8,0.3,1.1,0.6c0,0,0.1,0,0.1,0.1c0.1,0.3,0.3,0.3,0.6,0.3
		c4.7,0,9.3,0,14,0c0.4,0,0.8,0,0.7-0.6c0,0,0-0.1,0-0.1c1.1,0,2.2,0,3.3,0c0.4,0,0.8-0.1,0.7-0.6c0,0,0.1-0.1,0.1-0.1
		c0.4,0.1,0.6-0.1,0.6-0.6c0.9-0.1,1.7-0.1,2.6-0.2c0.3,0,0.3-0.1,0.3-0.4c0.1-0.1,0.2-0.1,0.3-0.2c0.4-0.1,0.7-0.2,1.2-0.2
		c0.3,0,0.8,0,0.7-0.6c0,0,0-0.1,0-0.1c0.4,0.1,0.6-0.1,0.6-0.5c0,0,0.1-0.1,0.1-0.1c0.4,0.1,0.6-0.1,0.6-0.6c0.2,0,0.4-0.1,0.6-0.1
		c0.5,0.2,0.5-0.3,0.6-0.5c0.4,0,0.9-0.1,1.3-0.1c0.4-0.4,1.3,0.1,1.3-0.8c0,0,0-0.1,0-0.1c0.4,0,0.6-0.1,0.6-0.6c0,0,0-0.1,0-0.1
		c0.5,0,1.1,0.4,1.1-0.6c0,0,0.1,0,0.1,0c0.9,0.1,2.4-1.2,2.8-2.2c0,0,0.1-0.1,0.1-0.1c0.5,0.1,0.6-0.1,0.5-0.5c0,0,0.1-0.1,0.1-0.1
		c0.7-0.3,1.3-0.8,1.5-1.6c0.1-0.8-0.3-1.7,0.3-2.5c0.5,0.1,0.5-0.3,0.7-0.6c0,0,0-0.1,0.1-0.1c0.5-0.2,0.3-0.5,0.2-0.9
		c0,0,0.1-0.1,0.1-0.1c0.7,0.1,0.6-0.4,0.6-0.8c0-0.8-0.1-1.6,0.3-2.3c0-2.8,0-5.7,0-8.5C166.5,204.9,166.6,204.2,166.3,203.5z
		 M151.7,178C151.7,178,151.7,178,151.7,178C151.7,178,151.7,178,151.7,178z M150.6,176.5C150.6,176.5,150.6,176.5,150.6,176.5
		C150.6,176.5,150.6,176.5,150.6,176.5z M150.9,176.7c0.1,0,0.1,0.1,0.1,0.1C151,176.8,151,176.7,150.9,176.7z M152.5,171.3
		c0.1,0.1,0.1,0.2,0.2,0.4C152.7,171.5,152.6,171.4,152.5,171.3z M155,191.7c0.1,0,0.1,0.1,0.1,0.2
		C155.2,191.8,155.1,191.7,155,191.7z M155.7,193c0-0.2,0.1-0.5-0.1-0.7C155.8,192.5,155.8,192.8,155.7,193z M146.1,170.3
		c0,0,0-0.1,0-0.1C146,170.2,146.1,170.2,146.1,170.3z M145.9,170.1C146,170.1,146,170.1,145.9,170.1
		C146,170.1,146,170.1,145.9,170.1z M135.1,170.1C135.1,170.1,135.1,170.1,135.1,170.1C135.1,170.1,135.1,170.1,135.1,170.1z
		 M127,174.9c-0.1,0-0.1,0-0.2,0.1C126.8,175,126.9,175,127,174.9z M125.5,176.3C125.5,176.4,125.5,176.4,125.5,176.3
		C125.5,176.4,125.5,176.4,125.5,176.3z M124.1,177.8c0,0-0.1,0-0.1,0C124.1,177.8,124.1,177.8,124.1,177.8z M123.9,177.9
		C124,177.9,124,177.9,123.9,177.9C124,177.9,124,177.9,123.9,177.9z M123.2,198.2c0-0.1-0.1-0.2-0.1-0.2
		C123.2,198.1,123.2,198.1,123.2,198.2z M125.4,218c-0.1-0.1-0.1-0.2-0.1-0.3c0-0.1,0-0.2,0-0.2c0,0.1,0,0.2,0,0.2
		C125.4,217.8,125.4,217.9,125.4,218z M125.5,218.1C125.5,218,125.5,218,125.5,218.1C125.5,218,125.5,218,125.5,218.1z M126,218.5
		c0,0.1,0,0.2,0,0.4c0,0.1,0,0.2,0.1,0.3c-0.1-0.1-0.1-0.2-0.1-0.3C126,218.8,126,218.7,126,218.5z M141.8,221.6
		c-0.1,0.1-0.3,0.2-0.4,0.1C141.5,221.8,141.7,221.7,141.8,221.6z M147.5,219.5c0.1,0,0.1,0,0.2,0
		C147.6,219.5,147.6,219.5,147.5,219.5z M148,219.4C148.1,219.4,148.1,219.4,148,219.4C148.1,219.4,148.1,219.4,148,219.4z
		 M147.7,219.5c0.1,0,0.2,0,0.3,0C147.9,219.5,147.8,219.5,147.7,219.5z M149.3,218.7c0.1,0,0.2-0.1,0.2-0.2
		C149.4,218.6,149.4,218.7,149.3,218.7z M149.8,218.3c-0.1,0.1-0.2,0.2-0.3,0.3C149.6,218.5,149.7,218.4,149.8,218.3z M155.2,211
		c0,0.2,0,0.5-0.1,0.7C155.2,211.5,155.2,211.3,155.2,211z M156.1,178.7c0,0.1,0,0.2,0,0.4C156.1,178.9,156.1,178.8,156.1,178.7z"/>
	<path class="st0" d="M159.8,168.9c-0.3,0.3-0.8,0.4-1.2,0.3c-1.2,0-2.5,0-3.7,0c-0.3,0-0.7-0.2-0.8,0.3c1.6,0,3.3,0,4.9,0
		C159.4,169.6,159.9,169.6,159.8,168.9z"/>
	<path class="st0" d="M153.8,169.9c-0.3,0-0.7-0.2-0.9,0.2C153.3,170.2,153.6,170.4,153.8,169.9z"/>
	<path class="st0" d="M160.2,168.5c-0.2,0.1-0.4,0.2-0.4,0.4C160.2,169,160.3,168.9,160.2,168.5z"/>
	<path class="st0" d="M160.8,168c-0.1,0-0.1,0-0.1,0c-0.1,0.1-0.2,0.3-0.3,0.4C160.7,168.4,160.9,168.3,160.8,168z"/>
	<path class="st0" d="M127.8,221.4c-0.1-0.5-0.4-0.9-1-1C127.1,220.9,127.4,221.2,127.8,221.4z"/>
	<path class="st0" d="M152.1,180.9c-0.1,0.4,0.1,0.6,0.6,0.5C152.5,181.2,152.3,181,152.1,180.9z"/>
	<path class="st0" d="M131.9,171.7c0.3,0.1,0.4,0,0.4-0.3C132.1,171.5,132,171.6,131.9,171.7z"/>
	<path class="st0" d="M152.7,181.5c-0.1,0.3,0,0.4,0.3,0.4C153,181.7,152.9,181.6,152.7,181.5z"/>
	<path class="st0" d="M162.7,161.4c0.2,0,0.3-0.1,0.3,0c0-0.5-0.1-0.6-0.3-0.6c-0.2,0-0.3,0.1-0.4,0.3
		C162.4,161.3,162.5,161.4,162.7,161.4z"/>
</g>
<path class="st5" d="M156.2,130c-0.1-0.9-1.1-0.7-1.6-1.1c-0.3-0.2-0.7-0.6-1.2-0.5c-0.3,0-0.4-0.2-0.4-0.5c0-0.2,0-0.5-0.2-0.6
	c-1.2-0.7-1-1.8-1-2.9c0-0.7,0.1-1.4-0.5-2c-0.1-0.1-0.1-0.3-0.1-0.4c0.2-1.6-0.8-2.7-1.8-3.8c-0.2-0.2-0.4-0.3-0.5-0.6
	c-0.1-1.2-0.1-2.4-0.5-3.7c-0.5-1.6-0.7-3.3-1.5-4.9c-0.5-1.1-1-2.2-1.8-3.1c-0.5-0.5-1.1-1.4-0.8-2.3c0-0.2,0-0.5-0.1-0.6
	c-1-0.6-0.7-1.9-1.4-2.7c-0.1-0.1-0.1-0.3-0.1-0.4c0.3-1.1-0.6-2-0.7-3.1c-0.1-0.7-0.8-1.4-1.3-2c-0.8-1-1.1-2.2-1.9-3.2
	c-0.1-0.1-0.1-0.2-0.1-0.4c0.1-1.4-0.7-2.5-1-3.8c-0.2-0.8-0.8-1.1-1.3-1.6c-0.3-0.3-0.6-0.5-0.6-1c0.2-1.1-0.1-2-0.7-2.9
	c-0.4-0.6-0.4-1.2-0.4-1.8c0.1-1.4-0.5-2.5-1.4-3.5c-0.6-0.7-1.1-1.6-1.1-2.7c0.1-1.7-0.6-3.4-0.9-5c-0.1-0.5-0.1-1.1-0.1-1.6
	c0.1-0.9-0.1-1.6-0.9-2.1c-1.3-0.9-1.8-2.2-1.6-3.7c0.3-1.8-0.5-3.6-0.5-5.4c0-1-0.8-2-1.5-2.9c-0.9-1-1.2-2.2-1.8-3.4
	c-0.6-1.1-2.3-1.5-3.3-0.7c-0.7,0.6-1,1.3-1,2.2c0,13.7,0,27.4,0,41c0,0.6-0.1,1.1,0.5,1.6c0.2,0.2,0.1,0.5,0.1,0.8
	c0,1,0.1,2.1,0,3.1c-0.1,0.8,0,1.7,0.5,2.3c0.8,0.9,0.4,1.9,0.5,2.9c-0.4,0.1-0.5-0.2-0.6-0.4c-1.3-1.3-2.8-2.1-4.5-2.9
	c-0.3-0.1-0.5-0.4-0.8-0.6c-1.5-1.5-3-3-4.5-4.5c-1.2-1.1-2.6-1.9-3.9-2.8c-0.9-0.6-1.7-1.5-2.5-2.4c-0.8-0.8-1.7-1.5-2.9-1.6
	c-0.6,0-1.2-0.4-1.6-0.8c-1-0.8-2.3-1.3-3.1-2.4c-0.8-0.9-1.8-1.4-2.9-1.9c-0.2-0.1-0.4-0.3-0.5-0.5c-0.7-1-1.8-1.7-2.8-2.1
	c-1-0.4-1.5-0.9-2.1-1.7c-0.5-0.6-1.4-0.5-2,0.1c-0.6,0.6-0.4,1.1,0.1,1.7c0.4,0.4,1.4,0.7,0.8,1.7C88.5,82.4,89,83,89.5,83
	c0.3,0,0.5,0.2,0.7,0.3c1.7,0.5,1.9,2.5,3.3,3.3c0.2,0.1,0.3,0.4,0.5,0.4c1.7,0.1,2.4,1.2,3,2.5c0.1,0.1,0.2,0.2,0.2,0.3
	c2.8,3.3,5.8,6.5,9,9.5c0.8,0.8,1.7,1.5,2.3,2.4c0.8,1.3,2,2.2,2.8,3.4c1.1,1.7,2.7,3,3.6,4.8c0.4,0.9,1,1.8,1.2,2.7
	c0,0.1,0.1,0.3,0.2,0.3c1.6,1.1,2.4,3,3.8,4.3c0.9,0.8,1.1,1.9,1.6,2.9c0.2,0.4,0.4,0.8,0.7,1c1,0.8,1.2,1.7,1.2,3
	c-0.1,3.8,0,7.7,0,11.5c0,0.4,0.2,0.9-0.6,0.6c0,0-0.1-0.1-0.1-0.1c-0.1-0.1-0.2-0.3-0.2-0.3c-1.2-0.1-1.8-0.2-1.5,1.8
	c0,0-0.1,0-0.1,0c-0.7-0.1-1.9,0.5-2.1,1c-0.3,0.3-0.6,0.2-0.9,0.2c-1,0-1.9,0.4-2.6,1.1c-0.8,0.6-1.7,0.9-2.6,1.3
	c-1.9,0.8-3.9,0-5.7,0.6c-1.9,0.7-3.9,0-5.7,0.6c-1.8,0.5-4,0.1-5.3,2c-0.1,0.1-0.2,0.2-0.3,0.2c-1.8-0.4-3.5,0.8-5.3,0.6
	c-1-0.1-2,0.4-2.9,0.9c-0.5,0.3-1.1,0.2-1.6,0.2c-1.5-0.2-2.6,0.2-3.5,1.4c-0.5,0.7-1.2,0.7-2,0.9c-5.2,1-10.5,0.4-15.7,0.5
	c-1.2,0-2.3-0.7-3.4-0.9c-1-0.2-1.8-0.8-2.8-0.8c-1,0.1-2,0.3-2.9,0c-2.9-1-6,0-8.9-0.7c-1.7-0.4-3.4-0.3-5.1-0.4
	c-0.6,0-0.8-0.5-1.2-0.6c-1.4-0.4-2.7-1-4.2-1.2c-0.7-0.1-1.4-0.4-2.2-0.5c-0.6,0-1.6-1.3-1.6-1.9c0-3.3-0.3-6.6,0.1-9.8
	c0.2-1.6,0-3.2,0.5-4.7c0.4-1.2,0.4-2.3,0.5-3.5c0-0.4,0.3-0.5,0.5-0.7c1.2-0.9,1.5-2.4,2.3-3.6c0.1-0.2,0.1-0.5,0-0.8
	c-0.2-1.2,0.5-2,0.9-3c0.5-1.3,1.9-2.1,2.3-3.4c0.2-0.7,0.2-1.4,0.6-2c0.2-0.3,0.4-0.8,0.7-1c1.4-1.2,2.3-2.9,3.3-4.4
	c0.3-0.4,0.1-0.9,0.1-1.4c0-0.7,0.1-1.2,0.6-1.6c1.2-1.1,2.1-2.5,3.1-3.8c0.8-1.1,2-2,2.4-3.4c0-0.1,0.1-0.1,0.1-0.2
	c-0.4-1.4,0.7-2.2,1.2-3.3c0.2-0.4,0.6-0.6,0.9-1c1-1.1,1.5-2.5,2-3.9c0.4-1,0.4-2.2,1.5-3c1.1-0.8,1.7-2,2-3.5
	c0.1-0.7,0.6-1.6,1.3-2.1c0.3-0.2,0.9-0.6,0.8-1c-0.3-1.4,0.5-2.6,0.7-3.9c0.2-1.2,0.6-2.6,1.4-3.6c0.2-0.3,0.3-0.5,0.3-0.8
	c-0.1-1.2,0.6-2.1,1.3-3.1c0.5-0.7,0.8-1.5,1-2.3c0.6-2.2,0.3-4.7,2.4-6.3c0.5-0.4,1-1.2,0.9-2c-0.1-0.6,0.4-1,0.6-1.4
	c0.5-1.3,0.8-2.7,2.1-3.5c0.3-0.2,0.8-0.5,0.7-1.1c-0.2-1.1,0.5-1.7,1.1-2.4c0.9-1.2,1.8-2.4,2.4-3.8c0.3-0.7,0.6-1.5,1.2-2.1
	c0.8-0.7,1.5-1.5,2.3-2.3c0.4-0.4,0.8-0.8,1.5-0.7c0.6,0.1,1-0.5,1.5-0.7c0.7-0.2,1.3-0.8,2-1.2c1.5-1,2.8-2.5,4.9-2.1
	c3.5-1.1,7-0.4,10.5-0.5c3.5-0.1,7.1,0,10.6,0c13.6,0,27.2,0,40.7,0c1.1,0,2.2,0.1,2.5,1.4c0.1,0.2,0.2,0.2,0.4,0.2
	c2,0.2,3.9,0.9,6,0.6c0.6-0.1,1.3-0.2,1.7,0.5c0.1,0.1,0.5,0.1,0.8,0.1c2.3,0,4.6-0.2,6.9,0.1c1.4,0.2,3,0.3,4.3,1
	c0.2,0.1,0.4,0.1,0.6,0.1c1.2-0.1,2.2,0.5,3,1.3c0.3,0.3,0.6,0.5,1,0.4c0.9,0,1.9,0.1,2.8,0c1.7-0.3,3.3,0.5,4.9,0.8
	c1.2,0.2,2.4,0.3,3.6,0.4c1.8,0.1,3.5,0.5,4.7,1.9c0.1,0.1,0.3,0.4,0.4,0.4c1-0.2,1.6,0.6,2.6,0.6c0.7,0,1.1,0.9,1.6,1.4
	c0.6,0.6,1.2,0.8,2,0.9c1.1,0.2,2.3,0.3,3.1,1.3c0.6,0.8,1.5,1.1,2.4,1.5c0.8,0.4,1.3,1.1,2.2,1.4c0.8,0.2,1.3,1,2.2,0.9
	c0.3,0,0.5,0.1,0.7,0.3c0.5,0.5,1,0.9,1.4,1.4c0.6,0.8,1.4,1.2,2.2,1.6c1.6,0.9,2.7,2.2,3.8,3.7c0.7,1,1.6,2.2,2.9,2.6
	c0.4,0.2,0.9,0.5,0.9,0.8c0.1,0.8,0.7,1.1,1.1,1.6c0.9,0.9,1.8,1.9,1.8,3.4c0,0.4,0.4,0.5,0.6,0.8c0.7,1.1,1.3,2.2,1.7,3.5
	c1.2,4.2,0.3,8.4,0.5,12.6c0.1,2.3,0,4.5,0,6.8c0,1.3-0.5,2.4-1.3,3.3c-0.3,0.3-0.4,0.6-0.4,1c0,0.5-0.1,1.1,0,1.6
	c0.2,1.6-0.5,3-0.8,4.5c-0.2,1.3-0.2,3-1.5,4.1c0.2,1.1-0.7,1.8-0.7,2.9c0,0.7-0.2,1.6-1.3,2c-0.9,0.4-1.7,1.2-2,2.2
	c-0.1,0.5-0.5,0.7-0.8,1c-0.5,0.7-1.5,1.1-1.6,2.2c0,0.2-0.4,0.5-0.6,0.6c-1.4,0.4-1.9,1.7-3,2.4c-0.2,0.2-0.2,0.4-0.3,0.6
	c-0.1,0.5-0.5,1-1,1c-1.1-0.1-1.6,0.7-2.2,1.3c0,0-0.1,0-0.1,0c0,0,0,0.1,0,0.1c-0.2,0.2-0.4,0.4-0.5,0.5c0,0-0.1,0-0.1,0
	c0,0,0,0.1,0,0.1c-0.1,0.1-0.2,0.2-0.3,0.4c-0.2-0.2-0.4-0.2-0.6,0c-0.1,0.1-0.2,0.2-0.3,0.2c-0.2,0-0.3,0.1-0.3,0.4
	c-0.2,0.2-0.3,0.3-0.5,0.5c-0.2,0-0.5-0.2-0.7,0.1c-0.4,0.7-1.1,0.4-1.7,0.6c0,0-0.1,0-0.1-0.1c0,0,0,0.1,0,0.1
	c-0.2,0.4-0.7,0.3-1.1,0.5c0,0-0.1,0-0.1,0c0,0,0,0.1,0,0.1c-0.2,0.2-0.3,0.3-0.5,0.5c0,0-0.1,0-0.1,0c0,0,0,0.1,0,0.1
	c-0.1,0.1-0.2,0.2-0.3,0.3c-0.6-0.2-1.2-0.2-1.7,0c-0.2,0.2-0.3,0.4-0.5,0.5c-0.3-0.1-0.7-0.3-0.8,0.3c-0.2,0.3-0.6,0.3-1,0.4
	c0,0-0.1,0-0.1-0.1c0,0,0,0.1,0,0.1c-0.2,0.2-0.3,0.3-0.5,0.5c0,0-0.1,0-0.1,0c0,0,0,0.1,0,0.1c-0.3,0.4-0.8,0.3-1.1,0.6
	c-0.4,0.4-1.1,0.2-1.5,0.4c-0.2,0.2-0.4,0.4-0.5,0.5c-0.5,0-1.1-0.4-1.4,0.3c-0.1,0.1-0.2,0.2-0.3,0.3c-0.7-0.2-1.4-0.1-2.1-0.1
	c-0.2,0-0.5,0-0.4,0.4c-0.6,0.5-1.5,0-2.1,0.4c0,0-0.1,0-0.1-0.1c0,0,0,0.1,0.1,0.1c-0.3,0.4-0.8,0.4-1.2,0.4c-3.7,0-7.4,0-11.1,0
	c-6.5,0-13,0-19.5,0C157.1,130.1,156.6,130.2,156.2,130z"/>
<path class="st4" d="M121.4,137.9c-0.3-2,0.3-1.9,1.5-1.8c0.1,0,0.2,0.2,0.2,0.3C121.8,136.1,121.6,137,121.4,137.9z"/>
<path class="st4" d="M119.2,139c0.2-0.5,1.4-1.1,2.1-1C120.6,138.3,120.1,139,119.2,139z"/>
<path class="st5" d="M151.7,130c-0.1,0.2-0.2,0.4-0.3,0.7c-1.2-0.2-2.4-0.1-3.5-0.1c-0.8,0-1.4-0.2-1.8-0.8
	c-0.3-0.4-0.7-0.7-1.1-1.1c-0.4-0.4-0.9-0.6-1.3-0.1c-0.4,0.5,0,0.9,0.4,1.2c0.6,0.4,1.3,0.6,1.9,1c0.6,0.4,1.5,0.5,1.8,1.1
	c1,1.9,2.8,3,4.2,4.6c0.3,0.3,0.2,0.6,0.2,0.9c0,2.5,0,5,0,7.5c0,0.8-0.3,1.1-1.1,1c-0.8,0-1.6-0.1-2.3,0c-2.1,0.3-3.2-0.7-4-2.5
	c-0.2-0.5-0.7-0.8-1.1-1.2c-0.9-0.7-1.1-1.8-1.7-2.6c-0.6-1-1.3-2-2.7-2.2c-1-0.2-1.7-1.1-2.2-2c-0.3-0.6-0.6-1.1-1.1-1.5
	c-0.3-0.4-0.8-0.7-1.1-1.1c-1.1-1.4-2.7-2-4.2-2.8c-0.8-0.4-1.5-0.9-1.8-1.8c-0.2-0.6-1-0.8-1.5-1c-1.8-0.7-3.1-2.5-3-4.3
	c0-0.6,0.4-1,0.9-1.2c0.7-0.3,1.1-1.1,0.7-1.6c-0.9-1.1-1.3-2.3-1.1-3.7c0-0.1-0.1-0.4-0.2-0.4c-1-0.7-1.1-1.8-1-2.9
	c0-0.4-0.3-0.7-0.5-0.9c-0.3-0.3-0.7-0.6-0.5-1c0.2-0.5,0.6-1,1.2-1c0.9,0,1.5-0.1,2.1-0.8c0.4-0.5,1.1-0.3,1.6-0.2
	c1.3,0.2,2.7,0.3,3.6,1.5c0.5,0.6,1,1.2,1.6,1.6c2.4,1.6,4.1,4,6.4,5.7c1.9,1.4,3.3,3.1,5,4.7c0.5,0.5,1.2,0.9,1.8,1.2
	c1.2,0.5,1.9,1.5,2.8,2.3c0.5,0.4,0.9,1,1.4,1.4C151.2,128.1,151.8,128.9,151.7,130z M147.1,137.5c0.8,0,1.3,0,1.9,0
	c0.3,0,0.8,0.2,0.9-0.2c0.1-0.4-0.4-0.6-0.6-0.8c-0.1-0.1-0.2-0.1-0.4-0.2c-1-0.3-2-0.8-2.6-1.7c-0.4-0.5-0.8-0.6-1.4-0.6
	c-1,0-2-0.1-3,0.6c-0.2,0.2-0.7-0.2-0.9,0.2c-0.2,0.4,0.3,0.6,0.6,0.9c0.2,0.2,0.5,0.5,0.7,0.7C143.9,137.1,145.5,137.7,147.1,137.5
	z M148.3,128.2c0-0.1,0-0.2-0.1-0.2c-0.8-0.6-1.3-1.6-2.3-2c-0.6-0.2-1.1-0.4-1.6-0.8c-2-1.7-3.5-3.8-5.7-5.2
	c-1.1-0.7-2.3-1.4-3.2-2.5c-0.1-0.2-0.3-0.5-0.6-0.2c-0.3,0.3,0.1,0.4,0.2,0.6c0.1,0.1,0.2,0.3,0.3,0.4c1.4,1.3,2.6,2.8,4.3,3.8
	c1.3,0.7,2.2,2,3.5,2.9c1.4,1,2.9,1.9,3.9,3.3c0.2,0.3,0.6,0.3,0.9,0.3C148.1,128.5,148.2,128.4,148.3,128.2z M147.7,140.3
	c-0.5,0-1.1,0-1.6,0c-0.5,0-0.8,0.2-0.4,0.7c0.1,0.2,0.1,0.4,0.2,0.6c0.4,0.7,1,1.3,1.4,2c0.2,0.2,1,0,1.4,0.1
	c1,0.1,1.2-0.3,1.2-1.2C149.9,140,150.3,140.3,147.7,140.3z M130.2,115.3c-0.1,0.7-0.3,1.2,0.1,1.6c0.8,0.8,1.4,1.8,2.4,2.4
	c0.1,0,0.3,0,0.4-0.1c0.1-0.1,0-0.2-0.1-0.3c-0.3-0.3-0.7-0.6-0.8-0.9C132,116.7,131,116.3,130.2,115.3z M142.6,127
	c-0.1-0.1-0.1-0.3-0.2-0.3c-0.6,0-0.9-0.4-1.4-0.7c-0.3-0.1-0.7-0.1-0.8,0.2c-0.2,0.4,0.2,0.6,0.4,0.6c0.4,0.1,0.7,0.3,1,0.4
	C142,127.4,142.4,127.5,142.6,127z M126.4,113.6c-0.4,0.1-0.5,0.4-0.5,0.6c0.1,0.5,0.4,1,1,1.1c0.1,0,0.4-0.2,0.3-0.3
	C126.8,114.7,126.8,114,126.4,113.6z"/>
<path class="st5" d="M102.8,91c-0.6,0-1-0.4-1.3-0.9c-0.1-0.2,0.2-0.5,0.3-0.4c0.4,0.6,1.3,0.3,1.6,1C103.5,91,103,90.9,102.8,91z"
	/>
<path class="st4" d="M147.1,137.5c-1.6,0.2-3.2-0.4-4.8-1.1c-0.3-0.1-0.5-0.4-0.7-0.7c-0.2-0.3-0.7-0.4-0.6-0.9
	c0.1-0.4,0.7-0.1,0.9-0.2c0.9-0.6,1.9-0.6,3-0.6c0.6,0,1.1,0.1,1.4,0.6c0.7,0.9,1.6,1.4,2.6,1.7c0.1,0,0.3,0.1,0.4,0.2
	c0.2,0.3,0.7,0.4,0.6,0.8c-0.1,0.4-0.6,0.2-0.9,0.2C148.4,137.5,147.9,137.5,147.1,137.5z"/>
<path class="st4" d="M148.3,128.2c0,0.2-0.2,0.3-0.3,0.4c-0.3,0.1-0.7,0.1-0.9-0.3c-1-1.5-2.6-2.3-3.9-3.3c-1.2-0.9-2.2-2.2-3.5-2.9
	c-1.7-1-2.9-2.6-4.3-3.8c-0.1-0.1-0.2-0.2-0.3-0.4c-0.1-0.2-0.5-0.3-0.2-0.6c0.2-0.2,0.4,0.1,0.6,0.2c0.9,1.1,2.1,1.8,3.2,2.5
	c2.2,1.4,3.7,3.6,5.7,5.2c0.5,0.4,1.1,0.6,1.6,0.8c1.1,0.4,1.5,1.4,2.3,2C148.2,128,148.2,128.1,148.3,128.2z"/>
<path class="st4" d="M147.7,140.3c2.6,0,2.2-0.3,2.3,2.3c0,0.9-0.2,1.3-1.2,1.2c-0.5-0.1-1.3,0.1-1.4-0.1c-0.5-0.7-1-1.3-1.4-2
	c-0.1-0.2-0.1-0.4-0.2-0.6c-0.4-0.5-0.1-0.7,0.4-0.7C146.7,140.3,147.2,140.3,147.7,140.3z"/>
<path class="st4" d="M130.2,115.3c0.7,1,1.8,1.4,2.1,2.6c0.1,0.3,0.5,0.6,0.8,0.9c0.1,0.1,0.2,0.3,0.1,0.3c-0.1,0.1-0.3,0.1-0.4,0.1
	c-1.1-0.5-1.6-1.6-2.4-2.4C130,116.5,130.1,116,130.2,115.3z"/>
<path class="st4" d="M142.6,127c-0.2,0.5-0.6,0.5-1,0.3c-0.3-0.1-0.6-0.4-1-0.4c-0.3,0-0.6-0.3-0.4-0.6c0.1-0.3,0.5-0.3,0.8-0.2
	c0.5,0.2,0.8,0.7,1.4,0.7C142.5,126.7,142.6,126.9,142.6,127z"/>
<path class="st4" d="M126.4,113.6c0.4,0.4,0.4,1,0.8,1.4c0.1,0.1-0.1,0.4-0.3,0.3c-0.6-0.1-0.8-0.6-1-1.1
	C125.9,114,126,113.8,126.4,113.6z"/>
</svg>
