<?xml version="1.0" encoding="utf-8"?>
<!-- Generator: Adobe Illustrator 26.2.1, SVG Export Plug-In . SVG Version: 6.00 Build 0)  -->
<svg version="1.1" id="Calque_1" xmlns="http://www.w3.org/2000/svg" xmlns:xlink="http://www.w3.org/1999/xlink" x="0px" y="0px"
	 viewBox="0 0 256 256" style="enable-background:new 0 0 256 256;" xml:space="preserve">
<style type="text/css">
	.st0{fill:#1A2023;}
	.st1{fill:#F46E14;}
</style>
<path class="st0" d="M225.4,151c0.3-26.3-0.6-53-15.6-74.6c-5.4-13.4-12.2-32.5-27.4-37.3c-37.5-0.3-74.7-2-109.7,8.1
	c-24.1,2.2-42.3,23.5-49.2,45.3c-1.6,22.2,2.3,42.9,5.8,63.8c3.9,17.2-0.1,26.5,15.4,40.9C88.9,248.3,232.9,233.5,225.4,151z
	 M51.6,193.7c-14.4-13.5-11.7-34-17.2-51.3c-1.4-15.1,17.1-2.3,25.3-4.5c3.9,2.4-4.7,1.7-6.2,1.9c-43.2,16.1,26,9.2,39.1,10.4
	c5.5,2.5-1.1,13.3,6.4,15.3c2,1.2,5.9,1.5,5.6,4.5c3.7,8.6,2.2,28.7,7.8,33.4c4.5-7.9,0.2-21.5,1.6-31.3c-1-9,5.9-1.1,9.7-5
	c5.6-5.4,4.7,7.6,4.7,10.7c10.8,15.6,1.3-26.5,8.1-27.2c5.8-1.9,49.7,3.8,41-5.2c-13.5-2.4-31.6,2.7-43.2-2.3
	c2.1-9.3,19.5-3.2,27.1-4.3c6,1.5,6.5-5.9,11.2-6.7c9-0.3,14.6-6.6,23.7-6.9c2-1.3,9.6-2.1,6.8-5.6c-3.4-4.5-12,1.8-12.4-5.1
	c-3.1-5.5-10.7-1.7-15.8-2.6c-57.7-3.1-31.2,11.5-44-28.9c-4.6-2.6,2.7-10-3.9-10.1c-3.1,1-2.3-3.9-5.2-3.3
	c-10-1.1-5.4,13.5-11.3,18.4c-2.5-4.2-3.7-11.5-6.7-15.5c-5.7-2.6-5.3-10.3-9.8-14.4c-10.3-1.4-1.4,23.6-1.7,30.3
	c5.4,29.5,6.6,22.8-21.9,23.7c-10,5.5,7.9,11.7,3.9,17.5c-12.6,0.8-25.5-1.3-38.3,0.5c-5.9-1.6,0.6-14-3.3-18.9
	C26.9,82.8,51.3,54,80.3,55.1c31.2-12.1,71.4-10.9,103.7-6.5c10.7,9.2,13.7,23.4,20.2,34.3c2.7,5.1,6.7,10.2,6.9,16.3
	c-1.3,3.4,3.4,4.5,2.9,7.9c2.4,27.3,12.2,61.4-9.2,83.4c-28.3,26.7-66.8,29.4-104.7,27.8c-15-2.7-27.2-12.3-41.4-17.1c0,0,0,0,0,0
	C56.4,198.7,52.6,197.5,51.6,193.7z M73.6,143.8c-0.1-1,2.3-1.3,2.3-0.2C76.2,144.8,73.8,144.6,73.6,143.8z M76.8,118.4
	c5.1-0.4,16.1-4,17.8,2.1C90.3,125.1,81.9,120,76.8,118.4z M108.9,160.3c-3.4,1.2-3.2-9.7-0.7-9.6
	C111.4,152.9,112.9,157.9,108.9,160.3z M116,91.7c5.7-10.4,5.3,18,2.9,20.4C106.3,115.5,115.2,97.4,116,91.7z M119.5,145.3
	c-7.1-0.2-6.2-6.2,0.4-6.4C123.8,138.6,123.2,145.6,119.5,145.3z M120.7,153.7c-2.3,8.8-7.1-0.2-3-3.9
	C119.8,149.3,121.8,152,120.7,153.7z M114.1,121.7c-6.3-5.3,9.4-7,4.9-1.3C117.6,121.5,115.8,123,114.1,121.7z M158.8,122.8
	c3.9,0.7,24-2.9,20.4,2.3c-4.9,5.5-8.4,0-13.8-0.4C163.6,124.7,154.1,125.2,158.8,122.8z M59.3,201.9
	C59.3,201.8,59.3,201.8,59.3,201.9C59.3,201.8,59.3,201.8,59.3,201.9z"/>
<g>
	<path class="st1" d="M60.4,200.8c-3.6-6.1,9.4,2.3,1.3,1c2.7,1.7,5.1-0.6,7.3,1.5c3.4,3.9,9.4-0.7,12.9,3.6
		c27.9,10.7,8.7-13,23.5-22.2c2.5,5.5,3.2,11.2,3.1,17.7c11.3,13.5,5.9-19.8,7.3-25.6c-0.3-12,4.2-4.3,4.1,2.5
		c0.6,3.8,5.4,6.4,4.7,10.8c-1.8,15.2,66.3-1.8,68.4-11c2.7-10.9,0-22.6-0.1-33.5c-1.5-4.1,5-0.8,4.5-4.8c0-8.3-34.9,2.5-24.1-7.4
		c8.2,0.9,13.2-7,21.3-5.6c4.8-1.6,17.5-5.8,7.5-10.6c-2.8-1.6-9.5,1.8-9.8-2.5c0.2-3.9-6.1-2.2-5.2-6.6c1.4-9.7-4.9-16.4-9.9-23.7
		C156,62.2,150.7,64.7,123,59.7c-3.2,1.2,0.9,7.4-3.5,7.6c-8.3,0.6-3.8,10.4-8.3,14.4c-1.9,1.2-1.5-3.7-3.4-4.4
		c-1.7-2.9,0.9-7.1-3.9-7.5c-3.7-2.6-3.7-8.9-7-12.4c-6.6-7.8-9.1,3.6-9,9C74.2,39.6,36.5,89,33,105.2c-0.1-0.2-0.2-0.5-0.3-0.7
		c0.3,39.4,2,21.5,41.5,25.3c4.1-5.7-13.9-11.9-3.8-17.5c28.8-0.8,27.2,5.6,21.9-23.7c0.3-7-8.6-31.5,1.7-30.3
		c4.2,5.5,5.9,12.1,11.1,16.3c0.6,1.5,5.5,18.1,6.4,12c4.7-4.9,0.8-16.3,8.8-16.8c5.1-0.4,1.8,2.2,9.2,4.3
		c-0.4,11.7-0.1,4.4,4.7,13.7c-2.2,34.5,4.6,21.4,31.7,24.2c8,0.4,16.4-1.7,23.7,1.1c2.3,1.7,0.8,6.2,5.5,5c2.5-0.8,11,0.5,8,4.1
		c-6.2,5-13.8,2.6-20.3,6.8c-2.6,2.6-6.4,3.3-10.2,3.1c-4.7,0.7-5.2,8.2-11.2,6.7c-7.5,1.1-25-5.1-27.1,4.3
		c11.6,5,29.6-0.2,43.2,2.3c9.1,8.9-35.5,3.4-41,5.2c-7.3,5.8,1.9,24.3-4.6,30.8c-7.3-0.9-0.6-12.3-5.5-15.7
		c-7.6,5.7-12.6-2.9-12.4,6.3c0,5.2,1.7,44.4-4.5,26.2c-2-9.8-0.6-28.8-10.5-32.8c-8.2-2.2,0.7-16.5-9.2-15.6
		c-7.3-1.3-65.1,6.5-46.7-6.6c4.2-0.3,7.3-1,10.3-3.4c1.3-0.2,10.2,0.5,6.2-1.9C47,138.2,27.5,127,36.2,150
		c3.8,18.4,5.3,43.3,25.2,51.7C60.9,201.6,60.6,201.3,60.4,200.8z M42.7,106.3c-4.1-2.4,6.4-20.2,5.5-8.9
		C46.7,102.6,44.1,96.4,42.7,106.3z M50.8,124c-2.4,0.2-7.4,1.1-6.6-1.7C44.3,118.2,54.7,122.1,50.8,124z M67.6,112.1
		c-4,2.4,0.4,8.2-1.1,10.3c-3.7,2.1-9.3,2.9-12.9,1c10.3-9.9,4.5-19.8,7-32.9c3.2,5.8,2.6,12.2,5.4,18.1
		C66.3,110,70,110.5,67.6,112.1z M90.9,101.5c5.4,8.3-8.4,14.1-9.2,4.6c2.3-9.1-3.8-16-6.7-24.1c-0.9-8.1-0.6-7.5-8.2-6.7
		C78.7,47.6,89.5,89,90.9,101.5z M145.3,85.1c-4.8-3.6-5.7-14.5-14.3-13.7c-1.6,0.3-3.6-1.3-3.3-2.9c3.3-2.4,5.5,3.9,9,0.9
		C145.4,65.2,147,80.1,145.3,85.1z M160.5,81c-2.4,2.4-0.6,6.3-2.3,8.6c-2.8-4-5.5-10.2-5.7-15.5C154.4,71.5,161.4,78.5,160.5,81z
		 M168.4,105.9c-1.2,8.7-5.7-1.3-2.3-3.5C168.1,102.4,168.7,104.1,168.4,105.9z M172.5,94.2c-1.6-0.7-5.2-6-2-6.9
		C171.7,88.2,175.9,94.5,172.5,94.2z M179.6,109.2c-6.4,2.9-3.5-7.6-1.3-8.6C178.9,103.4,185.8,108.4,179.6,109.2z M183.1,144
		c5.4,0,7.8,35.1,1.7,26.5C186.8,161.6,181.2,151.6,183.1,144z M130.3,184.2c8.6-1.6,3.4-13.6,4.7-20c5.7,6,2.9,31.5,10.4,10.8
		c4.6,30.9,9.5-26.7,17.3-12.1c-2.8,4.8,3.2,10.6,6.1,4.8c-0.5-3.4,5-11.5,7.1-8.7c0,7.9-1.8,17.3,7.5,19.7c0,0.7-0.8,0.5-1.3,0.7
		C173.7,180.9,127.5,199.8,130.3,184.2z M97.2,168.7c8-4.3,7.5,8.6,3.2,12.5C97.7,177.2,95.9,173.5,97.2,168.7z M36.4,142.1
		c-3.3-11,17.2-3.3,7.5-0.1C41.1,142,37.3,147.7,36.4,142.1z M48.2,166.5c-0.2,2.6-0.3,17-3.6,12.2c-1.6-3.8-6.2-30.2,1-23.8
		C45.4,159.1,46.1,162.9,48.2,166.5z M89.6,153c2-0.3,2,4.1,0.8,5C89.4,157.4,87.6,153.5,89.6,153z M57.6,163.3
		c4.3-4.4,13,0.4,8.2,5.8C62.7,169.9,59.3,165.4,57.6,163.3z M58.8,189.7c-2.5-0.4-3.4-4.5-6.4-6c1.8-1.6,5.6-1.6,7.5,0.4
		c4.7,2,13-2.5,15.8,3.3c0,8.8,7.5,2.3,10.2,6.8c0.5,3.5,6.2,0.5,7.2,3c2.3,10.6-11.6,0.9-16.7,2.5
		C69.8,198.6,65.5,190.8,58.8,189.7z"/>
	<path class="st1" d="M112.3,107.6c0.1-3,4-25.3,7.5-16.1C122.3,98.2,118.7,124.7,112.3,107.6z M118.9,101.7c0.9-25.1-5.2,1-4.5,7.5
		C118.5,116,119.4,104.9,118.9,101.7z"/>
	<path class="st1" d="M169,122.6c2.4,0.4,14.4-1.5,10.2,2.5c-6.3,6.1-12.6-2.7-20.3-0.4C153.9,121.9,166.9,122.8,169,122.6z"/>
	<path class="st1" d="M76.8,118.4c5.1-0.4,16.1-4,17.8,2.1C90.3,125.1,81.9,120,76.8,118.4z"/>
	<path class="st1" d="M111.2,155.6c-1.6,12-8.4-2.4-3-4.9C109.3,152.3,111.8,153.1,111.2,155.6z"/>
	<path class="st1" d="M117.1,116.8c6.1,0,0.3,7.3-3,4.8C111.1,119.3,113.7,116.1,117.1,116.8z"/>
	<path class="st1" d="M118,158.6c-1.5-2.7-3.2-6.9-0.2-8.7C123.5,149.9,120,155.8,118,158.6z M117.8,151.3c-0.1,1.3-0.6,2.2,0.1,3
		C119.3,154,118.4,152.4,117.8,151.3z"/>
	<path class="st1" d="M119.5,145.3c-7.1-0.2-6.2-6.2,0.4-6.4C123.8,138.6,123.2,145.6,119.5,145.3z M119.4,144
		c1.8,0.3,1.6-1.3,1.8-2.3C120.1,137.6,112.9,143.2,119.4,144z"/>
	<path class="st1" d="M75,144.5c-0.5-0.1-1.3-0.1-1.4-0.7C73.9,141.7,77.8,143.9,75,144.5z"/>
</g>
</svg>
