<?xml version="1.0" encoding="utf-8"?>
<!-- Generator: Adobe Illustrator 26.2.1, SVG Export Plug-In . SVG Version: 6.00 Build 0)  -->
<svg version="1.1" id="Calque_1" xmlns="http://www.w3.org/2000/svg" xmlns:xlink="http://www.w3.org/1999/xlink" x="0px" y="0px"
	 viewBox="0 0 256 256" style="enable-background:new 0 0 256 256;" xml:space="preserve">
<style type="text/css">
	.st0{fill:#FF0000;}
	.st1{fill:#212121;}
	.st2{fill:#FFFFFF;}
</style>
<path class="st0" d="M132.5,216.9c-28.6,0-57.3,0.2-85.9-0.1c-5.9-0.1-12-1.5-17.8-3.3c-1.8-0.6-3.2-1.7-4.3-3.5
	c-1.2-2-3.4-2.8-5.5-3.6c-2.2-0.8-3-2.2-3-4.6c0.1-14.8-0.1-29.5,0.1-44.3c0.1-5.5,2.7-10.2,6.4-14.1c0.7-0.7,1.1-1.5,1.6-2.3
	c1.4-2.2,3-4.3,6.3-3.9c2.5,0.3,5,0.2,7.1-1.9c1.4-1.4,3.5-1.3,5.4-1.3c20.3,0,40.6,0,61,0c36,0,71.9-0.1,107.9,0.1
	c6.1,0,12.5,0.4,17.6,4.6c3.7,3.1,7,6.5,10.4,9.9c0.9,0.9,0.7,2.3,0.8,3.5c0.7,12.9,0.2,25.7,0.1,38.6c0,6.9-2.2,13.4-6.3,19.2
	c-3.9,5.6-9.6,6.9-15.7,6.9C190,217,161.3,216.9,132.5,216.9C132.5,216.9,132.5,216.9,132.5,216.9z M62,145.8
	C62,145.8,62,145.7,62,145.8c-9.9,0-19.7,0-29.6,0c-1.8,0-3.6,0-3.7,2.6c-0.1,5.4,0.2,6.2,3.5,6.3c5.5,0.1,11.1,0.2,16.6,0
	c3.4-0.1,4.4,1,4.3,4.4c-0.1,15.5-0.1,31.1,0,46.6c0,1.3-0.4,2.9,0.9,3.7c2.1,1.2,4.6,0.8,6.8,0.2c1.8-0.5,1.3-2.4,1.3-3.8
	c0-15.6,0.1-31.3,0-46.9c0-3.4,1.2-4.1,4.3-4.1c8.1,0.1,16.2,0,24.3-0.1c3.6,0,3.9-0.6,4-5.2c0.1-3-1.2-3.8-4-3.8
	C81.1,145.8,71.6,145.8,62,145.8z M172.8,187c0,3.3,0,6.8,0,10.4c0,4.4,0,4.4,4.5,4.4c0.7,0,1.3,0,2,0c1.9,0.1,2.8-0.6,2.7-2.7
	c-0.2-4.7,0-9.3-0.1-14c0-2.7,1.3-4.7,3.1-6.4c2.1-2,4.4-0.7,6,0.7c1.5,1.2,3.8,4.1,2.6,5.1c-2.8,2.3-3.7,6.8-8.1,7.2
	c-1.7,0.1-2.6,1.4-2.5,3c0,2.2-0.6,4.6,0.7,6.7c0.1,0.2,0.6,0.3,0.9,0.3c3.8,0.2,7.9,0.9,11.1-1.1c3.3-2.2,5.9-5.4,8.8-8.3
	c0.2-0.2,0.3-0.6,0.3-0.9c-0.3-6.7,2.9-13.9-3.4-19.6c-1.8-1.6-3.4-3.1-5.9-3.1c-2.8,0-5.6-0.2-8.3,0c-3.4,0.3-4.2-1.2-4.1-4.3
	c0.2-4.8-0.1-9.5,0-14.3c0.1-3.5-2.4-3.3-4.5-3.3c-2.1,0-4.8-0.3-4.5,3.2C175.1,162.2,172.3,174.4,172.8,187z M125.7,189
	C125.7,189,125.7,189,125.7,189c0,3.9,0,7.8,0,11.6c0,2.3,1.1,3.5,3.4,3.5c8.2,0.3,16.6,1.4,21.6-7.4c0.1-0.2,0.3-0.3,0.5-0.4
	c1.5-1.1,1.9-2.6,1.9-4.3c-0.1-4.7-0.2-9.3,0-14c0.3-4.5-2.9-3.3-5.3-3.6c-2.9-0.3-4.4,0.8-3.8,3.7c1.3,6.4-2.4,10.3-6.8,13.9
	c-0.5,0.4-1,1.1-1.7,0.7c-0.7-0.3-0.7-1.1-0.7-1.8c-0.1-3.7-0.2-7.3-0.2-11c0-5.5-0.2-5.7-5.7-5.6c-2.7,0-3.4,1.2-3.4,3.6
	C125.8,181.7,125.7,185.4,125.7,189z"/>
<path class="st1" d="M24.1,55.7c0-2.2,0-3.4,0-4.7c0-5.7,0-5.8,5.5-6.6c1.9-0.2,4,0.7,3.7,3.1c-0.6,5.5,1.5,9.9,5.1,13.8
	c1.5,1.7,0.6,4.3,2.5,6.3c2.7,2.8,6.7,4.4,10.5,2.8c5.2-2.3,9-5.8,11.9-10.9c2.3-3.9,4-7.5,3.5-12c-0.1-1,0.6-1.5,1.3-2.1
	c2.8-2.1,6-1.1,9-1.1c1.2,0,1.1,1.2,1.1,2.1c0.1,5.1,1.1,10.5-1.3,15c-3.8,7.3-7.7,15.1-16.2,18.3c-1.7,0.6-3.7,0.4-5.6,0.4
	c-1.8,0.1-2.7,0.8-1.2,2.3c1.5,1.4,1.5,3.1,1.5,4.8c0,6.9-0.1,13.8,0.1,20.6c0.1,2.7-0.9,3.6-3.5,3.4c-1-0.1-2-0.1-3,0
	c-2.2,0.2-2.9-1-2.9-3c0-3.3,0-6.7,0-10c0-2.5,0-4.8-1.9-7.1c-1.7-2.1-0.7-5.2-0.6-7.8c0.1-2.6-0.6-3.7-3.3-3.3
	c-0.8,0.1-1.6,0-2.3,0c-7.7,0-8.2-0.7-10.7-8.1C25.4,66.3,23.3,60.8,24.1,55.7z"/>
<path class="st1" d="M186.5,101.8c-3.2,0-6.4,0-9.7,0c-10.9-0.1-17.9-7.1-17.9-18.1c0-3.7,0-7.3,0-11c0.1-4.9,1.7-6.4,6.6-6.4
	c6.5,0.1,13.1,0.1,19.6,0c4.7,0,8,2.7,11.2,5.7c1.4,1.3,2.5,2.7,4.3,3.6c3,1.6,4.4,4.3,4.5,7.6c0.1,4.5,0.2,9.1,0,13.6
	c-0.2,3.8-1.8,5.2-5,5C195.6,101.7,191.1,101.9,186.5,101.8C186.5,101.8,186.5,101.8,186.5,101.8z M186.1,92.4c1.2,0,2.2,0,3.2,0
	s2,0.1,3,0c2.5-0.2,3.6-2,2.4-4.3c-0.8-1.5-1.9-2.8-3.5-3.4c-1.3-0.5-2.4-1.4-3-2.5c-1.8-3.3-5.5-4-8.2-6.1c-1-0.8-2.4-0.8-3.5-0.5
	c-1.8,0.6-3.5,1-5.4,1.2c-1.5,0.1-2.6,1.6-2,3.3C171.5,86.7,176.6,94,186.1,92.4z"/>
<path class="st1" d="M104.9,88.9c-0.4-4.2,0.7-9.5-0.5-14.7c0-0.2-0.1-0.5,0-0.6c2.1-2.7,5.1-1.3,7.7-1.5c1.9-0.2,2,1.3,2,2.7
	c0,6.3,0,12.6,0,19c0,5.9,4.4,9.4,10.1,8.1c0.6-0.1,1.4-0.4,1.7-0.9c2.5-3.6,5.3-7.1,5.4-11.8c0.1-3,0.1-6-0.1-9
	c-0.2-2.7,0.9-3.7,3.5-3.5c0.1,0,0.2,0,0.3,0c5.6-0.1,5.6-0.1,5.6,5.6c0,4-0.3,8,0.1,12c0.6,5.2-1.4,9.5-3.8,13.7
	c-1.3,2.3-3,3.5-5.8,3.4c-5.8-0.2-11.5-0.2-17.3,0c-6.2,0.2-9.5-3.8-9-9C105.2,98.2,104.9,94.1,104.9,88.9z"/>
<path class="st2" d="M62,145.8c9.5,0,19.1,0.1,28.6,0c2.8,0,4.1,0.8,4,3.8c-0.1,4.6-0.4,5.1-4,5.2c-8.1,0.1-16.2,0.2-24.3,0.1
	c-3.1,0-4.3,0.7-4.3,4.1c0.2,15.6,0.1,31.3,0,46.9c0,1.4,0.5,3.3-1.3,3.8c-2.2,0.6-4.7,1-6.8-0.2c-1.3-0.7-0.9-2.4-0.9-3.7
	c0-15.5-0.1-31.1,0-46.6c0-3.3-0.9-4.5-4.3-4.4c-5.5,0.2-11.1,0.2-16.6,0c-3.3-0.1-3.6-0.9-3.5-6.3c0.1-2.7,1.9-2.6,3.7-2.6
	C42.3,145.7,52.2,145.7,62,145.8C62,145.7,62,145.8,62,145.8z"/>
<path class="st2" d="M172.8,187c-0.5-12.5,2.3-24.7,1.3-37c-0.3-3.6,2.4-3.2,4.5-3.2c2.2,0,4.6-0.2,4.5,3.3c-0.1,4.8,0.2,9.6,0,14.3
	c-0.1,3.1,0.7,4.5,4.1,4.3c2.8-0.2,5.5,0,8.3,0c2.5,0,4.1,1.5,5.9,3.1c6.3,5.7,3.1,12.9,3.4,19.6c0,0.3-0.1,0.7-0.3,0.9
	c-2.9,2.8-5.5,6.1-8.8,8.3c-3.2,2.1-7.3,1.3-11.1,1.1c-0.3,0-0.8-0.1-0.9-0.3c-1.3-2.1-0.7-4.5-0.7-6.7c0-1.6,0.9-2.9,2.5-3
	c4.5-0.4,5.3-4.9,8.1-7.2c1.2-1-1.2-3.8-2.6-5.1c-1.6-1.4-3.8-2.7-6-0.7c-1.8,1.7-3.1,3.7-3.1,6.4c0.1,4.7-0.1,9.3,0.1,14
	c0.1,2.1-0.8,2.8-2.7,2.7c-0.7,0-1.3,0-2,0c-4.4,0-4.5-0.1-4.5-4.4C172.8,193.8,172.8,190.2,172.8,187z"/>
<path class="st2" d="M125.7,189c0-3.7,0.1-7.3,0-11c-0.1-2.4,0.7-3.6,3.4-3.6c5.4-0.1,5.7,0.1,5.7,5.6c0,3.7,0.1,7.3,0.2,11
	c0,0.7,0,1.5,0.7,1.8c0.7,0.3,1.2-0.3,1.7-0.7c4.4-3.6,8.1-7.5,6.8-13.9c-0.6-2.9,0.9-4,3.8-3.7c2.5,0.3,5.6-0.9,5.3,3.6
	c-0.3,4.6-0.1,9.3,0,14c0,1.8-0.4,3.3-1.9,4.3c-0.2,0.1-0.4,0.2-0.5,0.4c-5,8.8-13.5,7.7-21.6,7.4c-2.3-0.1-3.4-1.2-3.4-3.5
	C125.7,196.8,125.7,192.9,125.7,189C125.7,189,125.7,189,125.7,189z"/>
</svg>
