<?xml version="1.0" encoding="utf-8"?>
<!-- Generator: Adobe Illustrator 26.2.1, SVG Export Plug-In . SVG Version: 6.00 Build 0)  -->
<svg version="1.1" id="Calque_1" xmlns="http://www.w3.org/2000/svg" xmlns:xlink="http://www.w3.org/1999/xlink" x="0px" y="0px"
	 viewBox="0 0 256 256" style="enable-background:new 0 0 256 256;" xml:space="preserve">
<style type="text/css">
	.st0{fill:#FDFDFD;}
	.st1{fill:#C5C5C1;}
	.st2{fill:#B6D3D9;}
	.st3{fill:#E0E6E6;}
	.st4{fill:#E5D170;}
	.st5{fill:#F4FAF8;}
</style>
<g>
	<polygon class="st0" points="66.6,71 73.3,38.1 95.6,34.4 148.4,39.3 174.8,57.6 184.7,75.9 189,109 189,147.2 196.6,188 
		198.5,203.8 193.6,214.5 184.7,225.1 157.1,233 123,229.9 96.2,225.1 78,203 64,163.9 56.7,128 56.7,92.5 	"/>
	<path class="st1" d="M82.9,216.1c-15-14.8-17.9-36.1-24.2-54.5c-10.8-19.8-3.8-43.8-6.4-66c-3.4-17.9,20.3-34.3,6-51.1
		c7.8-23.9,49.2-12.1,69.9-15c61.4,11.9,69.6,42.2,66.5,100.4c0.4,18.8-1,38.2,8.6,54.3c3.5,5.8-8.2,3.4-10,7.2
		c-5.4-1.4-6.7-5.6-6-11c-0.9-12.2-4.8-24.4-2.7-36.9c-2.1-10.7,5.4-32.4-5.4-37.2c-3.6,4.9-10.3-0.2-13.7,3.7
		c-1.6,3.4-4.6,3.6-7.6,3.2c-6.5-1-8.3,5.2-14.1,5.4c-15.6-1-36.6,2.3-48.8-7.7c-5.1-8.8-12.2-17-10.8-28.1c-0.2-6.5-8.8-6.1-6-14.2
		c2-9.4,14.2-2,20-2.3c22.2-2.1,45.6-3.4,65.3,8.8c4.9,0.8,8.6,4.5,9.7,9.5c9.1,11.4,6.7-9.6,4.2-14.8
		c-7.1-17.4-28.8-20.5-44.2-25.2c-6.5-3.6-53.8-6-55,3c-6.4,27.4-17.3,53.4-13.4,82.6c-1.3,12-1.2,11.2,4,21.2
		c5.2,14.5,7,30.4,15.2,43.6c14.7,28.6,24.1,31.3,56.8,29c7.3-4.1,27.2,5.6,34.1-0.8c3.7-4.7,12.1-4,12.5-12.1
		c0.2-4.3,6.8-5.3,5.9-10.2c15.9-5.2,10.6,8.1,4,16c-0.9,11-14.6,11.1-21.1,17.9C157.4,239.1,88.4,234.8,82.9,216.1z M96.9,88.4
		c-1,27.8,89.6,21.4,59.2-3.4c-6.2-1.2-9.5-7.8-15.9-7c-6.1,6.2-4.4,10.7-6-1.4C131,65.5,122.7,66.5,113,67
		c-3.9-0.5-2.5,4.4-5.5,5.2C99,73.2,83.6,80.7,96.9,88.4z"/>
	<path class="st1" d="M193.2,191.4c10.6-7,11.8-2.5,10.7,8.7C195.2,199.9,191.6,201.9,193.2,191.4z"/>
	<path class="st2" d="M82.9,216.1c1.3,0.1,1.3,1,1.3,2C82.8,218,82.8,217.1,82.9,216.1z"/>
	<path class="st3" d="M193.2,191.4c1.5,8.3-1.5,13.6-5.9,19.5c-0.4,8.1-8.7,7.4-12.5,12.1c-3.8,4-23.7,1.7-28.5-0.9
		c-3.9-10.8,9.2-43.6-10.3-40.2c-5,2.4-8.7-1.6-11.8-5.1c-5-4.7-13.1-1.2-18.8-5c-29.4-5.7-9.7,19.3,9.2,14.7
		c6.4-0.4,7.3,8.4,14,7.4c4-0.2,4.7,3.7,4.4,6.7c1.2,17.5-14.1,4.9-23.6,12.3c-23.2,11.3-35.2-45.5-40.6-61.7
		c-5.1-9.9-5.3-9.2-4-21.2c-3.9-29.2,6.9-55.3,13.4-82.6c9.9-12.2,35.2-2.1,50.3-5.2c15.9,7,40.8,8.1,48.9,27.5
		c2.5,5.3,5,26.2-4.2,14.8c-6.7-13.9-28-18.4-42.4-18.9c-2.8-4.5,22.4-1.6,28.5,2.4c3.1,2.3,6.5,7.1,11.1,4.5
		c3.4-3.1-2.4-10.1-4.1-13.2c-9.2-2.4-15.8-7-25.1-10.5c-17.9-4.8-34.7-5.6-54.3-4.7c-4.9,0.2-11.1,16.5-2.3,14.6
		c11-1.1,15.2,7.4,27.8,6c-8.7,5.4-31.2-7.2-34,3.7c0.3,2.7-1.5,7.5,2,8.5c7.7,6.1,2.7,21.3,11.8,28.9c3.4,10.6,11.2,6.7,19.1,11.1
		c10.9,2.1,26.4,2.8,36.1,0.7c5,1.4,7.5-4.4,12.7-3.5c6.9,0.8,21.8-12.9,23.3-0.1C184.4,132.1,179.5,182.2,193.2,191.4z M66.8,103.1
		c-3.6,27.5,6.5,51.2,13.3,76.9c2.6,8.4,8,16.6,11.2,23.4c6.7-0.1,5.2,11.3,12.4,8.1c7.9-6.7,28.1,2.8,27.3-10.1
		c0.1-3.1-0.7-4.5-4-4.1c-8.3,2.4-7.3-8.1-13.4-8.7c-5.7-0.3-12.2,1.4-17.2-2c-22-10.4-2.2-26.2,13.5-16.9
		c5.2,4.2,12.3,0.1,16.9,4.1c5.6,8.1,20.4-2.2,20.8,10.7c1.3,11.9-2.2,27.3,1.6,37.4c5.6,0.9,11.1-1.3,16.7-0.4
		c5.7,1,7.5-3.7,10.5-6.8c7.2-3,16.4-11.5,13.5-20c-2.8-4.4-5.5,2.2-5.6,5c-1,15.1-33,13.5-30.7-2.9c0.2-9.5,10-12.7,18-11.5
		c8.4,0.3,19.6-6.9,9.4-14.1c-1-18.5,0.7-37.8,0-56.6c-2.2-8.6-13.5,3.2-18.5,1.7c-12.7,5.5-26.6,5.2-41,4.8
		c-22.4,3.5-40.5-13.6-40.2-34.7c0.6-6.1-1.3-5.3-6.4-6.6c-7-1.3-1.3,10-5.7,12.9C66.9,96,66.6,99.4,66.8,103.1z M168.1,205.4
		c14.3,2.8,14.4-15.1,4.2-18.1C157.4,183.2,150.6,208.6,168.1,205.4z"/>
	<path class="st2" d="M96.2,212.8c9.1,6.5,17.8-4.7,27.6-2.7c9.6,1.4,8.9-1.8,9.1-12c-0.7-6.6-9.8-2.2-12.1-8.3
		c-5.2-7.4-18,0.9-23.3-6.7c-14.9-4.4-2.4-17.6,7.9-11.2c5.7,3.8,13.8,0.4,18.8,5c2.9,3.1,6.1,7.2,10.8,5.4
		c15.6-5.9,10.9,15.8,10.9,24.8c-0.8,6.4,3.4,14.8-4,16.2C127.8,224,103.6,228.4,96.2,212.8z"/>
	<path class="st4" d="M96.9,88.4c-13.2-7.7,2.1-15.2,10.6-16.2c3-0.8,1.5-5.8,5.5-5.2c5.3,0.9,12.6-2,16.7,1.4
		C148.6,97.4,112.2,86.9,96.9,88.4z"/>
	<path class="st5" d="M167.8,62.2c8.4,11-0.9,14.9-8.6,5.8c-18-8.6-38.2-1.4-57.4-3.7c-18.2-4.5,12.7-10.1,19.9-9.6
		c10.7,0,1.7-4,1.2-10.5c4.9-1,7.2,3.3,11.4,4.6c-0.7,3.6,4.5,2.1,4.6,5.1c-0.2,3.1-6.3,1.8-4.1,5.8c2.8,5.8,10.4-3.2,14.9,1.7
		C154.4,64.3,164.7,68,167.8,62.2z"/>
	<path class="st3" d="M96.9,88.4c16-2.1,33.8,8.3,43.2-10.4C207.6,99.7,103.1,125.1,96.9,88.4z M128.8,104.4
		c6.3,0.3,35.6-3.8,29.9-13.5c-3.2-5-10.7,0-13.2-6.3c-6.4-6.5-6.9,4.8-12.1,5.2c-9,3-26.1-1.6-31.1,4.9
		C100.9,102.3,123.2,104.7,128.8,104.4z"/>
	<path class="st2" d="M183.8,145.9c-2.6-42.6,8.2-41.8-35.4-28.1c6.7-9.1,7.8-0.3,20.8-9.4c5,1.9,9.6-3.4,12.2-1.9
		C187.2,117.8,184.4,133.6,183.8,145.9z"/>
	<path class="st2" d="M183.8,163.9c-1.1-4.9-1-9.8-0.1-14.7C185,154.1,184.9,159,183.8,163.9z"/>
	<path class="st2" d="M139.7,118.5c-2,1-4,1-6,0C135.7,117.4,137.7,117.4,139.7,118.5z"/>
	<path class="st2" d="M147.1,117.8c-0.8,2-2,1.5-3.4,0.7C144.6,117.3,145.9,117.9,147.1,117.8z"/>
	<path class="st2" d="M94.9,211.4c0.9,0,1.3,0.5,1.3,1.3C95.4,212.7,94.9,212.3,94.9,211.4z"/>
	<path class="st5" d="M89.5,197.4C80.9,187.3,50.9,103.8,76,115c1,0.2,3.3,1,2-1.9c-2.5-5.4,6.5-21.7,8.1-10.6
		c0.3,20.2,38.4,17.2,33.3,20.7c-2.7,1.2-11.9,0.8-7.6,5.4c7.4,9.7,24.3,6.1,22.4-7.4c62.4-4.7,44.9-33,46.1,47.5
		c-52.9,1,1.2,31.1,0.7,2.7c17.4,20.9-29.7,6.1-27.4,25.5c-2.3,16.4,29.7,18,30.7,2.9c0.6-2.2,0.8-6.3,3.6-6.4
		c3.4,0.3,2,5.1,2.5,7.3c0.7,3.6-3.3,3.2-4.3,5.5c-1.2,5.3-5.8,6.6-9.7,8.6c0.3-3.1-1.7-3.3-4.1-3.4c-6.9,1-12.7-1.2-18.3-4.2
		c0.1,7.8,10.4,17.7-4.8,14.8c-1.4,0-1.7-1.4-1.5-2.5c-2.7-11.9,7.9-40.3-8.4-42.2c-11.4,1.9-45.7-21-52.4-3.7
		c-1,13.2,16.7,16.2,26.8,15c6,0.6,5.1,11.1,13.4,8.7c3.3-0.4,4.1,1,4,4.1c0.8,12.9-19.4,3.4-27.3,10.1c-7.2,3.1-5.7-8.2-12.4-8.1
		c-2.1-0.2-1.8-1.9-1.9-3.3c8-1.8,7.5,9.9,13.2,6.7c6-3.3-3-6.9-0.6-11.4C101.8,188.8,87.3,189.3,89.5,197.4z M85.8,148.3
		c-8.1,5.1-2.9,14.4,5.5,13.6c8.4,1.3,14-14.9,20-8.4c5.9,7.4,15.7,1.6,23.7,3.2c9.8,0.4,17.8,8.2,28.1,4.4
		c6.8-2.1,2.2-11.7-1.8-14.6c-6.9-17.8,26.6,7.4,17.2-24.8c-7.3-9.9-19.6,5.8-28.3,5.5c-4.1,0.5-9.5-1.2-13,1.4
		c-6.8,7.3-11.4,14.5-22.7,11.9c-1.9,0-2.9-0.8-1.4-2.7c0.9-11.1-25.1-5.2-32.8-6.1C68,132.7,73.2,150.9,85.8,148.3z"/>
	<path class="st0" d="M123,44.2c0.5,6.5,9.4,10.5-1.2,10.5c-12.2-1.6-35.2,11.9-41.6,0.1C82.4,35.5,109.4,47.2,123,44.2z"/>
	<path class="st4" d="M168.1,205.4c-17.5,3.2-10.7-22.2,4.2-18.1C182.5,190.4,182.4,208.2,168.1,205.4z"/>
	<path class="st0" d="M181.2,171.3c3.9,13.9-21.7,15.5-23.4,6C157,169.4,179.8,164.5,181.2,171.3z"/>
	<path class="st0" d="M167.8,62.2c-7.1,9.7-19.7-6.7-28.6-0.7c-3.9,2.3-7.1-4.8-2.5-5.4c6.6-3.2-3.1-3.9-2.4-7.4
		c7.1-2.2,8.1,6,15.4,4C155,56.1,161.8,60.6,167.8,62.2z"/>
	<path class="st0" d="M134.3,121.1c2.8,21.7-30.4,10.4-21.3,3.6C120.6,122.7,126,120,134.3,121.1z"/>
	<path class="st5" d="M66.8,103.1c-1.5-7.5,6.3-12.4,4.7-20.2c-0.3-2.7,1-3.7,3.6-3.1c5,1.3,7,0.5,6.4,6.6
		C84.8,97.1,74.3,97.9,66.8,103.1z"/>
	<path class="st0" d="M158.4,221.4c1-3.7-8.7-14.7-2.6-13.9c5,7.9,18.5-0.8,20.6,7.3C172.8,221.9,166,221.9,158.4,221.4z"/>
	<path class="st0" d="M66.8,103.1c23.9-13.9,12.4-6.6,11.2,10C78,118.6,62.8,112.8,66.8,103.1z"/>
	<path class="st0" d="M89.5,197.4c-2.2-8.1,12.3-8.6,12.7-2.1c-1.1,2.7,0.3,4.5,2,6.5c3.3,3.1-4.5,8.5-5.8,4.1
		C97.8,198.9,88.9,202.7,89.5,197.4z"/>
	<path class="st5" d="M167.8,61.6c-3.2-0.3-6.6-0.1-8-4C162.4,58.5,167,57.9,167.8,61.6z"/>
	<path class="st5" d="M149.7,52.9c-3.7,1.2-8-0.8-8.7-4C144.3,49.5,146.5,52.2,149.7,52.9z"/>
	<path class="st5" d="M157.1,57.6c-2.9-0.2-4.4-2.2-5.4-4.6C154.5,53.4,155.9,55.3,157.1,57.6z"/>
	<path class="st5" d="M128.8,104.4c-5.6,0.3-28-2.2-26.6-9.7c5-6.6,22.1-1.9,31.1-4.9c5.3-0.4,5.8-11.7,12.2-5.2
		c2.5,6.3,10.1,1.3,13.2,6.3C164.3,100.7,135.2,104.6,128.8,104.4z"/>
	<path class="st3" d="M85.8,148.3c-12.6,2.6-17.9-15.6-5.4-16.6c7.6,0.9,33.8-4.9,32.8,6.1c-1.5,1.9-0.5,2.6,1.4,2.7
		c11.2,2.6,15.8-4.6,22.7-11.9c17.2,1.2,51-27.2,40.8,9.3c-0.7,1.9-1.8,2.7-4.1,2.1c-32.5-4.8,3.3,14.1-10.9,21.1
		c-14.6,3.4-27.2-8.6-42.4-3.9c-7.1,3.1-10.1-10.6-15.5-3.6C99.3,165.5,71.6,162.9,85.8,148.3z M156.1,158.6
		c6.1,0.4,8.4-5.5,3.6-8.3c-24.2-18.1,21.8-7.7,17.3-23.8c-5.8-9.7-18.1,5.2-26.7,3.5c-11.2-0.4-15.9,11.6-25.7,13.2
		c-8.1-1.5-14.4,9.8-4.4,11.4C132.5,154.4,145,154,156.1,158.6z M81.4,133.9c-6.6,0.8-7.5,11.4,1.2,10.6c2.5,0,4,0.9,5.1,3
		c1.1,4-7.6,6.1-0.7,9.2c3.4,2.9,17.4-1.7,11-5.6c-1-0.8-1.9-1.6-1.6-3c3.9-4.7,12,0.3,10-9.8C105.6,128.9,88.3,137.2,81.4,133.9z"
		/>
	<path class="st2" d="M156.1,158.6c-11.1-4.5-23.7-4.2-35.9-4c-10-1.7-3.8-12.9,4.4-11.4c9.8-1.6,14.5-13.6,25.7-13.2
		c8.6,1.7,20.9-13.2,26.7-3.5c4.6,16.1-41.5,5.8-17.3,23.8C164.6,153,162.2,159,156.1,158.6z"/>
	<path class="st2" d="M81.4,133.9c6.9,3.3,24.2-4.9,25,4.4c1.9,10.1-6.1,5.1-10,9.8c-0.3,1.4,0.6,2.2,1.6,3c6.5,3.9-7.6,8.5-11,5.6
		c-6.9-3.1,1.8-5.3,0.7-9.2c-2.3-5.2-12.9-1.1-11.5-8.7C76.4,136.5,79.4,133.8,81.4,133.9z"/>
</g>
</svg>
