<?xml version="1.0" encoding="utf-8"?>
<!-- Generator: Adobe Illustrator 26.2.1, SVG Export Plug-In . SVG Version: 6.00 Build 0)  -->
<svg version="1.1" id="Calque_1" xmlns="http://www.w3.org/2000/svg" xmlns:xlink="http://www.w3.org/1999/xlink" x="0px" y="0px"
	 viewBox="0 0 256 256" style="enable-background:new 0 0 256 256;" xml:space="preserve">
<style type="text/css">
	.st0{fill:#72B300;}
</style>
<g>
	<path class="st0" d="M211.5,110.9c-0.2-1.2-1.1-1.3-2.1-1.3c-0.6,0-1.1,0-1.7,0c-1.2,0-1.6-0.6-1.6-1.7s0.4-2.1,1.3-2.9
		c0.8-0.7,0.8-1.4-0.1-2c-1.1-0.6-1.4-1.7-1.3-2.8c0.1-1.9-0.2-3.7-0.6-5.6c-0.1-0.5-0.2-1,0.1-1.5c0.8-1.4,0.9-3,0.9-4.6
		c0-5.7,0-11.3,0-17c0-2.7-1-3.9-3.7-4.3c-0.5-0.1-1-0.1-1.6-0.1c-13.7,0-27.4,0-41.1,0c-7.9,0-15.8,0-23.6,0c-1,0-1.9,0-2.6-0.9
		c-1.2-1.6-2.8-1.6-4,0c-0.4,0.5-0.9,0.9-1.6,1c-1.9,0.3-3.9,0.3-5.7-0.5c-2.3-0.9-4.6-1.2-7-1.2c-7.4,0-14.8,0-22.2,0
		c-4.4,0-8.9,0-13.3,0c-3,0-5.9,0.7-8.7,1.7c-0.6,0.2-1.1,0.6-1.1,1.3c0,0.7,0.5,1,1.1,1c2.6,0.1,5.3,0.4,7.9-0.5
		c1.4-0.5,2.7-0.7,4.1-0.7c7,0,13.9,0.1,20.9,0.1c0.6,0,1.1,0,1.7,0.2c0.9,0.2,1.2,1.3,0.5,1.7c-1.6,0.8-2.6,2.3-4,3.4
		c-1.5,1.2-1.5,1.2-2-0.5c-0.1-0.3-0.2-0.6-0.3-0.8c-0.2-0.4-0.5-0.9-1-0.9c-0.6,0-0.9,0.5-1.1,1c-1.1,2-2.3,3.8-4.9,3.9
		c-1.1,0-1.8,0.9-2.1,1.9c-0.3,1-0.2,1.9,0.5,2.7c0.8,0.9,1.7,1.6,3,1.6c0.7,0,1.5,0.2,2.1,0.7c0.5,0.4,1.2,0.6,1.8,0.6
		c2.9-0.1,5.8,0.3,8.7,0.4c1.7,0.1,3.1,0.3,4.7,1.2c1.6,0.9,3.6,1.4,5.4,2c2.3,0.7,4.8,0.6,7.2,1.4c2.1,0.7,4.7,0.5,7,0
		c3.1-0.6,6,0.5,9,0.5c1,0,2.1,0.6,2.9,1.3c0.4,0.3,0.9,0.6,1.4,0.6c2,0.3,3.4,2,5.4,2.1c0.1,0,0.2,0.1,0.3,0.2
		c1.2,1.3,2.4,2.6,3.9,3.6c1.5,1.1,2.5,3,4.7,3.2c0.5,0,1.2,0.7,1.5,1.2c0.9,1.4,1.7,2.8,2.3,4.3c0.7,1.6,1.9,2.7,2.6,4.3
		c0.1,0.3,0.5,0.4,0.9,0.5c1.9,0.7,3.6,1.6,3.6,4.1c0,0.5,0.3,0.9,0.7,1.2c1.1,0.9,1.4,2.1,1.3,3.5c-0.1,4.8-0.1,9.6,0,14.5
		c0,1.8,0.2,3.7-1,5.3c-0.6,0.8-0.7,1.7-0.7,2.7c0,2.2-0.1,4.4-1.1,6.3c-1.2,2.4-1.1,4.8-0.6,7.2c0.3,1.1,1.4,1.5,2,0.7
		c1.1-1.4,2.6-1.7,4.1-2c0.4-0.1,0.8-0.4,1-0.7c1.1-1.4,2.4-2.7,2.6-4.7c0-0.4,0.3-0.8,0.5-1.2c0.6-0.8,1-1.7,1-2.6
		c0.1-2,1.2-3.4,2.6-4.7c1.7-1.7,3.4-3.3,4.8-5.3c0.8-1.1,1.4-2.4,2.5-3.3c1.5-1.3,3.2-2.1,5.2-1.9c0.3,0,0.6-0.1,0.9-0.2
		c0.7-0.3,0.9-0.8,0.4-1.4c-1-1.2-1-2.5-0.9-3.9c0.2-2-0.2-3.8-1.1-5.5c-0.6-1.2-1.8-1.7-2.7-2.6c-1.1-1.2-1-2,0.6-2.2
		c2.8-0.3,5.6-0.6,8.4,0c0.7,0.1,1.1,0.5,1.2,1.2c0.1,1.5,0.2,3.1-0.6,4.5c-1,2-1.2,4-0.6,6.1c0.2,0.6,0.4,1.3,0.2,1.9
		c-0.6,2.2-0.7,4.5-0.8,6.9c0,0.6,0.1,1.4-0.3,1.9c-1.1,1.3-1.1,2.8-1,4.3c0,1.1,0,2.3,0,3.4c-0.1,1.6-1.2,2.4-2.8,2
		c-2.2-0.6-3.2-1.9-3.1-4.5c0.1-1.4,0.4-2.8-0.8-3.9c-0.2-0.2-0.1-0.7-0.2-1c0-0.4,0-0.7-0.5-0.8c-0.4,0-0.6,0.3-0.6,0.7
		c-0.1,1-0.8,1.4-1.5,2c-1.4,1-2.6,2.1-2.3,4.2c0.2,1.1-0.1,2.1-0.9,2.9c-2.4,2.4-3.7,5.8-6.2,8.1c-0.9,0.8-0.9,1.9,0,2.8
		c0.7,0.8,0.9,1.7,0.9,2.8c0,2.4,0,4.9,0,7.3c0,0.7,0,1.5-1,1.5s-1.3-0.6-1.3-1.4c0-1.9,0-3.8,0-5.7c0-0.8,0-1.7-0.3-2.4
		c-0.2-0.6-0.6-1-1.2-1c-0.6,0-1.1,0.2-1.3,0.7c-0.7,1.5-1.3,3.1-0.7,4.8c0.5,1.2,0.6,2.5,0.5,3.8c0,0.8-0.5,1.3-1.3,1.3
		c-0.9,0-1.8,0-2.7,0c-0.7,0-1.5,0.1-1.8-0.7s-0.1-1.5,0.5-2.2c0.5-0.7,1-1.5,1.1-2.3c0.3-1.6-0.9-2.7-2.5-2.4
		c-1.7,0.3-2.8,1.4-3.4,2.9c-0.4,1-1.1,1.4-2.1,1.2c-0.4,0-0.8-0.1-1.2-0.2c-1.4-0.2-2.8,0.6-3.4,1.9c-0.8,1.6-1.2,1.9-3,1.7
		c-0.6-0.1-1.3-0.2-1.9-0.2c-0.8,0-1.5-0.2-2-1c-0.8-1-2.5-1.4-3.6-0.9c-0.9,0.5-1.9,0.4-2.8,0.2c-0.9-0.2-1.9-0.2-2.9-0.2
		c-2.7,0-5.3,0-8-0.1c-1.1-0.1-2.2-0.6-3.3-0.7c-1.5-0.1-3,0.1-4.4,0c-1.7-0.1-3.2,0.3-4.4,1.4c-0.5,0.4-1.1,0.6-1.8,0.4
		c-1.9-0.5-2.6,0-2.9,2c-0.3,2.2-0.5,2.3-2.7,2.4c-0.8,0-1.7-0.1-2.2,0.6c-0.8,1.2-2.1,1.3-3.3,1.4c-0.8,0-1.6,0-2.3,0.4
		c-0.9,0.5-1.3,1.2-1.2,2.2c0.1,1.1,0.9,1.3,1.8,1.3c1.3,0.1,2.4,0.5,3.1,1.8c0.4,0.7,0.9,1.5,1.8,1.4c3.1-0.3,6,0.7,9.1,0.4
		c0.9-0.1,1.9,0,2.9,0.1c0.4,0,1,0,1.3,0.6c-0.9,0.5-1.8,0.3-2.6,0.3c-6.9,0.1-13.8-0.2-20.7,0.4c-1.1,0.1-1.3-0.6-1.3-1.5
		c0-3.5,0.1-7,0.1-10.4c0-0.8,0.3-1.3,1.2-1.4c1.8-0.3,2-0.5,2.1-2.3c0.1-1.7,0.6-3.1,2.2-4c1-0.5,2-0.6,3-0.6c5.8,0,11.6,0,17.4,0
		c5.1-0.1,10.2,0.3,15.3-0.3c3.8-0.4,7.6-0.7,10.9-3c0.2-0.1,0.4-0.2,0.6-0.2c3-0.4,5.7-2,8.7-2.5c1.7-0.3,3.4-2.3,3.5-3.9
		c0.2-2.4,0.5-4.9-0.1-7.3c-0.2-0.7-0.1-1.6,0.6-2c1.7-1.2,2.3-3.1,2.9-4.8c0.7-2,0.7-4.3,0.5-6.5c-0.3-3-0.3-6,0-9
		c0.1-1.3,0.2-2.7-0.7-3.6c-0.8-0.9-1.2-1.8-1.3-2.9c-0.1-1.5-0.9-2.4-2.4-2.9c-1.1-0.4-2.3-1.1-2.6-2.2c-0.3-1.3-1-2.3-1.6-3.5
		c-1.7-3.4-4.7-5.5-7.1-8.2c-1.3-1.5-3.2-2.1-4.6-3.3c-1.3-1.1-2.7-2.2-4.6-2.3c-0.4,0-0.7-0.4-1.1-0.5c-2-0.6-3.6-2.3-5.8-2.5
		c-1.7-0.1-3.3,0.1-4.9,0.1c-4.8,0.1-9.6-0.2-14.5-0.5c-2.1-0.1-3.8-1.1-5.3-2.2c-1.3-1-2.5-1.2-4-1.1c-1.8,0.1-2,0.4-2.6,2.9
		c0,0.1-0.1,0.1-0.3,0.5c-0.1-0.9-0.1-1.4-0.2-2c-0.3-2.4-1.6-3.1-3.7-2.1c-0.7,0.4-1.4,0.4-2.1-0.1s-1.3-0.4-1.9,0.2
		c-0.5,0.5-1.1,0.5-1.5-0.1c-0.6-0.8-1.4-0.9-2.2-0.8c-1.3,0.1-2.6,0-3.6-1.2c-0.3-0.3-0.7-0.3-1.1-0.4c-1.7-0.2-1.9-0.5-1.7-2.2
		c0.2-1.7,0.3-3.3-0.2-4.9c-0.4-1.2-1-1.9-2.4-1.8c-1.3,0.1-1.7,1-1.7,2.1c0,2-0.9,3.4-2.4,4.5c-0.4,0.3-0.7,0.6-1.1,1
		c-0.9,0.9-1.8,0.9-2.7,0.1c-2.2-1.8-4.4-1.4-5.5,1.3c-0.5,1.2-1.2,1.9-2.4,2.4c-1.2,0.5-2.6,0.5-3.5,1.6c-1.1,1.4-2.5,2.6-3.8,3.9
		c-1.8,1.9-3.4,4.1-4.6,6.4c-0.2,0.4-0.5,0.8-0.8,1.1c-2.1,1.8-4,3.6-5.2,6.2c-0.6,1.2-1.6,2.3-2.5,3.2c-2.3,2.1-3.8,4.7-4.3,7.7
		c-0.3,2-1.7,3.5-2.3,5.3c-0.4,1-1.4,1.8-1.5,3c0,0.3-0.3,0.5-0.5,0.7c-1.9,1.2-2.5,3-2.5,5.3c0,3.4,0,6.8-0.1,10.2
		c-0.2,3.2,1.2,6.1,3,8.7c1.5,2.2,4.3,2.2,6.3,3.5c0.6,0.4,1.3,0.5,1.7,1.1c1.4,1.7,3.1,2.9,5.4,2.8c0.2,0,0.5,0,0.6,0.2
		c1.5,1.4,3.3,1,5.1,1.2c1.9,0.1,4.1-0.1,5.5,1.5c1.6,1.8,3.8,2.3,5.8,3.3c2.2,1.1,4.6,1.9,6.4,3.8c0.4,0.4,1,0.4,1.6,0.4
		c0.8,0,1.6-0.1,2.3,0.2c2.3,1.3,4.6,1,6.9,0c0.8-0.4,1.8-0.5,2.7-0.5c1.9,0,2.5,0.4,2.8,2.3c0.2,1.6,0.9,2.9,2.4,3.7
		c0.9,0.5,1.1,1.2,1.1,2.2c0,2.3-0.1,4.6-1.2,6.8c-1.6,3.4,0.5,6.3,4.2,6.3c3.3,0,6.5,0,9.8,0.1c0.5,0,1.1,0,1.5,0.3
		c1.6,1.2,3.4,1.2,5.2,1.2c1.7,0,3.4,0.2,5,0.6c0.3,0.1,0.6,0.2,0.9,0.1c2.9-0.7,5.9-0.3,8.8-0.3c22.3-0.1,44.6-0.1,66.8-0.1
		c1.7,0,3.4-0.2,5.1,0.2c2,0.4,3.1-0.6,2.7-2.6c-0.3-1.5-0.1-2.9,0.7-4.2c1.3-2.1,0.3-5.5-1.8-6.7c-0.8-0.4-1-1-1-1.8
		c0-1.7,0-3.5,0-5.2c0-0.6,0.1-1.2-0.4-1.6c-1.6-1.2-1.4-2.9-1.4-4.5c0-5,0-10,0-15c0-4-0.3-7.9,0.2-11.9c0.5-3.7,0.8-7.4,0.2-11.2
		c-0.1-0.4,0.1-0.7,0.3-0.9c1-0.8,1.1-1.8,1-3c-0.3-2.6,0.8-4.9,1.8-7.2c0.3-0.6,0.7-0.8,1.4-0.8c0.7,0.1,1.5,0,2.2-0.2
		C210.9,113.2,211.7,112,211.5,110.9z M95.3,108.9c2.5,0.4,5.1-0.2,7.6,0.9c0.9,0.4,1.9,0.2,2.8-0.3c1.1-0.6,2.2-0.6,3.2,0.2
		c1,0.9,2.2,0.7,3.4,0.4c1-0.3,1.9-0.1,2.5,0.7c0.8,1,1.9,1.4,3.1,1.3c1.4,0,2.8,0,4.2,0c3.8,0,7.1,1.3,10,3.6c1.3,1,1.9,2.6,3,3.9
		c1.2,1.5,1.6,3.3,2.2,5c0.9,2.3,0.8,4.6,0.8,6.9c0,2.8,0.4,5.6,0.1,8.5c-0.1,1.4-0.6,2.6-1.4,3.8c-1.8,2.8-4.3,4.3-7.6,4.4
		c-2,0.1-4,0.3-5.8,1.3c-0.4,0.2-0.9,0.3-1.4,0.4c-0.3,0.1-0.5,0.1-0.8,0.1c-1.8,0.4-3,2.3-5.1,2.1c-0.5,0-0.7,0.9-0.7,1.5
		c-0.1,0.7-0.3,1.3-1.1,1.5c-0.8,0.2-1.1-0.2-1.6-0.7c-1.3-1.3-2.8-2-4.6-1.3c-3.5,1.4-7.1,2-10.7,2.4c-0.6,0.1-1.2,0.3-1.7,0.7
		c-1.9,1.5-5.7,1.3-7.7,0c-1.5-1-3.1-1.8-4.8-2.6c-2.1-1-4.5-1.7-6.2-3.4c-0.3-0.3-0.6-0.5-0.8-0.9c-0.8-1.5-1.9-2.8-3.1-3.8
		c-2.2-1.8-3.7-4-4.9-6.4c-0.2-0.4-0.4-0.8-0.4-1.2c0.1-2.4,0.8-4.6,1.5-6.8c0.2-0.5,0.7-0.7,1.2-0.9c1.1-0.4,1.8-1.2,2-2.4
		c0.1-0.8,0.5-1.3,1.3-1.6c0.7-0.2,1.2-0.7,1.6-1.3c1.2-2.4,3.2-3.9,5.2-5.5c1.6-1.2,2.8-2.9,4.5-4c0.5-0.3,0.9-0.7,1.4-1
		c2.2-1.1,3.9-0.3,4.3,2.1c0.3,1.5,0.4,3.1,0.5,4.7c0.1,1.5-0.6,2.1-2,2.1c-1.9,0-3.6,0.2-5,1.6c-0.3,0.3-0.8,0.4-1.2,0.5
		c-3.4,0.7-5,4-3.4,7.2c0.3,0.6,0.6,1.2,0.6,1.8c0.2,2,1.7,3.4,2.3,5.2c0.1,0.2,0.3,0.4,0.5,0.4c1.8,0.6,3.2,2,5.2,2.3
		c0.3,0,0.7,0.1,1,0.3c1.9,1.5,3.8,2.9,5.7,4.4c0.8,0.6,0.9,1.4,0.6,2.3c-0.3,1-0.6,2.1,0.5,2.8c1,0.7,2.8,0.7,3.7-0.1
		c1-1,2.1-1.1,3.3-1.1c2.6,0.1,5.2-0.8,7.9-0.4c0.3,0,0.7,0,0.9-0.2c1.4-1.1,3.1-1,4.7-1.1c1.4,0,2.7-0.1,3.6-1.4l0.1-0.1
		c2.3-0.3,4.1-2.1,6.5-2.1c0.3,0,0.7,0,1,0c3.7,0.5,5.7-1.7,7.4-4.5c0.2-0.3,0.2-0.7,0.2-1c-0.2-3.8,0.2-7.6,0.1-11.5
		c0-2.5-1-4.6-1.9-6.7c-0.7-1.5-1.4-3.2-2.7-4.4c-1.5-1.4-3-2.7-5.2-2.9c-2.1-0.2-4.3-0.2-6.4-0.2c-1.2,0-2.4,0-3.7,0
		c-1.3,0-2.6,0-3.5-1.2c-0.4-0.6-6.3-0.7-6.7-0.1c-0.9,1.4-1.6,0.7-2.6,0.1c-1.2-0.7-2.7-0.5-4.1-0.6c-0.8,0-1.3-0.2-1.7-0.9
		c-0.7-1-1.6-1-2.5-0.1c-0.2,0.2-0.3,0.5-0.6,0.4c-0.4-0.1-0.3-0.5-0.3-0.8c0-0.5,0-1,0-1.4C93.7,109.2,94.3,108.7,95.3,108.9z
		 M97.6,128.6c0.6-0.2,0.9,0.3,1.2,0.6c0.4,0.5,0.8,1,0.2,1.6c-0.5,0.6-0.9,1.3-1,2.2c-0.1,1.4,0.4,2,1.8,2.1
		c1.2,0.1,2.4,0.1,3.6,0.3c1,0.1,1.3,0.6,0.7,1.5c-0.2,0.3-0.3,0.6-0.4,0.9c-0.2,0.9-0.4,1.9,0.7,2.3c0.9,0.4,2.4-0.2,2.6-1.1
		c0.5-1.8,0.9-3.8,0.5-5.6c-0.3-1.4-1.4-2.8-2.4-3.9c-1.1-1.2-2.6-1.6-4.3-1.5c-1.6,0.1-1.9-0.3-2-1.9c0-0.4,0-0.8,0-1.2
		c0-2.4,0-2.4-2.3-3c-0.7-0.2-1.1-0.5-1-1.3c0.2-0.9,0.8-0.6,1.3-0.4c0.4,0.2,0.8,0.1,1.1-0.1c0.3-0.1,0.6-0.3,1-0.4
		c0.8-0.2,1.7-0.3,2.3,0.2c0.6,0.5,0,1.3-0.1,2c-0.1,0.3-0.3,0.6-0.4,0.9c-0.5,0.8-0.7,1.7-0.1,2.4c0.6,0.7,1.5,0.5,2.3,0.4
		c0.7-0.1,1.3-0.9,2-0.2c1.4,1.2,3.8,1.5,3.6,4.1c-0.1,0.8,0.2,1.5,0.7,2.2c0.2,0.2,0.4,0.5,0.3,0.7c-0.6,2.1,0.6,4.1,0.4,6.1
		c-0.1,1.7-0.3,2.3-1.9,2.8c-1.3,0.5-2.3,1.4-3.3,2.3c-0.9,0.8-1.8,1.1-3,1.1c-1.6,0-1.9-0.3-1.8-2c0.1-1.4-0.4-2.6-1.8-3.2
		c-0.8-0.4-1.1-1-1.1-1.7c-0.1-1.4-0.1-2.9-0.1-4.3c0-1.2,0.1-2.3,0-3.5C97,129.5,96.9,128.9,97.6,128.6z M105.9,134.2
		c-0.3,0.1-0.7,0-1,0.1c-0.2,0-0.4,0-0.6-0.1c0.2,0,0.4,0,0.6,0.1C105.2,134.3,105.6,134.4,105.9,134.2z M93.2,134.2
		c-0.1,0.7-0.2,1.4-0.3,2c-0.1,0.4,0,0.9-0.5,0.9s-0.4-0.6-0.4-1c0-0.6,0-1.1,0-1.7l0,0c0-0.6,0-1.3,0.1-1.9c0-0.3,0.2-0.5,0.5-0.5
		s0.5,0.2,0.6,0.4C93.2,133,93.3,133.6,93.2,134.2z M87.8,134.5c-1.3-0.1-1.5-1.2-2-2c-0.4-0.7,0.1-1.4,0.6-1.8
		c0.5-0.5,1-0.3,1.1,0.3c0.1,0.9,0.5,1.7,1,2.5C89,134.1,88.5,134.5,87.8,134.5z M113.2,141.5c-0.2,0-0.4-0.1-0.5-0.2
		C112.9,141.4,113,141.5,113.2,141.5z M181.1,84.7c-0.3,0-0.8-0.2-0.5-0.5c0.4-0.6,0.7-1.3,1.4-1.5c0.5-0.1,0.4,0.5,0.5,0.8
		C182.3,84.4,181.9,84.8,181.1,84.7z M192.8,108.6c2.4-2.7,5.4-1.5,8.3-1.5c0.8,0,0.9,0.7,0.8,1.4c0,0.7-0.4,1.1-1.1,1.2
		c-1.2,0-2.3,0-3.5,0c-1.4,0-2.9,0.2-4.3-0.1c-0.2,0-0.6,0-0.6-0.3C192.3,108.9,192.6,108.8,192.8,108.6z M201.8,100.8
		c0.1,1-0.4,1.6-1.5,1.5c-1.6,0-3.1,0-4.7,0c-0.6,0-1.1-0.2-0.8-1c1.2-3.4-0.2-5.7-3.8-6c-0.1,0-0.2-0.1-0.4-0.1
		c2.1-0.2,3.6-1.8,5.6-2.3c0.9-0.2,1.1-1,1.2-1.8c0.1-1.4,0.7-1.7,2.6-1.7c1.2,0,1.7,0.6,1.7,1.8C201.9,94.4,201.6,97.6,201.8,100.8
		z M200.9,187c-0.3,0.1-0.5,0.1-0.8,0.1c-4.4-0.4-8.9,0.4-13.3-0.2c-0.3,0-0.7,0-1.2-0.4c2-0.9,4-1.6,6.1-1.3c2.2,0.4,4.3,0.3,6.5,0
		c1.1-0.2,2.1-0.1,3,0.6c0.3,0.2,0.7,0.4,0.6,0.8C201.8,187,201.3,186.9,200.9,187z M156.3,180.4c3.2-0.1,6.4-0.3,9.6,0.3
		c1,0.2,2.1,0.1,3.1-0.2c0.8-0.3,1.6-0.1,2.4,0.1c0.9,0.2,1.8,0.4,2.7,0.3c0.3,0,0.8-0.1,0.8,0.3c0,0.4-0.5,0.4-0.9,0.4
		c-2.8,0-5.6,0-8.3,0.1c-3.3,0-6.7-0.1-10,0.2c-4.9,0.5-9.7-0.4-13.2-0.6C146.3,181.2,151.3,180.6,156.3,180.4z M198.3,157.7
		c0.1,0.3,0.1,0.7,0.1,1c0,0.4,0,0.8,0.1,1.4c-0.5,2.1,0,4.4,0,6.7c0,0.8,0.2,1.5,0.9,1.9s1,1.1,0.9,1.9c-0.2,1.3-0.2,2.7-0.2,4
		c0,0.8-0.2,1.5-1.2,1.5s-1.1-0.8-1.2-1.6c-0.1-0.9-0.1-1.7-0.2-2.6c-0.2-2.5-1.3-3.7-3.8-4.1c-1.1-0.1-1.3-0.6-1.3-1.7
		c0-2.5,0.2-4.9,1-7.3c0.5-1.4,1.5-2.1,2.7-2.6C197.3,156,198,156.6,198.3,157.7z M192.6,174.1c-0.1,0.5-0.5,0.4-0.8,0.4
		s-0.7-0.1-0.6-0.5c0-0.4,0.4-0.5,0.7-0.4C192.1,173.6,192.5,173.7,192.6,174.1z M193.7,180.1c1.5,0.8,3.2,0.4,4.9,0.4
		c0.6,0,1.3-0.1,1.9-0.1c0.5,0,1.2,0.2,1.2,0.8c0,0.8-0.7,0.6-1.2,0.6c-4.6,0-9.1,0-13.7,0c-1.8,0-3.6,0-5.4,0c-0.4,0-0.8,0-1.3-0.6
		c2.2-0.5,3.9-1.7,6.1-1.6c0.6,0,1.1,0.1,1.6,0.4c1.1,0.9,2.3,0.7,3.4,0.1C192.1,179.6,192.8,179.6,193.7,180.1z M203.3,73.9
		c-0.3,3,0.3,6,0.1,8.9c-0.1,1.8-0.5,2.2-2.3,2.1c-4.4-0.1-8.8-0.4-13.1-0.2c-0.7,0-1.7,0.2-2.1-0.6c-0.4-0.7-0.1-1.4,0.4-2
		c0.6-0.8,1.2-1.5,2.4-1.1c0.9,0.4,1.8-0.1,2.6-0.5c0.6-0.3,0.9-0.8,0.8-1.5c-0.1-0.7-0.6-1.1-1.2-1.2c-0.8-0.1-1.6-0.1-2.5-0.2
		c-0.6,0-1.2-0.1-1.4-0.9c-0.1-0.7,0.1-1.3,0.8-1.6c0.2-0.1,0.4-0.2,0.6-0.3c1.1-0.6,1.1-1,0.1-1.8c-0.5-0.4-1.6-0.4-1.2-1.3
		c0.3-0.8,1.3-0.8,2.1-0.8c3.8,0.2,7.7,0.2,11.5,0.2C202.1,71.2,203.4,72.5,203.3,73.9z M122.9,70c0.4,0,1.1-0.1,1.1,0.6
		c0,0.5-0.6,0.5-1,0.5c-2.7,0-4.9,1.5-7.5,2.1c-2.3,0.6-3.2,0-3.2-2.4c0-2.1,0.4-2.5,2.6-2.3c0.8,0.1,1.5,0.2,2.3,0.6
		C119,69.9,121,69.9,122.9,70z M98,97.2c0,1-0.3,1.7-1.4,1.8c-0.9,0-1.6,0.5-2,1.2c0,0.1-0.1,0.1-0.1,0.2c-0.5,0.6-1.2,1.2-2,1
		c-0.9-0.3-0.6-1.2-0.5-1.9c-0.6-1.6-0.8-3.1,1.2-3.9c0.4-0.2,0.4-0.8,0.4-1.3c0-0.6,0.1-1.1,0.2-1.7s0.3-1.1,1-1.1s1.2,0.3,1.4,1
		c0.2,1,0.7,1.8,1.3,2.7C97.8,95.7,98,96.5,98,97.2z M87.6,99.8c-0.1,0.4-0.1,0.9,0.1,1.3c0.6,1.6,0.3,2.4-1.3,3.3
		c-0.8,0.5-1.3,1.1-1.1,2c0.3,1.6-0.6,2.5-1.8,2.9c-2.7,0.9-4.4,2.9-6.3,4.7c-1.1,1-2.3,1.8-3.7,2.4c-1.1,0.5-1.8,1.2-2.1,2.3
		c-0.2,0.9-0.7,1.3-1.5,1.6c-3,1-4.6,3.4-5.5,6.2c-0.5,1.5-1.6,2.4-2.5,3.6c-2.6,3.7-3.6,7.8-2.4,12.2c0.7,2.8,2.7,4.8,5.4,6.1
		c1.6,0.8,2.7,2.1,4,3.3c0.4,0.4,0.9,1,0.6,1.6s-1,0.2-1.6,0.2c-0.1,0-0.3,0-0.4-0.1c-2.2-1.1-4.5-1.6-6.9-1.7
		c-1-0.1-1.4-1.2-1.9-1.8c-1.1-1.5-2.7-2.2-4.3-2.7c-0.6-0.2-1.3-0.3-1.8-0.8c-1.3-1.3-2.9-2.2-4.3-3.4c-2.5-2.1-4.4-4.7-4-8.3
		c-0.1-1.1,0.1-2.2,0.9-3.1c0.8-0.9,0.9-2.1,1.3-3.1c0.8-2.2,2.1-3.9,3.7-5.5c0.3-0.3,0.6-0.6,0.7-0.9c0.2-1.7,1.1-3,1.9-4.5
		c0.7-1.2,1.3-2.3,2.2-3.3s1.4-2.1,1.5-3.4c0.1-1,0.5-1.7,1.4-2.2c1.2-0.7,2.4-1.7,2.9-3.1c1.1-3,3.5-5.2,4.7-8.1
		c0.3-0.7,1-0.9,1.5-1.4c1.3-1.3,2.8-2.4,3.9-3.9c0.3-0.5,0.9-0.5,1.4-0.6c1.3-0.1,2.5-0.4,3.3-1.5c0.3-0.4,0.7-0.6,1.2-0.7
		c2.4-0.2,4.6-1.2,7-1.7c1-0.2,1.5,0.1,1.6,1.1c0.1,0.9,0.2,1.7,0.2,2.6c0,1.4,0.3,2.7,1.1,3.9C87.5,96.6,88,98.1,87.6,99.8z"/>
	<path class="st0" d="M160.5,160.2c0,0.4,0.2,0.8,0.7,0.8c0.6,0,1.1-0.2,1.3-0.8c-0.1-0.6-0.6-0.7-1.1-0.8
		C160.9,159.3,160.5,159.6,160.5,160.2z"/>
</g>
<g>
	<path d="M191,58c-4,0-8-2-12-2c-9,2-17,0-25,0c-6-1-12,4-19,3c-37.4-3.9-74.8-2.1-112.2-1c-1.4,40.7-6.4,81.4,0.2,122
		c1,7-3,16-3,24c48-6,97,2,146,0c13,0,26-2,39-2c10,1,28,4,29,0c3.2-15.3,4.8-30.6,5.5-45.9c0-12.9,0-25.8,0-38.7
		c-0.7-19.8-2.3-39.6-3.5-59.4C221,58,206,59,191,58z M209.9,113.6c-0.7,0.2-1.4,0.3-2.2,0.2c-0.6-0.1-1.1,0.2-1.4,0.8
		c-1,2.3-2,4.6-1.8,7.2c0.1,1.1,0,2.2-1,3c-0.3,0.2-0.4,0.6-0.3,0.9c0.6,3.7,0.3,7.4-0.2,11.2c-0.5,3.9-0.2,7.9-0.2,11.9
		c0,5-0.1,10,0,15c0,1.6-0.2,3.3,1.4,4.5c0.5,0.4,0.4,1,0.4,1.6c0,1.7,0,3.5,0,5.2c0,0.8,0.2,1.4,1,1.8c2.2,1.2,3.1,4.6,1.8,6.7
		c-0.8,1.4-1,2.7-0.7,4.2c0.4,2-0.8,3.1-2.7,2.6c-1.7-0.4-3.4-0.2-5.1-0.2c-22.3,0-44.6,0-66.8,0.1c-2.9,0-5.9-0.4-8.8,0.3
		c-0.3,0.1-0.6,0-0.9-0.1c-1.7-0.4-3.3-0.6-5-0.6c-1.8,0-3.7,0-5.2-1.2c-0.4-0.3-1-0.3-1.5-0.3c-3.3,0-6.5-0.1-9.8-0.1
		c-3.7,0-5.8-2.9-4.2-6.3c1.1-2.3,1.1-4.5,1.2-6.8c0-0.9-0.3-1.7-1.1-2.2c-1.5-0.8-2.1-2.1-2.4-3.7c-0.3-1.9-0.9-2.3-2.8-2.3
		c-0.9,0-1.8,0.1-2.7,0.5c-2.3,1-4.6,1.2-6.9,0c-0.7-0.4-1.5-0.2-2.3-0.2c-0.6,0-1.2,0-1.6-0.4c-1.7-2-4.2-2.7-6.4-3.8
		c-2-1-4.2-1.5-5.8-3.3c-1.4-1.6-3.6-1.4-5.5-1.5c-1.8-0.1-3.6,0.2-5.1-1.2c-0.1-0.1-0.4-0.2-0.6-0.2c-2.4,0.2-4-1.1-5.4-2.8
		c-0.5-0.5-1.2-0.7-1.7-1.1c-2-1.3-4.8-1.4-6.3-3.5c-1.8-2.6-3.2-5.4-3-8.7c0.2-3.4,0.2-6.8,0.1-10.2c0-2.2,0.6-4,2.5-5.3
		c0.3-0.2,0.5-0.4,0.5-0.7c0.1-1.3,1.2-2,1.5-3c0.7-1.8,2-3.3,2.3-5.3c0.5-3,2-5.6,4.3-7.7c1-0.9,2-2,2.5-3.2
		c1.2-2.6,3.2-4.4,5.2-6.2c0.4-0.3,0.6-0.7,0.8-1.1c1.2-2.4,2.8-4.5,4.6-6.4c1.2-1.3,2.6-2.5,3.8-3.9c0.9-1.1,2.3-1.1,3.5-1.6
		c1.2-0.5,1.9-1.2,2.4-2.4c1.2-2.6,3.3-3.1,5.5-1.3c1,0.8,1.8,0.8,2.7-0.1c0.3-0.3,0.7-0.7,1.1-1c1.5-1.1,2.5-2.5,2.4-4.5
		c0-1.1,0.4-2,1.7-2.1c1.3-0.1,2,0.6,2.4,1.8c0.5,1.6,0.4,3.3,0.2,4.9c-0.2,1.7,0,1.9,1.7,2.2c0.4,0.1,0.8,0.1,1.1,0.4
		c0.9,1.2,2.2,1.2,3.6,1.2c0.9,0,1.7,0.1,2.2,0.8c0.5,0.6,1,0.7,1.5,0.1c0.6-0.6,1.2-0.6,1.9-0.2c0.7,0.5,1.3,0.4,2.1,0.1
		c2.1-1,3.4-0.3,3.7,2.1c0.1,0.6,0.1,1.2,0.2,2c0.2-0.3,0.3-0.4,0.3-0.5c0.7-2.5,0.9-2.8,2.6-2.9c1.4-0.1,2.7,0.1,4,1.1
		c1.5,1.1,3.1,2.1,5.3,2.2c4.8,0.3,9.6,0.6,14.5,0.5c1.6,0,3.3-0.2,4.9-0.1c2.3,0.2,3.8,1.9,5.8,2.5c0.4,0.1,0.7,0.5,1.1,0.5
		c1.9,0.1,3.3,1.2,4.6,2.3c1.5,1.2,3.3,1.8,4.6,3.3c2.3,2.7,5.4,4.8,7.1,8.2c0.6,1.1,1.3,2.1,1.6,3.5c0.3,1.1,1.4,1.8,2.6,2.2
		c1.5,0.5,2.3,1.4,2.4,2.9c0.1,1.1,0.4,2,1.3,2.9s0.9,2.3,0.7,3.6c-0.3,3-0.2,6,0,9c0.2,2.2,0.2,4.4-0.5,6.5
		c-0.6,1.7-1.2,3.6-2.9,4.8c-0.7,0.5-0.8,1.3-0.6,2c0.6,2.4,0.4,4.8,0.1,7.3c-0.2,1.6-1.8,3.7-3.5,3.9c-3,0.4-5.7,2-8.7,2.5
		c-0.2,0-0.4,0.1-0.6,0.2c-3.3,2.2-7.1,2.6-10.9,3c-5.1,0.6-10.2,0.2-15.3,0.3c-5.8,0.1-11.6,0-17.4,0c-1,0-2.1,0.1-3,0.6
		c-1.6,0.9-2.1,2.3-2.2,4c-0.1,1.9-0.3,2-2.1,2.3c-0.9,0.2-1.2,0.6-1.2,1.4c0,3.5-0.1,7-0.1,10.4c0,0.9,0.2,1.6,1.3,1.5
		c6.9-0.6,13.8-0.3,20.7-0.4c0.9,0,1.8,0.2,2.6-0.3c-0.3-0.6-0.8-0.5-1.3-0.6c-1-0.1-1.9-0.2-2.9-0.1c-3.1,0.3-6-0.8-9.1-0.4
		c-0.9,0.1-1.4-0.7-1.8-1.4c-0.7-1.3-1.8-1.7-3.1-1.8c-0.9,0-1.7-0.2-1.8-1.3c-0.1-1,0.3-1.8,1.2-2.2c0.7-0.4,1.5-0.4,2.3-0.4
		c1.3,0,2.5-0.1,3.3-1.4c0.5-0.7,1.4-0.6,2.2-0.6c2.2-0.1,2.4-0.2,2.7-2.4c0.3-2,1-2.6,2.9-2c0.7,0.2,1.3,0,1.8-0.4
		c1.3-1.1,2.7-1.5,4.4-1.4c1.5,0.1,3-0.1,4.4,0c1.1,0.1,2.2,0.6,3.3,0.7c2.6,0.1,5.3,0.1,8,0.1c1,0,1.9,0,2.9,0.2
		c0.9,0.2,1.9,0.2,2.8-0.2c1.1-0.6,2.9-0.2,3.6,0.9c0.5,0.7,1.1,1,2,1c0.6,0,1.3,0.1,1.9,0.2c1.8,0.2,2.2,0,3-1.7
		c0.6-1.3,2-2,3.4-1.9c0.4,0,0.8,0.1,1.2,0.2c1,0.1,1.7-0.2,2.1-1.2c0.6-1.5,1.7-2.5,3.4-2.9c1.6-0.3,2.8,0.8,2.5,2.4
		c-0.2,0.9-0.6,1.6-1.1,2.3c-0.5,0.7-0.8,1.4-0.5,2.2c0.3,0.8,1.2,0.6,1.8,0.7c0.9,0,1.8,0,2.7,0c0.9,0,1.3-0.4,1.3-1.3
		c0.1-1.3-0.1-2.6-0.5-3.8c-0.6-1.7,0-3.3,0.7-4.8c0.2-0.5,0.7-0.8,1.3-0.7c0.6,0,1,0.5,1.2,1c0.3,0.8,0.3,1.6,0.3,2.4
		c0,1.9,0,3.8,0,5.7c0,0.8,0.3,1.5,1.3,1.4c1,0,1-0.8,1-1.5c0-2.4,0-4.9,0-7.3c0-1-0.2-2-0.9-2.8c-0.9-0.9-0.8-2,0-2.8
		c2.6-2.3,3.8-5.7,6.2-8.1c0.8-0.8,1.1-1.8,0.9-2.9c-0.3-2,0.9-3.2,2.3-4.2c0.7-0.5,1.4-1,1.5-2c0-0.4,0.2-0.7,0.6-0.7
		c0.5,0,0.5,0.4,0.5,0.8c0,0.3,0,0.8,0.2,1c1.3,1.1,0.9,2.5,0.8,3.9c-0.1,2.6,0.8,3.8,3.1,4.5c1.6,0.4,2.7-0.3,2.8-2
		c0.1-1.1,0-2.3,0-3.4c0-1.5,0-3,1-4.3c0.4-0.5,0.3-1.2,0.3-1.9c0-2.3,0.1-4.6,0.8-6.9c0.2-0.7,0-1.3-0.2-1.9
		c-0.5-2.1-0.4-4.1,0.6-6.1c0.7-1.4,0.7-3,0.6-4.5c0-0.7-0.5-1.1-1.2-1.2c-2.8-0.6-5.6-0.3-8.4,0c-1.6,0.2-1.7,1-0.6,2.2
		c0.9,0.9,2.1,1.4,2.7,2.6c0.9,1.7,1.3,3.6,1.1,5.5c-0.2,1.4-0.1,2.8,0.9,3.9c0.5,0.6,0.3,1.1-0.4,1.4c-0.3,0.1-0.6,0.3-0.9,0.2
		c-2-0.2-3.7,0.7-5.2,1.9c-1.1,0.9-1.7,2.2-2.5,3.3c-1.4,2-3.1,3.6-4.8,5.3c-1.4,1.3-2.6,2.7-2.6,4.7c0,1-0.4,1.9-1,2.6
		c-0.3,0.3-0.5,0.8-0.5,1.2c-0.2,2-1.5,3.3-2.6,4.7c-0.3,0.4-0.6,0.6-1,0.7c-1.5,0.4-3,0.6-4.1,2c-0.6,0.8-1.7,0.3-2-0.7
		c-0.6-2.5-0.7-4.8,0.6-7.2c1-1.9,1.2-4.2,1.1-6.3c0-1,0-1.9,0.7-2.7c1.2-1.6,1-3.5,1-5.3c-0.1-4.8,0-9.6,0-14.5
		c0-1.4-0.2-2.6-1.3-3.5c-0.4-0.3-0.7-0.7-0.7-1.2c0.1-2.5-1.6-3.4-3.6-4.1c-0.3-0.1-0.8-0.3-0.9-0.5c-0.7-1.6-2-2.7-2.6-4.3
		c-0.6-1.5-1.5-2.9-2.3-4.3c-0.3-0.5-1-1.1-1.5-1.2c-2.2-0.2-3.2-2.1-4.7-3.2c-1.5-1-2.6-2.4-3.9-3.6c-0.1-0.1-0.2-0.2-0.3-0.2
		c-2-0.1-3.4-1.9-5.4-2.1c-0.5-0.1-1-0.3-1.4-0.6c-0.8-0.7-1.9-1.3-2.9-1.3c-3,0-5.9-1.1-9-0.5c-2.3,0.5-4.9,0.7-7,0
		c-2.4-0.8-4.9-0.7-7.2-1.4c-1.8-0.6-3.8-1-5.4-2c-1.5-0.9-3-1.1-4.7-1.2c-2.9-0.2-5.8-0.5-8.7-0.4c-0.6,0-1.3-0.2-1.8-0.6
		c-0.6-0.5-1.3-0.7-2.1-0.7c-1.3,0-2.2-0.7-3-1.6c-0.7-0.8-0.9-1.7-0.5-2.7c0.3-1,1-1.8,2.1-1.9c2.7-0.1,3.9-1.9,4.9-3.9
		c0.2-0.5,0.5-1,1.1-1c0.5,0,0.8,0.5,1,0.9c0.1,0.3,0.2,0.6,0.3,0.8c0.5,1.7,0.5,1.7,2,0.5c1.4-1.1,2.3-2.6,4-3.4
		c0.7-0.3,0.3-1.4-0.5-1.7c-0.5-0.2-1.1-0.2-1.7-0.2c-7,0-13.9-0.1-20.9-0.1c-1.4,0-2.7,0.2-4.1,0.7c-2.6,0.9-5.2,0.6-7.9,0.5
		c-0.6,0-1.1-0.4-1.1-1c0-0.7,0.5-1.1,1.1-1.3c2.8-0.9,5.7-1.7,8.7-1.7c4.4,0,8.9,0,13.3,0c7.4,0,14.8,0,22.2,0c2.4,0,4.7,0.3,7,1.2
		c1.8,0.7,3.7,0.7,5.7,0.5c0.7-0.1,1.2-0.4,1.6-1c1.2-1.5,2.8-1.6,4,0c0.7,0.9,1.6,0.9,2.6,0.9c7.9,0,15.8,0,23.6,0
		c13.7,0,27.4,0,41.1,0c0.5,0,1,0,1.6,0.1c2.7,0.4,3.7,1.6,3.7,4.3c0,5.7,0,11.3,0,17c0,1.6-0.1,3.1-0.9,4.6c-0.3,0.5-0.2,1-0.1,1.5
		c0.4,1.8,0.7,3.7,0.6,5.6c-0.1,1.1,0.2,2.1,1.3,2.8c1,0.5,0.9,1.3,0.1,2c-0.9,0.8-1.3,1.7-1.3,2.9c0,1.1,0.4,1.7,1.6,1.7
		c0.6,0,1.1,0,1.7,0c1,0,1.9,0.1,2.1,1.3C211.7,112,210.9,113.2,209.9,113.6z M162.5,160.2c-0.3,0.6-0.8,0.8-1.3,0.8
		c-0.4,0-0.7-0.3-0.7-0.8c0-0.6,0.4-0.9,1-0.8C161.9,159.5,162.4,159.6,162.5,160.2z"/>
	<path d="M69,151.6c-1.3-1.2-2.4-2.5-4-3.3c-2.6-1.3-4.6-3.3-5.4-6.1c-1.2-4.4-0.2-8.5,2.4-12.2c0.8-1.2,2-2.1,2.5-3.6
		c0.8-2.9,2.5-5.2,5.5-6.2c0.8-0.3,1.3-0.8,1.5-1.6c0.3-1.1,1-1.8,2.1-2.3c1.3-0.6,2.5-1.4,3.7-2.4c1.9-1.8,3.6-3.8,6.3-4.7
		c1.2-0.4,2.1-1.4,1.8-2.9c-0.2-0.9,0.3-1.6,1.1-2c1.6-0.9,1.8-1.6,1.3-3.3c-0.1-0.4-0.2-0.9-0.1-1.3c0.5-1.6-0.1-3.2-0.8-4.5
		c-0.8-1.3-1.1-2.5-1.1-3.9c0-0.9-0.1-1.7-0.2-2.6c-0.1-1-0.5-1.3-1.6-1.1c-2.3,0.5-4.6,1.4-7,1.7c-0.5,0-0.9,0.3-1.2,0.7
		c-0.8,1.1-2,1.4-3.3,1.5c-0.5,0-1.1,0.1-1.4,0.6c-1.1,1.5-2.6,2.5-3.9,3.9c-0.5,0.5-1.2,0.7-1.5,1.4c-1.2,2.9-3.6,5-4.7,8.1
		c-0.5,1.3-1.7,2.4-2.9,3.1c-0.9,0.5-1.3,1.2-1.4,2.2c-0.1,1.3-0.6,2.4-1.5,3.4s-1.6,2.1-2.2,3.3c-0.8,1.5-1.6,2.8-1.9,4.5
		c0,0.3-0.4,0.7-0.7,0.9c-1.6,1.6-3,3.3-3.7,5.5c-0.4,1.1-0.5,2.2-1.3,3.1c-0.8,0.9-1,2-0.9,3.1c-0.4,3.6,1.5,6.2,4,8.3
		c1.4,1.2,3,2.1,4.3,3.4c0.5,0.5,1.1,0.6,1.8,0.8c1.7,0.5,3.2,1.2,4.3,2.7c0.5,0.7,0.9,1.8,1.9,1.8c2.4,0.2,4.7,0.6,6.9,1.7
		c0.1,0.1,0.3,0.1,0.4,0.1c0.5,0,1.2,0.4,1.6-0.2C69.9,152.6,69.4,152,69,151.6z"/>
	<path d="M112.7,154.6c0.5,0.5,0.9,0.9,1.6,0.7c0.8-0.2,1-0.8,1.1-1.5c0.1-0.6,0.2-1.6,0.7-1.5c2.1,0.1,3.3-1.8,5.1-2.1
		c0.3-0.1,0.5-0.1,0.8-0.1c0.5-0.1,1-0.1,1.4-0.4c1.8-1,3.8-1.3,5.8-1.3c3.3-0.1,5.8-1.6,7.6-4.4c0.8-1.2,1.2-2.4,1.4-3.8
		c0.3-2.8-0.2-5.6-0.1-8.5c0-2.3,0.2-4.6-0.8-6.9c-0.7-1.7-1.1-3.5-2.2-5c-1-1.3-1.7-2.9-3-3.9c-2.9-2.3-6.2-3.7-10-3.6
		c-1.4,0-2.8,0-4.2,0c-1.3,0-2.3-0.3-3.1-1.3c-0.7-0.9-1.5-1-2.5-0.7c-1.1,0.3-2.3,0.5-3.4-0.4c-1-0.8-2.1-0.8-3.2-0.2
		c-0.9,0.5-1.9,0.7-2.8,0.3c-2.4-1.1-5.1-0.5-7.6-0.9c-1-0.2-1.6,0.3-1.6,1.4c0,0.5,0,1,0,1.4c0,0.3-0.1,0.7,0.3,0.8
		c0.3,0.1,0.4-0.3,0.6-0.4c0.9-0.9,1.8-0.9,2.5,0.1c0.5,0.7,1,0.8,1.7,0.9c1.4,0.1,2.9-0.1,4.1,0.6c1,0.6,1.7,1.3,2.6-0.1
		c0.4-0.6,6.2-0.4,6.7,0.1c1,1.2,2.2,1.2,3.5,1.2c1.2,0,2.4,0,3.7,0c2.1,0,4.3-0.1,6.4,0.2c2.2,0.2,3.7,1.5,5.2,2.9
		c1.3,1.3,2,2.9,2.7,4.4c0.9,2.1,1.9,4.2,1.9,6.7c0,3.8-0.4,7.6-0.1,11.5c0,0.3-0.1,0.7-0.2,1c-1.7,2.8-3.7,5-7.4,4.5
		c-0.3-0.1-0.7,0-1,0c-2.4,0-4.2,1.7-6.5,2.1c0,0-0.1,0-0.1,0.1c-0.9,1.3-2.2,1.4-3.6,1.4c-1.6,0-3.3-0.1-4.7,1.1
		c-0.2,0.2-0.6,0.2-0.9,0.2c-2.7-0.5-5.3,0.5-7.9,0.4c-1.3,0-2.4,0.1-3.3,1.1c-0.9,0.9-2.6,0.8-3.7,0.1c-1.2-0.8-0.8-1.8-0.5-2.8
		s0.2-1.7-0.6-2.3c-1.9-1.5-3.8-3-5.7-4.4c-0.3-0.2-0.6-0.3-1-0.3c-2-0.3-3.4-1.8-5.2-2.3c-0.2-0.1-0.4-0.3-0.5-0.4
		c-0.7-1.8-2.2-3.2-2.3-5.2c-0.1-0.7-0.3-1.2-0.6-1.8c-1.6-3.1,0-6.5,3.4-7.2c0.4-0.1,0.9-0.2,1.2-0.5c1.4-1.4,3.1-1.7,5-1.6
		c1.4,0,2.1-0.7,2-2.1c-0.1-1.6-0.2-3.1-0.5-4.7c-0.4-2.5-2-3.2-4.3-2.1c-0.5,0.2-0.9,0.7-1.4,1c-1.7,1.1-2.9,2.8-4.5,4
		c-2,1.6-4.1,3.1-5.2,5.5c-0.3,0.6-0.9,1.1-1.6,1.3c-0.8,0.3-1.2,0.8-1.3,1.6c-0.2,1.2-0.8,2-2,2.4c-0.5,0.2-1.1,0.4-1.2,0.9
		c-0.7,2.2-1.5,4.4-1.5,6.8c0,0.4,0.2,0.8,0.4,1.2c1.2,2.5,2.7,4.7,4.9,6.4c1.3,1,2.4,2.3,3.1,3.8c0.2,0.3,0.5,0.6,0.8,0.9
		c1.8,1.7,4.1,2.4,6.2,3.4c1.6,0.8,3.3,1.6,4.8,2.6c2,1.4,5.8,1.5,7.7,0c0.5-0.4,1.1-0.6,1.7-0.7c3.7-0.4,7.3-1,10.7-2.4
		C109.8,152.5,111.4,153.3,112.7,154.6z"/>
	<path d="M203.3,73.9c0.1-1.4-1.2-2.7-2.5-2.7c-3.8,0-7.7,0.1-11.5-0.2c-0.8-0.1-1.7,0-2.1,0.8c-0.4,1,0.7,1,1.2,1.3
		c1,0.7,1,1.1-0.1,1.8c-0.2,0.1-0.4,0.2-0.6,0.3c-0.7,0.3-0.9,0.9-0.8,1.6c0.1,0.8,0.7,0.9,1.4,0.9c0.8,0,1.7,0,2.5,0.2
		c0.6,0.1,1.1,0.5,1.2,1.2c0.1,0.7-0.2,1.2-0.8,1.5c-0.8,0.4-1.7,0.9-2.6,0.5c-1.2-0.5-1.8,0.3-2.4,1.1c-0.5,0.6-0.8,1.3-0.4,2
		c0.5,0.8,1.4,0.6,2.1,0.6c4.4-0.2,8.8,0.1,13.1,0.2c1.8,0.1,2.2-0.3,2.3-2.1C203.5,79.9,203,76.9,203.3,73.9z"/>
	<path d="M101.1,121.9c0.1-0.7,0.7-1.4,0.1-2c-0.6-0.5-1.5-0.4-2.3-0.2c-0.3,0.1-0.6,0.3-1,0.4c-0.4,0.2-0.7,0.2-1.1,0.1
		c-0.5-0.2-1.1-0.5-1.3,0.4c-0.1,0.7,0.3,1.1,1,1.3c2.3,0.6,2.3,0.6,2.3,3c0,0.4,0,0.8,0,1.2c0.1,1.6,0.4,2,2,1.9
		c1.7-0.1,3.2,0.3,4.3,1.5c1,1.1,2.1,2.5,2.4,3.9c0.4,1.8,0.1,3.8-0.5,5.6c-0.3,0.9-1.7,1.5-2.6,1.1c-1.1-0.5-1-1.4-0.7-2.3
		c0.1-0.3,0.2-0.7,0.4-0.9c0.5-0.9,0.3-1.4-0.7-1.5c-1.2-0.1-2.4-0.2-3.6-0.3c-1.5-0.1-1.9-0.6-1.8-2.1c0.1-0.9,0.5-1.6,1-2.2
		c0.5-0.6,0.2-1.1-0.2-1.6c-0.3-0.4-0.6-0.9-1.2-0.6c-0.7,0.3-0.6,0.9-0.5,1.5c0.1,1.2,0.1,2.3,0,3.5c-0.1,1.4,0,2.9,0.1,4.3
		c0,0.8,0.3,1.4,1.1,1.7c1.4,0.6,1.9,1.8,1.8,3.2c0,1.7,0.2,2,1.8,2c1.1,0,2.1-0.3,3-1.1c1-0.9,1.9-1.9,3.3-2.3
		c1.6-0.6,1.8-1.2,1.9-2.8c0.1-2.1-1.1-4-0.4-6.1c0.1-0.2-0.2-0.5-0.3-0.7c-0.6-0.6-0.8-1.4-0.7-2.2c0.2-2.6-2.2-2.9-3.6-4.1
		c-0.7-0.7-1.4,0.1-2,0.2c-0.8,0.2-1.7,0.4-2.3-0.4c-0.6-0.8-0.4-1.6,0.1-2.4C100.9,122.5,101.1,122.2,101.1,121.9z"/>
	<path d="M194.9,101.3c-0.3,0.9,0.2,1,0.8,1c1.6,0,3.1,0,4.7,0c1.1,0,1.5-0.5,1.5-1.5c-0.3-3.2,0.1-6.4,0-9.6c0-1.2-0.4-1.8-1.7-1.8
		c-1.9,0-2.5,0.3-2.6,1.7c-0.1,0.8-0.3,1.6-1.2,1.8c-2,0.4-3.5,2.1-5.6,2.3c0.1,0,0.2,0.1,0.4,0.1
		C194.7,95.6,196.1,97.8,194.9,101.3z"/>
	<path d="M193.8,167.9c2.5,0.4,3.6,1.6,3.8,4.1c0.1,0.9,0.1,1.7,0.2,2.6c0,0.8,0.1,1.6,1.2,1.6c1,0,1.2-0.7,1.2-1.5
		c0-1.3,0-2.7,0.2-4c0.1-0.8-0.1-1.5-0.9-1.9c-0.7-0.4-0.9-1.1-0.9-1.9c0-2.3-0.5-4.6,0-6.7c0-0.6,0-1-0.1-1.4c0-0.3-0.1-0.7-0.1-1
		c-0.2-1.1-1-1.7-2.1-1.3c-1.3,0.4-2.2,1.2-2.7,2.6c-0.8,2.4-1.1,4.8-1,7.3C192.4,167.3,192.7,167.8,193.8,167.9z"/>
	<path d="M92.4,101.4c0.8,0.3,1.5-0.3,2-1c0.1-0.1,0.1-0.1,0.1-0.2c0.5-0.8,1.1-1.2,2-1.2c1.1,0,1.5-0.8,1.4-1.8
		c0-0.8-0.2-1.5-0.6-2.1c-0.6-0.8-1.1-1.6-1.3-2.7c-0.1-0.7-0.7-1-1.4-1c-0.7,0-0.9,0.5-1,1.1s-0.1,1.1-0.2,1.7c0,0.5,0,1.2-0.4,1.3
		c-2.1,0.8-1.8,2.2-1.2,3.9C91.8,100.2,91.5,101.1,92.4,101.4z"/>
	<path d="M139.7,181.4c0.8,0,1.8,0,2.8,0C141.4,181.3,140.5,181.3,139.7,181.4z"/>
	<path d="M174.1,180.9c-0.9,0.1-1.8-0.1-2.7-0.3c-0.8-0.2-1.6-0.4-2.4-0.1c-1,0.4-2.1,0.4-3.1,0.2c-3.2-0.6-6.3-0.4-9.6-0.3
		c-5.1,0.1-10.1,0.8-13.9,0.9c3.6,0.2,8.4,1.1,13.2,0.6c3.3-0.3,6.7-0.2,10-0.2c2.8,0,5.6,0,8.3-0.1c0.3,0,0.8,0.1,0.9-0.4
		C175,180.8,174.5,180.9,174.1,180.9z"/>
	<path d="M122.9,70c-1.9-0.1-3.9-0.1-5.8-0.9c-0.7-0.3-1.5-0.5-2.3-0.6c-2.1-0.2-2.5,0.1-2.6,2.3c0,2.4,0.9,2.9,3.2,2.4
		c2.5-0.6,4.8-2.1,7.5-2.1c0.4,0,1,0,1-0.5C124,69.9,123.3,70,122.9,70z"/>
	<path d="M200.4,181.8c0.5,0,1.2,0.2,1.2-0.6c0-0.6-0.7-0.8-1.2-0.8c-0.6,0-1.3,0.1-1.9,0.1c-1.6,0-3.3,0.4-4.9-0.4
		c-0.9-0.5-1.6-0.5-2.4,0c-1.1,0.7-2.3,0.8-3.4-0.1c-0.5-0.4-1-0.4-1.6-0.4c-2.2-0.1-3.9,1.2-6.1,1.6c0.5,0.6,0.9,0.6,1.3,0.6
		c1.8,0,3.6,0,5.4,0C191.3,181.8,195.9,181.8,200.4,181.8z"/>
	<path d="M201.1,107.1c-2.8,0.1-5.9-1.2-8.3,1.5c-0.2,0.2-0.5,0.2-0.5,0.6c0.1,0.3,0.4,0.3,0.6,0.3c1.4,0.3,2.9,0.2,4.3,0.1
		c1.2,0,2.3,0,3.5,0c0.7,0,1.1-0.4,1.1-1.2C201.9,107.8,201.8,107.1,201.1,107.1z"/>
	<path d="M86.5,130.6c-0.5,0.5-1,1.1-0.6,1.8c0.5,0.8,0.7,1.9,2,2c0.7-0.1,1.2-0.4,0.7-1.1c-0.5-0.8-0.9-1.5-1-2.5
		C87.5,130.3,87,130.1,86.5,130.6z"/>
	<path d="M91.9,136.2c0,0.4-0.1,0.9,0.4,1s0.5-0.5,0.5-0.9c0.1-0.7,0.2-1.4,0.3-2c0.1-0.6,0.1-1.2-0.2-1.8c-0.1-0.3-0.3-0.5-0.6-0.4
		c-0.3,0-0.5,0.3-0.5,0.5c-0.1,0.6-0.1,1.3-0.1,1.9l0,0C91.9,135.1,91.9,135.6,91.9,136.2z"/>
	<path d="M181.9,82.8c-0.7,0.2-1,0.9-1.4,1.5c-0.2,0.3,0.2,0.5,0.5,0.5c0.8,0.1,1.2-0.3,1.3-1.1C182.4,83.3,182.4,82.6,181.9,82.8z"
		/>
	<path d="M201.2,185.7c-0.9-0.7-1.9-0.8-3-0.6c-2.2,0.3-4.3,0.4-6.5,0c-2.1-0.4-4.1,0.4-6.1,1.3c0.5,0.5,0.8,0.4,1.2,0.4
		c4.4,0.6,8.8-0.2,13.3,0.2c0.3,0,0.5,0,0.8-0.1c0.4-0.1,0.9,0,1-0.5C201.9,186.1,201.5,185.9,201.2,185.7z"/>
	<path d="M191.7,174.5c0.3,0,0.7,0,0.8-0.4c-0.1-0.5-0.4-0.5-0.8-0.5c-0.3,0-0.7,0.1-0.7,0.4C191.1,174.5,191.4,174.5,191.7,174.5z"
		/>
</g>
</svg>
