<?xml version="1.0" encoding="utf-8"?>
<!-- Generator: Adobe Illustrator 26.2.1, SVG Export Plug-In . SVG Version: 6.00 Build 0)  -->
<svg version="1.1" id="Calque_1" xmlns="http://www.w3.org/2000/svg" xmlns:xlink="http://www.w3.org/1999/xlink" x="0px" y="0px"
	 viewBox="0 0 256 256" style="enable-background:new 0 0 256 256;" xml:space="preserve">
<style type="text/css">
	.st0{fill:#FFFFFF;}
	.st1{fill:#1B74E4;}
</style>
<path class="st0" d="M116,169c-4.4-54,21.9-42.4-36.8-43.4c-11.4-0.5-7.6-14-6.1-21.7c2.3-13,19.9-10.3,29.9-10.8
	c16.9-0.8,2.1-30.8,15.2-38.8c4.5-4.2,11.5-2.5,16.4-6.3c17.9,1.2,79.3-7.9,53.7,24.2c-13.8,6.3-49.6-10.4-43.6,14.9
	c-2.1,21.2,28,0.8,39.4,3.2c4.7-0.4,4.5,38.6-0.7,38.8c-12.1,0.5-24.2-0.1-36.2-0.8c-3.4,2.6-2.5,9.1-4.4,13
	c-10.5,23.4,8.3,43.8,6.1,66.9C106.3,219.4,117.3,199.8,116,169z"/>
<path class="st1" d="M221,169c3.8-28.7,1.6-59.7,3.9-89.7c0.3-21.8-6.5-51-33.8-49.7c-19.9-0.3-40.7,2.3-57.7-4.9
	C101.8,36.6,67.6,35.1,33.4,34.9c-14.8,2.1,5.8,10,5.8,13.2c-1,9.2,2.1,19.9-1.5,28.4c-3.6,3.2-4.9,7.7-4.5,12.4
	c3.2,5.4,7.3-1.9,6.1,9.6c2.8,17.1-6.7,135.4,10.7,129.7c48.6-1.4,98.5,4.2,146.6-1.4C229.7,231.4,231.7,192.8,221,169z M193,63.8
	c-2.6,21.6-39.2,0.3-48.2,12.9c-5.1,31.2,13.7,17,32.4,14.1c17.5-5.2,7,24.8,9.1,35.7c-9.2,7.1-27.3,0.7-39.1,1.8
	c-7.8,13.9-8.1,31.9-5.4,47.7c4.6,10.6,9,19.8,7.1,32.2c-42.5,11.3-31.6-8.3-32.9-39.1c0-16.9-1.2-31.1,3-43.1
	c-15.4-4.4-52.3,10.8-47.3-15.4c-0.6-19.1,20.6-18.2,34.6-17.1c8.4-5.4,4.1-20.7,6.3-29.7c2.7-13,12.8-11,22-15.8
	C150.1,51,199.2,38.2,193,63.8z"/>
</svg>
