<?xml version="1.0" encoding="utf-8"?>
<!-- Generator: Adobe Illustrator 26.2.1, SVG Export Plug-In . SVG Version: 6.00 Build 0)  -->
<svg version="1.1" id="Calque_1" xmlns="http://www.w3.org/2000/svg" xmlns:xlink="http://www.w3.org/1999/xlink" x="0px" y="0px"
	 viewBox="0 0 256 256" style="enable-background:new 0 0 256 256;" xml:space="preserve">
<style type="text/css">
	.st0{fill:#4565CA;}
	.st1{fill:#FEFEFE;}
	.st2{fill:#FFDB55;}
	.st3{fill:#973CB4;}
	.st4{fill:#F54F52;}
</style>
<path class="st0" d="M72.9,47.2c1.7-4.1,5.2-4.2,8.9-4.1c13.7,0.2,27.4-0.8,40.8,4.6c11.5,4.6,24.3,1.4,36.5,2.1
	c3.1,0.2,6.6-1.2,9.4,1.5c-7.6,1.8-13.9,6.4-21.1,9.2c-5.6,2.2-7.6,6.5-6.8,12.4c-16.4,2.5-32.8,6.7-49.4,0.8
	c-6.2-8.7-20.5-12.9-26.6-7c-3.9,3.7-6.9,3.4-10.7,1.2c-1.5-5,1.9-8,4.6-11.3c6.6,0.5,12.3-2.7,19.6-4.3
	C75.1,50.9,73.7,49.3,72.9,47.2z"/>
<path class="st1" d="M55.4,132.3c0-2.8,0-5.6-0.1-8.4c7.1,1,11.5,0.1,12.3-9.1c1.3-13.6,2.7-27.7,15-37.3c2.7-2.1,5.1-3.9,8.6-3.9
	c16.6,5.9,33,1.7,49.4-0.8c13.3,0.9,26.7,1.7,38.1,10.1c6.8,5.6,7,13.1,7.6,21.3c1.3,17.1-3.9,33.6-3.7,50.5c0.1,4,0.4,7.9-0.1,12.1
	c-1.5,13.3-10.8,19.5-20.7,25.5c-14.4,2.7-28.7,1.4-43.1-0.3c-12.8-1.6-25.6-5.1-38.7-1.8c-4.2,1.1-7.6-0.7-9.9-4.2
	c-5.2-7.8-8.7-15.9-7.8-25.8c0.8-8.1,0.7-16.4,0.7-24.5C63.2,129.3,58.3,132.8,55.4,132.3z M82.9,124.1c-7.6,8.9-5,20.2-7.2,30.4
	c-1.1,5.1,0,10.3,1.6,15.3c1,3.3,2.7,6.3,6.7,6c11-0.7,22.3,2.7,33-2.1c1.9,7.5,8.1,4.7,12.8,5.1c2.5,0.2,4.6,0.2,7.2,0.9
	c12.3,3.4,32.2-0.3,32-18.9c-0.2-18.7,4.6-36.8,4-55.4c-0.3-8.6-3.9-12.6-11.4-15.5c-12.7-4.7-25.3-2-37.9-0.9
	c-8.7,1.7-17.5,1.1-26.2,0.6c-7.3-0.4-10,2.8-12.5,8.9C81.4,107,82,115.4,82.9,124.1z"/>
<g>
	<g>
		<path class="st2" d="M162,192.3c3.9,6.9,11.5,4.1,19,6.7c-7.9,2.1-16,3-11,13c-1.9,0.2-4.5-0.3-5.6,0.7c-8.8,8-18,2.7-26.9,0.9
			c-3.9-0.8-7.5-0.8-11.3-0.4c-21.1,2-42.1-0.2-63.2-0.6c-8.4-0.1-16.8-12.1-17.6-22.6c7.9-1.9,5.7-8.7,4.5-12.6
			c-5.1-16.1,1.3-30.3,5.7-45c2.9,0.5,7.7-3,7.8,3.4c0.1,8.2,0.1,16.4-0.7,24.5c-1,9.8,2.6,18,7.8,25.8c2.3,3.4,5.7,5.2,9.9,4.2
			c13.1-3.3,25.9,0.2,38.7,1.8C133.3,193.7,147.6,195,162,192.3z"/>
		<path class="st2" d="M113.2,158.1c8.4,5.9,8.9,8,3.8,15.6c-10.7,4.8-22,1.4-33,2.1c-4,0.3-5.7-2.7-6.7-6c-1.6-5-2.7-10.3-1.6-15.3
			c2.2-10.2-0.4-21.5,7.2-30.4c3.6,3.9,4.4,9.8,9.5,12.4C93.9,148.9,100,156.9,113.2,158.1z"/>
	</g>
</g>
<g>
	<g>
		<path class="st3" d="M140.6,72.8c-0.8-5.8,1.2-10.2,6.8-12.4c7.2-2.8,13.5-7.4,21.1-9.2c9.9-2.5,20.1-1.4,30.1-1.4
			c4.9,0,8.9,2.4,11.4,6.8c-5.1,8.7-5.5,17.6,0.3,28c-11.3-1.8-21.4-2.5-31.6-1.7C167.4,74.5,154,73.7,140.6,72.8z"/>
		<path class="st3" d="M53.9,67.8c3.9,2.2,6.9,2.4,10.7-1.2c6.2-5.8,20.4-1.6,26.6,7c-3.5,0-5.9,1.8-8.6,3.9
			c-12.3,9.6-13.7,23.7-15,37.3c-0.8,9.2-5.3,10.1-12.3,9.1c-2.1-3.6-4.9-6.5-8.8-8.2c-3.1-6.8-1.9-12.6,1.2-19.6
			C51.6,87.4,52,77.3,53.9,67.8z"/>
		<path class="st3" d="M72.9,47.2c0.7,2.1,2.1,3.7,5.2,4.9C70.7,53.8,65,57,58.5,56.5C60.2,48.6,67.2,48.9,72.9,47.2z"/>
		<path class="st3" d="M92.4,136.5c-5.1-2.7-5.9-8.6-9.5-12.4C82,115.4,81.4,107,85,98.5c2.5-6.1,5.2-9.3,12.5-8.9
			c8.7,0.5,17.5,1.1,26.2-0.6c4.5,5.9,3.2,11-3.1,14c-4.5,2.2-5.7,6.3-8.2,9.7c-15.2,2.5-16.4,3.8-18.3,20.2
			C93.9,134.2,93,135.3,92.4,136.5z"/>
	</g>
</g>
<path class="st1" d="M92.4,136.5c0.6-1.2,1.5-2.4,1.6-3.6c2-16.4,3.2-17.7,18.3-20.2c9.6,1.3,19.9,1.4,27.2,9.2
	c6.9,7.4,4.7,16.7,2.3,24.8c-2.2,7.3-8.2,12-17.1,11c-3.8-0.4-7.6,0.2-11.5,0.3C100,156.9,93.9,148.9,92.4,136.5z M118.1,144.5
	c9.4,0.1,13.7-4,11.9-10.3c-1.4-5-7-4.1-10.4-6.4c-3.1-2.1-7.4-3.1-10.5,0c-2.9,2.9-2.9,7.3-1.8,10.8
	C109.1,144.4,114.6,144.2,118.1,144.5z"/>
<path class="st1" d="M154,104.7c0.3,3-1.6,4.5-5.3,4.3c-3.9-0.2-6.2-2-6.1-5.9c0.1-3.4,2.3-5.5,5.7-5.6
	C152.1,97.6,153.9,100,154,104.7z"/>
<g>
	<g>
		<path class="st4" d="M210.1,56.6c3.4,0.1,4.9,1.9,4.8,5.2c0,2.2,0,4.4,0,6.6c-0.5,20.4,2.6,40.6,1.8,61.1
			c-0.5,11.7-3.3,23-5.1,34.5c-1.7,11.3-4.3,22.2-9.2,32.5c-2,4.2-3.9,8.5-6.8,12c-7.3,8.7-16.7,5.5-25.7,3.6c-5-10,3.1-10.9,11-13
			c-7.5-2.6-15.1,0.2-19-6.7c9.9-6,19.1-12.2,20.7-25.5c0.5-4.2,0.1-8.1,0.1-12.1c-0.2-16.9,5-33.4,3.7-50.5
			c-0.6-8.2-0.8-15.7-7.6-21.3c10.2-0.8,20.4-0.1,31.6,1.7C204.6,74.2,205,65.3,210.1,56.6z"/>
		<path class="st4" d="M46.6,115.7c3.8,1.8,6.6,4.7,8.8,8.2c0,2.8,0,5.6,0.1,8.4c-4.3,14.7-10.7,28.9-5.7,45
			c1.2,3.9,3.5,10.7-4.5,12.6c-2.5-1.3-3.4-3.3-3.3-6c0.8-17.1,0.9-34.2,4.1-51.1C47.3,127,46.8,121.4,46.6,115.7z"/>
		<path class="st4" d="M123.7,89c12.7-1.1,25.3-3.9,37.9,0.9c7.6,2.8,11.2,6.8,11.4,15.5c0.6,18.7-4.3,36.7-4,55.4
			c0.2,18.6-19.7,22.3-32,18.9c-2.6-0.7-4.7-0.7-7.2-0.9c-4.7-0.4-10.9,2.4-12.8-5.1c5.2-7.6,4.6-9.8-3.8-15.6
			c3.8-0.1,7.7-0.7,11.5-0.3c8.9,1,14.8-3.7,17.1-11c2.5-8.1,4.6-17.4-2.3-24.8c-7.2-7.8-17.5-7.9-27.2-9.2c2.5-3.4,3.7-7.6,8.2-9.7
			C126.9,100,128.2,94.9,123.7,89z M154,104.7c-0.1-4.7-1.9-7.2-5.8-7.1c-3.4,0-5.6,2.2-5.7,5.6c-0.1,3.9,2.3,5.7,6.1,5.9
			C152.4,109.2,154.3,107.7,154,104.7z"/>
		<path class="st4" d="M118.1,144.5c-3.5-0.3-9-0.1-10.8-5.9c-1.1-3.5-1.1-7.9,1.8-10.8c3.1-3.1,7.4-2.1,10.5,0
			c3.4,2.3,9,1.4,10.4,6.4C131.8,140.5,127.4,144.6,118.1,144.5z"/>
	</g>
</g>
</svg>
