<?xml version="1.0" encoding="utf-8"?>
<!-- Generator: Adobe Illustrator 26.2.1, SVG Export Plug-In . SVG Version: 6.00 Build 0)  -->
<svg version="1.1" id="Calque_1" xmlns="http://www.w3.org/2000/svg" xmlns:xlink="http://www.w3.org/1999/xlink" x="0px" y="0px"
	 viewBox="0 0 256 256" style="enable-background:new 0 0 256 256;" xml:space="preserve">
<style type="text/css">
	.st0{fill:#F7D038;}
</style>
<g>
	<path class="st0" d="M181.8,225.7c-12.4-21.1-35.2-31.5-53.4-45.3c-4.4-8.6,2.9-18,6.4-26.1c7.1-1.1,15.3,0,22.6,0
		c7.5-1.5,12.8-11.9,16.6-18c3.1-4.5-1-16.5-6.6-9.6c-5.4,10.9-11.3,20.8-24.8,17.9c22-11.5,30.4-43.4,6.2-57.3
		c-18.3-4.3-46.9,0.4-50.2,22c4.3,13.4,9.3,40.2,28.3,35.4C99.7,165,88.7,126.4,72,132c-5.6,3.1,0.3,9,5.3,8.6
		c7,16.5,28.2,20.5,44.4,17.2c0.6,4.6-4.9,7.2-3.4,13.6c0.1,0.4,0.1,1-1.3,1.8c-5.7,3-4.6,10-6.5,15.1c-1,6-4.2,10.6-7.1,15.6
		c-3.9,6.4-0.9,16-4.9,21.8c-13.7-15.7-20.6,35.5,5.2,11.4c7-11.8,6.3-26.3,13.6-38.3c3.2-11.4,7.9-6.3,15.3-2.2
		c14.4,8.3,32.3,17.5,38,33.6C172,240.9,190.5,235.2,181.8,225.7z"/>
	<path class="st0" d="M205.8,48.8c-8.3-6.6-18.8,21.6-18.6,10.7c3.5-9.9-2.5-25.4-8.7-8.9c-3.9-4.4-3.5-16.5-11.1-13.8
		c-8.9,0.1,2.3-12.2,5-14.7c3-15-14.1-4.3-15.4,4.4c-3.2,6-9.9,2.8-15.1,2.9c-3.2-3.4,0.9-16.2-6.1-16.6c-7,0.9-3,13.1-4.5,17.6
		c-8.7,0.1-14.9,7.3-23.4,9.9c-7.2,0.8-12.4-23.3-18.5-9.1c-1.7,7.4,15.2,13.5,6.9,18.7c-4,4.2-8.5,5.2-14.1,3.6
		c-3.5-3.9-3.9-15.2-10.5-6.6C69.1,54.5,73,61.1,81,62.7c-6.8,17.6-30.8,1.1-31.2,14.5c1,3.2,4,3.4,5.2,3.4
		c26.6-3.1,5.8,10.3,9.6,25.5c-1.7,5.1,5.2,15.7,11.2,8.5c1.8-5.2-6.6-14.8-0.1-21.2c6.7-13.2,5.6-13.4,15.7-2.9
		c11.2,12.5,13.6-4.3,3-10.2c-0.1-4-9.1-7.3-5.8-11c5.4-3.5,8.5-9.1,14.5-12.5c5.9-6.4,12.4,8.8,16.7,1.6c2.2-4.4-3.2-7.6-3.9-10.7
		c7.6-2.1,13.3-12,18.8-2.9c3.7,1.4,6.4,0.2,6.4-4.3c0.1-2.2,4.7-0.8,6.1-1.7c24.7,1.3,6.6,25.8,13.4,40.6
		c12.4,8.5,5.1-17.2,9.8-22.9c2.4,9.5,0.7,19-1,27.7c4.5,9.1,14.7,20.2,16.9,1.7C184.8,69.7,212.1,63.3,205.8,48.8z"/>
</g>
</svg>
