<?xml version="1.0" encoding="utf-8"?>
<!-- Generator: Adobe Illustrator 26.2.1, SVG Export Plug-In . SVG Version: 6.00 Build 0)  -->
<svg version="1.1" id="Calque_1" xmlns="http://www.w3.org/2000/svg" xmlns:xlink="http://www.w3.org/1999/xlink" x="0px" y="0px"
	 viewBox="0 0 256 256" style="enable-background:new 0 0 256 256;" xml:space="preserve">
<style type="text/css">
	.st0{fill:#0F81C7;}
	.st1{fill:#F7F7F7;}
</style>
<path class="st0" d="M46.8,150.4c12.2-0.8,22.8,3.6,34.4,6.2c6.8,2.6,9.5-7.9,13.3-11.9c9.9-9.5,37-1.4,49.2,0.9
	c9.2,0.9,17.2,3.8,24.3,9.5c5.7-3.3-12.1-15.5-16.6-15.2c-6.7,0.4-12.3-2.7-18.1-4.8c-6.3,1.2-11.5-2-17.3-2.2
	c-44.5-4.3-21.4,11.7-43.7,14.4c-5.4-1.6-11.3-2.1-16.2-4.6c-8.4-2-21.9,3.2-27.7-2.4c-2.2-35.1,1.7-87.3,45.3-90.9
	c3.2,1.3,3.4-3.7,6.2-2.2c11.5,3.5,24.6,2,36.6,5.1c14.2,5,30.3,4.2,42.6,14.4c10.1,7,21.8,7.7,32,14.4c9.2,10.1,22.4,13.8,30.1,25
	c10.3,33.2,10.3,87.2-25.7,105.3c-39.1,5.8-79.3,3.2-116-7.3c-15.9-7.1-24.9-22.8-35.2-36.4C37.2,156,22.7,148.5,46.8,150.4z
	 M83.2,90.6c-28,0.5-2,8.9,9.4,8.4c9.6,5.6,20.2,8.8,30.7,12.6c6.4,5.4,6.1-6.4,12.4-5.9c10.4,0.3,21.2-1.4,30.7,2.5
	c3.8-3.9-9.6-10.5-13.5-10.5c-11.5,1.3-25.6-3.6-33.5,5.8C106.4,103.3,95.1,92.4,83.2,90.6z"/>
<path class="st1" d="M169.5,152.8c-6.1-8.6-14.8-13.5-25-13.6c-16.1-6.7-34.2-6.4-52.2-6.3c-9.3,0.7-9.2,18-19.9,14.5
	c-10.6-2.3-51.7-14.2-39.2,5.2c3.1-4.4,22.2-2.4,28.1-0.9c5.7,0.8,23.3,8.6,26.3,3.1c7-16.4,19.3-14.3,34.7-13.8
	c5.5,3.1,11.8,0.5,16.9,3.5c5.3,1.5,11.1,3,16.7,3.4C159.2,147,170.4,160.3,169.5,152.8z"/>
<path class="st1" d="M167.6,106.5c-9-12-34-12-45.4-5.3c-1.5,3.5-6.7,2.6-9,0.9c-14.6-2.5-27.9-16.7-42.6-9.9
	c3.6,9,14.9,4.2,22.1,6.8c9.6,5.6,20.2,8.8,30.7,12.6c6.4,5.4,6.1-6.4,12.4-5.9c8.9,0.9,19.1-2.1,27.3,1.6
	C164.1,108.3,168.2,109,167.6,106.5z M153.9,103.3c0.3,0,0.6-0.1,0.9-0.1C154.5,103.3,154.2,103.3,153.9,103.3z"/>
</svg>
