<?xml version="1.0" encoding="utf-8"?>
<!-- Generator: Adobe Illustrator 26.2.1, SVG Export Plug-In . SVG Version: 6.00 Build 0)  -->
<svg version="1.1" id="Calque_1" xmlns="http://www.w3.org/2000/svg" xmlns:xlink="http://www.w3.org/1999/xlink" x="0px" y="0px"
	 viewBox="0 0 256 256" style="enable-background:new 0 0 256 256;" xml:space="preserve">
<style type="text/css">
	.st0{fill:#FDFDFD;}
	.st1{fill:#C9C9C9;}
	.st2{fill:#FF2116;}
</style>
<path class="st0" d="M173.6,34.8c9.2,0.7,8.2-1.2-0.4,0C173.4,34.8,173.5,34.8,173.6,34.8z"/>
<path class="st0" d="M158.6,36.1c-10.3,3.1-26.7-1.3-36.6,2.7c12.7-1.1,34.5,12.1,40.4-3.2C161.3,35.9,159.2,35.5,158.6,36.1z"/>
<path class="st0" d="M91.3,96.1c6.2,0.7,18.3-4,20.6,4.2c0.3,2.1,3.4-0.8,4.7,1.5c2.1,0.6,4.8,4.7,6.2,1.6c2.2-3,2,1.9,4.4,1.7
	c4.2,0.1,1.6,5.1,3.7,7.6c3.9,2,15.2,3.1,7.3,9.7c-1.3,0.6-0.7,1-0.1,1.6c11.9,12.8-7.1,19.3,16.8,27.4c8.6,7,9-1.4,9.1-8.6
	c-0.1-7.2,9.8-18.6,16.7-9.7c5.6,10.3,5.4,36.3-11,34.4c-3.3,3-6.5,8-11.5,9c-10.2,5.5-25.4,1-35.2,7.2c-4.6,6.6,1.3,5.7-2.4,12.1
	c0.5,9.8-22.3,11-23.2,2.7c-4.1-4.6-4.2-14.1,0.7-18.5c0.9-3.5,8.3-1.9,7.3-4.3c-7.3-6.2-6-19.8,0.1-26.7
	c1.6-4.7,18.6-6.9,12.3-11.7c-3.5-0.6-1.2-4.5-3.5-6c-2.9-1.1,0-5.6-3.3-5.6c-15.7,1-35.7-3.4-47.3,1.6
	c3.2,30.7-4.1,78.8,13.4,102.2c26.8,0.5,55.4,0,83.4,1.4c2.1-2.3,4.8,1,6.3-0.6c2.4-1.8,0-19.8,2.9-14c3.9,6.3,3.8-4.1,3.7-6.8
	c1.7-3.1,2.7-6.3,3.3-9.8c8-26.8,15-50.6,18.2-78.9c2.7-3.9,2.2-8.6,5-12.7c0.5-3.9,7.5-4.7,5.2-9c-3.3-0.5-6.1-0.5-7.6-4.2
	c-17.6-16.3-12.6-16.5-17.6,1.6c-5.1-3.6-13.6-6.9-14.2-13.6c-0.4-5.7-7.7-4-11.6-5.6c-5.4-8-8.6-20-16.3-27.7
	c-8.1-7.3-27-2.4-38-8.4c-8.9,1.1-34.6-12.6-37.4-6.4c-1.2,4.9-3.6,64.8-8.3,52.7C51.2,104.3,79.9,93,91.3,96.1z"/>
<path class="st1" d="M216.8,91.1c-0.5-13.1-5.7-25.5-6.3-38c1.2-4.6,7.3-11.2,1-14.5c-2.9-1.9-5.6,2-8.1,0.8
	c-8-12.2-11-19.1-23.1-4.5c-27.3-4.5-13.7,12.5-33.8,7.2c-4.5-2.9-30.9-0.1-21.6-5.8c-21-0.8-43-3.1-62.3-12.7
	c-14.1-5-9.5,58.1-7.5,66.8c5.4-12.6,3.9-27.2,5.4-41c3.1-4.4-1.7-18.2,5.6-16.9c21.3,7.6,44.4,12.3,67.1,14.1
	c7.2,1.8,15.5,18.9,18.1,26.4c-0.4,8.5,13.8,2,14.3,9.9c0.2,4.2,1.2,5.6,5.2,7c19.3,19,4-7.6,14.3-6.3c7.4,4.5,11.5,14.6,19.9,15.5
	c2,4.5-5.6,6.1-6.1,10.7c-7.1,17.2-6.8,38.7-12.4,55.9c-5.8,5.4-3.4,18-7,25.9c-2.3,5.9-3.5,12.3-6.3,18c-0.6,2.8,1,7.1-1.7,8.9
	c-7.2-10.4-1.4,7.2-5,11.8c-15.3,1.8-33.3-0.2-49.6-1.2c-13.8-2.8-27.1,4.8-40.1,0.4C57.6,205.3,69.3,149.6,62,122
	c-0.6-0.5,0.2-0.6,0-1c0.3-3.2,2.3-14.1-4.1-15c-4.9-1.7-7.5-10.1-14.3-4.8c-4.5,1.3-8.2,10.9-11.3,5.7c-8.3-13.1,16.2-8.1,23-9.3
	c-8.1-5.3-39.5-1.7-24.4,12.5c2,1.8-3.4,3-1,5.6c0.5,0.7,0.3,1.2-0.7,1.3c-25.5,13.2,25.2,4.1,26.1,11c6.8,20.3,1,45.2,5,67.5
	c2.6,9.4-2.1,17.8,4.9,24.4c-0.2,6.4-0.4,12.9,4.9,17.5c29.9-1.9,59.3-0.6,89.3-0.6c10.5,2,19.1,1,17-11.8
	c1.4-5.3,2.9-10.7,3.9-16.4c9.6-30.2,18.9-60.7,23-92.5C206.8,107.9,215.6,100.2,216.8,91.1z M161.7,69.5
	c-3.7,9.5-12.5-17.5-16.4-20.3c-2.1-1.6,0.7-1.6,1.6-1.8C160.4,47.5,160.8,58.8,161.7,69.5z M191.6,35c2.2-1.4,4.1,4.4,2,5.3
	C191.4,41.4,188.3,35.1,191.6,35z M195.3,76.2c-0.2,7.6-9,2.8-6.7-2.8C190.4,67.6,196.2,71.6,195.3,76.2z M43.3,104.5
	c3-0.1,5.5-5.7,7-0.5C52.2,106.2,40.1,105.9,43.3,104.5z M46.4,112.2c-2.9-0.3-1.7-5.2,0.2-5.1C48.7,108.1,50.5,112.2,46.4,112.2z
	 M48.6,116.4c-0.8,0.9-1.5,0.6-2.6,0.4C47,116.1,47.6,116.4,48.6,116.4z M55,123.3c-4.8,0.7-41.2,2.9-25.1-5c4.5,0.1,0.8-8.5,6.3-6
	c4.4,2.9,8.5,7.8,14.1,8.2C51.7,120.9,57.5,121.9,55,123.3z M55.9,112.9c-1.2,1.7,2.1,5.1-1.8,4.8c-6.1,0-2.6-1.3-2.1-5
	C48.9,104.7,59.5,107.1,55.9,112.9z M208.1,89.2c-3.9-3.1-0.9-12.7-0.3-17.3C208.7,76.2,211.3,85.8,208.1,89.2z"/>
<path class="st0" d="M62.6,97.7c16.7,2,38.2-5.5,50.6,5.6c4.4,3.2,13.1,1.7,15,5.4c-3.7,10.1,15.2,6.3,7.4,12.6
	c-11.5,0.4,10.1,7,4.6,19.6c-1.7,2.7-1.2,5.3,2,6.6c6.9,0.4,17.5,14.1,22.2,7.7c3.8-49.5,32.6-3,8.3,8.6
	c-20.6,16.1-25.5,12-50.3,16.9c-7.9,8.4,3.1,25.3-21.6,20.6c-18.8-28.8,24.8-14.5,12-46.8c-5.2,0.7-4.5,10.6-4.1,15
	c-5.7,9.7-5.8-8.1-5.1-12.1c0.8-17.4,32.5-9.7,13.7-23.5c-4.9-18.4-35.7-6.8-51.9-9.9c-2.6,0-2.8-0.5-3.1-2.9c0,2.1,1.3,5.4,1.3,8.1
	c2.6-9.3,35.2-1.7,47.2-3.6c3.2,0,0.4,4.6,3.3,5.6c0.9,0.5,1,1.1,1.1,2c-1,3.8,4.2,3.2,3.7,6.2c-2.6,5.5-10.3,3.8-13.6,9.5
	c-5.5,5.9-6.4,16.9-3.1,23.7c0.9,0.8,5,4.1,2.5,4.2c-13.4-0.1-13.4,24.2-2.6,26.2c6.6,0,17.9,2.4,18.4-7.3c3.7-6.4-2.3-5.4,2.4-12.1
	c11.1-7,29.4-0.5,39.5-9.7c10.8-11.4,15.6-2.9,17.9-11.8c6.2-8,5.2-40.3-10.7-30c-14.7,16.4,5.4,32.1-27,12.9
	c-3.1-5.9,3.1-15.3-4.2-20.5c-3-2.2,3.9-3.3,2-7c-0.8-2.9-4.5-3.7-7.2-3.4c-6-1.9-0.7-8-8.1-10.3c-1.4-3.6-2.6,1.5-4.2,1.1
	c-2.1-1.8-5.3-4.6-8-3.7c-0.8,0.4-1,0-1.1-0.8c-0.1-3.1-2.4-3.9-5-4.5C97.9,95.7,41.9,95.6,62.6,97.7z M112.2,155.9
	c0.5,3.4,0.7,6.7-0.2,10C110.7,162.6,111.5,159.2,112.2,155.9z"/>
<path class="st1" d="M153.3,35.3c13.6,0.7-5,3.3-8,0.8C147.3,35.1,151.2,35.3,153.3,35.3z"/>
<path class="st0" d="M147,47.4c14.4-2.3,18.5,26.3,11.5,23.8c-4.7-3.9-4.9-11.9-9.9-16.4C147.9,52.1,142,47.2,147,47.4z"/>
<path class="st0" d="M195.3,76.2c-0.2,7.6-9,2.8-6.7-2.8C190.4,67.6,196.2,71.6,195.3,76.2z"/>
<path class="st0" d="M49.7,116.9c4.2-1.9,0-8.9,3.3-9.6c5.5,0.6,2.5,4.7,2.9,7.9C57.4,119.1,51.6,117.4,49.7,116.9z"/>
<path class="st0" d="M206.2,84.7c0.7-3.9,0.1-9.2,1.5-12.8C210.5,74.6,209.4,99.3,206.2,84.7z"/>
<path class="st0" d="M194.6,39.2c-1.5,3.3-4.2-0.5-4.5-2.6C191.5,32.7,194.8,35.9,194.6,39.2z"/>
<path class="st0" d="M46.7,105.4c-0.7-0.1-5.8,0.8-3.4-0.9c2.5,0.4,5.2-5.4,6.5-1.4C51.6,105.7,48.8,105.4,46.7,105.4z"/>
<path class="st0" d="M112.2,155.9c0.5,3.4,0.7,6.7-0.2,10C110.7,162.6,111.5,159.2,112.2,155.9z"/>
<path class="st0" d="M46,116.8c1-0.7,1.7-0.4,2.6-0.4C47.7,117.3,47.1,117,46,116.8z"/>
<path class="st0" d="M88.3,121.3c-12.2,5.4-21.4-21.2-7.7-13.5c0.5,3.8,2.3,7.1,6.6,6.9c3.9,0.1,0.5-8.2,5.1-7.6
	C109.6,110,101.6,122.5,88.3,121.3z"/>
<g>
	<path class="st2" d="M44.2,123.9c-10.4-1-28.1,3.6-11.6-8.5c-0.3-2.5,1.2-4.4,3.7-3.1C42.2,120.4,69.3,123.7,44.2,123.9z"/>
	<path class="st2" d="M46.4,112.2c-2.9-0.3-1.7-5.2,0.2-5.1C48.7,108.1,50.5,112.2,46.4,112.2z"/>
	<path class="st2" d="M181.6,151c0.7-30.4-17.8-17.5-17.2,4.2c-4.6,6.4-15.4-7.3-22.2-7.7c-7.3-3.7,3.8-16.7-6.1-20.7
		c-7-5.9-4.4-3.6,1.3-6.8c0.3-3-3.9-4.7-6.5-4.5c-6.2-1.3,1.3-11.7-9.7-9.2c-24.4-15-57.3-7.4-86.7-8.1c-6.7,0.7-3.6,11.6,0.7,10.3
		c10.9-12.5,13.1-9.5,24.3-2c7,2.8-1.7,16.6,6.1,17.4c15.3,0,30.7-0.1,46,0.4c4-0.2,1.4,3.8,3.4,5.4c2.5,1.3,1.8,4.5,3.7,6
		c18.5,10.7-22.3,3.2-15,34.1c8,9.1,2.8-11.9,7.5-15c6-1.9,2.1,12,3.1,15.8c-1,10.9-22.9,7-17.5,21.9c0.8,12.9,19.6,12.6,22.4,1.1
		c1.4-4-1.9-11.4,3.3-12.9c14.8-5.7,34.5,1.5,44.1-14.4C173.7,162.9,182.5,161.5,181.6,151z M102.2,116.1
		C77,136.6,65,98.2,80.6,107.8c1.7,9.2,8.7,9,9.9-0.1C94.8,106.8,104,109.4,102.2,116.1z M112.7,194c-3.2,4.2-9.9,1.5-10.7-3.5
		C101.7,178.9,122,182.7,112.7,194z M149.8,168.7c-4.8,1.5-27.5,6.5-28.9,0.1c1-8.5-2.1-22.7,10.9-19.5c3.3,4.2,8.7,4.7,13.7,6.9
		C151.3,160.2,164,166.9,149.8,168.7z M123.3,132.8c-7.4-10.1,12-6,12.1,1.5C136.2,145,126.8,136.7,123.3,132.8z M172.4,158.3
		c-3.9-2.6-2.1-15.3,1.7-18.4C178.7,140.9,177.7,156,172.4,158.3z"/>
</g>
<path class="st0" d="M125.5,126.6c6,0.1,12.7,6.7,9,12.4C130.4,142.6,114.5,126.4,125.5,126.6z"/>
<path class="st0" d="M176.4,145.1c2.3,4.5-3.7,19.7-6.1,9.5C169.4,149.3,175.1,130.3,176.4,145.1z"/>
<path class="st0" d="M108.1,196c-10.3-2.1-6-13.4,3.4-13C117.9,184.3,114.4,197.1,108.1,196z M112.6,188.5c1.8-6.9-10.5-1.2-7.1,3
	c0.8,2.2,2.5,0.4,4.1,0.3C112.9,192.3,112.6,191.5,112.6,188.5z"/>
<path class="st0" d="M136.7,171.1c-7.5-0.4-18.3,4.3-15.7-7.8c1.6-4.3,0-10.2,2.9-13.8c4.6-0.5,8.8-1.6,11,2.9
	C156.5,159.6,168,169.5,136.7,171.1z"/>
<path class="st0" d="M112.6,188.5c0,3,0.3,3.7-3,3.3c-2.9,1.4-4.4,0.6-4.8-2.6C105.8,186.4,114,182.3,112.6,188.5z"/>
</svg>
