<?xml version="1.0" encoding="utf-8"?>
<!-- Generator: Adobe Illustrator 26.2.1, SVG Export Plug-In . SVG Version: 6.00 Build 0)  -->
<svg version="1.1" id="Calque_1" xmlns="http://www.w3.org/2000/svg" xmlns:xlink="http://www.w3.org/1999/xlink" x="0px" y="0px"
	 viewBox="0 0 256 256" style="enable-background:new 0 0 256 256;" xml:space="preserve">
<style type="text/css">
	.st0{fill:#CC2129;}
	.st1{fill:#FFFFFF;}
</style>
<path class="st0" d="M211.6,130.9c2.2,14.2-5.2,25.5-10.8,37.3c-0.5,1-1.2,2-2.1,2.5c-9.3,5.6-14.3,15.5-22.4,22.4
	c-3.2,2.7-6.5,5.7-10.3,7.4c-7.6,3.4-15.3,6.9-23.4,8.5c-6.3,1.2-13.5,0.7-19.8-1c-14.9-4.2-29.9-8.6-44-14.7
	c-10.8-4.6-20.9-11.6-26.8-22.5c-3.2-5.9-5.2-12.6-6.6-19.2c-2.2-10.4-6.7-20.6-5-31.7c0.8-5.4,2.4-10.8,3.2-16.2
	c1.9-13.9,13-21.7,20.4-32c2.5-3.4,4.7-7,7.2-10.3c1.5-2.1,3-4.4,5.1-5.8c15.3-10.5,31.7-16.1,50.4-10.2c2.1,0.7,4.7,0,7,0
	c2.7,0,5.7-0.7,8.2,0.2c10.3,3.7,21.6,6,30.2,12.2c11.7,8.5,25,15.3,32.8,28.9c3.9,6.8,3,13.6,4.5,20.3
	C211.1,114.9,211,123,211.6,130.9z"/>
<path class="st1" d="M128.4,71.7c8.5-1,17.5,0.4,25.2,6.4c2.7,2.1,5.3,4.8,6.9,7.8c8.7,16,11.4,32.8,5.6,50.4
	c-3.2,9.6-13.5,17.2-23.7,17.2c-4.8,0-9.6-0.9-14.3-0.9c-1.5,0-3.8,1.4-4.4,2.7c-2.4,5.8-4.3,11.9-6.4,17.8c-1.5,4.2-3,8.3-4.7,12.4
	c-1.4,3.3-4.3,5.7-7.4,3.7c-2.2-1.5-3.9-5.3-4-8.1c-0.1-2.9,2.4-5.7,3.4-8.7c5.2-16.1,10.4-32.2,15.2-48.3c1.4-4.6,1.3-9.5,2.2-14.3
	c0.7-4.1,3.3-6.2,7.5-5.7c4,0.5,6,3.2,5.7,7c-0.4,4.6-1.5,9.1-2.4,13.6c-0.5,2.7-1.4,5.4-1.5,8.2c-0.4,8.5,0.6,9.4,9,8.3
	c6.4-0.8,14-4.5,15.5-13.1c2.5-14.1,0.9-27.7-8.7-38.7c-2.9-3.3-8.8-4.3-13.5-5.5c-3.5-0.8-7.4-0.2-11.1-0.2
	c-13.8,0-26.8,9.3-30.6,22.5c-0.5,1.8,1.2,5.2,3,6.6c5,4.1,4.8,9.9,5.4,15.3c0.2,2.1-2.3,5.8-4.3,6.5c-2.1,0.7-5.2-1.2-7.7-2.3
	c-0.9-0.4-1.2-2.2-2.1-2.4c-8.3-2.7-7.8-9.3-7.7-16c0.1-6.2-1.4-12.8,4.5-17.5c0.7-0.6,1.3-1.4,1.7-2.2
	C93.6,76.2,109.5,70.5,128.4,71.7z"/>
</svg>
