<?xml version="1.0" encoding="utf-8"?>
<!-- Generator: Adobe Illustrator 26.2.1, SVG Export Plug-In . SVG Version: 6.00 Build 0)  -->
<svg version="1.1" id="Calque_1" xmlns="http://www.w3.org/2000/svg" xmlns:xlink="http://www.w3.org/1999/xlink" x="0px" y="0px"
	 viewBox="0 0 256 256" style="enable-background:new 0 0 256 256;" xml:space="preserve">
<style type="text/css">
	.st0{fill:#808080;}
	.st1{fill:#101009;}
	.st2{fill:#FAED01;}
	.st3{fill:#E0E1EB;}
	.st4{fill:#4049CA;}
	.st5{fill:#FEFEFE;}
</style>
<path class="st0" d="M197.1,47.3c0,0.2,0.1,0.4,0.1,0.6c-0.2,2.9,0.8,5.7,0.7,8.5c-0.1,2.9,1.4,5.4,1.6,8.2c0.2,1.8,1.6,3,2,4.7
	c0.6,2.5,2.2,4.7,1.9,7.5c-0.1,0.9,0.3,1.9,0.8,2.7c1.2,1.8,1.7,3.7,1.9,5.9c0.2,1.6,0.7,3.2,0.6,4.9c0,0.5,0.4,0.7,0.7,0.9
	c0.2,0.6,0.8,0.4,1.2,0.6c0,0.2,0.1,0.5,0.1,0.7c0,0,0,0,0,0c-0.2,0.1-0.4,0.2-0.5,0.2c-1.1-0.2-1.7,0.1-1.6,1.4
	c0.1,1.1-0.7,1.9-1.5,2.3c-2.1,0.9-3.4,2.8-5.2,4.1c-1,0.7-2.2,0.9-3.1,1.7c-1.3,1.1-2.8,2-4.3,2.8c-1,0.5-2.1,1-2.8,1.9
	c-0.3,0.1-0.6,0.1-0.9,0.2c-0.2,0-0.5,0.1-0.7,0.1c-11.7-0.3-23.4,0.6-35.1-0.6c-3.2-0.3-6.4-0.1-9.6-0.7c-2.9-0.6-6.1-0.4-9.2,0
	c-2.1-0.6-2.1-0.6-0.9-2.6c1.1-1.9,1.1-4.2,2.1-6.1c0.4-0.8,0.7-1.3,1.5-1.4c6.1,0,12.1,0.1,18.2,0.1c1.9,0,3.5,1.3,5.4,1
	c0.2,0,0.3,0.4,0.3,0.6c-0.7,0-1.5,0-2.2,0c-0.1-0.3-0.4-0.5-0.8-0.5c-0.4-0.3-0.9-0.3-1.5-0.3c-6.4,0-12.8,0-19.2,0
	c-0.4-0.3-0.6-0.2-0.7,0.3c0,0.2-0.1,0.4-0.1,0.5c-0.4,0.1-0.4,0.4-0.4,0.7c-0.1,0.3-0.1,0.5-0.2,0.8c-0.5,0.2-0.7,0.6-0.5,1.1
	c0.1,0.3,0.4,0.4,0.7,0.2c2.8,0,5.6,0,8.3-0.1c0.3,0.6,0.8,0.5,1.4,0.5c3.4,0.7,6.9,0.2,10.3,0.3c0.3,0.4,0.8,0.3,1.2,0.3
	c0.5,0.1,1,0.2,1.5,0.3c0.2,0.1,0.5,0.2,0.7,0.2c4.5,0,8.9,0,13.4,0c0.4,0,0.8,0,1-0.5l0,0c0.3-0.1,0.5-0.2,0.5-0.5
	c-0.1-1.5,0.3-2.9,1.1-4.3c0.2-0.3,0.4-0.7,0.1-1.1c0-0.3,0-0.7-0.1-1c0.6-0.3,0.5-0.8,0.6-1.3c0.1-0.2,0.2-0.4,0.2-0.7
	c0.4-0.2,0.3-0.6,0.3-0.9c0.1-0.3,0.2-0.6,0.3-0.9c0.4-0.4,0.5-1,0.6-1.5c0-0.2,0.1-0.4,0.1-0.6c0.3-1,0.9-2,0.7-3.1
	c0-3.4,0-6.8-0.1-10.1c0.5-0.2,0.6-0.6,0.5-1.1c0.1-0.6,0.1-1.2,0.1-1.8c0-4.1,0-8.2,0-12.3c0-1,0.4-2-0.1-3c0-0.5,0-0.9-0.5-1.1
	c0.1-0.8,0.1-1.5-0.1-2.3c0-0.6-0.1-1.1-0.5-1.5c-0.1-0.3-0.2-0.6-0.3-0.9c-0.2-1.2,0.3-2.5-0.3-3.6c-0.1-0.3-0.2-0.6-0.3-0.9
	c0-0.3,0-0.7-0.3-0.9c-0.1-1.4-0.2-2.9-0.3-4.3c-0.5-1-1.3-0.6-2-0.3c-0.9,0-1.8,0.1-2.7,0.1c-4.1,0.5-8.2,0.2-12.3,0.2
	c-2.3,0-4.5-0.5-6.7-0.8c-2.9-0.5-5.8-0.8-8.7-0.9c-8.8-0.3-17.6-0.1-26.5-0.1c-1.2,0-1.7,0.4-1.6,1.6c0.2,4.1,1,8.2,0.7,12.4
	c0,0.4,0.2,0.8,0.4,1.1c0.2,0.3,0.4,0,0.6-0.1c0.3,1.9,0.1,3.7,0.1,5.6c0,2.4,0.2,4.8-0.1,7.2c-1.1-0.2-0.8,0.7-0.8,1.2
	c0,1.8-0.2,3.6-0.6,5.4c-0.4,1.7-0.8,3.5-0.8,5.2c-0.1,4.8,0,9.7,0,14.5c0,0.5-0.2,1.1,0.4,1.5c-0.3,0.5-0.5,1.1-0.9,1.5
	c-1.5,1.7-2.7,3.7-4.8,4.9c0-0.2-0.1-0.4-0.1-0.6c0-8.2,0-16.3,0-24.5c0-0.6,0.1-1.2,0.3-1.8c1.5-4,1.1-8.3,1.7-12.5
	c0.6-4.1-0.8-8.1-0.7-12.2c0.1-2.9-0.9-5.9-0.6-8.9c0-0.1,0-0.2,0-0.3c-1.6-3,1.4-5.4,1.1-8.3c0-0.2,0.4-0.5,0.7-0.8
	c0.4-0.3,0.7-0.7,0.8-1.2c0,0,0,0,0,0c0.6-0.2,1.2-0.6,1.6-1.1c0.8-1.2,1.9-1.5,3.3-1.5c17.3,0.4,34.5-0.8,51.8,0.6
	c3.5,0.3,7,0.1,10.6,0.5c4.5,0.5,9.2,0.2,13.7,0.9c2.3,0.4,3.3,1.7,2.5,3.9c-0.2,0.4-0.3,0.8-0.4,1.3c-0.4,3.8,0.7,7.5,0.7,11.3
	C196.6,47,196.8,47.2,197.1,47.3z M183,93.8c-0.1-0.3-0.1-0.8-0.5-0.8c-0.5,0-0.4,0.6-0.5,0.9c-0.1,0.4,0.2,0.5,0.5,0.5
	C182.9,94.5,183.1,94.2,183,93.8z"/>
<path class="st0" d="M120.2,155.6c0.1,0.5,0.2,1.1,0.2,1.6c0,9.7,0,19.4,0,29.1c0,1-0.3,2-0.5,3c-0.4,1.7-0.1,2.1,1.5,2.3
	c1.3,0.2,2,0.9,2.3,2.1c0.5,2.3-0.5,4.6-0.8,6.8c0,0-0.2,0-0.3,0.1c-1.7,0.1-3.3,0.1-5-0.1c0.1,0.8,0.6,1,1.3,0.9
	c1.3,0,2.5,0,3.8,0.1c0,0,0,0,0,0c0,0.6-0.4,0.6-0.8,0.6c-0.8,0-1.6,0.1-1.7,1c-0.1,1.2,1,0.8,1.6,1.1c-0.3,1.3-1.4,2-2.3,2.8
	c-2.1,1.9-3.4,4.7-6.6,5.1c-0.3,0-0.6,0.3-0.8,0.5c-1.5,1.7-3.7,2-5.6,2c-2.1,0-4.2,0.1-6.3,0.1c-13.8-0.3-27.6,0.4-41.4-0.4
	c-7.1-0.4-14.2-0.1-21.3-0.1c-0.5,0-1-0.2-1.3,0.4c1.3,0.7,1.3,0.7,0.4,1.9c-0.4,0.5-0.9,0.9-1.5,1.3c-1.6,1.1-3.2,2.2-4.7,3.2
	c-0.2-0.8,0.2-1.2,1-1.3c0.5-0.1,1.1-0.3,1.1-0.8c0.1-1.4,1.2-1.9,2-2.7c0.3-0.3,0.6-0.6,0.8-1.1c0.2-0.5,0.9-1.1,0.1-1.5
	c-0.6-0.4-1.1,0.1-1.5,0.6c-1.4,1.9-3.2,3.3-5,4.7c-1.1,0.8-2.2,1.6-2.7,2.9c-0.2,0.4-0.6,0.9-1.2,0.9c-2-0.3-2.5,0.7-2.2,2.4
	c0,0-0.2,0.1-0.3,0.2c-0.1-0.3-0.3-0.6-0.2-0.8c0.1-0.8-0.1-1.2-1-1.2c-0.8,0-1,0.6-1,1.3c0.2,2.6-0.5,5.2,0.5,7.8
	c0.3,0.7,0.9,1.5,0.6,2.4c-1.2-1-1.4-2.5-1.5-3.9c-0.2-2.2,0-4.4-0.1-6.5c0-1.3,0.5-1.8,1.8-1.7c1.9,0.1,3.5-0.2,4.7-2.3
	c0.9-1.6,3-2.6,4.5-3.9c0.2-0.1,0.4-0.2,0.5-0.3c0.3-0.4,0.9-0.7,0.8-1.2c-0.2-0.7-0.8-0.3-1.3-0.4c-0.1,0-0.2,0-0.3,0
	c-4.8,0-6.4-1.7-6.4-6.5c0-10.2,0.4-20.4-0.1-30.5c-0.4-7.5-0.1-15.1-0.6-22.5c-0.2-2.5-0.5-5-0.5-7.5c0-2.7,1.4-3.7,4-3.5
	c1.8,0.2,2.4-1.4,3.2-2.5c1-1.4,1.4-3.3,3.4-3.8c0.4-0.1,0.8-0.3,1.2-0.1c1.7,1.1,3.5,0.5,5.3,0.5c11,0,22,0,33,0c1.1,0,2,0,2.6-1.3
	c0.3-0.6,1-1.1,1.6-1.6c1.4-1.2,3-2.2,4.2-3.7c0.3-0.4,0.8-0.7,1.3-0.6c-2,2.2-3.9,4.5-6.4,6.2c-1.5,1.1-1.1,3,0.7,3.3
	c1.8,0.3,3.5,0.9,5.4,0.9c4-0.1,8,0,12,0.1c0.3,0,0.6-0.1,0.8,0.2c-1.3,1.4-2.9,2.7-3.8,4.3c-1.4,2.5-3.7,4.2-5.2,6.5
	c-7.8,0.3-15.6-0.2-23.3-0.7c-0.1-0.1-0.1-0.1-0.2,0c-0.3-0.5-0.7-0.5-1.2-0.5c-1.3,0-2.6-0.3-3.9-0.6c-1.4-0.4-2.9-0.8-4.3-0.8
	c-7.9-0.1-15.7,0-23.6,0c-1.2,0-1.5,0.6-1.3,1.7c0.2,0.8,0.5,1.7,0.5,2.5c0.1,7.7,0.1,15.3,0.5,23c0.5,9.9,0.1,19.9,0.1,29.8
	c0,2.2,0.1,2.2,2.3,2.3c10.7,0.3,21.4-0.2,32.1,0.5c11.7,0.7,23.4,0.2,35.1,0.2c1,0,1.3-0.3,1.3-1.3c-0.1-2.4,0.1-4.8,0-7.1
	c-0.1-2.3,0.3-4.6-0.7-6.7c-1.5-3.4-2.2-7-2.1-10.7c0-1.8,0-3.5,0-5.3c-0.4,0-0.4,0.8-0.9,0.4c0.2-0.9,0.7-1.4,1.4-2
	c1.5-1.2,3.4-1.8,5-2.9c1.5-1,3-2,4.4-3c2.2-1.5,3.9-3.5,5.9-5.4c0.4,0.6,0.2,1.2,0.2,1.8c0,5.6,0,11.1,0,16.7
	c0,0.7,0.2,1.5,0.9,1.5c0.7,0,0.4-0.9,0.4-1.4c0-5.1,0-10.1,0-15.2c0-1.7,0.2-3.3-0.2-5c0.6-1.7,1.5-3.1,2.4-4.6
	c0.4-0.6,1.1-1.1,1.3-1.8C119.5,157,119.7,156.2,120.2,155.6z M73.7,147.3c1.9,0,3.6,0,5.4,0c1.6,0,3.2,0,4.8-0.1
	c0.5,0,1.1-0.3,1.1-0.9c-0.1-0.6-0.7-0.4-1.1-0.4c-2.7,0-5.5,0-8.2,0C74.8,146,74.2,146.2,73.7,147.3z"/>
<path class="st0" d="M225.2,95.4c1.3,1.4,1.6,3.3,2.7,4.8c0.2,0.3,0,0.6-0.4,0.7c-1,0.4-2,1-3.2,0.8c-1.1-0.2-1.3,0.3-1.4,1.3
	c-0.3,3.2,0.9,6.2,0.7,9.3c-0.2,3-0.8,3.9-3.7,4.9c-3.8,1.4-7.4,3.4-11.2,4.9c-3.2,1.3-5.4,3.7-7.9,5.8c-2.5,2.1-5.3,3.6-8,5.3
	c-1.1,0.7-2.6,0.5-3.7-0.4c-0.7-0.6-1.5-0.7-2.4-0.7c-4.8,0-9.5,0-14.3,0c-1.7,0-3.5,0.1-5.1-0.4c-0.8-0.2-1,0-1.3,0.8
	c-0.6,1.7-1.6,2.3-3.5,2.4c-2.9,0.2-5.7-0.3-8.6-0.6c-3.4-0.3-6.8-0.3-10.1-0.8c-2.4-0.3-4.8-0.8-7.2-0.8c-0.5,0-0.9-0.4-1.4-0.5
	c0.2-0.7,0.5-1.3,0.6-2c0.3-1.3,0.5-2.7-0.8-3.6c-0.3-1.1,0.2-2.7-1.7-2.6c-3.9,0.2-7.7-1.2-11.6-0.7c-0.1,0-0.3,0-0.5,0
	c-0.7,0-0.8-0.3-0.3-0.8c0.5-0.6,1.1-1.2,1.6-2c1.2-2,2.2-4.1,4-5.8c1-0.9,1.7-2.2,2.2-3.5c2.2-0.4,4.4-0.3,6.7-0.3
	c5.4,0,10.8,0,16.3,0c1,0,2,0.5,3,0.1c0.2,0,0.3,0,0.5,0.1c0.5,0.9,1.6,0.8,2.4,1.1c2,0.6,3.9,1.5,6,1.6c0.4,0.2,0.8,0.2,1.2,0.1
	c0.3,0.5,0.9,0.6,1.3,0.6c2.9,0,5.8,0.2,8.7-0.1c0.3,0,0.6,0.1,0.9,0.1c0.2,0.4,0.5,0.6,0.9,0.6c1.4,0,2.8-0.1,4.2-0.1
	c0.2,0,0.4,0.1,0.6,0.1c0.4,0.5,1,0.6,1.6,0.6c2.4,0,4.8,0,7.3,0c0.6,0,1.1,0,1.4-0.6c0.2,0,0.4-0.1,0.6-0.1c0.2,0.1,0.4,0.1,0.7,0
	c0.2,0,0.4,0.1,0.6,0.1c0.1,0.3,0.3,0.3,0.6,0.3l0,0c0.6,1,1.3,0.5,1.9,0.2c0.8-0.5,1.7-0.8,2.6-1.2c1.5-0.8,3.3-1.3,4.3-2.9
	c0.1-0.1,0.2-0.3,0.3-0.4c0.4,0,0.6-0.1,0.6-0.6l0,0c1.2-0.4,2.1-1,2.5-2.3l0,0c1.2-0.4,2.4-0.9,3.1-2.1c0.4,0,0.6-0.3,0.7-0.5
	c0.4,0.1,0.6-0.1,0.5-0.5l0.1-0.1c1.1-0.5,2.1-0.9,2.7-2c0.1-0.1,0.3-0.2,0.4-0.3c1.4-0.4,2.5-1,2.2-2.8c0.6-0.7,1.2-1.3,1.8-2
	c0.4-0.1,0.7-0.2,0.4-0.7c-1.2-0.6-2.7-0.7-3.5-1.9c0-0.2,0-0.4-0.1-0.7c2.3,0.8,4.6,1.6,6.9,2.5c1,0.4,1.5,0.4,1.2-0.9
	c1.2,1,1.6,2.2,0.8,3.7c-0.6,1,0,1.2,0.8,1.3c1,0.2,1.8-0.6,2.7-0.9c-0.2-0.4-0.5-0.7-0.6-1.1C226.3,98,225.1,97,225.2,95.4z
	 M185.1,118.8c-2.3-0.2-4.5-0.5-6.7-0.1c-2.9,0.5-5.7,1.3-8.4-0.5c-0.2-0.1-0.4-0.2-0.6-0.2c-1.4,0.7-3.3,0.5-4.2,2
	c-0.2,0.4-0.5,0.6-1,0.6c-0.6,0-1.2-0.1-1.2,0.8c0,0.7,0.4,1.1,1,1.3c1.2,0.5,2.5,0.4,3.6,0.8c2.5,0.9,5.1,0.6,7.7,1.2
	c2.5,0.6,5.2,0.1,7.9,0.1c0.6,0,1.3,0,1.6-0.7c0.3-0.8,0.8-0.7,1.5-0.7c2.2,0,4.4,0,6.5,0c0.5,0,1.1,0.2,1.5-0.5
	c-1-0.4-2-0.2-2.9-0.2c-0.5,0-1,0-1-0.7c0-0.6,0.5-0.6,1-0.7c0.7-0.1,1.6,0.3,2.4-0.6c-4,0.1-7.6-1.1-11.4-0.9
	C183.3,119.1,184.4,119.8,185.1,118.8z M195.5,123.3c0.9-0.7,1.9-1.1,2.9-1.6c0.4-0.2,0.9-0.4,1-0.8c0.1-0.2,0.4-0.4,0.1-0.7
	c-0.1-0.1-0.4-0.1-0.6,0c-1,0.4-2,0.9-3,1.4C195.5,121.9,195,122.5,195.5,123.3z M215.5,109.9c0.8-0.3,1.6-0.7,1.8-1.7
	c0.1-0.4-0.2-0.6-0.5-0.5c-0.8,0.4-1.6,0.9-1.9,1.7C214.7,109.9,215.1,109.9,215.5,109.9z"/>
<path class="st0" d="M142.5,225c-0.1,0.1-0.1,0.2-0.2,0.4c-2.4,1.2-4.8,2.4-7.2,3.7c-1.4,0.8-3.1,0.7-4.3,1.6
	c-2.4,1.7-5.2,2.2-7.7,3.5c-1.7,0.8-3,2.1-4.6,2.9c-0.3,0-0.5,0-0.8,0.1c-0.6-0.4-1.1-0.1-1.7,0.1c-1.1,0.6-2.1,1.2-3.3,1.5
	c-1.4,0.4-1.7,1.1-1.7,2.4c0,2-0.8,2.7-2.8,2.7c-4.5-0.1-9,0-13.5,0.1c-9.1,0.1-18.2-0.6-27.4,0.5c-5.2,0.6-10.6,0.1-15.9,0.1
	c-0.4,0-0.9-0.2-1.3,0.2c-0.2,0-0.3,0-0.5-0.1c-1.3-1-2.8-1.2-4.4-1.4c-3-0.4-6,0.7-9,0.7c-1.5,0-3.1,0.1-4.6,0
	c-1.7-0.2-3.2,0.8-4.9,0.7c-2.1-0.1-2.6-0.6-2.7-2.6c0-0.9-0.1-1.8-0.2-2.7c0.3-0.2,0.8-0.2,0.8-0.6c0-1.7,0-3.4,0-5.3
	c-0.9,0.7-0.7,1.4-0.8,2c0,1.2,0.1,2.4-0.4,3.6c-0.2,0-0.4,0.1-0.6,0.1c0,0-0.1-0.1-0.1-0.1c0-0.6,0-1.2-0.6-1.5
	c-0.1-0.5-1.3-0.3-0.9-1.3c0.7,0.3,1.5,1.3,1.9-0.2c0.2-0.8,0.3-1.7-0.3-2.6c-0.5-0.8-0.9-1.7-1-2.7c0.5,0.2,0.6,0.6,0.8,1
	c0.2,0.5,0.5,0.5,1,0.5c0.4,0,0.7-0.2,0.7-0.6c0-1.3,0.4-2.6-0.4-3.8c0.3-0.2,0.5-0.3,0.8-0.5c0.8,0.1,0.6,0.7,0.6,1.1
	c0,0.8,0,1.6,0,2.4c0,1.2,0.5,1.6,1.6,1.4c1.4-0.3,2.7-0.2,4.1-0.2c11.8,0,23.7,0,35.5,0c1.8,0,3.5-0.5,5.3-0.1
	c-0.4,0.8-1.2,0.2-1.8,0.5c-0.4,0.2-0.8,0.4-0.8,1c0.1,0.4,0.4,0.8,0.8,0.8c2,0,4.1,0.4,6-0.1c3-0.8,6-0.3,9-0.4
	c0.1,0,0.2,0.2,0.3,0.4c-0.9,0.6-2-0.1-3.1,0.7c2.2,0,4,0,5.7,0c0.3-0.6-0.8-0.5-0.5-0.9c0.3-0.4,0.9-0.2,1.3,0
	c0.8,0.5,1.8,0.4,2.7,0.4c3.2,0,6.5,0,9.7,0c0.5,0,1.1,0.2,1.5-0.3c-0.4-0.4-0.9-0.2-1.3-0.3c-2.2-0.3-4.7,0.9-6.6-1.3
	c-0.2-0.2-0.6-0.2-0.6-0.6c0-0.3,0.3-0.4,0.6-0.4c1.2,0.1,2.5-0.3,3.7,0.4c1.1,0.6,2.1,0.3,2.6-1c0.9-0.8,0.5-1.8,0.2-2.6
	c-0.3-0.8-1.2-0.6-1.9-0.6c-1.6,0-3.1,0-4.7,0c-0.4,0-1,0.2-1.3-0.5c2.1,0,4.2,0.1,6.4,0.1c1.5,0,2.2,0.4,2.1,2c0,0.3,0.2,0.7,0.2,1
	c0.5,2.1,2.2,3.4,3.4,5c0.5,0.6,1.3,0.7,1.8,0.4c0.6-0.3,0.2-1,0-1.6c-0.3-1.3-1.9-1.8-2-3.2c0.3-0.1,0.5,0,0.8,0.2
	c0,0.1,0,0.1,0.1,0.2c0-0.1,0-0.1,0-0.2c0.2-1.1,0.8-2,1.9-2.4c0.4,0,0.9,0.1,1.2-0.3c1.5,0,3.1,0.3,4.6-0.3
	c0.4,0.1,0.6-0.2,0.8-0.5c1.3-0.2,2.3-1.1,3.5-1.6c0.4,0,0.6-0.2,0.8-0.5c0.2,0,0.3-0.1,0.5-0.1c0.4,0.1,0.6-0.2,0.7-0.5
	c1.2-0.1,1.8-1.3,2.9-1.6c0.4,0,0.6-0.2,0.8-0.5c1.1-0.9,2.1-1.9,3.2-2.8c0.4,0,0.6-0.2,0.7-0.6c0.5-0.1,0.8-0.5,1.2-0.9
	c0.3-0.1,0.6-0.3,0.6-0.6c0.4,0,0.5-0.3,0.6-0.6c1.5-1.2,2.5-2.6,3-4.5c0.3-0.1,0.6-0.3,0.5-0.7c0.6-1.5,2.3-2.3,2.6-4
	c1.5,1.4,2.7,3.1,4.6,4.1c0.5,0.3,0.9,0.4,1.4,0.1c0.3-0.2,0.5-0.6,0.3-0.9c-0.4-0.7-0.5-1.6-1.3-2c-1.9-1-1.7-2.9-1.9-4.6
	c0.2,0.1,0.4,0.3,0.6,0.4c0.8,0.8,1.8,0.3,2.6,0.6c0.4,0.4,0.9,0.7,1,1.3c0,4.3,0,8.7-0.1,13c0,1.1,0,2.1-0.7,3.1
	C142.8,223.6,142.1,224.2,142.5,225z M138.7,216c-0.6,0.3-1.1,0.6-1.1,1.2c0,1-0.6,1.6-1.3,2.3c-0.2,0.3-0.9,0.5-0.5,0.9
	c0.3,0.4,0.9,0.2,1.4,0C138.4,219.6,139,217.8,138.7,216z M49.8,238.9c1,0.2,1.7,1.4,2.8,0.6c0.4-0.3,0.4-1-0.1-1.3
	C51.5,237.4,50.7,238,49.8,238.9z M96.4,232.8c0.5,0.2,1,0.3,1.5-0.1C97.3,232.4,96.9,232.3,96.4,232.8z"/>
<path class="st1" d="M225.2,95.4c-0.1,1.5,1.1,2.6,1.6,3.9c0.1,0.4,0.4,0.7,0.6,1.1c-1,0.3-1.7,1-2.7,0.9c-0.8-0.1-1.4-0.3-0.8-1.3
	c0.8-1.4,0.4-2.6-0.8-3.7c0.3-0.9-0.4-1.3-1-1.7c-2.4-1.2-5-1.5-7.6-1.5c-0.2,0-0.3,0.2-0.2,0.4c-0.1,0.6-0.1,1,0.6,1.1
	c0,0.2,0,0.4,0.1,0.7c-0.4,0-0.8,0-1.1,0c-0.5-0.6-0.9-0.4-1.1,0.2c-0.2,0.5-0.6,0.8-0.9,1.1c-1.4,1.4-2.8,2.8-4.2,4.2l0,0
	c-2.3,2.3-5.4,3.5-7.8,5.7c-0.4,0.4-1,0.3-1.6,0.3c-0.5,0-1.2-0.1-1.2,0.7c-2-0.1-3.5,1.4-5.3,1.8c1.6,0.2,3.2,0.5,4.8,0
	c0.2,0,0.5,0,0.7,0c0.1,1-0.6,1-1.3,1c-2.7,0-5.4,0.1-8.2,0.1c-0.6-0.3-0.9,0.1-1.1,0.6c-3.9-0.2-7.8-0.1-11.8-0.5
	c-6.8-0.8-13.7-0.1-20.5-0.7c-7.6-0.7-15.3-0.2-22.9-0.1c-0.5,0-1.1,0.1-1.6,0.1c-0.7,0.2-1.1,0.6-0.8,1.4c-0.5,1.3-1.2,2.6-2.2,3.5
	c-1.8,1.7-2.8,3.8-4,5.8c-0.5,0.8-1.1,1.3-1.6,2c-0.4,0.5-0.4,0.8,0.3,0.8c0.2,0,0.3,0,0.5,0c3.9-0.5,7.7,0.9,11.6,0.7
	c1.9-0.1,1.4,1.6,1.7,2.6c-0.1,0.5-0.2,1.1-0.2,1.6c0.2,2.1-0.9,3.7-1.9,5.3c-1.4,2.2-3.1,4.1-4.3,6.6c-0.6,1.3-1.5,2.3-2.3,3.5
	c-2.2,3-4.9,5.7-6.3,9.2c-0.6,1.4-1.5,2.8-1.5,4.5c-0.2,0.7-0.9,1.2-1.3,1.8c-0.9,1.5-1.9,2.9-2.4,4.6c-1.1,0-1.2,0.9-1.4,1.6
	c-1.9,1.8-3.7,3.9-5.9,5.4c-1.5,1-3,2-4.4,3c-1.6,1.1-3.5,1.7-5,2.9c-0.7,0.6-1.2,1.2-1.4,2c-0.6,0.4-1.6-0.1-2,0.9
	c-0.6,0-0.9,0.2-1.3,0.6c-2.3,2.1-5,3.5-7.8,4.7c-2.5,1.1-4.7,2.6-7.3,3.4c-1.4,0.4-2.7,1.3-4.1,1.8c-1.3,0.4-3,0.5-3.9,1.8
	c-1.4-0.1-2.6,0-3.8,0.9c-1.8,0-3.6-0.1-5.4-0.1c-1,0-1.5-0.5-1.5-1.5c0-1.3-0.1-2.5,0.2-3.8l0.1,0l0-0.1c0.1-0.1,0.2-0.3,0.2-0.4
	c1.4-1.5,3.3-2.5,3.4-4.9c0.1-0.2,0.1-0.4,0.2-0.6c0.4,0,0.6-0.3,0.6-0.6l0,0c1.4-0.9,2.7-1.8,2.7-3.6c0.6-1.9,1.8-3.3,3.1-4.7
	c1.5-1.1,2.1-3,3.7-4.1c0.3-0.2,0.9-0.8,0.7-1.6c0.6-1.2,1.7-2.2,2.6-3.3c1.5-1.8,2.5-4,4-5.8c0.2-0.2,0.4-0.4,0.2-0.7
	c-0.2-0.3-0.5-0.3-0.8-0.2c-0.6,0.2-1.1,0.6-1.8,0.6c-9,0-18-0.2-27,0.6c-2.5,0.2-5,0-7.4,0c-0.7-0.1-1.4-0.2-2.1,0
	c-1,0-2-0.1-2.9-0.1c-0.7-0.9-1.9-0.9-2.9-1.2c-0.3-0.1-0.6,0.2-0.6,0.5c0,1.4-0.3,2.7,0.1,4.1c0.6,2.2,1.3,4.3,1.2,6.6
	c-0.1,2.1,0.1,4.3,0,6.4c-0.1,2,0.7,4.2-1.2,5.8c-0.1,0.1-0.1,0.2-0.1,0.3c-0.2,2.1-1,4.2-0.7,6.4c0.1,1-0.2,1.9-0.5,2.9
	c-0.5,1.3-1.2,2.7-0.9,4.2c0.1,0.4,0,0.9-0.2,1.3c-0.6,1.8-1.2,3.7-1.1,5.6c0,1.1,0.1,2.2-0.2,3.3c-0.5,0.2-1,0.4-1.5,0
	c0-0.3-0.2-0.5-0.5-0.6c0-1.9,0-3.9,0-5.8c0.3,0,0.5-0.2,0.5-0.6c0-0.2,0.1-0.4,0.1-0.6c0.1-0.9,0.1-1.8,0.2-2.7
	c0.4-0.1,0.4-0.4,0.5-0.7c0-0.1,0-0.2,0-0.4c0-0.4,0-0.8,0-1.2c0.7-2,1.6-3.9,1.5-6.1c-0.1-2.8,0.1-5.5,1.8-7.9
	c0.2-0.2,0.2-0.6,0.2-0.9c0-2.7,0-5.4-0.1-8c0-1.2,0.7-2.4-0.6-3.4c-0.1-0.9-0.1-1.8-0.2-2.6c0.1-0.6-0.2-0.9-0.6-1.2
	c0-2.1,0-4.3,0-6.4c0.6-0.9,1.3-1.7,2.5-0.8c0.1,0.1,0.5,0,0.7,0c0.4,0,0.9,0,1.3,0.1c1,1.1,2.3,1.7,3.8,1.5c6-0.6,12,0,18.1-0.6
	c5.8-0.6,11.7-0.1,17.6-0.1c0.8,0,1.7,0.2,2.2-0.7c1.3,0,2.5,0,3.8-0.1c0.5,0,1.2,0.2,1.4-0.6c0.5,0,0.7-0.4,0.9-0.7
	c0.4-0.1,0.6-0.3,0.4-0.7c0-0.2,0-0.4,0-0.5c1.5-2.4,3.8-4,5.2-6.5c0.9-1.6,2.5-2.9,3.8-4.3c-0.2-0.3-0.5-0.2-0.8-0.2
	c-4-0.1-8-0.2-12-0.1c-1.9,0.1-3.6-0.6-5.4-0.9c-1.8-0.3-2.2-2.2-0.7-3.3c2.5-1.7,4.4-4,6.4-6.2c0,0,0,0,0,0
	c1.6-1.5,3.2-2.9,4.8-4.4c0.7-0.4,1.3-0.8,1.8-1.3c2.1-1.6,3.9-3.6,6.2-4.9c1.6-0.9,3.2-2,4.5-3.2c1.8-1.8,3.7-3.5,5.3-5.6
	c2.7-3.4,6.2-6.1,8.9-9.6c1.5-2,3.6-3.6,5.3-5.5c0.7-0.7,1.2-1.5,1.8-2.2c1.8-1.9,3.6-3.8,5.5-5.7c2.3-2.4,3.5-5.6,5.9-7.9
	c0.4-0.3,0.7-0.9,0.6-1.5c0.1-0.2,0.2-0.5,0.4-0.7c0,0,0,0,0,0c0.1-0.1,0.2-0.2,0.3-0.3c0,0,0,0,0,0c0.7-0.4,1.7-0.3,2.2-1.2
	c0.9,0,1.7-0.1,2.6-0.1c1.8-0.1,3.4,0.1,4.4,1.8c0.5,2.1,1.2,4.2-0.8,6c-0.1,0.1,0,0.5,0.1,0.7c0,0.2-0.1,0.4-0.1,0.6
	c-0.3,0.1-0.4,0.3-0.5,0.6l0,0c-1.3,0.7-1.8,2-2.1,3.4c-0.3,1-0.1,2.1-1.3,3c-0.7,0.5-1.6,1.5-1.6,2.8c-0.8,0.1-1.1,0.6-1.5,1.4
	c-1,2-1,4.3-2.1,6.1c-1.2,2-1.2,2,0.9,2.6c-0.1,0.2-0.1,0.4-0.2,0.6c-0.8-0.3-1.6-0.1-2.4-0.1c-0.6,0-1,0.4-0.9,1
	c0.1,0.6,0.6,0.4,1,0.4c1.6,0,3.2,0.1,4.8,0c0.8,0,1.7,0.4,2.4-0.3c0.3,0,0.8,0.2,0.9-0.3c1.4-0.3,2.7,0.7,4,0.6
	c6.4-0.1,12.7,0.3,19,0.7c1.9,0.1,3.9,0,5.8,0c3,0.1,6-0.5,8.9,0.6c0.3,0.1,0.8,0.1,1,0c1.5-0.9,3.1-0.5,4.7-0.6
	c0.6,1.5,1.9,0.6,2.9,0.8c0.2,0,0.5-0.1,0.6-0.4c0-0.4-0.3-0.5-0.6-0.5c-0.8,0-1.7,0-2.5,0c0.1-0.7,0.7-0.6,1.2-0.6c1,0,2,0,3,0
	c0.5,0,1.1,0.2,1.2-0.5c0.3-0.1,0.6-0.1,0.9-0.2c1.4,0.3,2.6,0,3.9-0.5c1.7-0.7,3.7-0.9,5.2-1.8c3.3-1.9,6.5-4.1,9.2-7
	c0.7-0.7,1.1-1.8,2-2.2c0.5-0.2,0.8-0.5,0.8-1c0-0.6-0.7-0.4-1.1-0.6c0-0.7-0.3-1-1-0.8c0-0.1,0-0.3,0-0.4c0,0,0,0,0,0
	c0.8-0.1,0.9-0.8,1.3-1.3c1.5-0.3,3.1,0.4,4.5-0.6c0.6-0.4,0.9,0.5,1.4,0.6c0.3,0.6,0.8,0.5,1.4,0.3c0.6,0.1,1.2,0.3,1.8,0.1
	c0.3,0.1,0.5,0.1,0.8,0.2c0.6,0.6,1.2,0.8,2,0.6c0.2,0,0.3,0,0.5,0.1c0.9,0.8,1.8,1.5,2.7,2.3C225.2,95.1,225.2,95.2,225.2,95.4z
	 M119.7,148.9c0.1-0.1,0.2-0.2,0.3-0.3c0.2,0,0.3-0.1,0.3-0.3c0.1-0.1,0.2-0.2,0.4-0.4c0.3-0.1,0.6-0.2,0.5-0.6
	c0.2-0.3,0.3-0.6,0.5-0.9c0.2,0,0.3-0.1,0.2-0.3c0.2-0.6,0.6-1.1,1-1.6c0.2,0.1,0.3,0,0.3-0.2c0.4-0.5,0.7-1,1.1-1.6
	c0.3-0.1,0.5-0.2,0.5-0.6c0.1-0.1,0.2-0.2,0.4-0.4c0.2,0,0.3,0,0.3-0.2c1.1-1.5,2.1-3,2.7-4.7c0.3-0.1,0.6-0.4,0.6-0.7
	c0.4-0.5,0.7-1,1.1-1.6c0.3-0.1,0.5-0.2,0.5-0.6c0.7-1.2,1.2-2.4,2.1-3.5c1-1.2,0.7-2.5,0.7-3.8c0-0.4-0.3-0.7-0.7-0.6
	c-2.4,0.4-4.7-0.5-7-0.7c-2.7-0.3-5.1,0.8-7.7,0.7c-0.5,0-1.2,0.1-1.4-0.6c-0.3-0.6,0.2-1.1,0.5-1.5c1-1.2,2.2-2.3,3.1-3.5
	c1.8-2.7,3.3-5.6,5.7-7.8c0.4-0.4,0.8-0.8,1-1.3c0.4-0.9,1.4-1.9-0.3-2.6c-0.3-0.1-0.6-0.5-0.5-0.9c0.1-0.5,0.6-1,1.1-0.9
	c2,0.2,2.6-1.2,3.3-2.5c0.7-1.3,1.8-2.5,2-4c0.2-1.5,1.4-2.6,1.6-4c0.1-0.9,0.4-1.7,1.1-2.2c1.5-1.2,2-3,3-4.5
	c0.8-1.3,1.2-2.8,2.2-4.1c0.8-1.1,1-2.6,1.9-3.7c0.1-0.2,0.1-0.7,0-0.9c-0.6-0.7-0.4-2-1.7-2.2c-1.5-0.2-3.4-0.4-4.2,1
	c-1,1.8-2.5,3.2-3.6,5c-0.8,1.3-1.4,2.9-2.5,3.9c-1.8,1.5-2.9,3.5-4.6,5.1c-1.6,1.3-2.9,3.1-4.3,4.6c-2.4,2.5-4.9,5.1-7.2,7.6
	c-1.3,1.4-2.5,3.1-4,4.3c-2,1.5-2.8,3.8-4.6,5.4c-1.1,1-2.3,2.3-3.4,3.2c-1.7,1.3-3.6,2.5-5.4,3.8c-1.9,1.4-3.8,3-5.6,4.6
	c-0.4,0.4-0.7,0.8-1.2,1c-1.6,0.7-3.2,1.5-4.2,2.9c-1.7,2.3-3.7,4.2-5.8,6.1c-0.3,0.3-1,0.3-1,1.1c1.1,0.1,2,0.9,3.2,0.8
	c4.6-0.1,9.2,0,13.8,0c0.5,0,1.1,0,1.5-0.2c1-0.7,2.1-0.4,3.2-0.5c0.5,0,1,0.2,1.2,0.7c0.2,0.5,0,1-0.4,1.4c-0.7,0.7-1.8,1-2.5,1.6
	c-1.9,1.7-3.7,3.6-5.2,5.7c-1,1.2-1.9,2.4-3,3.5c-0.4,0.3-0.8,0.7-1,1.1c-1.2,2.5-3.1,4.3-5.1,6.1c-1.5,1.3-2.3,3.1-3.6,4.5
	c-0.5,0.5,0.1,1.6-0.8,1.8c-0.8,0.3-1,1-1.4,1.4c-1.5,1.4-2.4,3.3-4,4.7c-1.4,1.2-2.1,2.9-3.4,4.2c-1.1,1.1-1.3,3.2-2.3,4.4
	c-2.1,2.3-3,5.5-5.4,7.6c-0.3,0.3-0.6,0.7-0.9,1c-0.5,0.5-0.4,1.2-0.3,1.7c0.2,0.6,0.9,0.4,1.3,0.4c0.5,0,0.9,0,1.4-0.1
	c0.9,0.3,1.6,0.1,2.2-0.7c0,0,0,0,0,0c0.3,0,0.5,0,0.8,0c0.7,0.1,1.4,0.1,2.1-0.2c2-0.9,3.9-1.9,5.9-2.5c3.3-1.1,6.2-3,9.4-4.4
	c1.8-0.8,4.3-1.1,5.4-3.4c0.1-0.1,0.2-0.2,0.4-0.3c1.5-0.1,2.4-1.4,3.6-2.1c1.3,0.2,1.6-0.9,2.2-1.7c0.5-0.4,1.1-0.7,1.5-1.2
	c1.2-0.6,2.4-1,3.6-1.8c0.9-0.6,1.6-1.6,2.6-2c2.3-0.8,3.4-3.1,5.3-4.3c0-0.1,0.1-0.1,0.2-0.2c0.2,0,0.4-0.2,0.4-0.4
	c0.1-0.1,0.3-0.2,0.4-0.3c0.2,0,0.3-0.1,0.3-0.3c0.2-0.1,0.3-0.2,0.5-0.3c0.2,0,0.3,0,0.3-0.3c0.2-0.6,0.6-1.1,1-1.7
	c0.8-1.2,1.8-2.1,2.2-3.5c0.3-0.1,0.5-0.2,0.4-0.6c1.3-1.2,1.2-3,2.2-4.3c0.2,0,0.3-0.1,0.2-0.3c0.4-0.7,0.1-1.5,0.5-2.1
	c0.3-0.1,0.5-0.2,0.4-0.6c0.1-0.7,0.5-1.3,1-1.8C119.6,149.2,119.7,149.1,119.7,148.9z"/>
<path class="st1" d="M105.7,230.9c0.1,1.4,1.7,1.9,2,3.2c0.2,0.6,0.6,1.2,0,1.6c-0.5,0.3-1.3,0.2-1.8-0.4c-1.2-1.6-2.9-2.9-3.4-5
	c-0.1-0.3-0.3-0.7-0.2-1c0.2-1.6-0.6-2-2.1-2c-2.1,0.1-4.2,0-6.4-0.1l0,0c-0.2-0.4-0.4-0.9-0.8-0.2c-0.1-0.1-0.3-0.2-0.4-0.2
	c-6.4,0-12.7,0-19.1,0c-3.5,0.6-7.1,0.6-10.6,0c-0.3,0-0.6-0.1-0.9-0.1c-0.3-0.4-0.5-0.8-1.1-0.5c-1.6-0.4-3.2,0.1-4.8-0.3
	c0-0.5-0.3-0.6-0.7-0.6c-1.6,0-3.2-0.6-4.7-0.7c-7.9-0.2-15.9-0.1-23.8-0.1c-1.1,0-1.7,0.5-2,1.7c-0.2,0.4-0.2,0.8,0.1,1.2
	c-0.3,0.2-0.5,0.3-0.8,0.5c-0.1-0.4,0.1-0.9-0.5-1c-0.6-0.3-0.7,0.2-0.9,0.6c-0.7,0.1-0.7,0.6-0.7,1.1c0,0.7,0,1.5,0.1,2.2
	c0.1,1,0.5,1.9,1,2.7c0.5,0.9,0.5,1.8,0.3,2.6c-0.4,1.5-1.2,0.5-1.9,0.2c0-0.5,0-1-0.1-1.5c0.3-0.9-0.3-1.7-0.6-2.4
	c-1-2.6-0.3-5.2-0.5-7.8c-0.1-0.7,0.1-1.2,1-1.3c0.9,0,1.1,0.4,1,1.2c0,0.3,0.2,0.5,0.2,0.8c0.1-0.1,0.3-0.1,0.3-0.2
	c-0.3-1.7,0.2-2.7,2.2-2.4c0.6,0.1,1-0.4,1.2-0.9c0.5-1.4,1.6-2.1,2.7-2.9c1.8-1.4,3.6-2.8,5-4.7c0.4-0.5,0.8-1,1.5-0.6
	c0.8,0.5,0.1,1-0.1,1.5c-0.2,0.4-0.5,0.7-0.8,1.1c-0.8,0.8-1.9,1.4-2,2.7c0,0.6-0.6,0.8-1.1,0.8c-0.8,0.1-1.2,0.5-1,1.3
	c-0.1,0.1-0.2,0.1-0.3,0.2c-0.6-0.4-1.1-0.1-1.5,0.4c-0.4,0.7-0.5,1.2,0.6,0.9c7.4,0,14.7,0,22.1,0.1c0.4,0.5,0.8,0.9,1.5,0.5
	c1.1,0,2.2,0.1,3.3,0.1c2,1.5,4.6,0.5,6.8,1.3c0.3,0,0.6,0.1,0.9,0.1c0.2,0.5,0.5,0.9,1.1,0.6c2.5,0,4.9,0,7.4,0
	c0.6,0.3,0.9,0,1.1-0.6c5.5,0,10.9,0,16.4-0.1c0.3,0.3,0.7,0.2,1,0c1-0.8,2.1-0.4,3.2-0.5c0.2,0,0.7,0,0.5,0.3
	c-0.6,1.5,0.7,0.9,1.1,1c1.6,0.1,3.2,0.1,4.9,0c1.4-0.1,2.7,0.1,3.7,1.2c0.5-0.8,0.4-1.7,0.7-2.5c-0.2,1.6,0.6,3.3-0.5,4.8
	c-0.2,0.2,0.1,1,0.3,0.9C105.5,229.2,105.1,230.8,105.7,230.9L105.7,230.9z"/>
<path class="st2" d="M133.4,79.1c0.1,0.6-0.2,1.2-0.6,1.5c-2.4,2.3-3.6,5.5-5.9,7.9c-1.9,1.9-3.7,3.8-5.5,5.7
	c-0.7,0.7-1.2,1.5-1.8,2.2c-1.8,1.8-3.8,3.5-5.3,5.5c-2.7,3.5-6.3,6.2-8.9,9.6c-1.6,2-3.4,3.8-5.3,5.6c-1.3,1.3-2.9,2.3-4.5,3.2
	c-2.3,1.3-4.1,3.3-6.2,4.9c-0.6,0.5-1.2,0.9-1.8,1.2c0-0.1,0-0.3,0-0.4c3.1-4,6.7-7.6,10.4-11c3.5-3.2,6.5-6.6,9.4-10.3
	c0.6-0.8,1.9-1.3,1.6-2.7c0.2-0.1,0.4-0.2,0.6-0.4c2.1-1.1,3.3-3.2,4.8-4.9c0.4-0.4,0.6-1,0.9-1.5c0.8-0.2,1.4-0.8,2.1-1.3
	c0.1,0,0.2,0,0.3,0.1c0.4,0.5,0.6,1.4,1.5,1.1c0.9-0.3,0.7-1.1,0.7-1.8c0-1,0-2,0.2-3c0.4,0.1,0.7,0.1,0.6-0.5l0,0
	c1.5-0.2,2-1.7,3.2-2.4c0.5-0.4,1.2-0.5,1.5-1.2c0.8-1.3,2.4-2,3-3.3c1-2.2,3-3,4.9-4.1l0.1,0.1L133.4,79.1z"/>
<path class="st1" d="M139.7,204.6c0.3,1.7,0.1,3.6,1.9,4.6c0.8,0.4,0.9,1.3,1.3,2c0.2,0.3,0,0.7-0.3,0.9c-0.5,0.4-0.9,0.2-1.4-0.1
	c-1.9-1-3-2.8-4.6-4.1c0-0.3-0.2-0.3-0.4-0.4c-0.4-0.6-0.7-1.2-1.6-1.2c-0.4-0.1-0.4,0.3-0.6,0.5c-0.1-0.2-0.3-0.2-0.5-0.1
	c0.1-0.4,0.1-0.7,0.2-1.1c0.6-0.1,0.6-0.5,0.3-0.9c-0.4-0.5-0.9-0.7-1.3,0c-0.4,0.1-0.6,0.3-0.7,0.6c-0.3,0.1-0.5,0.3-0.5,0.7
	c-0.3,0.1-0.6,0.2-0.9,0.4c-0.4,0-0.6,0.2-0.6,0.6l0,0c-0.4,0-0.6,0.2-0.6,0.6l0,0c-0.4,0-0.6,0.2-0.6,0.6c-0.1,0-0.1,0.1-0.2,0.2
	c-0.4-0.1-0.6,0.1-0.5,0.6c-0.1,0.1-0.1,0.1-0.2,0.2c-0.4,0-0.6,0.2-0.6,0.6l0,0c-1.3,0.6-2.6,1.4-3.6,2.5c-0.3,0.2-0.6,0.5-0.9,0.7
	c-1.6,0.9-3.2,1.7-4.8,2.7c-0.8,0.5-1.6,0.8-2.1,1.6c-0.1,0-0.1,0.1-0.2,0.1c-1.9,0.8-3.5,2.1-4.9,3.6c-0.4,0.4-0.8,0.6-1.3,0.8
	c-1.2,0.7-2.9,0.4-3.9,1.5c-0.2,0-0.4,0-0.5,0.1c-0.8-0.1-1.4,0.9-2.3,0.3c0.2-0.2,0.5-0.4,0.5-0.7c-0.1-1.4,0.7-1.4,1.8-1.6
	c1.1-0.2,2.1-0.7,2.8-1.5c0.2,0,0.4-0.1,0.5-0.1c0.9,0.5,1.3-0.3,1.8-0.7c3.9-3.3,8.7-5.2,12.6-8.5c0.2-0.2,0.5-0.2,0.7-0.3
	c2-1.1,3.3-2.8,4.6-4.6c0.3-0.4,0.7-0.8,1.3-0.9c0.7,0.2,0.9-0.4,1.2-0.8c0.2-0.2-0.1-0.4-0.2-0.5c-0.6-0.3-1.1-0.2-1.5,0.3
	c-0.1,0.1-0.1,0.2-0.1,0.3c-2.4,0.1-4.8,0.1-7.2,0.2c-0.6-0.3-1.7,0.1-1.6-1.1c0.1-1,0.9-1,1.7-1c0.4,0,0.8,0,0.8-0.6
	c4.6-0.2,9.3-0.1,13.9,0c0.1,0.3,0.3,0.5,0.6,0.4c0.2,0.1,0.5,0.1,0.7,0.2c0.3,0.3,0.7,0.7,1.2,0.6c0,0.5,0.4,0.8,0.7,1
	C139.7,204.1,139.7,204.3,139.7,204.6z M136.9,204c-0.4,0-0.8,0.2-0.8,0.7c0,0.6,0.4,0.9,0.9,1c0.7,0.1,0.7-0.4,0.7-0.9
	C137.8,204.3,137.5,204,136.9,204z"/>
<path class="st3" d="M197.1,47.3c-0.3-0.1-0.5-0.3-0.5-0.7c0-3.8-1.1-7.5-0.7-11.3c0-0.5,0.2-0.9,0.4-1.3c0.8-2.2-0.2-3.5-2.5-3.9
	c-4.6-0.8-9.2-0.4-13.7-0.9c-3.5-0.4-7.1-0.2-10.6-0.5c-17.2-1.4-34.5-0.2-51.8-0.6c-1.4,0-2.5,0.3-3.3,1.5c-0.4,0.6-1,0.9-1.6,1.1
	c1.2-1.9,2.6-3.4,5.2-3.4c15.8,0,31.6-0.1,47.4,0.1c3.8,0.1,7.8-0.1,11.5,0.6c4,0.7,8-0.3,11.9,0.8c2.2,0.7,4.6,0,6.7,1.1
	c1.3,0.7,2.1,2.5,1.4,3.8c-0.3,0.5-0.3,1.1-0.3,1.6c-0.3,3.5,0.4,6.9,0.6,10.3C197.4,46.3,197.5,46.9,197.1,47.3z"/>
<path class="st2" d="M118.7,157.3c-0.1-1.7,0.9-3.1,1.5-4.5c1.4-3.5,4.1-6.2,6.3-9.2c0.8-1.1,1.8-2.2,2.3-3.5
	c1.1-2.4,2.9-4.3,4.3-6.6c1-1.6,2.2-3.2,1.9-5.3c-0.1-0.5,0.1-1.1,0.2-1.6c1.4,1,1.1,2.3,0.8,3.6c-0.1,0.7-0.4,1.3-0.6,2
	c-2.1,3.4-4.2,6.7-6.3,10.1c-0.6,1-1,2.1-1.4,3.2c-0.9,2.5-2.6,4.4-4.5,6.2c-1.2,1.1-2.2,2.4-2.9,3.8
	C119.7,156.2,119.5,157,118.7,157.3z"/>
<path class="st3" d="M109.5,101.7c-0.2,0.1-0.4,0.2-0.6,0.4c-0.4-1.3-0.4-2.6-0.4-3.9c0-6.2,0-12.4,0-18.5c0-2.7,0.5-5.2,1.4-7.8
	c0.1-0.2,0.1-0.4,0.1-0.6c-0.2-4.5,1.3-8.9,0.5-13.4c-0.6-3.4-0.1-6.8-0.7-10c-0.4-2.3-0.4-4.6-0.5-6.9c0-0.4-0.1-0.8-0.4-1.1
	c-0.4-0.7-0.5-1.4,0-2c0.9-1,0.9-2.2,1-3.4c0.1-1.8,1.1-3,2.8-3.8c-0.1,0.5-0.5,0.9-0.8,1.2c-0.3,0.2-0.7,0.5-0.7,0.8
	c0.3,2.9-2.7,5.3-1.1,8.3c0,0.1,0.1,0.2,0,0.3c-0.3,3,0.7,5.9,0.6,8.9c-0.2,4.1,1.2,8.1,0.7,12.2c-0.6,4.2-0.2,8.5-1.7,12.5
	c-0.2,0.6-0.3,1.2-0.3,1.8c0,8.2,0,16.3,0,24.5C109.4,101.3,109.5,101.5,109.5,101.7z"/>
<path class="st3" d="M50.1,244.7c0.4-0.3,0.9-0.2,1.3-0.2c5.3,0,10.7,0.5,15.9-0.1c9.1-1,18.3-0.3,27.4-0.5c4.5-0.1,9-0.2,13.5-0.1
	c2,0.1,2.8-0.7,2.8-2.7c0-1.3,0.3-2.1,1.7-2.4c1.1-0.3,2.2-0.9,3.3-1.5c0.6-0.3,1.1-0.5,1.7-0.1c-1.5,0.8-3.1,1.6-4.8,2.1
	c-0.7,0.2-1,0.5-1,1.2c0,3-1.5,4.3-4.7,4.3c-11.8-0.1-23.6-0.3-35.4,0.1c-6.6,0.2-13.2,0.5-19.8,0.5
	C51.3,245.4,50.5,245.6,50.1,244.7z"/>
<path class="st3" d="M207.6,91.3c-0.3-0.2-0.8-0.4-0.7-0.9c0.1-1.7-0.4-3.3-0.6-4.9c-0.2-2.2-0.7-4.1-1.9-5.9
	c-0.5-0.8-0.9-1.8-0.8-2.7c0.3-2.8-1.3-5-1.9-7.5c-0.4-1.7-1.8-2.9-2-4.7c-0.3-2.8-1.7-5.3-1.6-8.2c0.1-2.9-1-5.6-0.7-8.5
	c0.8,0.1,0.8,0.7,0.7,1.2c-0.3,3.3,0.8,6.5,1.1,9.8c0.3,3,0.8,6.4,2.8,9.1c0.9,1.2,0.6,3,1.5,4.3c0.9,1.3,1.1,2.7,0.9,4.1
	c-0.1,1.1,0.4,2.1,0.8,3c1.1,2.2,1.8,4.3,2.1,6.8C207.4,87.9,207.7,89.6,207.6,91.3z"/>
<path class="st3" d="M23.9,239.3c0.1,0.9,0.2,1.8,0.2,2.7c0.1,2,0.6,2.5,2.7,2.6c1.7,0.1,3.2-0.9,4.9-0.7c1.5,0.2,3,0,4.6,0
	c3,0.1,5.9-1.1,9-0.7c1.6,0.2,3.1,0.4,4.4,1.4c-1.4,0.4-2.5-0.6-3.8-0.6c-5.5,0-10.9,1.1-16.4,0.7c-0.9-0.1-1.5,0.6-2.4,0.7
	c-2,0.1-3.5-1.6-3.6-3.5c-0.1-1-0.1-1.9-0.4-2.8c0.2,0,0.4-0.1,0.6-0.1C23.7,239.1,23.8,239.2,23.9,239.3z"/>
<path class="st3" d="M118.5,237.1c1.6-0.8,3-2.1,4.6-2.9c2.5-1.3,5.4-1.8,7.7-3.5c1.2-0.9,2.9-0.8,4.3-1.6c2.3-1.3,4.8-2.5,7.2-3.7
	c-0.7,1.9-2.7,1.9-4.1,2.8c-1.6,1-3.2,1.8-5,2.4c-2.3,0.7-4.3,2.4-6.6,3c-2.5,0.6-4.5,2.1-6.6,3.2
	C119.5,237.1,119,237.2,118.5,237.1z"/>
<path class="st3" d="M142.5,225c-0.4-0.8,0.3-1.4,0.6-1.9c0.7-1,0.7-2,0.7-3.1c0-4.3,0-8.7,0.1-13c0.7,0.3,0.8,0.9,0.8,1.5
	c0,4.1,0.1,8.1,0,12.2C144.6,222.4,143.8,223.8,142.5,225z"/>
<path class="st0" d="M87.5,126c0,0.1,0,0.3,0,0.4c-1.6,1.5-3.2,2.9-4.8,4.4c0-0.5,0-0.9,0.4-1.2C84.6,128.3,85.8,126.8,87.5,126z"/>
<path class="st1" d="M122.6,201.6c-1.3,0-2.5-0.1-3.8-0.1c-0.7,0-1.2-0.2-1.3-0.9c1.7,0.2,3.3,0.2,5,0.1
	C122.6,201,122.8,201.2,122.6,201.6z"/>
<path class="st0" d="M225.2,94.9c-0.9-0.8-1.8-1.5-2.7-2.3c0-0.1,0-0.2,0.1-0.2C224,92.7,225,93.3,225.2,94.9z"/>
<path class="st3" d="M219.2,91.8c-0.6,0.2-1.2,0-1.8-0.1c0-0.2,0-0.3-0.1-0.5C218.3,90.6,218.9,90.8,219.2,91.8z"/>
<path class="st0" d="M222.1,92.5c-0.8,0.2-1.4,0-2-0.6c0.6-0.3,1.2,0,1.7,0C221.9,92.1,222,92.3,222.1,92.5z"/>
<path class="st3" d="M142.9,205.7c-0.9-0.3-1.9,0.2-2.6-0.6C141.3,204.7,142.2,204.9,142.9,205.7z"/>
<path class="st3" d="M210.2,91.3c-0.3,0.5-0.5,1.2-1.3,1.3c0-0.2-0.1-0.5-0.1-0.7C209.3,91.8,209.3,90.4,210.2,91.3z"/>
<path class="st0" d="M139,202.8c-0.5,0.1-0.9-0.3-1.2-0.6C138.4,201.8,138.8,202,139,202.8z"/>
<path class="st3" d="M22.3,237.5c0.7,0.3,0.6,1,0.6,1.5C22.3,238.7,22.2,238.1,22.3,237.5z"/>
<path class="st0" d="M217.4,91.2c0,0.2,0,0.3,0.1,0.5c-0.5,0.2-1.1,0.3-1.4-0.3C216.5,91.1,217,91.2,217.4,91.2z"/>
<path class="st0" d="M139.7,203.8c-0.4-0.2-0.8-0.5-0.7-1C139.6,202.8,139.9,203.1,139.7,203.8z"/>
<path class="st3" d="M222.1,92.5c-0.1-0.2-0.2-0.4-0.3-0.6c0.4-0.2,0.7-0.1,0.8,0.4c-0.1,0.1-0.1,0.1-0.1,0.2
	C222.4,92.6,222.2,92.5,222.1,92.5z"/>
<path class="st0" d="M137,201.9c-0.3,0-0.5-0.2-0.6-0.4C136.9,201.2,137,201.5,137,201.9z"/>
<path class="st4" d="M123.9,87.6c-1.2,0.7-1.7,2.1-3.2,2.4c-0.3-1.6,0.3-3.1,0.5-4.7c0.6-4.3-0.6-8.6-0.6-12.9
	c0-0.1-0.1-0.3-0.1-0.4c-0.6-2.2-1.4-4.3-1.3-6.7c0.1-4,0-8,0-12c0-0.5-0.1-1,0.1-1.3c1.1-1.9,0.7-4.1,1.2-6.1
	c0.3-1.4,0.5-2.1,2-1.8c0.4,0.1,0.9,0.1,1.3,0.3c1.6,0.6,3.3,1,5,1.1c6.8,0.4,13.7-0.2,20.5,0.6c5.8,0.6,11.7,0.1,17.6,0.1
	c1.3,0,2.4-0.4,3.4-1.3c0.4,0.1,0.7,0.2,1-0.1c0.2,0,0.5,0,0.7,0c0.4,0.4,0.8,0.8,1.2,1.2c0,0.2,0,0.5,0,0.7
	c-0.2,1.4-0.6,2.7,0.2,4.1c0.1,0,0.2,0.1,0.4,0.1c0,0.3,0.1,0.6,0.1,1c-0.4,0.4-0.2,0.9-0.2,1.3c0,14.1,0,28.3,0,42.4
	c0,0.4-0.2,0.8,0.2,1.1c0,0.3-0.1,0.6-0.4,0.9c-0.3,0-0.5,0-0.4,0.4c-0.2,0.4-0.6,0.4-0.9,0.4c-1.2-0.3-2.5-0.3-3.7,0
	c-0.3,0-0.7,0-0.9-0.4c0.1-0.3,0-0.4-0.2-0.4c-1.8,0-3.7-0.2-5.5,0.1c-0.2,0-0.5,0-0.7,0c-0.1,0-0.2-0.1-0.3-0.1
	c0-0.3-0.1-0.6-0.3-0.6c-1.9,0.3-3.5-1.1-5.4-1c-6.1,0.1-12.1,0-18.2-0.1c0.1-1.2,0.9-2.3,1.6-2.8c1.3-0.8,1-1.9,1.3-3
	c0.8-1,1.8-2,2.1-3.4c0,0,0,0,0,0c0.3-0.1,0.6-0.2,0.5-0.6c0-0.2,0.1-0.4,0.1-0.6c1.1-0.6,1.7-1.7,2.1-2.8c0.6-1.6,0-3-1.3-3.9
	c-1-1.8-2.6-2-4.4-1.8c-0.9,0.1-1.7,0.1-2.6,0.1c-1-0.2-1.7,0.2-2.2,1.2c0,0,0,0,0,0c-0.1,0.1-0.2,0.2-0.3,0.3c0,0,0,0,0,0
	c-0.4,0-0.6,0.3-0.6,0.6c-1.8,1.1-3.9,1.9-4.9,4.1c-0.6,1.3-2.2,2-3,3.3c-0.9-0.2-0.7-1-0.7-1.6c0-2.2,0-4.4,0-6.8
	c-1.1,0.6-1.5,1.1-1.5,2c0.1,1.8,0,3.6,0,5.4C123.2,86.4,123.4,87,123.9,87.6z M157.3,91.1c-1.1-1.2-2.1-1.4-3.2-1.4
	c-2.7,0-5.5,0-8.2,0c-0.7,0-1.3,0.1-1.9,0.4c-0.3,0.1-0.7,0.4-0.6,0.8c0.1,0.5,0.6,0.3,0.9,0.3c3,0,6,0,9,0
	C154.5,91.1,155.7,91.1,157.3,91.1z M124.1,66.6c1.4-1.5,1.9-6.3,1-7.5c-0.1-0.2-0.4-0.4-0.6-0.4c-0.4,0-0.4,0.4-0.4,0.7
	C124.1,61.7,124.1,64,124.1,66.6z M134.2,57.6c0.2,0,0.8,0.1,0.7-0.6c-0.1-0.7-0.8-1-1.4-1.1c-0.6-0.1-0.5,0.5-0.5,0.8
	C132.9,57.4,133.4,57.6,134.2,57.6z M158.8,90.8c0.8,0.7,1.4,1.6,2.5,1.1c0.4-0.2,0.5-0.6,0.2-0.9C160.8,90.1,159.9,90.3,158.8,90.8
	z M154.3,62.2c0.4-0.1,0.4-0.4,0.4-0.8c0-0.8-0.6-1-1.2-1.1c-0.3,0-0.8,0.1-0.7,0.6C153.1,61.5,153.5,62.1,154.3,62.2z"/>
<path class="st1" d="M170.4,44.8c-1,0.9-2.1,1.3-3.4,1.3c-5.9,0-11.8,0.5-17.6-0.1c-6.9-0.8-13.7-0.2-20.5-0.6
	c-1.7-0.1-3.4-0.5-5-1.1c-0.4-0.1-0.9-0.2-1.3-0.3c-1.5-0.3-1.7,0.3-2,1.8c-0.4,2-0.1,4.2-1.2,6.1c-0.2,0.4-0.1,0.9-0.1,1.3
	c0,4,0.1,8,0,12c-0.1,2.4,0.6,4.5,1.3,6.7c0,0.1,0.1,0.3,0.1,0.4c0,4.3,1.3,8.6,0.6,12.9c-0.2,1.6-0.8,3.1-0.5,4.7c0,0,0,0,0,0
	c-0.5-0.2-0.7,0-0.6,0.5c-0.3,1-0.2,2-0.2,3c0,0.7,0.1,1.5-0.7,1.8c-0.9,0.3-1.1-0.6-1.5-1.1c0.4-0.5,0.3-1.2,0.3-1.7
	c0-1.7,0.1-3.4,0.5-5.1c0.7-3.3,1.5-6.6,0.1-9.9c0-1.5,0-2.9,0-4.4c0.2-0.6-0.2-0.9-0.6-1.1c0-0.5-0.1-1.1-0.1-1.6
	c0.2-0.6-0.1-0.9-0.6-1.1c0-0.6,0-1.2-0.1-1.7c0.3-2.4,0.1-4.8,0.1-7.2c0-1.9,0.2-3.7-0.1-5.6c0-1.2,0-2.4,0.1-3.5
	c0.3-0.2,0.8-0.4,0.6-1c0-1,0.1-2,0.1-2.9c0.3-0.3,0.8-0.5,0.6-1.1c0-1.3,0.1-2.6,0.1-3.9c0.7-0.7,1.4-0.9,2.4-0.4
	c0.8,0.4,1.8,0.4,2.8,0.2c0.2,0,0.3,0.1,0.5,0.1c0.4,0.8,1,0.5,1.6,0.4c0.3,0,0.6,0,0.9,0.1c0.8,0.9,1.9,0.7,2.8,0.7
	c6.7,0.4,13.3-0.3,20.1,0.5c5.5,0.7,11.1,0.1,16.7,0.1c0.5,0,1.2,0.1,1.4-0.6c0,0,0-0.1,0-0.1c0.3-0.1,0.6-0.1,0.8-0.2
	c0.4,0.1,0.8,0.2,1.2,0.2c0,0.4,0.2,0.6,0.7,0.5l0,0C170.4,44.2,170.4,44.5,170.4,44.8z"/>
<path class="st5" d="M169.7,43.4c-0.4-0.1-0.8-0.2-1.2-0.2c-0.3-0.7-0.3-1.1,0.7-1c0.8,0,1.8,0.5,2.1-0.9c0.9,0,1.8-0.1,2.7-0.1
	c0.6,0.7,1.3,0.3,2,0.3c0.1,1.4,0.2,2.9,0.3,4.3c-0.2,0.1-0.4,0.3-0.4,0.5c0.1,0.4,0.4,0.4,0.6,0.4c0.1,0.3,0.2,0.6,0.3,0.9
	c-0.7,0.7-0.3,1.6-0.4,2.4c0,0.5-0.2,1.2,0.7,1.2c0.1,0.3,0.2,0.6,0.3,0.9c-0.7,0.8-0.5,1.3,0.5,1.5c0.2,0.7,0.2,1.5,0.1,2.3
	c-0.2,0.5-0.3,1,0.5,1.1c0.5,1,0.1,2,0.1,3c0,4.1,0,8.2,0,12.3c0,0.6-0.1,1.2-0.1,1.8c-0.8,0.1-0.7,0.5-0.5,1.1
	c0,3.4,0,6.8,0.1,10.1c-0.7,0.9-1.7,1.8-0.7,3.1c0,0.2-0.1,0.4-0.1,0.6c-1,0.2-1.2,0.7-0.6,1.5c-0.1,0.3-0.2,0.6-0.3,0.9
	c-0.7,0.1-0.9,0.4-0.3,0.9c-0.1,0.2-0.2,0.4-0.2,0.7c-1.1,0-0.7,0.7-0.6,1.3c0,0.3,0,0.7,0.1,1c-0.3,0-0.6,0-0.9,0
	c0-14.3,0-28.6,0-42.9c0.4-0.2,0.5-0.6,0.3-1c-0.2-0.3-0.4-0.1-0.5,0.1c-0.1,0-0.2,0-0.2,0c0-0.3-0.1-0.6-0.1-1
	c0.8-1.4,0.3-2.9,0.3-4.4c0-0.4-0.4-0.5-0.8-0.5c-0.4-0.4-0.8-0.8-1.2-1.2c-0.2-0.8-0.5-1.3-1.3-0.5c-0.2,0-0.3-0.1-0.5-0.1
	c0,0,0,0,0,0C170.3,43.5,170.1,43.3,169.7,43.4z"/>
<path class="st3" d="M171.2,41.3c-0.3,1.3-1.3,0.9-2.1,0.9c-1,0-1,0.3-0.7,1c-0.3,0.1-0.6,0.1-0.8,0.2c-0.2-0.4-0.4-0.5-0.7-0.2
	c-2.9,0-5.8,0.1-8.7,0.1c-0.8,0-1.7,0.1-2.4-0.2c-1.9-0.7-3.9-0.7-5.8-0.7c-7.2,0-14.5,0-21.7,0c-0.5,0-1.1-0.2-1.6,0.3
	c-0.3,0-0.6,0-0.9-0.1c-0.4-0.6-1-0.7-1.6-0.4c-0.2,0-0.3-0.1-0.5-0.1c-1.1-0.3-2.2-0.7-3.4-0.9c-0.8-0.1-1.9-0.4-1.8,1.1
	c0,1.3-0.1,2.6-0.1,3.9c-0.5,0.2-0.8,0.5-0.6,1.1c0,1-0.1,2-0.1,2.9c-0.4,0.2-0.7,0.5-0.6,1c0,1.2,0,2.4-0.1,3.5
	c-0.2,0.1-0.5,0.4-0.6,0.1c-0.2-0.3-0.4-0.8-0.4-1.1c0.3-4.2-0.5-8.3-0.7-12.4c-0.1-1.2,0.4-1.6,1.6-1.6c8.8,0,17.6-0.2,26.5,0.1
	c2.9,0.1,5.8,0.5,8.7,0.9c2.2,0.3,4.5,0.9,6.7,0.8C163,41.4,167.1,41.8,171.2,41.3z"/>
<path class="st5" d="M160.9,97.4c0.1,0,0.2,0.1,0.3,0.1c0,0.7,0.6,1,1.2,0.9c3-0.3,5.9,0.6,8.8,0.7c0.9,0,1.8-0.8,2.3-0.3
	c0.5,0.5,0.2,1.6,0.3,2.5c0,0,0,0,0,0c-4.8-0.3-9.6-0.1-14.4-0.1c-0.3,0-0.5,0.1-0.6,0.4c-0.5-0.1-1-0.2-1.5-0.3
	c-0.2-1-0.7-0.8-1.2-0.3c-3.4-0.2-6.9,0.4-10.3-0.3c-0.2-1-0.8-0.6-1.4-0.5c-2.8,0-5.6,0-8.3,0.1c-0.1-0.4-0.1-0.9-0.2-1.3
	c0.1-0.3,0.1-0.5,0.2-0.8c0.6,0,0.7-0.3,0.4-0.7c0-0.2,0.1-0.4,0.1-0.5c0.3,0.1,0.6,0.1,0.7-0.3c6.4,0,12.8,0,19.2,0
	c0.5,0,1,0,1.5,0.3c0,0.6,0.2,0.7,0.8,0.5C159.4,97.4,160.1,97.4,160.9,97.4z"/>
<path class="st3" d="M134.1,106.4c0.1-0.2,0.1-0.4,0.2-0.6c3.1-0.4,6.3-0.6,9.2,0c3.2,0.6,6.4,0.4,9.6,0.7
	c11.7,1.2,23.4,0.3,35.1,0.6c0.2,0,0.5,0,0.7-0.1c-0.1,0.8-0.7,0.5-1.2,0.5c-1,0-2,0-3,0c-0.5,0-1.1-0.1-1.2,0.6
	c-0.1,0-0.2,0.1-0.3,0.1c-1.6,0.1-3.2-0.3-4.7,0.6c-0.3,0.2-0.7,0.1-1,0c-2.9-1.1-5.9-0.5-8.9-0.6c-1.9-0.1-3.9,0.1-5.8,0
	c-6.3-0.4-12.7-0.9-19-0.7c-1.3,0-2.6-0.9-4-0.6c0-0.3,0-0.6-0.4-0.6C137.6,106.1,135.8,106,134.1,106.4L134.1,106.4z"/>
<path class="st3" d="M209,92.6c0,0.1,0,0.3,0,0.4c0.1,0.5,0.4,0.8,1,0.8c0.4,0.2,1,0.1,1.1,0.6c0,0.4-0.3,0.7-0.8,1
	c-0.9,0.4-1.3,1.5-2,2.2c-2.7,2.9-5.8,5.1-9.2,7c-1.6,0.9-3.5,1.1-5.2,1.8c-1.3,0.5-2.6,0.9-3.9,0.5c0.7-0.9,1.8-1.4,2.8-1.9
	c1.5-0.8,3-1.7,4.3-2.8c0.9-0.8,2.1-1,3.1-1.7c1.8-1.3,3.1-3.2,5.2-4.1c0.8-0.4,1.6-1.2,1.5-2.3c-0.1-1.3,0.5-1.6,1.6-1.4
	C208.6,92.8,208.8,92.6,209,92.6z"/>
<path class="st5" d="M117.8,70.3c0,0.5,0.1,1.1,0.1,1.6c-0.3,0.6,0.2,0.9,0.6,1.1c0,1.5,0,2.9,0,4.4c-0.6,0.5-0.4,1.2-0.4,1.8
	c-0.1,2.6,0.4,5.2-0.3,7.6c-0.7,2.4-0.5,4.8-0.4,7.2c-0.7,0.5-1.3,1.1-2.1,1.3c-0.5-0.4-0.4-1-0.4-1.5c0-4.8-0.1-9.7,0-14.5
	c0-1.7,0.4-3.5,0.8-5.2c0.5-1.8,0.7-3.5,0.6-5.4c0-0.5-0.3-1.4,0.8-1.2c0,0.6,0,1.2,0.1,1.7C116.9,69.8,117.4,70,117.8,70.3z"/>
<path class="st3" d="M173.8,101.3c-0.1-0.8,0.1-1.9-0.3-2.5c-0.5-0.6-1.4,0.3-2.3,0.3c-2.9-0.1-5.8-1-8.8-0.7
	c-0.5,0.1-1.1-0.2-1.2-0.9c0.2,0,0.5,0,0.7,0c1.9,0.7,3.8,0.2,5.7,0.3c0.2,0.3,0.6,0.3,0.9,0.4c1.2,0.5,2.5,0.5,3.7,0
	c0.3,0,0.7,0,0.9-0.4c0.2,0,0.4-0.1,0.4-0.4c0.3-0.2,0.4-0.5,0.4-0.9c0.2-0.4,0.4-0.7,0.5-1.1c0.3,0,0.6,0,0.9,0
	c0.3,0.4,0.1,0.8-0.1,1.1c-0.7,1.3-1.2,2.7-1.1,4.3C174.3,101.1,174.1,101.2,173.8,101.3z"/>
<path class="st3" d="M158.7,101.6c0.1-0.2,0.3-0.4,0.6-0.4c4.8,0.1,9.6-0.2,14.4,0.1c-0.1,0.5-0.6,0.5-1,0.5c-4.5,0-8.9,0-13.4,0
	C159.2,101.8,158.9,101.7,158.7,101.6z"/>
<path class="st3" d="M177.1,51.3c-0.9,0-0.7-0.7-0.7-1.2c0.1-0.8-0.4-1.7,0.4-2.4C177.3,48.8,176.9,50.1,177.1,51.3z"/>
<path class="st3" d="M177.4,88.4c-1-1.3,0-2.2,0.7-3.1C178.3,86.5,177.7,87.4,177.4,88.4z"/>
<path class="st3" d="M183,93.8c0,0.4-0.2,0.7-0.6,0.7c-0.3,0-0.6-0.1-0.5-0.5c0.1-0.3,0-0.9,0.5-0.9C182.9,93.1,183,93.5,183,93.8z"
	/>
<path class="st3" d="M175.9,41.5c-0.7,0-1.4,0.4-2-0.3C174.6,40.9,175.4,40.5,175.9,41.5z"/>
<path class="st3" d="M177.9,53.7c-1-0.2-1.3-0.7-0.5-1.5C177.8,52.6,178,53.1,177.9,53.7z"/>
<path class="st3" d="M176.7,90.6c-0.7-0.8-0.4-1.3,0.6-1.5C177.3,89.6,177.2,90.1,176.7,90.6z"/>
<path class="st3" d="M156,101c0.5-0.6,1-0.7,1.2,0.3C156.7,101.3,156.3,101.4,156,101z"/>
<path class="st3" d="M135.7,98.9c0.1,0.4,0.1,0.9,0.2,1.3c-0.3,0.2-0.6,0.1-0.7-0.2C135,99.5,135.2,99.1,135.7,98.9z"/>
<path class="st3" d="M144.2,100.1c0.6-0.1,1.2-0.5,1.4,0.5C145.1,100.7,144.5,100.7,144.2,100.1z"/>
<path class="st3" d="M175.3,94.4c-0.1-0.6-0.5-1.3,0.6-1.3C175.9,93.6,175.9,94.1,175.3,94.4z"/>
<path class="st3" d="M178.6,57.1c-0.8-0.1-0.7-0.5-0.5-1.1C178.5,56.2,178.6,56.6,178.6,57.1z"/>
<path class="st3" d="M176.1,92.4c-0.6-0.5-0.4-0.8,0.3-0.9C176.5,91.8,176.5,92.2,176.1,92.4z"/>
<path class="st3" d="M176.5,46.7c-0.3,0-0.6,0-0.6-0.4c0-0.3,0.1-0.4,0.4-0.5C176.5,46,176.5,46.4,176.5,46.7z"/>
<path class="st3" d="M178,75.2c-0.2-0.5-0.3-1,0.5-1.1C178.6,74.6,178.5,75,178,75.2z"/>
<path class="st3" d="M158.6,97.4c-0.5,0.2-0.8,0-0.8-0.5C158.2,96.9,158.5,97,158.6,97.4z"/>
<path class="st3" d="M137.2,96.6c-0.2,0.3-0.4,0.4-0.7,0.3C136.5,96.3,136.8,96.2,137.2,96.6z"/>
<path class="st3" d="M136.3,97.4c0.3,0.5,0.1,0.7-0.4,0.7C135.8,97.8,135.9,97.5,136.3,97.4z"/>
<path class="st5" d="M129.4,204.8c-0.6,0.1-0.9,0.5-1.3,0.9c-0.8,0.4-1.5,0.8-2,1.6c-1.6,2.6-4.4,3.9-6.8,5.3
	c-3.7,2.2-7.3,4.7-10.9,7.2c-0.2,0-0.4,0.1-0.5,0.1c-0.2,0-0.4-0.1-0.6-0.1c-1.2,0.6-2.4,1.3-3.8,1.3c-0.5,0-0.9,0.5-1,1
	c-0.1,1.4-1,1.6-2.1,1.6c-2.9,0-5.9,0-8.8,0c-0.9,0-1.8,0.2-2.5,0.9c-5.5,0-10.9,0-16.4,0.1c-0.6-0.2-0.8,0.1-1.1,0.6
	c-2.5,0-4.9,0-7.4,0c-0.2-0.4-0.5-0.8-1.1-0.6c-0.3,0-0.6-0.1-0.9-0.1c-2-1.6-4.6-0.5-6.8-1.3c-1.1,0-2.2-0.1-3.3-0.1
	c-0.3-0.7-0.9-0.8-1.5-0.5c-7.4,0-14.7,0-22.1-0.1c-0.4-0.9,0.6-0.9,0.9-1.3c0.1-0.1,0.2-0.1,0.3-0.2c1.6-1.1,3.2-2.1,4.7-3.2
	c0.5-0.4,1.1-0.8,1.5-1.3c1-1.2,0.9-1.2-0.4-1.9c0.3-0.6,0.9-0.4,1.3-0.4c7.1,0,14.2-0.3,21.3,0.1c13.8,0.8,27.6,0.1,41.4,0.4
	c2.1,0,4.2-0.1,6.3-0.1c2,0,4.1-0.2,5.6-2c0.2-0.2,0.5-0.5,0.8-0.5c3.2-0.4,4.5-3.2,6.6-5.1c0.9-0.8,1.9-1.5,2.3-2.8
	c2.4-0.1,4.8-0.1,7.2-0.2C129.1,204.3,129.5,204.3,129.4,204.8z"/>
<path class="st3" d="M30.3,198.2c0,1.9,0,3.9,0,5.8c-0.3,0.6,0,0.6,0.5,0.6c0.5,0.4,1,0.2,1.5,0c0.7,0.4,1.3,1.1,2.3,1.1
	c4.2,0.1,8.4,0.2,12.7,0.6c8.7,0.8,17.5-0.2,26.4,0.7c6.2,0.6,12.6,0.5,18.9-0.6c1.7-0.3,3.6-1.2,4.1-2.9c0.6-2,0.5-4.3,0-6.5
	c-0.5-1.9-1.1-3.8-1-5.8c0.1-2.7,0-5.4,0-8.1c0-1.3-0.2-2.5-0.6-3.7c0.4-1,1.4-0.5,2-0.9c0.5,0.4,0.6-0.4,0.9-0.4c0,1.8,0,3.6,0,5.3
	c-0.1,3.7,0.6,7.3,2.1,10.7c1,2.1,0.6,4.5,0.7,6.7c0.1,2.4-0.1,4.8,0,7.1c0,1-0.3,1.3-1.3,1.3c-11.7,0-23.4,0.5-35.1-0.2
	c-10.7-0.7-21.4-0.1-32.1-0.5c-2.2-0.1-2.3-0.1-2.3-2.3c0-9.9,0.4-19.9-0.1-29.8c-0.4-7.7-0.4-15.3-0.5-23c0-0.8-0.4-1.7-0.5-2.5
	c-0.2-1,0.1-1.7,1.3-1.7c7.9,0,15.7,0,23.6,0c1.4,0,2.9,0.4,4.3,0.8c1.3,0.3,2.5,0.7,3.9,0.6c0.5,0,0.9,0.1,1.2,0.5
	c-1.2,0.2-2.4,0.3-3.6,0c-2-0.5-3.9-1.1-6-1.1c-7.3-0.1-14.7,0-22,0c-2,0-2,0-1.4,2c0.1,0.2,0,0.4,0.1,0.6c0.3,7.5-0.2,15,0.5,22.5
	c0.6,6.6,0.1,13.3,0.1,19.9c0,0.6-0.2,1.2,0.4,1.7c0,0.2-0.1,0.4-0.1,0.6C30.3,197.6,29.9,197.6,30.3,198.2z"/>
<path class="st5" d="M30.8,197.1c-0.6-0.4-0.4-1.1-0.4-1.7c0-6.6,0.5-13.3-0.1-19.9c-0.7-7.5-0.2-15-0.5-22.5c0-0.2,0-0.4-0.1-0.6
	c-0.6-2-0.6-2,1.4-2c7.3,0,14.7,0,22,0c2,0,4,0.5,6,1.1c1.2,0.3,2.4,0.2,3.6,0c0.1,0,0.1,0,0.2,0c0,0.3,0.1,0.7,0.5,0.6
	c3-0.2,5.8,0.6,8.7,0.9c3.8,0.3,7.6,0.1,11.3,0.1c0.8,0,1.4,0.1,1.4,1.1c-0.2,0.7-0.9,0.6-1.4,0.6c-1.3,0.1-2.5,0.1-3.8,0.1
	c-0.1,0-0.2-0.1-0.3-0.1c-9.9,0-19.9,0.1-29.8,0.1c-0.6,0-1.1-0.1-1.7-0.2c-0.5-1-1-1-1.5,0c-1.2-0.1-1.6,1.3-2.8,1.3
	c-1.6,0-3.1,0.1-4.5-0.9c-0.3-0.2-0.6-0.5-1.1-0.3c-0.4,0-0.9,0-1.3-0.1c-0.3-0.3-0.6-0.6-0.9-0.7c-1.3-0.6-2.4,0.2-2.3,1.5
	c0,2.1,0,4.3,0,6.4c-0.3,0.7-0.2,1.1,0.6,1.2c0.1,0.9,0.1,1.8,0.2,2.6c0,1.1,0.1,2.3,0.1,3.4c-0.1,0.4-0.2,0.8-0.3,1.2
	c-0.3,0-0.6,0-0.7,0.3c0,0.1,0.2,0.2,0.3,0.4c-0.1,0.3-0.2,0.5-0.3,0.8c-0.2,0-0.5,0-0.6,0.3c-0.1,0.2,0.1,0.3,0.3,0.4
	c0,0.2,0.1,0.3,0.1,0.5c-0.3,0.8-0.6,1.6-1.1,2.2c-0.8,0.1-1,0.7-0.9,1.3c0.4,5.2-1,10.3-0.6,15.4c0,0.7-0.1,1.5,0.4,2.2
	C31,195.3,30.9,196.2,30.8,197.1z"/>
<path class="st3" d="M113.6,165.3c0.2-0.8,0.2-1.6,1.4-1.6c0.3,1.7,0.2,3.3,0.2,5c0,5.1,0,10.1,0,15.2c0,0.5,0.4,1.3-0.4,1.4
	c-0.8,0-0.9-0.8-0.9-1.5c0-5.6,0-11.1,0-16.7C113.8,166.5,113.9,165.9,113.6,165.3z"/>
<path class="st3" d="M84.9,154.3c0-1-0.6-1.1-1.4-1.1c-3.8,0-7.6,0.3-11.3-0.1c-2.9-0.3-5.8-1.1-8.7-0.9c-0.4,0-0.5-0.3-0.5-0.6
	c7.8,0.5,15.5,1,23.3,0.7c0,0.2,0,0.4,0,0.5c-0.4,0.1-0.5,0.4-0.4,0.7C85.5,153.9,85.3,154.2,84.9,154.3z"/>
<path class="st3" d="M73.7,147.3c0.5-1.1,1.1-1.3,2-1.3c2.7,0,5.5,0,8.2,0c0.4,0,1.1-0.3,1.1,0.4c0.1,0.6-0.6,0.8-1.1,0.9
	c-1.6,0.1-3.2,0.1-4.8,0.1C77.3,147.3,75.6,147.3,73.7,147.3z"/>
<path class="st5" d="M187.7,110.5c2.7,0,5.4-0.1,8.2-0.1c0.7,0,1.4,0,1.3-1c2.6-2.6,5.9-4.4,8.8-6.6c0.7-0.5,1.9-0.6,1.7-2l0,0
	c1.9-0.3,2.6-2.1,4-3.1c0.9-0.7,1.3-1.8,2.2-2.4c0.4,0,0.8,0,1.1,0c0.9,1.2,2.4,1.2,3.5,1.9c-0.4,0.1-0.5,0.4-0.4,0.7
	c-0.6,0.7-1.2,1.3-1.8,2c-0.7,0.9-1.5,1.8-2.2,2.8c-0.1,0.1-0.3,0.2-0.4,0.3c-1.1,0.4-2.2,0.9-2.7,2c0,0-0.1,0.1-0.1,0.1
	c-0.3,0.1-0.5,0.2-0.5,0.5c-0.2,0.3-0.4,0.5-0.7,0.5c-1.2,0.4-2.4,0.9-3.1,2.1c0,0,0,0,0,0c-1,0.6-2,1.2-2.5,2.3c0,0,0,0,0,0
	c-0.3,0-0.5,0.2-0.6,0.6c-0.1,0.1-0.2,0.3-0.3,0.4c-1.8,0.5-3,2-4.7,2.4c-1.4,0.4-2.4,1.6-4,1.5c0,0,0,0,0,0
	c-0.1-0.3-0.2-0.7-0.6-0.3c-0.2,0-0.4-0.1-0.6-0.1c-0.2-0.5-0.4-0.5-0.7,0c-0.2,0-0.4,0.1-0.6,0.1c-0.8-0.5-1.7-0.2-2.5-0.2
	c-2.6,0.1-5.2-0.3-7.8,0.2c-0.2,0-0.4-0.1-0.6-0.1c-0.1-0.4-0.3-0.7-0.7-0.7c-1.5,0-3-0.3-4.5,0.2c-0.3,0-0.6-0.1-0.9-0.1
	c-0.2-0.4-0.5-0.7-0.9-0.7c-3,0.1-6.1-0.2-9.1,0.2c-0.4,0.1-0.8,0.1-1.2-0.1c-0.1-0.3-0.3-0.5-0.6-0.6c-1.8-0.5-3.6-1.1-5.4-1.5
	c-0.8-0.2-1.5-1-2.4-0.6c-0.2,0-0.3,0-0.5-0.1c-0.4-0.9-1.2-0.6-1.9-0.6c-7.2,0-14.4,0-21.6,0c-0.6,0-1.2,0.2-1.6-0.5
	c0.5,0,1.1-0.1,1.6-0.1c7.7,0,15.3-0.5,22.9,0.1c6.9,0.6,13.7-0.1,20.5,0.7c3.9,0.5,7.8,0.3,11.8,0.5
	C187.2,111.3,187.6,111.1,187.7,110.5z"/>
<path class="st1" d="M185.1,118.8c-0.7,1-1.8,0.3-2.7,1c3.7-0.1,7.3,1.1,11.4,0.9c-0.9,1-1.7,0.6-2.4,0.6c-0.5,0.1-1,0.1-1,0.7
	c0,0.7,0.5,0.6,1,0.7c0.9,0.1,1.9-0.2,2.9,0.2c-0.4,0.7-1,0.4-1.5,0.5c-2.2,0-4.4,0-6.5,0c-0.6,0-1.2-0.1-1.5,0.7
	c-0.2,0.7-0.9,0.7-1.6,0.7c-2.6,0-5.4,0.5-7.9-0.1c-2.6-0.6-5.2-0.3-7.7-1.2c-1.1-0.4-2.5-0.3-3.6-0.8c-0.6-0.3-1-0.6-1-1.3
	c0-0.8,0.6-0.8,1.2-0.8c0.5,0,0.7-0.2,1-0.6c1-1.5,2.8-1.3,4.2-2c0.1-0.1,0.4,0.1,0.6,0.2c2.7,1.8,5.5,1,8.4,0.5
	C180.6,118.3,182.8,118.5,185.1,118.8z"/>
<path class="st3" d="M129.7,109.8c0.4,0.7,1.1,0.5,1.6,0.5c7.2,0,14.4,0,21.6,0c0.7,0,1.5-0.2,1.9,0.6c-1,0.4-2-0.1-3-0.1
	c-5.4,0.1-10.8,0-16.3,0c-2.2,0-4.5-0.1-6.7,0.3C128.7,110.5,129,110.1,129.7,109.8z"/>
<path class="st3" d="M214.9,94.7c-0.7-0.1-0.8-0.5-0.6-1.1c0.7-0.1,1.3,0,1.9,0.1c2,0.3,3.9,0.6,5.9,0.9c0.6,0.4,1.2,0.8,1,1.7
	c0.3,1.3-0.3,1.2-1.2,0.9C219.6,96.3,217.2,95.5,214.9,94.7z"/>
<path class="st3" d="M181.6,115.1c2.6-0.5,5.2-0.1,7.8-0.2c0.8,0,1.7-0.3,2.5,0.2c-0.3,0.6-0.8,0.6-1.4,0.6c-2.4,0-4.8,0-7.3,0
	C182.5,115.7,182,115.6,181.6,115.1z"/>
<path class="st3" d="M164.9,113.8c3-0.4,6.1-0.1,9.1-0.2c0.4,0,0.7,0.3,0.9,0.7c-2.9,0.3-5.8,0.1-8.7,0.1
	C165.7,114.4,165.1,114.3,164.9,113.8z"/>
<path class="st3" d="M195.5,123.3c-0.5-0.8,0-1.4,0.4-1.7c0.9-0.6,2-1,3-1.4c0.2-0.1,0.4-0.1,0.6,0c0.3,0.2,0,0.4-0.1,0.7
	c-0.2,0.5-0.6,0.7-1,0.8C197.4,122.2,196.4,122.7,195.5,123.3z"/>
<path class="st3" d="M194.4,115.4c1.6,0.2,2.6-1.1,4-1.5c1.7-0.4,3-2,4.7-2.4c-1,1.5-2.8,2.1-4.3,2.9c-0.8,0.4-1.7,0.7-2.6,1.2
	C195.7,116,194.9,116.4,194.4,115.4z"/>
<path class="st3" d="M155.3,111c0.9-0.4,1.6,0.4,2.4,0.6c1.8,0.4,3.6,1,5.4,1.5c0.3,0.1,0.5,0.3,0.6,0.6c-2.1-0.1-4-1-6-1.6
	C156.8,111.8,155.8,111.9,155.3,111z"/>
<path class="st3" d="M175.8,114.5c1.5-0.5,3-0.2,4.5-0.2c0.4,0,0.6,0.3,0.7,0.7c-1.4,0-2.8,0.1-4.2,0.1
	C176.3,115.1,175.9,114.9,175.8,114.5z"/>
<path class="st3" d="M215.5,109.9c-0.4,0-0.8,0-0.6-0.4c0.4-0.8,1.1-1.3,1.9-1.7c0.3-0.2,0.6,0.1,0.5,0.5
	C217.1,109.2,216.3,109.6,215.5,109.9z"/>
<path class="st3" d="M214.1,102.7c0.7-0.9,1.5-1.8,2.2-2.8C216.5,101.7,215.4,102.3,214.1,102.7z"/>
<path class="st3" d="M206.5,108.2c0.7-1.2,1.9-1.6,3.1-2.1C208.9,107.3,207.8,107.8,206.5,108.2z"/>
<path class="st3" d="M204,110.6c0.5-1.1,1.5-1.7,2.5-2.3C206.2,109.5,205.2,110.2,204,110.6z"/>
<path class="st3" d="M211,105c0.5-1.2,1.6-1.6,2.7-2C213.1,104.1,212.1,104.6,211,105z"/>
<path class="st3" d="M218.1,97.9c0-0.4,0-0.6,0.4-0.7C218.8,97.7,218.5,97.9,218.1,97.9z"/>
<path class="st3" d="M192.5,115c0.2-0.5,0.5-0.5,0.7,0C192.9,115.1,192.7,115.1,192.5,115z"/>
<path class="st3" d="M193.7,115.1c0.4-0.4,0.5-0.1,0.6,0.3C194.1,115.5,193.8,115.4,193.7,115.1z"/>
<path class="st3" d="M210.4,105.6c0-0.3,0.2-0.5,0.5-0.5C211,105.5,210.8,105.7,210.4,105.6z"/>
<path class="st3" d="M203.4,111.2c0-0.3,0.2-0.5,0.6-0.6C204,111,203.8,111.2,203.4,111.2z"/>
<path class="st5" d="M62,226.8c0.3,0,0.6,0.1,0.9,0.1c0.3,0.8,1,0.8,1.6,0.8c2.5,0,4.9,0,7.4,0c0.6,0,1.4,0,1.6-0.8
	c6.4,0,12.7,0,19.1,0c0.1,0,0.3,0.1,0.4,0.2c0.2,0.4,0.5,0.3,0.8,0.2l0,0c0.2,0.7,0.8,0.4,1.3,0.5c1.6,0,3.1,0,4.7,0
	c0.7,0,1.6-0.2,1.9,0.6c0.3,0.8,0.6,1.8-0.2,2.6c-0.9,0-1.8-0.1-2.6-0.1c0-1.8-0.7-2.5-2.1-2.1c-3.2,1-6.4,1.4-9.7,1.3
	c-3-0.1-6,0-8.9,0c-0.7,0-1.4,0-2.1-0.4c-1-0.7-1.8,0.3-2.3,0.8c-0.5,0.5,0.2,0.7,0.7,0.5c1,0.1,2.1-0.1,3.5,0.3
	c-1,0.5-1.7,0.3-2.5,0.4c-1.1,0.1-2.2-0.2-3.2,0.5c-1.8-0.4-3.5,0.1-5.3,0.1c-11.8,0-23.7,0-35.5,0c-1.4,0-2.7-0.1-4.1,0.2
	c-1,0.2-1.6-0.2-1.6-1.4c0-0.8,0-1.6,0-2.4c0-0.5,0.1-1.1-0.6-1.1c-0.2-0.4-0.2-0.8-0.1-1.2c1.2-1.4,2.9-1.4,4.6-1.3
	c7.8,0.4,15.6-0.7,23.3,0.6c1.1,0.2,2.3-0.1,3.4,0.4c1.6,0.4,3.2-0.1,4.8,0.3C61.1,226.8,61.5,227,62,226.8z"/>
<path class="st5" d="M134.1,206.9c0.2-0.2,0.2-0.6,0.6-0.5c0.3,0.7,0.7,1.3,1.6,1.2c0.2,0.1,0.4,0.1,0.4,0.4c-0.2,1.7-2,2.5-2.6,4
	c-0.5,0-0.7,0.3-0.5,0.7c-0.5,1.9-1.5,3.3-3,4.5c-0.5-0.1-0.7,0.1-0.6,0.6c-0.5-0.1-0.7,0.2-0.6,0.6c-0.3,0.4-0.6,0.8-1.2,0.9
	c-0.5-0.1-0.7,0.1-0.7,0.6c-1.1,0.9-2.1,1.9-3.2,2.8c-0.5-0.1-0.7,0-0.8,0.5c-1.1,0.3-1.7,1.5-2.9,1.6c-0.5-0.1-0.7,0-0.7,0.5
	c-0.2,0-0.3,0.1-0.5,0.1c-0.5-0.1-0.7,0-0.8,0.5c-1.2,0.5-2.2,1.3-3.5,1.6c-0.5-0.1-0.7,0-0.8,0.5c-1.5,0.6-3,0.3-4.6,0.3
	c-0.6-0.5-1-0.6-1.2,0.3c-1.2,0.4-1.7,1.2-1.9,2.4c0,0-0.1,0-0.1,0c-0.2-0.2-0.5-0.3-0.8-0.2c0,0,0,0,0,0c0-0.5,0.1-1.2-0.1-1.6
	c-1-1.9-0.5-3.9-0.4-5.8c0.2,0,0.4,0,0.5-0.1c0.4,0.2,1.1,0,1,0.8c0,0.3,0.1,0.7,0.5,0.7c0.5,0,0.5-0.4,0.6-0.8c0.1-0.4,0-1,0.5-1.1
	c2.3-0.5,4.2-1.8,6.3-2.7c4.5-2.1,9.2-3.9,13.4-6.6C130.6,211.9,132,209.1,134.1,206.9z"/>
<path class="st1" d="M98.8,230.8c0.9,0,1.8,0.1,2.6,0.1c-0.6,1.2-1.5,1.6-2.6,1c-1.2-0.7-2.5-0.3-3.7-0.4c-0.3,0-0.6,0.1-0.6,0.4
	c-0.1,0.4,0.4,0.4,0.6,0.6c1.9,2.1,4.3,1,6.6,1.3c0.4,0.1,0.9-0.1,1.3,0.3c-0.4,0.5-1,0.3-1.5,0.3c-3.2,0-6.5,0-9.7,0
	c-0.9,0-1.8,0-2.7-0.4c-0.4-0.2-0.9-0.4-1.3,0c-0.3,0.5,0.7,0.3,0.5,0.9c-1.8,0-3.6,0-5.7,0c1.2-0.8,2.3-0.2,3.1-0.7
	c-0.1-0.2-0.2-0.4-0.3-0.4c-3,0.1-6-0.4-9,0.4c-1.9,0.5-4,0.1-6,0.1c-0.4,0-0.8-0.3-0.8-0.8c-0.1-0.6,0.3-0.8,0.8-1
	c0.6-0.2,1.3,0.3,1.8-0.5c1-0.6,2.1-0.4,3.2-0.5c0.7,0,1.5,0.1,2.5-0.4c-1.3-0.4-2.4-0.2-3.5-0.3c0.2-0.9,0.9-1,1.6-0.7
	c0.5,0.2,1.1,0.2,1.6,0.2c3.9,0,7.9-0.1,11.8,0c2.6,0.1,5.1-0.6,7.6-1.1c0.8-0.2,1.4-0.1,1.2,1C98.1,230.8,98.2,231,98.8,230.8z"/>
<path class="st3" d="M22.1,230.8c0-0.7,0-1.5-0.1-2.2c0-0.5,0-1,0.7-1.1c0.5,0.1,0.7-0.2,0.9-0.6c0.6,0.1,0.4,0.7,0.5,1
	c0.8,1.2,0.4,2.5,0.4,3.8c0,0.4-0.3,0.6-0.7,0.6c-0.4,0.1-0.8,0-1-0.5C22.7,231.4,22.6,230.9,22.1,230.8z"/>
<path class="st3" d="M138.7,216c0.4,1.8-0.3,3.6-1.5,4.4c-0.5,0.3-1,0.5-1.4,0c-0.3-0.4,0.3-0.7,0.5-0.9c0.6-0.7,1.2-1.3,1.3-2.3
	C137.6,216.7,138.1,216.4,138.7,216z"/>
<path class="st1" d="M23.9,239.3c-0.1-0.1-0.2-0.2-0.3-0.3c0.6-1.1,0.4-2.4,0.4-3.6c0-0.6-0.2-1.3,0.8-2c0,1.9,0,3.6,0,5.3
	C24.8,239.2,24.2,239.2,23.9,239.3z"/>
<path class="st3" d="M49.8,238.9c0.9-0.9,1.7-1.4,2.7-0.7c0.5,0.3,0.5,1,0.1,1.3C51.5,240.3,50.9,239.1,49.8,238.9z"/>
<path class="st3" d="M108.5,228.7c0.2-0.9,0.7-0.8,1.2-0.3C109.4,228.8,109,228.7,108.5,228.7z"/>
<path class="st1" d="M96.4,232.8c0.5-0.5,1-0.3,1.5-0.1C97.3,233.1,96.9,232.9,96.4,232.8z"/>
<path class="st3" d="M133.6,212.7c-0.1-0.5,0-0.7,0.5-0.7C134.1,212.3,133.9,212.5,133.6,212.7z"/>
<path class="st3" d="M129.3,218.4c-0.1-0.5,0.1-0.7,0.6-0.6C129.9,218.1,129.6,218.3,129.3,218.4z"/>
<path class="st3" d="M127.4,219.8c0-0.5,0.3-0.7,0.7-0.6C128,219.6,127.8,219.9,127.4,219.8z"/>
<path class="st3" d="M123.4,223.2c0-0.5,0.3-0.7,0.8-0.5C124.1,223,123.9,223.2,123.4,223.2z"/>
<path class="st3" d="M119.8,225.3c0-0.5,0.3-0.7,0.7-0.5C120.4,225.1,120.2,225.4,119.8,225.3z"/>
<path class="st3" d="M118.6,225.9c0-0.5,0.3-0.7,0.8-0.5C119.2,225.7,119,226,118.6,225.9z"/>
<path class="st3" d="M129.9,217.8c-0.1-0.5,0.2-0.7,0.6-0.6C130.5,217.5,130.3,217.7,129.9,217.8z"/>
<path class="st3" d="M114.3,228c0-0.5,0.3-0.6,0.8-0.5C115,227.9,114.7,228.1,114.3,228z"/>
<path class="st3" d="M106.5,231C106.5,231,106.6,231,106.5,231c0.1,0.1,0.1,0.1,0.1,0.2C106.6,231.2,106.5,231.1,106.5,231z"/>
<path class="st2" d="M124.1,142.7c-0.4,0.5-0.7,1-1.1,1.6c-0.1,0-0.2,0-0.3,0c0,0.1,0,0.1,0,0.2c-0.3,0.5-0.8,0.9-1,1.6
	c-0.2-0.1-0.2,0-0.3,0.1c0,0,0.1,0.1,0.1,0.2c-0.2,0.3-0.3,0.6-0.5,0.9c-0.4,0-0.6,0.2-0.5,0.6c-0.1,0.1-0.2,0.2-0.4,0.4
	c-0.1-0.2-0.2-0.1-0.3,0c0,0,0,0.1,0,0.2c-0.1,0.1-0.2,0.2-0.3,0.3c-0.1-0.2-0.2-0.1-0.3,0c0,0,0,0.1,0,0.2c-0.5,0.5-0.9,1.1-1,1.8
	c-0.4,0-0.6,0.2-0.4,0.6c-0.3,0.7,0,1.5-0.5,2.1c-0.1,0-0.1,0-0.2,0c0,0.1,0,0.2,0,0.3c-1,1.3-0.9,3.2-2.2,4.3
	c-0.4,0-0.6,0.2-0.4,0.6c-0.4,1.4-1.5,2.3-2.2,3.5c-0.4,0.5-0.7,1.1-1,1.7c-0.3-0.1-0.4,0-0.3,0.3c-0.2,0.1-0.3,0.2-0.5,0.3
	c-0.3-0.1-0.3,0.1-0.3,0.3c-0.1,0.1-0.3,0.2-0.4,0.3c-0.4-0.1-0.4,0.1-0.4,0.4c-0.1,0-0.1,0.1-0.2,0.2c-1.2,0.3-2.2,1-3.2,1.6
	c-1.8,1.1-3.3,2.5-5.3,3.3c-0.9,0.3-2.1,0.2-2.7,1.3c-1,0-1.4,1-2.2,1.5c-0.7-0.2-1.3-0.2-1.6,0.6c-0.4,0.2-0.7,0.5-1.1,0.7
	c-0.9-0.1-1.9-0.3-2.5,0.8c-0.3,0.2-0.5,0.4-0.8,0.5c-2.7-0.3-4.3,1.9-6.6,2.7c-0.2,0.1-0.5,0.2-0.7,0.3c-0.4-0.2-0.6,0-0.8,0.3
	c-0.3,0.1-0.7,0.2-1,0.3c-0.8,0.1-1.7,0.2-2.3,1c-0.2,0.1-0.3,0.3-0.5,0.4c-0.5,0.1-0.9,0.4-0.8,1c-0.3,0.3-0.5,0.6-0.8,0.9
	c-0.8,0.3-1.5,0.7-2,1.4c-0.5,0.3-0.9,0.5-1.4,0.8c-0.4-0.1-0.6,0.1-0.7,0.5c-0.3,0.2-0.5,0.3-0.8,0.5c-0.4-0.1-0.6,0-0.7,0.4
	c-0.9,0.7-1.8,1.3-2.6,2c-0.7,0.2-1.3,0.4-1.7,1.1c0,0,0,0,0,0c-0.8,0.1-1.7-0.2-2.2,0.7c-0.5,0-0.9,0.1-1.4,0.1
	c-0.5,0-1.1,0.3-1.3-0.4c-0.2-0.6-0.2-1.2,0.3-1.7c0.3-0.3,0.6-0.7,0.9-1c2.4-2.1,3.3-5.2,5.4-7.6c1.1-1.2,1.2-3.3,2.3-4.4
	c1.3-1.3,2-3.1,3.4-4.2c1.6-1.3,2.5-3.2,4-4.7c0.5-0.5,0.7-1.2,1.4-1.4c0.9-0.3,0.3-1.3,0.8-1.8c1.3-1.4,2.1-3.2,3.6-4.5
	c2-1.8,3.9-3.6,5.1-6.1c0.2-0.4,0.6-0.8,1-1.1c1.1-1.1,2.1-2.3,3-3.5c1.6-2,3.3-4,5.2-5.7c0.7-0.6,1.8-0.9,2.5-1.6
	c0.4-0.4,0.6-0.8,0.4-1.4c-0.2-0.6-0.7-0.7-1.2-0.7c-1.1,0-2.2-0.2-3.2,0.5c-0.4,0.2-1,0.2-1.5,0.2c-4.6,0-9.2,0-13.8,0
	c-1.2,0-2.1-0.8-3.2-0.8c0-0.7,0.6-0.8,1-1.1c2.1-1.8,4.1-3.8,5.8-6.1c1-1.4,2.6-2.3,4.2-2.9c0.5-0.2,0.8-0.6,1.2-1
	c1.8-1.6,3.6-3.2,5.6-4.6c1.8-1.3,3.7-2.5,5.4-3.8c1.1-0.8,2.3-2.2,3.4-3.2c1.8-1.6,2.7-3.9,4.6-5.4c1.5-1.2,2.7-2.9,4-4.3
	c2.4-2.6,4.8-5.1,7.2-7.6c1.4-1.5,2.8-3.3,4.3-4.6c1.8-1.5,2.9-3.6,4.6-5.1c1.1-1,1.7-2.5,2.5-3.9c1-1.8,2.5-3.2,3.6-5
	c0.7-1.3,2.7-1.2,4.2-1c1.2,0.2,1.1,1.5,1.7,2.2c0.1,0.2,0.2,0.7,0,0.9c-1,1.1-1.1,2.6-1.9,3.7c-0.9,1.3-1.4,2.8-2.2,4.1
	c-0.9,1.5-1.4,3.4-3,4.5c-0.7,0.6-1,1.3-1.1,2.2c-0.2,1.4-1.4,2.5-1.6,4c-0.2,1.5-1.3,2.7-2,4c-0.7,1.3-1.3,2.8-3.3,2.5
	c-0.5-0.1-0.9,0.4-1.1,0.9c-0.1,0.4,0.1,0.7,0.5,0.9c1.8,0.7,0.8,1.7,0.3,2.6c-0.2,0.5-0.6,1-1,1.3c-2.4,2.2-3.9,5.1-5.7,7.8
	c-0.9,1.3-2.1,2.4-3.1,3.5c-0.4,0.4-0.8,0.8-0.5,1.5c0.3,0.7,0.9,0.5,1.4,0.6c2.6,0.1,5.1-1,7.7-0.7c2.3,0.2,4.6,1.2,7,0.7
	c0.4-0.1,0.7,0.2,0.7,0.6c0,1.3,0.3,2.6-0.7,3.8c-0.9,1-1.4,2.3-2.1,3.5c-0.5-0.1-0.6,0.1-0.5,0.6c-0.4,0.5-0.7,1-1.1,1.6
	c-0.5,0-0.6,0.3-0.6,0.7c-0.7,1.7-1.6,3.3-2.7,4.7c-0.3-0.1-0.4,0-0.3,0.2c-0.1,0.1-0.2,0.2-0.3,0.4
	C124.1,142.1,123.9,142.3,124.1,142.7z M74.6,177c0.6-0.7,1.4-0.7,1.9-1.1c0.5-0.4,0.5-0.9,0.2-1.3c-0.4-0.5-0.8-0.1-1,0.1
	C75.1,175.2,74.5,175.7,74.6,177z"/>
<path class="st4" d="M94.9,179.5c0.4,1.2,0.6,2.5,0.6,3.7c0,2.7,0.1,5.4,0,8.1c-0.1,2,0.5,3.9,1,5.8c0.5,2.1,0.7,4.4,0,6.5
	c-0.5,1.7-2.4,2.6-4.1,2.9c-6.3,1-12.7,1.2-18.9,0.6c-8.8-0.9-17.6,0.2-26.4-0.7c-4.2-0.4-8.4-0.5-12.7-0.6c-1,0-1.5-0.7-2.3-1.1
	c0.3-1.1,0.2-2.2,0.2-3.3c-0.1-2,0.6-3.8,1.1-5.6c0.1-0.4,0.2-0.9,0.2-1.3c-0.3-1.5,0.4-2.9,0.9-4.2c0.4-1,0.6-1.9,0.5-2.9
	c-0.3-2.2,0.5-4.3,0.7-6.4c0-0.1,0-0.2,0.1-0.3c1.9-1.6,1.1-3.8,1.2-5.8c0.1-2.1,0-4.3,0-6.4c0.1-2.3-0.6-4.4-1.2-6.6
	c-0.4-1.3-0.1-2.7-0.1-4.1c0-0.4,0.3-0.6,0.6-0.5c1,0.3,2.1,0.3,2.9,1.2c0.2,1.1,0.6,2,1.9,0.9c0.3-0.2,0.7-0.2,1.1-0.3
	c0.7-0.1,1.6,0.6,2-0.5c2.5,0,5,0.2,7.4,0c9-0.8,18-0.6,27-0.6c0.7,0,1.2-0.4,1.8-0.6c0.3-0.1,0.6-0.1,0.8,0.2
	c0.2,0.2,0,0.5-0.2,0.7c-1.5,1.8-2.5,3.9-4,5.8c-0.9,1.1-1.9,2-2.6,3.3c-1.4,0.6-1.9,2.1-2.9,3.1c-0.6,0.7-1.5,1.3-1.5,2.5
	c-1.3,1.4-2.5,2.8-3.1,4.7c-1.5,0.7-2.4,2-2.7,3.6c0,0,0,0,0,0c-0.4,0.1-0.6,0.2-0.6,0.6c-0.1,0.2-0.1,0.4-0.2,0.6
	c-2.2,0.9-2.6,3-3.4,4.9c-0.1,0.1-0.2,0.3-0.2,0.4c0,0-0.1,0.1-0.1,0.1c-0.3,1.2-0.1,2.5-0.2,3.8c0,1,0.5,1.5,1.5,1.5
	c1.8,0,3.6,0,5.4,0.1c-0.1,1.5,0.2,3,1.5,3.7c1.7,0.9,3.5,0.6,5.1-0.6c0.2-0.2,0.4-0.5,0.5-0.7c0-0.3-0.3-0.3-0.6-0.3
	c-2,0.1-2.5-1.2-2.7-2.9c1-1.4,2.6-1.4,3.9-1.8c1.4-0.5,2.7-1.3,4.1-1.8c2.6-0.8,4.8-2.4,7.3-3.4c2.8-1.2,5.5-2.6,7.8-4.7
	C94,179.8,94.4,179.5,94.9,179.5z M89.8,199.1c-0.1,0.4-0.2,0.8-0.3,1.3c-0.8,0.2-1.5,0.4-2.4,0.4c-0.9-0.1-1.8,0-2.7,0
	c-0.8,0-1.2,0.6-1.2,1.1c0,0.6,0.7,0.3,1.1,0.3c2,0.4,3.9-0.7,5.9-0.7c1.2,0,1.6-1.2,1.1-2.2c-0.1-0.3-0.1-0.5-0.2-0.8
	c0-0.5,0.2-1.2-0.6-1.2c-0.7,0-0.8,0.6-0.8,1.2C89.7,198.6,89.8,198.8,89.8,199.1z M49,183c1.7,0,4.2-2.5,4.3-4.1
	c0-0.2,0-0.4-0.2-0.5c-0.7-0.4-3.1,0.1-3.5,0.8c-0.5,0.9-0.9,1.9-1.3,2.8C48,182.6,48.2,183,49,183z M62.8,163.2
	c-2.6-0.1-4.8,0.8-7.2,1.6C58.3,166.5,61.1,165.8,62.8,163.2z M65.2,174c1.4,0.3,2.5,0,2.4-1.6c-0.1-1.7-1.6-0.9-2.5-1
	c-1.2-0.2-2,0.2-1.9,1.7C63.3,174.7,64.5,173.8,65.2,174z M86.3,191.3c-1.5,0.9-1.9,2.2-2.6,3.2c-0.3,0.4-0.6,1,0,1.3
	c0.5,0.2,1,0.1,1.3-0.4C85.7,194.2,86,192.9,86.3,191.3z"/>
<path class="st4" d="M71.8,186.2c0.3-0.2,0.5-0.3,0.8-0.5c0.4,0.1,0.7,0,0.7-0.5c0.5-0.3,0.9-0.5,1.4-0.8c0.9-0.1,1.7-0.4,2-1.4
	c0.3-0.3,0.5-0.6,0.8-0.9c0.5-0.2,0.8-0.4,0.8-1c0.2-0.1,0.3-0.3,0.5-0.4c0.9-0.1,1.7-0.3,2.3-1c0.3-0.1,0.7-0.2,1-0.3
	c0.4,0.2,0.7,0.2,0.8-0.3c0.2-0.1,0.5-0.2,0.7-0.3c0.8,0.3,1.4-0.3,2-0.5c1.6-0.6,3.1-1.4,4.6-2.2c0.3-0.2,0.5-0.4,0.8-0.5
	c0.8-0.4,1.9,0.3,2.5-0.8c0.4-0.2,0.7-0.5,1.1-0.7c0.3,0.1,0.7,0.2,1,0.3c-0.1,0.2-0.2,0.5-0.4,0.7c-0.7,0.4-0.9,1-0.9,1.7
	c-1.2,0.7-2,2-3.6,2.1c-0.1,0-0.3,0.1-0.4,0.3c-1.1,2.3-3.6,2.6-5.4,3.4c-3.1,1.4-6,3.3-9.4,4.4c-2,0.7-4,1.7-5.9,2.5
	c-0.7,0.3-1.4,0.2-2.1,0.2c0.3-0.4,0.9-0.5,0.9-1.1c0.9-0.7,1.8-1.3,2.6-2C71.4,186.7,71.7,186.6,71.8,186.2z"/>
<path class="st0" d="M48,154.8c0.6,0.1,1.1,0.2,1.7,0.2c9.9,0,19.9-0.1,29.8-0.1c0.1,0,0.2,0.1,0.3,0.1c-0.5,0.9-1.4,0.7-2.2,0.7
	c-5.9,0-11.8-0.5-17.6,0.1c-6,0.6-12.1,0-18.1,0.6c-1.5,0.2-2.7-0.4-3.8-1.5c0.4-0.2,0.7,0,1.1,0.3c1.4,0.9,2.9,0.9,4.5,0.9
	c1.2,0,1.6-1.4,2.8-1.3C47,154.7,47.5,154.7,48,154.8z"/>
<path class="st4" d="M34.2,170.5c0.1-0.4,0.2-0.8,0.3-1.2c0.1,0,0.3,0,0.4,0c0,2.7,0.1,5.4,0.1,8c0,0.3,0,0.6-0.2,0.9
	c-1.7,2.4-2,5.1-1.8,7.9c0.1,2.2-0.8,4.1-1.5,6.1c-0.4-0.4-0.2-1-0.2-1.4c-0.4-3.4,0.9-6.6,0.7-10c-0.1-1.7-0.1-3.5,0.2-5.2
	c0.5-0.6,0.8-1.4,1.1-2.2c0.3-0.1,0.3-0.2,0.2-0.5c0-0.2,0-0.5,0-0.7c0.1-0.3,0.2-0.5,0.3-0.8C34.3,171.1,34.4,170.9,34.2,170.5z"/>
<path class="st3" d="M70.4,191.8c0.2,1.6,0.7,3,2.7,2.9c0.2,0,0.6,0,0.6,0.3c0,0.3-0.2,0.6-0.5,0.7c-1.6,1.2-3.4,1.5-5.1,0.6
	c-1.4-0.7-1.6-2.2-1.5-3.7C67.8,191.9,69.1,191.7,70.4,191.8z"/>
<path class="st0" d="M98.3,172c0.6-1.1,1.8-1,2.7-1.3c2-0.8,3.6-2.2,5.3-3.3c1-0.6,2-1.3,3.2-1.6c-2,1.2-3,3.5-5.3,4.3
	c-1,0.4-1.7,1.3-2.6,2c-1.1,0.8-2.4,1.2-3.6,1.8C98.1,173.3,98.2,172.7,98.3,172z"/>
<path class="st3" d="M32.2,175.4c-0.3,1.7-0.3,3.5-0.2,5.2c0.2,3.4-1.1,6.6-0.7,10c0.1,0.5-0.2,1,0.2,1.4c0,0.4,0,0.8,0,1.2
	c-0.2,0.1-0.3,0.2,0,0.4c-0.1,0.3-0.1,0.6-0.5,0.7c-0.5-0.7-0.3-1.4-0.4-2.2c-0.3-5.2,1.1-10.3,0.6-15.4
	C31.3,176.2,31.4,175.5,32.2,175.4z"/>
<path class="st0" d="M207.7,100.9c0.2,1.3-1,1.5-1.7,2c-2.9,2.2-6.1,4-8.8,6.6c-0.2,0-0.5,0-0.7,0c0.3-0.6,0.7-1.1,0.6-1.9
	c0-0.9,0.7-0.7,1.2-0.7c0.6,0,1.2,0.1,1.6-0.3C202.2,104.3,205.3,103.1,207.7,100.9z"/>
<path class="st3" d="M197,107.6c0.1,0.7-0.3,1.3-0.6,1.9c-1.6,0.5-3.2,0.2-4.8,0C193.6,109,195.1,107.5,197,107.6z"/>
<path class="st3" d="M139,107.3c-0.7,0.7-1.6,0.3-2.4,0.3c-1.6,0.1-3.2,0-4.8,0c-0.4,0-0.9,0.2-1-0.4c-0.1-0.6,0.4-0.9,0.9-1
	c0.8,0,1.6-0.2,2.4,0.1c0,0,0,0,0,0c0.2,0.7,0.7,0.6,1.2,0.6c1.2,0,2.5,0.1,3.7,0.1c0,0,0,0.1,0,0.1
	C138.9,107.2,139,107.2,139,107.3z"/>
<path class="st0" d="M143.3,78.6c1.3,0.9,1.9,2.3,1.3,3.9c-0.4,1.1-0.9,2.2-2.1,2.8c0-0.2-0.2-0.6-0.1-0.7
	C144.5,82.9,143.8,80.7,143.3,78.6z"/>
<path class="st0" d="M213.8,95.3c-1,0.6-1.3,1.7-2.2,2.4c-1.3,1-2.1,2.8-4,3.1c1.4-1.4,2.7-2.8,4.2-4.2c0.4-0.4,0.7-0.6,0.9-1.1
	C213,94.9,213.4,94.7,213.8,95.3z"/>
<path class="st0" d="M60.2,187c0.8-1.8,1.2-4,3.4-4.9C63.6,184.4,61.6,185.5,60.2,187z"/>
<path class="st0" d="M222.1,94.6c-2-0.3-3.9-0.6-5.9-0.9c-0.6-0.1-1.3-0.3-1.9-0.1c-0.1-0.2,0-0.4,0.2-0.4
	C217.1,93.1,219.7,93.4,222.1,94.6z"/>
<path class="st0" d="M70.2,172.5c0-1.1,0.9-1.7,1.5-2.5c0.9-1.1,1.5-2.5,2.9-3.1c0.2,0.7-0.4,1.3-0.7,1.6
	C72.3,169.5,71.7,171.4,70.2,172.5z"/>
<path class="st3" d="M98.3,172c-0.1,0.6-0.2,1.3-0.3,1.9c-0.4,0.6-1,0.8-1.5,1.2c-0.4-0.2-0.9,0.4-1.3,0c0.1-0.2,0.2-0.5,0.4-0.7
	c0.5-0.1,0.4-0.6,0.5-0.9C96.8,173.1,97.2,172.1,98.3,172z"/>
<path class="st0" d="M64.4,180.9c0.3-1.7,1.1-2.9,2.7-3.6C67.1,179.1,65.8,180,64.4,180.9z"/>
<path class="st3" d="M42.3,158.9c-0.4,0.1-0.8,0.1-1.1,0.3c-1.3,1-1.7,0.2-1.9-0.9c1,0,2,0.1,2.9,0.1
	C42.3,158.6,42.3,158.7,42.3,158.9z"/>
<path class="st0" d="M35,169.3c-0.1,0-0.3,0-0.4,0c0-1.1-0.1-2.3-0.1-3.4C35.7,166.8,35,168.1,35,169.3z"/>
<path class="st0" d="M33.7,155.6c-0.1-1.4,1-2.1,2.3-1.5c0.3,0.2,0.6,0.5,0.9,0.7c-0.2,0-0.5,0.1-0.7,0
	C35,154,34.3,154.7,33.7,155.6z"/>
<path class="st0" d="M183.3,108.3c0.1,0,0.2-0.1,0.3-0.1c0.8,0,1.7,0,2.5,0c0.3,0,0.6,0.1,0.6,0.5c0,0.3-0.3,0.4-0.6,0.4
	C185.2,108.9,183.9,109.8,183.3,108.3z"/>
<path class="st0" d="M142,86.6c-0.3,1.4-1.3,2.3-2.1,3.4C140.2,88.6,140.7,87.3,142,86.6z"/>
<path class="st0" d="M95.2,175.2c0.4,0.5,0.8-0.1,1.3,0c-0.6,0.8-0.9,1.9-2.2,1.7C94.2,176.1,94.5,175.5,95.2,175.2z"/>
<path class="st0" d="M64.5,190.4c0.5-0.9,1.4-0.6,2.2-0.7C66.1,190.5,65.4,190.7,64.5,190.4z"/>
<path class="st0" d="M134.1,78.1c0.4-0.9,1.1-1.4,2.2-1.2C135.8,77.8,134.8,77.7,134.1,78.1z"/>
<path class="st0" d="M42.3,158.9c0-0.2-0.1-0.3-0.1-0.5c0.7-0.2,1.4-0.1,2.1,0C43.9,159.5,43,158.8,42.3,158.9z"/>
<path class="st0" d="M68.4,188.6c0,0.6-0.7,0.7-0.9,1.1c-0.3,0-0.5,0-0.8,0C67.1,189,67.7,188.7,68.4,188.6z"/>
<path class="st0" d="M34.3,163.3c-0.8-0.1-0.9-0.6-0.6-1.2C34,162.4,34.4,162.7,34.3,163.3z"/>
<path class="st0" d="M127.9,136.8c0-0.4,0.1-0.8,0.6-0.7C128.4,136.5,128.2,136.7,127.9,136.8z"/>
<path class="st0" d="M139,107.3c0-0.1-0.1-0.1-0.1-0.2c0,0,0-0.1,0-0.1c0.2-0.2,0.3-0.5,0.5-0.7c0.5,0,0.5,0.3,0.4,0.6
	C139.8,107.5,139.3,107.3,139,107.3z"/>
<path class="st0" d="M118,151.6c-0.1-0.4,0.1-0.6,0.4-0.6C118.5,151.3,118.3,151.5,118,151.6z"/>
<path class="st0" d="M120.6,147.9c-0.1-0.4,0.1-0.6,0.5-0.6C121.2,147.7,121,147.9,120.6,147.9z"/>
<path class="st0" d="M114.6,158.9c-0.1-0.4,0-0.6,0.4-0.6C115.1,158.6,114.9,158.8,114.6,158.9z"/>
<path class="st0" d="M124.1,142.7c-0.1-0.4,0-0.6,0.5-0.6C124.5,142.5,124.3,142.6,124.1,142.7z"/>
<path class="st0" d="M129.5,134.5c-0.1-0.4,0-0.6,0.5-0.6C130,134.3,129.8,134.4,129.5,134.5z"/>
<path class="st0" d="M187.7,110.5c-0.2,0.6-0.5,0.8-1.1,0.6C186.9,110.6,187.1,110.2,187.7,110.5z"/>
<path class="st0" d="M209.9,93.8c-0.6,0-0.9-0.3-1-0.8C209.6,92.8,209.9,93.1,209.9,93.8z"/>
<path class="st0" d="M30.7,204.6c-0.4,0.1-0.8,0-0.5-0.6C30.5,204.1,30.7,204.2,30.7,204.6z"/>
<path class="st0" d="M124.9,141.8c-0.1-0.3,0-0.3,0.3-0.2C125.2,141.8,125.1,141.9,124.9,141.8z"/>
<path class="st0" d="M109.6,165.7c-0.1-0.3,0-0.5,0.4-0.4C110,165.5,109.9,165.6,109.6,165.7z"/>
<path class="st0" d="M111.1,164.3c-0.1-0.3,0-0.4,0.3-0.3C111.5,164.3,111.4,164.4,111.1,164.3z"/>
<path class="st0" d="M122.8,144.5c0-0.1,0-0.1,0-0.2c0.1,0,0.2,0,0.3,0C123,144.5,123,144.6,122.8,144.5z"/>
<path class="st0" d="M121.6,146.4c0-0.1-0.1-0.1-0.1-0.2c0-0.1,0.1-0.2,0.3-0.1C121.9,146.3,121.8,146.4,121.6,146.4z"/>
<path class="st0" d="M120,148.5c0-0.1-0.1-0.2,0-0.2c0.1-0.1,0.2-0.2,0.3,0C120.3,148.5,120.2,148.6,120,148.5z"/>
<path class="st0" d="M117.3,154c0-0.1,0-0.2,0-0.3c0.1,0,0.1,0,0.2,0C117.6,153.9,117.5,154,117.3,154z"/>
<path class="st0" d="M85.8,153.6c-0.1-0.4,0-0.6,0.4-0.7C86.4,153.3,86.2,153.5,85.8,153.6z"/>
<path class="st0" d="M119.4,149.1c0-0.1-0.1-0.2,0-0.2c0.1-0.1,0.2-0.2,0.3,0C119.7,149.1,119.6,149.2,119.4,149.1z"/>
<path class="st0" d="M30.3,198.2c-0.4-0.6,0-0.6,0.5-0.6C30.8,198,30.6,198.2,30.3,198.2z"/>
<path class="st0" d="M142.5,86c0.1,0.4-0.1,0.5-0.5,0.6C142,86.3,142.2,86.1,142.5,86z"/>
<path class="st0" d="M63.8,181.5c0-0.4,0.2-0.6,0.6-0.6C64.4,181.2,64.2,181.4,63.8,181.5z"/>
<path class="st0" d="M133.2,79c0-0.4,0.2-0.6,0.6-0.6c-0.1,0.2-0.2,0.5-0.4,0.7c0,0-0.1,0-0.1,0L133.2,79z"/>
<path class="st0" d="M110.4,164.9c0-0.2,0-0.4,0.3-0.3C110.7,164.9,110.6,165,110.4,164.9z"/>
<path class="st4" d="M31.5,193.7c-0.2-0.1-0.2-0.3,0-0.4C31.5,193.5,31.5,193.6,31.5,193.7z"/>
<path class="st0" d="M133.8,78.4c0.1-0.1,0.2-0.2,0.3-0.3C134,78.2,133.9,78.3,133.8,78.4z"/>
<polygon class="st0" points="59.9,187.4 60,187.3 60,187.4 "/>
<path class="st0" d="M105.2,223.4c-0.1,2-0.6,3.9,0.4,5.8c0.2,0.4,0.1,1.1,0.1,1.6c-0.6,0-0.2-1.7-1.4-0.8c-0.1,0.1-0.4-0.6-0.3-0.9
	c1.1-1.5,0.3-3.2,0.5-4.8c-0.4,0.8-0.2,1.7-0.7,2.5c-1-1.2-2.3-1.3-3.7-1.2c-1.6,0.1-3.2,0.1-4.9,0c-0.4,0-1.8,0.6-1.1-1
	c0.1-0.3-0.3-0.3-0.5-0.3c-1.1,0.1-2.2-0.3-3.2,0.5c-0.3,0.2-0.7,0.3-1,0c0.7-0.7,1.5-0.9,2.5-0.9c2.9,0,5.9,0,8.8,0
	c1.1,0,2-0.2,2.1-1.6c0-0.6,0.4-1,1-1c1.4-0.1,2.6-0.7,3.8-1.3c0.1-0.1,0.4,0,0.6,0.1c-0.8,0.8-1.8,1.3-2.8,1.5
	c-1,0.1-1.9,0.2-1.8,1.6c0,0.2-0.3,0.4-0.5,0.7C103.8,224.3,104.4,223.3,105.2,223.4z"/>
<path class="st0" d="M56.2,225.9c-1.1-0.5-2.3-0.2-3.4-0.4c-7.7-1.4-15.5-0.3-23.3-0.6c-1.7-0.1-3.3-0.1-4.6,1.3
	c0.3-1.1,0.9-1.7,2-1.7c7.9,0,15.9-0.1,23.8,0.1c1.5,0,3.1,0.6,4.7,0.7C55.9,225.3,56.2,225.5,56.2,225.9z"/>
<path class="st0" d="M73.6,226.9c-0.3,0.8-1,0.8-1.6,0.8c-2.5,0-4.9,0-7.4,0c-0.6,0-1.4,0-1.6-0.8C66.5,227.5,70,227.5,73.6,226.9z"
	/>
<path class="st0" d="M55.8,223.3c2.2,0.9,4.7-0.2,6.8,1.3C60.4,223.8,57.9,224.9,55.8,223.3z"/>
<path class="st0" d="M29.9,221.3c-0.3,0.4-1.3,0.4-0.9,1.3c-1.1,0.3-1-0.3-0.6-0.9C28.7,221.2,29.2,220.9,29.9,221.3z"/>
<path class="st0" d="M51.1,222.7c0.7-0.3,1.2-0.2,1.5,0.5C51.9,223.6,51.4,223.2,51.1,222.7z"/>
<path class="st0" d="M63.5,224.8c0.6-0.2,0.9,0.1,1.1,0.6C63.9,225.6,63.6,225.3,63.5,224.8z"/>
<path class="st0" d="M71.9,225.3c0.2-0.4,0.5-0.8,1.1-0.6C72.8,225.3,72.5,225.6,71.9,225.3z"/>
<path class="st0" d="M62,226.8c-0.6,0.2-0.9,0-1.1-0.5C61.6,225.9,61.8,226.4,62,226.8z"/>
<path class="st0" d="M23.7,226.8c-0.2,0.4-0.4,0.7-0.9,0.6C22.9,227,23.1,226.5,23.7,226.8z"/>
<path class="st0" d="M93.9,227.2c-0.3,0.1-0.6,0.2-0.8-0.2C93.5,226.3,93.7,226.8,93.9,227.2z"/>
<path class="st0" d="M117.3,94c-0.1-2.4-0.3-4.8,0.4-7.2c0.7-2.5,0.2-5.1,0.3-7.6c0-0.6-0.2-1.3,0.4-1.8c1.4,3.3,0.6,6.6-0.1,9.9
	c-0.4,1.7-0.4,3.4-0.5,5.1c0,0.6,0.2,1.2-0.3,1.7C117.5,94,117.4,94,117.3,94z"/>
<path class="st0" d="M123.9,87.6c-0.5-0.6-0.8-1.2-0.7-2.1c0.1-1.8,0.1-3.6,0-5.4c0-0.9,0.4-1.5,1.5-2c0,2.4,0,4.6,0,6.8
	c0,0.6-0.1,1.4,0.7,1.6C125.1,87.1,124.4,87.2,123.9,87.6z"/>
<path class="st4" d="M120.1,90.4c0-0.5,0.1-0.7,0.6-0.5C120.8,90.5,120.5,90.5,120.1,90.4z"/>
<path class="st0" d="M134.1,206.9c-2,2.2-3.4,5-6.1,6.7c-4.2,2.7-8.9,4.5-13.4,6.6c-2.1,1-4,2.2-6.3,2.7c-0.6,0.1-0.5,0.7-0.5,1.1
	c-0.1,0.4-0.1,0.8-0.6,0.8c-0.4,0-0.5-0.4-0.5-0.7c0.1-0.8-0.6-0.6-1-0.8c1.1-1.1,2.7-0.8,3.9-1.5c0.5-0.3,0.9-0.4,1.3-0.8
	c1.4-1.5,3-2.7,4.9-3.6c0.1,0.5-0.6,0.5-0.5,1.1c1.2-0.1,2.1-0.9,3.1-1.3c3.1-1.2,6.1-2.7,8.9-4.5c1.2-0.8,2.3-1.6,3-2.8
	c0.8-1.2,1.7-2.5,3.2-3.1C133.8,206.6,133.9,206.7,134.1,206.9z"/>
<path class="st3" d="M133.6,206.7c-1.5,0.6-2.4,1.9-3.2,3.1c-0.8,1.3-1.9,2.1-3,2.8c-2.8,1.9-5.8,3.3-8.9,4.5
	c-1,0.4-1.9,1.2-3.1,1.3c-0.1-0.6,0.6-0.6,0.5-1.1c0.1-0.1,0.1-0.1,0.2-0.1c1.8-0.6,3.2-2.1,5.1-2.6c0.8-0.2,1.4-0.9,1.8-1.7
	c0.3-0.2,0.6-0.5,0.9-0.7c1.4-0.5,2.7-1.1,3.6-2.5l0,0c0.4,0,0.6-0.2,0.6-0.6c0-0.1,0.1-0.1,0.2-0.2c0.4,0,0.5-0.2,0.5-0.6
	c0.1-0.1,0.1-0.1,0.2-0.2c0.4,0,0.6-0.2,0.6-0.6l0,0c0.4,0,0.6-0.2,0.6-0.6l0,0c0.4,0,0.6-0.2,0.6-0.6c0.3-0.1,0.6-0.2,0.9-0.4
	c0.5,0.1,0.6-0.2,0.5-0.7c0.1-0.4,0.3-0.6,0.7-0.6c0.5,0.1,0.9,0.4,1,0.9C133.7,206,133.6,206.4,133.6,206.7z"/>
<path class="st0" d="M108.5,219.8c3.5-2.5,7.1-5,10.9-7.2c2.4-1.4,5.2-2.7,6.8-5.3c0.5-0.7,1.2-1.2,2-1.6c-1.3,1.8-2.6,3.6-4.6,4.6
	c-0.2,0.1-0.5,0.2-0.7,0.3c-3.9,3.3-8.7,5.2-12.6,8.5C109.9,219.5,109.4,220.3,108.5,219.8z"/>
<path class="st0" d="M122.9,213c-0.4,0.8-0.9,1.5-1.8,1.7c-1.9,0.5-3.2,2-5.1,2.6c0.5-0.8,1.3-1.2,2.1-1.6
	C119.7,214.7,121.3,213.8,122.9,213z"/>
<path class="st0" d="M136.9,204c0.5,0,0.9,0.2,0.8,0.8c0,0.4,0,1-0.7,0.9c-0.5-0.1-0.9-0.4-0.9-1C136.2,204.2,136.5,204,136.9,204z"
	/>
<path class="st0" d="M127.4,209.8c-0.8,1.3-2.2,2-3.6,2.5C124.8,211.2,126.1,210.4,127.4,209.8z"/>
<path class="st0" d="M129.4,204.8c0-0.5-0.4-0.5-0.6-0.7c0-0.1,0.1-0.2,0.1-0.3c0.4-0.5,0.9-0.6,1.5-0.3c0.2,0.1,0.4,0.2,0.2,0.5
	C130.3,204.4,130.2,205,129.4,204.8z"/>
<path class="st0" d="M136.3,207.6c-0.9,0-1.3-0.5-1.6-1.2C135.6,206.3,135.9,207,136.3,207.6z"/>
<path class="st0" d="M133.8,205.7c-0.2-0.5-0.5-0.7-1-0.9c0.4-0.7,0.9-0.5,1.3,0C134.4,205.2,134.4,205.6,133.8,205.7z"/>
<path class="st0" d="M132.1,205.4c0.1,0.4,0,0.7-0.5,0.7C131.6,205.8,131.8,205.6,132.1,205.4z"/>
<path class="st0" d="M130.8,206.4c0,0.4-0.2,0.6-0.6,0.6C130.1,206.6,130.3,206.4,130.8,206.4z"/>
<path class="st0" d="M130.1,207c0,0.4-0.2,0.6-0.6,0.6C129.5,207.2,129.7,207,130.1,207z"/>
<path class="st0" d="M129.5,207.6c0,0.4-0.2,0.6-0.6,0.6C128.9,207.8,129.1,207.6,129.5,207.6z"/>
<path class="st0" d="M128.7,208.4c0,0.4-0.2,0.5-0.5,0.6C128.1,208.5,128.3,208.3,128.7,208.4z"/>
<path class="st0" d="M128,209.2c0,0.4-0.2,0.6-0.6,0.6C127.4,209.4,127.6,209.2,128,209.2z"/>
<path class="st0" d="M174.5,95.4c-0.2,0.4-0.4,0.7-0.5,1.1c-0.4-0.3-0.2-0.8-0.2-1.1c0-14.1,0-28.3,0-42.4c0-0.4-0.2-0.9,0.2-1.3
	c0.1,0,0.2-0.1,0.2,0c0,0.3,0,0.7,0.3,0.9C174.5,66.8,174.5,81.1,174.5,95.4z"/>
<path class="st0" d="M157.3,91.1c-1.6,0-2.9,0-4.1,0c-3,0-6,0-9,0c-0.3,0-0.8,0.2-0.9-0.3c-0.1-0.4,0.3-0.6,0.6-0.8
	c0.6-0.3,1.2-0.4,1.9-0.4c2.7,0,5.5,0,8.2,0C155.3,89.7,156.2,89.9,157.3,91.1z"/>
<path class="st0" d="M124.1,66.6c0-2.6,0-4.9,0-7.2c0-0.3,0-0.7,0.4-0.7c0.2,0,0.5,0.2,0.6,0.4C126,60.4,125.5,65.1,124.1,66.6z"/>
<path class="st3" d="M134.2,57.6c-0.9,0.1-1.3-0.1-1.2-0.9c0-0.4-0.1-0.9,0.5-0.8c0.6,0.1,1.3,0.4,1.4,1.1
	C135,57.6,134.4,57.5,134.2,57.6z"/>
<path class="st0" d="M158.8,90.8c1.1-0.5,2-0.7,2.8,0.2c0.3,0.3,0.1,0.7-0.2,0.9C160.2,92.4,159.6,91.5,158.8,90.8z"/>
<path class="st0" d="M167.6,97.7c-1.9-0.1-3.9,0.4-5.7-0.3c1.8-0.3,3.7-0.1,5.5-0.1C167.6,97.3,167.8,97.5,167.6,97.7z"/>
<path class="st0" d="M154.3,62.2c-0.9-0.1-1.2-0.7-1.5-1.3c-0.2-0.5,0.4-0.6,0.7-0.6c0.6,0,1.2,0.3,1.2,1.1
	C154.7,61.7,154.7,62.1,154.3,62.2z"/>
<path class="st3" d="M173.3,45.8c0.4,0,0.8,0.2,0.8,0.5c0,1.5,0.5,3-0.3,4.4c-0.1,0-0.2-0.1-0.4-0.1c0.1-1.4,0.4-2.7-0.2-4.1
	C173.3,46.3,173.3,46.1,173.3,45.8z"/>
<path class="st0" d="M173.3,46.6c0.6,1.3,0.3,2.7,0.2,4.1C172.7,49.3,173.1,47.9,173.3,46.6z"/>
<path class="st0" d="M172.3,98.1c-1.2,0.4-2.5,0.5-3.7,0C169.8,97.8,171,97.8,172.3,98.1z"/>
<path class="st0" d="M170.4,43.9c0.2,0,0.3,0.1,0.5,0.1c0.2,0.2,0.4,0.4,0.6,0.6c-0.3,0.3-0.7,0.2-1,0.1
	C170.4,44.5,170.4,44.2,170.4,43.9z"/>
<path class="st3" d="M171.4,44.7c-0.2-0.2-0.4-0.4-0.6-0.6c0.8-0.7,1.1-0.2,1.3,0.5C171.9,44.6,171.7,44.6,171.4,44.7z"/>
<path class="st0" d="M173.5,97.4c0,0.2-0.1,0.4-0.4,0.4C173,97.3,173.3,97.3,173.5,97.4z"/>
<path class="st4" d="M126.7,42.6c0.4-0.5,1-0.3,1.6-0.3c7.2,0,14.5,0,21.7,0c2,0,3.9,0.1,5.8,0.7c0.7,0.3,1.6,0.2,2.4,0.2
	c2.9,0,5.8,0,8.7,0c0.3,0.1,0.5,0.1,0.8,0.2c-0.2,0.7-0.9,0.6-1.4,0.6c-5.6,0-11.2,0.5-16.7-0.1c-6.7-0.8-13.4-0.2-20.1-0.5
	C128.6,43.2,127.5,43.4,126.7,42.6z"/>
<path class="st0" d="M118.5,42.2c-0.1-1.5,1.1-1.2,1.8-1.1c1.1,0.2,2.3,0.6,3.4,0.9c-0.9,0.3-1.9,0.2-2.8-0.2
	C120,41.3,119.3,41.5,118.5,42.2z"/>
<path class="st0" d="M124.2,42.1c0.6-0.2,1.2-0.2,1.6,0.4C125.3,42.6,124.6,42.9,124.2,42.1z"/>
<path class="st0" d="M118.5,73c-0.4-0.2-0.9-0.5-0.6-1.1C118.3,72.1,118.6,72.4,118.5,73z"/>
<path class="st0" d="M117.9,47.2c-0.2-0.6,0.1-0.9,0.6-1.1C118.6,46.6,118.2,46.9,117.9,47.2z"/>
<path class="st0" d="M117.2,51.1c-0.2-0.5,0.1-0.8,0.6-1C118,50.7,117.5,50.9,117.2,51.1z"/>
<path class="st0" d="M117.8,70.3c-0.4-0.3-0.9-0.5-0.6-1.1C117.6,69.4,118,69.7,117.8,70.3z"/>
<path class="st0" d="M169.7,43.4c0.4-0.1,0.7,0.1,0.7,0.5C169.9,44,169.7,43.8,169.7,43.4z"/>
<path class="st0" d="M167.6,43.4c-0.3-0.1-0.5-0.1-0.8-0.2C167.2,42.8,167.4,42.9,167.6,43.4C167.6,43.3,167.6,43.4,167.6,43.4z"/>
<path class="st3" d="M174.5,52.6c-0.3-0.2-0.3-0.6-0.3-0.9c0.2-0.2,0.4-0.4,0.5-0.1C174.9,52,174.9,52.3,174.5,52.6z"/>
<path class="st1" d="M139.4,106.3c-0.2,0.2-0.3,0.5-0.5,0.7c-1.2,0-2.5-0.1-3.7-0.1c-0.5,0-1,0.1-1.2-0.6
	C135.8,106,137.6,106.1,139.4,106.3z"/>
<path class="st3" d="M48,154.8c-0.5,0-1,0-1.5,0C47,153.8,47.5,153.8,48,154.8z"/>
<path class="st3" d="M33.6,172c0,0.2,0,0.5,0,0.7c-0.1,0-0.2,0-0.4,0c-0.2-0.1-0.4-0.2-0.3-0.4C33,172,33.3,172.1,33.6,172z"/>
<path class="st3" d="M34.2,170.5c0.1,0.4,0.1,0.6-0.4,0.7c-0.1-0.1-0.3-0.3-0.3-0.4C33.6,170.5,34,170.5,34.2,170.5z"/>
<path class="st0" d="M33.2,172.7c0.1,0,0.2,0,0.4,0c0.1,0.2,0,0.4-0.2,0.5C33.3,173.1,33.3,172.9,33.2,172.7z"/>
<path class="st0" d="M98.8,230.8c-0.6,0.2-0.7,0-0.6-0.5c0.2-1.1-0.4-1.2-1.2-1c-2.5,0.6-5,1.2-7.6,1.1c-3.9-0.1-7.9,0-11.8,0
	c-0.6,0-1.1,0-1.6-0.2c-0.7-0.3-1.4-0.2-1.6,0.7c-0.5,0.1-1.2,0-0.7-0.5c0.5-0.5,1.4-1.5,2.3-0.8c0.7,0.5,1.4,0.4,2.1,0.4
	c3,0,6-0.1,8.9,0c3.3,0.1,6.6-0.3,9.7-1.3C98.1,228.3,98.8,229,98.8,230.8z"/>
<path class="st0" d="M90.1,176.2c-1.5,0.7-3,1.5-4.6,2.2c-0.6,0.3-1.2,0.9-2,0.5C85.7,178.1,87.4,175.9,90.1,176.2z"/>
<path class="st0" d="M74.6,177c-0.1-1.3,0.5-1.8,1-2.3c0.2-0.2,0.7-0.6,1-0.1c0.3,0.5,0.3,1-0.2,1.3C76,176.3,75.3,176.3,74.6,177z"
	/>
<path class="st0" d="M96.1,173.5c-0.1,0.4,0,0.8-0.5,0.9c-0.3-0.1-0.7-0.2-1-0.3C94.7,173.3,95.4,173.3,96.1,173.5z"/>
<path class="st0" d="M93.4,174.9c-0.6,1.1-1.7,0.4-2.5,0.8C91.4,174.6,92.4,174.8,93.4,174.9z"/>
<path class="st0" d="M76.6,183c-0.3,1-1,1.3-2,1.4C75.1,183.7,75.8,183.3,76.6,183z"/>
<path class="st0" d="M80.9,179.8c-0.6,0.7-1.4,0.9-2.3,1C79.2,179.9,80.1,179.9,80.9,179.8z"/>
<path class="st0" d="M78.1,181.2c0,0.5-0.3,0.8-0.8,1C77.3,181.6,77.6,181.3,78.1,181.2z"/>
<path class="st0" d="M71.8,186.2c-0.1,0.4-0.3,0.5-0.7,0.4C71.2,186.2,71.4,186,71.8,186.2z"/>
<path class="st0" d="M82.7,179.2c-0.1,0.5-0.4,0.5-0.8,0.3C82.1,179.2,82.4,179,82.7,179.2z"/>
<path class="st0" d="M73.3,185.2c0,0.4-0.3,0.6-0.7,0.5C72.7,185.4,72.9,185.1,73.3,185.2z"/>
<path class="st3" d="M49,183c-0.8,0.1-1-0.3-0.7-1c0.4-1,0.8-1.9,1.3-2.8c0.4-0.7,2.8-1.2,3.5-0.8c0.2,0.1,0.2,0.3,0.2,0.5
	C53.2,180.4,50.7,182.9,49,183z"/>
<path class="st3" d="M62.8,163.2c-1.7,2.7-4.5,3.3-7.2,1.6C58.1,163.9,60.3,163,62.8,163.2z"/>
<path class="st3" d="M65.2,174c-0.7-0.2-1.9,0.7-2-1c0-1.4,0.8-1.8,1.9-1.7c0.9,0.1,2.4-0.7,2.5,1C67.7,174,66.6,174.3,65.2,174z"/>
<path class="st0" d="M91.3,199.2c0.6,1,0.1,2.2-1.1,2.2c-2,0-3.9,1.1-5.9,0.7c-0.4-0.1-1.1,0.2-1.1-0.3c0-0.5,0.4-1.1,1.2-1.1
	c0.9,0,1.8-0.1,2.7,0c0.8,0.1,1.6-0.2,2.4-0.4c0.1,0.6,0.4,0.7,0.9,0.5C91.3,200.6,91.3,199.9,91.3,199.2z"/>
<path class="st3" d="M86.3,191.3c-0.3,1.6-0.6,2.9-1.3,4.1c-0.3,0.5-0.8,0.7-1.3,0.4c-0.7-0.3-0.3-0.9,0-1.3
	C84.4,193.5,84.8,192.2,86.3,191.3z"/>
<path class="st3" d="M91.3,199.2c-0.1,0.7,0,1.4-0.9,1.7c-0.5,0.2-0.9,0.1-0.9-0.5c0.1-0.4,0.2-0.8,0.3-1.3c0.4-0.3,0.7-0.8,1.3-0.7
	C91.2,198.7,91.3,198.9,91.3,199.2z"/>
<path class="st0" d="M91.1,198.4c-0.6-0.1-0.9,0.4-1.3,0.7c0-0.2-0.1-0.5-0.1-0.7c-0.1-0.6,0.1-1.2,0.8-1.2
	C91.3,197.2,91.2,197.9,91.1,198.4z"/>
</svg>
