<?xml version="1.0" encoding="utf-8"?>
<!-- Generator: Adobe Illustrator 26.2.1, SVG Export Plug-In . SVG Version: 6.00 Build 0)  -->
<svg version="1.1" id="Calque_1" xmlns="http://www.w3.org/2000/svg" xmlns:xlink="http://www.w3.org/1999/xlink" x="0px" y="0px"
	 viewBox="0 0 256 256" style="enable-background:new 0 0 256 256;" xml:space="preserve">
<style type="text/css">
	.st0{fill:#FE2601;}
	.st1{fill:#941100;}
	.st2{fill:#FEFEFE;}
</style>
<path class="st0" d="M117,212.3c-5.8,0-11.6,0-17.3,0c-0.7,0-1.2-0.1-1.5-0.8c-0.2-0.4-0.6-0.6-1.1-0.6c-1.4,0-2.8,0-4.1,0
	c-0.5,0-0.9-0.1-1.1-0.5c-0.3-0.7-0.8-0.8-1.5-0.8c-1.3,0-2.5,0-3.8,0c-0.6,0-1-0.1-1.3-0.6c-0.3-0.6-0.7-0.8-1.4-0.7
	c0,0-0.1,0-0.1,0c-1.2-0.7-2.5-1.2-3.7-2c-0.5-0.3-0.8-0.7-1.5-0.7c-0.6,0-1.3,0.2-1.7,0c-0.9-0.7-2-1-3-1.5
	c-0.8-0.4-1.3-1.2-2.3-1.1c-0.1,0-0.3-0.1-0.3-0.2c-0.5-0.9-1.3-0.9-2.2-1.2c-0.8-0.2-1.4-1.1-2-1.8c-0.7-0.6-1.2-1.4-1.9-1.9
	c-0.4-0.4-0.7-0.7-0.6-1.3c0.1-0.6-0.3-1-0.7-1.4c-1.1-1-2.2-2.1-3.2-3.2c-0.5-0.6-1.2-1-1.7-1.7c-0.1-0.1-0.3-0.2-0.4-0.2
	c-1,0.1-1.6-0.5-2.3-1.1c-0.7-0.6-0.9-1.2-0.9-2.1c0.1-0.9,0.1-1.8-0.9-2.3c-0.4-0.2-0.3-0.6-0.3-1c0.1-0.6-0.1-1.1-0.7-1.4
	c-0.6-0.3-0.7-0.8-0.6-1.3c0.1-0.6-0.1-1-0.6-1.3c-0.7-0.4-1-1.3-1.8-1.7c-0.1-0.1-0.2-0.2-0.2-0.3c0.2-1.7-1.2-2.4-2.2-3.3
	c-0.3-0.3-0.5-0.6-0.4-1c0-1,0-1.9,0-2.9c0-0.5-0.1-0.9-0.6-1.1c-0.6-0.3-0.8-0.8-0.7-1.4c0,0,0-0.1,0-0.1c-0.8-1.2-1.1-2.6-1.9-3.7
	c-0.4-0.5-0.7-0.8-0.7-1.5c0.1-0.6-0.2-1-0.7-1.2c-0.6-0.2-0.7-0.6-0.7-1.1c0-0.7,0-1.4,0-2.1c0-0.9,0-1.7-0.9-2.2
	c-0.3-0.2-0.4-0.5-0.4-0.9c0-8.8,0-17.6,0-26.4c0-0.5,0.2-0.9,0.6-1.1c0.5-0.3,0.7-0.7,0.7-1.4c0-3,0-6,0-9.1c0-0.6,0.1-1.1,0.7-1.4
	c0.6-0.3,0.6-0.9,0.6-1.4c0-1-0.2-2.1,1.1-2.7c0.4-0.2,0.3-0.6,0.3-1c0-2.2,0-4.3,0-6.5c0-0.6,0.1-1.1,0.7-1.4
	c0.5-0.3,0.6-0.8,0.6-1.3c0-2.5,0-5.1,0-7.6c0-0.7,0.1-1.2,0.8-1.5c0.1,0,0.2-0.1,0.2-0.2c0.1-1.4,1.3-2.3,1.6-3.6
	c0.1-0.5,0-1,0.6-1.2c0.7-0.3,0.9-0.8,0.8-1.5c-0.1-0.5,0.1-0.9,0.5-1.1c0.7-0.4,1-0.9,0.9-1.7c-0.1-0.5,0.1-0.8,0.5-1
	c0.7-0.3,0.9-0.9,0.8-1.6c0-0.4,0-0.8,0.3-0.9c0.7-0.3,0.9-0.9,0.8-1.7c0-0.3,0-0.6,0.3-0.8c1.7-1.3,3.1-2.9,4.5-4.4
	c1.1-1.1,2.2-2.2,3.3-3.3c0.6-0.6,1.2-1.3,2-1.7c0.6-0.4,0.9-1.1,1.4-1.6c1.4-1.2,2.6-2.6,4-3.9c1.1-1,2.3-2,3.1-3.2
	c0.3-0.4,0.6-0.4,1-0.4c0.6,0.1,1-0.2,1.4-0.7c0.9-1.1,2-1.9,2.9-3C78,55,78.3,55,78.6,55c8.3,0,16.6,0,24.9,0
	c0.5,0,0.9,0.1,1.1,0.5c0.3,0.7,0.9,0.7,1.5,0.7c6.3,0,12.7,0,19,0c0.8,0,1.4,0.1,1.8,0.8c0.3,0.6,0.8,0.5,1.4,0.5
	c1,0,2.1-0.2,2.7,1c0.2,0.5,0.9,0.3,1.3,0.3c1,0,2-0.2,2.5,1c0.1,0.3,0.5,0.3,0.9,0.3c0.8,0,1.5,0,2.3,0c0.8,0,1.5,0,1.9,0.9
	c0.1,0.3,0.5,0.4,0.8,0.4c0.7,0,1.5,0,2.2,0c0.9,0,1.7,0,2.2,0.9c0.3,0.6,0.9,0.4,1.4,0.4c1,0,2-0.1,2.6,1c0.3,0.6,1.1,0.3,1.6,0.3
	c0.9,0,1.7,0,2.2,1c0.3,0.6,0.9,0.4,1.4,0.4c1,0,2-0.2,2.5,1c0.3,0.6,1,0.3,1.5,0.3c0.9,0,1.9-0.1,2.4,1c0.2,0.4,0.6,0.3,1,0.3
	c0.6-0.1,1.1,0.1,1.4,0.7c0.3,0.6,0.8,0.6,1.4,0.6c1,0,1.9,0.1,2.8,0.9c0.8,0.7,2.1,1.1,3.2,1.6c0.7,0.3,1.3,0.7,2,1
	c1.1,0.5,2.1,1,3.1,1.6c0.7,0.4,1.6,0.3,2,1.1c0.1,0.1,0.3,0.3,0.4,0.2c1.7-0.2,2.4,1.2,3.4,2.2c0.3,0.4,0.7,0.4,1.1,0.4
	c0.6-0.1,1.1,0.1,1.3,0.7c0.3,0.5,0.7,0.7,1.3,0.6c0.6-0.1,1.1,0.1,1.3,0.7c0.2,0.5,0.6,0.6,1.1,0.6c0.6,0,1.2,0,1.7,0
	c0.4,0,0.7,0.2,1,0.5c0.1,0.1,0.2,0.4,0.3,0.4c1.5,0.1,2.4,1.4,3.8,1.7c0.4,0.1,0.9,0.1,1.3,0c1.8-0.4,2.7,0.9,3.7,1.9
	c0.2,0.3,0.4,0.6,0.7,0.7c0.5,0.3,0.7,0.7,0.6,1.2c-0.1,0.6,0.2,1,0.7,1.4c1.1,1,2.1,2.1,3.2,3.2c0.2,0.2,0.4,0.5,0.7,0.7
	c0.5,0.3,0.7,0.7,0.7,1.3c-0.1,0.6,0.1,1.1,0.7,1.4c0.5,0.2,0.7,0.6,0.6,1.2c0,0.1,0,0.1,0,0.2c0.8,1.2,1,2.8,2,3.9
	c0.4,0.4,0.6,0.7,0.5,1.3c-0.1,0.6,0.1,1.1,0.7,1.3c0.5,0.2,0.7,0.7,0.6,1.2c0,0.7,0,1.5,0,2.2c0,0.8,0,1.5,0.9,1.9
	c0.5,0.2,0.5,0.7,0.5,1.2c0,0.4-0.1,0.8,0.3,1c0.8,0.4,1,1,0.9,1.8c0,0.4,0.2,0.8,0.6,0.9c0.6,0.3,0.8,0.8,0.7,1.4
	c-0.1,0.6,0.2,1,0.7,1.3c0.5,0.3,0.7,0.7,0.7,1.3c0,5.7,0,11.3,0,17c0,0.5-0.1,0.9-0.6,1.2c-0.6,0.3-0.7,0.8-0.7,1.4
	c0,1.7,0,3.4,0,5.1c0,0.6-0.1,1-0.7,1.3c-0.6,0.3-0.7,0.8-0.7,1.4c0,1.7,0,3.4,0,5.1c0,0.6-0.1,1.1-0.7,1.4
	c-0.5,0.2-0.6,0.6-0.6,1.1c0.1,0.7-0.1,1.2-0.8,1.5c-0.6,0.3-0.6,0.8-0.6,1.3c0,1.1,0.3,2.2-1,2.8c-0.2,1.2-0.9,2.2-1.5,3.2
	c-0.4,0.6-0.6,1.4-1,2.1c-0.5,1-0.7,2.2-1.6,3c0.4,1.4-0.9,2-1.6,2.8c-0.4,0.5-0.9,1-1.4,1.4c-0.7,0.5-1.1,1.1-1.1,2
	c-0.1,0.9-1.1,1.3-1.6,1.9c-0.7,0.7-1.3,1.7-2.6,1.5c-0.4-0.1-0.8,0.5-0.9,1.1c0,0.1,0,0.3,0,0.4c0.2,1-1.1,1.2-1.2,1.9
	c-0.1,0.8,0,1.5-0.9,2.1c-1.2,0.9-2.1,2.1-3.2,3.1c-0.9,1-1.7,2.3-2.9,2.8c-1,0.5-2,1-3,1.4c-0.7,0.3-1.5,0.4-1.9,1.1
	c-0.3,0.5-0.8,0.5-1.3,0.4c-0.5,0-0.8,0.1-1.1,0.5c-1,1.1-2.1,2.3-3.3,3.3c-0.5,0.4-0.7,0.9-1.2,1.3c-0.8,0.7-1.4,1.6-2.7,1.5
	c-0.6,0-0.9,0.9-1.4,1.3c-0.6,0.5-1.2,1-1.6,1.6c-0.5,0.7-1.1,0.7-1.8,0.9c-1.2,0.4-2.3,1.2-3.5,1.8c-0.5,0.3-0.9,0.8-1.6,0.7
	c-1.1-0.1-2.2-0.1-2.8,1.1c-0.2,0.3-0.6,0.2-0.9,0.2c-1.3,0-2.7,0-4,0c-0.5,0-0.9,0.1-1.2,0.6c-0.3,0.6-0.8,0.8-1.4,0.7
	c-0.5-0.1-1,0-1.4,0c-0.3,0-0.7,0.1-0.8,0.4c-0.4,0.9-1.1,0.9-1.9,0.9c-0.3,0-0.7,0.1-1,0c-1.8-0.5-2.7,0.7-3.7,1.8
	c-0.5,0.6-1,0.9-1.8,0.9c-0.4,0-0.7,0.1-0.9,0.5c-0.3,0.7-0.8,0.8-1.5,0.8c-1.3,0-2.6,0-3.9,0c-0.5,0-1,0.1-1.2,0.6
	c-0.3,0.6-0.8,0.7-1.4,0.7C128.7,212.3,122.8,212.3,117,212.3z M91.7,61.5c-3.5,0-6.9,0-10.4,0c-0.6,0-1,0.2-1.4,0.7
	c-0.7,0.9-1.4,2-2.8,2c-0.4,0-0.7,0.2-0.8,0.6c-0.1,0.2-0.3,0.5-0.5,0.7c-1.1,1.1-2.3,2.2-3.5,3.4c-1,1-2,2.1-3,3.1
	c-1.2,1.1-2.4,2.2-3.6,3.3c-2,1.8-3.8,3.8-5.8,5.7c-0.5,0.5-0.8,0.9-0.7,1.6c0.1,0.5-0.3,0.9-0.7,1.1c-0.6,0.3-0.7,0.8-0.7,1.4
	c0.1,0.5-0.2,0.8-0.5,1.2c-1,1.1-1.3,2.6-1.9,3.9c-0.2,0.4,0,0.9,0,1.4c0,0.2,0,0.5-0.1,0.6c-0.9,0.7-1.5,1.5-1.4,2.7
	c0,0.1-0.2,0.3-0.4,0.4c-0.7,0.4-0.9,1-0.9,1.8c0,2.5,0,5,0,7.5c0,0.5-0.1,0.9-0.6,1.2c-0.6,0.3-0.8,0.8-0.8,1.5c0,2.1,0,4.2,0,6.3
	c0,0.3,0.1,0.8-0.2,1c-1.1,0.7-1,1.8-0.9,2.8c0,0.6-0.1,1.2-0.7,1.5c-0.5,0.3-0.7,0.7-0.7,1.3c0,2.6,0,5.1,0,7.7
	c0,0.6-0.2,1.1-0.7,1.4c-0.5,0.3-0.6,0.6-0.6,1.2c0,7.5,0,14.9,0,22.4c0,0.5,0.1,0.9,0.6,1.2c0.6,0.3,0.8,0.8,0.7,1.4
	c0,0.9,0,1.8,0,2.7c0,0.4,0.1,0.8,0.5,1c1,0.4,0.4,1.5,0.8,2.1c0.4,0.7,1.4,0.9,1.3,2c-0.1,0.4,0.1,0.7,0.4,0.9c0.6,0.5,1.1,1.1,1,2
	c0,0.3,0.2,0.5,0.4,0.6c1,0.5,1,1.4,1,2.3c0,0.6,0,1.2,0,1.7c-0.1,0.6,0.3,1,0.7,1.5c0.8,0.9,2.1,1.4,1.9,2.9
	c-0.1,0.4,0.3,0.7,0.6,0.8c0.6,0.3,0.8,0.8,0.7,1.4c-0.1,0.6,0.1,1,0.7,1.3c0.5,0.3,0.8,0.7,0.7,1.4c-0.1,0.5,0.1,0.8,0.5,1.1
	c0.6,0.5,1,1,0.9,1.9c-0.1,0.3,0.2,0.5,0.4,0.7c1.2,1.2,2.5,2.5,3.7,3.7c0.2,0.2,0.4,0.5,0.7,0.4c1-0.2,1.6,0.5,2.2,1.1
	c0.3,0.4,0.6,0.9,1,1.1c0.9,0.5,0.9,1.4,1.2,2.2c0.2,0.8,1.3,1.2,1.2,2.3c0,0.2,0,0.5,0.2,0.6c1,0.5,1.3,2.1,2.8,1.7
	c0.3-0.1,0.5,0.2,0.7,0.4c0.5,0.8,1.3,1,2.2,0.9c0.3,0,0.8-0.2,1,0c0.9,0.8,2.2,0.9,3.1,1.5c0.7,0.5,1.3,1.1,2.2,1
	c0.3,0,0.5,0.2,0.6,0.4c0.8,1.3,2.8,0.8,3.5,2.2c0,0.1,0.4,0,0.7,0c1.7,0,3.5,0,5.2,0c0.4,0,0.8,0,0.9,0.3c0.4,0.9,1.2,0.9,2,0.9
	c0.6,0,1.2,0,1.8,0c0.6,0,1.2,0.1,1.5,0.7c0.3,0.5,0.7,0.7,1.3,0.7c10.4,0,20.9,0,31.3,0c0.4,0,0.8,0.1,1-0.3c0.7-1.1,1.8-1.1,3-1.1
	c0.8,0,1.7,0.1,2.5,0c1.4-0.2,2.3-1.4,3.7-1.5c0.1,0,0.2-0.2,0.2-0.3c1-1.2,2.1-2.4,4-2c0.4,0.1,0.9,0,1.3,0c0.4,0,0.8,0,1-0.4
	c0.6-1,1.5-1,2.5-0.9c0.7,0.1,1.4,0,1.8-0.8c0.2-0.4,0.6-0.4,1-0.4c1.7,0,3.4,0,5.1,0c0.6,0,1-0.1,1.3-0.6c0.4-0.6,1-0.9,1.7-0.8
	c0.5,0.1,0.8-0.2,1.1-0.6c0.3-0.5,0.7-0.8,1.3-0.7c0.5,0.1,0.9-0.2,1.1-0.6c0.3-0.6,0.9-0.8,1.5-0.8c0.3,0,0.6,0,0.9-0.3
	c1.9-1.9,3.8-3.8,5.6-5.6c0.2-0.2,0.5-0.7,0.8-0.6c1.6,0.2,2-1.2,3-1.9c1.2-0.8,2.6-1.2,3.8-2c0.1-0.1,0.4,0,0.6,0
	c0.3,0,0.5-0.2,0.7-0.4c0.9-0.9,1.5-2.3,3.2-2.2c0.1,0,0.3-0.1,0.4-0.2c1.3-1.3,2.8-2.5,3.9-4c0.6-0.9,0.7-2.2,1.7-2.9
	c-0.4-1.4,0.8-2,1.5-2.9c0.3-0.4,0.8-0.6,1.1-1c0.4-0.7,0.9-0.8,1.6-0.8c0.7,0.1,1.1-0.3,1.1-1c-0.1-0.8,0.3-1.2,0.9-1.8
	c0.8-0.8,2-1.4,1.7-2.9c-0.1-0.3,0.2-0.5,0.4-0.7c0.9-1.1,2.8-1.4,2.4-3.4c0-0.1,0.2-0.3,0.4-0.4c0.9-0.4,0.9-1.1,0.9-1.9
	c-0.1-1,0.1-1.9,1-2.5c0.3-0.2,0.2-0.6,0.3-1c0.4-1.3,1.6-2.3,1.7-3.8c0-0.1,0.2-0.1,0.3-0.2c0.5-0.3,0.7-0.7,0.6-1.3
	c0-1.6,0-3.3,0-4.9c0-0.7,0.1-1.2,0.7-1.6c0.4-0.3,0.5-0.7,0.5-1.3c0-2.1,0-4.2,0-6.4c0-0.6,0.1-1.1,0.7-1.4
	c0.6-0.3,0.7-0.7,0.7-1.3c0-3.9,0-7.8,0-11.8c0-0.6-0.1-1-0.6-1.3c-0.6-0.3-0.8-0.8-0.7-1.4c0.1-0.5-0.1-0.9-0.5-1.2
	c-1.4-1-2.4-2.2-2-4.1c0.1-0.4,0-0.8,0-1.3c0-0.4-0.1-0.8-0.4-0.9c-1-0.5-1-1.4-1-2.3c0-0.6,0-1.2,0-1.7c0.1-0.6-0.1-1.1-0.7-1.4
	c-0.5-0.3-0.7-0.7-0.6-1.3c0-0.5,0-1-0.5-1.2c-0.5-0.3-0.7-0.7-0.6-1.3c0-0.5,0-0.9-0.4-1.2c-1-1-2.5-1.6-2.3-3.4
	c0-0.1-0.1-0.1-0.1-0.2c-0.9-0.7-1.4-2.1-2.9-1.9c-0.1,0-0.3-0.1-0.4-0.2c-1-1-2-2-3-3.1c-0.4-0.4-0.7-0.7-1.2-0.6
	c-0.7,0.1-1.2-0.1-1.5-0.8c-0.3-0.5-0.8-0.6-1.3-0.6c-0.4,0-0.9,0-1.1-0.4c-0.4-0.8-1-0.8-1.7-0.8c-1,0-1.9,0-2.5-1
	c-0.2-0.3-0.5-0.3-0.9-0.3c-0.4,0-0.9,0.1-1-0.1c-0.7-1-1.8-1.2-2.8-1.7c-0.7-0.3-1.2-1.2-2.1-1c-0.1,0-0.4-0.1-0.4-0.2
	c-0.4-0.8-1.1-1.2-1.7-1.8c-0.9-0.8-1.4-2.3-3-1.9c-0.9-0.8-2.2-0.9-3-1.5c-0.9-0.7-1.7-1.1-2.8-1c-0.7,0.1-1.2-0.1-1.6-0.8
	c-0.3-0.5-0.8-0.6-1.3-0.6c-0.4,0-0.9,0-1.1-0.4c-0.4-0.9-1.1-1-2-0.9c-0.6,0-1.3,0.3-1.6-0.2c-0.7-1.2-1.7-0.9-2.7-0.9
	c-0.4,0-0.9,0.2-1.2-0.2c-0.6-1.2-1.7-1.2-2.8-1.1c-0.5,0-1,0.1-1.3-0.4c-0.5-0.9-1.2-0.9-2.1-0.9c-0.6,0-1.3,0.3-1.7-0.4
	c-0.6-0.9-1.5-1.1-2.5-1c-0.7,0.1-1.4,0-1.8-0.8c-0.1-0.3-0.5-0.4-0.8-0.4c-0.5,0-1,0-1.5,0c-0.6,0-1-0.1-1.4-0.7
	c-0.3-0.5-0.8-0.8-1.5-0.7c-0.9,0.1-1.7,0-2.6,0c-0.4,0-0.8,0-0.9-0.3c-0.5-1.1-1.4-1.1-2.4-1c-0.6,0-1.3,0-1.9,0
	c-0.5,0-0.8-0.1-1.1-0.5c-0.4-0.8-1-0.9-1.8-0.8c-1,0.1-1.9,0.1-2.6-0.9c-0.3-0.4-0.8-0.3-1.2-0.3c-6,0-12,0-17.9,0
	c-0.6,0-1.1-0.1-1.4-0.7c-0.3-0.6-0.8-0.7-1.5-0.7C98.5,61.5,95.1,61.5,91.7,61.5z"/>
<path class="st1" d="M91.7,61.5c3.4,0,6.9,0,10.3,0c0.6,0,1.2,0.1,1.5,0.7c0.3,0.6,0.8,0.7,1.4,0.7c6,0,12,0,17.9,0
	c0.4,0,0.9-0.1,1.2,0.3c0.6,1,1.6,1,2.6,0.9c0.8-0.1,1.4,0.1,1.8,0.8c0.2,0.4,0.6,0.5,1.1,0.5c0.6,0,1.3,0,1.9,0
	c1-0.1,1.9-0.1,2.4,1c0.2,0.4,0.6,0.3,0.9,0.3c0.9,0,1.7,0,2.6,0c0.7,0,1.2,0.2,1.5,0.7c0.3,0.6,0.8,0.7,1.4,0.7c0.5,0,1,0,1.5,0
	c0.4,0,0.7,0.1,0.8,0.4c0.4,0.8,1,0.9,1.8,0.8c1-0.1,1.9,0.1,2.5,1c0.4,0.6,1.1,0.4,1.7,0.4c0.9,0,1.6,0,2.1,0.9
	c0.2,0.5,0.8,0.5,1.3,0.4c1.1-0.1,2.2-0.1,2.8,1.1c0.2,0.4,0.8,0.2,1.2,0.2c1,0,2-0.2,2.7,0.9c0.3,0.5,1.1,0.2,1.6,0.2
	c0.9,0,1.6,0.1,2,0.9c0.2,0.4,0.7,0.5,1.1,0.4c0.6-0.1,1.1,0.1,1.3,0.6c0.3,0.7,0.9,0.9,1.6,0.8c1.1-0.1,1.9,0.2,2.8,1
	c0.8,0.6,2.1,0.7,3,1.5c1.6-0.4,2.2,1.1,3,1.9c0.6,0.5,1.3,1,1.7,1.8c0.1,0.1,0.3,0.2,0.4,0.2c1-0.2,1.4,0.7,2.1,1
	c1,0.5,2.1,0.7,2.8,1.7c0.1,0.2,0.7,0.1,1,0.1c0.3,0,0.7,0,0.9,0.3c0.6,1.1,1.5,1,2.5,1c0.7,0,1.3,0,1.7,0.8
	c0.2,0.4,0.7,0.4,1.1,0.4c0.6-0.1,1.1,0.1,1.3,0.6c0.3,0.6,0.8,0.9,1.5,0.8c0.5-0.1,0.8,0.2,1.2,0.6c0.9,1.1,2,2.1,3,3.1
	c0.1,0.1,0.3,0.2,0.4,0.2c1.5-0.2,2,1.2,2.9,1.9c0,0,0.1,0.1,0.1,0.2c-0.2,1.8,1.3,2.4,2.3,3.4c0.4,0.4,0.5,0.8,0.4,1.2
	c-0.1,0.6,0.1,1,0.6,1.3c0.5,0.3,0.6,0.7,0.5,1.2c-0.1,0.6,0.1,1,0.6,1.3c0.6,0.3,0.8,0.8,0.7,1.4c0,0.6,0,1.2,0,1.7
	c-0.1,0.9-0.1,1.8,1,2.3c0.3,0.2,0.4,0.5,0.4,0.9c0,0.4,0.1,0.8,0,1.3c-0.4,1.9,0.7,3.1,2,4.1c0.4,0.3,0.5,0.7,0.5,1.2
	c-0.1,0.6,0.1,1.1,0.7,1.4c0.5,0.3,0.6,0.7,0.6,1.3c0,3.9,0,7.8,0,11.8c0,0.6-0.1,1-0.7,1.3c-0.5,0.3-0.7,0.8-0.7,1.4
	c0,2.1,0,4.2,0,6.4c0,0.5-0.1,1-0.5,1.3c-0.6,0.4-0.7,0.9-0.7,1.6c0,1.6,0,3.3,0,4.9c0,0.6-0.2,1-0.6,1.3c-0.1,0.1-0.3,0.1-0.3,0.2
	c-0.1,1.5-1.3,2.4-1.7,3.8c-0.1,0.3,0,0.7-0.3,1c-0.9,0.6-1.1,1.5-1,2.5c0.1,0.8,0,1.5-0.9,1.9c-0.2,0.1-0.4,0.3-0.4,0.4
	c0.3,1.9-1.6,2.3-2.4,3.4c-0.2,0.2-0.4,0.4-0.4,0.7c0.3,1.5-0.9,2.1-1.7,2.9c-0.6,0.5-0.9,1-0.9,1.8c0.1,0.7-0.3,1.1-1.1,1
	c-0.7-0.1-1.2,0.1-1.6,0.8c-0.2,0.4-0.8,0.6-1.1,1c-0.7,0.8-1.9,1.4-1.5,2.9c-1,0.7-1.1,2-1.7,2.9c-1.1,1.5-2.6,2.7-3.9,4
	c-0.1,0.1-0.3,0.3-0.4,0.2c-1.7-0.2-2.3,1.3-3.2,2.2c-0.2,0.2-0.4,0.4-0.7,0.4c-0.2,0-0.4-0.1-0.6,0c-1.2,0.8-2.6,1.2-3.8,2
	c-1,0.6-1.4,2.1-3,1.9c-0.4-0.1-0.6,0.4-0.8,0.6c-1.9,1.9-3.8,3.7-5.6,5.6c-0.3,0.3-0.6,0.3-0.9,0.3c-0.7-0.1-1.2,0.1-1.5,0.8
	c-0.2,0.4-0.6,0.7-1.1,0.6c-0.6-0.1-1,0.2-1.3,0.7c-0.3,0.4-0.6,0.7-1.1,0.6c-0.8-0.1-1.3,0.2-1.7,0.8c-0.3,0.4-0.8,0.6-1.3,0.6
	c-1.7,0-3.4,0-5.1,0c-0.4,0-0.8,0-1,0.4c-0.4,0.8-1,0.8-1.8,0.8c-1-0.1-1.9-0.1-2.5,0.9c-0.2,0.4-0.6,0.4-1,0.4
	c-0.4,0-0.9,0.1-1.3,0c-1.9-0.4-2.9,0.8-4,2c-0.1,0.1-0.2,0.3-0.2,0.3c-1.4,0.2-2.3,1.4-3.7,1.5c-0.8,0.1-1.7,0-2.5,0
	c-1.1,0-2.2-0.1-3,1.1c-0.2,0.3-0.6,0.3-1,0.3c-10.4,0-20.9,0-31.3,0c-0.6,0-1-0.1-1.3-0.7c-0.3-0.6-0.9-0.7-1.5-0.7
	c-0.6,0-1.2,0-1.8,0c-0.8,0-1.6,0.1-2-0.9c-0.2-0.4-0.6-0.3-0.9-0.3c-1.7,0-3.5,0-5.2,0c-0.2,0-0.6,0.1-0.7,0
	c-0.7-1.5-2.7-0.9-3.5-2.2c-0.1-0.2-0.3-0.4-0.6-0.4c-0.9,0.1-1.5-0.5-2.2-1c-0.9-0.6-2.2-0.8-3.1-1.5c-0.2-0.2-0.7-0.1-1,0
	c-0.9,0.1-1.6-0.1-2.2-0.9c-0.2-0.2-0.4-0.5-0.7-0.4c-1.5,0.3-1.8-1.2-2.8-1.7c-0.2-0.1-0.2-0.4-0.2-0.6c0.1-1-1-1.5-1.2-2.3
	c-0.2-0.9-0.3-1.7-1.2-2.2c-0.4-0.2-0.7-0.7-1-1.1c-0.6-0.6-1.1-1.3-2.2-1.1c-0.3,0.1-0.5-0.2-0.7-0.4c-1.2-1.2-2.5-2.5-3.7-3.7
	c-0.2-0.2-0.4-0.4-0.4-0.7c0.1-0.8-0.3-1.4-0.9-1.9c-0.4-0.3-0.5-0.6-0.5-1.1c0.1-0.6-0.2-1.1-0.7-1.4c-0.5-0.3-0.7-0.7-0.7-1.3
	c0.1-0.6-0.2-1.1-0.7-1.4c-0.3-0.2-0.6-0.4-0.6-0.8c0.2-1.5-1.1-2.1-1.9-2.9c-0.4-0.5-0.7-0.8-0.7-1.5c0-0.6,0-1.2,0-1.7
	c0.1-0.9,0.1-1.8-1-2.3c-0.2-0.1-0.4-0.4-0.4-0.6c0.2-0.9-0.3-1.5-1-2c-0.3-0.2-0.4-0.6-0.4-0.9c0.2-1.1-0.8-1.3-1.3-2
	c-0.4-0.6,0.2-1.6-0.8-2.1c-0.4-0.2-0.5-0.6-0.5-1c0-0.9,0-1.8,0-2.7c0-0.7-0.2-1.1-0.7-1.4c-0.5-0.3-0.6-0.7-0.6-1.2
	c0-7.5,0-14.9,0-22.4c0-0.5,0.1-0.9,0.6-1.2c0.6-0.3,0.7-0.8,0.7-1.4c0-2.6,0-5.1,0-7.7c0-0.6,0.1-1,0.7-1.3
	c0.6-0.3,0.8-0.8,0.7-1.5c-0.1-1.1-0.1-2.1,0.9-2.8c0.3-0.2,0.2-0.6,0.2-1c0-2.1,0-4.2,0-6.3c0-0.7,0.2-1.2,0.8-1.5
	c0.5-0.3,0.6-0.7,0.6-1.2c0-2.5,0-5,0-7.5c0-0.8,0.1-1.4,0.9-1.8c0.2-0.1,0.4-0.3,0.4-0.4c-0.1-1.2,0.5-2,1.4-2.7
	c0.1-0.1,0.1-0.4,0.1-0.6c0-0.5-0.2-1,0-1.4c0.6-1.3,0.9-2.8,1.9-3.9c0.4-0.4,0.6-0.7,0.5-1.2c-0.1-0.6,0.1-1,0.7-1.4
	c0.4-0.2,0.7-0.6,0.7-1.1c-0.1-0.7,0.2-1.1,0.7-1.6c1.9-1.9,3.8-3.9,5.8-5.7c1.2-1.1,2.4-2.2,3.6-3.3c1.1-1,2-2.1,3-3.1
	c1.1-1.1,2.3-2.2,3.5-3.4c0.2-0.2,0.5-0.4,0.5-0.7c0.1-0.5,0.5-0.6,0.8-0.6c1.4,0,2-1.1,2.8-2c0.4-0.5,0.8-0.7,1.4-0.7
	C84.7,61.5,88.2,61.5,91.7,61.5z M108.5,165.5c0-4.3,0-8.6,0-12.9c0-0.6,0.1-1.1,0.7-1.4c0.6-0.3,0.7-0.8,0.7-1.3c0-1,0-1.9,0-2.9
	c0-0.4,0.2-0.6,0.5-0.8c0.2-0.1,0.4,0,0.6,0.2c0.9,1,1.9,1.9,2.8,2.9c0.5,0.6,0.9,0.8,1.6,0.8c0.5-0.1,1.1,0.2,1,0.7
	c-0.3,1.7,1.2,2.2,1.9,3.1c1,1.1,2.1,2.1,3.2,3.1c1.2,1.2,2.4,2.5,3.6,3.6c1.1,1,2.2,2,1.7,3.7c-0.1,0.5,0.1,1,0.6,1.2
	c0.3,0.2,0.5,0.5,0.7,0.7c0.7,0.7,1.2,1.7,2.2,1.9c1.6,0.3,2.8,1.4,3,3.1c0,0.3,0.2,0.5,0.3,0.7c0.9,1.1,1.9,1.7,3.4,1.5
	c0.9-0.1,1.8,0,2.7,0c1.2,0,2.5,0.3,3.2-1.2c0-0.1,0.2-0.1,0.3-0.2c1-0.9,1.8-1.8,1.8-3.4c-0.1-5.5-0.1-11-0.1-16.5
	c0-0.9,0.1-1.8-0.9-2.3c-0.3-0.1-0.3-0.5-0.3-0.8c0-0.5,0-1,0-1.4c0-0.6-0.2-0.9-0.6-1.4c-1-1.1-1.1-2.7-2.1-3.7c0,0,0-0.1,0-0.1
	c0.1-0.7-0.3-1.1-0.8-1.6c-0.8-0.8-2-1.3-1.7-2.8c0.1-0.3-0.2-0.5-0.4-0.7c-1.1-1-2.2-2-3.2-3.1c-0.2-0.2-0.5-0.4-0.4-0.6
	c0.3-1.4-0.9-2.1-1.6-2.8c-2.5-2.3-4.8-4.7-7.2-7.1c-0.6-0.6-1.1-1.1-2-1c-0.4,0.1-0.6-0.2-0.8-0.5c-0.2-0.3-0.4-0.6-0.8-0.8
	c-0.5-0.3-0.7-0.7-0.6-1.2c0.1-0.6-0.1-1.1-0.7-1.4c-0.4-0.2-0.6-0.6-0.6-1.2c0-1.8,0-3.5,0-5.3c0-0.9,0.4-1.3,1.3-1.3
	c1.3,0,2.7,0,4,0c0.4,0,0.8,0.1,1-0.3c0.4-0.8,1.1-0.9,1.8-1c0.3,0,0.6-0.1,0.8-0.4c0.6-0.8,1.4-0.9,2.3-0.9c0.6,0,1.2,0,1.8,0
	c0.6,0,1-0.1,1.4-0.7c0.2-0.4,0.6-0.7,1.2-0.7c1.3,0.1,2.5,0,3.3-1.2c0.1-0.1,0.2-0.2,0.3-0.2c1.2-1,1.9-2.1,1.8-3.9
	c-0.2-3.4-0.1-6.7,0-10.1c0-0.6-0.2-1.1-0.7-1.5c-1.2-1-2.2-2-1.8-3.7c0.1-0.3,0.1-0.8-0.2-1c-1.1-0.7-1.8-2.1-3.5-1.7
	c-0.8,0.2-1.4-0.1-1.7-0.9c-0.2-0.5-0.7-0.5-1.2-0.5c-0.5,0-1,0-1.2-0.5c-0.3-0.6-0.7-0.7-1.3-0.6c-0.6,0.1-1-0.1-1.3-0.6
	c-0.3-0.4-0.7-0.8-1.3-0.7c-0.7,0.1-1.2-0.2-1.4-0.7c-0.3-0.5-0.7-0.7-1.3-0.6c-0.5,0.1-1,0-1.2-0.5c-0.4-0.9-1.2-0.9-2-0.9
	c-0.8,0.1-1.6,0.1-2.1-0.7c-0.3-0.5-0.8-0.6-1.4-0.6c-2.6,0-5.1,0-7.7,0c-0.6,0-1-0.1-1.3-0.6c-0.3-0.6-0.8-0.7-1.4-0.7
	c-4.3,0-8.6,0-12.9,0c-0.4,0-0.9,0.1-1.1-0.4c-0.4-1-1.2-1-2.1-1c-0.5,0-1,0-1.5,0c-0.7,0.1-1.3-0.1-1.7-0.8c-0.2-0.4-0.6-0.4-1-0.4
	c-2.1,0-4.2,0-6.3,0c-1.4,0-2.8-0.2-3.8,1.3c-0.3,0.4-0.6,0.8-0.6,1.3c0,0.1,0,0.3,0,0.4c0,8,0,16,0,24c0,0.6,0,1.2,0.6,1.5
	c0.7,0.4,0.8,1,0.8,1.7c0,7.6,0,15.3,0,22.9c0,0.7,0.1,1.3,0.8,1.6c0.5,0.2,0.6,0.6,0.6,1.1c0,1.3,0,2.7,0,4c0,0.5,0.1,0.9,0.6,1.2
	c0.6,0.3,0.8,0.8,0.8,1.5c0,3,0,6,0,9c0,0.6,0.1,1,0.6,1.3c0.5,0.2,0.6,0.6,0.6,1.1c0,1.3,0,2.7,0,4c0,0.5,0.1,1,0.6,1.2
	c0.7,0.3,0.8,0.9,0.8,1.6c0,3,0,5.9,0,8.9c0,0.5,0,1,0.5,1.2c0.9,0.4,0.9,1.2,0.9,2c0,0.6-0.3,1.4,0.3,1.7c1.2,0.7,1.1,1.7,1,2.8
	c0,0.7,0,1.3,0.8,1.6c0.4,0.2,0.4,0.6,0.4,1c0,1.3,0.1,2.6,0,3.9c-0.1,1.5,0.3,2.6,1.5,3.5c0.6,0.5,2.9,0.8,3.5,0.4
	c0.1-0.1,0.3-0.2,0.3-0.3c0.1-0.3,0.2-0.8,0.7-0.6c0.5,0.1,0.6,0.5,0.6,1c-0.1,0.7,0.2,1.2,0.8,1.5c0.2,0.1,0.4,0.3,0.5,0.5
	c0.3,0.6,0.8,0.7,1.4,0.7c2.4,0,4.8-0.1,7.2,0c1.5,0,3,0,4-1.4c0.9-1.1,1.8-1.9,1.8-3.6C108.4,173.4,108.5,169.5,108.5,165.5z"/>
<path class="st0" d="M108.5,165.5c0,4-0.1,8,0.1,11.9c0.1,1.7-0.9,2.5-1.8,3.6c-1.1,1.4-2.5,1.4-4,1.4c-2.4-0.1-4.8,0-7.2,0
	c-0.6,0-1.1-0.1-1.4-0.7c-0.1-0.2-0.3-0.4-0.5-0.5c-0.6-0.3-0.9-0.8-0.8-1.5c0.1-0.5-0.1-0.9-0.6-1c-0.5-0.1-0.5,0.3-0.7,0.6
	c-0.1,0.1-0.2,0.3-0.3,0.3c-0.6,0.4-3,0-3.5-0.4c-1.2-0.9-1.6-2.1-1.5-3.5c0.1-1.3,0-2.6,0-3.9c0-0.4,0-0.8-0.4-1
	c-0.7-0.3-0.8-0.9-0.8-1.6c0.1-1,0.2-2.1-1-2.8c-0.6-0.3-0.3-1.1-0.3-1.7c0-0.8,0-1.6-0.9-2c-0.5-0.2-0.5-0.7-0.5-1.2
	c0-3,0-5.9,0-8.9c0-0.7-0.1-1.2-0.8-1.6c-0.5-0.2-0.6-0.7-0.6-1.2c0-1.3,0-2.7,0-4c0-0.5-0.1-0.9-0.6-1.1c-0.6-0.3-0.6-0.7-0.6-1.3
	c0-3,0-6,0-9c0-0.7-0.2-1.2-0.8-1.5c-0.5-0.3-0.6-0.7-0.6-1.2c0-1.3,0-2.7,0-4c0-0.5-0.1-0.9-0.6-1.1c-0.7-0.3-0.8-0.9-0.8-1.6
	c0-7.6,0-15.3,0-22.9c0-0.7-0.1-1.3-0.8-1.7c-0.6-0.3-0.6-1-0.6-1.5c0-8,0-16,0-24c0-0.1,0-0.3,0-0.4c0-0.6,0.3-0.9,0.6-1.3
	c1-1.5,2.4-1.3,3.8-1.3c2.1,0,4.2,0,6.3,0c0.4,0,0.8-0.1,1,0.4c0.4,0.7,1,0.9,1.7,0.8c0.5,0,1,0,1.5,0c0.9-0.1,1.7,0,2.1,1
	c0.2,0.4,0.7,0.4,1.1,0.4c4.3,0,8.6,0,12.9,0c0.6,0,1.1,0.1,1.4,0.7c0.3,0.6,0.7,0.6,1.3,0.6c2.6,0,5.1,0,7.7,0
	c0.6,0,1.1,0.1,1.4,0.6c0.5,0.8,1.3,0.8,2.1,0.7c0.8-0.1,1.6,0,2,0.9c0.2,0.5,0.7,0.5,1.2,0.5c0.6-0.1,1,0.1,1.3,0.6
	c0.3,0.5,0.8,0.9,1.4,0.7c0.6-0.1,1,0.3,1.3,0.7c0.3,0.5,0.7,0.7,1.3,0.6c0.6-0.1,1,0.1,1.3,0.6c0.3,0.5,0.7,0.6,1.2,0.5
	c0.5,0,0.9,0,1.2,0.5c0.4,0.7,1,1,1.7,0.9c1.7-0.4,2.4,0.9,3.5,1.7c0.3,0.2,0.3,0.7,0.2,1c-0.4,1.8,0.7,2.8,1.8,3.7
	c0.5,0.4,0.7,0.8,0.7,1.5c0,3.4-0.2,6.8,0,10.1c0.1,1.8-0.6,2.9-1.8,3.9c-0.1,0.1-0.2,0.1-0.3,0.2c-0.8,1.2-2,1.3-3.3,1.2
	c-0.6-0.1-0.9,0.2-1.2,0.7c-0.3,0.6-0.8,0.7-1.4,0.7c-0.6,0-1.2,0-1.8,0c-0.9-0.1-1.7,0-2.3,0.9c-0.2,0.3-0.5,0.3-0.8,0.4
	c-0.7,0.1-1.4,0.2-1.8,1c-0.2,0.4-0.6,0.3-1,0.3c-1.3,0-2.7,0-4,0c-0.9,0-1.3,0.4-1.3,1.3c0,1.8,0,3.5,0,5.3c0,0.6,0.2,1,0.6,1.2
	c0.6,0.3,0.8,0.8,0.7,1.4c-0.1,0.5,0.1,0.9,0.6,1.2c0.3,0.2,0.6,0.5,0.8,0.8c0.2,0.3,0.4,0.6,0.8,0.5c0.9-0.2,1.4,0.4,2,1
	c2.4,2.4,4.7,4.8,7.2,7.1c0.8,0.7,2,1.4,1.6,2.8c-0.1,0.3,0.2,0.4,0.4,0.6c1.1,1,2.2,2,3.2,3.1c0.2,0.2,0.4,0.4,0.4,0.7
	c-0.3,1.5,1,2,1.7,2.8c0.5,0.5,0.9,0.9,0.8,1.6c0,0,0,0.1,0,0.1c1,1.1,1.1,2.7,2.1,3.7c0.4,0.4,0.7,0.8,0.6,1.4c0,0.5,0,1,0,1.4
	c0,0.3,0,0.7,0.3,0.8c1.1,0.5,0.9,1.4,0.9,2.3c0,5.5-0.1,11,0.1,16.5c0,1.6-0.8,2.5-1.8,3.4c-0.1,0.1-0.3,0.1-0.3,0.2
	c-0.7,1.4-2,1.2-3.2,1.2c-0.9,0-1.8-0.1-2.7,0c-1.5,0.2-2.5-0.4-3.4-1.5c-0.2-0.2-0.3-0.4-0.3-0.7c-0.2-1.7-1.4-2.8-3-3.1
	c-1-0.2-1.5-1.2-2.2-1.9c-0.3-0.2-0.4-0.5-0.7-0.7c-0.4-0.3-0.7-0.7-0.6-1.2c0.4-1.7-0.7-2.7-1.7-3.7c-1.3-1.2-2.4-2.4-3.6-3.6
	c-1-1.1-2.2-2-3.2-3.1c-0.8-0.9-2.2-1.4-1.9-3.1c0.1-0.5-0.5-0.8-1-0.7c-0.7,0.1-1.1-0.2-1.6-0.8c-0.9-1-1.9-1.8-2.8-2.9
	c-0.2-0.2-0.4-0.3-0.6-0.2c-0.3,0.2-0.5,0.4-0.5,0.8c0,1,0,1.9,0,2.9c0,0.6-0.1,1.1-0.7,1.3c-0.5,0.3-0.7,0.8-0.7,1.4
	C108.5,156.9,108.5,161.2,108.5,165.5z M113.8,113.5c0-2.2,0-4.5,0-6.7c0-0.7-0.2-1.1-1-1c-1.5,0-3,0-4.4,0c-0.5,0-0.8,0.1-1,0.6
	c-0.3,0.6-0.8,0.8-1.4,0.8c-3.9,0-7.7,0-11.6,0c-0.7,0-2.7-1.5-2.7-2.1c0.1-1.1-0.5-1.6-1.2-2.3c-1.2-1.2-2.3-2.5-3.6-3.6
	c-0.7-0.6-0.7-4.4,0-5c1.3-1.1,2.5-2.3,3.6-3.6c0.2-0.2,0.4-0.5,0.6-0.4c1.6,0.4,2.2-1,3-1.8c0.5-0.5,1-0.8,1.7-0.8
	c3.1,0,6.2,0.1,9.3,0c1.7-0.1,2.5,0.9,3.4,1.9c0.6,0.6,1.4,1,1.8,1.9c0.1,0.3,0.5,0.2,0.7,0.2c0.7,0,1.2,0,1.6,0.8
	c0.2,0.5,0.7,0.5,1.2,0.5c0.6,0,1.1,0.1,1.3,0.7c0.1,0.3,0.3,0.5,0.6,0.6c0.6,0.2,0.7,0.7,0.7,1.2c0,2.2,0,4.4,0,6.6
	c0,0.6-0.1,1-0.6,1.3c-0.3,0.2-0.7,0.4-0.5,0.8c0.1,0.5,0.6,0.4,1,0.4c2,0,4,0,6.1,0c0.9,0,1.7,0.1,2.1-0.9c0.1-0.3,0.4-0.3,0.8-0.3
	c0.5,0,1,0,1.4,0c0.7,0.1,1.3-0.1,1.6-0.9c0.2-0.4,0.5-0.5,0.9-0.5c0.5,0,1,0,1.4,0c1.2,0,2.5,0.4,3.1-1.2c0.1-0.2,0.4-0.2,0.6-0.3
	c0.2-0.1,0.4-0.3,0.4-0.5c0-2.1,0-4.2,0-6.3c-1.1-0.8-1.1-2.1-1.7-3.2c-0.6-1-1.7-1.7-3.2-1.5c-1.5,0.2-2.4-1.7-4-1.6
	c-0.1,0-0.2-0.2-0.2-0.3c-0.2-0.5-0.6-0.6-1.1-0.6c-0.6,0.1-1.1-0.1-1.4-0.7c-0.2-0.5-0.7-0.7-1.3-0.7c-0.6,0-1.2-0.1-1.5-0.7
	c-0.2-0.5-0.7-0.7-1.2-0.6c-0.6,0.1-1-0.1-1.3-0.6c-0.3-0.6-0.8-0.7-1.3-0.7c-2.6,0-5.2,0-7.8,0c-0.5,0-0.9,0-1.1-0.5
	c-0.3-0.8-0.9-0.9-1.6-0.9c-4.6,0-9.3,0-13.9,0c-0.5,0-1,0.1-1.3-0.5c-0.4-0.8-1-0.9-1.7-0.9c-0.5,0-1,0-1.5,0c-0.9,0-1.7,0-2.3-1
	c-0.4-0.7-1.2-0.4-1.8-0.3c-0.5,0.1-0.7,0.6-0.7,1.1c0,5.8,0,11.5,0,17.3c0,0.4,0.1,0.8,0.4,1c0.8,0.4,0.9,1,0.9,1.8
	c0,8.1,0,16.1,0,24.2c0,0.4-0.1,1,0.3,1.2c1,0.5,0.9,1.3,0.9,2.1c0,0.7,0,1.4,0,2c0,0.5,0.1,1,0.6,1.2c0.6,0.3,0.7,0.8,0.7,1.4
	c0,3,0,6,0,9c0,0.6,0.1,1.1,0.7,1.4c0.5,0.2,0.6,0.7,0.6,1.2c0,1.8,0,3.5,0,5.3c0,0.5,0.1,1,0.6,1.2c0.6,0.3,0.8,0.8,0.8,1.5
	c0,2.5,0,5.1,0,7.6c0,0.4-0.1,0.9,0.3,1.1c1.1,0.5,0.9,1.5,1,2.4c0,0.5-0.2,1.2,0.3,1.4c1.3,0.7,1,1.8,1,2.9c0,0.5,0.1,1,0.6,1.2
	c0.7,0.3,0.8,0.9,0.8,1.6c0,2.1,0,4.2,0,6.4c0,0.5,0.1,0.9,0.6,1.1c0.5,0.2,0.7-0.3,0.8-0.6c0.3-0.5,0.7-0.6,1.2-0.6
	c1.6,0,3.3,0,4.9,0c1.6,0,1.6-0.1,1.6-1.6c0-8.1,0-16.1,0-24.2c0-0.5-0.1-1,0.4-1.3c0.9-0.4,0.9-1.2,0.8-2c0-0.8,0-1.5,0-2.3
	c0-0.4,0.1-0.8,0.4-1c0.9-0.4,0.9-1.1,0.9-1.9c0-0.7,0-1.5,0-2.2c0-0.3,0-0.6,0.3-0.9c1-1.1,2-2.1,3.7-1.7c0.4,0.1,0.8,0,1.2,0
	c0.6,0,1,0.1,1.3,0.7c0.3,0.6,0.8,1,1.6,0.8c0.4-0.1,0.7,0.1,0.9,0.4c0.9,1.2,2.1,2.1,3.1,3.2c1.4,1.5,3.1,2.9,4.5,4.4
	c0.5,0.6,1.1,1,1.6,1.6c0.6,0.7,1.2,1.4,1.9,1.9c0.4,0.3,0.6,0.7,0.6,1.2c0,1,0.5,1.5,1.5,1.5c0.5,0,0.9,0.1,1.2,0.6
	c0.2,0.3,0.4,0.6,0.7,0.7c0.4,0.2,0.6,0.5,0.5,1c-0.1,0.7,0.3,1.1,0.7,1.5c0.8,0.9,2.1,1.4,1.8,2.9c-0.1,0.4,0.4,0.7,0.7,0.9
	c0.6,0.3,0.7,0.8,0.6,1.4c0,1,0.4,1.3,1.3,1.3c0.4,0,0.8-0.2,1.1,0.2c0.4,0.8,1.2,1.1,1.7,1.8c0.4,0.6,0.9,0.5,1.2-0.2
	c0.1-0.2,0.1-0.5,0.1-0.8c0-3,0-6,0-9c0-0.6-0.1-1-0.6-1.3c-0.6-0.3-0.7-0.8-0.7-1.4c0-1.3,0-2.6,0-4c0-0.4,0-0.7-0.3-1
	c-1.1-1-2.5-1.8-2.3-3.6c0-0.1-0.1-0.3-0.2-0.3c-0.8-0.3-1.1-1.1-1.7-1.5c-0.6-0.4-0.8-0.8-0.8-1.4c0-0.4,0-0.8-0.4-1.1
	c-1.1-1-2.1-2-3.2-3c-0.3-0.2-0.3-0.5-0.3-0.9c0.1-0.7-0.1-1.3-0.8-1.5c-0.2-0.1-0.3-0.3-0.4-0.5c-0.6-0.7-1.3-1.4-2-2.1
	c-0.7-0.8-1.4-1.5-2.6-1.3c-0.1,0-0.2-0.1-0.2-0.1c-0.9-1-1.9-1.9-2.8-2.8c-1.2-1.2-2.6-2.3-3.5-3.7c-0.7-1-1.1-2.2-1.8-3.3
	c-0.1-0.2,0-0.4,0-0.7C113.8,117.7,113.8,115.6,113.8,113.5z M107.3,98.9C107.3,98.9,107.3,98.9,107.3,98.9c0.5,0,1.1,0,1.6,0
	c0.3,0,0.7-0.3,0.4-0.5c-0.8-0.5-1.1-1.6-2.3-1.7c-1.3-0.2-2.5-1.1-3.6-1.7c-0.7-0.4-1.2-0.8-2-0.8c-0.6,0.1-1.3,0-1.9,0
	c-0.6,0-0.9,0.2-1.4,0.6c-0.7,0.6-1.1,1.4-1.9,1.9c-0.5,0.4-0.6,0.7,0,1c0.6,0.3,0.8,0.8,0.8,1.5c-0.1,0.8,0.3,1,1,1
	c1.7,0,3.3,0,5,0c0.7,0,1.2,0.1,1.5-0.8c0.1-0.4,0.7-0.6,1.1-0.6C106.3,98.9,106.8,98.9,107.3,98.9z M113.9,105.1
	c0,0.2,0.1,0.5,0.4,0.5c0.4,0,0.6-0.3,0.7-0.6c0-0.3-0.2-0.5-0.5-0.5C114.1,104.4,113.9,104.7,113.9,105.1z"/>
<path class="st2" d="M113.8,113.5c0,2.1,0,4.2,0,6.3c0,0.2-0.1,0.5,0,0.7c0.7,1.1,1.1,2.3,1.8,3.3c1,1.4,2.3,2.5,3.5,3.7
	c0.9,0.9,2,1.8,2.8,2.8c0.1,0.1,0.2,0.2,0.2,0.1c1.2-0.2,1.9,0.5,2.6,1.3c0.7,0.7,1.4,1.4,2,2.1c0.1,0.2,0.2,0.4,0.4,0.5
	c0.7,0.3,0.9,0.8,0.8,1.5c0,0.3,0,0.6,0.3,0.9c1.1,1,2.1,2,3.2,3c0.4,0.3,0.4,0.7,0.4,1.1c0,0.6,0.2,1.1,0.8,1.4
	c0.6,0.4,0.9,1.2,1.7,1.5c0.1,0,0.2,0.2,0.2,0.3c-0.2,1.8,1.2,2.6,2.3,3.6c0.3,0.3,0.3,0.6,0.3,1c0,1.3,0,2.6,0,4
	c0,0.6,0.1,1.1,0.7,1.4c0.5,0.3,0.6,0.7,0.6,1.3c0,3,0,6,0,9c0,0.3,0,0.5-0.1,0.8c-0.3,0.7-0.8,0.8-1.2,0.2c-0.5-0.7-1.3-1-1.7-1.8
	c-0.2-0.4-0.7-0.2-1.1-0.2c-1,0-1.3-0.4-1.3-1.3c0-0.6-0.1-1-0.6-1.4c-0.3-0.2-0.7-0.4-0.7-0.9c0.3-1.6-1.1-2.1-1.8-2.9
	c-0.4-0.5-0.9-0.8-0.7-1.5c0.1-0.5-0.1-0.8-0.5-1c-0.3-0.2-0.6-0.4-0.7-0.7c-0.2-0.5-0.7-0.6-1.2-0.6c-1,0-1.5-0.5-1.5-1.5
	c0-0.5-0.2-0.9-0.6-1.2c-0.7-0.6-1.3-1.3-1.9-1.9c-0.5-0.6-1.1-1-1.6-1.6c-1.4-1.5-3.1-2.9-4.5-4.4c-1-1.1-2.2-2-3.1-3.2
	c-0.2-0.3-0.6-0.4-0.9-0.4c-0.8,0.1-1.2-0.3-1.6-0.8c-0.3-0.5-0.7-0.7-1.3-0.7c-0.4,0-0.8,0.1-1.2,0c-1.7-0.4-2.7,0.6-3.7,1.7
	c-0.3,0.3-0.3,0.6-0.3,0.9c0,0.7,0,1.5,0,2.2c0,0.8,0,1.5-0.9,1.9c-0.4,0.2-0.4,0.6-0.4,1c0,0.8,0,1.5,0,2.3c0,0.8,0,1.5-0.8,2
	c-0.5,0.3-0.4,0.8-0.4,1.3c0,8.1,0,16.1,0,24.2c0,1.5-0.1,1.6-1.6,1.6c-1.6,0-3.3,0-4.9,0c-0.5,0-0.9,0.1-1.2,0.6
	c-0.2,0.3-0.4,0.8-0.8,0.6c-0.5-0.2-0.6-0.6-0.6-1.1c0-2.1,0-4.2,0-6.4c0-0.7-0.1-1.3-0.8-1.6c-0.5-0.2-0.6-0.7-0.6-1.2
	c0-1.1,0.3-2.2-1-2.9c-0.5-0.3-0.3-0.9-0.3-1.4c0-0.9,0.1-1.9-1-2.4c-0.4-0.2-0.3-0.7-0.3-1.1c0-2.5,0-5.1,0-7.6
	c0-0.7-0.1-1.2-0.8-1.5c-0.5-0.2-0.6-0.7-0.6-1.2c0-1.8,0-3.5,0-5.3c0-0.5-0.1-1-0.6-1.2c-0.6-0.3-0.7-0.8-0.7-1.4c0-3,0-6,0-9
	c0-0.6-0.1-1.1-0.7-1.4c-0.5-0.2-0.6-0.7-0.6-1.2c0-0.7,0-1.3,0-2c0-0.9,0.1-1.7-0.9-2.1c-0.5-0.2-0.3-0.8-0.3-1.2
	c0-8.1,0-16.1,0-24.2c0-0.8-0.1-1.4-0.9-1.8c-0.4-0.2-0.4-0.6-0.4-1c0-5.8,0-11.5,0-17.3c0-0.5,0.2-1,0.7-1.1
	c0.6-0.1,1.4-0.4,1.8,0.3c0.6,1,1.4,1,2.3,1c0.5,0,1,0,1.5,0c0.8-0.1,1.4,0.1,1.7,0.9c0.3,0.5,0.8,0.5,1.3,0.5c4.6,0,9.3,0,13.9,0
	c0.7,0,1.3,0.1,1.6,0.9c0.2,0.5,0.7,0.5,1.1,0.5c2.6,0,5.2,0,7.8,0c0.6,0,1.1,0.1,1.3,0.7c0.2,0.5,0.7,0.7,1.3,0.6
	c0.5-0.1,1,0.1,1.2,0.6c0.3,0.7,0.9,0.8,1.5,0.7c0.5,0,1,0.1,1.3,0.7c0.3,0.6,0.8,0.8,1.4,0.7c0.5-0.1,0.9,0.1,1.1,0.6
	c0.1,0.1,0.1,0.3,0.2,0.3c1.6-0.1,2.4,1.8,4,1.6c1.5-0.2,2.6,0.5,3.2,1.5c0.6,1,0.6,2.4,1.7,3.2c0,2.1,0,4.2,0,6.3
	c0,0.2-0.2,0.4-0.4,0.5c-0.2,0.1-0.5,0.2-0.6,0.3c-0.6,1.6-1.9,1.2-3.1,1.2c-0.5,0-1,0-1.4,0c-0.4,0-0.7,0.1-0.9,0.5
	c-0.3,0.7-0.9,0.9-1.6,0.9c-0.5,0-1,0-1.4,0c-0.3,0-0.6,0.1-0.8,0.3c-0.4,1-1.3,0.9-2.1,0.9c-2,0-4,0-6.1,0c-0.4,0-0.8,0.1-1-0.4
	c-0.1-0.4,0.2-0.6,0.5-0.8c0.5-0.3,0.6-0.7,0.6-1.3c0-2.2,0-4.4,0-6.6c0-0.6-0.1-1-0.7-1.2c-0.3-0.1-0.5-0.3-0.6-0.6
	c-0.3-0.6-0.7-0.8-1.3-0.7c-0.5,0-1,0-1.2-0.5c-0.3-0.8-0.9-0.8-1.6-0.8c-0.3,0-0.6,0.1-0.7-0.2c-0.4-0.8-1.2-1.2-1.8-1.9
	c-0.9-1-1.7-2-3.4-1.9c-3.1,0.2-6.2,0.1-9.3,0c-0.7,0-1.2,0.3-1.7,0.8c-0.8,0.8-1.4,2.2-3,1.8c-0.3-0.1-0.5,0.2-0.6,0.4
	c-1.1,1.3-2.3,2.5-3.6,3.6c-0.7,0.6-0.6,4.4,0,5c1.3,1.1,2.4,2.4,3.6,3.6c0.7,0.7,1.2,1.2,1.2,2.3c0,0.6,2,2.1,2.7,2.1
	c3.9,0,7.7,0,11.6,0c0.7,0,1.1-0.2,1.4-0.8c0.2-0.5,0.5-0.6,1-0.6c1.5,0,3,0,4.4,0c0.8,0,1,0.3,1,1
	C113.7,109,113.8,111.3,113.8,113.5z"/>
<path class="st1" d="M107.3,98.9c-0.5,0-1,0-1.5,0c-0.5,0-1,0.1-1.1,0.6c-0.3,0.8-0.9,0.8-1.5,0.8c-1.7,0-3.3,0-5,0
	c-0.7,0-1.1-0.3-1-1c0.1-0.7-0.2-1.2-0.8-1.5c-0.6-0.3-0.5-0.7,0-1c0.7-0.5,1.2-1.3,1.9-1.9c0.4-0.4,0.8-0.7,1.4-0.6
	c0.6,0,1.3,0.1,1.9,0c0.8-0.1,1.3,0.4,2,0.8c1.1,0.6,2.3,1.5,3.6,1.7c1.2,0.1,1.5,1.2,2.3,1.7c0.3,0.2-0.1,0.5-0.4,0.5
	C108.4,98.9,107.9,98.9,107.3,98.9C107.3,98.9,107.3,98.9,107.3,98.9z"/>
<path class="st2" d="M113.9,105.1c0-0.4,0.2-0.6,0.6-0.6c0.3,0,0.5,0.2,0.5,0.5c0,0.4-0.3,0.7-0.7,0.6
	C114,105.6,113.9,105.3,113.9,105.1z"/>
</svg>
