<?xml version="1.0" encoding="utf-8"?>
<!-- Generator: Adobe Illustrator 26.2.1, SVG Export Plug-In . SVG Version: 6.00 Build 0)  -->
<svg version="1.1" id="Calque_1" xmlns="http://www.w3.org/2000/svg" xmlns:xlink="http://www.w3.org/1999/xlink" x="0px" y="0px"
	 viewBox="0 0 256 256" style="enable-background:new 0 0 256 256;" xml:space="preserve">
<style type="text/css">
	.st0{fill:#2A9FDE;}
	.st1{fill:#FEFEFE;}
</style>
<g>
	<path class="st0" d="M210.3,122.5c0-5.1,0-10.1,0-15.2c0-2.1,0-4.2-0.9-6.2c-0.5-1-1.2-1.9-1.6-3c-1.1-3.4-3.2-6.2-4.2-9.7
		c-1.2-4.4-3.1-8.5-5.1-12.6c-1.4-2.8-2.1-5.9-4.3-8.3c-0.2-0.3-0.5-0.5-0.6-0.8c-0.8-2.5-2.3-4.5-4.1-6.4c-2.7-2.7-5.4-5.2-8.7-7.2
		c-2.3-1.4-4.4-2.9-7.1-3.4c-0.6-0.1-1.1-0.4-1.6-0.6c-2.5-0.8-5-1.5-7.5-2.2c-2.7-0.7-5.4-0.9-8.1-1.2c-2.6-0.3-5.2-1.4-7.9-1.3
		c-1.2,0-2.7-0.1-3.2-1.8c-0.1-0.3-0.5-0.6-0.8-0.8c-2.2-1.5-4.8-2.3-7.3-2.3c-10.7-0.2-21.3-0.1-32-0.1c-1,0-2,0.1-2.9,0.4
		c-2.6,0.8-5.1,1.8-7.6,2.5C92.1,43,89.6,44.3,87,45c-2.1,0.5-3.8,1.9-5.8,2.6c-2.5,0.8-4,2.9-6.1,4.3c-2,1.4-4,2.8-5.7,4.7
		c-3.1,3.4-6.5,6.6-10.8,8.6c-3.2,1.6-5.5,3.9-7.1,7.2c-0.8,1.5-0.9,3.4-2.5,4.6c-1.1,0.9-1.7,2.1-2.5,3.3c-0.7,1.1-0.5,2.3-1.2,3.3
		c-1.2,1.8-1.7,3.8-2.5,5.8c-1.1,2.7-1.2,5.6-2.1,8.3c-0.9,2.7-1.8,5.4-2.6,8.1c-1.1,3.7-1.6,7.5-1.4,11.3c0.1,1.1,0,2.3,0,3.5
		c0.3,7.4-0.9,14.9,1.3,22.3c0.4,1.3,0.1,2.8,1.1,4c0.3,0.4,0.3,1.1,0.3,1.7c0.1,1.4,0,2.8,0,4.1c0,1.2,0.4,2.2,1.1,3.3
		c0.8,1.2,1.8,2.5,1.4,4.2c-1.2,4.7-0.9,9.2,2.6,13c0.4,0.4,0.8,0.9,0.9,1.4c0.7,2.7,1.9,5.1,4.1,6.9c0.5,0.4,1,1,1.2,1.7
		c1.3,4,3.7,7.3,6.5,10.3c4.6,4.7,9.3,9.3,13.9,14c2.8,2.9,5.8,5.3,9.9,6c0.3,0.1,0.5,0.2,0.8,0.4c2.8,2,5.6,4.2,9.3,4.4
		c0.3,0,0.6,0.2,0.7,0.4c0.7,0.9,1.7,0.9,2.7,0.9c9.5,0,18.9,0,28.4,0c1.4,0,2.7,0.1,3.8,1.2c0.9,0.9,3.8,0.7,4.6-0.3
		c0.6-0.7,1.2-0.7,1.9-0.9c1.8-0.4,3.8,0.2,5.4-0.6c1.9-1,3.9-1.2,6-1.4c2.4-0.2,4.7-1.2,7-2c2.1-0.7,3.8-2.4,6-2.4
		c2.8,0,5-1.7,7.7-2.2c1.6-0.3,2.6-1.6,3.7-2.6c2.4-2.2,4.4-4.9,7.2-6.7c0.8-0.5,1.8-0.6,2.5-1.4c3.9-4.5,8.2-8.6,12.5-12.7
		c3.4-3.2,5.1-7.2,7.2-11.2c1.1-2.3,1.2-4.9,2.8-7c0.6-0.7,0.9-1.7,1.2-2.7c0.7-3,1.8-5.9,2.7-8.8c0.7-2.4,2.2-4.5,2.5-7
		c0.2-2,0.7-4.1,1.4-6c0.9-2.8,1.1-5.5,1.1-8.3C210.3,132,210.3,127.2,210.3,122.5z M208.6,141.6c0-6.3,0-12.7,0-19
		c0-6.3,0-12.7,0-19c0,6.3,0,12.7,0,19C208.6,128.9,208.6,135.2,208.6,141.6z"/>
</g>
<path class="st1" d="M105.3,153.6c0-0.9,0-1.7,0-2.6c-0.1-1.7,0.5-3,1.5-4.4c2-2.6,4.2-5.2,5.8-8c1.9-3.2,4.5-5.9,5.5-9.7
	c0.4-1.4,2.1-2.6,3.3-3.7c1.9-1.8,3.9-3.6,4.9-6.2c0.2-0.6,0.8-1.2,0.2-1.7c-0.7-0.6-1.1,0.2-1.5,0.6c-2,1.6-3.8,3.4-5.6,5.2
	c-0.3,0.3-0.6,0.6-0.5,1c0.1,1.7-1.2,2.7-2.3,3.4c-4.6,2.8-8.3,6.7-11.9,10.5c-0.8,0.9-2.1,1.3-3.1,1.7c-2.4,0.9-4,2.7-5.9,4.1
	c-0.4,0.3-0.7,0.8-1.1,0.8c-2.7,0.2-3.6,3.7-6.4,3.5c-2.5-0.1-5,0.1-7.6-0.2c-1.5-0.2-2-1.4-2.7-2.1c-2-2-4.3-3.7-5.5-6.4
	c-0.2-0.3-0.5-0.6-0.9-0.8c-4.8-2.7-5.6-5.6-5.3-10.7c0.2-3.1,1.9-5.1,4.1-7c0.9-0.7,2.1-0.6,2.9-1.4c1.6-1.7,3.4-3.3,5-5
	c2.3-2.5,5.2-3.8,8.1-5.4c2.9-1.5,6.2-2.5,8.4-5.3c1.6-1.9,4.2-2.5,6.4-3.8c2.5-1.5,5.2-2.7,7.9-3.9c3.7-1.8,7.4-3.7,11.1-5.6
	c3-1.6,6.5-1.5,9.5-3.1c1.1-0.6,2.3-1.2,3.4-1.9c2.4-1.5,5.1-2.4,7.6-3.9c1.5-0.9,3.4-0.8,5-1.7c4.4-2.7,9.1-2.3,13.9-1.6
	c1.6,0.2,3.7,1.9,3.7,4.6c0,3.8,0.5,7.4,1.7,11c0.5,1.4-0.1,2.8-0.8,4c-0.8,1.3-1,2.7-1,4.1c-0.1,2.7,0,5.4,0,8.1c0,1.5,0,3-0.9,4.3
	c-0.5,0.7-0.3,1.6-0.3,2.4c0,2.4-0.1,4.8-1.5,6.9c-0.2,0.3-0.2,0.9-0.2,1.3c0,2.8-0.1,5.5-1.5,8.2c-0.7,1.4-0.1,3.3-0.5,4.9
	c-0.2,0.7-0.2,1.5-0.7,2.1c-0.6,0.7-0.7,1.4-0.7,2.2c-0.1,2.9,0.7,6-0.4,8.7c-1.1,2.6-0.4,5.4-1.2,7.9c-1.1,3.6-0.8,7.3-1.8,10.8
	c-0.7,2.3-0.6,4.8-1.6,7c-1.4,3.1-3,5.9-6.4,7.2c-4.1,1.5-9.6,0.1-12.5-3.1c-0.3-0.3-0.7-0.7-0.8-1.1c-0.4-2.4-1.7-4.2-3.9-5
	c-2.5-0.9-3.9-3.1-6-4.4c-1-0.7-2.1-1.1-3.2-1.6c-2.3-1.1-3.6-3.2-5.4-4.8c-1.2-1.1-2.8-1.5-4-2c-3.5-1.3-4.3-3.7-4-6.9
	C105.3,154.6,105.3,154.1,105.3,153.6C105.3,153.6,105.3,153.6,105.3,153.6z M85.8,134.4c1.9-0.5,3.8-1.6,5.6-2.9
	c1.7-1.3,3.2-2.9,5.2-3.9c1.8-0.9,3.4-2.4,5.2-3.5c1.6-1,2.9-2.7,4.3-4.1c0.4-0.3,0.7-0.7,0.3-1.2c-0.3-0.5-0.8-0.4-1.2-0.3
	c-1.3,0.5-2.4,1.4-3.3,2.4c-1.1,1.1-2.2,2.1-3.8,2.4c-3,0.7-5.5,2.1-7.7,4.3c-1.4,1.4-2.6,2.9-4.5,3.6c-0.7,0.2-1.3,0.9-2,1.3
	c-0.7,0.5-0.5,0.9,0,1.4C84.4,134.4,85,134.3,85.8,134.4z M148.7,94c-0.1-0.6,0.1-1.9-0.8-1.6c-1.1,0.3-2.2,0.9-3.2,1.5
	c-0.3,0.2-0.4,0.5-0.2,0.8c0.7,1,1.6,1.6,2.9,1.5C148.6,95.9,148.7,95,148.7,94z M121.8,150.7c-0.2-0.5,0.3-1.3-0.6-1.5
	c-0.9-0.2-2.2,1.4-2.2,2.4c0,1,0.5,1.4,1.5,1.4C122,152.9,121.7,151.7,121.8,150.7z"/>
</svg>
