<?xml version="1.0" encoding="utf-8"?>
<!-- Generator: Adobe Illustrator 26.2.1, SVG Export Plug-In . SVG Version: 6.00 Build 0)  -->
<svg version="1.1" id="Calque_1" xmlns="http://www.w3.org/2000/svg" xmlns:xlink="http://www.w3.org/1999/xlink" x="0px" y="0px"
	 viewBox="0 0 256 256" style="enable-background:new 0 0 256 256;" xml:space="preserve">
<style type="text/css">
	.st0{fill:#7480E8;}
	.st1{fill:#4956C7;}
	.st2{fill:#5D66AA;}
	.st3{fill:#41467B;}
	.st4{fill:#F5F5FC;}
</style>
<path class="st0" d="M151.1,171.6c-0.3,9.4-6.8,10-14.4,14.2c-9.6,5.3-17.2,10.7-27.3,8.7c-2.6-0.5-10.1-0.6-12.3-2.1
	c0,0-4.7-1.7-8.1-2.7c-5-4.3-6-11.5-5.9-16.8c0-4.3,0.2-8.5,0.3-12.8c9.3,2,18.8,2.2,27.9,0.1c10.1-2.4,12.3-6.3,12.3-16.5
	c0-7.2,0-14.5,0-21.7c0-3.7-0.2-7-5.4-5.5c-1,0.3-1.6-0.8-2.1-1.6c0.3-0.3,0.5-0.6,0.8-0.9c2.5,1.4,5.1,0.8,7.8,0.5
	c6.7-0.8,13.4-1.5,20,0.7c2,4.5,2.9,9.2,2.7,14.2c-0.3,9.9,0.1,19.8-0.2,29.7C147,163.8,148.5,167.8,151.1,171.6z"/>
<path class="st1" d="M116.8,113.9c-0.3,0.3-0.5,0.6-0.8,0.9c-3.5,0.4-5.9,1.5-3.8,5.6c-0.4,7.5,0.6,15-0.8,22.6
	c-0.7,4.1-2.4,5-6.2,5c-6.4,0.1-12.9-1-19.2,0.7c-1.8,0.2-3.4,0.7-4.4,2.4c-7.1-0.1-14.1-0.2-21.2-0.3c-3.5-0.1-4.1-2.2-5.1-5.4
	c-1.9-5.7-3.7-11.9-0.3-48.1c0.3-2.7,0.4-5.3,1.3-7.9c1.1-3.4,2.8-5,6.5-4.5c2.9,0.4,5.6-0.8,8.3-1.6c7.6-2.2,15.3-0.9,23-0.9
	c1.6,1,3.3,1.9,4.9,2.9c1.1,0.7,2.2,1,3.5,1c11.7,0.7,11.7,0.7,11.7,12.1c0,0.9,0.1,1.9,0,2.8c-0.3,2.8,0.8,4.8,3.1,6.3
	C117.1,109.7,117,111.8,116.8,113.9z M93.8,106.4c3.1,0,6.6-0.1,10,0c3.2,0.1,5.5-0.1,5.5-4.4c0-4.1-1.9-5.6-5.5-5.1
	c-12.1,1.5-24.2,1.1-36.3,1.2c-0.3,0-0.6,0-0.9,0c-3.1-0.1-5.6,1.4-5.7,4.4c-0.1,3.1,3.1,3.6,5.6,3.9c3.9,0.4,7.7,0.5,11.6,1
	c3,0.4,2.8,1.4,2.8,3.3c0,10.3,0.1,20.5-0.1,30.8c0,3.6,0.7,5.6,5,5.5c6.2-0.2,8-1,8.1-5.3C93.9,130,93.8,118.4,93.8,106.4z"/>
<path class="st1" d="M151.1,171.6c-2.6-3.8-4.1-7.8-3.9-12.6c0.3-9.9-0.2-19.8,0.2-29.7c0.2-5.1-0.7-9.7-2.7-14.2
	c1.8-1,3.7-1.4,5.9-1.4c10.9,0.1,21.7,0.1,32.6,0c4-0.1,5.6,1.3,5.6,5.5c-0.1,10.7-4.4,17.3-5.5,27.8c-0.9,8.8-3.5,20.5-12.9,23.3
	C164.1,172,157.7,174.4,151.1,171.6z"/>
<path class="st0" d="M94.6,81.6c-2.3-6.3-0.7-11.7,2.9-17.2c6.8-10.6,17.3-11.4,27.6-9.7c7.4,1.2,13.7,9.3,16.5,16.1
	c1.4,3.5,0.6,13.8,0.6,17.9c0.1,11.9-8.4,13.8-18.9,17.6c-0.7,0.3-1.6,0.1-2.4,0.1c0-1.6,0.1-3.2,0.1-4.8c2-0.3,2.5-1.6,2.5-3.4
	c0-5.1,0.2-10.1-0.1-15.2c-0.2-4.4-3.2-7.1-7.7-7.2c-1.6,0-3.2,0.2-4.7,0c-4.7-0.7-6.4,1.3-5.4,5.8c-1.4,2.1-2.9,4-5.6,1.6
	c-0.1-0.8,0-1.6-0.2-2.3c-0.3-1.3,0.9-3.6-1.3-3.8c-1.8-0.2-2.9,1.4-3.3,3.2C95.1,80.9,94.8,81.2,94.6,81.6z"/>
<path class="st1" d="M183.9,88.4c1.8,10.3-8.2,18.2-22.7,19.5c-6.7,0.6-13-6.6-13-14.9c0-11.8,6.1-17.7,19.5-18.8
	C177.9,73.3,183.9,78.5,183.9,88.4z"/>
<path class="st2" d="M112.3,120.5c-2.2-4.2,0.3-5.3,3.8-5.6c0.5,0.9,1.1,1.9,2.1,1.6c5.2-1.5,5.5,1.8,5.4,5.5c0,7.2,0,14.5,0,21.7
	c0,10.2-2.2,14.1-12.3,16.5c-9.1,2.2-18.6,1.9-27.9-0.1c-0.4-1.4-0.3-2.8,0.1-4.2c0.9-0.4,1.8-0.8,2.7-1.2c8.7,1.4,17.5,2,25.8-1.8
	c3.9-1.8,6.4-4.7,6.2-9.6c-0.3-6.9-0.1-13.9-0.1-20.8c0-1.7,0.5-3.8-1.6-4.5C114.1,117.2,113.2,119,112.3,120.5z"/>
<path class="st3" d="M100.1,83.3c2.7,2.4,4.2,0.4,5.6-1.6c2,0,4.1,0.1,6.1-0.1c4.4-0.4,6.4,1.5,6.1,6c-0.2,3.4,0,6.9,0,10.3
	c0,2.2,0.7,3.6,3.1,3.7c0,1.6-0.1,3.2-0.1,4.8c-1,1-2.2,1.6-3.7,1.3c-2.3-1.5-3.4-3.5-3.1-6.3c0.1-0.9,0-1.9,0-2.8
	c0-11.4,0-11.4-11.7-12.1c-1.3-0.1-2.4-0.4-3.5-1C99,84.5,99.3,83.8,100.1,83.3z"/>
<path class="st2" d="M100.1,83.3c-0.8,0.5-1.1,1.2-1.1,2c-1.6-1-3.3-1.9-4.9-2.9c0.2-0.3,0.3-0.6,0.5-0.8c0.2-0.4,0.5-0.7,0.7-1.2
	c0.4-1.8,1.5-3.4,3.3-3.2c2.2,0.2,1,2.5,1.3,3.8C100,81.8,100,82.6,100.1,83.3z"/>
<path class="st0" d="M86.1,154.7c-0.9,0.4-1.8,0.8-2.7,1.2c-0.8-1.5,0.1-3.5-1.7-4.7c1-1.7,2.6-2.2,4.4-2.4
	C85.3,150.8,85.7,152.7,86.1,154.7z"/>
<path class="st4" d="M93.8,106.4c0,11.9,0.1,23.6,0,35.2c0,4.3-1.9,5.1-8.1,5.3c-4.2,0.1-5-1.9-5-5.5c0.1-10.3,0-20.5,0.1-30.8
	c0-1.9,0.2-2.9-2.8-3.3c-3.9-0.5-7.7-0.7-11.6-1c-2.4-0.2-5.7-0.7-5.6-3.9c0.1-2.9,2.6-4.4,5.7-4.4c0.3,0,0.6,0,0.9,0
	c12.1-0.1,24.2,0.4,36.3-1.2c3.6-0.5,5.5,1,5.5,5.1c0,4.3-2.3,4.5-5.5,4.4C100.4,106.3,96.9,106.4,93.8,106.4z"/>
<path class="st3" d="M86.1,154.7c-0.4-2-0.7-3.9,0.1-5.9c6.3-1.8,12.8-0.7,19.2-0.7c3.8,0,5.5-0.9,6.2-5c1.4-7.6,0.4-15.1,0.8-22.6
	c0.9-1.5,1.9-3.3,4-2.5c2.1,0.7,1.6,2.8,1.6,4.5c0,6.9-0.2,13.9,0.1,20.8c0.2,4.9-2.2,7.8-6.2,9.6
	C103.5,156.7,94.8,156.1,86.1,154.7z"/>
<path class="st2" d="M121,101.6c-2.4-0.1-3.2-1.5-3.1-3.7c0-3.4-0.1-6.9,0-10.3c0.2-4.5-1.8-6.3-6.1-6c-2,0.2-4,0.1-6.1,0.1
	c-1-4.5,0.7-6.5,5.4-5.8c1.5,0.2,3.2,0,4.7,0c4.5,0.1,7.5,2.7,7.7,7.2c0.2,5,0,10.1,0.1,15.2C123.6,100,123,101.3,121,101.6z"/>
</svg>
