<?xml version="1.0" encoding="utf-8"?>
<!-- Generator: Adobe Illustrator 26.2.1, SVG Export Plug-In . SVG Version: 6.00 Build 0)  -->
<svg version="1.1" id="Calque_1" xmlns="http://www.w3.org/2000/svg" xmlns:xlink="http://www.w3.org/1999/xlink" x="0px" y="0px"
	 viewBox="0 0 256 256" style="enable-background:new 0 0 256 256;" xml:space="preserve">
<style type="text/css">
	.st0{fill:#3F48CB;}
	.st1{fill:#24B14D;}
	.st2{fill:#B3E51D;}
</style>
<path class="st0" d="M111.9,130.7c-22.4,1-48.1-2.1-66.8,11.3c-6.4,9-4.9,21.8-6.6,32.4c-9.4,35.8,18.6,51.3,50.9,48.9
	c23.6-1.6,53.2,7.8,73.6-5.8c15.1-15.5,67.8-34.5,55.2-61.4C183.3,122.5,156.8,130.5,111.9,130.7z"/>
<path class="st1" d="M161.6,129.9c-41.9,38.3-15.3,62.3-51.1-1.5c-9.1-13.6-14.9-27.2-24.8-40.4c-0.8-3.7,4.2-6.1,6-9.3
	c1.5-4.2,4.6-6.5,7-10.2c1.1-5.1,5.9-6.7,9.9-9.9c4.3-2,6.1-5.9,9.3-9.1c2.9-3.8,4.6-7.5,7.1-11.2c1.4-8.8,7.3-3.2,10.2,1
	c8.2,10.1,13.8,24,23.3,34.3c5.2,7.1,10.5,12.3,14.4,20.2c1.7,6.1,6.9,13.9,3.9,20.8c-1.6,3.4-6.3,4.3-8.5,6.7
	C166.1,124.3,163,126.7,161.6,129.9z"/>
<path class="st2" d="M153.9,93.3c-3.7,19.1-9.8,37.2-16.6,56.4c-1.2,4.8-1.3,10.3-3.8,14.4c-0.8-1.5,0.2-4.2-1.4-5.8
	c-2.4-15.6-10.1-29.7-14.7-44.4c-2.2-3.7-3.7-7.3-5-11.2c-2.7-4.1-6.1-9.7-3.3-15.1c2.8-9.8,8.8-18.4,10.5-28.9
	c1.1-5.5,3.7-10.1,6.3-15.1c0-1.3,1.7-6.7,2.2-5c4.4,9.2,11.9,16.7,14.8,26.6C146.4,74.8,152.5,83,153.9,93.3z"/>
</svg>
