<?xml version="1.0" encoding="utf-8"?>
<!-- Generator: Adobe Illustrator 26.2.1, SVG Export Plug-In . SVG Version: 6.00 Build 0)  -->
<svg version="1.1" id="Calque_1" xmlns="http://www.w3.org/2000/svg" xmlns:xlink="http://www.w3.org/1999/xlink" x="0px" y="0px"
	 viewBox="0 0 256 256" style="enable-background:new 0 0 256 256;" xml:space="preserve">
<style type="text/css">
	.st0{fill:#25F4EE;}
	.st1{fill:#FE2C55;}
</style>
<g>
	<path class="st0" d="M153.6,37.5c1.3-7.3-34.6-5.9-34,0.7c-2.3,38.7,11.8,76.5,5.9,114.6c-2.3,24-26.5,32.4-47,31.5
		c-17.2-2.3-2.9,13.7,12.3,7.8c69.2-6.6,35.7-88.8,37.7-133.4C118.5,26.6,146.8,49.5,153.6,37.5z"/>
	<path class="st0" d="M60.6,197.4c-10.4-5-10.6-17-16.5-25.2c-4.3-7.3-0.1-16.2-0.1-24.1c3.3-17.8,21.9-35.6,40.8-33.8
		c3,0.2,5.5-2,8.3-1.3c-3.5-1.1-1.1-6.7-5.2-7.6c-20.8-3.6-37.5,12.7-49.3,27.5c-7.7,11.3-3.7,25.4-4.6,38.4
		c9.3,16.6,27.3,29.1,44.7,37.7C78.9,205,63.7,203.5,60.6,197.4z"/>
</g>
<g>
	<path class="st1" d="M94.5,114.4c0.9-4.6,4.8-4.1,8.2-2.6c7.3,2.6,2.8,14.9,2.1,20.5c0.6,4.1-0.6,8.5-0.6,11.9
		c1.8,2.7-0.5,5.7-3.2,5.4c-9.4,1.7-26.7-7.8-31.4,3.8c-7.8,12.5-1.4,17.6-7,23.1c-11.4-3-6.4-16-7.6-24.6
		c1.1-6.5,10.8-7.7,15.8-11.3C98.4,126.7,98.6,148,94.5,114.4z"/>
	<path class="st1" d="M150.4,41.5c3.3-2.3,10.2-3.1,10.2,2.9c-1,4.7,5,10.6-1.4,13.8c-1.3,3.5,5.5,8.6,6.9,12.4
		C158.6,62.6,152.3,52.3,150.4,41.5z"/>
	<path class="st1" d="M80.8,208.9c15.2-2.8,34.2,5.9,46-6.3c14.1-0.5,21.9-21.6,29.9-32.3c3.5-12,3.5-27.7,0.9-40.1
		c0.1-11.3,0.6-22.9-2.4-32.9c6.2-7.3,15.6,5.7,23.4,4.9c8.3,0.2,16.1,2.2,24.6,1.5c2.9-0.4,1-4.8,3.1-7.1c1.3-14.4-5-3.3-4-15.7
		c-8.8-2.5-19.3,5.4-26.5-1.6c-3.2-2.1-13.6-12-6.1-5.9c9.6,13,23.8,4.4,37.1,7.4c11.9,0.6,5.9,17.3,5.5,24.4
		c-1.7,11.1-18.3,4.1-26.2,6c-3.1-0.6-5.9-2.1-9.4-1.5c-2.7,0.4-4.6-2.2-7.4-1.4c-4.1,6.3,0.5,16.3,0.2,23.4
		c0.9,19.7-1.9,38.6-7.2,57.2c-4.1,15.4-14.9,21.2-29.3,25.6C117.4,226.3,93.8,222.8,80.8,208.9z"/>
</g>
<path d="M204.7,88.2c-5.4-1.3-0.8-5.8-2.5-7.3c-20.9,1.5-29.1,2.5-41.4-17.2c-14.2-17.3-2.2-26.2-30.7-22.8
	c-8,5.2,1.1,25.9-1.7,35.7c5.2,41.1,23.8,110.6-37.7,115.5c-12.6,4.3-23.9-3.9-28.2-15.6c-11.4-3-6.4-16-7.6-24.6
	c4.6-9.6,20.7-12.5,30.4-16.6c5.9-0.8,14.5,1.7,10.9-6.8c-2.6-4.8,0.5-11.9-3.5-15.2c-1.1-0.3-2.2-1-3.2-0.2
	c-5.7,3.3-12.6-1-18.5,2.7c-9.4,5.7-19.1,12.3-23.9,22.2c-3.6,10.4-7.3,23.7-3.1,34.2c5.9,8.3,6.2,20.2,16.5,25.2
	c14.3,14.9,34.5,10.4,53.1,11.7c6,1,8.7-3.8,13-6.6c8.5,1.1,14-8.9,18.8-15.4c14.6-15.4,16.2-37.4,12-57c-1.4-9.2,2.6-20.5-1.8-28.6
	c-2.9-2.7,0.5-7.3,3.9-6.7c13.6,7.4,28.2,9.4,43.4,8.9C205.9,103,207.9,89.5,204.7,88.2z"/>
</svg>
